<svg xmlns="http://www.w3.org/2000/svg" xmlns:xlink="http://www.w3.org/1999/xlink" width="1024" zoomAndPan="magnify" viewBox="0 0 768 767.999994" height="1024" preserveAspectRatio="xMidYMid meet" version="1.0"><defs><clipPath id="741897142c"><path d="M 77 213.886719 L 691 213.886719 L 691 554.386719 L 77 554.386719 Z M 77 213.886719 " clip-rule="nonzero"/></clipPath></defs><rect x="-76.8" width="921.6" fill="#ffffff" y="-76.799999" height="921.599993" fill-opacity="1"/><rect x="-76.8" width="921.6" fill="#ffffff" y="-76.799999" height="921.599993" fill-opacity="1"/><path fill="#000000" d="M 407.851562 323.441406 C 407.851562 324.226562 407.8125 325.011719 407.738281 325.789062 C 407.660156 326.570312 407.546875 327.347656 407.390625 328.113281 C 407.238281 328.882812 407.050781 329.644531 406.820312 330.394531 C 406.59375 331.144531 406.332031 331.882812 406.03125 332.609375 C 405.730469 333.332031 405.394531 334.039062 405.027344 334.730469 C 404.65625 335.425781 404.253906 336.097656 403.820312 336.75 C 403.382812 337.402344 402.917969 338.03125 402.421875 338.636719 C 401.925781 339.242188 401.398438 339.824219 400.84375 340.378906 C 400.289062 340.933594 399.710938 341.457031 399.105469 341.957031 C 398.5 342.453125 397.871094 342.921875 397.21875 343.355469 C 396.566406 343.792969 395.898438 344.195312 395.207031 344.5625 C 394.515625 344.933594 393.808594 345.269531 393.082031 345.570312 C 392.359375 345.867188 391.621094 346.132812 390.871094 346.359375 C 390.121094 346.589844 389.363281 346.777344 388.59375 346.933594 C 387.828125 347.085938 387.054688 347.199219 386.273438 347.277344 C 385.492188 347.351562 384.710938 347.390625 383.929688 347.390625 C 383.144531 347.390625 382.363281 347.351562 381.582031 347.277344 C 380.804688 347.199219 380.03125 347.085938 379.261719 346.933594 C 378.492188 346.777344 377.734375 346.589844 376.984375 346.359375 C 376.234375 346.132812 375.496094 345.867188 374.773438 345.570312 C 374.050781 345.269531 373.339844 344.933594 372.652344 344.5625 C 371.960938 344.195312 371.289062 343.792969 370.636719 343.355469 C 369.984375 342.921875 369.355469 342.453125 368.75 341.957031 C 368.144531 341.457031 367.566406 340.933594 367.011719 340.378906 C 366.457031 339.824219 365.933594 339.242188 365.433594 338.636719 C 364.9375 338.03125 364.472656 337.402344 364.035156 336.75 C 363.601562 336.097656 363.199219 335.425781 362.828125 334.730469 C 362.460938 334.039062 362.125 333.332031 361.824219 332.609375 C 361.527344 331.882812 361.261719 331.144531 361.035156 330.394531 C 360.808594 329.644531 360.617188 328.882812 360.464844 328.113281 C 360.3125 327.347656 360.195312 326.570312 360.121094 325.789062 C 360.042969 325.011719 360.003906 324.226562 360.003906 323.441406 C 360.003906 322.660156 360.042969 321.875 360.121094 321.09375 C 360.195312 320.316406 360.3125 319.539062 360.464844 318.769531 C 360.617188 318 360.808594 317.242188 361.035156 316.492188 C 361.261719 315.742188 361.527344 315.003906 361.824219 314.277344 C 362.125 313.554688 362.460938 312.84375 362.828125 312.152344 C 363.199219 311.460938 363.601562 310.789062 364.035156 310.136719 C 364.472656 309.484375 364.9375 308.855469 365.433594 308.25 C 365.933594 307.644531 366.457031 307.0625 367.011719 306.507812 C 367.566406 305.953125 368.144531 305.429688 368.75 304.929688 C 369.355469 304.433594 369.984375 303.964844 370.636719 303.53125 C 371.289062 303.09375 371.960938 302.691406 372.652344 302.320312 C 373.339844 301.953125 374.050781 301.617188 374.773438 301.316406 C 375.496094 301.015625 376.234375 300.753906 376.984375 300.523438 C 377.734375 300.296875 378.492188 300.105469 379.261719 299.953125 C 380.03125 299.800781 380.804688 299.6875 381.582031 299.609375 C 382.363281 299.53125 383.144531 299.492188 383.929688 299.492188 C 384.710938 299.492188 385.492188 299.53125 386.273438 299.609375 C 387.054688 299.6875 387.828125 299.800781 388.59375 299.953125 C 389.363281 300.105469 390.121094 300.296875 390.871094 300.523438 C 391.621094 300.753906 392.359375 301.015625 393.082031 301.316406 C 393.808594 301.617188 394.515625 301.953125 395.207031 302.320312 C 395.898438 302.691406 396.566406 303.09375 397.21875 303.53125 C 397.871094 303.964844 398.5 304.433594 399.105469 304.929688 C 399.710938 305.429688 400.289062 305.953125 400.84375 306.507812 C 401.398438 307.0625 401.925781 307.644531 402.421875 308.25 C 402.917969 308.855469 403.382812 309.484375 403.820312 310.136719 C 404.253906 310.789062 404.65625 311.460938 405.027344 312.152344 C 405.394531 312.84375 405.730469 313.554688 406.03125 314.277344 C 406.332031 315.003906 406.59375 315.742188 406.820312 316.492188 C 407.050781 317.242188 407.238281 318 407.390625 318.769531 C 407.546875 319.539062 407.660156 320.316406 407.738281 321.09375 C 407.8125 321.875 407.851562 322.660156 407.851562 323.441406 Z M 407.851562 323.441406 " fill-opacity="1" fill-rule="nonzero"/><path fill="#000000" d="M 116.410156 228.003906 C 116.410156 226.707031 115.355469 225.652344 114.058594 225.652344 C 112.761719 225.652344 111.707031 226.707031 111.707031 228.003906 C 111.707031 229.304688 112.761719 230.359375 114.058594 230.359375 C 115.355469 230.359375 116.410156 229.304688 116.410156 228.003906 Z M 116.410156 228.003906 " fill-opacity="1" fill-rule="nonzero"/><path fill="#000000" d="M 188.734375 228.003906 C 188.734375 229.304688 189.789062 230.359375 191.085938 230.359375 C 192.382812 230.359375 193.4375 229.304688 193.4375 228.003906 C 193.4375 226.707031 192.382812 225.652344 191.085938 225.652344 C 189.789062 225.652344 188.734375 226.707031 188.734375 228.003906 Z M 188.734375 228.003906 " fill-opacity="1" fill-rule="nonzero"/><g clip-path="url(#741897142c)"><path fill="#000000" d="M 537.90625 338.355469 C 540.425781 338.355469 542.472656 336.308594 542.472656 333.785156 C 542.472656 332.878906 542.199219 332.039062 541.746094 331.332031 L 578.441406 295.511719 C 579.925781 296.59375 581.742188 297.238281 583.703125 297.238281 L 588.695312 297.238281 L 588.695312 301.035156 L 592.324219 301.035156 L 592.324219 543.121094 L 572.332031 543.121094 L 572.332031 554.414062 L 686.628906 554.414062 L 686.628906 543.121094 L 672.996094 543.121094 L 672.996094 349.515625 L 650.589844 349.515625 L 650.589844 242.121094 L 656.582031 242.121094 C 662.335938 242.121094 667.304688 238.625 669.492188 233.652344 L 690.417969 233.652344 L 690.417969 222.359375 L 669.492188 222.359375 C 667.304688 217.386719 662.335938 213.886719 656.582031 213.886719 L 573.984375 213.886719 C 568.230469 213.886719 563.261719 217.386719 561.074219 222.359375 L 206.78125 222.359375 C 204.59375 217.386719 199.625 213.886719 193.871094 213.886719 L 111.273438 213.886719 C 105.519531 213.886719 100.550781 217.386719 98.363281 222.359375 L 77.4375 222.359375 L 77.4375 233.652344 L 98.363281 233.652344 C 100.550781 238.625 105.519531 242.125 111.273438 242.125 L 117.265625 242.125 L 117.265625 349.515625 L 94.859375 349.515625 L 94.859375 543.125 L 81.226562 543.125 L 81.226562 554.417969 L 195.523438 554.417969 L 195.523438 543.125 L 175.53125 543.125 L 175.53125 301.035156 L 179.160156 301.035156 L 179.160156 297.238281 L 184.152344 297.238281 C 186.117188 297.238281 187.933594 296.59375 189.414062 295.515625 L 226.109375 331.332031 C 225.65625 332.042969 225.382812 332.878906 225.382812 333.785156 C 225.382812 336.308594 227.429688 338.355469 229.953125 338.355469 C 230.898438 338.355469 231.777344 338.066406 232.503906 337.574219 L 248.320312 353.011719 L 245.464844 365.304688 C 244.941406 367.542969 245.480469 369.847656 246.941406 371.625 C 248.347656 373.335938 250.394531 374.300781 252.589844 374.300781 C 252.679688 374.300781 252.765625 374.300781 252.851562 374.296875 L 260.433594 374.035156 C 263.738281 373.921875 266.570312 371.589844 267.320312 368.367188 L 267.773438 366.402344 C 268.074219 366.507812 268.378906 366.601562 268.691406 366.675781 L 316.507812 377.96875 C 317.148438 378.121094 317.804688 378.195312 318.460938 378.195312 C 318.941406 378.195312 319.421875 378.15625 319.898438 378.074219 L 355.167969 372.011719 L 355.167969 426.191406 L 346.101562 537.515625 C 345.511719 544.761719 350.898438 551.113281 358.132812 551.703125 C 365.371094 552.292969 371.714844 546.902344 372.304688 539.65625 L 380.203125 442.707031 L 387.648438 442.707031 L 395.546875 539.65625 C 396.140625 546.902344 402.484375 552.292969 409.71875 551.703125 C 416.957031 551.109375 422.34375 544.761719 421.753906 537.515625 L 412.683594 426.191406 L 412.683594 372.011719 L 447.957031 378.074219 C 448.429688 378.15625 448.914062 378.195312 449.394531 378.195312 C 450.050781 378.195312 450.707031 378.121094 451.347656 377.96875 L 499.164062 366.675781 C 499.476562 366.601562 499.78125 366.507812 500.078125 366.402344 L 500.535156 368.367188 C 501.285156 371.589844 504.117188 373.921875 507.421875 374.035156 L 515.003906 374.296875 C 515.089844 374.300781 515.175781 374.300781 515.265625 374.300781 C 517.460938 374.300781 519.511719 373.335938 520.914062 371.625 C 522.375 369.847656 522.914062 367.542969 522.394531 365.304688 L 519.539062 353.007812 L 535.351562 337.574219 C 536.082031 338.066406 536.957031 338.355469 537.90625 338.355469 Z M 583.03125 291.59375 C 582.746094 291.59375 582.46875 291.542969 582.203125 291.476562 C 582.328125 290.957031 582.222656 290.390625 581.824219 289.980469 C 581.335938 289.480469 580.605469 289.386719 580.007812 289.667969 C 579.800781 289.230469 579.675781 288.746094 579.675781 288.230469 C 579.675781 286.375 581.179688 284.867188 583.03125 284.867188 C 584.886719 284.867188 586.390625 286.375 586.390625 288.230469 C 586.390625 290.085938 584.886719 291.59375 583.03125 291.59375 Z M 603.605469 301.035156 L 607.230469 301.035156 L 607.230469 275.425781 L 603.605469 275.425781 L 603.605469 242.121094 L 623.839844 242.121094 L 623.839844 349.515625 L 610.296875 349.515625 L 610.296875 543.121094 L 603.605469 543.121094 Z M 646 349.515625 L 635.121094 349.515625 L 635.121094 242.121094 L 646 242.121094 Z M 659.640625 228.003906 C 659.640625 231.234375 657.023438 233.855469 653.796875 233.855469 C 650.570312 233.855469 647.953125 231.234375 647.953125 228.003906 C 647.953125 224.773438 650.570312 222.15625 653.796875 222.15625 C 657.023438 222.15625 659.640625 224.773438 659.640625 228.003906 Z M 576.769531 222.15625 C 579.996094 222.15625 582.613281 224.773438 582.613281 228.003906 C 582.613281 231.234375 579.996094 233.855469 576.769531 233.855469 C 573.542969 233.855469 570.929688 231.234375 570.929688 228.003906 C 570.929688 224.773438 573.542969 222.15625 576.769531 222.15625 Z M 196.925781 228.003906 C 196.925781 231.234375 194.3125 233.855469 191.085938 233.855469 C 187.859375 233.855469 185.242188 231.234375 185.242188 228.003906 C 185.242188 224.773438 187.859375 222.15625 191.085938 222.15625 C 194.3125 222.15625 196.925781 224.773438 196.925781 228.003906 Z M 108.21875 228.003906 C 108.21875 224.773438 110.832031 222.15625 114.058594 222.15625 C 117.285156 222.15625 119.902344 224.773438 119.902344 228.003906 C 119.902344 231.234375 117.285156 233.855469 114.058594 233.855469 C 110.832031 233.855469 108.21875 231.234375 108.21875 228.003906 Z M 121.855469 242.121094 L 132.734375 242.121094 L 132.734375 349.515625 L 121.855469 349.515625 Z M 164.25 543.121094 L 157.558594 543.121094 L 157.558594 349.515625 L 144.015625 349.515625 L 144.015625 242.121094 L 164.25 242.121094 L 164.25 275.425781 L 160.625 275.425781 L 160.625 301.035156 L 164.25 301.035156 Z M 181.464844 288.230469 C 181.464844 286.375 182.96875 284.871094 184.824219 284.871094 C 186.675781 284.871094 188.179688 286.375 188.179688 288.230469 C 188.179688 288.746094 188.054688 289.230469 187.847656 289.667969 C 187.25 289.386719 186.519531 289.480469 186.03125 289.984375 C 185.632812 290.390625 185.527344 290.957031 185.652344 291.476562 C 185.386719 291.546875 185.109375 291.59375 184.824219 291.59375 C 182.96875 291.59375 181.464844 290.085938 181.464844 288.230469 Z M 260.289062 369.78125 L 252.707031 370.042969 C 251.75 370.085938 250.839844 369.664062 250.226562 368.921875 C 249.613281 368.175781 249.386719 367.207031 249.605469 366.269531 L 252.042969 355.777344 C 252.386719 355.730469 252.722656 355.601562 252.984375 355.332031 C 253.601562 354.703125 253.585938 353.691406 252.957031 353.074219 L 252.722656 352.847656 L 255.460938 341.0625 C 255.679688 340.125 256.308594 339.355469 257.1875 338.957031 C 257.59375 338.773438 258.027344 338.679688 258.457031 338.679688 C 258.957031 338.679688 259.449219 338.800781 259.90625 339.046875 L 266.597656 342.628906 C 267.820312 343.285156 268.453125 344.6875 268.140625 346.042969 L 267.066406 350.671875 C 264.78125 351.734375 262.992188 353.789062 262.367188 356.433594 C 261.742188 359.09375 262.441406 361.75 264.03125 363.726562 L 263.179688 367.402344 C 262.863281 368.753906 261.675781 369.734375 260.289062 369.78125 Z M 517.628906 368.921875 C 517.019531 369.667969 516.121094 370.070312 515.148438 370.042969 L 507.570312 369.78125 C 506.183594 369.734375 504.992188 368.753906 504.679688 367.402344 L 503.824219 363.726562 C 505.414062 361.75 506.117188 359.09375 505.488281 356.433594 C 504.867188 353.792969 503.074219 351.734375 500.792969 350.671875 L 499.714844 346.042969 C 499.402344 344.6875 500.039062 343.285156 501.261719 342.628906 L 507.949219 339.046875 C 508.800781 338.59375 509.789062 338.558594 510.671875 338.957031 C 511.546875 339.355469 512.179688 340.125 512.394531 341.066406 L 515.132812 352.847656 L 514.898438 353.078125 C 514.269531 353.691406 514.257812 354.703125 514.871094 355.335938 C 515.132812 355.601562 515.46875 355.734375 515.8125 355.777344 L 518.25 366.269531 C 518.46875 367.207031 518.242188 368.175781 517.628906 368.921875 Z M 516.539062 340.101562 C 516.015625 337.859375 514.519531 336.027344 512.425781 335.078125 C 510.332031 334.128906 507.96875 334.207031 505.945312 335.292969 L 499.253906 338.875 C 496.339844 340.4375 494.824219 343.78125 495.574219 347.003906 L 496.253906 349.929688 C 495.921875 349.96875 495.589844 350.019531 495.257812 350.101562 L 449.128906 360.996094 L 406.191406 353.613281 C 405.976562 353.574219 405.765625 353.554688 405.554688 353.535156 C 405.199219 353.488281 404.835938 353.457031 404.46875 353.457031 L 363.386719 353.457031 C 363.019531 353.457031 362.65625 353.488281 362.296875 353.535156 C 362.085938 353.558594 361.875 353.574219 361.664062 353.613281 L 318.726562 360.996094 L 272.597656 350.101562 C 272.265625 350.019531 271.933594 349.96875 271.601562 349.929688 L 272.28125 347.003906 C 273.03125 343.78125 271.515625 340.4375 268.601562 338.875 L 261.910156 335.292969 C 259.882812 334.207031 257.523438 334.128906 255.429688 335.078125 C 253.335938 336.027344 251.835938 337.859375 251.316406 340.101562 L 249.160156 349.375 L 234.355469 334.921875 C 234.449219 334.554688 234.515625 334.179688 234.515625 333.785156 C 234.515625 331.257812 232.46875 329.210938 229.949219 329.210938 C 229.511719 329.210938 229.101562 329.292969 228.703125 329.40625 L 191.632812 293.21875 C 192.589844 291.789062 193.152344 290.070312 193.152344 288.230469 C 193.152344 283.277344 189.101562 279.222656 184.152344 279.222656 L 179.160156 279.222656 L 179.160156 275.425781 L 175.53125 275.425781 L 175.53125 242.121094 L 193.871094 242.121094 C 199.625 242.121094 204.59375 238.625 206.78125 233.652344 L 561.074219 233.652344 C 563.261719 238.625 568.230469 242.121094 573.984375 242.121094 L 592.320312 242.121094 L 592.320312 275.425781 L 588.695312 275.425781 L 588.695312 279.222656 L 583.703125 279.222656 C 578.753906 279.222656 574.703125 283.277344 574.703125 288.230469 C 574.703125 290.070312 575.265625 291.785156 576.222656 293.21875 L 539.148438 329.40625 C 538.75 329.292969 538.335938 329.210938 537.902344 329.210938 C 535.382812 329.210938 533.335938 331.257812 533.335938 333.785156 C 533.335938 334.179688 533.402344 334.554688 533.496094 334.921875 L 518.691406 349.375 Z M 516.539062 340.101562 " fill-opacity="1" fill-rule="nonzero"/></g><path fill="#000000" d="M 651.445312 228.003906 C 651.445312 229.304688 652.496094 230.359375 653.796875 230.359375 C 655.09375 230.359375 656.148438 229.304688 656.148438 228.003906 C 656.148438 226.707031 655.09375 225.652344 653.796875 225.652344 C 652.496094 225.652344 651.445312 226.707031 651.445312 228.003906 Z M 651.445312 228.003906 " fill-opacity="1" fill-rule="nonzero"/><path fill="#000000" d="M 576.769531 230.359375 C 578.070312 230.359375 579.121094 229.304688 579.121094 228.003906 C 579.121094 226.707031 578.070312 225.652344 576.769531 225.652344 C 575.472656 225.652344 574.417969 226.707031 574.417969 228.003906 C 574.417969 229.304688 575.472656 230.359375 576.769531 230.359375 Z M 576.769531 230.359375 " fill-opacity="1" fill-rule="nonzero"/></svg>