<svg xmlns="http://www.w3.org/2000/svg" xmlns:xlink="http://www.w3.org/1999/xlink" width="1024" zoomAndPan="magnify" viewBox="0 0 768 775.92" height="1024" preserveAspectRatio="xMidYMid meet" version="1.0"><defs><clipPath id="e7d7bdac3d"><path d="M 0.0390625 0 L 767.960938 0 L 767.960938 767.921875 L 0.0390625 767.921875 Z M 0.0390625 0 " clip-rule="nonzero"/></clipPath><clipPath id="4cf89a3ec7"><path d="M 110.492188 76.792969 L 481 76.792969 L 481 589 L 110.492188 589 Z M 110.492188 76.792969 " clip-rule="nonzero"/></clipPath><clipPath id="ed9d6a5e6e"><path d="M 287 178 L 657.1875 178 L 657.1875 690.980469 L 287 690.980469 Z M 287 178 " clip-rule="nonzero"/></clipPath></defs><g clip-path="url(#e7d7bdac3d)"><path fill="#ffffff" d="M 0.0390625 0 L 767.960938 0 L 767.960938 767.921875 L 0.0390625 767.921875 Z M 0.0390625 0 " fill-opacity="1" fill-rule="nonzero"/><path fill="#ffffff" d="M 0.0390625 0 L 767.960938 0 L 767.960938 767.921875 L 0.0390625 767.921875 Z M 0.0390625 0 " fill-opacity="1" fill-rule="nonzero"/></g><g clip-path="url(#4cf89a3ec7)"><path fill="#f9104f" d="M 158.855469 454.929688 C 158.855469 335.160156 252.847656 237.238281 371.109375 231.128906 L 371.109375 265.191406 L 425.675781 218.070312 L 480.164062 171.035156 L 425.675781 123.914062 L 371.109375 76.792969 L 371.109375 110.855469 C 226.148438 117.636719 110.730469 237.238281 110.730469 383.871094 C 110.730469 465.476562 146.46875 538.710938 203.214844 588.757812 C 175.34375 551.429688 158.855469 505.148438 158.855469 454.929688 Z M 158.855469 454.929688 " fill-opacity="1" fill-rule="evenodd"/></g><g clip-path="url(#ed9d6a5e6e)"><path fill="#f9104f" d="M 609.222656 312.8125 C 609.222656 432.667969 515.230469 530.507812 396.96875 536.617188 L 396.96875 502.550781 L 342.398438 549.671875 L 287.914062 596.792969 L 342.398438 643.832031 L 396.96875 690.953125 L 396.96875 656.886719 C 541.847656 650.109375 657.347656 530.507812 657.347656 383.871094 C 657.347656 302.269531 621.609375 229.035156 564.863281 178.984375 C 592.734375 216.3125 609.222656 262.679688 609.222656 312.8125 Z M 609.222656 312.8125 " fill-opacity="1" fill-rule="evenodd"/></g></svg>