<svg xmlns="http://www.w3.org/2000/svg" xmlns:xlink="http://www.w3.org/1999/xlink" width="1024" zoomAndPan="magnify" viewBox="0 0 768 775.92" height="1024" preserveAspectRatio="xMidYMid meet" version="1.0"><defs><clipPath id="135dc5942c"><path d="M 0.0390625 0 L 767.960938 0 L 767.960938 767.921875 L 0.0390625 767.921875 Z M 0.0390625 0 " clip-rule="nonzero"/></clipPath><clipPath id="64523b933b"><path d="M 154.027344 153.988281 L 613.730469 153.988281 L 613.730469 613.691406 L 154.027344 613.691406 Z M 154.027344 153.988281 " clip-rule="nonzero"/></clipPath></defs><g clip-path="url(#135dc5942c)"><path fill="#ffffff" d="M 0.0390625 0 L 767.960938 0 L 767.960938 767.921875 L 0.0390625 767.921875 Z M 0.0390625 0 " fill-opacity="1" fill-rule="nonzero"/><path fill="#ffffff" d="M 0.0390625 0 L 767.960938 0 L 767.960938 767.921875 L 0.0390625 767.921875 Z M 0.0390625 0 " fill-opacity="1" fill-rule="nonzero"/></g><g clip-path="url(#64523b933b)"><path fill="#ffe522" d="M 383.878906 153.988281 C 256.824219 153.988281 154.027344 256.898438 154.027344 383.957031 C 154.027344 511.011719 256.824219 613.925781 383.878906 613.925781 C 510.9375 613.925781 613.964844 511.011719 613.964844 383.957031 C 613.964844 256.898438 510.9375 153.988281 383.878906 153.988281 Z M 383.996094 567.929688 C 282.347656 567.929688 200.019531 485.601562 200.019531 383.957031 C 200.019531 282.308594 282.347656 199.980469 383.996094 199.980469 C 485.640625 199.980469 567.96875 282.308594 567.96875 383.957031 C 567.96875 485.601562 485.640625 567.929688 383.996094 567.929688 Z M 383.996094 567.929688 " fill-opacity="0.9" fill-rule="nonzero"/></g><path fill="#ffe522" d="M 395.492188 268.972656 L 361 268.972656 L 361 406.953125 L 481.617188 479.394531 L 498.980469 451.105469 L 395.492188 389.703125 Z M 395.492188 268.972656 " fill-opacity="0.9" fill-rule="nonzero"/></svg>