<svg xmlns="http://www.w3.org/2000/svg" xmlns:xlink="http://www.w3.org/1999/xlink" width="1024" zoomAndPan="magnify" viewBox="0 0 768 775.92" height="1024" preserveAspectRatio="xMidYMid meet" version="1.0"><defs><clipPath id="9b8a399ff4"><path d="M 0.0390625 0 L 767.960938 0 L 767.960938 767.921875 L 0.0390625 767.921875 Z M 0.0390625 0 " clip-rule="nonzero"/></clipPath><clipPath id="c3cd08f2ee"><path d="M 274 146.160156 L 371 146.160156 L 371 343 L 274 343 Z M 274 146.160156 " clip-rule="nonzero"/></clipPath><clipPath id="dc12ac0b1c"><path d="M 383 146.160156 L 493 146.160156 L 493 384 L 383 384 Z M 383 146.160156 " clip-rule="nonzero"/></clipPath><clipPath id="6258f11f58"><path d="M 398 417 L 493 417 L 493 621.613281 L 398 621.613281 Z M 398 417 " clip-rule="nonzero"/></clipPath><clipPath id="d984e1d606"><path d="M 143 146.160156 L 337 146.160156 L 337 213 L 143 213 Z M 143 146.160156 " clip-rule="nonzero"/></clipPath><clipPath id="8afa5e1042"><path d="M 430 146.160156 L 624 146.160156 L 624 213 L 430 213 Z M 430 146.160156 " clip-rule="nonzero"/></clipPath></defs><g clip-path="url(#9b8a399ff4)"><path fill="#ffffff" d="M 0.0390625 0 L 767.960938 0 L 767.960938 767.921875 L 0.0390625 767.921875 Z M 0.0390625 0 " fill-opacity="1" fill-rule="nonzero"/><path fill="#ffffff" d="M 0.0390625 0 L 767.960938 0 L 767.960938 767.921875 L 0.0390625 767.921875 Z M 0.0390625 0 " fill-opacity="1" fill-rule="nonzero"/></g><g clip-path="url(#c3cd08f2ee)"><path fill="#9ded02" d="M 307.738281 146.269531 L 306.804688 146.28125 C 295.753906 147.328125 287.582031 151.289062 282.28125 158.15625 C 276.65625 165.019531 274.101562 172.964844 274.621094 181.988281 C 274.839844 184.90625 275.460938 187.808594 276.488281 190.695312 L 331.027344 342.6875 L 334.894531 338.195312 L 370.476562 256.007812 L 338.992188 168.265625 C 338.175781 166.003906 337.15625 163.894531 335.933594 161.929688 C 329.167969 151.8125 319.769531 146.589844 307.738281 146.269531 Z M 307.738281 146.269531 " fill-opacity="1" fill-rule="nonzero"/></g><path fill="#9ded02" d="M 382.480469 340.011719 L 382.457031 340.011719 C 382.148438 340.015625 381.835938 340.019531 381.527344 340.023438 L 381.167969 340.035156 C 380.929688 340.046875 380.691406 340.058594 380.453125 340.074219 C 379.738281 340.117188 379.023438 340.183594 378.304688 340.273438 L 378.316406 340.277344 L 378.414062 340.632812 L 379.28125 340.464844 L 380.699219 340.257812 L 382.128906 340.113281 L 383.597656 340.03125 C 383.464844 340.027344 383.257812 340.023438 382.964844 340.015625 C 382.800781 340.011719 382.640625 340.011719 382.480469 340.011719 Z M 382.480469 340.011719 " fill-opacity="1" fill-rule="nonzero"/><path fill="#9ded02" d="M 349.664062 378.476562 L 349.761719 379.050781 C 350.042969 380.582031 350.433594 382.113281 350.929688 383.636719 L 351.183594 382.902344 L 351.734375 381.367188 L 351.746094 381.367188 C 351.34375 381.011719 350.980469 380.621094 350.664062 380.199219 C 350.503906 379.992188 350.355469 379.773438 350.21875 379.546875 L 350.023438 379.203125 C 349.894531 378.96875 349.777344 378.726562 349.671875 378.476562 Z M 349.664062 378.476562 " fill-opacity="1" fill-rule="nonzero"/><g clip-path="url(#dc12ac0b1c)"><path fill="#9ded02" d="M 402.457031 345.140625 L 402.457031 345.140625 M 402.457031 345.140625 L 402.457031 345.140625 M 460.03125 146.261719 L 459.453125 146.269531 C 446.445312 146.449219 436.488281 152.6875 429.578125 164.988281 L 385.960938 285.980469 C 385.9375 288.023438 385.589844 291.464844 384.925781 296.3125 L 402.457031 345.140625 C 395.777344 341.3125 389.488281 339.609375 383.597656 340.03125 C 392.347656 340.960938 398.902344 343.398438 403.257812 347.335938 L 416.261719 383.636719 C 417.179688 381.121094 417.738281 377.859375 417.941406 373.855469 L 420.628906 381.304688 C 425.726562 368.203125 429.535156 359.148438 432.058594 354.140625 L 490.707031 190.695312 L 491.941406 186.351562 C 493.191406 181.34375 492.964844 175.878906 491.253906 169.957031 C 489.519531 164.957031 487.402344 161.023438 484.910156 158.15625 C 479.675781 151.375 471.382812 147.410156 460.03125 146.261719 Z M 460.03125 146.261719 " fill-opacity="1" fill-rule="nonzero"/></g><path fill="#9ded02" d="M 347.703125 378.085938 L 347.53125 378.207031 C 347.320312 378.351562 347.144531 378.460938 347.003906 378.546875 L 347.011719 378.546875 L 345.492188 383.003906 L 345.722656 383.636719 L 347.710938 378.085938 Z M 347.703125 378.085938 " fill-opacity="1" fill-rule="nonzero"/><path fill="#9ded02" d="M 416.257812 383.65625 L 414.03125 389.859375 L 415.917969 386.460938 C 416.574219 387.003906 417.050781 387.488281 417.355469 387.910156 C 417.328125 387.714844 417.21875 387.195312 417.035156 386.347656 C 416.957031 386.015625 416.878906 385.695312 416.796875 385.386719 C 416.628906 384.765625 416.449219 384.1875 416.257812 383.65625 " fill-opacity="1" fill-rule="nonzero"/><path fill="#9ded02" d="M 394.546875 424.976562 L 394.546875 424.980469 C 394.128906 425.152344 393.421875 425.398438 392.421875 425.722656 C 391.851562 425.902344 391.269531 426.066406 390.683594 426.214844 L 390.386719 426.324219 L 389.96875 426.433594 C 389.328125 426.578125 388.359375 426.730469 387.0625 426.886719 C 386.839844 426.925781 385.6875 427.042969 383.597656 427.242188 C 384.632812 427.320312 385.828125 427.316406 387.183594 427.230469 L 388.148438 427.144531 L 389.117188 427.023438 L 390.089844 426.867188 L 391.070312 426.679688 L 392.050781 426.457031 L 393.039062 426.199219 L 394.039062 425.910156 L 394.546875 424.976562 " fill-opacity="1" fill-rule="nonzero"/><path fill="#9ded02" d="M 391.667969 452.457031 L 391.648438 452.484375 C 391.59375 452.550781 391.542969 452.617188 391.488281 452.683594 L 391.5 452.683594 L 390.699219 454.90625 L 391.675781 452.457031 L 391.667969 452.460938 Z M 391.667969 452.457031 " fill-opacity="1" fill-rule="nonzero"/><g clip-path="url(#6258f11f58)"><path fill="#9ded02" d="M 433.511719 417.226562 L 413.25 470.335938 L 398.085938 515.105469 L 428.203125 599.007812 C 428.945312 601.015625 429.835938 602.902344 430.875 604.667969 C 432.832031 608.8125 436.960938 612.757812 443.257812 616.507812 C 447.964844 619.597656 453.882812 621.121094 461.023438 621.074219 C 474.207031 619.796875 483.785156 613.296875 489.753906 601.570312 C 493.167969 593.246094 493.59375 585.238281 491.03125 577.542969 Z M 433.511719 417.226562 " fill-opacity="1" fill-rule="nonzero"/></g><path fill="#9ded02" d="M 364.742188 422.144531 L 364.746094 422.144531 L 364.742188 422.148438 L 364.738281 422.148438 C 364.738281 422.144531 364.738281 422.144531 364.738281 422.144531 L 364.742188 422.148438 " fill-opacity="1" fill-rule="nonzero"/><path fill="#9ded02" d="M 345.722656 383.636719 L 276.488281 576.582031 C 274.488281 583.597656 274.175781 590.023438 275.550781 595.855469 C 276.238281 598.769531 277.347656 601.539062 278.878906 604.160156 L 281.492188 607.976562 C 283.445312 610.449219 285.820312 612.773438 288.617188 614.949219 C 295.945312 619.425781 303.402344 621.394531 310.992188 620.84375 C 319.058594 619.457031 325.148438 616.800781 329.261719 612.882812 C 333.417969 609.496094 336.464844 605.367188 338.410156 600.5 L 378.007812 490.304688 C 377.574219 489.734375 377.667969 488.421875 378.285156 486.375 L 383.222656 473.660156 L 364.742188 422.152344 C 371.308594 425.933594 377.59375 427.632812 383.597656 427.246094 C 377.6875 427.421875 371.140625 424.996094 363.953125 419.964844 L 350.9375 383.652344 C 349.742188 387.652344 349.179688 390.925781 349.25 393.476562 Z M 345.722656 383.636719 " fill-opacity="1" fill-rule="nonzero"/><g clip-path="url(#d984e1d606)"><path fill="#9ded02" d="M 303.71875 146.417969 L 176.6875 146.417969 C 158.347656 146.417969 143.484375 161.285156 143.484375 179.621094 C 143.484375 197.960938 158.347656 212.824219 176.6875 212.824219 L 303.71875 212.828125 C 322.058594 212.824219 336.921875 197.960938 336.921875 179.621094 C 336.921875 161.285156 322.058594 146.417969 303.71875 146.417969 Z M 303.71875 146.417969 " fill-opacity="1" fill-rule="nonzero"/></g><g clip-path="url(#8afa5e1042)"><path fill="#9ded02" d="M 463.472656 146.417969 C 445.136719 146.417969 430.269531 161.285156 430.269531 179.621094 C 430.269531 197.960938 445.136719 212.824219 463.472656 212.824219 L 590.507812 212.828125 C 608.84375 212.824219 623.710938 197.960938 623.710938 179.621094 C 623.710938 161.285156 608.84375 146.417969 590.507812 146.417969 Z M 463.472656 146.417969 " fill-opacity="1" fill-rule="nonzero"/></g><path fill="#9ded02" d="M 176.6875 554.449219 C 158.347656 554.449219 143.484375 569.316406 143.484375 587.652344 C 143.484375 605.992188 158.347656 620.855469 176.6875 620.855469 L 303.71875 620.855469 C 322.058594 620.855469 336.921875 605.992188 336.921875 587.652344 C 336.921875 569.316406 322.058594 554.449219 303.71875 554.449219 Z M 176.6875 554.449219 " fill-opacity="1" fill-rule="nonzero"/><path fill="#9ded02" d="M 463.472656 554.449219 C 445.136719 554.449219 430.269531 569.316406 430.269531 587.652344 C 430.269531 605.992188 445.136719 620.855469 463.472656 620.855469 L 590.507812 620.855469 C 608.84375 620.855469 623.710938 605.992188 623.710938 587.652344 C 623.710938 569.316406 608.84375 554.449219 590.507812 554.449219 Z M 463.472656 554.449219 " fill-opacity="1" fill-rule="nonzero"/><path fill="#9ded02" d="M 170.253906 157.148438 C 156.03125 157.148438 142.875 166.363281 138.507812 180.671875 L 79.875 372.863281 C 78.777344 376.453125 78.320312 380.085938 78.4375 383.636719 L 78.4375 383.640625 C 78.886719 369.832031 87.992188 357.222656 101.945312 352.964844 C 105.171875 351.980469 108.433594 351.511719 111.644531 351.511719 C 125.867188 351.511719 139.023438 360.722656 143.390625 375.035156 L 146.015625 383.636719 L 202.023438 200.050781 C 207.375 182.511719 197.492188 163.953125 179.953125 158.605469 C 176.726562 157.617188 173.460938 157.148438 170.253906 157.148438 Z M 170.253906 157.148438 " fill-opacity="1" fill-rule="nonzero"/><path fill="#9ded02" d="M 596.9375 157.148438 C 593.730469 157.148438 590.46875 157.617188 587.238281 158.605469 C 569.699219 163.953125 559.820312 182.511719 565.167969 200.050781 L 621.179688 383.636719 L 623.800781 375.035156 C 628.167969 360.722656 641.324219 351.511719 655.550781 351.511719 C 658.757812 351.511719 662.019531 351.980469 665.25 352.964844 C 679.199219 357.222656 688.304688 369.832031 688.753906 383.636719 L 688.753906 383.640625 C 688.871094 380.085938 688.414062 376.453125 687.320312 372.863281 L 628.6875 180.671875 C 624.320312 166.363281 611.164062 157.148438 596.9375 157.148438 Z M 596.9375 157.148438 " fill-opacity="1" fill-rule="nonzero"/><path fill="#9ded02" d="M 146.015625 383.636719 L 143.390625 392.242188 C 139.023438 406.550781 125.867188 415.765625 111.644531 415.765625 C 108.433594 415.765625 105.171875 415.296875 101.945312 414.308594 C 88.03125 410.066406 78.9375 397.511719 78.441406 383.746094 L 78.433594 383.75 C 78.332031 387.265625 78.789062 390.859375 79.875 394.410156 L 138.507812 586.601562 C 142.875 600.914062 156.03125 610.125 170.253906 610.125 C 173.460938 610.125 176.726562 609.65625 179.953125 608.671875 C 197.492188 603.320312 207.375 584.765625 202.023438 567.226562 Z M 146.015625 383.636719 " fill-opacity="1" fill-rule="nonzero"/><path fill="#9ded02" d="M 621.179688 383.636719 L 565.167969 567.226562 C 559.820312 584.765625 569.699219 603.320312 587.238281 608.671875 C 590.46875 609.65625 593.730469 610.125 596.9375 610.125 C 611.164062 610.125 624.320312 600.914062 628.6875 586.601562 L 687.320312 394.410156 C 688.394531 390.890625 688.851562 387.328125 688.761719 383.839844 L 688.746094 383.84375 C 688.214844 397.570312 679.132812 410.074219 665.25 414.308594 C 662.019531 415.296875 658.757812 415.765625 655.550781 415.765625 C 641.324219 415.765625 628.167969 406.550781 623.800781 392.242188 Z M 621.179688 383.636719 " fill-opacity="1" fill-rule="nonzero"/><path fill="#9ded02" d="M 397.417969 258.652344 L 396.972656 258.964844 C 395.683594 260.128906 393.554688 263.992188 390.589844 270.546875 L 352.3125 367.183594 C 349.375 375.78125 346.296875 386.449219 343.082031 399.183594 C 340.363281 409.132812 339.984375 416.917969 341.941406 422.53125 C 344.621094 429.949219 348.941406 431.742188 354.902344 427.910156 C 358.90625 425.253906 363.621094 419.945312 369.058594 411.984375 C 375.855469 400.261719 381.257812 390.039062 385.269531 381.324219 C 388.984375 375.269531 396.910156 352.140625 409.050781 311.9375 L 397.417969 258.652344 " fill-opacity="1" fill-rule="nonzero"/><path fill="#9ded02" d="M 429.125 321.789062 L 429.019531 321.796875 L 396.859375 322.21875 C 392.546875 330.9375 388.617188 339.171875 385.066406 346.921875 C 377.96875 362.417969 372.394531 375.984375 368.347656 387.609375 C 364.582031 397.933594 361.769531 408.921875 359.914062 420.574219 C 355.628906 446.03125 357.460938 460.183594 365.402344 463.027344 C 366.765625 462.964844 368.246094 462.285156 369.84375 460.996094 L 372.332031 458.59375 C 374.050781 456.6875 375.886719 454.164062 377.839844 451.023438 C 379.796875 447.882812 381.867188 444.128906 384.0625 439.757812 C 386.253906 435.390625 388.566406 430.402344 390.996094 424.800781 L 391.015625 424.984375 L 391.65625 423.796875 C 394.542969 417.472656 406.878906 385.851562 428.667969 328.929688 C 429.378906 327.082031 429.832031 325.171875 430.027344 323.203125 C 430.027344 322.265625 429.726562 321.792969 429.125 321.789062 " fill-opacity="1" fill-rule="nonzero"/><path fill="#9ded02" d="M 421.992188 362.550781 L 421.09375 362.605469 C 411.582031 364.527344 401.722656 371.878906 391.519531 384.65625 C 386.710938 390.960938 381.519531 399.097656 375.949219 409.0625 C 373.164062 414.042969 370.28125 419.480469 367.304688 425.378906 C 359.695312 440.917969 355.015625 450.789062 353.265625 454.996094 L 372.695312 504.710938 L 420.414062 380.773438 L 425.289062 367.425781 C 426.277344 364.421875 425.179688 362.796875 421.992188 362.550781 " fill-opacity="1" fill-rule="nonzero"/><path fill="#9ded02" d="M 424.996094 352.75 L 383.742188 468.308594 C 398.605469 433.375 409.023438 409.433594 415 396.476562 C 420.453125 381.425781 425.054688 369.683594 428.808594 361.25 C 428.753906 359.894531 428.472656 358.582031 427.964844 357.3125 C 426.921875 355.117188 425.929688 353.597656 424.996094 352.75 Z M 424.996094 352.75 " fill-opacity="1" fill-rule="nonzero"/><path fill="#9ded02" d="M 371.992188 322.207031 L 369.476562 327.347656 C 364.890625 336.675781 361.722656 343.394531 359.96875 347.507812 C 348.40625 375.769531 341.613281 393.414062 339.589844 400.4375 C 339.265625 401.535156 338.835938 403.414062 338.296875 406.078125 L 337.828125 409.316406 C 337.601562 411.421875 337.546875 413.410156 337.667969 415.285156 C 337.789062 417.160156 338.082031 418.921875 338.550781 420.570312 L 339.378906 422.957031 C 340.019531 424.488281 340.832031 425.910156 341.820312 427.21875 L 371.992188 322.207031 " fill-opacity="1" fill-rule="nonzero"/><path fill="#9ded02" d="M 651.066406 342.066406 L 648.894531 342.265625 C 645.949219 342.796875 642.796875 344.382812 639.441406 347.027344 C 636.636719 348.949219 632.527344 353.378906 627.113281 360.308594 C 624.019531 364.914062 622.136719 371.125 621.464844 378.941406 C 620.757812 387.925781 621.1875 395.90625 622.757812 402.882812 L 623.695312 405.988281 C 624.394531 407.957031 625.238281 409.710938 626.230469 411.257812 C 627.222656 412.804688 628.359375 414.140625 629.640625 415.265625 L 637.582031 454.449219 C 643.371094 448.066406 648.382812 441.496094 652.621094 434.742188 C 654.738281 431.363281 656.664062 427.941406 658.398438 424.472656 L 660.847656 419.230469 C 665.246094 409.859375 668.289062 397.851562 669.984375 383.210938 C 673.492188 355.726562 667.1875 342.011719 651.066406 342.066406 " fill-opacity="1" fill-rule="nonzero"/><path fill="#9ded02" d="M 666.589844 347.199219 L 666.378906 347.203125 C 665.8125 347.214844 665.246094 347.269531 664.679688 347.371094 L 620.613281 472.859375 C 623.15625 471.953125 627.472656 468.679688 633.574219 463.042969 C 637.144531 460.144531 647.546875 449.40625 664.777344 430.828125 C 669.429688 425.535156 673.40625 420.398438 676.710938 415.425781 C 680.550781 409.277344 682.648438 405.636719 683.015625 404.503906 C 684.160156 402.136719 685.140625 399.808594 685.953125 397.523438 C 689.414062 387.835938 689.433594 378.109375 686.011719 368.351562 C 680.3125 354.398438 673.839844 347.347656 666.589844 347.199219 " fill-opacity="1" fill-rule="nonzero"/><path fill="#9ded02" d="M 117.410156 337.90625 L 115.050781 338.003906 C 110.375 338.394531 105.914062 339.957031 101.675781 342.695312 C 97.125 345.519531 92.285156 350.28125 87.164062 356.980469 C 86.269531 357.886719 84.363281 361.207031 81.445312 366.945312 C 80.367188 369.3125 79.421875 371.78125 78.601562 374.347656 C 77.429688 379.582031 77.199219 384.308594 77.90625 388.527344 C 78.742188 392.875 81.238281 398.746094 85.394531 406.136719 C 86.003906 407.207031 86.636719 408.269531 87.289062 409.320312 L 99.742188 426.242188 L 132.824219 435.152344 C 134.960938 426.609375 136.515625 417.378906 137.484375 407.453125 L 138.101562 399.878906 C 138.4375 394.742188 138.632812 389.433594 138.675781 383.953125 C 138.722656 378.472656 138.625 372.816406 138.375 366.992188 C 136.773438 355.578125 134 347.550781 130.058594 342.90625 C 128.746094 341.359375 127.300781 340.1875 125.726562 339.390625 C 124.339844 338.507812 121.566406 338.015625 117.410156 337.90625 " fill-opacity="1" fill-rule="nonzero"/><path fill="#9ded02" d="M 130.222656 337.105469 L 128.246094 344.042969 C 124.546875 357.507812 122.328125 368.511719 121.597656 377.058594 L 121.355469 381.125 L 121.378906 389.257812 C 121.460938 392.144531 121.691406 394.84375 122.070312 397.355469 L 122.742188 400.984375 C 123.789062 405.628906 125.417969 409.523438 127.632812 412.667969 C 129.007812 414.835938 130.941406 416.386719 133.445312 417.320312 C 135.757812 417.902344 137.542969 417.507812 138.808594 416.136719 C 139.519531 415.476562 140.1875 414.59375 140.804688 413.488281 L 141.691406 411.671875 C 142.261719 410.347656 142.78125 408.804688 143.25 407.039062 C 144.109375 403.621094 144.710938 400.957031 145.054688 399.039062 C 145.429688 397.308594 145.746094 394.566406 146.003906 390.808594 C 146.105469 383.742188 145.875 370.308594 145.308594 350.507812 L 130.222656 337.105469 " fill-opacity="1" fill-rule="nonzero"/></svg>