<svg xmlns="http://www.w3.org/2000/svg" xmlns:xlink="http://www.w3.org/1999/xlink" width="1080" zoomAndPan="magnify" viewBox="0 0 810 1439.999935" height="1920" preserveAspectRatio="xMidYMid meet" version="1.0"><path fill="#01b6fe" d="M 690.644531 729.59375 L 590.9375 745.953125 C 590.9375 745.953125 570.511719 698.679688 496.28125 649.878906 C 490.121094 645.816406 483.683594 642.265625 476.960938 639.226562 C 473.289062 637.578125 468.820312 635.671875 463.605469 633.648438 C 344.039062 587.421875 208.527344 631.886719 137.054688 738.378906 C 113.160156 773.980469 91.652344 819.523438 91.058594 868.867188 C 91.058594 868.867188 80.988281 808.921875 114.371094 734.011719 C 173.851562 600.523438 317.351562 523.265625 461.53125 547.132812 C 490.71875 552 518.828125 560.441406 545.871094 572.457031 C 545.871094 572.457031 634.640625 609.371094 690.644531 729.59375 Z M 690.644531 729.59375 " fill-opacity="1" fill-rule="nonzero"/><path fill="#01b6fe" d="M 464.015625 874.832031 L 464.015625 874.703125 C 463.648438 875.730469 463.25 876.746094 462.828125 877.75 C 462.402344 878.757812 461.953125 879.75 461.476562 880.734375 C 461 881.714844 460.496094 882.683594 459.96875 883.640625 C 459.4375 884.59375 458.886719 885.535156 458.308594 886.460938 C 457.726562 887.386719 457.125 888.296875 456.5 889.191406 C 455.871094 890.085938 455.222656 890.960938 454.546875 891.820312 C 453.875 892.679688 453.179688 893.519531 452.460938 894.339844 C 451.742188 895.164062 451 895.964844 450.242188 896.746094 C 449.480469 897.53125 448.699219 898.292969 447.894531 899.035156 C 447.09375 899.773438 446.273438 900.492188 445.433594 901.191406 C 444.59375 901.886719 443.734375 902.5625 442.859375 903.214844 C 441.984375 903.863281 441.089844 904.492188 440.179688 905.097656 C 439.273438 905.699219 438.347656 906.28125 437.40625 906.835938 C 436.46875 907.390625 435.511719 907.917969 434.542969 908.421875 C 433.574219 908.925781 432.59375 909.40625 431.601562 909.855469 C 430.605469 910.308594 429.601562 910.734375 428.585938 911.132812 C 427.570312 911.527344 426.542969 911.898438 425.507812 912.242188 C 424.46875 912.585938 423.425781 912.902344 422.371094 913.191406 C 421.320312 913.476562 420.257812 913.738281 419.191406 913.96875 C 418.125 914.199219 417.054688 914.402344 415.976562 914.578125 C 414.898438 914.75 413.816406 914.898438 412.730469 915.015625 C 411.644531 915.128906 410.558594 915.21875 409.46875 915.277344 C 408.378906 915.335938 407.285156 915.363281 406.195312 915.367188 C 405.101562 915.367188 404.011719 915.335938 402.921875 915.28125 C 401.832031 915.222656 400.742188 915.136719 399.65625 915.019531 C 398.574219 914.90625 397.492188 914.761719 396.414062 914.589844 C 395.335938 914.414062 394.261719 914.214844 393.195312 913.984375 C 392.128906 913.753906 391.066406 913.496094 390.015625 913.207031 C 388.960938 912.921875 387.917969 912.605469 386.878906 912.265625 C 385.84375 911.921875 384.816406 911.550781 383.800781 911.15625 C 382.78125 910.757812 381.777344 910.335938 380.78125 909.882812 C 379.789062 909.433594 378.804688 908.957031 377.835938 908.453125 C 376.867188 907.949219 375.914062 907.421875 374.972656 906.867188 C 374.03125 906.316406 373.105469 905.738281 372.195312 905.132812 C 371.285156 904.53125 370.394531 903.902344 369.515625 903.253906 C 368.640625 902.601562 367.78125 901.929688 366.941406 901.234375 C 366.097656 900.535156 365.277344 899.820312 364.476562 899.078125 C 363.671875 898.339844 362.890625 897.578125 362.128906 896.796875 C 361.367188 896.015625 360.625 895.210938 359.90625 894.390625 C 359.1875 893.570312 358.488281 892.730469 357.816406 891.871094 C 357.140625 891.011719 356.488281 890.136719 355.863281 889.246094 C 355.234375 888.351562 354.628906 887.441406 354.050781 886.519531 C 353.472656 885.59375 352.917969 884.652344 352.386719 883.699219 C 351.859375 882.742188 351.355469 881.773438 350.875 880.792969 C 350.398438 879.8125 349.945312 878.820312 349.523438 877.8125 C 349.097656 876.808594 348.699219 875.792969 348.328125 874.765625 C 347.957031 873.738281 347.613281 872.703125 347.296875 871.65625 C 346.984375 870.613281 346.695312 869.558594 346.433594 868.5 C 346.175781 867.4375 345.945312 866.371094 345.742188 865.300781 C 345.539062 864.226562 345.363281 863.148438 345.21875 862.066406 C 345.074219 860.984375 344.957031 859.898438 344.871094 858.8125 C 344.78125 857.722656 344.722656 856.632812 344.695312 855.542969 C 344.664062 854.453125 344.664062 853.359375 344.691406 852.269531 C 344.722656 851.175781 344.777344 850.085938 344.863281 849 C 344.953125 847.910156 345.066406 846.824219 345.210938 845.742188 C 345.355469 844.660156 345.527344 843.585938 345.730469 842.511719 C 345.933594 841.4375 346.164062 840.371094 346.421875 839.3125 C 346.679688 838.25 346.964844 837.199219 347.28125 836.152344 C 347.59375 835.105469 347.9375 834.070312 348.308594 833.042969 C 348.675781 832.015625 349.074219 831 349.5 829.992188 C 349.921875 828.988281 350.375 827.992188 350.851562 827.011719 C 351.328125 826.03125 351.828125 825.0625 352.359375 824.105469 C 352.886719 823.152344 353.441406 822.210938 354.019531 821.285156 C 354.597656 820.359375 355.199219 819.449219 355.828125 818.554688 C 356.453125 817.660156 357.105469 816.785156 357.777344 815.925781 C 358.453125 815.066406 359.148438 814.226562 359.867188 813.40625 C 360.585938 812.582031 361.324219 811.78125 362.085938 811 C 362.847656 810.214844 363.628906 809.453125 364.429688 808.714844 C 365.234375 807.972656 366.054688 807.253906 366.894531 806.558594 C 367.734375 805.859375 368.59375 805.183594 369.46875 804.535156 C 370.34375 803.882812 371.238281 803.253906 372.148438 802.652344 C 373.054688 802.046875 373.980469 801.46875 374.921875 800.914062 C 375.863281 800.359375 376.816406 799.828125 377.785156 799.324219 C 378.753906 798.820312 379.734375 798.34375 380.726562 797.890625 C 381.722656 797.441406 382.726562 797.015625 383.742188 796.617188 C 384.761719 796.21875 385.785156 795.847656 386.824219 795.507812 C 387.859375 795.164062 388.902344 794.847656 389.957031 794.558594 C 391.011719 794.273438 392.070312 794.011719 393.136719 793.78125 C 394.203125 793.550781 395.277344 793.347656 396.355469 793.171875 C 397.433594 793 398.511719 792.855469 399.597656 792.738281 C 400.683594 792.621094 401.773438 792.53125 402.863281 792.476562 C 403.953125 792.417969 405.042969 792.386719 406.136719 792.386719 C 407.226562 792.386719 408.316406 792.414062 409.40625 792.472656 C 410.496094 792.53125 411.585938 792.617188 412.671875 792.730469 C 413.757812 792.847656 414.839844 792.992188 415.917969 793.164062 C 416.992188 793.339844 418.066406 793.539062 419.132812 793.769531 C 420.199219 794 421.261719 794.257812 422.3125 794.546875 C 423.367188 794.832031 424.414062 795.148438 425.449219 795.488281 C 426.484375 795.832031 427.511719 796.203125 428.53125 796.597656 C 429.546875 796.996094 430.550781 797.421875 431.546875 797.871094 C 432.539062 798.320312 433.523438 798.796875 434.492188 799.300781 C 435.460938 799.804688 436.414062 800.332031 437.355469 800.886719 C 438.296875 801.441406 439.222656 802.019531 440.132812 802.621094 C 441.042969 803.226562 441.933594 803.851562 442.8125 804.503906 C 443.6875 805.152344 444.546875 805.828125 445.386719 806.523438 C 446.226562 807.21875 447.050781 807.9375 447.851562 808.679688 L 447.851562 808.574219 L 728.949219 755.507812 Z M 464.015625 874.832031 " fill-opacity="1" fill-rule="nonzero"/></svg>