<svg xmlns="http://www.w3.org/2000/svg" xmlns:xlink="http://www.w3.org/1999/xlink" width="1024" zoomAndPan="magnify" viewBox="0 0 768 775.92" height="1024" preserveAspectRatio="xMidYMid meet" version="1.0"><defs><clipPath id="bde4f268ee"><path d="M 223.121094 565 L 544.835938 565 L 544.835938 690.980469 L 223.121094 690.980469 Z M 223.121094 565 " clip-rule="nonzero"/></clipPath></defs><path fill="#000000" d="M 299.761719 525.984375 L 299.761719 470.691406 C 296.9375 472.28125 293.765625 473.179688 290.46875 473.296875 L 290.46875 533.945312 C 292.945312 530.660156 296.113281 527.933594 299.761719 525.984375 Z M 299.761719 525.984375 " fill-opacity="1" fill-rule="nonzero"/><path fill="#000000" d="M 295.382812 365.210938 C 296.832031 364.644531 298.292969 364.117188 299.765625 363.625 L 299.765625 125.160156 C 299.765625 115.886719 304.679688 107.761719 312.023438 103.1875 C 314.875 110.027344 321.636719 114.867188 329.476562 114.867188 L 363.691406 114.867188 L 363.691406 312.867188 C 369.007812 310.210938 374.890625 308.527344 381.105469 308.042969 L 381.105469 277.65625 C 378.359375 276.285156 376.457031 273.480469 376.457031 270.203125 C 376.457031 266.925781 378.359375 264.121094 381.105469 262.75 L 381.105469 115.570312 L 388.539062 115.570312 L 388.539062 262.746094 C 391.28125 264.121094 393.183594 266.925781 393.183594 270.203125 C 393.183594 273.480469 391.28125 276.289062 388.539062 277.660156 L 388.539062 308.042969 C 394.753906 308.527344 400.632812 310.210938 405.949219 312.867188 L 405.949219 114.867188 L 440.167969 114.867188 C 448.011719 114.867188 454.769531 110.027344 457.621094 103.1875 C 464.964844 107.761719 469.882812 115.886719 469.882812 125.160156 L 469.882812 363.625 C 471.351562 364.117188 472.8125 364.644531 474.265625 365.210938 L 477.828125 366.589844 C 478.265625 366.300781 478.714844 366.03125 479.175781 365.773438 L 479.175781 125.160156 C 479.175781 111.078125 470.839844 98.933594 458.859375 93.316406 C 457.550781 84.171875 449.660156 77.074219 440.167969 77.074219 L 329.476562 77.074219 C 319.984375 77.074219 312.089844 84.171875 310.785156 93.316406 C 298.808594 98.9375 290.472656 111.078125 290.472656 125.160156 L 290.472656 365.773438 C 290.933594 366.027344 291.382812 366.300781 291.820312 366.589844 Z M 444.261719 95.96875 C 444.261719 100.292969 440.757812 103.796875 436.429688 103.796875 C 432.105469 103.796875 428.601562 100.292969 428.601562 95.96875 C 428.601562 91.644531 432.105469 88.140625 436.429688 88.140625 C 440.757812 88.140625 444.261719 91.648438 444.261719 95.96875 Z M 333.210938 88.140625 C 337.535156 88.140625 341.039062 91.648438 341.039062 95.972656 C 341.039062 100.296875 337.535156 103.800781 333.210938 103.800781 C 328.886719 103.800781 325.378906 100.296875 325.378906 95.972656 C 325.378906 91.648438 328.886719 88.140625 333.210938 88.140625 Z M 333.210938 88.140625 " fill-opacity="1" fill-rule="nonzero"/><path fill="#000000" d="M 469.878906 525.984375 C 473.53125 527.933594 476.695312 530.660156 479.171875 533.941406 L 479.171875 473.296875 C 475.875 473.179688 472.703125 472.28125 469.878906 470.6875 Z M 469.878906 525.984375 " fill-opacity="1" fill-rule="nonzero"/><path fill="#000000" d="M 260.332031 386.320312 C 260.203125 385.355469 260.167969 384.402344 260.179688 383.453125 L 243.9375 389.757812 L 246.585938 396.585938 L 247.296875 398.417969 L 261.21875 393.019531 Z M 260.332031 386.320312 " fill-opacity="1" fill-rule="nonzero"/><path fill="#000000" d="M 509.46875 383.453125 C 509.472656 384.398438 509.441406 385.351562 509.316406 386.320312 L 508.429688 393.015625 L 522.347656 398.417969 L 523.058594 396.585938 L 525.710938 389.753906 Z M 509.46875 383.453125 " fill-opacity="1" fill-rule="nonzero"/><path fill="#000000" d="M 300.195312 377.894531 L 300.289062 377.859375 C 310.355469 373.953125 320.929688 371.972656 331.730469 371.972656 L 339.308594 371.972656 L 339.308594 390.789062 C 341.3125 390.136719 343.148438 389.726562 344.882812 389.488281 L 344.882812 380.730469 C 341.441406 375.351562 339.046875 369.242188 338.011719 362.683594 L 331.730469 362.683594 C 319.777344 362.683594 308.070312 364.875 296.925781 369.195312 L 295.546875 369.730469 C 297.675781 372.015625 299.285156 374.796875 300.195312 377.894531 Z M 300.195312 377.894531 " fill-opacity="1" fill-rule="nonzero"/><path fill="#000000" d="M 344.882812 664.195312 L 344.882812 593.539062 L 339.304688 593.539062 L 339.304688 664.632812 Z M 344.882812 664.195312 " fill-opacity="1" fill-rule="nonzero"/><path fill="#000000" d="M 339.304688 119.09375 L 339.304688 342.09375 C 340.578125 337.703125 342.472656 333.578125 344.882812 329.808594 L 344.882812 119.09375 Z M 339.304688 119.09375 " fill-opacity="1" fill-rule="nonzero"/><path fill="#000000" d="M 424.757812 119.09375 L 424.757812 329.808594 C 427.171875 333.574219 429.0625 337.703125 430.335938 342.09375 L 430.335938 119.09375 Z M 424.757812 119.09375 " fill-opacity="1" fill-rule="nonzero"/><path fill="#000000" d="M 424.757812 593.539062 L 424.757812 664.324219 L 430.335938 664.765625 L 430.335938 593.539062 Z M 424.757812 593.539062 " fill-opacity="1" fill-rule="nonzero"/><path fill="#000000" d="M 424.757812 380.730469 L 424.757812 389.488281 C 426.496094 389.726562 428.328125 390.132812 430.335938 390.789062 L 430.335938 371.972656 L 437.917969 371.972656 C 448.714844 371.972656 459.292969 373.953125 469.355469 377.859375 L 469.449219 377.894531 C 470.359375 374.796875 471.96875 372.015625 474.097656 369.730469 L 472.714844 369.195312 C 461.574219 364.871094 449.867188 362.679688 437.914062 362.679688 L 431.628906 362.679688 C 430.59375 369.242188 428.203125 375.351562 424.757812 380.730469 Z M 424.757812 380.730469 " fill-opacity="1" fill-rule="nonzero"/><g clip-path="url(#bde4f268ee)"><path fill="#000000" d="M 487.367188 683.746094 C 485.257812 684.234375 483.097656 684.484375 480.941406 684.488281 L 480.9375 684.488281 C 472.003906 684.488281 463.945312 680.371094 458.71875 673.734375 L 395.273438 669.238281 L 395.273438 586.835938 L 432.671875 586.835938 C 433.710938 586.835938 434.714844 586.699219 435.6875 586.46875 L 433.089844 575.296875 L 388.226562 566.59375 C 387.078125 566.371094 385.941406 566.074219 384.824219 565.710938 C 383.703125 566.074219 382.566406 566.371094 381.417969 566.59375 L 336.550781 575.296875 L 333.890625 586.757812 C 334.355469 586.804688 334.824219 586.835938 335.300781 586.835938 L 372.699219 586.835938 L 372.699219 669.238281 L 311.027344 673.613281 C 305.804688 680.320312 297.695312 684.488281 288.703125 684.488281 C 286.554688 684.488281 284.390625 684.238281 282.273438 683.75 C 277.230469 682.578125 272.722656 680.085938 269.085938 676.585938 L 223.121094 679.84375 L 223.121094 690.738281 L 544.851562 690.738281 L 544.851562 679.84375 L 500.441406 676.695312 C 496.824219 680.132812 492.359375 682.585938 487.367188 683.746094 Z M 487.367188 683.746094 " fill-opacity="1" fill-rule="nonzero"/></g><path fill="#000000" d="M 433.28125 95.96875 C 433.28125 97.707031 434.695312 99.121094 436.433594 99.121094 C 438.171875 99.121094 439.582031 97.707031 439.582031 95.96875 C 439.582031 94.230469 438.171875 92.820312 436.433594 92.820312 C 434.695312 92.820312 433.28125 94.230469 433.28125 95.96875 Z M 433.28125 95.96875 " fill-opacity="1" fill-rule="nonzero"/><path fill="#000000" d="M 330.058594 95.96875 C 330.058594 97.707031 331.472656 99.121094 333.210938 99.121094 C 334.949219 99.121094 336.359375 97.707031 336.359375 95.96875 C 336.359375 94.230469 334.949219 92.820312 333.210938 92.820312 C 331.472656 92.820312 330.058594 94.230469 330.058594 95.96875 Z M 330.058594 95.96875 " fill-opacity="1" fill-rule="nonzero"/><path fill="#000000" d="M 360.324219 389.144531 L 409.324219 389.144531 C 419.8125 381.550781 426.640625 369.210938 426.640625 355.269531 C 426.640625 332.175781 407.921875 313.457031 384.824219 313.457031 C 361.726562 313.457031 343.003906 332.175781 343.003906 355.269531 C 343.003906 369.210938 349.832031 381.550781 360.324219 389.144531 Z M 360.324219 389.144531 " fill-opacity="1" fill-rule="nonzero"/><path fill="#000000" d="M 283.535156 678.316406 C 285.269531 678.71875 287 678.910156 288.703125 678.910156 C 299.054688 678.910156 308.417969 671.804688 310.863281 661.289062 L 331.9375 570.511719 L 380.355469 561.121094 C 381.917969 560.816406 383.410156 560.359375 384.824219 559.769531 C 386.234375 560.359375 387.726562 560.816406 389.289062 561.121094 L 437.703125 570.511719 L 458.78125 661.289062 C 461.222656 671.804688 470.585938 678.910156 480.9375 678.910156 C 482.640625 678.910156 484.375 678.71875 486.105469 678.316406 C 498.355469 675.472656 505.980469 663.242188 503.136719 650.992188 L 478.71875 545.832031 C 476.6875 537.078125 469.699219 530.339844 460.875 528.628906 L 435.085938 523.625 L 435.085938 434.3125 C 445.574219 442.226562 458.878906 453.550781 469.710938 463.726562 C 472.511719 466.359375 476.167969 467.757812 479.890625 467.757812 C 481.566406 467.757812 483.253906 467.472656 484.886719 466.890625 C 490.136719 465.019531 493.902344 460.363281 494.628906 454.839844 L 503.789062 385.589844 C 504.863281 377.449219 499.136719 369.980469 490.996094 368.902344 C 482.839844 367.824219 475.386719 373.554688 474.308594 381.691406 L 468.816406 423.226562 C 467.46875 422.09375 466.089844 420.945312 464.691406 419.792969 C 441.445312 400.667969 430.664062 395.570312 422.789062 394.886719 C 422.109375 394.792969 421.425781 394.722656 420.722656 394.722656 L 348.917969 394.722656 C 348.214844 394.722656 347.527344 394.789062 346.851562 394.886719 C 338.972656 395.574219 328.195312 400.671875 304.953125 419.792969 C 303.554688 420.945312 302.175781 422.089844 300.828125 423.226562 L 295.335938 381.691406 C 294.261719 373.554688 286.804688 367.824219 278.648438 368.902344 C 270.507812 369.980469 264.78125 377.449219 265.859375 385.589844 L 275.015625 454.839844 C 275.746094 460.367188 279.507812 465.019531 284.757812 466.890625 C 286.390625 467.472656 288.078125 467.757812 289.753906 467.757812 C 293.476562 467.757812 297.132812 466.359375 299.933594 463.726562 C 310.765625 453.554688 324.070312 442.226562 334.558594 434.3125 L 334.558594 523.625 L 308.769531 528.628906 C 299.949219 530.339844 292.957031 537.078125 290.925781 545.832031 L 266.507812 650.992188 C 263.664062 663.238281 271.285156 675.472656 283.535156 678.316406 Z M 283.535156 678.316406 " fill-opacity="1" fill-rule="nonzero"/></svg>