<svg xmlns="http://www.w3.org/2000/svg" xmlns:xlink="http://www.w3.org/1999/xlink" width="1024" zoomAndPan="magnify" viewBox="0 0 768 775.92" height="1024" preserveAspectRatio="xMidYMid meet" version="1.0"><defs><clipPath id="a41dd19889"><path d="M 324 433 L 691.019531 433 L 691.019531 618 L 324 618 Z M 324 433 " clip-rule="nonzero"/></clipPath><clipPath id="d07dedadd0"><path d="M 76.832031 433 L 253 433 L 253 618 L 76.832031 618 Z M 76.832031 433 " clip-rule="nonzero"/></clipPath><clipPath id="611488bae1"><path d="M 195 213 L 376 213 L 376 626.496094 L 195 626.496094 Z M 195 213 " clip-rule="nonzero"/></clipPath></defs><path fill="#000000" d="M 363.472656 416.972656 C 370.628906 406.902344 372.460938 393.992188 368.398438 382.332031 L 366.800781 377.753906 C 364.21875 383.097656 358.792969 386.820312 352.472656 386.820312 L 350.230469 386.820312 L 353.808594 410.480469 C 354.515625 415.171875 354.453125 419.902344 353.699219 424.527344 L 356.289062 424.527344 C 358.980469 422.359375 361.425781 419.855469 363.472656 416.972656 Z M 363.472656 416.972656 " fill-opacity="1" fill-rule="nonzero"/><path fill="#000000" d="M 262.550781 411.035156 L 254.339844 356.742188 L 147.390625 356.742188 C 126.328125 356.742188 109.253906 373.820312 109.253906 394.882812 C 109.253906 406.859375 114.785156 417.53125 123.417969 424.523438 L 256.613281 424.523438 Z M 262.550781 411.035156 " fill-opacity="1" fill-rule="nonzero"/><g clip-path="url(#a41dd19889)"><path fill="#000000" d="M 667.589844 476.84375 C 679.457031 476.84375 689.167969 467.128906 689.167969 455.261719 C 689.167969 443.394531 679.457031 433.683594 667.589844 433.683594 L 351.1875 433.683594 C 350.957031 434.265625 350.742188 434.855469 350.488281 435.429688 L 324.613281 494.21875 L 629.21875 494.21875 L 647.605469 587.066406 L 632.972656 587.066406 L 632.972656 617.578125 L 691.007812 617.578125 L 691.007812 587.066406 L 678.707031 587.066406 L 658.6875 486 L 656.875 476.84375 Z M 667.589844 476.84375 " fill-opacity="1" fill-rule="nonzero"/></g><g clip-path="url(#d07dedadd0)"><path fill="#000000" d="M 252.585938 433.679688 L 100.261719 433.679688 C 88.390625 433.679688 78.675781 443.390625 78.675781 455.257812 C 78.675781 467.128906 88.390625 476.839844 100.261719 476.839844 L 110.96875 476.839844 L 109.15625 485.992188 L 89.136719 587.066406 L 76.832031 587.066406 L 76.832031 617.578125 L 134.871094 617.578125 L 134.871094 587.066406 L 120.238281 587.066406 L 138.625 494.21875 L 225.9375 494.21875 Z M 252.585938 433.679688 " fill-opacity="1" fill-rule="nonzero"/></g><path fill="#000000" d="M 499.78125 254.851562 C 493.863281 261.191406 485.488281 264.828125 476.8125 264.828125 C 468.824219 264.828125 461.207031 261.824219 455.363281 256.367188 L 438.097656 240.238281 L 438.097656 317.601562 C 440.433594 316.960938 442.789062 316.292969 445.167969 315.59375 L 445.167969 304.015625 C 445.167969 295.21875 452.328125 288.058594 461.128906 288.058594 L 480.519531 288.058594 C 486.726562 288.058594 492.054688 291.65625 494.695312 296.839844 C 499.316406 294.121094 503.46875 291.132812 507.160156 287.933594 L 575.523438 424.527344 L 629.09375 424.527344 C 628.679688 422.402344 627.996094 420.292969 626.980469 418.261719 L 585.394531 335.171875 C 548.445312 329.210938 520.667969 296.542969 521.863281 258.152344 C 522.230469 246.265625 525.28125 235.132812 530.40625 225.300781 L 529.859375 224.210938 C 529.835938 224.160156 529.800781 224.113281 529.777344 224.066406 C 529.703125 223.785156 529.640625 223.496094 529.5625 223.21875 C 524.175781 204.152344 502.769531 193.570312 479.832031 193.21875 L 498.269531 210.4375 C 510.929688 222.265625 511.609375 242.191406 499.78125 254.851562 Z M 499.78125 254.851562 " fill-opacity="1" fill-rule="nonzero"/><g clip-path="url(#611488bae1)"><path fill="#000000" d="M 299.671875 217.761719 C 277.53125 217.140625 266.203125 220.242188 260.480469 227.269531 C 250.574219 235.527344 245.066406 248.578125 247.136719 262.265625 L 269.796875 412 L 199.105469 572.601562 C 190.621094 591.878906 199.367188 614.386719 218.644531 622.875 C 223.644531 625.074219 228.859375 626.117188 233.988281 626.113281 C 248.652344 626.113281 262.632812 617.613281 268.914062 603.332031 L 344.066406 432.601562 C 346.980469 425.988281 347.949219 418.679688 346.871094 411.53125 L 343.132812 386.820312 L 333.078125 386.820312 C 324.277344 386.820312 317.121094 379.660156 317.121094 370.859375 L 317.121094 304.015625 C 317.121094 295.214844 324.28125 288.054688 333.078125 288.054688 L 352.472656 288.054688 C 361.273438 288.054688 368.429688 295.214844 368.429688 304.015625 L 368.429688 321.3125 L 375.238281 321.3125 L 375.238281 213.929688 C 369.964844 214.78125 364.664062 215.5625 359.335938 216.226562 C 339.226562 218.738281 318.910156 219.734375 299.671875 217.761719 Z M 299.671875 217.761719 " fill-opacity="1" fill-rule="nonzero"/></g><path fill="#000000" d="M 528.875 258.367188 C 527.703125 296.269531 557.46875 327.9375 595.363281 329.113281 C 633.257812 330.289062 664.933594 300.523438 666.109375 262.625 C 667.285156 224.734375 637.519531 193.054688 599.621094 191.882812 C 561.726562 190.703125 530.050781 220.472656 528.875 258.367188 Z M 528.875 258.367188 " fill-opacity="1" fill-rule="nonzero"/><path fill="#000000" d="M 452.179688 328.328125 L 438.09375 328.328125 L 438.09375 330.523438 C 438.09375 336.378906 436.453125 341.847656 433.652344 346.550781 L 452.179688 346.550781 L 452.179688 370.863281 C 452.179688 375.78125 456.203125 379.804688 461.125 379.804688 L 480.515625 379.804688 C 485.433594 379.804688 489.460938 375.78125 489.460938 370.863281 L 489.460938 304.015625 C 489.460938 299.097656 485.4375 295.070312 480.515625 295.070312 L 461.125 295.070312 C 456.207031 295.070312 452.179688 299.097656 452.179688 304.015625 Z M 452.179688 328.328125 " fill-opacity="1" fill-rule="nonzero"/><path fill="#000000" d="M 352.476562 379.804688 C 357.394531 379.804688 361.421875 375.777344 361.421875 370.859375 L 361.421875 346.546875 L 379.6875 346.546875 C 376.886719 341.847656 375.246094 336.378906 375.246094 330.519531 L 375.246094 328.324219 L 361.421875 328.324219 L 361.421875 304.011719 C 361.421875 299.09375 357.394531 295.070312 352.476562 295.070312 L 333.082031 295.070312 C 328.164062 295.070312 324.136719 299.09375 324.136719 304.011719 L 324.136719 370.855469 C 324.136719 375.777344 328.160156 379.800781 333.082031 379.800781 L 352.476562 379.800781 Z M 352.476562 379.804688 " fill-opacity="1" fill-rule="nonzero"/><path fill="#000000" d="M 382.257812 330.523438 C 382.257812 344 393.1875 354.929688 406.667969 354.929688 C 420.148438 354.929688 431.078125 344 431.078125 330.523438 L 431.078125 224.078125 L 460.152344 251.238281 C 470.003906 260.441406 485.449219 259.910156 494.652344 250.0625 C 503.855469 240.210938 503.328125 224.761719 493.476562 215.5625 L 423.328125 150.046875 C 416.226562 143.410156 405.871094 141.617188 396.945312 145.492188 C 388.027344 149.367188 382.257812 158.160156 382.257812 167.882812 Z M 382.257812 330.523438 " fill-opacity="1" fill-rule="nonzero"/></svg>