<svg xmlns="http://www.w3.org/2000/svg" xmlns:xlink="http://www.w3.org/1999/xlink" width="1024" zoomAndPan="magnify" viewBox="0 0 768 775.92" height="1024" preserveAspectRatio="xMidYMid meet" version="1.0"><defs><clipPath id="c525046bed"><path d="M 173.589844 581 L 284 581 L 284 687 L 173.589844 687 Z M 173.589844 581 " clip-rule="nonzero"/></clipPath><clipPath id="2e5f012b36"><path d="M 182 76.792969 L 594.296875 76.792969 L 594.296875 690.980469 L 182 690.980469 Z M 182 76.792969 " clip-rule="nonzero"/></clipPath></defs><g clip-path="url(#c525046bed)"><path fill="#000000" d="M 191.015625 639.707031 C 191.015625 628.003906 200.539062 618.480469 212.246094 618.480469 L 276.015625 618.480469 L 283.46875 588.480469 L 230.207031 588.480469 C 229.210938 588.480469 228.195312 588.410156 227.039062 588.261719 C 225.664062 588.324219 224.300781 588.347656 222.949219 588.347656 C 222.480469 588.347656 222.011719 588.347656 221.546875 588.339844 C 213.089844 588.234375 205.703125 587.726562 200.945312 582.621094 C 200.507812 582.148438 200.101562 581.636719 199.722656 581.101562 L 190.464844 581.101562 C 183.683594 581.101562 178.136719 586.648438 178.136719 593.425781 C 178.136719 600.207031 183.683594 605.753906 190.464844 605.753906 L 193.78125 605.753906 C 181.761719 612.320312 173.589844 625.078125 173.589844 639.707031 L 173.589844 686.394531 L 191.015625 686.394531 Z M 191.015625 639.707031 " fill-opacity="1" fill-rule="nonzero"/></g><path fill="#000000" d="M 311.835938 313.648438 C 312.757812 313.648438 313.695312 313.40625 314.542969 312.890625 C 317.011719 311.394531 317.800781 308.179688 316.304688 305.710938 L 310.84375 296.695312 L 307.730469 311.589844 C 308.742188 312.902344 310.257812 313.648438 311.835938 313.648438 Z M 311.835938 313.648438 " fill-opacity="1" fill-rule="nonzero"/><path fill="#000000" d="M 417.261719 149.914062 C 415.132812 149.914062 413.40625 151.640625 413.40625 153.769531 C 413.40625 155.898438 415.132812 157.621094 417.261719 157.621094 C 419.390625 157.621094 421.113281 155.898438 421.113281 153.769531 C 421.113281 151.640625 419.390625 149.914062 417.261719 149.914062 Z M 417.261719 149.914062 " fill-opacity="1" fill-rule="nonzero"/><path fill="#000000" d="M 541.421875 149.914062 C 539.292969 149.914062 537.566406 151.640625 537.566406 153.769531 C 537.566406 155.898438 539.292969 157.621094 541.421875 157.621094 C 543.546875 157.621094 545.273438 155.898438 545.273438 153.769531 C 545.273438 151.640625 543.546875 149.914062 541.421875 149.914062 Z M 541.421875 149.914062 " fill-opacity="1" fill-rule="nonzero"/><g clip-path="url(#2e5f012b36)"><path fill="#000000" d="M 199.945312 558.101562 C 198.507812 582.417969 205.628906 584.132812 221.601562 584.332031 C 223.4375 584.355469 225.316406 584.332031 227.214844 584.242188 C 228.195312 584.378906 229.191406 584.472656 230.207031 584.472656 L 288.59375 584.472656 L 268.894531 663.765625 C 265.992188 675.441406 273.109375 687.257812 284.785156 690.160156 C 286.546875 690.601562 288.3125 690.808594 290.050781 690.808594 C 299.824219 690.808594 308.714844 684.183594 311.175781 674.269531 L 337.59375 567.9375 C 339.210938 561.433594 337.742188 554.546875 333.613281 549.265625 C 329.828125 544.425781 324.183594 541.460938 318.105469 540.996094 C 313.589844 549.34375 304.753906 555.027344 294.613281 555.027344 C 284.4375 555.027344 275.582031 549.300781 271.082031 540.902344 L 263.507812 540.902344 C 265.277344 518.996094 264.246094 501.886719 259.902344 482.972656 C 258.023438 474.777344 255.527344 466.246094 252.351562 456.835938 C 251.257812 453.652344 249.964844 450.746094 248.511719 448.09375 L 236.90625 463.441406 C 233.484375 467.972656 228.261719 470.566406 222.578125 470.566406 C 218.644531 470.566406 214.90625 469.3125 211.761719 466.9375 C 203.867188 460.964844 202.296875 449.6875 208.265625 441.789062 L 257.4375 376.757812 L 276.207031 286.917969 C 277.9375 278.640625 285.320312 272.636719 293.761719 272.636719 C 294.640625 272.636719 295.519531 272.726562 296.394531 272.855469 L 294.957031 270.480469 C 294.601562 269.894531 294.136719 269.394531 293.597656 268.996094 L 298.015625 229.191406 C 298.511719 229.105469 299.003906 228.96875 299.488281 228.777344 C 303.335938 227.265625 305.226562 222.917969 303.714844 219.074219 C 302.9375 217.101562 301.417969 215.65625 299.601562 214.90625 L 307.011719 148.164062 C 312.390625 148.378906 317.71875 145.652344 320.515625 140.65625 L 327.84375 127.550781 L 408.546875 169.015625 L 408.546875 601.054688 L 333.5 601.054688 L 329.171875 618.480469 L 408.546875 618.480469 L 408.546875 668.964844 L 353.84375 668.964844 L 353.84375 686.394531 L 594.238281 686.394531 L 594.238281 668.964844 L 550.132812 668.964844 L 550.132812 171.328125 L 568.9375 171.328125 L 568.9375 136.46875 L 421.476562 136.46875 L 305.6875 76.976562 L 289.757812 107.976562 L 301.589844 114.058594 L 294.769531 126.25 C 290.808594 133.328125 293.359375 142.363281 300.441406 146.324219 C 300.910156 146.585938 301.390625 146.816406 301.875 147.023438 L 294.359375 214.75 C 294.242188 214.789062 294.125 214.800781 294.007812 214.847656 C 290.160156 216.359375 288.269531 220.707031 289.78125 224.554688 C 290.40625 226.136719 291.519531 227.359375 292.867188 228.179688 L 288.402344 268.410156 C 288.144531 268.519531 287.886719 268.640625 287.648438 268.796875 L 281.328125 272.875 C 274.285156 271.753906 267.5625 276.125 265.707031 282.953125 L 256.078125 289.167969 C 253.652344 290.730469 252.953125 293.96875 254.515625 296.394531 C 256.085938 298.820312 259.316406 299.515625 261.746094 297.953125 L 262.800781 297.273438 L 251.375 354.582031 C 244.1875 346.324219 233.609375 341.09375 221.796875 341.09375 C 200.140625 341.09375 182.585938 358.652344 182.585938 380.308594 C 182.585938 398.242188 194.625 413.347656 211.058594 418.023438 L 200.03125 430.414062 C 190.304688 437.910156 186.597656 454.484375 190.714844 468.757812 C 192.660156 478.703125 195.214844 490.421875 197.292969 502.828125 C 200.3125 520.855469 202.324219 540.355469 199.945312 558.101562 Z M 462.390625 616.734375 L 466.867188 616.734375 L 470.675781 608.71875 L 490.425781 608.71875 L 494.238281 616.734375 L 498.710938 616.734375 Z M 462.390625 600.460938 L 462.390625 593.921875 L 498.710938 593.921875 L 498.710938 600.460938 Z M 462.390625 585.667969 L 462.390625 579.128906 L 498.710938 579.128906 L 498.710938 585.667969 Z M 462.390625 570.875 L 462.390625 564.335938 L 498.710938 564.335938 L 498.710938 570.875 Z M 462.390625 556.082031 L 462.390625 549.542969 L 498.710938 549.542969 L 498.710938 556.082031 Z M 462.390625 541.285156 L 462.390625 534.746094 L 498.710938 534.746094 L 498.710938 541.285156 Z M 462.390625 526.492188 L 462.390625 171.328125 L 498.710938 171.328125 L 498.710938 526.492188 Z M 457.765625 171.328125 L 457.765625 526.492188 L 442.027344 526.492188 L 442.027344 534.75 L 457.765625 534.75 L 457.765625 541.289062 L 442.027344 541.289062 L 442.027344 549.542969 L 457.765625 549.542969 L 457.765625 556.082031 L 442.027344 556.082031 L 442.027344 564.339844 L 457.765625 564.339844 L 457.765625 570.878906 L 442.027344 570.878906 L 442.027344 579.132812 L 457.765625 579.132812 L 457.765625 585.671875 L 442.027344 585.671875 L 442.027344 593.929688 L 457.765625 593.929688 L 457.765625 600.46875 L 442.027344 600.46875 L 442.027344 608.722656 L 449.480469 608.722656 L 453.289062 616.738281 L 457.765625 616.738281 L 425.972656 616.738281 L 425.972656 171.328125 Z M 425.972656 668.964844 L 425.972656 634.164062 L 532.703125 634.164062 L 532.703125 668.964844 Z M 532.707031 616.734375 L 503.335938 616.734375 L 507.8125 616.734375 L 511.625 608.71875 L 516.65625 608.71875 L 516.65625 600.460938 L 503.335938 600.460938 L 503.335938 593.921875 L 516.65625 593.921875 L 516.65625 585.667969 L 503.335938 585.667969 L 503.335938 579.128906 L 516.65625 579.128906 L 516.65625 570.871094 L 503.335938 570.871094 L 503.335938 564.332031 L 516.65625 564.332031 L 516.65625 556.078125 L 503.335938 556.078125 L 503.335938 549.539062 L 516.65625 549.539062 L 516.65625 541.28125 L 503.335938 541.28125 L 503.335938 534.742188 L 516.65625 534.742188 L 516.65625 526.488281 L 503.335938 526.488281 L 503.335938 171.328125 L 532.707031 171.328125 Z M 550.996094 153.769531 C 550.996094 159.058594 546.707031 163.347656 541.417969 163.347656 C 536.128906 163.347656 531.84375 159.058594 531.84375 153.769531 C 531.84375 148.480469 536.128906 144.191406 541.417969 144.191406 C 546.707031 144.191406 550.996094 148.480469 550.996094 153.769531 Z M 417.261719 144.191406 C 422.550781 144.191406 426.839844 148.480469 426.839844 153.769531 C 426.839844 159.058594 422.550781 163.347656 417.261719 163.347656 C 411.972656 163.347656 407.683594 159.058594 407.683594 153.769531 C 407.683594 148.480469 411.972656 144.191406 417.261719 144.191406 Z M 302.300781 131.722656 C 303.785156 129.070312 307.140625 128.125 309.792969 129.605469 C 312.445312 131.089844 313.390625 134.445312 311.910156 137.097656 C 311.046875 138.636719 309.554688 139.578125 307.9375 139.828125 L 308.25 137.015625 C 308.40625 135.582031 307.375 134.289062 305.941406 134.128906 C 304.503906 133.96875 303.210938 135.003906 303.054688 136.4375 L 302.886719 137.925781 C 301.472656 136.222656 301.15625 133.769531 302.300781 131.722656 Z M 302.300781 131.722656 " fill-opacity="1" fill-rule="nonzero"/></g><path fill="#000000" d="M 307.429688 293.441406 C 309 285.902344 304.167969 278.515625 296.632812 276.941406 C 289.097656 275.367188 281.707031 280.199219 280.132812 287.738281 L 261.179688 378.457031 L 211.46875 444.207031 C 206.828125 450.347656 208.039062 459.09375 214.183594 463.738281 C 216.699219 465.640625 219.652344 466.558594 222.582031 466.558594 C 226.800781 466.558594 230.96875 464.652344 233.710938 461.027344 L 285.308594 392.78125 C 286.550781 391.136719 287.414062 389.238281 287.835938 387.222656 Z M 307.429688 293.441406 " fill-opacity="1" fill-rule="nonzero"/><path fill="#000000" d="M 316.082031 528.332031 C 316.082031 516.476562 306.472656 506.867188 294.617188 506.867188 C 282.761719 506.867188 273.152344 516.476562 273.152344 528.332031 C 273.152344 540.1875 282.761719 549.796875 294.617188 549.796875 C 306.472656 549.796875 316.082031 540.1875 316.082031 528.332031 Z M 285.152344 528.332031 C 285.152344 523.101562 289.390625 518.863281 294.617188 518.863281 C 299.847656 518.863281 304.085938 523.101562 304.085938 528.332031 C 304.085938 533.558594 299.847656 537.796875 294.617188 537.796875 C 289.386719 537.796875 285.152344 533.558594 285.152344 528.332031 Z M 285.152344 528.332031 " fill-opacity="1" fill-rule="nonzero"/></svg>