<svg xmlns="http://www.w3.org/2000/svg" xmlns:xlink="http://www.w3.org/1999/xlink" width="1024" zoomAndPan="magnify" viewBox="0 0 768 775.92" height="1024" preserveAspectRatio="xMidYMid meet" version="1.0"><defs><clipPath id="464ec29354"><path d="M 76.832031 414 L 291 414 L 291 571 L 76.832031 571 Z M 76.832031 414 " clip-rule="nonzero"/></clipPath></defs><g clip-path="url(#464ec29354)"><path fill="#000000" d="M 290.714844 542.757812 L 197.484375 542.757812 L 197.484375 453.050781 L 259.625 453.050781 C 270.292969 453.050781 270.292969 414.238281 259.625 414.238281 L 107.925781 414.238281 C 97.257812 414.238281 97.257812 453.050781 107.925781 453.050781 L 170.066406 453.050781 L 170.066406 542.757812 L 76.832031 542.757812 L 76.832031 570.195312 L 290.714844 570.195312 Z M 290.714844 542.757812 " fill-opacity="1" fill-rule="nonzero"/></g><path fill="#000000" d="M 81.429688 574.4375 L 97.015625 574.4375 L 97.015625 582.410156 L 81.429688 582.410156 Z M 81.429688 574.4375 " fill-opacity="1" fill-rule="nonzero"/><path fill="#000000" d="M 270.535156 574.4375 L 286.117188 574.4375 L 286.117188 582.410156 L 270.535156 582.410156 Z M 270.535156 574.4375 " fill-opacity="1" fill-rule="nonzero"/><path fill="#000000" d="M 350.796875 229.148438 C 352.011719 230.761719 353.148438 232.433594 354.199219 234.15625 C 355.253906 235.882812 356.21875 237.65625 357.097656 239.476562 C 357.976562 241.296875 358.765625 243.15625 359.460938 245.054688 C 360.160156 246.953125 360.761719 248.878906 361.269531 250.835938 C 361.777344 252.792969 362.1875 254.769531 362.5 256.769531 C 362.8125 258.765625 363.027344 260.773438 363.144531 262.792969 C 363.257812 264.8125 363.277344 266.828125 363.191406 268.851562 C 363.109375 270.871094 362.929688 272.882812 362.648438 274.882812 C 362.371094 276.886719 361.992188 278.871094 361.519531 280.835938 C 361.042969 282.800781 360.472656 284.738281 359.808594 286.648438 C 359.144531 288.554688 358.386719 290.429688 357.539062 292.261719 C 356.691406 294.097656 355.753906 295.886719 354.730469 297.628906 C 353.707031 299.371094 352.597656 301.0625 351.410156 302.695312 C 350.21875 304.328125 348.953125 305.902344 347.605469 307.410156 C 346.261719 308.917969 344.847656 310.359375 343.363281 311.730469 C 341.875 313.101562 340.328125 314.394531 338.714844 315.613281 C 337.101562 316.828125 335.433594 317.964844 333.707031 319.019531 C 331.984375 320.074219 330.210938 321.039062 328.394531 321.921875 C 326.574219 322.800781 324.714844 323.589844 322.820312 324.285156 C 320.921875 324.980469 318.996094 325.585938 317.039062 326.09375 C 315.085938 326.601562 313.109375 327.011719 311.113281 327.324219 C 309.117188 327.636719 307.109375 327.851562 305.09375 327.96875 C 303.074219 328.082031 301.058594 328.101562 299.039062 328.019531 C 297.019531 327.9375 295.011719 327.753906 293.007812 327.476562 C 291.007812 327.195312 289.027344 326.816406 287.0625 326.34375 C 285.097656 325.867188 283.160156 325.296875 281.253906 324.632812 C 279.34375 323.96875 277.476562 323.210938 275.640625 322.359375 C 273.808594 321.511719 272.019531 320.574219 270.277344 319.550781 C 268.535156 318.523438 266.847656 317.417969 265.214844 316.226562 C 263.582031 315.035156 262.011719 313.765625 260.503906 312.421875 C 258.996094 311.078125 257.558594 309.660156 256.1875 308.175781 C 254.820312 306.6875 253.523438 305.136719 252.308594 303.523438 C 251.089844 301.910156 249.957031 300.238281 248.902344 298.515625 C 247.847656 296.789062 246.882812 295.015625 246.003906 293.195312 C 245.125 291.375 244.335938 289.515625 243.640625 287.617188 C 242.945312 285.71875 242.34375 283.792969 241.835938 281.835938 C 241.328125 279.878906 240.917969 277.902344 240.605469 275.902344 C 240.289062 273.90625 240.078125 271.898438 239.960938 269.878906 C 239.84375 267.863281 239.828125 265.84375 239.910156 263.820312 C 239.992188 261.800781 240.171875 259.789062 240.453125 257.789062 C 240.734375 255.785156 241.109375 253.800781 241.585938 251.835938 C 242.058594 249.871094 242.628906 247.933594 243.292969 246.023438 C 243.957031 244.117188 244.714844 242.242188 245.5625 240.410156 C 246.414062 238.574219 247.347656 236.785156 248.371094 235.042969 C 249.398438 233.300781 250.503906 231.609375 251.695312 229.976562 C 252.882812 228.34375 254.152344 226.769531 255.496094 225.261719 C 256.839844 223.753906 258.253906 222.3125 259.742188 220.941406 C 261.226562 219.570312 262.777344 218.277344 264.386719 217.058594 C 266 215.84375 267.671875 214.707031 269.394531 213.652344 C 271.117188 212.597656 272.890625 211.632812 274.710938 210.753906 C 276.527344 209.871094 278.386719 209.082031 280.285156 208.386719 C 282.179688 207.691406 284.105469 207.085938 286.0625 206.578125 C 288.019531 206.074219 289.992188 205.660156 291.988281 205.347656 C 293.984375 205.035156 295.992188 204.820312 298.011719 204.703125 C 300.027344 204.589844 302.046875 204.570312 304.0625 204.652344 C 306.082031 204.734375 308.09375 204.917969 310.09375 205.195312 C 312.09375 205.476562 314.078125 205.855469 316.042969 206.328125 C 318.003906 206.804688 319.941406 207.375 321.847656 208.039062 C 323.757812 208.703125 325.628906 209.460938 327.460938 210.3125 C 329.296875 211.160156 331.082031 212.097656 332.824219 213.121094 C 334.566406 214.148438 336.253906 215.253906 337.886719 216.445312 C 339.519531 217.636719 341.089844 218.90625 342.597656 220.25 C 344.105469 221.59375 345.546875 223.011719 346.914062 224.496094 C 348.285156 225.984375 349.578125 227.535156 350.796875 229.148438 Z M 350.796875 229.148438 " fill-opacity="1" fill-rule="nonzero"/><path fill="#000000" d="M 298.257812 380.769531 C 303.394531 375.246094 310.378906 372.050781 317.917969 371.78125 C 318.25 371.773438 318.5625 371.765625 318.882812 371.765625 C 334.1875 371.765625 346.605469 383.734375 347.15625 399.015625 L 347.878906 419.222656 C 351.039062 407.765625 356.136719 397.109375 362.800781 387.625 C 362.496094 386.917969 362.175781 386.171875 361.871094 385.480469 C 352.820312 358.542969 325.777344 337.515625 303.210938 346.035156 C 280.636719 354.550781 259.960938 384.328125 271.4375 425.226562 C 278.140625 448.578125 285.054688 467.71875 293.722656 485.449219 L 290.703125 401.039062 C 290.429688 393.492188 293.117188 386.296875 298.257812 380.769531 Z M 298.257812 380.769531 " fill-opacity="1" fill-rule="nonzero"/><path fill="#000000" d="M 381.460938 525.476562 L 337.445312 550.367188 C 339.9375 553.320312 342.515625 556.320312 345.210938 559.386719 C 374.511719 588.039062 399.910156 579.394531 419.683594 566.617188 C 420.65625 566.113281 421.613281 565.566406 422.546875 564.957031 L 447.242188 548.921875 C 447.03125 548.921875 446.824219 548.9375 446.617188 548.9375 C 421.886719 548.9375 399.179688 540.125 381.460938 525.476562 Z M 381.460938 525.476562 " fill-opacity="1" fill-rule="nonzero"/><path fill="#000000" d="M 679.859375 568.496094 C 690.972656 553.164062 687.5625 531.71875 672.234375 520.597656 L 547.757812 430.253906 C 548.59375 435.527344 549.046875 440.929688 549.046875 446.4375 C 549.046875 467.488281 542.660156 487.070312 531.742188 503.367188 L 631.992188 576.121094 C 638.070312 580.53125 645.109375 582.65625 652.085938 582.65625 C 662.691406 582.660156 673.15625 577.746094 679.859375 568.496094 Z M 679.859375 568.496094 " fill-opacity="1" fill-rule="nonzero"/><path fill="#000000" d="M 351.605469 484.683594 L 344.058594 488.953125 L 340.851562 399.238281 C 340.417969 387.125 330.164062 377.691406 318.144531 378.089844 C 306.035156 378.523438 296.574219 388.699219 297.007812 400.8125 L 301.511719 526.621094 C 301.789062 534.28125 306.03125 541.246094 312.71875 544.988281 C 316.050781 546.855469 319.742188 547.785156 323.433594 547.785156 C 327.152344 547.785156 330.878906 546.835938 334.226562 544.941406 L 376.484375 521.042969 C 365.757812 510.941406 357.207031 498.5625 351.605469 484.683594 Z M 351.605469 484.683594 " fill-opacity="1" fill-rule="nonzero"/><path fill="#000000" d="M 446.613281 352.171875 C 394.585938 352.171875 352.40625 394.378906 352.40625 446.4375 C 352.40625 498.5 394.585938 540.707031 446.613281 540.707031 C 498.640625 540.707031 540.820312 498.5 540.820312 446.4375 C 540.820312 394.378906 498.644531 352.171875 446.613281 352.171875 Z M 402.28125 446.4375 C 402.28125 421.9375 422.128906 402.078125 446.613281 402.078125 C 471.097656 402.078125 490.945312 421.941406 490.945312 446.4375 C 490.945312 470.941406 471.09375 490.800781 446.613281 490.800781 C 422.128906 490.800781 402.28125 470.9375 402.28125 446.4375 Z M 402.28125 446.4375 " fill-opacity="1" fill-rule="nonzero"/><path fill="#000000" d="M 462.527344 430.511719 C 463.050781 431.03125 463.542969 431.578125 464.011719 432.148438 C 464.480469 432.71875 464.917969 433.3125 465.328125 433.925781 C 465.738281 434.539062 466.117188 435.171875 466.464844 435.820312 C 466.8125 436.472656 467.125 437.136719 467.410156 437.820312 C 467.691406 438.5 467.9375 439.195312 468.152344 439.902344 C 468.367188 440.605469 468.546875 441.320312 468.691406 442.046875 C 468.835938 442.769531 468.941406 443.5 469.015625 444.230469 C 469.085938 444.964844 469.121094 445.703125 469.121094 446.441406 C 469.121094 447.179688 469.085938 447.914062 469.015625 448.648438 C 468.941406 449.382812 468.835938 450.113281 468.691406 450.835938 C 468.546875 451.558594 468.367188 452.273438 468.152344 452.980469 C 467.941406 453.6875 467.691406 454.378906 467.410156 455.0625 C 467.128906 455.742188 466.8125 456.410156 466.464844 457.0625 C 466.117188 457.710938 465.738281 458.34375 465.328125 458.957031 C 464.917969 459.570312 464.480469 460.164062 464.011719 460.734375 C 463.546875 461.304688 463.050781 461.847656 462.527344 462.371094 C 462.007812 462.890625 461.460938 463.386719 460.890625 463.855469 C 460.320312 464.324219 459.730469 464.761719 459.117188 465.171875 C 458.503906 465.582031 457.871094 465.960938 457.222656 466.308594 C 456.570312 466.65625 455.90625 466.972656 455.226562 467.253906 C 454.542969 467.535156 453.851562 467.785156 453.144531 468 C 452.4375 468.214844 451.726562 468.394531 451 468.535156 C 450.277344 468.679688 449.550781 468.789062 448.816406 468.859375 C 448.082031 468.933594 447.347656 468.96875 446.609375 468.96875 C 445.871094 468.96875 445.136719 468.933594 444.402344 468.859375 C 443.667969 468.789062 442.941406 468.679688 442.21875 468.535156 C 441.496094 468.394531 440.78125 468.214844 440.074219 468 C 439.367188 467.785156 438.675781 467.539062 437.992188 467.253906 C 437.3125 466.972656 436.648438 466.65625 435.996094 466.308594 C 435.347656 465.960938 434.714844 465.582031 434.101562 465.171875 C 433.488281 464.761719 432.898438 464.324219 432.328125 463.855469 C 431.757812 463.386719 431.210938 462.894531 430.691406 462.371094 C 430.167969 461.851562 429.675781 461.304688 429.207031 460.734375 C 428.738281 460.164062 428.300781 459.570312 427.890625 458.957031 C 427.480469 458.34375 427.101562 457.710938 426.753906 457.0625 C 426.40625 456.410156 426.089844 455.746094 425.808594 455.0625 C 425.527344 454.382812 425.277344 453.6875 425.066406 452.980469 C 424.851562 452.273438 424.671875 451.558594 424.527344 450.835938 C 424.382812 450.113281 424.277344 449.382812 424.203125 448.648438 C 424.132812 447.914062 424.09375 447.179688 424.09375 446.441406 C 424.09375 445.703125 424.132812 444.96875 424.203125 444.234375 C 424.277344 443.5 424.382812 442.769531 424.527344 442.046875 C 424.671875 441.324219 424.851562 440.609375 425.066406 439.902344 C 425.277344 439.195312 425.527344 438.5 425.808594 437.820312 C 426.089844 437.136719 426.40625 436.472656 426.753906 435.820312 C 427.101562 435.171875 427.480469 434.539062 427.890625 433.925781 C 428.300781 433.3125 428.738281 432.71875 429.207031 432.148438 C 429.671875 431.578125 430.167969 431.03125 430.6875 430.511719 C 431.210938 429.988281 431.757812 429.496094 432.328125 429.027344 C 432.894531 428.558594 433.488281 428.121094 434.101562 427.710938 C 434.714844 427.300781 435.347656 426.921875 435.996094 426.574219 C 436.644531 426.226562 437.3125 425.910156 437.992188 425.628906 C 438.675781 425.34375 439.367188 425.097656 440.074219 424.882812 C 440.777344 424.667969 441.492188 424.488281 442.214844 424.34375 C 442.941406 424.203125 443.667969 424.09375 444.402344 424.019531 C 445.136719 423.949219 445.871094 423.914062 446.609375 423.914062 C 447.347656 423.914062 448.082031 423.949219 448.816406 424.019531 C 449.550781 424.09375 450.277344 424.203125 451 424.34375 C 451.722656 424.488281 452.4375 424.667969 453.144531 424.882812 C 453.851562 425.097656 454.542969 425.34375 455.222656 425.628906 C 455.90625 425.910156 456.570312 426.222656 457.222656 426.574219 C 457.871094 426.921875 458.503906 427.300781 459.117188 427.707031 C 459.730469 428.117188 460.320312 428.558594 460.890625 429.027344 C 461.460938 429.492188 462.007812 429.988281 462.527344 430.511719 Z M 462.527344 430.511719 " fill-opacity="1" fill-rule="nonzero"/></svg>