<svg xmlns="http://www.w3.org/2000/svg" xmlns:xlink="http://www.w3.org/1999/xlink" width="1024" zoomAndPan="magnify" viewBox="0 0 768 775.92" height="1024" preserveAspectRatio="xMidYMid meet" version="1.0"><defs><clipPath id="92db9b6421"><path d="M 134 76.792969 L 636.070312 76.792969 L 636.070312 690.980469 L 134 690.980469 Z M 134 76.792969 " clip-rule="nonzero"/></clipPath></defs><g clip-path="url(#92db9b6421)"><path fill="#000000" d="M 393.660156 673.324219 L 393.660156 690.882812 L 636.035156 690.882812 L 636.035156 673.324219 L 591.570312 673.324219 L 591.570312 171.90625 L 610.527344 171.90625 L 610.527344 136.789062 L 461.851562 136.789062 L 345.113281 76.839844 L 329.050781 108.078125 L 340.976562 114.203125 L 334.101562 126.488281 C 330.109375 133.621094 332.683594 142.722656 339.820312 146.714844 C 339.867188 146.742188 339.914062 146.757812 339.957031 146.785156 L 322.269531 218.550781 C 321.648438 218.628906 321.027344 218.753906 320.417969 218.996094 C 316.539062 220.519531 314.632812 224.898438 316.160156 228.773438 C 316.730469 230.226562 317.703125 231.402344 318.902344 232.226562 L 311.453125 262.457031 C 310.464844 261.277344 309.28125 260.234375 307.886719 259.402344 C 303.855469 257 299.117188 256.859375 295.117188 258.582031 L 291.300781 255.210938 C 289.121094 253.28125 285.785156 253.492188 283.859375 255.667969 C 281.933594 257.847656 282.136719 261.179688 284.320312 263.105469 L 287.585938 265.988281 L 242.433594 341.59375 L 231.292969 344.082031 C 223.75 350.320312 214.082031 354.074219 203.550781 354.074219 C 199.804688 354.074219 196.167969 353.597656 192.699219 352.707031 L 182.519531 354.980469 C 169.011719 356.011719 153.734375 365.328125 146.671875 385.855469 C 134.714844 421.28125 132.144531 444.339844 136.6875 483.347656 C 140.125 501.027344 148.992188 508.785156 159.09375 512.070312 L 172.472656 568.898438 L 164.828125 666.8125 C 163.886719 678.902344 172.925781 689.460938 185.019531 690.40625 C 185.601562 690.449219 186.175781 690.472656 186.75 690.472656 C 198.105469 690.472656 207.726562 681.730469 208.621094 670.226562 L 216.53125 568.902344 C 216.707031 566.648438 216.53125 564.375 216.011719 562.167969 L 199.683594 492.8125 C 199.667969 491.28125 199.617188 489.652344 199.511719 487.894531 C 195.664062 459.214844 203.171875 425.984375 208.058594 401.660156 L 192.167969 406.027344 C 190.59375 406.460938 188.980469 406.679688 187.359375 406.679688 C 179.246094 406.679688 172.074219 401.210938 169.917969 393.386719 C 168.636719 388.730469 169.242188 383.847656 171.636719 379.648438 C 174.023438 375.449219 177.90625 372.429688 182.570312 371.152344 L 253.035156 351.78125 L 301.128906 271.496094 C 304.378906 266.070312 310.332031 262.699219 316.671875 262.699219 C 316.71875 262.699219 316.765625 262.707031 316.8125 262.710938 L 324.015625 233.484375 C 324.660156 233.410156 325.308594 233.285156 325.941406 233.035156 C 329.816406 231.511719 331.722656 227.132812 330.199219 223.257812 C 329.617188 221.78125 328.621094 220.59375 327.394531 219.769531 L 344.976562 148.445312 C 350.878906 149.269531 356.984375 146.496094 360.054688 141.007812 L 367.445312 127.804688 L 448.8125 169.585938 L 448.8125 673.328125 L 393.660156 673.328125 Z M 351.382812 137.417969 C 350.445312 139.089844 348.773438 140.089844 347 140.238281 L 347.632812 137.675781 C 347.980469 136.265625 347.117188 134.835938 345.703125 134.488281 C 344.289062 134.136719 342.863281 135.003906 342.515625 136.417969 L 342.113281 138.046875 C 340.832031 136.347656 340.589844 133.984375 341.695312 132.007812 C 343.191406 129.335938 346.574219 128.378906 349.25 129.875 C 351.921875 131.367188 352.878906 134.746094 351.382812 137.417969 Z M 574 620.695312 L 548.902344 620.695312 L 552.746094 612.617188 L 557.816406 612.617188 L 557.816406 604.300781 L 544.390625 604.300781 L 544.390625 597.710938 L 557.816406 597.710938 L 557.816406 589.394531 L 544.390625 589.394531 L 544.390625 582.804688 L 557.816406 582.804688 L 557.816406 574.488281 L 544.390625 574.488281 L 544.390625 567.898438 L 557.816406 567.898438 L 557.816406 559.582031 L 544.390625 559.582031 L 544.390625 552.992188 L 557.816406 552.992188 L 557.816406 544.675781 L 544.390625 544.675781 L 544.390625 538.085938 L 557.816406 538.085938 L 557.816406 529.769531 L 544.390625 529.769531 L 544.390625 171.90625 L 574.003906 171.90625 L 574.003906 620.695312 Z M 466.386719 171.90625 L 498.441406 171.90625 L 498.441406 529.769531 L 482.574219 529.769531 L 482.574219 538.089844 L 498.441406 538.089844 L 498.441406 544.675781 L 482.574219 544.675781 L 482.574219 552.996094 L 498.441406 552.996094 L 498.441406 559.582031 L 482.574219 559.582031 L 482.574219 567.902344 L 498.441406 567.902344 L 498.441406 574.488281 L 482.574219 574.488281 L 482.574219 582.808594 L 498.441406 582.808594 L 498.441406 589.394531 L 482.574219 589.394531 L 482.574219 597.714844 L 498.441406 597.714844 L 498.441406 604.300781 L 482.574219 604.300781 L 482.574219 612.621094 L 490.089844 612.621094 L 493.929688 620.699219 L 466.386719 620.699219 Z M 503.105469 604.300781 L 503.105469 597.710938 L 539.726562 597.710938 L 539.726562 604.300781 Z M 503.105469 589.394531 L 503.105469 582.804688 L 539.726562 582.804688 L 539.726562 589.394531 Z M 503.105469 574.488281 L 503.105469 567.902344 L 539.726562 567.902344 L 539.726562 574.488281 Z M 503.105469 559.582031 L 503.105469 552.996094 L 539.726562 552.996094 L 539.726562 559.582031 Z M 503.105469 544.675781 L 503.105469 538.089844 L 539.726562 538.089844 L 539.726562 544.675781 Z M 503.105469 529.769531 L 503.105469 171.90625 L 539.726562 171.90625 L 539.726562 529.769531 Z M 511.457031 612.617188 L 531.371094 612.617188 L 535.214844 620.695312 L 507.617188 620.695312 Z M 592.441406 154.21875 C 592.441406 159.546875 588.117188 163.867188 582.785156 163.867188 C 577.453125 163.867188 573.128906 159.546875 573.128906 154.21875 C 573.128906 148.886719 577.453125 144.566406 582.785156 144.566406 C 588.117188 144.566406 592.441406 148.886719 592.441406 154.21875 Z M 447.949219 154.21875 C 447.949219 148.886719 452.269531 144.566406 457.605469 144.566406 C 462.9375 144.566406 467.257812 148.886719 467.257812 154.21875 C 467.257812 159.546875 462.9375 163.867188 457.605469 163.867188 C 452.269531 163.867188 447.949219 159.546875 447.949219 154.21875 Z M 466.386719 638.257812 L 574 638.257812 L 574 673.324219 L 466.386719 673.324219 Z M 466.386719 638.257812 " fill-opacity="1" fill-rule="nonzero"/></g><path fill="#000000" d="M 243.085938 310.523438 C 243.085938 311.820312 243.023438 313.109375 242.894531 314.398438 C 242.769531 315.683594 242.578125 316.964844 242.324219 318.234375 C 242.074219 319.503906 241.757812 320.757812 241.382812 321.996094 C 241.007812 323.234375 240.570312 324.449219 240.074219 325.644531 C 239.582031 326.839844 239.027344 328.007812 238.417969 329.148438 C 237.808594 330.292969 237.140625 331.398438 236.421875 332.476562 C 235.703125 333.550781 234.933594 334.589844 234.109375 335.589844 C 233.289062 336.589844 232.421875 337.546875 231.503906 338.464844 C 230.589844 339.378906 229.632812 340.246094 228.632812 341.066406 C 227.628906 341.886719 226.589844 342.65625 225.515625 343.378906 C 224.4375 344.097656 223.328125 344.761719 222.1875 345.371094 C 221.042969 345.980469 219.875 346.53125 218.679688 347.027344 C 217.484375 347.523438 216.265625 347.957031 215.027344 348.335938 C 213.789062 348.710938 212.53125 349.023438 211.261719 349.277344 C 209.992188 349.527344 208.714844 349.71875 207.425781 349.84375 C 206.136719 349.972656 204.84375 350.035156 203.550781 350.035156 C 202.253906 350.035156 200.964844 349.972656 199.675781 349.84375 C 198.386719 349.71875 197.105469 349.527344 195.835938 349.277344 C 194.566406 349.023438 193.3125 348.710938 192.074219 348.335938 C 190.835938 347.957031 189.617188 347.523438 188.421875 347.027344 C 187.222656 346.53125 186.054688 345.980469 184.914062 345.371094 C 183.769531 344.761719 182.660156 344.097656 181.585938 343.378906 C 180.507812 342.65625 179.46875 341.886719 178.46875 341.066406 C 177.46875 340.246094 176.507812 339.378906 175.59375 338.464844 C 174.679688 337.546875 173.808594 336.589844 172.988281 335.589844 C 172.167969 334.589844 171.394531 333.550781 170.675781 332.476562 C 169.957031 331.398438 169.292969 330.292969 168.683594 329.148438 C 168.070312 328.007812 167.519531 326.839844 167.023438 325.644531 C 166.527344 324.449219 166.09375 323.234375 165.714844 321.996094 C 165.339844 320.757812 165.027344 319.503906 164.773438 318.234375 C 164.519531 316.964844 164.332031 315.683594 164.203125 314.398438 C 164.078125 313.109375 164.015625 311.820312 164.015625 310.523438 C 164.015625 309.230469 164.078125 307.941406 164.203125 306.652344 C 164.332031 305.363281 164.519531 304.085938 164.773438 302.816406 C 165.027344 301.546875 165.339844 300.292969 165.714844 299.054688 C 166.09375 297.816406 166.527344 296.601562 167.023438 295.40625 C 167.519531 294.210938 168.070312 293.039062 168.683594 291.898438 C 169.292969 290.757812 169.957031 289.648438 170.675781 288.574219 C 171.394531 287.496094 172.167969 286.460938 172.988281 285.460938 C 173.808594 284.460938 174.679688 283.5 175.59375 282.585938 C 176.507812 281.671875 177.46875 280.804688 178.46875 279.984375 C 179.46875 279.160156 180.507812 278.390625 181.585938 277.671875 C 182.660156 276.953125 183.769531 276.289062 184.914062 275.679688 C 186.054688 275.070312 187.222656 274.515625 188.421875 274.023438 C 189.617188 273.527344 190.835938 273.089844 192.074219 272.714844 C 193.3125 272.339844 194.566406 272.027344 195.835938 271.773438 C 197.105469 271.519531 198.386719 271.332031 199.675781 271.203125 C 200.964844 271.078125 202.253906 271.015625 203.550781 271.015625 C 204.84375 271.015625 206.136719 271.078125 207.425781 271.203125 C 208.714844 271.332031 209.992188 271.519531 211.261719 271.773438 C 212.53125 272.027344 213.789062 272.339844 215.027344 272.714844 C 216.265625 273.089844 217.484375 273.527344 218.679688 274.019531 C 219.875 274.515625 221.042969 275.070312 222.1875 275.679688 C 223.328125 276.289062 224.4375 276.953125 225.515625 277.671875 C 226.589844 278.390625 227.628906 279.160156 228.632812 279.984375 C 229.632812 280.804688 230.589844 281.671875 231.503906 282.585938 C 232.421875 283.5 233.289062 284.460938 234.109375 285.460938 C 234.933594 286.460938 235.703125 287.496094 236.421875 288.574219 C 237.140625 289.648438 237.808594 290.757812 238.417969 291.898438 C 239.027344 293.039062 239.582031 294.210938 240.074219 295.40625 C 240.570312 296.601562 241.007812 297.816406 241.382812 299.054688 C 241.757812 300.292969 242.074219 301.546875 242.324219 302.816406 C 242.578125 304.085938 242.769531 305.363281 242.894531 306.652344 C 243.023438 307.941406 243.085938 309.230469 243.085938 310.523438 Z M 243.085938 310.523438 " fill-opacity="1" fill-rule="nonzero"/><path fill="#000000" d="M 327.265625 301.035156 C 328.269531 301.917969 329.515625 302.355469 330.753906 302.355469 C 332.210938 302.355469 333.664062 301.75 334.707031 300.574219 C 336.632812 298.394531 336.429688 295.066406 334.246094 293.136719 L 331.703125 290.890625 L 326.191406 300.085938 Z M 327.265625 301.035156 " fill-opacity="1" fill-rule="nonzero"/><path fill="#000000" d="M 304.597656 273.566406 L 255.671875 355.238281 L 183.644531 375.039062 C 176.15625 377.09375 171.757812 384.828125 173.816406 392.308594 C 175.535156 398.542969 181.191406 402.632812 187.363281 402.632812 C 188.597656 402.632812 189.851562 402.472656 191.101562 402.128906 L 268.5625 380.832031 C 272.050781 379.875 275.039062 377.609375 276.894531 374.503906 L 328.722656 287.996094 C 332.710938 281.339844 330.542969 272.710938 323.878906 268.726562 C 317.21875 264.742188 308.585938 266.910156 304.597656 273.566406 Z M 304.597656 273.566406 " fill-opacity="1" fill-rule="nonzero"/><path fill="#000000" d="M 457.605469 150.335938 C 455.457031 150.335938 453.71875 152.074219 453.71875 154.21875 C 453.71875 156.363281 455.457031 158.101562 457.605469 158.101562 C 459.75 158.101562 461.488281 156.363281 461.488281 154.21875 C 461.488281 152.074219 459.746094 150.335938 457.605469 150.335938 Z M 457.605469 150.335938 " fill-opacity="1" fill-rule="nonzero"/><path fill="#000000" d="M 582.785156 150.335938 C 580.640625 150.335938 578.902344 152.074219 578.902344 154.21875 C 578.902344 156.363281 580.644531 158.101562 582.785156 158.101562 C 584.933594 158.101562 586.671875 156.363281 586.671875 154.21875 C 586.667969 152.074219 584.929688 150.335938 582.785156 150.335938 Z M 582.785156 150.335938 " fill-opacity="1" fill-rule="nonzero"/></svg>