<svg xmlns="http://www.w3.org/2000/svg" xmlns:xlink="http://www.w3.org/1999/xlink" width="1024" zoomAndPan="magnify" viewBox="0 0 768 775.92" height="1024" preserveAspectRatio="xMidYMid meet" version="1.0"><defs><clipPath id="8f6c68bfad"><path d="M 276 189.546875 L 690 189.546875 L 690 350 L 276 350 Z M 276 189.546875 " clip-rule="nonzero"/></clipPath></defs><path fill="#000000" d="M 208.726562 312.28125 C 208.546875 312.351562 208.367188 312.410156 208.175781 312.472656 L 208.128906 312.496094 L 207.976562 312.542969 L 207.9375 312.554688 L 207.773438 312.601562 L 207.738281 312.601562 L 207.570312 312.648438 L 207.546875 312.660156 L 207.367188 312.699219 L 207.34375 312.710938 L 206.9375 312.78125 L 206.757812 312.816406 L 206.722656 312.816406 C 206.210938 312.886719 205.699219 312.925781 205.1875 312.910156 L 105.300781 312.910156 C 97.125 312.910156 88.355469 318.378906 83.492188 326.511719 C 80.609375 331.347656 76.796875 341.097656 83.742188 352.113281 C 83.777344 352.160156 83.804688 352.199219 83.828125 352.246094 L 118.851562 410.167969 L 203.066406 410.167969 C 210.3125 410.167969 216.199219 404.582031 216.199219 397.722656 C 216.199219 390.851562 210.3125 385.265625 203.066406 385.265625 L 146.28125 385.265625 L 146.152344 385.253906 L 146.007812 385.253906 L 145.902344 385.242188 L 145.878906 385.242188 L 145.746094 385.230469 L 145.601562 385.21875 L 145.484375 385.207031 L 145.472656 385.207031 L 145.339844 385.183594 C 144.53125 385.078125 143.757812 384.851562 143.039062 384.539062 L 142.933594 384.492188 L 142.921875 384.480469 L 142.789062 384.421875 L 142.671875 384.363281 L 142.574219 384.3125 L 142.433594 384.242188 L 142.398438 384.21875 L 142.324219 384.183594 L 142.230469 384.125 L 142.207031 384.113281 L 142.050781 384.027344 L 141.980469 383.980469 L 141.886719 383.921875 L 141.5625 383.695312 L 141.527344 383.683594 C 140.917969 383.242188 140.359375 382.71875 139.882812 382.109375 L 139.871094 382.097656 L 139.632812 381.789062 L 139.632812 381.777344 L 139.550781 381.671875 L 139.527344 381.621094 L 139.417969 381.46875 L 139.394531 381.433594 L 139.324219 381.3125 L 139.324219 381.300781 L 118.445312 347.015625 C 116.144531 343.230469 117.503906 338.394531 121.496094 336.214844 C 125.476562 334.039062 130.574219 335.335938 132.875 339.109375 L 151.347656 369.464844 L 162.214844 369.464844 L 163.917969 355.328125 C 164.289062 352.246094 166.527344 349.660156 169.652344 348.707031 L 238.816406 327.605469 L 290.117188 307.957031 C 298.886719 304.601562 299.339844 297.167969 297.074219 291.847656 C 294.8125 286.523438 289.054688 281.511719 280.285156 284.867188 Z M 208.726562 312.28125 " fill-opacity="1" fill-rule="evenodd"/><path fill="#000000" d="M 154.839844 301.171875 C 131.304688 301.171875 112.152344 282.285156 112.152344 259.0625 C 112.152344 235.828125 131.304688 216.941406 154.839844 216.941406 C 178.375 216.941406 197.511719 235.828125 197.511719 259.0625 C 197.511719 282.285156 178.375 301.171875 154.839844 301.171875 Z M 154.839844 301.171875 " fill-opacity="1" fill-rule="evenodd"/><path fill="#000000" d="M 87.867188 559.972656 L 87.09375 563.222656 C 86.136719 567.25 87.269531 572.046875 89.890625 575.15625 C 91.429688 576.976562 93.21875 577.90625 95.207031 577.90625 L 96.816406 577.90625 C 107.207031 577.941406 110.292969 577.953125 112.460938 569.691406 C 106.898438 563.511719 98.746094 559.902344 90.070312 559.902344 C 89.332031 559.902344 88.605469 559.925781 87.867188 559.972656 Z M 87.867188 559.972656 " fill-opacity="1" fill-rule="evenodd"/><path fill="#000000" d="M 181.316406 553.675781 C 182.269531 565.152344 187.238281 572.597656 194.28125 572.597656 C 201.515625 572.597656 207.402344 567.011719 207.402344 560.152344 L 207.402344 554.007812 C 203.292969 552.007812 198.726562 550.957031 194.019531 550.957031 C 189.574219 550.957031 185.25 551.886719 181.316406 553.675781 Z M 181.316406 553.675781 " fill-opacity="1" fill-rule="evenodd"/><path fill="#000000" d="M 114.035156 425.96875 L 113.59375 425.957031 L 113.488281 425.957031 L 113.390625 425.945312 L 113.355469 425.945312 L 113.226562 425.933594 L 113.175781 425.921875 L 113.09375 425.921875 L 112.964844 425.910156 L 112.953125 425.898438 L 112.820312 425.886719 L 112.761719 425.875 L 112.6875 425.863281 L 112.558594 425.851562 L 112.425781 425.828125 L 112.34375 425.800781 L 112.296875 425.789062 L 112.164062 425.765625 L 112.140625 425.765625 L 112.035156 425.742188 L 111.949219 425.71875 L 111.902344 425.707031 L 111.769531 425.671875 L 111.746094 425.671875 L 111.640625 425.636719 L 111.507812 425.601562 L 111.355469 425.550781 L 111.257812 425.515625 L 110.878906 425.386719 L 110.78125 425.351562 L 110.757812 425.339844 L 110.640625 425.277344 L 110.605469 425.265625 L 110.507812 425.230469 L 110.390625 425.171875 L 110.269531 425.125 L 110.234375 425.101562 L 110.152344 425.0625 L 110.054688 425.015625 L 110.03125 425.003906 L 109.914062 424.933594 L 109.875 424.921875 L 109.792969 424.875 L 109.566406 424.742188 L 109.542969 424.71875 L 109.449219 424.671875 L 109.363281 424.613281 C 108.660156 424.171875 108.019531 423.613281 107.46875 422.945312 L 107.351562 422.789062 L 107.265625 422.683594 L 107.230469 422.648438 L 107.183594 422.574219 L 107.125 422.480469 L 107.101562 422.457031 L 107.027344 422.347656 L 107.003906 422.324219 L 106.945312 422.230469 L 106.875 422.109375 L 106.800781 422.003906 L 106.800781 421.992188 L 106.789062 421.980469 L 91.226562 396.246094 C 83.445312 423.625 88.722656 437.628906 99.175781 465.363281 C 101.058594 470.386719 103.023438 475.578125 105.109375 481.414062 C 105.179688 481.59375 105.242188 481.785156 105.300781 481.960938 C 105.433594 482.414062 105.527344 482.867188 105.574219 483.332031 L 105.585938 483.472656 L 105.585938 483.523438 L 105.597656 483.675781 L 105.609375 483.726562 L 105.609375 484.5 L 105.597656 484.652344 L 105.597656 484.6875 L 105.585938 484.855469 L 105.574219 484.878906 L 105.5625 485.046875 L 105.550781 485.070312 L 105.527344 485.25 L 105.527344 485.261719 L 105.492188 485.453125 L 105.457031 485.640625 L 105.457031 485.652344 L 105.417969 485.820312 L 105.40625 485.84375 L 91.621094 544.125 C 100.726562 544.410156 109.386719 547.230469 116.644531 552.089844 L 130.207031 494.800781 L 118.074219 438.6875 C 117.335938 435.269531 119.039062 431.804688 122.28125 430.148438 C 125.523438 428.492188 129.527344 429.054688 132.125 431.519531 L 178.566406 475.566406 L 178.707031 475.699219 L 178.980469 475.972656 L 179.003906 475.984375 C 179.148438 476.140625 179.28125 476.292969 179.410156 476.449219 L 179.492188 476.554688 L 179.542969 476.617188 L 179.613281 476.710938 L 179.660156 476.769531 L 179.78125 476.9375 L 179.839844 477.019531 L 179.886719 477.105469 L 179.945312 477.1875 L 179.996094 477.269531 C 180.734375 478.449219 181.152344 479.820312 181.152344 481.285156 L 181.152344 536.882812 C 185.296875 535.738281 189.625 535.15625 194.019531 535.15625 C 198.609375 535.15625 203.101562 535.789062 207.402344 537.027344 L 207.402344 477.734375 L 154.992188 425.96875 Z M 114.035156 425.96875 " fill-opacity="1" fill-rule="evenodd"/><g clip-path="url(#8f6c68bfad)"><path fill="#000000" d="M 567.882812 349.113281 C 567.753906 349.113281 567.621094 349.113281 567.488281 349.113281 C 536.410156 348.898438 507.359375 322.558594 481.140625 270.816406 C 458.820312 226.792969 433.449219 204.261719 405.71875 203.84375 C 405.457031 203.84375 405.183594 203.84375 404.910156 203.84375 C 345.195312 203.84375 290.378906 302.945312 289.832031 303.945312 C 287.9375 307.421875 283.550781 308.71875 280.035156 306.851562 C 276.519531 304.980469 275.195312 300.660156 277.09375 297.179688 C 279.5 292.761719 336.578125 189.566406 404.921875 189.566406 C 405.257812 189.566406 405.589844 189.566406 405.921875 189.566406 C 439.492188 190.066406 469.152344 215.253906 494.070312 264.433594 C 517.667969 310.972656 542.40625 334.65625 567.597656 334.835938 C 567.691406 334.835938 567.789062 334.835938 567.871094 334.835938 C 614.070312 334.835938 655.648438 255.621094 671.320312 225.753906 C 673.285156 222.015625 674.992188 218.777344 676.371094 216.289062 C 678.28125 212.824219 682.675781 211.546875 686.179688 213.441406 C 689.695312 215.335938 690.984375 219.671875 689.0625 223.125 C 687.765625 225.480469 686.097656 228.660156 684.167969 232.328125 C 665.816406 267.304688 622.878906 349.101562 567.882812 349.113281 Z M 567.882812 349.113281 " fill-opacity="1" fill-rule="evenodd"/></g><path fill="#000000" d="M 602.324219 488.394531 C 602.296875 488.394531 602.273438 488.394531 602.238281 488.378906 C 597.746094 488.332031 595.804688 485.617188 590.023438 477.554688 C 577.023438 459.394531 546.5625 416.882812 500.253906 409.988281 C 472.300781 405.820312 442.554688 415.550781 411.847656 438.878906 C 369.492188 471.042969 328.40625 483.25 289.699219 475.113281 C 229.792969 462.539062 198.238281 406.070312 196.929688 403.675781 C 195.019531 400.199219 196.332031 395.878906 199.847656 393.996094 C 203.363281 392.125 207.75 393.414062 209.644531 396.878906 C 209.941406 397.402344 239.484375 450.046875 292.820312 461.183594 C 327.152344 468.339844 364.226562 457.027344 403.015625 427.566406 C 436.964844 401.773438 470.417969 391.101562 502.414062 395.867188 C 554.808594 403.664062 587.761719 449.667969 601.832031 469.316406 C 603.277344 471.328125 604.859375 473.542969 605.835938 474.78125 C 606.195312 474.960938 606.527344 475.164062 606.851562 475.402344 C 610.054688 477.746094 610.734375 482.222656 608.351562 485.390625 C 606.945312 487.273438 604.695312 488.394531 602.324219 488.394531 Z M 602.324219 488.394531 " fill-opacity="1" fill-rule="evenodd"/></svg>