<svg xmlns="http://www.w3.org/2000/svg" xmlns:xlink="http://www.w3.org/1999/xlink" width="1024" zoomAndPan="magnify" viewBox="0 0 768 775.92" height="1024" preserveAspectRatio="xMidYMid meet" version="1.0"><defs><clipPath id="7b7e0dcb73"><path d="M 223 162 L 570.855469 162 L 570.855469 690.980469 L 223 690.980469 Z M 223 162 " clip-rule="nonzero"/></clipPath><clipPath id="6cb0d6189a"><path d="M 317 76.792969 L 413 76.792969 L 413 173 L 317 173 Z M 317 76.792969 " clip-rule="nonzero"/></clipPath><clipPath id="debd4a7c48"><path d="M 197.394531 368 L 223 368 L 223 383 L 197.394531 383 Z M 197.394531 368 " clip-rule="nonzero"/></clipPath></defs><g clip-path="url(#7b7e0dcb73)"><path fill="#000000" d="M 276.660156 691.078125 L 570.6875 691.078125 L 570.6875 669.78125 L 536.828125 669.78125 L 514.378906 441.929688 C 511.425781 411.953125 493.90625 385.355469 467.519531 370.785156 L 428.480469 349.230469 L 453.554688 207.761719 L 432.566406 204.046875 L 417.132812 291.136719 C 411.800781 290.277344 406.699219 293.855469 405.742188 299.1875 L 399 336.65625 L 326.609375 308.175781 L 318.800781 327.992188 L 334.710938 334.25 L 326.195312 350.6875 C 321.839844 359.085938 313.261719 364.542969 303.765625 364.925781 L 303.738281 364.929688 L 295.972656 326.871094 C 296.019531 326.269531 296.066406 325.675781 296.105469 325.046875 C 295.6875 288.101562 311.175781 246.925781 320.605469 218.046875 C 329.257812 197.753906 324.40625 171.601562 306.898438 164.894531 C 289.386719 158.179688 262.003906 164.773438 247.550781 194.421875 C 234.0625 222.511719 226.773438 244.230469 223.4375 270.523438 L 267.941406 196.828125 C 271.894531 190.285156 279.101562 186.222656 286.757812 186.222656 C 290.742188 186.222656 294.65625 187.3125 298.082031 189.378906 C 308.445312 195.625 311.792969 209.132812 305.539062 219.492188 L 262.449219 290.832031 L 266.476562 379.429688 L 304.3125 377.6875 C 318.355469 377.121094 331.085938 369.023438 337.546875 356.554688 L 343.625 344.820312 L 346.667969 338.953125 L 395.148438 358.023438 L 384.296875 418.324219 C 383.328125 423.714844 386.949219 428.914062 392.339844 429.882812 C 392.40625 429.894531 392.46875 429.886719 392.53125 429.898438 L 350.175781 668.890625 L 355.214844 669.78125 L 276.660156 669.78125 Z M 424.550781 371.394531 L 457.207031 389.421875 C 477.457031 400.601562 490.898438 421.011719 493.164062 444.015625 L 515.40625 669.78125 L 371.664062 669.78125 Z M 424.550781 371.394531 " fill-opacity="1" fill-rule="nonzero"/></g><g clip-path="url(#6cb0d6189a)"><path fill="#000000" d="M 412.996094 124.707031 C 412.996094 126.277344 412.917969 127.84375 412.765625 129.40625 C 412.613281 130.96875 412.382812 132.519531 412.074219 134.058594 C 411.769531 135.597656 411.386719 137.117188 410.929688 138.617188 C 410.476562 140.121094 409.945312 141.597656 409.34375 143.046875 C 408.746094 144.496094 408.074219 145.914062 407.332031 147.296875 C 406.59375 148.679688 405.785156 150.023438 404.914062 151.328125 C 404.039062 152.636719 403.105469 153.894531 402.109375 155.105469 C 401.113281 156.320312 400.058594 157.480469 398.949219 158.589844 C 397.839844 159.699219 396.675781 160.753906 395.460938 161.75 C 394.246094 162.746094 392.988281 163.679688 391.679688 164.550781 C 390.375 165.421875 389.03125 166.226562 387.644531 166.96875 C 386.257812 167.707031 384.839844 168.378906 383.390625 168.976562 C 381.9375 169.578125 380.460938 170.105469 378.957031 170.5625 C 377.453125 171.019531 375.933594 171.398438 374.390625 171.703125 C 372.851562 172.011719 371.300781 172.242188 369.738281 172.394531 C 368.171875 172.546875 366.605469 172.625 365.035156 172.625 C 363.464844 172.625 361.898438 172.546875 360.335938 172.394531 C 358.769531 172.242188 357.21875 172.011719 355.679688 171.703125 C 354.136719 171.398438 352.617188 171.019531 351.113281 170.5625 C 349.609375 170.105469 348.132812 169.578125 346.679688 168.976562 C 345.230469 168.378906 343.8125 167.707031 342.425781 166.96875 C 341.042969 166.226562 339.695312 165.421875 338.390625 164.550781 C 337.082031 163.679688 335.824219 162.746094 334.609375 161.75 C 333.394531 160.753906 332.234375 159.699219 331.121094 158.589844 C 330.011719 157.480469 328.957031 156.320312 327.960938 155.105469 C 326.964844 153.894531 326.03125 152.636719 325.15625 151.328125 C 324.285156 150.023438 323.476562 148.679688 322.738281 147.296875 C 321.996094 145.914062 321.328125 144.496094 320.726562 143.046875 C 320.125 141.597656 319.597656 140.121094 319.140625 138.617188 C 318.683594 137.117188 318.300781 135.597656 317.996094 134.058594 C 317.691406 132.519531 317.460938 130.96875 317.304688 129.40625 C 317.152344 127.84375 317.074219 126.277344 317.074219 124.707031 C 317.074219 123.140625 317.152344 121.574219 317.304688 120.011719 C 317.460938 118.449219 317.691406 116.898438 317.996094 115.359375 C 318.300781 113.820312 318.683594 112.300781 319.140625 110.800781 C 319.597656 109.296875 320.125 107.820312 320.726562 106.371094 C 321.328125 104.921875 321.996094 103.503906 322.738281 102.121094 C 323.476562 100.738281 324.285156 99.394531 325.15625 98.085938 C 326.03125 96.78125 326.964844 95.523438 327.960938 94.3125 C 328.957031 93.097656 330.011719 91.9375 331.121094 90.828125 C 332.234375 89.71875 333.394531 88.664062 334.609375 87.667969 C 335.824219 86.671875 337.082031 85.738281 338.390625 84.867188 C 339.695312 83.996094 341.042969 83.191406 342.425781 82.449219 C 343.8125 81.710938 345.230469 81.039062 346.679688 80.441406 C 348.132812 79.839844 349.609375 79.3125 351.113281 78.855469 C 352.617188 78.398438 354.136719 78.019531 355.679688 77.710938 C 357.21875 77.40625 358.769531 77.175781 360.335938 77.023438 C 361.898438 76.867188 363.464844 76.792969 365.035156 76.792969 C 366.605469 76.792969 368.171875 76.867188 369.738281 77.023438 C 371.300781 77.175781 372.851562 77.40625 374.390625 77.710938 C 375.933594 78.019531 377.453125 78.398438 378.957031 78.855469 C 380.460938 79.3125 381.9375 79.839844 383.390625 80.441406 C 384.839844 81.039062 386.257812 81.710938 387.644531 82.449219 C 389.03125 83.191406 390.375 83.996094 391.679688 84.867188 C 392.988281 85.738281 394.246094 86.671875 395.460938 87.667969 C 396.675781 88.664062 397.839844 89.71875 398.949219 90.828125 C 400.058594 91.9375 401.113281 93.097656 402.109375 94.3125 C 403.105469 95.523438 404.039062 96.78125 404.914062 98.085938 C 405.785156 99.394531 406.59375 100.738281 407.332031 102.121094 C 408.074219 103.503906 408.746094 104.921875 409.34375 106.371094 C 409.945312 107.820312 410.476562 109.296875 410.929688 110.800781 C 411.386719 112.300781 411.769531 113.820312 412.074219 115.359375 C 412.382812 116.898438 412.613281 118.449219 412.765625 120.011719 C 412.917969 121.574219 412.996094 123.140625 412.996094 124.707031 Z M 412.996094 124.707031 " fill-opacity="1" fill-rule="nonzero"/></g><path fill="#000000" d="M 265.828125 391.347656 C 264.902344 394.527344 263.273438 397.484375 260.976562 400 C 259.828125 401.257812 258.546875 402.34375 257.175781 403.285156 L 259.929688 416.777344 L 211.414062 527.070312 C 205.496094 540.53125 211.617188 556.238281 225.085938 562.152344 C 228.578125 563.6875 232.214844 564.410156 235.792969 564.410156 C 246.042969 564.410156 255.8125 558.46875 260.203125 548.492188 L 312.121094 430.453125 C 314.335938 425.417969 314.9375 419.820312 313.835938 414.425781 L 308.71875 389.347656 C 307.269531 389.570312 305.800781 389.734375 304.316406 389.796875 Z M 265.828125 391.347656 " fill-opacity="1" fill-rule="nonzero"/><g clip-path="url(#debd4a7c48)"><path fill="#000000" d="M 197.613281 369.804688 L 222.03125 368.683594 L 222.621094 381.445312 L 198.199219 382.566406 Z M 197.613281 369.804688 " fill-opacity="1" fill-rule="nonzero"/></g><path fill="#000000" d="M 257.488281 289.574219 L 301.339844 216.957031 C 306.207031 208.902344 303.613281 198.429688 295.550781 193.570312 C 287.484375 188.710938 277.003906 191.300781 272.140625 199.355469 L 225.617188 276.386719 C 223.878906 279.269531 223.03125 282.601562 223.183594 285.960938 L 227.726562 385.984375 C 228.140625 395.121094 235.6875 402.25 244.75 402.246094 C 245.007812 402.246094 245.273438 402.242188 245.535156 402.230469 C 254.941406 401.804688 262.222656 393.835938 261.796875 384.4375 Z M 257.488281 289.574219 " fill-opacity="1" fill-rule="nonzero"/></svg>