<svg xmlns="http://www.w3.org/2000/svg" xmlns:xlink="http://www.w3.org/1999/xlink" width="1024" zoomAndPan="magnify" viewBox="0 0 768 775.92" height="1024" preserveAspectRatio="xMidYMid meet" version="1.0"><defs><clipPath id="b85e06f1f8"><path d="M 180 201 L 590 201 L 590 662.890625 L 180 662.890625 Z M 180 201 " clip-rule="nonzero"/></clipPath><clipPath id="39e3ee56f2"><path d="M 76.832031 199 L 185 199 L 185 308 L 76.832031 308 Z M 76.832031 199 " clip-rule="nonzero"/></clipPath><clipPath id="7a13915d7e"><path d="M 582 199 L 691.019531 199 L 691.019531 308 L 582 308 Z M 582 199 " clip-rule="nonzero"/></clipPath></defs><path fill="#000000" d="M 390.207031 208.355469 C 418.605469 208.355469 441.703125 185.257812 441.703125 156.855469 C 441.703125 128.453125 418.605469 105.355469 390.207031 105.355469 C 361.808594 105.355469 338.714844 128.453125 338.714844 156.855469 C 338.714844 185.257812 361.808594 208.355469 390.207031 208.355469 Z M 390.207031 208.355469 " fill-opacity="1" fill-rule="nonzero"/><g clip-path="url(#b85e06f1f8)"><path fill="#000000" d="M 193.921875 257.15625 L 198.210938 256.261719 C 224.703125 250.726562 251.871094 247.910156 278.941406 247.910156 L 304.335938 247.910156 L 324.023438 383.574219 C 323.589844 384.644531 323.199219 385.753906 322.851562 386.894531 L 319.3125 398.886719 L 313.96875 417.003906 C 298.714844 468.71875 290.238281 522.269531 288.761719 576.15625 L 287.390625 625.90625 C 286.871094 644.804688 301.765625 660.535156 320.65625 661.054688 C 320.976562 661.054688 321.292969 661.054688 321.609375 661.054688 C 340.070312 661.054688 355.296875 646.347656 355.800781 627.769531 L 357.171875 578.019531 C 358.460938 531.371094 365.652344 485.015625 378.523438 440.171875 C 382.320312 439.941406 386.222656 439.839844 390.207031 439.984375 C 393.429688 440.101562 396.578125 440.304688 399.625 440.5625 C 412.714844 485.765625 420.007812 532.527344 421.308594 579.5625 L 422.679688 629.316406 C 423.1875 647.894531 438.410156 662.601562 456.871094 662.601562 C 457.1875 662.601562 457.507812 662.601562 457.824219 662.601562 C 476.71875 662.082031 491.609375 646.347656 491.089844 627.453125 L 489.71875 577.699219 C 488.230469 523.800781 479.75 470.25 464.511719 418.546875 L 460.0625 403.480469 L 455.65625 388.542969 L 476.082031 247.925781 L 501.476562 247.925781 C 525.683594 247.925781 549.980469 250.191406 573.800781 254.628906 C 573.800781 254.105469 573.757812 253.601562 573.757812 253.082031 C 573.757812 237.046875 579.78125 222.382812 589.660156 211.230469 C 560.683594 205.308594 531.03125 202.289062 501.460938 202.289062 L 456.625 202.289062 C 454.242188 201.667969 451.742188 201.292969 449.171875 201.292969 L 431.390625 201.292969 C 420.570312 211.332031 406.097656 217.5 390.195312 217.5 C 374.289062 217.5 359.816406 211.347656 348.996094 201.292969 L 331.214844 201.292969 C 328.632812 201.292969 326.144531 201.652344 323.761719 202.289062 L 278.925781 202.289062 C 248.722656 202.289062 218.433594 205.425781 188.863281 211.605469 L 180.023438 213.457031 C 188.792969 224.304688 194.050781 238.101562 194.050781 253.097656 C 194.050781 254.46875 193.992188 255.828125 193.90625 257.171875 Z M 193.921875 257.15625 " fill-opacity="1" fill-rule="nonzero"/></g><g clip-path="url(#39e3ee56f2)"><path fill="#000000" d="M 76.832031 253.082031 C 76.832031 282.882812 101.085938 307.140625 130.882812 307.140625 C 160.683594 307.140625 184.933594 282.882812 184.933594 253.082031 C 184.933594 223.28125 160.683594 199.023438 130.882812 199.023438 C 101.085938 199.023438 76.832031 223.265625 76.832031 253.082031 Z M 130.882812 220.074219 C 149.082031 220.074219 163.890625 234.878906 163.890625 253.082031 C 163.890625 271.285156 149.082031 286.089844 130.882812 286.089844 C 112.683594 286.089844 97.878906 271.285156 97.878906 253.082031 C 97.878906 234.878906 112.683594 220.074219 130.882812 220.074219 Z M 130.882812 220.074219 " fill-opacity="1" fill-rule="nonzero"/></g><path fill="#000000" d="M 130.882812 276.960938 C 144.042969 276.960938 154.761719 266.257812 154.761719 253.082031 C 154.761719 239.90625 144.058594 229.203125 130.882812 229.203125 C 117.710938 229.203125 107.007812 239.90625 107.007812 253.082031 C 107.007812 266.257812 117.710938 276.960938 130.882812 276.960938 Z M 140.605469 253.082031 C 140.605469 258.457031 136.257812 262.804688 130.882812 262.804688 C 125.511719 262.804688 121.164062 258.457031 121.164062 253.082031 C 121.164062 247.707031 125.511719 243.359375 130.882812 243.359375 C 136.257812 243.359375 140.605469 247.707031 140.605469 253.082031 Z M 140.605469 253.082031 " fill-opacity="1" fill-rule="nonzero"/><g clip-path="url(#7a13915d7e)"><path fill="#000000" d="M 691.019531 253.082031 C 691.019531 223.28125 666.765625 199.023438 636.964844 199.023438 C 607.167969 199.023438 582.914062 223.28125 582.914062 253.082031 C 582.914062 282.882812 607.167969 307.140625 636.964844 307.140625 C 666.765625 307.140625 691.019531 282.882812 691.019531 253.082031 Z M 636.953125 286.078125 C 618.75 286.078125 603.945312 271.269531 603.945312 253.066406 C 603.945312 234.863281 618.75 220.058594 636.953125 220.058594 C 655.152344 220.058594 669.957031 234.863281 669.957031 253.066406 C 669.957031 271.269531 655.152344 286.078125 636.953125 286.078125 Z M 636.953125 286.078125 " fill-opacity="1" fill-rule="nonzero"/></g><path fill="#000000" d="M 660.828125 253.082031 C 660.828125 239.921875 650.125 229.203125 636.953125 229.203125 C 623.777344 229.203125 613.074219 239.90625 613.074219 253.082031 C 613.074219 266.257812 623.777344 276.960938 636.953125 276.960938 C 650.125 276.960938 660.828125 266.257812 660.828125 253.082031 Z M 636.953125 243.359375 C 642.324219 243.359375 646.671875 247.707031 646.671875 253.082031 C 646.671875 258.457031 642.324219 262.804688 636.953125 262.804688 C 631.578125 262.804688 627.230469 258.457031 627.230469 253.082031 C 627.230469 247.707031 631.578125 243.359375 636.953125 243.359375 Z M 636.953125 243.359375 " fill-opacity="1" fill-rule="nonzero"/></svg>