<svg xmlns="http://www.w3.org/2000/svg" xmlns:xlink="http://www.w3.org/1999/xlink" width="1024" zoomAndPan="magnify" viewBox="0 0 768 775.92" height="1024" preserveAspectRatio="xMidYMid meet" version="1.0"><defs><clipPath id="02c6483586"><path d="M 236 272 L 534 272 L 534 690.980469 L 236 690.980469 Z M 236 272 " clip-rule="nonzero"/></clipPath><clipPath id="6a0330c4bf"><path d="M 545 376 L 559.492188 376 L 559.492188 407 L 545 407 Z M 545 376 " clip-rule="nonzero"/></clipPath><clipPath id="55207ad59b"><path d="M 208.53125 376 L 224 376 L 224 408 L 208.53125 408 Z M 208.53125 376 " clip-rule="nonzero"/></clipPath></defs><g clip-path="url(#02c6483586)"><path fill="#000000" d="M 522.542969 375.882812 C 493.175781 372.734375 471.023438 351.695312 466.769531 321.992188 C 466.640625 321.074219 466.511719 320.152344 466.425781 319.21875 L 464.210938 297.878906 C 463.347656 283.839844 451.675781 272.671875 437.414062 272.671875 L 421.070312 272.671875 C 411.539062 280.808594 399.207031 285.722656 385.722656 285.722656 C 372.238281 285.722656 359.90625 280.792969 350.375 272.671875 L 330.679688 272.671875 C 319.167969 272.671875 309.347656 279.972656 305.523438 290.164062 C 304.691406 291.988281 304.117188 293.984375 303.898438 296.097656 L 301.5 319.21875 C 301.425781 319.9375 301.328125 320.640625 301.226562 321.347656 C 297.273438 350.875 275.738281 371.988281 246.960938 375.695312 C 247.679688 377.535156 247.824219 379.601562 247.175781 381.628906 L 236.496094 414.378906 C 236.914062 414.378906 237.316406 414.378906 237.730469 414.378906 C 266.480469 414.378906 292.082031 403.371094 310.484375 384.964844 C 312.207031 383.238281 313.875 381.441406 315.472656 379.574219 L 325.679688 449.875 C 325.765625 450.792969 325.921875 451.671875 326.136719 452.53125 C 325.75 453.882812 325.417969 455.261719 325.234375 456.699219 C 325.175781 457.160156 324.917969 459.140625 324.527344 462.519531 C 322.183594 482.738281 314.941406 554.246094 314.941406 662.367188 C 314.941406 678.144531 327.734375 690.933594 343.519531 690.933594 C 359.300781 690.933594 372.09375 678.144531 372.09375 662.367188 C 372.09375 587.742188 375.730469 530.546875 378.578125 497.195312 C 380.390625 497.296875 382.214844 497.351562 384.070312 497.351562 C 395.484375 497.351562 406.105469 495.285156 415.035156 491.71875 C 426.761719 499.898438 443.453125 527.816406 438.636719 600.605469 C 437.601562 616.355469 449.519531 629.949219 465.273438 630.996094 C 465.921875 631.039062 466.554688 631.054688 467.1875 631.054688 C 482.105469 631.054688 494.683594 619.472656 495.675781 604.367188 C 500.234375 535.363281 488.648438 485.640625 461.234375 456.597656 C 457.109375 452.230469 452.925781 448.636719 448.800781 445.675781 C 447.03125 444.398438 445.265625 443.25 443.539062 442.199219 L 452.609375 379.71875 C 454.207031 381.570312 455.871094 383.367188 457.597656 385.078125 C 475.996094 403.398438 501.570312 414.351562 530.277344 414.351562 C 530.925781 414.351562 531.558594 414.351562 532.203125 414.335938 C 532.492188 414.335938 532.792969 414.320312 533.082031 414.308594 L 522.414062 381.585938 C 521.796875 379.6875 521.867188 377.675781 522.542969 375.835938 Z M 522.542969 375.882812 " fill-opacity="1" fill-rule="nonzero"/></g><g clip-path="url(#6a0330c4bf)"><path fill="#000000" d="M 559.042969 394.21875 C 558.667969 386.054688 553.175781 379.359375 545.832031 376.972656 L 555.390625 406.289062 C 557.847656 402.910156 559.242188 398.714844 559.027344 394.203125 Z M 559.042969 394.21875 " fill-opacity="1" fill-rule="nonzero"/></g><g clip-path="url(#55207ad59b)"><path fill="#000000" d="M 208.980469 394.21875 C 208.75 399.363281 210.578125 404.117188 213.738281 407.695312 L 223.917969 376.511719 C 215.679688 378.308594 209.382812 385.421875 208.980469 394.230469 Z M 208.980469 394.21875 " fill-opacity="1" fill-rule="nonzero"/></g><path fill="#000000" d="M 385.722656 278.105469 C 411.582031 278.105469 432.628906 257.066406 432.628906 231.214844 C 432.628906 205.363281 411.582031 184.324219 385.722656 184.324219 C 359.863281 184.324219 338.816406 205.363281 338.816406 231.214844 C 338.816406 257.066406 359.863281 278.105469 385.722656 278.105469 Z M 385.722656 278.105469 " fill-opacity="1" fill-rule="nonzero"/><path fill="#000000" d="M 239.644531 355.777344 C 238.132812 359.886719 236.609375 364.15625 235.160156 368.496094 C 235.359375 368.550781 235.574219 368.566406 235.777344 368.625 L 241.527344 370.492188 C 241.828125 370.59375 242.101562 370.75 242.402344 370.878906 C 243.8125 366.640625 245.320312 362.445312 246.800781 358.378906 C 251.058594 346.722656 255.457031 334.667969 257.136719 321.1875 C 260.054688 297.707031 254.636719 274.167969 249.375 251.390625 C 242.476562 221.445312 235.949219 193.164062 246.960938 165.296875 C 262.328125 126.441406 295.332031 107.515625 320.316406 98.460938 C 351.539062 87.167969 389.113281 84.496094 423.414062 91.132812 C 455.542969 97.355469 478.671875 108.59375 496.164062 126.484375 C 535.425781 166.605469 530.164062 219.921875 525.074219 271.480469 C 524.570312 276.609375 524.066406 281.710938 523.609375 286.800781 C 521.25 312.78125 519.570312 342.457031 527.746094 370.621094 C 527.863281 370.578125 527.964844 370.519531 528.078125 370.476562 L 533.828125 368.609375 C 534.230469 368.480469 534.632812 368.421875 535.023438 368.351562 C 527.257812 341.464844 528.914062 312.722656 531.199219 287.488281 C 531.65625 282.417969 532.160156 277.328125 532.664062 272.226562 C 537.925781 218.929688 543.375 163.820312 501.613281 121.152344 C 482.96875 102.097656 458.574219 90.183594 424.851562 83.648438 C 389.246094 76.75 350.1875 79.535156 317.714844 91.292969 C 279.765625 105.03125 252.855469 129.644531 239.859375 162.480469 C 227.972656 192.542969 235.070312 223.324219 241.929688 253.085938 C 247.03125 275.21875 252.308594 298.09375 249.546875 320.238281 C 247.980469 332.855469 243.914062 343.980469 239.613281 355.761719 Z M 239.644531 355.777344 " fill-opacity="1" fill-rule="nonzero"/><path fill="#000000" d="M 240.332031 374.128906 L 234.582031 372.257812 C 234.066406 372.085938 233.546875 372.015625 233.03125 372.015625 C 230.917969 372.015625 228.933594 373.367188 228.246094 375.480469 L 215.59375 414.25 C 214.730469 416.878906 216.183594 419.726562 218.8125 420.585938 L 224.5625 422.457031 C 225.84375 422.871094 227.210938 422.769531 228.402344 422.152344 C 229.59375 421.535156 230.488281 420.5 230.902344 419.234375 L 243.554688 380.464844 C 244.417969 377.835938 242.964844 374.988281 240.332031 374.128906 Z M 240.332031 374.128906 " fill-opacity="1" fill-rule="nonzero"/><path fill="#000000" d="M 534.992188 372.246094 L 529.242188 374.113281 C 527.964844 374.53125 526.929688 375.421875 526.324219 376.613281 C 525.722656 377.808594 525.605469 379.171875 526.023438 380.449219 L 538.671875 419.222656 C 539.089844 420.5 539.980469 421.535156 541.175781 422.140625 C 542.367188 422.742188 543.734375 422.859375 545.011719 422.441406 L 550.761719 420.574219 C 552.042969 420.15625 553.078125 419.265625 553.679688 418.070312 C 554.285156 416.878906 554.398438 415.515625 553.980469 414.234375 L 541.332031 375.464844 C 540.640625 373.351562 538.671875 372 536.546875 372 C 536.027344 372 535.511719 372.085938 534.992188 372.246094 Z M 534.992188 372.246094 " fill-opacity="1" fill-rule="nonzero"/></svg>