<svg xmlns="http://www.w3.org/2000/svg" xmlns:xlink="http://www.w3.org/1999/xlink" width="1024" zoomAndPan="magnify" viewBox="0 0 768 775.92" height="1024" preserveAspectRatio="xMidYMid meet" version="1.0"><defs><clipPath id="57c9f91b69"><path d="M 77 128 L 544 128 L 544 654.710938 L 77 654.710938 Z M 77 128 " clip-rule="nonzero"/></clipPath><clipPath id="579a3aa907"><path d="M 497 240 L 691 240 L 691 654.710938 L 497 654.710938 Z M 497 240 " clip-rule="nonzero"/></clipPath></defs><g clip-path="url(#57c9f91b69)"><path fill="#000000" d="M 530.890625 485.566406 C 526.320312 478.929688 523.835938 470.925781 524.003906 462.621094 C 524.070312 459.542969 524.453125 456.425781 525.289062 453.316406 C 527.761719 444.074219 533.382812 436.511719 540.679688 431.425781 L 515.089844 346.261719 C 512.460938 337.53125 506.195312 330.367188 497.886719 326.613281 C 489.574219 322.859375 480.058594 322.886719 471.769531 326.695312 L 398.457031 360.363281 C 381.898438 327.125 369.9375 290.839844 363.5 252.5 C 368.355469 246.875 374.421875 239.5625 380.589844 231.378906 C 387.453125 222.242188 394.4375 212.082031 400.074219 201.527344 C 405.574219 190.847656 410.359375 180.164062 410.59375 166.773438 C 410.601562 162.046875 409.839844 156.832031 407.625 151.660156 C 404.417969 143.804688 397.425781 137.003906 389.847656 133.632812 C 382.226562 130.121094 374.320312 129.015625 365.789062 128.984375 C 353.847656 129.046875 340.136719 131.273438 323.207031 135.839844 C 324.21875 137.082031 325.199219 138.355469 326.105469 139.695312 C 333.628906 150.757812 336.71875 163.550781 335.808594 175.964844 C 349.667969 172.359375 359.710938 170.957031 365.785156 171.015625 C 366.46875 171.011719 367.09375 171.03125 367.667969 171.058594 C 366.785156 173.847656 365.261719 177.699219 362.992188 181.773438 C 356.933594 193.21875 346.6875 207.011719 338.105469 217.425781 C 333.808594 222.65625 329.914062 227.113281 327.128906 230.222656 C 325.777344 231.730469 324.695312 232.917969 323.945312 233.730469 C 300.351562 237.390625 273.359375 242.019531 252.269531 246.453125 C 251.21875 246.464844 250.027344 246.472656 248.707031 246.46875 C 237.546875 246.503906 217.003906 245.832031 201.152344 242.691406 C 195.25 241.582031 190.03125 239.996094 186.679688 238.574219 C 188.554688 236.222656 191.628906 232.945312 196.148438 229.148438 C 203.371094 222.996094 214.117188 215.390625 228.816406 206.589844 C 229.90625 205.941406 230.898438 205.1875 231.824219 204.382812 C 231.738281 204.257812 231.640625 204.140625 231.554688 204.011719 C 224.066406 193.003906 220.964844 180.285156 221.832031 167.925781 C 216.980469 167.027344 211.796875 167.804688 207.234375 170.542969 C 186.238281 183.152344 171.386719 194.035156 160.761719 204.644531 C 155.457031 209.980469 151.160156 215.28125 147.886719 221.175781 C 144.648438 227.035156 142.386719 233.761719 142.382812 241.082031 C 142.300781 248.617188 145.089844 256.152344 149.113281 261.519531 C 156.300781 271.011719 165.164062 275.300781 173.8125 278.671875 C 186.910156 283.503906 201.144531 285.632812 214.597656 286.96875 C 224.574219 287.917969 234.011719 288.296875 241.597656 288.433594 C 260.15625 341.542969 294.539062 385.945312 327.496094 427.367188 C 327.527344 427.441406 327.550781 427.519531 327.585938 427.59375 C 329.726562 432.261719 332.882812 436.128906 336.648438 439.117188 C 341.996094 445.8125 349.835938 448.359375 356.15625 445.933594 C 360.582031 445.945312 365.082031 445.054688 369.367188 443.085938 L 405.265625 426.597656 C 404.855469 423.265625 404.878906 419.847656 405.363281 416.410156 C 405.582031 414.855469 405.867188 413.292969 406.285156 411.738281 C 408.152344 404.773438 411.824219 398.777344 416.632812 394.0625 C 426.175781 384.691406 440.257812 380.429688 454.085938 384.136719 C 474.875 389.707031 487.253906 411.152344 481.679688 431.953125 C 480.789062 435.28125 479.453125 438.363281 477.816406 441.222656 L 488.140625 475.578125 L 474.3125 480.574219 C 474.972656 478.289062 474.972656 475.796875 474.101562 473.394531 L 466.894531 453.417969 C 457.695312 460.085938 445.6875 462.71875 433.882812 459.558594 C 427.96875 457.972656 422.765625 455.070312 418.433594 451.300781 L 98.417969 566.902344 C 92.351562 569.09375 89.214844 575.78125 91.402344 581.84375 L 97.242188 598.027344 C 85.6875 601.910156 77.355469 612.808594 77.355469 625.675781 C 77.355469 641.792969 90.421875 654.859375 106.53125 654.859375 C 122.644531 654.859375 135.707031 641.792969 135.707031 625.675781 C 135.707031 619.796875 133.953125 614.335938 130.964844 609.753906 L 423.828125 503.96875 C 423.875 504.160156 423.902344 504.351562 423.96875 504.539062 L 428.398438 516.808594 C 429.417969 519.628906 432.53125 521.09375 435.351562 520.074219 L 498.632812 497.21875 C 504.472656 503.003906 512.445312 506.375 520.816406 506.375 C 523.816406 506.375 526.871094 505.941406 529.890625 505.035156 C 535.113281 503.464844 539.625 500.660156 543.207031 497.039062 C 538.246094 494.113281 534.066406 490.183594 530.890625 485.566406 Z M 530.890625 485.566406 " fill-opacity="1" fill-rule="nonzero"/></g><path fill="#000000" d="M 465.507812 449.574219 C 470.074219 446.027344 473.789062 441.347656 476.1875 435.789062 C 476.859375 434.234375 477.464844 432.632812 477.914062 430.945312 C 482.9375 412.199219 471.816406 392.933594 453.078125 387.910156 C 439.605469 384.296875 425.894531 389.058594 417.367188 398.96875 C 414.035156 402.84375 411.46875 407.480469 410.054688 412.75 C 409.984375 413.019531 409.949219 413.289062 409.882812 413.5625 C 408.960938 417.363281 408.703125 421.171875 409.023438 424.875 C 409.875 434.722656 414.84375 443.792969 422.667969 449.773438 C 426.210938 452.480469 430.320312 454.566406 434.890625 455.789062 C 445.929688 458.75 457.125 456.074219 465.507812 449.574219 Z M 445.722656 408.019531 C 446.347656 408.097656 446.972656 408.203125 447.597656 408.371094 C 455.035156 410.367188 459.453125 418.015625 457.460938 425.457031 C 455.464844 432.898438 447.816406 437.320312 440.375 435.324219 C 432.9375 433.332031 428.523438 425.675781 430.515625 418.234375 C 430.914062 416.742188 431.550781 415.375 432.363281 414.152344 C 435.242188 409.796875 440.40625 407.34375 445.722656 408.019531 Z M 445.722656 408.019531 " fill-opacity="1" fill-rule="nonzero"/><path fill="#000000" d="M 446.472656 412.542969 C 447.085938 412.707031 447.675781 412.929688 448.242188 413.210938 C 448.808594 413.492188 449.34375 413.824219 449.847656 414.207031 C 450.347656 414.59375 450.808594 415.023438 451.226562 415.5 C 451.644531 415.976562 452.011719 416.488281 452.328125 417.039062 C 452.644531 417.585938 452.90625 418.160156 453.109375 418.761719 C 453.3125 419.359375 453.453125 419.972656 453.535156 420.601562 C 453.621094 421.230469 453.640625 421.859375 453.597656 422.492188 C 453.558594 423.125 453.453125 423.746094 453.292969 424.355469 C 453.128906 424.96875 452.90625 425.558594 452.625 426.125 C 452.34375 426.695312 452.011719 427.230469 451.628906 427.734375 C 451.242188 428.234375 450.8125 428.695312 450.335938 429.113281 C 449.859375 429.53125 449.347656 429.898438 448.800781 430.214844 C 448.25 430.53125 447.675781 430.789062 447.078125 430.996094 C 446.476562 431.199219 445.863281 431.339844 445.238281 431.421875 C 444.609375 431.507812 443.980469 431.527344 443.347656 431.484375 C 442.714844 431.445312 442.09375 431.339844 441.484375 431.175781 C 440.871094 431.011719 440.28125 430.792969 439.714844 430.511719 C 439.144531 430.230469 438.609375 429.898438 438.109375 429.511719 C 437.605469 429.128906 437.144531 428.695312 436.730469 428.21875 C 436.3125 427.746094 435.945312 427.230469 435.628906 426.683594 C 435.3125 426.136719 435.050781 425.5625 434.847656 424.960938 C 434.644531 424.363281 434.5 423.75 434.417969 423.121094 C 434.335938 422.492188 434.316406 421.863281 434.355469 421.230469 C 434.398438 420.597656 434.5 419.976562 434.664062 419.363281 C 434.828125 418.753906 435.050781 418.164062 435.332031 417.59375 C 435.609375 417.027344 435.941406 416.492188 436.328125 415.988281 C 436.714844 415.488281 437.144531 415.027344 437.621094 414.609375 C 438.097656 414.191406 438.609375 413.824219 439.15625 413.507812 C 439.707031 413.191406 440.277344 412.929688 440.878906 412.726562 C 441.476562 412.523438 442.089844 412.382812 442.71875 412.296875 C 443.347656 412.214844 443.976562 412.195312 444.609375 412.238281 C 445.238281 412.277344 445.863281 412.378906 446.472656 412.542969 Z M 446.472656 412.542969 " fill-opacity="1" fill-rule="nonzero"/><path fill="#000000" d="M 598.03125 461.316406 C 597.53125 453.027344 594.09375 445.261719 588.5 439.324219 C 584.179688 434.742188 578.609375 431.238281 572.082031 429.488281 C 567.148438 428.164062 562.179688 427.988281 557.441406 428.75 C 551.757812 429.664062 546.417969 431.964844 541.867188 435.386719 C 535.816406 439.941406 531.167969 446.449219 529.058594 454.332031 C 528.445312 456.625 528.082031 458.925781 527.933594 461.207031 C 527.398438 469.578125 529.910156 477.683594 534.679688 484.199219 C 537.59375 488.179688 541.363281 491.542969 545.796875 494.03125 C 548.300781 495.4375 551 496.59375 553.902344 497.371094 C 563.402344 499.917969 573.027344 498.296875 580.875 493.65625 C 588.503906 489.140625 594.445312 481.765625 596.921875 472.523438 C 597.921875 468.765625 598.253906 464.996094 598.03125 461.316406 Z M 559.375 476.90625 C 558.59375 476.695312 557.855469 476.410156 557.144531 476.082031 C 555.195312 475.183594 553.527344 473.875 552.222656 472.277344 C 549.589844 469.066406 548.429688 464.734375 549.386719 460.410156 C 549.429688 460.210938 549.460938 460.011719 549.515625 459.8125 C 551.367188 452.910156 558.078125 448.617188 564.976562 449.625 C 565.515625 449.703125 566.058594 449.800781 566.597656 449.949219 C 574.035156 451.945312 578.453125 459.59375 576.460938 467.035156 C 576.238281 467.875 575.933594 468.667969 575.570312 469.421875 C 574.980469 470.664062 574.222656 471.785156 573.332031 472.769531 C 569.929688 476.53125 564.605469 478.308594 559.375 476.90625 Z M 559.375 476.90625 " fill-opacity="1" fill-rule="nonzero"/><path fill="#000000" d="M 571.550781 467.84375 C 571.863281 467.242188 572.121094 466.605469 572.304688 465.925781 C 573.558594 461.234375 571.109375 456.464844 566.773438 454.605469 C 566.351562 454.425781 565.9375 454.234375 565.476562 454.113281 C 560.335938 452.730469 555.050781 455.789062 553.671875 460.933594 C 552.292969 466.074219 555.34375 471.367188 560.492188 472.746094 C 564.957031 473.945312 569.519531 471.792969 571.550781 467.84375 Z M 571.550781 467.84375 " fill-opacity="1" fill-rule="nonzero"/><g clip-path="url(#579a3aa907)"><path fill="#000000" d="M 666.414062 579.382812 L 546.886719 248.269531 C 544.695312 242.203125 538.007812 239.0625 531.949219 241.25 L 505.605469 250.769531 C 499.546875 252.957031 496.402344 259.648438 498.59375 265.710938 L 556.105469 425.039062 C 561.589844 424.046875 567.355469 424.175781 573.089844 425.710938 C 581.054688 427.84375 587.769531 432.324219 592.730469 438.191406 C 597.601562 443.957031 600.757812 451.070312 601.703125 458.660156 C 602.304688 463.503906 602.027344 468.535156 600.6875 473.53125 C 597.871094 484.039062 590.996094 492.386719 582.210938 497.367188 L 617.546875 595.261719 C 613.949219 601.195312 611.84375 608.128906 611.84375 615.574219 C 611.84375 637.269531 629.425781 654.859375 651.113281 654.859375 C 672.800781 654.859375 690.386719 637.269531 690.386719 615.574219 C 690.382812 599.308594 680.5 585.351562 666.414062 579.382812 Z M 666.414062 579.382812 " fill-opacity="1" fill-rule="nonzero"/></g><path fill="#000000" d="M 235.078125 200.835938 C 235.199219 201.019531 235.292969 201.210938 235.417969 201.390625 C 251.722656 225.375 284.378906 231.597656 308.355469 215.28125 C 321.671875 206.222656 329.484375 192.117188 331.03125 177.257812 C 332.269531 165.359375 329.5 152.984375 322.246094 142.316406 C 321.015625 140.5 319.660156 138.824219 318.25 137.214844 C 301.019531 117.554688 271.46875 113.34375 249.300781 128.421875 C 235.125 138.070312 227.21875 153.433594 226.441406 169.332031 C 225.917969 180.128906 228.671875 191.160156 235.078125 200.835938 Z M 235.078125 200.835938 " fill-opacity="1" fill-rule="nonzero"/></svg>