<svg xmlns="http://www.w3.org/2000/svg" xmlns:xlink="http://www.w3.org/1999/xlink" width="1024" zoomAndPan="magnify" viewBox="0 0 768 775.92" height="1024" preserveAspectRatio="xMidYMid meet" version="1.0"><defs><clipPath id="0c60f4c6a5"><path d="M 135.578125 447 L 632.777344 447 L 632.777344 690.980469 L 135.578125 690.980469 Z M 135.578125 447 " clip-rule="nonzero"/></clipPath></defs><path fill="#000000" d="M 435.210938 369.199219 C 440.675781 370.191406 446.613281 371.6875 451.964844 373.917969 C 459.160156 376.808594 464.917969 380.699219 468.425781 385.015625 C 471.875 389.4375 474.246094 394.117188 474.394531 404.003906 C 474.460938 414.871094 470.441406 432.429688 457.183594 457.085938 C 451.707031 467.304688 453.847656 479.558594 461.632812 487.367188 C 463.390625 489.128906 465.425781 490.667969 467.734375 491.902344 C 471.601562 493.96875 475.757812 494.953125 479.859375 494.953125 C 481.570312 494.953125 483.257812 494.726562 484.925781 494.390625 C 492.203125 492.933594 498.804688 488.410156 502.585938 481.363281 C 518.339844 451.863281 525.824219 426.757812 525.890625 404.003906 C 526.042969 383.5625 519.050781 365.292969 508.191406 352.339844 C 491.792969 332.757812 470.226562 324.703125 452.949219 320.386719 C 452.15625 320.195312 451.382812 320.023438 450.601562 319.847656 C 450.359375 307.613281 451.410156 295.046875 453.089844 282.792969 C 455.738281 285.902344 458.621094 288.902344 461.832031 291.707031 C 473.332031 301.828125 489.339844 309.023438 508.070312 309.023438 C 508.207031 309.023438 508.339844 309.023438 508.476562 309.023438 C 512.011719 309.023438 515.632812 308.773438 519.332031 308.292969 C 513.226562 296.507812 508.410156 285.714844 504.628906 275.910156 C 497.515625 275.28125 492.042969 273.054688 487.085938 269.617188 C 475.441406 266.730469 465.375 263.109375 456.964844 259.386719 C 452.671875 257.488281 448.800781 255.570312 445.367188 253.714844 C 440.617188 251.15625 436.425781 248.589844 432.738281 246.132812 C 420.890625 238.242188 414.449219 231.496094 413 229.910156 C 405.402344 221.460938 406.09375 208.421875 414.539062 200.832031 C 418.320312 197.433594 423.214844 195.5625 428.300781 195.5625 C 428.574219 195.5625 428.84375 195.59375 429.117188 195.605469 C 434.597656 195.824219 439.8125 198.207031 443.523438 202.265625 L 444.292969 203.035156 C 445.386719 204.085938 446.652344 205.199219 448.015625 206.316406 C 450.285156 208.175781 453.621094 210.6875 457.964844 213.429688 C 459.972656 214.699219 462.1875 216.011719 464.632812 217.335938 C 464.855469 200.722656 457.125 184.789062 443.28125 181.339844 C 425.699219 176.960938 400.210938 186.5 389.839844 216.628906 C 375.824219 258.140625 372.8125 285.164062 378.136719 330.871094 C 379.882812 339.859375 382.835938 346.640625 386.578125 351.773438 L 357.152344 461.429688 C 373.285156 464.839844 390.199219 468.679688 407.382812 472.90625 Z M 435.210938 369.199219 " fill-opacity="1" fill-rule="nonzero"/><path fill="#000000" d="M 546.152344 284.550781 C 545.046875 280.761719 542.691406 277.679688 539.667969 275.605469 C 539.089844 275.609375 538.5 275.644531 537.917969 275.644531 L 537.808594 275.644531 C 537.03125 275.644531 536.28125 275.609375 535.511719 275.601562 C 538.277344 281.945312 541.523438 288.738281 545.324219 295.988281 C 546.910156 292.523438 547.3125 288.496094 546.152344 284.550781 Z M 546.152344 284.550781 " fill-opacity="1" fill-rule="nonzero"/><path fill="#000000" d="M 593.132812 381.554688 C 588.144531 371.789062 582.203125 361.886719 575.152344 351.917969 C 561.484375 332.5625 550.949219 315.269531 542.808594 299.929688 C 538.152344 291.15625 534.277344 283.023438 531.074219 275.53125 C 527.121094 275.414062 523.292969 275.183594 519.558594 274.878906 C 515.628906 274.554688 511.789062 274.15625 508.097656 273.648438 C 508.40625 274.449219 508.71875 275.257812 509.039062 276.070312 C 512.816406 285.660156 517.589844 296.175781 523.59375 307.640625 C 532.328125 324.328125 543.648438 343.011719 558.328125 363.785156 C 577.082031 390.375 587.136719 415.859375 591.855469 439.132812 C 593.867188 428.546875 594.898438 417.714844 594.898438 406.65625 C 594.898438 398.398438 594.292969 390.015625 593.132812 381.554688 Z M 593.132812 381.554688 " fill-opacity="1" fill-rule="nonzero"/><path fill="#000000" d="M 589.515625 518.871094 C 588.214844 523.828125 586.804688 528.359375 585.390625 532.386719 C 585.074219 533.292969 584.753906 534.171875 584.4375 535.03125 C 590.953125 538.808594 596.867188 542.683594 602.035156 546.648438 C 608.390625 530.773438 615.917969 505.371094 615.949219 473.894531 C 615.957031 470.339844 615.855469 466.707031 615.648438 463.007812 C 610.058594 482.101562 602.421875 497.785156 595.484375 509.449219 C 593.480469 512.820312 591.484375 515.941406 589.515625 518.871094 Z M 589.515625 518.871094 " fill-opacity="1" fill-rule="nonzero"/><path fill="#000000" d="M 516.109375 215.714844 C 516.109375 211.828125 516.417969 209.097656 516.6875 207.46875 C 516.820312 206.652344 516.945312 206.109375 517.011719 205.828125 L 517.011719 205.792969 C 518.800781 200.402344 515.878906 194.578125 510.480469 192.792969 C 505.085938 190.996094 499.253906 193.917969 497.46875 199.316406 C 497.128906 200.308594 495.511719 205.742188 495.511719 215.714844 C 495.511719 219.636719 495.769531 224.253906 496.433594 229.5625 C 503.316406 231.292969 510.449219 232.585938 517.84375 233.402344 C 516.515625 225.980469 516.109375 220.09375 516.109375 215.714844 Z M 516.109375 215.714844 " fill-opacity="1" fill-rule="nonzero"/><path fill="#000000" d="M 541.214844 518.769531 C 540.902344 518.640625 540.59375 518.515625 540.28125 518.386719 C 540.324219 518.472656 540.375 518.550781 540.414062 518.636719 Z M 541.214844 518.769531 " fill-opacity="1" fill-rule="nonzero"/><path fill="#000000" d="M 479.269531 87.886719 C 480.75 88.230469 482.207031 88.648438 483.644531 89.132812 C 485.082031 89.621094 486.488281 90.175781 487.871094 90.800781 C 489.253906 91.425781 490.601562 92.117188 491.917969 92.875 C 493.230469 93.632812 494.507812 94.453125 495.738281 95.335938 C 496.972656 96.21875 498.160156 97.160156 499.300781 98.160156 C 500.441406 99.160156 501.53125 100.210938 502.570312 101.316406 C 503.609375 102.421875 504.589844 103.578125 505.511719 104.78125 C 506.4375 105.980469 507.300781 107.226562 508.101562 108.515625 C 508.902344 109.800781 509.640625 111.125 510.3125 112.484375 C 510.984375 113.84375 511.585938 115.230469 512.121094 116.652344 C 512.65625 118.070312 513.121094 119.511719 513.511719 120.976562 C 513.90625 122.4375 514.226562 123.917969 514.472656 125.414062 C 514.722656 126.910156 514.894531 128.414062 514.996094 129.925781 C 515.09375 131.441406 515.121094 132.953125 515.070312 134.46875 C 515.019531 135.984375 514.898438 137.492188 514.699219 138.996094 C 514.503906 140.5 514.230469 141.988281 513.886719 143.464844 C 513.542969 144.941406 513.128906 146.398438 512.640625 147.832031 C 512.152344 149.269531 511.597656 150.675781 510.972656 152.058594 C 510.34375 153.4375 509.652344 154.785156 508.894531 156.097656 C 508.136719 157.410156 507.316406 158.683594 506.433594 159.917969 C 505.546875 161.148438 504.605469 162.335938 503.605469 163.476562 C 502.605469 164.613281 501.550781 165.703125 500.445312 166.738281 C 499.339844 167.777344 498.183594 168.757812 496.980469 169.679688 C 495.773438 170.601562 494.53125 171.464844 493.242188 172.265625 C 491.953125 173.066406 490.628906 173.800781 489.265625 174.472656 C 487.90625 175.144531 486.515625 175.746094 485.097656 176.28125 C 483.675781 176.816406 482.234375 177.277344 480.769531 177.671875 C 479.300781 178.0625 477.820312 178.382812 476.324219 178.632812 C 474.828125 178.878906 473.320312 179.050781 471.808594 179.152344 C 470.292969 179.25 468.777344 179.277344 467.261719 179.226562 C 465.746094 179.179688 464.234375 179.054688 462.730469 178.859375 C 461.226562 178.660156 459.734375 178.390625 458.253906 178.046875 C 456.777344 177.703125 455.320312 177.285156 453.882812 176.800781 C 452.445312 176.3125 451.035156 175.757812 449.652344 175.132812 C 448.273438 174.507812 446.921875 173.816406 445.609375 173.058594 C 444.292969 172.300781 443.019531 171.480469 441.789062 170.597656 C 440.554688 169.714844 439.367188 168.773438 438.226562 167.773438 C 437.082031 166.773438 435.996094 165.722656 434.957031 164.617188 C 433.917969 163.511719 432.9375 162.355469 432.015625 161.152344 C 431.089844 159.949219 430.226562 158.707031 429.425781 157.417969 C 428.625 156.132812 427.886719 154.808594 427.214844 153.449219 C 426.542969 152.089844 425.941406 150.699219 425.40625 149.28125 C 424.871094 147.863281 424.40625 146.421875 424.015625 144.957031 C 423.621094 143.492188 423.300781 142.015625 423.054688 140.519531 C 422.804688 139.023438 422.632812 137.519531 422.53125 136.007812 C 422.433594 134.492188 422.40625 132.980469 422.457031 131.464844 C 422.503906 129.949219 422.628906 128.441406 422.828125 126.9375 C 423.023438 125.433594 423.292969 123.945312 423.640625 122.46875 C 423.984375 120.992188 424.398438 119.535156 424.886719 118.101562 C 425.375 116.664062 425.929688 115.257812 426.554688 113.875 C 427.183594 112.496094 427.875 111.148438 428.632812 109.835938 C 429.390625 108.523438 430.210938 107.25 431.09375 106.015625 C 431.980469 104.785156 432.921875 103.597656 433.921875 102.457031 C 434.921875 101.316406 435.972656 100.230469 437.082031 99.191406 C 438.1875 98.15625 439.34375 97.175781 440.546875 96.253906 C 441.75 95.332031 442.996094 94.46875 444.285156 93.667969 C 445.574219 92.867188 446.898438 92.128906 448.257812 91.460938 C 449.621094 90.789062 451.011719 90.1875 452.429688 89.652344 C 453.851562 89.117188 455.292969 88.652344 456.757812 88.261719 C 458.222656 87.867188 459.707031 87.546875 461.203125 87.300781 C 462.699219 87.054688 464.207031 86.878906 465.71875 86.78125 C 467.234375 86.679688 468.75 86.65625 470.265625 86.707031 C 471.78125 86.753906 473.292969 86.878906 474.796875 87.074219 C 476.300781 87.273438 477.792969 87.542969 479.269531 87.886719 Z M 479.269531 87.886719 " fill-opacity="1" fill-rule="nonzero"/><g clip-path="url(#0c60f4c6a5)"><path fill="#000000" d="M 166.472656 628.691406 C 149.410156 628.691406 135.578125 642.511719 135.578125 659.558594 C 135.578125 676.605469 149.410156 690.421875 166.472656 690.421875 C 183.535156 690.421875 197.367188 676.605469 197.367188 659.558594 C 197.367188 654.1875 195.988281 649.140625 193.574219 644.742188 L 204.636719 633.6875 L 207.796875 630.53125 C 218.414062 634.640625 229.941406 636.917969 242.011719 636.917969 C 279.074219 636.917969 453.507812 642.917969 552.121094 622.179688 L 555.65625 625.714844 L 574.699219 644.738281 C 572.285156 649.136719 570.910156 654.183594 570.910156 659.554688 C 570.910156 676.601562 584.742188 690.421875 601.804688 690.421875 C 618.867188 690.421875 632.699219 676.601562 632.699219 659.554688 C 632.699219 642.511719 618.867188 628.691406 601.804688 628.691406 C 599.847656 628.691406 597.9375 628.890625 596.082031 629.238281 L 584.523438 617.691406 L 581.269531 614.445312 C 605.425781 606.277344 620.488281 595.328125 620.488281 580.679688 C 620.488281 571.378906 614.410156 562.140625 603.804688 553.121094 C 602.738281 552.21875 601.628906 551.3125 600.476562 550.414062 C 595.445312 546.488281 589.574219 542.609375 582.992188 538.785156 C 581.808594 538.101562 580.601562 537.414062 579.375 536.730469 C 578.609375 536.304688 577.835938 535.878906 577.050781 535.453125 C 571.433594 542.109375 567.359375 545.921875 566.570312 546.644531 C 566.316406 546.871094 566.046875 547.078125 565.78125 547.289062 C 563.214844 549.292969 560.09375 550.375 556.847656 550.375 C 556.070312 550.375 555.285156 550.308594 554.507812 550.179688 L 549.433594 549.335938 L 534.941406 546.925781 C 532.402344 549.320312 529.394531 551.113281 526.152344 552.253906 C 523.554688 553.167969 520.808594 553.675781 518 553.675781 C 517.246094 553.675781 516.484375 553.632812 515.726562 553.5625 C 515.117188 553.503906 514.515625 553.433594 513.914062 553.332031 L 391.28125 532.910156 L 380.96875 531.191406 C 373.265625 529.921875 366.765625 525.164062 363.179688 518.316406 L 342.796875 514.921875 L 304.867188 508.605469 C 309.441406 517.820312 312.027344 528.195312 312.027344 539.179688 C 312.027344 554.84375 306.789062 569.28125 297.980469 580.855469 C 296.761719 582.453125 295.484375 584.003906 294.136719 585.488281 C 284.671875 595.910156 272.046875 603.410156 257.78125 606.515625 C 256.265625 606.84375 254.730469 607.132812 253.175781 607.363281 C 249.867188 607.851562 246.480469 608.113281 243.03125 608.113281 C 204.921875 608.113281 174.03125 577.25 174.03125 539.179688 C 174.03125 512.414062 189.308594 489.230469 211.621094 477.8125 C 214.105469 464.722656 225.601562 454.816406 239.425781 454.816406 C 251.460938 454.816406 261.714844 462.328125 265.816406 472.90625 L 350.296875 486.964844 L 367.171875 489.773438 C 371.808594 484.960938 378.304688 482.148438 385.007812 482.148438 C 386.375 482.148438 387.753906 482.261719 389.105469 482.492188 L 404.136719 484.992188 L 483.222656 498.160156 C 458.316406 490.351562 432.058594 483.191406 406.316406 476.867188 C 389.160156 472.648438 372.230469 468.804688 356.085938 465.390625 C 303.195312 454.199219 258.6875 447.609375 242.011719 447.609375 C 189.683594 447.609375 147.265625 489.988281 147.265625 542.261719 C 147.265625 572.789062 161.746094 599.925781 184.207031 617.234375 L 181.300781 620.136719 L 172.195312 629.234375 C 170.335938 628.894531 168.429688 628.691406 166.472656 628.691406 Z M 166.472656 628.691406 " fill-opacity="1" fill-rule="nonzero"/></g><path fill="#000000" d="M 239.417969 511.40625 C 228.21875 511.40625 218.570312 504.894531 213.972656 495.472656 C 199.828125 504.871094 190.503906 520.9375 190.503906 539.183594 C 190.503906 568.164062 214.015625 591.65625 243.023438 591.65625 C 246.78125 591.65625 250.445312 591.253906 253.980469 590.503906 C 259.585938 589.3125 264.851562 587.230469 269.640625 584.410156 C 285.136719 575.289062 295.542969 558.453125 295.542969 539.183594 C 295.542969 526.089844 290.734375 514.125 282.792969 504.933594 L 261.085938 501.316406 C 255.886719 507.480469 248.117188 511.40625 239.417969 511.40625 Z M 239.417969 511.40625 " fill-opacity="1" fill-rule="nonzero"/><path fill="#000000" d="M 219.847656 492.097656 C 223.257812 499.5 230.726562 504.652344 239.417969 504.652344 C 244.5 504.652344 249.160156 502.882812 252.847656 499.945312 L 237.046875 497.316406 C 232.269531 496.523438 228.4375 493.445312 226.464844 489.390625 C 225.199219 486.796875 224.691406 483.804688 225.199219 480.742188 C 225.859375 476.777344 228.078125 473.4375 231.164062 471.285156 C 233.507812 469.65625 236.351562 468.710938 239.398438 468.710938 C 240.199219 468.710938 240.996094 468.777344 241.785156 468.910156 L 257.582031 471.539062 C 253.75 465.554688 247.058594 461.574219 239.421875 461.574219 C 230.671875 461.574219 223.15625 466.792969 219.777344 474.273438 C 218.558594 476.972656 217.863281 479.957031 217.863281 483.109375 C 217.863281 486.324219 218.582031 489.359375 219.847656 492.097656 Z M 219.847656 492.097656 " fill-opacity="1" fill-rule="nonzero"/><path fill="#000000" d="M 576.207031 231.28125 C 579.589844 231.28125 582.78125 232.101562 585.609375 233.550781 C 585.398438 229.644531 585.296875 225.945312 585.296875 222.5 C 585.296875 205.21875 587.640625 193.609375 589.808594 186.542969 C 590.886719 183.015625 591.929688 180.613281 592.621094 179.199219 C 592.96875 178.496094 593.226562 178.035156 593.363281 177.804688 L 593.363281 177.78125 C 596.625 173.125 595.488281 166.714844 590.828125 163.457031 C 586.167969 160.199219 579.746094 161.332031 576.492188 165.992188 C 575.265625 167.671875 564.660156 184.214844 564.699219 222.5 C 564.699219 225.734375 564.78125 229.136719 564.941406 232.6875 C 567.574219 232.347656 570.214844 231.980469 572.875 231.550781 C 573.96875 231.371094 575.089844 231.28125 576.207031 231.28125 Z M 576.207031 231.28125 " fill-opacity="1" fill-rule="nonzero"/><path fill="#000000" d="M 403.0625 488.988281 L 388.421875 486.550781 C 380.699219 485.261719 373.261719 488.453125 368.765625 494.21875 L 349.226562 490.964844 L 276.371094 478.835938 L 259.777344 476.070312 L 241.109375 472.964844 C 235.503906 472.03125 230.195312 475.8125 229.261719 481.417969 C 228.851562 483.863281 229.382812 486.226562 230.535156 488.21875 C 232.019531 490.796875 234.5625 492.738281 237.726562 493.265625 L 237.726562 493.257812 L 256.390625 496.367188 L 263.722656 497.589844 L 277.878906 499.945312 L 302.375 504.023438 L 343.867188 510.933594 L 365.992188 514.617188 C 368.609375 520.996094 374.347656 525.921875 381.652344 527.136719 L 392.351562 528.921875 L 514.59375 549.277344 C 515.738281 549.46875 516.878906 549.5625 518.003906 549.5625 C 524.050781 549.5625 529.652344 546.886719 533.484375 542.511719 L 555.183594 546.125 C 555.738281 546.21875 556.296875 546.261719 556.851562 546.261719 C 559.386719 546.261719 561.867188 545.332031 563.773438 543.617188 C 564.054688 543.359375 567.851562 539.914062 573.339844 533.480469 C 574.171875 532.503906 575.050781 531.445312 575.957031 530.332031 C 578.929688 526.675781 582.25 522.277344 585.710938 517.164062 C 587.761719 514.128906 589.855469 510.878906 591.953125 507.347656 C 592.050781 507.179688 592.148438 507.003906 592.25 506.835938 C 600.839844 492.292969 609.402344 473.53125 614.605469 450.980469 C 615.507812 447.054688 616.300781 443.007812 616.984375 438.859375 C 618.644531 428.769531 619.621094 418.035156 619.621094 406.65625 C 619.625 384.730469 616.054688 360.523438 607.261719 334.414062 C 598.496094 308.390625 592.96875 286.195312 589.640625 267.394531 C 586.855469 269.8125 583.402344 271.527344 579.5 272.164062 C 576.265625 272.691406 573.039062 273.144531 569.824219 273.550781 C 573.386719 292.894531 579.074219 315.238281 587.738281 340.976562 C 592.382812 354.773438 595.367188 367.832031 597.101562 380.199219 C 597.703125 384.460938 598.171875 388.644531 598.476562 392.734375 C 598.832031 397.484375 599.019531 402.132812 599.019531 406.652344 C 599.019531 422.457031 596.949219 436.851562 593.679688 449.804688 C 592.769531 453.417969 591.765625 456.917969 590.683594 460.304688 C 586.109375 474.585938 580.183594 486.828125 574.242188 496.847656 C 568.050781 507.277344 561.851562 515.273438 557.269531 520.601562 C 557.128906 520.765625 557.011719 520.894531 556.875 521.050781 C 555.820312 522.257812 554.878906 523.304688 554.03125 524.214844 C 553.808594 524.457031 553.554688 524.734375 553.351562 524.949219 L 537.46875 522.308594 C 536.644531 519.902344 535.355469 517.699219 533.730469 515.769531 C 530.6875 512.140625 526.40625 509.519531 521.367188 508.679688 L 508.789062 506.585938 Z M 403.0625 488.988281 " fill-opacity="1" fill-rule="nonzero"/><path fill="#000000" d="M 529.324219 271.351562 C 530.777344 271.40625 532.257812 271.433594 533.742188 271.460938 C 535.09375 271.484375 536.433594 271.527344 537.808594 271.527344 C 537.847656 271.527344 537.878906 271.527344 537.917969 271.527344 C 546.496094 271.527344 555.527344 271.035156 564.988281 269.988281 C 566.351562 269.839844 567.71875 269.679688 569.101562 269.503906 C 572.296875 269.101562 575.535156 268.644531 578.828125 268.105469 C 582.882812 267.445312 586.339844 265.347656 588.789062 262.425781 C 590.277344 260.65625 591.378906 258.582031 592.019531 256.335938 C 592.660156 254.085938 592.84375 251.667969 592.441406 249.210938 C 592.117188 247.234375 591.4375 245.402344 590.503906 243.757812 C 589.347656 241.71875 587.785156 239.960938 585.929688 238.597656 C 582.488281 236.070312 578.078125 234.867188 573.527344 235.613281 C 570.683594 236.074219 567.910156 236.457031 565.167969 236.804688 C 563.78125 236.980469 562.429688 237.121094 561.070312 237.269531 C 552.910156 238.160156 545.171875 238.605469 537.917969 238.605469 C 532.671875 238.601562 527.6875 238.371094 522.894531 237.988281 C 521.464844 237.875 520.042969 237.753906 518.65625 237.613281 C 510.828125 236.800781 503.636719 235.523438 497.046875 233.941406 C 495.589844 233.589844 494.152344 233.230469 492.75 232.851562 C 481.382812 229.769531 471.972656 225.808594 464.367188 221.84375 C 463.898438 221.597656 463.410156 221.355469 462.957031 221.109375 C 461.601562 220.378906 460.332031 219.65625 459.101562 218.933594 C 453.066406 215.394531 448.492188 212.027344 445.402344 209.492188 C 443.539062 207.96875 442.207031 206.738281 441.398438 205.960938 C 441.003906 205.570312 440.730469 205.296875 440.585938 205.152344 C 440.527344 205.089844 440.488281 205.046875 440.476562 205.035156 C 436.636719 200.832031 431.105469 199.070312 425.855469 199.855469 C 422.769531 200.316406 419.78125 201.648438 417.289062 203.886719 C 410.523438 209.964844 409.960938 220.371094 416.050781 227.132812 C 416.695312 227.847656 421.457031 233.007812 430.542969 239.59375 C 435.058594 242.863281 440.625 246.480469 447.320312 250.085938 C 450.535156 251.820312 454.03125 253.542969 457.757812 255.21875 C 464.335938 258.179688 471.6875 260.988281 479.863281 263.414062 C 486.65625 265.429688 494.007812 267.171875 501.898438 268.523438 C 503.394531 268.78125 504.917969 269.015625 506.449219 269.242188 C 513.652344 270.304688 521.265625 271.046875 529.324219 271.351562 Z M 529.324219 271.351562 " fill-opacity="1" fill-rule="nonzero"/></svg>