<svg xmlns="http://www.w3.org/2000/svg" xmlns:xlink="http://www.w3.org/1999/xlink" width="1024" zoomAndPan="magnify" viewBox="0 0 768 775.92" height="1024" preserveAspectRatio="xMidYMid meet" version="1.0"><defs><clipPath id="677598f709"><path d="M 76.832031 477 L 562 477 L 562 651 L 76.832031 651 Z M 76.832031 477 " clip-rule="nonzero"/></clipPath><clipPath id="0e1ead566c"><path d="M 192 117.109375 L 274 117.109375 L 274 218 L 192 218 Z M 192 117.109375 " clip-rule="nonzero"/></clipPath><clipPath id="1ce3de722e"><path d="M 266 117.109375 L 367 117.109375 L 367 218 L 266 218 Z M 266 117.109375 " clip-rule="nonzero"/></clipPath></defs><path fill="#000000" d="M 223.109375 405.832031 C 219.679688 370.289062 188.109375 344.265625 152.59375 347.695312 C 117.078125 351.125 91.066406 382.714844 94.496094 418.257812 C 96.644531 440.5 109.816406 459.015625 128.078125 468.917969 L 189.554688 468.917969 C 211.695312 456.921875 225.683594 432.484375 223.109375 405.832031 Z M 223.109375 405.832031 " fill-opacity="1" fill-rule="nonzero"/><path fill="#000000" d="M 651.320312 650.144531 C 654.222656 650.144531 657.171875 649.789062 660.113281 649.046875 C 679.335938 644.199219 690.992188 624.679688 686.148438 605.445312 L 638.996094 418.160156 C 635.15625 402.898438 621.828125 391.917969 606.125 391.070312 L 323.777344 375.863281 L 320.390625 412.398438 C 318.972656 427.710938 306.324219 439.261719 290.96875 439.261719 C 290.054688 439.261719 289.132812 439.222656 288.207031 439.136719 C 280.347656 438.40625 273.234375 434.65625 268.1875 428.574219 C 263.136719 422.496094 260.761719 414.804688 261.492188 406.933594 L 272.066406 292.824219 L 267.363281 220.683594 C 259.839844 224.203125 251.484375 226.226562 242.640625 226.226562 C 235.152344 226.226562 228.015625 224.761719 221.421875 222.191406 L 233.925781 414.039062 C 234.09375 416.628906 234.707031 419.082031 235.648438 421.355469 C 237.664062 438.535156 248.273438 457.148438 269.050781 468.921875 L 475.238281 468.921875 C 481.277344 465.226562 485.808594 461.125 489.15625 456.714844 L 575.847656 461.382812 L 616.535156 622.996094 C 620.644531 639.285156 635.261719 650.148438 651.320312 650.144531 Z M 651.320312 650.144531 " fill-opacity="1" fill-rule="nonzero"/><g clip-path="url(#677598f709)"><path fill="#000000" d="M 539.664062 518.191406 C 550.835938 518.191406 559.972656 509.046875 559.972656 497.867188 C 559.972656 486.691406 550.835938 477.542969 539.664062 477.542969 L 98.878906 477.542969 C 87.707031 477.542969 78.570312 486.691406 78.570312 497.867188 C 78.570312 509.046875 87.707031 518.191406 98.878906 518.191406 L 108.949219 518.191406 L 107.246094 526.8125 L 88.410156 621.996094 L 76.832031 621.996094 L 76.832031 650.726562 L 131.449219 650.726562 L 131.449219 621.996094 L 117.679688 621.996094 L 134.984375 534.550781 L 503.554688 534.550781 L 520.859375 621.996094 L 507.089844 621.996094 L 507.089844 650.726562 L 561.707031 650.726562 L 561.707031 621.996094 L 550.132812 621.996094 L 531.292969 526.808594 L 529.585938 518.1875 L 539.664062 518.1875 Z M 539.664062 518.191406 " fill-opacity="1" fill-rule="nonzero"/></g><path fill="#000000" d="M 285.695312 217.308594 L 268.070312 407.546875 C 266.898438 420.1875 276.191406 431.386719 288.824219 432.558594 C 289.546875 432.625 290.261719 432.660156 290.972656 432.660156 C 302.699219 432.660156 312.710938 423.710938 313.816406 411.792969 L 331.1875 224.332031 C 326.523438 225.527344 321.667969 226.234375 316.636719 226.234375 C 305.273438 226.226562 294.691406 222.925781 285.695312 217.308594 Z M 285.695312 217.308594 " fill-opacity="1" fill-rule="nonzero"/><g clip-path="url(#0e1ead566c)"><path fill="#000000" d="M 273.355469 207.011719 C 266.714844 199.734375 261.886719 190.808594 259.5625 180.898438 C 255.609375 185.898438 249.507812 189.113281 242.640625 189.113281 C 230.722656 189.113281 221.0625 179.445312 221.0625 167.519531 C 221.0625 155.589844 230.722656 145.921875 242.640625 145.921875 C 249.507812 145.921875 255.609375 149.140625 259.5625 154.136719 C 261.882812 144.226562 266.714844 135.300781 273.355469 128.019531 C 264.871094 121.410156 254.230469 117.433594 242.644531 117.433594 C 215.003906 117.433594 192.589844 139.855469 192.589844 167.519531 C 192.589844 195.1875 215 217.609375 242.644531 217.609375 C 254.230469 217.605469 264.871094 213.628906 273.355469 207.011719 Z M 273.355469 207.011719 " fill-opacity="1" fill-rule="nonzero"/></g><path fill="#000000" d="M 242.644531 175.324219 C 246.953125 175.324219 250.445312 171.828125 250.445312 167.519531 C 250.445312 163.207031 246.953125 159.714844 242.644531 159.714844 C 238.335938 159.714844 234.847656 163.207031 234.847656 167.519531 C 234.847656 171.832031 238.335938 175.324219 242.644531 175.324219 Z M 242.644531 175.324219 " fill-opacity="1" fill-rule="nonzero"/><g clip-path="url(#1ce3de722e)"><path fill="#000000" d="M 266.582031 167.519531 C 266.582031 195.183594 288.988281 217.609375 316.632812 217.609375 C 344.28125 217.609375 366.6875 195.1875 366.6875 167.519531 C 366.6875 139.855469 344.277344 117.433594 316.632812 117.433594 C 288.992188 117.433594 266.582031 139.855469 266.582031 167.519531 Z M 316.632812 145.925781 C 328.554688 145.925781 338.214844 155.59375 338.214844 167.519531 C 338.214844 179.449219 328.554688 189.117188 316.632812 189.117188 C 304.714844 189.117188 295.054688 179.449219 295.054688 167.519531 C 295.054688 155.59375 304.714844 145.925781 316.632812 145.925781 Z M 316.632812 145.925781 " fill-opacity="1" fill-rule="nonzero"/></g><path fill="#000000" d="M 316.632812 159.71875 C 312.328125 159.71875 308.835938 163.210938 308.835938 167.519531 C 308.835938 171.832031 312.328125 175.324219 316.632812 175.324219 C 320.941406 175.324219 324.433594 171.832031 324.433594 167.519531 C 324.433594 163.210938 320.941406 159.71875 316.632812 159.71875 Z M 316.632812 159.71875 " fill-opacity="1" fill-rule="nonzero"/></svg>