<svg xmlns="http://www.w3.org/2000/svg" xmlns:xlink="http://www.w3.org/1999/xlink" width="1024" zoomAndPan="magnify" viewBox="0 0 768 775.92" height="1024" preserveAspectRatio="xMidYMid meet" version="1.0"><defs><clipPath id="bd4087b110"><path d="M 76.832031 116.722656 L 607 116.722656 L 607 651 L 76.832031 651 Z M 76.832031 116.722656 " clip-rule="nonzero"/></clipPath><clipPath id="3112275639"><path d="M 369 399 L 688 399 L 688 651.417969 L 369 651.417969 Z M 369 399 " clip-rule="nonzero"/></clipPath></defs><g clip-path="url(#bd4087b110)"><path fill="#000000" d="M 91.53125 116.773438 L 91.53125 624.101562 L 76.832031 624.101562 L 76.832031 650.765625 L 132.871094 650.765625 L 132.871094 624.101562 L 118.171875 624.101562 L 118.171875 562.554688 L 550.3125 562.554688 C 558.277344 562.554688 564.757812 569.039062 564.757812 577.007812 L 564.757812 624.101562 L 550.0625 624.101562 L 550.0625 650.765625 L 606.101562 650.765625 L 606.101562 624.101562 L 591.40625 624.101562 L 591.40625 577.007812 C 591.40625 554.335938 572.972656 535.890625 550.316406 535.890625 L 118.175781 535.890625 L 118.175781 258.0625 L 161.273438 258.0625 L 171.960938 244.398438 L 163.566406 237.824219 L 156.078125 247.398438 L 128.664062 247.398438 L 128.664062 203.21875 L 118.171875 203.21875 L 118.171875 116.773438 Z M 91.53125 116.773438 " fill-opacity="1" fill-rule="nonzero"/></g><path fill="#000000" d="M 256.753906 424.554688 C 253.566406 391.570312 224.269531 367.421875 191.3125 370.605469 C 158.355469 373.792969 134.214844 403.105469 137.398438 436.089844 C 139.144531 454.132812 148.714844 469.527344 162.417969 479.253906 L 231.75 479.253906 C 248.679688 467.21875 258.890625 446.71875 256.753906 424.554688 Z M 256.753906 424.554688 " fill-opacity="1" fill-rule="nonzero"/><path fill="#000000" d="M 288.226562 448.714844 C 285.386719 441.949219 285.347656 434.484375 288.121094 427.695312 C 290.839844 421.035156 295.949219 415.820312 302.519531 412.941406 C 295.136719 409.757812 288.214844 405.707031 281.882812 400.914062 C 274.308594 406.628906 269.207031 415.511719 268.65625 425.730469 C 268.65625 425.800781 268.660156 425.863281 268.65625 425.925781 C 268.597656 426.246094 268.527344 426.5625 268.476562 426.886719 C 265.957031 443.800781 273.550781 465.167969 293.359375 479.25 L 301.042969 479.25 Z M 288.226562 448.714844 " fill-opacity="1" fill-rule="nonzero"/><g clip-path="url(#3112275639)"><path fill="#000000" d="M 369.246094 417.160156 L 369.246094 479.367188 C 373.609375 479.957031 377.109375 482.796875 379.527344 487.421875 C 382.257812 482.191406 386.378906 479.246094 391.558594 479.246094 L 496.265625 479.246094 C 499.230469 476.886719 501.65625 474.382812 503.640625 471.761719 L 584.089844 476.097656 L 621.847656 626.066406 C 625.652344 641.183594 639.222656 651.261719 654.121094 651.257812 C 656.816406 651.257812 659.550781 650.929688 662.285156 650.242188 C 680.121094 645.742188 690.9375 627.628906 686.441406 609.78125 L 642.6875 435.992188 C 639.121094 421.828125 626.757812 411.636719 612.179688 410.855469 L 403.371094 399.609375 C 393.367188 407.523438 381.816406 413.546875 369.246094 417.160156 Z M 369.246094 417.160156 " fill-opacity="1" fill-rule="nonzero"/></g><path fill="#000000" d="M 391.558594 524.972656 L 538.980469 524.972656 C 549.347656 524.972656 557.828125 516.484375 557.828125 506.109375 C 557.828125 495.734375 549.347656 487.25 538.980469 487.25 L 391.558594 487.25 C 381.195312 487.253906 381.195312 524.972656 391.558594 524.972656 Z M 391.558594 524.972656 " fill-opacity="1" fill-rule="nonzero"/><path fill="#000000" d="M 369.246094 505.023438 C 369.273438 506.976562 369.097656 508.933594 368.703125 510.863281 C 368.636719 511.183594 368.546875 511.488281 368.46875 511.804688 C 368.339844 512.347656 368.21875 512.890625 368.050781 513.425781 C 367.910156 513.886719 367.738281 514.332031 367.574219 514.785156 C 367.445312 515.132812 367.347656 515.484375 367.203125 515.828125 C 367.183594 515.875 367.160156 515.921875 367.136719 515.972656 C 366.984375 516.339844 366.800781 516.691406 366.632812 517.054688 C 366.40625 517.535156 366.191406 518.019531 365.941406 518.488281 C 365.894531 518.578125 365.835938 518.664062 365.785156 518.753906 C 364.511719 521.0625 362.9375 523.152344 361.09375 524.976562 L 367.488281 524.976562 C 377.234375 524.976562 377.816406 491.652344 369.242188 487.65625 L 369.242188 505.023438 Z M 369.246094 505.023438 " fill-opacity="1" fill-rule="nonzero"/><path fill="#000000" d="M 151.746094 487.253906 C 141.378906 487.253906 132.898438 495.738281 132.898438 506.113281 C 132.898438 516.488281 141.378906 524.976562 151.746094 524.976562 L 322.515625 524.976562 C 320 522.480469 317.929688 519.484375 316.496094 516.074219 L 304.402344 487.253906 Z M 151.746094 487.253906 " fill-opacity="1" fill-rule="nonzero"/><path fill="#000000" d="M 322.121094 513.636719 C 322.507812 514.5625 322.976562 515.449219 323.480469 516.304688 C 323.589844 516.492188 323.703125 516.675781 323.816406 516.855469 C 324.308594 517.628906 324.835938 518.375 325.417969 519.078125 C 325.535156 519.21875 325.664062 519.347656 325.785156 519.484375 C 326.28125 520.046875 326.804688 520.582031 327.355469 521.09375 C 327.546875 521.269531 327.734375 521.449219 327.929688 521.617188 C 328.601562 522.191406 329.304688 522.734375 330.042969 523.226562 C 330.167969 523.304688 330.292969 523.375 330.417969 523.453125 C 333.714844 525.542969 337.609375 526.769531 341.800781 526.769531 C 353.574219 526.769531 363.117188 517.21875 363.117188 505.4375 L 363.117188 418.71875 C 356.246094 420.222656 349.117188 421.042969 341.800781 421.042969 C 334.484375 421.042969 327.355469 420.226562 320.484375 418.71875 L 320.484375 469.75 L 314.355469 456.769531 L 314.355469 417.160156 C 313.898438 417.03125 313.441406 416.90625 312.988281 416.769531 C 310.410156 416.835938 307.796875 417.351562 305.273438 418.410156 C 294.417969 422.972656 289.316406 435.476562 293.875 446.335938 Z M 322.121094 513.636719 " fill-opacity="1" fill-rule="nonzero"/><path fill="#000000" d="M 341.804688 413.042969 C 392.363281 413.042969 433.351562 372.027344 433.351562 321.433594 C 433.351562 270.839844 392.363281 229.824219 341.804688 229.824219 C 291.242188 229.824219 250.253906 270.839844 250.253906 321.433594 C 250.253906 372.027344 291.238281 413.042969 341.804688 413.042969 Z M 341.804688 278.324219 C 365.597656 278.324219 384.882812 297.628906 384.882812 321.433594 C 384.882812 345.242188 365.59375 364.542969 341.804688 364.542969 C 318.011719 364.542969 298.722656 345.242188 298.722656 321.433594 C 298.722656 297.628906 318.007812 278.324219 341.804688 278.324219 Z M 341.804688 278.324219 " fill-opacity="1" fill-rule="nonzero"/><path fill="#000000" d="M 350.175781 301.199219 C 350.839844 301.472656 351.488281 301.78125 352.117188 302.117188 C 352.75 302.457031 353.363281 302.824219 353.960938 303.222656 C 354.554688 303.621094 355.128906 304.046875 355.683594 304.503906 C 356.238281 304.957031 356.769531 305.4375 357.277344 305.945312 C 357.78125 306.453125 358.261719 306.984375 358.71875 307.539062 C 359.171875 308.09375 359.597656 308.667969 359.996094 309.261719 C 360.394531 309.859375 360.761719 310.472656 361.101562 311.105469 C 361.4375 311.738281 361.746094 312.386719 362.019531 313.046875 C 362.292969 313.710938 362.535156 314.386719 362.742188 315.070312 C 362.949219 315.757812 363.125 316.453125 363.261719 317.15625 C 363.402344 317.859375 363.507812 318.566406 363.578125 319.28125 C 363.648438 319.992188 363.683594 320.710938 363.683594 321.425781 C 363.683594 322.144531 363.648438 322.859375 363.578125 323.570312 C 363.507812 324.285156 363.402344 324.996094 363.261719 325.699219 C 363.125 326.402344 362.949219 327.09375 362.742188 327.78125 C 362.535156 328.46875 362.292969 329.140625 362.019531 329.804688 C 361.746094 330.46875 361.4375 331.113281 361.101562 331.746094 C 360.761719 332.378906 360.394531 332.992188 359.996094 333.589844 C 359.597656 334.1875 359.171875 334.761719 358.71875 335.316406 C 358.261719 335.871094 357.78125 336.398438 357.277344 336.90625 C 356.769531 337.414062 356.238281 337.894531 355.683594 338.351562 C 355.128906 338.804688 354.554688 339.230469 353.960938 339.628906 C 353.363281 340.027344 352.75 340.394531 352.117188 340.734375 C 351.488281 341.074219 350.839844 341.378906 350.175781 341.652344 C 349.515625 341.925781 348.839844 342.167969 348.15625 342.375 C 347.46875 342.585938 346.777344 342.757812 346.074219 342.898438 C 345.371094 343.039062 344.664062 343.144531 343.949219 343.214844 C 343.234375 343.285156 342.519531 343.320312 341.804688 343.320312 C 341.089844 343.320312 340.375 343.285156 339.660156 343.214844 C 338.949219 343.144531 338.238281 343.039062 337.535156 342.898438 C 336.832031 342.757812 336.140625 342.585938 335.453125 342.375 C 334.769531 342.167969 334.09375 341.925781 333.433594 341.652344 C 332.769531 341.378906 332.125 341.070312 331.492188 340.734375 C 330.859375 340.394531 330.246094 340.027344 329.648438 339.628906 C 329.054688 339.230469 328.480469 338.804688 327.925781 338.351562 C 327.371094 337.894531 326.839844 337.414062 326.335938 336.90625 C 325.828125 336.398438 325.347656 335.871094 324.890625 335.316406 C 324.4375 334.761719 324.011719 334.1875 323.613281 333.589844 C 323.214844 332.992188 322.847656 332.378906 322.507812 331.746094 C 322.171875 331.113281 321.867188 330.46875 321.589844 329.804688 C 321.316406 329.140625 321.074219 328.46875 320.867188 327.78125 C 320.660156 327.09375 320.484375 326.402344 320.347656 325.699219 C 320.207031 324.996094 320.101562 324.285156 320.03125 323.570312 C 319.960938 322.859375 319.925781 322.144531 319.925781 321.425781 C 319.925781 320.710938 319.960938 319.992188 320.03125 319.28125 C 320.101562 318.566406 320.207031 317.859375 320.347656 317.15625 C 320.484375 316.453125 320.660156 315.757812 320.867188 315.070312 C 321.074219 314.386719 321.316406 313.710938 321.589844 313.046875 C 321.867188 312.386719 322.171875 311.738281 322.507812 311.105469 C 322.847656 310.472656 323.214844 309.859375 323.613281 309.261719 C 324.011719 308.667969 324.4375 308.09375 324.890625 307.539062 C 325.347656 306.984375 325.828125 306.453125 326.335938 305.945312 C 326.839844 305.4375 327.371094 304.957031 327.925781 304.503906 C 328.480469 304.046875 329.054688 303.621094 329.648438 303.222656 C 330.246094 302.824219 330.859375 302.457031 331.492188 302.117188 C 332.125 301.78125 332.769531 301.472656 333.433594 301.199219 C 334.09375 300.925781 334.769531 300.683594 335.453125 300.476562 C 336.140625 300.269531 336.832031 300.09375 337.535156 299.953125 C 338.238281 299.8125 338.949219 299.710938 339.660156 299.640625 C 340.375 299.570312 341.089844 299.535156 341.804688 299.535156 C 342.519531 299.535156 343.234375 299.570312 343.949219 299.640625 C 344.664062 299.710938 345.371094 299.8125 346.074219 299.953125 C 346.777344 300.09375 347.46875 300.269531 348.15625 300.476562 C 348.839844 300.683594 349.515625 300.925781 350.175781 301.199219 Z M 350.175781 301.199219 " fill-opacity="1" fill-rule="nonzero"/></svg>