<svg xmlns="http://www.w3.org/2000/svg" xmlns:xlink="http://www.w3.org/1999/xlink" width="1024" zoomAndPan="magnify" viewBox="0 0 768 775.92" height="1024" preserveAspectRatio="xMidYMid meet" version="1.0"><defs><clipPath id="3378a51f54"><path d="M 146 76.792969 L 295 76.792969 L 295 690.980469 L 146 690.980469 Z M 146 76.792969 " clip-rule="nonzero"/></clipPath><clipPath id="af98cca431"><path d="M 473 76.792969 L 622 76.792969 L 622 690.980469 L 473 690.980469 Z M 473 76.792969 " clip-rule="nonzero"/></clipPath></defs><path fill="#000000" d="M 415.238281 265.550781 C 415.238281 248.316406 401.265625 234.347656 384.023438 234.347656 C 366.785156 234.347656 352.808594 248.316406 352.808594 265.550781 C 352.808594 275.011719 357.023438 283.480469 363.675781 289.203125 L 404.371094 289.203125 C 411.019531 283.480469 415.238281 275.011719 415.238281 265.550781 Z M 415.238281 265.550781 " fill-opacity="1" fill-rule="nonzero"/><path fill="#000000" d="M 322.542969 188.429688 L 445.5 188.429688 L 445.738281 182.378906 C 445.769531 181.570312 445.882812 180.789062 446.039062 180.023438 L 322.003906 180.023438 C 322.160156 180.789062 322.273438 181.570312 322.304688 182.375 Z M 322.542969 188.429688 " fill-opacity="1" fill-rule="nonzero"/><g clip-path="url(#3378a51f54)"><path fill="#000000" d="M 294.054688 180.023438 L 226.253906 180.023438 L 226.253906 130.363281 C 226.253906 123.707031 222.65625 117.863281 217.320312 114.632812 L 217.320312 76.792969 L 198.390625 76.792969 L 198.390625 114.632812 C 193.054688 117.863281 189.457031 123.707031 189.457031 130.363281 L 189.457031 180.023438 L 146.394531 180.023438 L 146.394531 188.429688 L 189.457031 188.429688 L 189.457031 238.09375 C 189.457031 244.75 193.054688 250.59375 198.390625 253.824219 L 198.390625 676.914062 L 157.570312 676.914062 L 157.570312 690.945312 L 258.140625 690.945312 L 258.140625 676.914062 L 217.320312 676.914062 L 217.320312 253.824219 C 222.65625 250.59375 226.253906 244.75 226.253906 238.09375 L 226.253906 188.429688 L 293.945312 188.429688 L 293.75 183.507812 C 293.703125 182.308594 293.820312 181.148438 294.054688 180.023438 Z M 200.230469 134 C 200.230469 129.789062 203.644531 126.378906 207.855469 126.378906 C 212.066406 126.378906 215.480469 129.789062 215.480469 134 C 215.480469 138.207031 212.066406 141.621094 207.855469 141.621094 C 203.644531 141.621094 200.230469 138.207031 200.230469 134 Z M 215.480469 234.457031 C 215.480469 238.664062 212.066406 242.078125 207.855469 242.078125 C 203.644531 242.078125 200.230469 238.664062 200.230469 234.457031 C 200.230469 230.25 203.644531 226.835938 207.855469 226.835938 C 212.066406 226.835938 215.480469 230.25 215.480469 234.457031 Z M 215.480469 234.457031 " fill-opacity="1" fill-rule="nonzero"/></g><g clip-path="url(#af98cca431)"><path fill="#000000" d="M 569.65625 253.824219 C 574.992188 250.59375 578.589844 244.75 578.589844 238.09375 L 578.589844 188.429688 L 621.652344 188.429688 L 621.652344 180.023438 L 578.589844 180.023438 L 578.589844 130.363281 C 578.589844 123.707031 574.992188 117.863281 569.65625 114.632812 L 569.65625 76.792969 L 550.726562 76.792969 L 550.726562 114.632812 C 545.390625 117.863281 541.792969 123.707031 541.792969 130.363281 L 541.792969 180.023438 L 473.988281 180.023438 C 474.226562 181.148438 474.34375 182.308594 474.296875 183.507812 L 474.101562 188.433594 L 541.792969 188.433594 L 541.792969 238.09375 C 541.792969 244.75 545.390625 250.597656 550.726562 253.824219 L 550.726562 676.917969 L 509.90625 676.917969 L 509.90625 690.945312 L 610.476562 690.945312 L 610.476562 676.917969 L 569.65625 676.917969 Z M 560.191406 226.835938 C 564.402344 226.835938 567.8125 230.25 567.8125 234.457031 C 567.8125 238.664062 564.402344 242.078125 560.191406 242.078125 C 555.980469 242.078125 552.566406 238.664062 552.566406 234.457031 C 552.566406 230.25 555.980469 226.835938 560.191406 226.835938 Z M 552.566406 134 C 552.566406 129.789062 555.980469 126.378906 560.191406 126.378906 C 564.402344 126.378906 567.816406 129.789062 567.816406 134 C 567.816406 138.207031 564.402344 141.621094 560.191406 141.621094 C 555.980469 141.617188 552.566406 138.207031 552.566406 134 Z M 552.566406 134 " fill-opacity="1" fill-rule="nonzero"/></g><path fill="#000000" d="M 210.921875 134 C 210.921875 132.304688 209.550781 130.933594 207.855469 130.933594 C 206.160156 130.933594 204.789062 132.304688 204.789062 134 C 204.789062 135.691406 206.164062 137.066406 207.855469 137.066406 C 209.550781 137.0625 210.921875 135.691406 210.921875 134 Z M 210.921875 134 " fill-opacity="1" fill-rule="nonzero"/><path fill="#000000" d="M 204.789062 234.457031 C 204.789062 236.152344 206.164062 237.523438 207.855469 237.523438 C 209.550781 237.523438 210.921875 236.152344 210.921875 234.457031 C 210.921875 232.765625 209.550781 231.390625 207.855469 231.390625 C 206.160156 231.390625 204.789062 232.765625 204.789062 234.457031 Z M 204.789062 234.457031 " fill-opacity="1" fill-rule="nonzero"/><path fill="#000000" d="M 563.257812 134 C 563.257812 132.304688 561.882812 130.933594 560.191406 130.933594 C 558.496094 130.933594 557.125 132.304688 557.125 134 C 557.125 135.691406 558.496094 137.066406 560.191406 137.066406 C 561.882812 137.0625 563.257812 135.691406 563.257812 134 Z M 563.257812 134 " fill-opacity="1" fill-rule="nonzero"/><path fill="#000000" d="M 560.191406 237.523438 C 561.882812 237.523438 563.257812 236.148438 563.257812 234.457031 C 563.257812 232.761719 561.882812 231.390625 560.191406 231.390625 C 558.496094 231.390625 557.125 232.761719 557.125 234.457031 C 557.125 236.148438 558.496094 237.523438 560.191406 237.523438 Z M 560.191406 237.523438 " fill-opacity="1" fill-rule="nonzero"/><path fill="#000000" d="M 421.542969 397.953125 L 421.542969 312.898438 C 421.644531 312.785156 421.757812 312.679688 421.855469 312.558594 L 465.898438 258.621094 C 467.421875 256.757812 468.296875 254.449219 468.394531 252.046875 L 471.109375 183.378906 C 471.351562 177.257812 466.578125 172.097656 460.457031 171.855469 C 454.347656 171.617188 449.171875 176.378906 448.925781 182.503906 L 446.359375 247.464844 L 409.671875 292.390625 L 358.371094 292.390625 L 321.683594 247.464844 L 319.117188 182.503906 C 318.878906 176.53125 313.960938 171.847656 308.035156 171.847656 C 307.890625 171.847656 307.738281 171.851562 307.589844 171.855469 C 301.464844 172.097656 296.695312 177.257812 296.9375 183.382812 L 299.652344 252.046875 C 299.75 254.453125 300.621094 256.757812 302.144531 258.625 L 346.1875 312.558594 C 346.289062 312.679688 346.398438 312.785156 346.5 312.902344 L 346.5 397.953125 C 346.5 398.503906 346.554688 399.042969 346.636719 399.574219 L 346.628906 406.945312 L 346.617188 416.332031 L 346.539062 478.78125 C 346.535156 480.726562 346.867188 482.660156 347.519531 484.496094 L 375.382812 562.792969 C 377.859375 569.75 384.410156 574.09375 391.394531 574.09375 C 393.285156 574.09375 395.207031 573.777344 397.089844 573.105469 C 405.933594 569.960938 410.550781 560.246094 407.410156 551.40625 L 380.53125 475.878906 L 380.605469 415.152344 L 380.613281 411.863281 L 380.617188 408.671875 L 387.457031 408.671875 L 387.460938 411.863281 L 387.542969 475.882812 L 385.730469 480.96875 L 403.769531 531.660156 L 420.550781 484.492188 C 421.203125 482.660156 421.535156 480.726562 421.535156 478.777344 L 421.441406 406.917969 L 421.433594 399.414062 C 421.496094 398.933594 421.542969 398.449219 421.542969 397.953125 Z M 421.542969 397.953125 " fill-opacity="1" fill-rule="nonzero"/><path fill="#000000" d="M 372.375 563.863281 L 364.304688 541.175781 L 360.660156 551.40625 C 357.515625 560.246094 362.136719 569.960938 370.980469 573.105469 C 372.863281 573.777344 374.78125 574.09375 376.675781 574.09375 C 377.804688 574.09375 378.921875 573.96875 380.015625 573.746094 C 376.566406 571.386719 373.839844 567.976562 372.375 563.863281 Z M 372.375 563.863281 " fill-opacity="1" fill-rule="nonzero"/></svg>