<svg xmlns="http://www.w3.org/2000/svg" xmlns:xlink="http://www.w3.org/1999/xlink" width="1024" zoomAndPan="magnify" viewBox="0 0 768 775.92" height="1024" preserveAspectRatio="xMidYMid meet" version="1.0"><defs><clipPath id="eb2542543f"><path d="M 114 171 L 285 171 L 285 690.980469 L 114 690.980469 Z M 114 171 " clip-rule="nonzero"/></clipPath></defs><path fill="#000000" d="M 399.714844 352.855469 C 399.015625 353.617188 398.261719 354.3125 397.46875 354.941406 L 399.105469 363.980469 C 400.15625 369.789062 405.765625 373.679688 411.570312 372.628906 L 434.472656 368.492188 C 440.28125 367.441406 444.171875 361.832031 443.121094 356.023438 L 428.847656 277.113281 C 427.796875 271.308594 422.191406 267.414062 416.382812 268.464844 L 393.480469 272.601562 C 393.292969 272.636719 393.125 272.71875 392.941406 272.757812 L 404.46875 336.496094 C 405.527344 342.34375 403.746094 348.453125 399.714844 352.855469 Z M 399.714844 352.855469 " fill-opacity="1" fill-rule="nonzero"/><path fill="#000000" d="M 325.785156 329.632812 C 320.925781 341.164062 310.480469 350.058594 297.253906 352.261719 C 295.171875 352.605469 293.078125 352.777344 291.019531 352.777344 L 291.011719 352.777344 C 280.238281 352.777344 270.460938 348.253906 263.550781 340.886719 L 262.417969 341.089844 L 284.289062 395.53125 C 289.519531 394.042969 292.921875 388.8125 291.933594 383.355469 L 286.742188 354.652344 L 343.328125 344.425781 L 340.183594 327.035156 Z M 325.785156 329.632812 " fill-opacity="1" fill-rule="nonzero"/><path fill="#000000" d="M 381.867188 138.765625 C 391.652344 141.152344 399.921875 147.210938 405.148438 155.820312 C 410.375 164.429688 411.941406 174.554688 409.550781 184.335938 C 405.410156 201.269531 390.355469 213.09375 372.933594 213.09375 C 369.925781 213.09375 366.90625 212.730469 363.972656 212.011719 L 309.902344 198.808594 L 325.175781 290.421875 L 333.300781 288.953125 L 329.609375 268.535156 C 328.550781 262.6875 330.332031 256.570312 334.363281 252.175781 C 337.210938 249.066406 340.90625 247.03125 345.042969 246.28125 L 367.941406 242.148438 C 372.964844 241.238281 378.050781 242.34375 382.261719 245.269531 C 386.203125 248.003906 388.859375 252.039062 389.933594 256.664062 C 390.242188 256.503906 390.539062 256.359375 390.84375 256.195312 C 440.898438 229.585938 450.554688 182.1875 437.953125 152.550781 C 432.703125 140.195312 421.738281 131.878906 408.292969 127.480469 C 406.875 126.882812 405.414062 126.359375 403.871094 125.984375 L 294.261719 99.21875 C 284.699219 96.890625 274.605469 99.507812 267.390625 106.203125 C 265.84375 107.632812 264.515625 109.238281 263.335938 110.925781 C 266.332031 110.925781 269.332031 111.289062 272.246094 112 Z M 381.867188 138.765625 " fill-opacity="1" fill-rule="nonzero"/><path fill="#000000" d="M 621.757812 151.316406 C 622.328125 152.539062 622.863281 153.773438 623.375 155.023438 C 623.882812 156.269531 624.359375 157.53125 624.804688 158.800781 C 625.253906 160.074219 625.667969 161.355469 626.050781 162.648438 C 626.433594 163.941406 626.785156 165.242188 627.105469 166.550781 C 627.425781 167.859375 627.710938 169.175781 627.96875 170.5 C 628.222656 171.824219 628.445312 173.152344 628.636719 174.484375 C 628.824219 175.820312 628.980469 177.160156 629.105469 178.5 C 629.230469 179.84375 629.320312 181.1875 629.378906 182.535156 C 629.4375 183.878906 629.460938 185.226562 629.453125 186.574219 C 629.445312 187.921875 629.40625 189.269531 629.332031 190.617188 C 629.257812 191.960938 629.148438 193.304688 629.007812 194.644531 C 628.867188 195.984375 628.695312 197.320312 628.488281 198.652344 C 628.285156 199.984375 628.046875 201.3125 627.773438 202.632812 C 627.503906 203.953125 627.199219 205.265625 626.863281 206.570312 C 626.53125 207.875 626.164062 209.171875 625.761719 210.460938 C 625.363281 211.746094 624.933594 213.023438 624.472656 214.289062 C 624.011719 215.554688 623.519531 216.8125 622.996094 218.050781 C 622.472656 219.292969 621.917969 220.523438 621.332031 221.738281 C 620.75 222.953125 620.136719 224.152344 619.496094 225.335938 C 618.851562 226.523438 618.179688 227.691406 617.480469 228.84375 C 616.78125 229.996094 616.050781 231.128906 615.296875 232.246094 C 614.542969 233.359375 613.757812 234.457031 612.949219 235.535156 C 612.140625 236.613281 611.304688 237.671875 610.441406 238.707031 C 609.582031 239.742188 608.695312 240.757812 607.785156 241.753906 C 606.871094 242.746094 605.9375 243.714844 604.976562 244.664062 C 604.019531 245.609375 603.039062 246.535156 602.035156 247.433594 C 601.027344 248.332031 600.003906 249.207031 598.957031 250.054688 C 597.910156 250.902344 596.839844 251.726562 595.753906 252.523438 C 594.667969 253.316406 593.558594 254.085938 592.433594 254.828125 C 591.308594 255.570312 590.167969 256.285156 589.007812 256.972656 C 587.84375 257.65625 586.667969 258.316406 585.476562 258.941406 C 584.285156 259.570312 583.078125 260.167969 581.855469 260.738281 C 580.632812 261.308594 579.398438 261.847656 578.148438 262.355469 C 576.898438 262.863281 575.640625 263.339844 574.367188 263.785156 C 573.097656 264.234375 571.8125 264.648438 570.519531 265.03125 C 569.230469 265.414062 567.929688 265.765625 566.617188 266.085938 C 565.308594 266.40625 563.992188 266.691406 562.667969 266.949219 C 561.34375 267.203125 560.015625 267.425781 558.679688 267.613281 C 557.347656 267.804688 556.007812 267.960938 554.664062 268.085938 C 553.324219 268.210938 551.976562 268.300781 550.632812 268.359375 C 549.285156 268.417969 547.9375 268.441406 546.589844 268.433594 C 545.242188 268.425781 543.894531 268.382812 542.546875 268.308594 C 541.203125 268.234375 539.859375 268.128906 538.519531 267.988281 C 537.175781 267.847656 535.839844 267.675781 534.507812 267.46875 C 533.175781 267.265625 531.851562 267.027344 530.53125 266.753906 C 529.210938 266.484375 527.894531 266.179688 526.589844 265.84375 C 525.285156 265.511719 523.988281 265.144531 522.699219 264.742188 C 521.414062 264.34375 520.136719 263.914062 518.871094 263.453125 C 517.601562 262.992188 516.347656 262.5 515.105469 261.976562 C 513.863281 261.453125 512.636719 260.898438 511.417969 260.316406 C 510.203125 259.730469 509.003906 259.117188 507.820312 258.476562 C 506.632812 257.832031 505.464844 257.164062 504.3125 256.460938 C 503.160156 255.761719 502.027344 255.035156 500.910156 254.28125 C 499.792969 253.523438 498.699219 252.742188 497.621094 251.933594 C 496.542969 251.121094 495.484375 250.289062 494.449219 249.425781 C 493.410156 248.566406 492.394531 247.679688 491.402344 246.765625 C 490.410156 245.855469 489.4375 244.921875 488.492188 243.960938 C 487.542969 243.003906 486.621094 242.023438 485.722656 241.019531 C 484.820312 240.015625 483.949219 238.988281 483.097656 237.941406 C 482.25 236.894531 481.425781 235.828125 480.628906 234.738281 C 479.832031 233.652344 479.0625 232.546875 478.324219 231.421875 C 477.582031 230.296875 476.867188 229.152344 476.179688 227.992188 C 475.492188 226.832031 474.835938 225.65625 474.207031 224.464844 C 473.578125 223.273438 472.980469 222.066406 472.414062 220.84375 C 471.84375 219.621094 471.304688 218.386719 470.796875 217.136719 C 470.289062 215.890625 469.808594 214.628906 469.363281 213.359375 C 468.917969 212.085938 468.503906 210.804688 468.117188 209.511719 C 467.734375 208.21875 467.382812 206.917969 467.0625 205.609375 C 466.746094 204.300781 466.457031 202.984375 466.203125 201.660156 C 465.945312 200.335938 465.722656 199.007812 465.535156 197.671875 C 465.34375 196.339844 465.1875 195 465.0625 193.660156 C 464.941406 192.316406 464.847656 190.972656 464.789062 189.625 C 464.734375 188.28125 464.707031 186.933594 464.714844 185.585938 C 464.722656 184.238281 464.765625 182.890625 464.839844 181.542969 C 464.914062 180.199219 465.019531 178.855469 465.160156 177.515625 C 465.300781 176.175781 465.472656 174.839844 465.679688 173.507812 C 465.886719 172.175781 466.125 170.847656 466.394531 169.527344 C 466.664062 168.207031 466.96875 166.894531 467.304688 165.589844 C 467.640625 164.285156 468.007812 162.988281 468.40625 161.699219 C 468.804688 160.414062 469.234375 159.136719 469.699219 157.871094 C 470.160156 156.601562 470.652344 155.347656 471.175781 154.105469 C 471.699219 152.863281 472.253906 151.636719 472.835938 150.421875 C 473.417969 149.207031 474.03125 148.007812 474.675781 146.820312 C 475.316406 145.636719 475.988281 144.46875 476.6875 143.316406 C 477.390625 142.164062 478.117188 141.03125 478.871094 139.914062 C 479.628906 138.796875 480.410156 137.703125 481.21875 136.625 C 482.03125 135.546875 482.867188 134.488281 483.726562 133.453125 C 484.589844 132.414062 485.472656 131.402344 486.386719 130.40625 C 487.296875 129.414062 488.230469 128.445312 489.191406 127.496094 C 490.148438 126.550781 491.132812 125.625 492.136719 124.726562 C 493.140625 123.828125 494.167969 122.953125 495.214844 122.105469 C 496.261719 121.257812 497.328125 120.433594 498.414062 119.636719 C 499.503906 118.839844 500.609375 118.070312 501.734375 117.332031 C 502.859375 116.589844 504.003906 115.875 505.164062 115.1875 C 506.324219 114.503906 507.5 113.84375 508.691406 113.21875 C 509.886719 112.589844 511.09375 111.988281 512.316406 111.421875 C 513.539062 110.851562 514.773438 110.3125 516.019531 109.804688 C 517.269531 109.296875 518.53125 108.820312 519.800781 108.375 C 521.074219 107.925781 522.355469 107.511719 523.648438 107.128906 C 524.941406 106.746094 526.242188 106.394531 527.550781 106.074219 C 528.859375 105.753906 530.175781 105.46875 531.5 105.210938 C 532.824219 104.957031 534.152344 104.734375 535.488281 104.542969 C 536.824219 104.355469 538.160156 104.199219 539.503906 104.074219 C 540.847656 103.949219 542.191406 103.859375 543.539062 103.800781 C 544.882812 103.742188 546.230469 103.71875 547.578125 103.726562 C 548.929688 103.734375 550.273438 103.777344 551.621094 103.851562 C 552.96875 103.925781 554.308594 104.03125 555.652344 104.171875 C 556.992188 104.3125 558.328125 104.484375 559.660156 104.691406 C 560.992188 104.894531 562.320312 105.132812 563.640625 105.40625 C 564.960938 105.675781 566.273438 105.980469 567.578125 106.316406 C 568.886719 106.648438 570.179688 107.015625 571.46875 107.414062 C 572.757812 107.816406 574.035156 108.246094 575.300781 108.707031 C 576.566406 109.167969 577.820312 109.660156 579.0625 110.183594 C 580.304688 110.707031 581.535156 111.261719 582.75 111.84375 C 583.964844 112.429688 585.164062 113.042969 586.351562 113.683594 C 587.535156 114.328125 588.703125 114.996094 589.855469 115.699219 C 591.007812 116.398438 592.140625 117.125 593.257812 117.878906 C 594.375 118.636719 595.472656 119.417969 596.550781 120.226562 C 597.628906 121.035156 598.683594 121.871094 599.722656 122.734375 C 600.757812 123.59375 601.773438 124.480469 602.765625 125.390625 C 603.761719 126.304688 604.730469 127.238281 605.679688 128.195312 C 606.625 129.15625 607.550781 130.136719 608.449219 131.140625 C 609.347656 132.144531 610.222656 133.171875 611.070312 134.21875 C 611.921875 135.265625 612.742188 136.332031 613.539062 137.417969 C 614.335938 138.507812 615.105469 139.613281 615.847656 140.738281 C 616.589844 141.863281 617.304688 143.007812 617.988281 144.167969 C 618.675781 145.328125 619.332031 146.503906 619.960938 147.695312 C 620.589844 148.886719 621.1875 150.09375 621.757812 151.316406 Z M 621.757812 151.316406 " fill-opacity="1" fill-rule="nonzero"/><g clip-path="url(#eb2542543f)"><path fill="#000000" d="M 143.785156 635 C 138.164062 659.632812 153.574219 684.164062 178.210938 689.789062 C 181.644531 690.574219 185.066406 690.945312 188.441406 690.945312 C 209.3125 690.945312 228.167969 676.570312 233.011719 655.363281 L 282.953125 436.675781 C 285.027344 427.597656 284.28125 418.089844 280.804688 409.445312 L 253.960938 342.613281 L 249.597656 343.398438 L 253.28125 363.824219 C 254.339844 369.664062 252.5625 375.777344 248.53125 380.175781 C 245.679688 383.28125 241.984375 385.320312 237.84375 386.070312 L 214.945312 390.210938 C 204.554688 392.085938 194.574219 385.160156 192.691406 374.777344 L 178.425781 295.859375 C 177.367188 290.015625 179.144531 283.898438 183.179688 279.503906 C 186.03125 276.394531 189.726562 274.359375 193.867188 273.613281 L 216.765625 269.46875 C 227.164062 267.597656 237.140625 274.519531 239.015625 284.910156 L 242.710938 305.324219 L 250.957031 303.835938 L 228.867188 171.320312 C 207.050781 176.628906 184.917969 180.324219 163.5 180.839844 C 112.574219 185.875 111.367188 201.210938 116.214844 234.402344 C 118.035156 246.875 120.910156 260.164062 126.972656 272 L 159.167969 352.15625 L 190.539062 430.261719 Z M 143.785156 635 " fill-opacity="1" fill-rule="nonzero"/></g><path fill="#000000" d="M 328.339844 320.613281 L 346.972656 317.246094 L 352.164062 345.949219 C 353.214844 351.757812 358.828125 355.652344 364.628906 354.601562 L 387.53125 350.460938 C 393.34375 349.410156 397.230469 343.800781 396.179688 337.992188 L 381.910156 259.082031 C 380.859375 253.273438 375.25 249.382812 369.445312 250.433594 L 346.542969 254.574219 C 340.734375 255.625 336.84375 261.230469 337.894531 267.039062 L 343.085938 295.742188 L 326.558594 298.730469 L 328.25 308.875 C 328.917969 312.867188 328.90625 316.8125 328.339844 320.613281 Z M 328.339844 320.613281 " fill-opacity="1" fill-rule="nonzero"/><path fill="#000000" d="M 253.863281 321.265625 L 252.339844 312.140625 L 235.917969 315.109375 L 230.726562 286.40625 C 229.675781 280.597656 224.066406 276.707031 218.257812 277.757812 L 195.359375 281.898438 C 189.550781 282.945312 185.660156 288.554688 186.710938 294.363281 L 200.980469 373.273438 C 202.03125 379.082031 207.644531 382.972656 213.449219 381.921875 L 236.347656 377.785156 C 242.15625 376.734375 246.050781 371.125 245 365.316406 L 239.808594 336.613281 L 258.054688 333.316406 C 256.039062 329.65625 254.585938 325.605469 253.863281 321.265625 Z M 253.863281 321.265625 " fill-opacity="1" fill-rule="nonzero"/><path fill="#000000" d="M 262.167969 319.882812 C 264.554688 334.207031 276.964844 344.359375 291.023438 344.355469 C 292.625 344.355469 294.246094 344.222656 295.875 343.957031 C 311.828125 341.296875 322.605469 326.207031 319.949219 310.257812 L 299.503906 187.605469 L 365.96875 203.839844 C 381.65625 207.675781 397.53125 198.050781 401.371094 182.34375 C 405.210938 166.632812 395.582031 150.785156 379.871094 146.949219 L 270.261719 120.179688 C 260.699219 117.851562 250.601562 120.472656 243.386719 127.164062 C 236.171875 133.859375 232.804688 143.730469 234.421875 153.441406 Z M 262.167969 319.882812 " fill-opacity="1" fill-rule="nonzero"/></svg>