<svg xmlns="http://www.w3.org/2000/svg" xmlns:xlink="http://www.w3.org/1999/xlink" width="1024" zoomAndPan="magnify" viewBox="0 0 768 775.92" height="1024" preserveAspectRatio="xMidYMid meet" version="1.0"><defs><clipPath id="d2137a7938"><path d="M 317 284 L 689 284 L 689 504.871094 L 317 504.871094 Z M 317 284 " clip-rule="nonzero"/></clipPath><clipPath id="c6e430f1c1"><path d="M 227 368 L 610 368 L 610 504.871094 L 227 504.871094 Z M 227 368 " clip-rule="nonzero"/></clipPath></defs><path fill="#000000" d="M 295.910156 361.578125 C 301.425781 358.585938 306.285156 354.609375 310.304688 349.914062 L 245.546875 349.402344 L 237.238281 354.253906 C 240.332031 357.101562 243.769531 359.566406 247.476562 361.578125 Z M 295.910156 361.578125 " fill-opacity="1" fill-rule="nonzero"/><path fill="#000000" d="M 239.34375 302.671875 L 320.785156 303.316406 C 314.40625 279.765625 291.855469 263.550781 266.792969 265.976562 C 242.921875 268.285156 224.515625 286.753906 221.296875 309.53125 L 227.617188 305.84375 C 231.175781 303.769531 235.226562 302.671875 239.34375 302.671875 Z M 239.34375 302.671875 " fill-opacity="1" fill-rule="nonzero"/><g clip-path="url(#d2137a7938)"><path fill="#000000" d="M 650.003906 321.550781 C 646.976562 309.511719 636.480469 300.851562 624.105469 300.183594 L 383.554688 287.21875 C 379.316406 286.484375 374.984375 286.265625 370.71875 286.527344 L 364.558594 286.191406 C 363.167969 285.820312 361.714844 285.589844 360.207031 285.5625 L 317.875 284.800781 C 321.664062 290.324219 324.488281 296.578125 326.128906 303.359375 L 366.40625 303.675781 C 379.25 303.777344 389.617188 314.328125 389.519531 327.199219 C 389.417969 339.96875 378.964844 350.355469 366.222656 350.355469 L 344.296875 350.183594 C 348.109375 354.457031 352.839844 358.34375 358.546875 361.578125 L 520.988281 361.578125 C 525.75 358.664062 529.320312 355.429688 531.953125 351.949219 L 600.253906 355.632812 L 602.339844 363.9375 C 609.886719 367.660156 615.105469 375.425781 615.105469 384.40625 C 615.105469 389.355469 613.507812 393.929688 610.824219 397.671875 L 632.308594 483.085938 C 635.542969 495.933594 647.058594 504.5 659.710938 504.5 C 661.996094 504.5 664.320312 504.21875 666.636719 503.632812 C 681.78125 499.808594 690.964844 484.417969 687.148438 469.246094 Z M 650.003906 321.550781 " fill-opacity="1" fill-rule="nonzero"/></g><g clip-path="url(#c6e430f1c1)"><path fill="#000000" d="M 592.320312 400.433594 C 601.121094 400.433594 608.320312 393.222656 608.320312 384.40625 C 608.320312 375.589844 601.117188 368.378906 592.320312 368.378906 L 245.046875 368.378906 C 236.246094 368.378906 229.046875 375.589844 229.046875 384.40625 C 229.046875 393.222656 236.25 400.433594 245.046875 400.433594 L 252.988281 400.433594 L 251.644531 407.230469 L 236.800781 482.296875 L 227.679688 482.296875 L 227.679688 504.957031 L 270.710938 504.957031 L 270.710938 482.296875 L 259.859375 482.296875 L 273.492188 413.339844 L 563.871094 413.339844 L 577.503906 482.296875 L 566.652344 482.296875 L 566.652344 504.957031 L 609.683594 504.957031 L 609.683594 482.296875 L 600.5625 482.296875 L 585.722656 407.230469 L 584.378906 400.433594 Z M 592.320312 400.433594 " fill-opacity="1" fill-rule="nonzero"/></g><path fill="#000000" d="M 136.859375 410.800781 L 142.167969 420.652344 L 126.304688 429.226562 C 123.09375 430.960938 121.886719 435.011719 123.617188 438.226562 L 130.445312 450.902344 C 132.179688 454.117188 136.222656 455.328125 139.429688 453.59375 L 183.042969 430.015625 C 186.253906 428.277344 187.460938 424.230469 185.730469 421.015625 L 178.902344 408.335938 C 177.167969 405.121094 173.125 403.910156 169.917969 405.648438 L 154.050781 414.226562 L 149.359375 405.519531 L 145.339844 407.863281 C 142.722656 409.394531 139.832031 410.382812 136.859375 410.800781 Z M 136.859375 410.800781 " fill-opacity="1" fill-rule="nonzero"/><path fill="#000000" d="M 121.890625 367.527344 L 215.722656 312.785156 C 215.960938 309.292969 216.515625 305.851562 217.390625 302.496094 L 139.929688 344.691406 C 141.574219 342.667969 141.953125 339.761719 140.644531 337.328125 L 133.8125 324.652344 C 132.082031 321.4375 128.039062 320.226562 124.828125 321.960938 L 81.214844 345.542969 C 78.003906 347.277344 76.796875 351.328125 78.527344 354.542969 L 85.355469 367.21875 C 87.089844 370.433594 91.132812 371.644531 94.339844 369.910156 L 110.203125 361.332031 L 111.039062 362.886719 C 107.519531 368.289062 106.992188 375.40625 110.285156 381.472656 C 110.480469 381.835938 110.71875 382.152344 110.9375 382.496094 C 112.328125 376.417969 116.101562 370.90625 121.890625 367.527344 Z M 121.890625 367.527344 " fill-opacity="1" fill-rule="nonzero"/><path fill="#000000" d="M 244.167969 344.179688 L 366.078125 345.144531 C 366.125 345.144531 366.171875 345.144531 366.222656 345.144531 C 376.148438 345.144531 384.238281 337.117188 384.316406 327.15625 C 384.394531 317.144531 376.355469 308.964844 366.359375 308.886719 L 239.488281 307.886719 C 239.441406 307.886719 239.390625 307.886719 239.34375 307.886719 C 236.148438 307.886719 233.003906 308.734375 230.238281 310.347656 L 124.507812 372.03125 C 115.871094 377.070312 112.949219 388.171875 117.976562 396.820312 C 121.339844 402.601562 127.402344 405.828125 133.632812 405.828125 C 136.722656 405.828125 139.859375 405.03125 142.726562 403.363281 Z M 244.167969 344.179688 " fill-opacity="1" fill-rule="nonzero"/></svg>