<svg xmlns="http://www.w3.org/2000/svg" xmlns:xlink="http://www.w3.org/1999/xlink" width="1024" zoomAndPan="magnify" viewBox="0 0 768 775.92" height="1024" preserveAspectRatio="xMidYMid meet" version="1.0"><defs><clipPath id="8ca1937881"><path d="M 76.832031 502 L 194 502 L 194 629 L 76.832031 629 Z M 76.832031 502 " clip-rule="nonzero"/></clipPath></defs><path fill="#000000" d="M 680.167969 199.027344 C 680.34375 200.082031 680.492188 201.144531 680.617188 202.210938 C 680.742188 203.273438 680.839844 204.34375 680.914062 205.410156 C 680.984375 206.480469 681.03125 207.550781 681.050781 208.625 C 681.070312 209.695312 681.066406 210.769531 681.03125 211.839844 C 681 212.910156 680.941406 213.980469 680.855469 215.050781 C 680.769531 216.121094 680.660156 217.183594 680.519531 218.25 C 680.382812 219.3125 680.21875 220.371094 680.03125 221.425781 C 679.839844 222.480469 679.625 223.53125 679.382812 224.578125 C 679.144531 225.621094 678.875 226.660156 678.585938 227.691406 C 678.292969 228.722656 677.976562 229.746094 677.632812 230.761719 C 677.289062 231.777344 676.925781 232.785156 676.53125 233.78125 C 676.140625 234.78125 675.726562 235.769531 675.285156 236.746094 C 674.84375 237.722656 674.378906 238.691406 673.894531 239.644531 C 673.40625 240.597656 672.894531 241.542969 672.363281 242.472656 C 671.828125 243.402344 671.269531 244.316406 670.691406 245.21875 C 670.113281 246.121094 669.511719 247.007812 668.890625 247.882812 C 668.269531 248.753906 667.625 249.613281 666.960938 250.453125 C 666.296875 251.292969 665.613281 252.117188 664.910156 252.925781 C 664.203125 253.734375 663.480469 254.523438 662.734375 255.296875 C 661.992188 256.066406 661.230469 256.820312 660.449219 257.554688 C 659.667969 258.289062 658.871094 259.003906 658.054688 259.699219 C 657.242188 260.394531 656.410156 261.070312 655.558594 261.726562 C 654.710938 262.378906 653.847656 263.011719 652.96875 263.625 C 652.089844 264.238281 651.195312 264.828125 650.285156 265.394531 C 649.375 265.960938 648.453125 266.507812 647.519531 267.03125 C 646.585938 267.554688 645.636719 268.054688 644.675781 268.53125 C 643.71875 269.003906 642.746094 269.457031 641.765625 269.886719 C 640.78125 270.316406 639.789062 270.71875 638.789062 271.097656 C 637.785156 271.480469 636.777344 271.832031 635.757812 272.164062 C 634.738281 272.492188 633.710938 272.800781 632.675781 273.078125 C 631.640625 273.359375 630.601562 273.613281 629.554688 273.839844 C 628.507812 274.070312 627.457031 274.273438 626.398438 274.449219 C 625.34375 274.625 624.28125 274.777344 623.21875 274.902344 C 622.152344 275.027344 621.085938 275.125 620.019531 275.195312 C 618.949219 275.269531 617.878906 275.316406 616.808594 275.335938 C 615.738281 275.355469 614.667969 275.347656 613.59375 275.316406 C 612.523438 275.28125 611.457031 275.222656 610.386719 275.136719 C 609.320312 275.054688 608.253906 274.941406 607.191406 274.804688 C 606.128906 274.667969 605.070312 274.503906 604.015625 274.3125 C 602.960938 274.121094 601.914062 273.90625 600.867188 273.667969 C 599.824219 273.425781 598.789062 273.15625 597.757812 272.867188 C 596.726562 272.574219 595.703125 272.257812 594.6875 271.914062 C 593.671875 271.570312 592.667969 271.203125 591.667969 270.8125 C 590.671875 270.421875 589.683594 270.003906 588.707031 269.5625 C 587.730469 269.121094 586.765625 268.660156 585.8125 268.171875 C 584.859375 267.683594 583.917969 267.171875 582.988281 266.636719 C 582.058594 266.105469 581.144531 265.546875 580.242188 264.96875 C 579.339844 264.390625 578.453125 263.789062 577.582031 263.164062 C 576.710938 262.542969 575.851562 261.898438 575.011719 261.234375 C 574.171875 260.570312 573.347656 259.882812 572.539062 259.179688 C 571.734375 258.472656 570.945312 257.75 570.171875 257.003906 C 569.402344 256.261719 568.648438 255.5 567.914062 254.71875 C 567.179688 253.9375 566.46875 253.136719 565.773438 252.320312 C 565.078125 251.507812 564.402344 250.671875 563.75 249.824219 C 563.09375 248.976562 562.460938 248.109375 561.851562 247.230469 C 561.238281 246.347656 560.648438 245.453125 560.082031 244.546875 C 559.515625 243.636719 558.96875 242.714844 558.445312 241.777344 C 557.925781 240.839844 557.425781 239.894531 556.949219 238.933594 C 556.472656 237.972656 556.023438 237 555.59375 236.015625 C 555.164062 235.035156 554.761719 234.042969 554.382812 233.039062 C 554.003906 232.035156 553.648438 231.023438 553.316406 230.003906 C 552.988281 228.984375 552.683594 227.957031 552.402344 226.921875 C 552.125 225.886719 551.871094 224.84375 551.640625 223.796875 C 551.414062 222.75 551.210938 221.699219 551.035156 220.640625 C 550.859375 219.582031 550.707031 218.523438 550.582031 217.457031 C 550.457031 216.390625 550.359375 215.324219 550.285156 214.253906 C 550.214844 213.183594 550.167969 212.113281 550.148438 211.042969 C 550.128906 209.96875 550.136719 208.898438 550.167969 207.828125 C 550.199219 206.753906 550.261719 205.683594 550.34375 204.617188 C 550.429688 203.546875 550.542969 202.480469 550.679688 201.417969 C 550.816406 200.355469 550.980469 199.296875 551.171875 198.242188 C 551.359375 197.183594 551.574219 196.136719 551.816406 195.089844 C 552.058594 194.046875 552.324219 193.007812 552.617188 191.976562 C 552.910156 190.945312 553.226562 189.921875 553.566406 188.90625 C 553.910156 187.890625 554.277344 186.882812 554.667969 185.882812 C 555.058594 184.886719 555.476562 183.898438 555.917969 182.921875 C 556.355469 181.941406 556.820312 180.976562 557.308594 180.023438 C 557.796875 179.066406 558.304688 178.125 558.839844 177.195312 C 559.375 176.265625 559.929688 175.351562 560.507812 174.449219 C 561.085938 173.546875 561.6875 172.65625 562.308594 171.785156 C 562.933594 170.914062 563.574219 170.054688 564.238281 169.214844 C 564.902344 168.371094 565.589844 167.546875 566.292969 166.742188 C 566.996094 165.933594 567.722656 165.144531 568.464844 164.371094 C 569.207031 163.597656 569.96875 162.847656 570.75 162.113281 C 571.53125 161.378906 572.328125 160.664062 573.144531 159.96875 C 573.960938 159.269531 574.792969 158.597656 575.640625 157.941406 C 576.488281 157.289062 577.351562 156.65625 578.234375 156.042969 C 579.113281 155.429688 580.007812 154.839844 580.914062 154.273438 C 581.824219 153.703125 582.746094 153.160156 583.679688 152.636719 C 584.617188 152.113281 585.5625 151.613281 586.523438 151.136719 C 587.484375 150.660156 588.453125 150.207031 589.4375 149.78125 C 590.417969 149.351562 591.410156 148.949219 592.414062 148.566406 C 593.414062 148.1875 594.425781 147.832031 595.445312 147.503906 C 596.464844 147.171875 597.492188 146.867188 598.523438 146.589844 C 599.558594 146.308594 600.601562 146.054688 601.648438 145.824219 C 602.691406 145.597656 603.746094 145.394531 604.800781 145.21875 C 605.859375 145.042969 606.917969 144.890625 607.984375 144.765625 C 609.046875 144.640625 610.113281 144.542969 611.183594 144.46875 C 612.25 144.398438 613.320312 144.351562 614.390625 144.332031 C 615.464844 144.3125 616.535156 144.316406 617.605469 144.351562 C 618.675781 144.382812 619.746094 144.441406 620.8125 144.527344 C 621.882812 144.613281 622.945312 144.726562 624.007812 144.863281 C 625.070312 145 626.128906 145.164062 627.183594 145.355469 C 628.238281 145.542969 629.289062 145.757812 630.332031 146 C 631.375 146.242188 632.414062 146.507812 633.445312 146.800781 C 634.476562 147.09375 635.496094 147.410156 636.511719 147.753906 C 637.527344 148.097656 638.535156 148.464844 639.53125 148.855469 C 640.527344 149.246094 641.515625 149.664062 642.492188 150.101562 C 643.46875 150.542969 644.433594 151.007812 645.386719 151.496094 C 646.34375 151.984375 647.285156 152.496094 648.214844 153.027344 C 649.140625 153.5625 650.058594 154.121094 650.957031 154.699219 C 651.859375 155.277344 652.746094 155.878906 653.621094 156.5 C 654.492188 157.125 655.347656 157.769531 656.1875 158.433594 C 657.027344 159.097656 657.851562 159.78125 658.660156 160.488281 C 659.46875 161.191406 660.257812 161.917969 661.027344 162.660156 C 661.800781 163.40625 662.550781 164.167969 663.285156 164.949219 C 664.019531 165.730469 664.734375 166.527344 665.429688 167.34375 C 666.125 168.160156 666.796875 168.992188 667.453125 169.84375 C 668.105469 170.691406 668.738281 171.558594 669.351562 172.4375 C 669.960938 173.316406 670.550781 174.210938 671.117188 175.121094 C 671.6875 176.03125 672.230469 176.953125 672.753906 177.890625 C 673.277344 178.824219 673.777344 179.773438 674.25 180.734375 C 674.726562 181.695312 675.179688 182.667969 675.609375 183.648438 C 676.035156 184.632812 676.441406 185.625 676.820312 186.628906 C 677.199219 187.628906 677.554688 188.640625 677.882812 189.664062 C 678.214844 190.683594 678.519531 191.710938 678.796875 192.746094 C 679.078125 193.78125 679.332031 194.820312 679.558594 195.867188 C 679.789062 196.917969 679.988281 197.96875 680.167969 199.027344 Z M 680.167969 199.027344 " fill-opacity="1" fill-rule="nonzero"/><path fill="#000000" d="M 581.953125 531.945312 L 588.714844 531.945312 C 597.410156 531.945312 604.484375 539.027344 604.484375 547.730469 L 604.484375 599.160156 L 588.4375 599.160156 L 588.4375 628.277344 L 649.628906 628.277344 L 649.628906 599.160156 L 633.578125 599.160156 L 633.578125 547.730469 C 633.578125 522.972656 613.453125 502.828125 588.714844 502.828125 L 572.054688 502.828125 L 581.039062 513.097656 C 585.769531 518.507812 585.949219 526.332031 581.953125 531.945312 Z M 581.953125 531.945312 " fill-opacity="1" fill-rule="nonzero"/><g clip-path="url(#8ca1937881)"><path fill="#000000" d="M 117.753906 625.503906 C 110.226562 616.800781 106.539062 605.683594 107.371094 594.203125 C 108.191406 582.800781 113.382812 572.402344 121.976562 564.886719 L 121.976562 547.730469 C 121.976562 539.027344 129.050781 531.945312 137.746094 531.945312 L 160.003906 531.945312 L 193.636719 502.828125 L 137.746094 502.828125 C 113.007812 502.828125 92.878906 522.972656 92.878906 547.730469 L 92.878906 599.160156 L 76.832031 599.160156 L 76.832031 628.277344 L 120.425781 628.277344 C 119.503906 627.386719 118.597656 626.480469 117.753906 625.503906 Z M 117.753906 625.503906 " fill-opacity="1" fill-rule="nonzero"/></g><path fill="#000000" d="M 253.226562 450.296875 L 136.613281 450.296875 C 125.292969 450.296875 116.035156 459.5625 116.035156 470.894531 C 116.035156 482.222656 125.292969 491.488281 136.613281 491.488281 L 206.738281 491.488281 L 252.707031 451.691406 Z M 253.226562 450.296875 " fill-opacity="1" fill-rule="nonzero"/><path fill="#000000" d="M 540.617188 356.085938 L 592.230469 323.527344 C 601.792969 317.46875 604.660156 304.675781 598.597656 295.109375 C 592.542969 285.539062 579.761719 282.667969 570.199219 288.734375 L 535.8125 310.425781 Z M 540.617188 356.085938 " fill-opacity="1" fill-rule="nonzero"/><path fill="#000000" d="M 502.234375 497.355469 C 496.707031 491.035156 497.351562 481.390625 503.664062 475.859375 L 509.90625 470.394531 L 476.632812 406.773438 L 472.570312 399.007812 L 484.425781 391.527344 C 484.046875 390.085938 483.769531 388.621094 483.613281 387.136719 L 479.292969 346.074219 L 354.523438 424.777344 L 332.617188 483.90625 C 334.617188 484.761719 336.484375 484.855469 338.023438 483.878906 L 447.878906 414.582031 L 451.941406 422.347656 L 494.03125 502.828125 L 323.648438 502.828125 C 321.804688 505.296875 319.75 507.613281 317.410156 509.636719 L 291.644531 531.945312 L 532.492188 531.945312 Z M 502.234375 497.355469 " fill-opacity="1" fill-rule="nonzero"/><path fill="#000000" d="M 559.160156 478.328125 L 549.296875 486.96875 L 534.027344 469.511719 C 530.9375 465.976562 525.523438 465.617188 521.992188 468.710938 L 508.078125 480.898438 C 504.546875 483.988281 504.1875 489.410156 507.277344 492.941406 L 549.261719 540.941406 C 552.351562 544.472656 557.765625 544.835938 561.296875 541.742188 L 575.214844 529.550781 C 578.742188 526.460938 579.101562 521.039062 576.011719 517.507812 L 560.746094 500.050781 L 571.632812 490.511719 C 569.5625 489.15625 567.632812 487.574219 565.9375 485.722656 Z M 559.160156 478.328125 " fill-opacity="1" fill-rule="nonzero"/><path fill="#000000" d="M 615.035156 452.488281 L 625.859375 443.003906 L 641.128906 460.464844 C 644.21875 463.996094 649.632812 464.355469 653.164062 461.265625 L 667.082031 449.074219 C 670.609375 445.980469 670.972656 440.5625 667.882812 437.03125 L 625.898438 389.027344 C 622.808594 385.496094 617.394531 385.136719 613.867188 388.226562 L 599.945312 400.417969 C 596.417969 403.507812 596.054688 408.929688 599.144531 412.460938 L 614.414062 429.917969 L 604.265625 438.8125 L 610.109375 445.195312 C 612.15625 447.425781 613.789062 449.890625 615.035156 452.488281 Z M 615.035156 452.488281 " fill-opacity="1" fill-rule="nonzero"/><path fill="#000000" d="M 258.386719 455.632812 L 126.523438 569.789062 C 111.332031 582.941406 109.671875 605.925781 122.816406 621.125 C 130.007812 629.445312 140.140625 633.707031 150.335938 633.707031 C 158.765625 633.707031 167.238281 630.792969 174.113281 624.839844 L 313.03125 504.574219 C 317.664062 500.5625 321.210938 495.445312 323.339844 489.703125 L 362.773438 383.273438 L 369.777344 383.625 L 359.523438 411.304688 L 382.402344 396.871094 L 382.402344 396.632812 C 382.578125 396.605469 382.753906 396.570312 382.929688 396.539062 L 478.28125 336.394531 L 471.859375 275.328125 C 470.125 258.882812 482.085938 244.09375 498.519531 242.359375 C 499.585938 242.246094 500.648438 242.191406 501.695312 242.191406 C 517.054688 242.191406 529.851562 253.734375 531.460938 269.046875 L 534.796875 300.746094 L 545.433594 294.035156 C 561.359375 267.484375 557.117188 239.417969 544.246094 223.277344 C 528.285156 203.257812 492.226562 207.746094 469.367188 227.398438 C 435.65625 251.609375 388.421875 288.796875 340.148438 303.523438 C 325.953125 309.035156 317.402344 314.167969 312.828125 319.710938 C 308.859375 323.441406 305.644531 328.09375 303.621094 333.546875 L 286.613281 379.449219 Z M 258.386719 455.632812 " fill-opacity="1" fill-rule="nonzero"/><path fill="#000000" d="M 490.273438 386.433594 C 490.796875 391.390625 492.890625 396.054688 496.261719 399.730469 L 570.867188 481.199219 C 575.453125 486.210938 581.734375 488.753906 588.03125 488.753906 C 593.648438 488.753906 599.28125 486.730469 603.75 482.632812 C 613.226562 473.941406 613.867188 459.207031 605.179688 449.722656 L 535.765625 373.917969 L 524.804688 269.746094 C 523.457031 256.949219 512.003906 247.667969 499.21875 249.023438 C 486.433594 250.371094 477.160156 261.832031 478.507812 274.628906 Z M 490.273438 386.433594 " fill-opacity="1" fill-rule="nonzero"/></svg>