<svg xmlns="http://www.w3.org/2000/svg" xmlns:xlink="http://www.w3.org/1999/xlink" width="1024" zoomAndPan="magnify" viewBox="0 0 768 775.92" height="1024" preserveAspectRatio="xMidYMid meet" version="1.0"><defs><clipPath id="98fe397915"><path d="M 120 80 L 462 80 L 462 690.980469 L 120 690.980469 Z M 120 80 " clip-rule="nonzero"/></clipPath></defs><path fill="#000000" d="M 495.375 410.414062 L 507.867188 479.484375 L 530.871094 475.328125 C 536.917969 474.234375 540.964844 468.398438 539.871094 462.351562 L 525.019531 380.207031 C 523.925781 374.160156 518.085938 370.113281 512.042969 371.207031 L 488.203125 375.515625 C 482.160156 376.609375 478.109375 382.445312 479.203125 388.492188 L 480.304688 394.582031 C 482.714844 395.148438 485.027344 396.140625 487.121094 397.597656 C 491.5 400.632812 494.433594 405.1875 495.375 410.414062 Z M 495.375 410.414062 " fill-opacity="1" fill-rule="nonzero"/><path fill="#000000" d="M 349.023438 499.742188 L 350.503906 507.925781 L 373.5 503.769531 C 374.507812 503.585938 375.429688 503.234375 376.3125 502.808594 C 372.996094 501.121094 369.941406 498.988281 367.238281 496.449219 Z M 349.023438 499.742188 " fill-opacity="1" fill-rule="nonzero"/><path fill="#000000" d="M 321.832031 416.933594 L 322.929688 423.011719 C 330.429688 424.777344 336.554688 430.8125 338.007812 438.855469 L 341.847656 460.109375 L 351.230469 458.414062 L 337.167969 402.808594 L 330.832031 403.953125 C 324.792969 405.050781 320.738281 410.886719 321.832031 416.933594 Z M 321.832031 416.933594 " fill-opacity="1" fill-rule="nonzero"/><path fill="#000000" d="M 655.851562 165.589844 C 655.847656 166.992188 655.816406 168.394531 655.746094 169.796875 C 655.675781 171.199219 655.574219 172.597656 655.4375 173.992188 C 655.300781 175.390625 655.128906 176.78125 654.921875 178.167969 C 654.714844 179.554688 654.476562 180.9375 654.203125 182.316406 C 653.929688 183.691406 653.621094 185.058594 653.28125 186.421875 C 652.9375 187.78125 652.566406 189.132812 652.15625 190.476562 C 651.75 191.816406 651.308594 193.148438 650.835938 194.46875 C 650.363281 195.792969 649.859375 197.101562 649.324219 198.394531 C 648.785156 199.691406 648.21875 200.976562 647.617188 202.242188 C 647.019531 203.511719 646.386719 204.765625 645.726562 206 C 645.0625 207.238281 644.371094 208.460938 643.652344 209.664062 C 642.929688 210.867188 642.179688 212.050781 641.398438 213.21875 C 640.621094 214.382812 639.8125 215.53125 638.976562 216.65625 C 638.140625 217.785156 637.277344 218.890625 636.386719 219.976562 C 635.496094 221.058594 634.582031 222.121094 633.640625 223.160156 C 632.695312 224.199219 631.730469 225.214844 630.738281 226.207031 C 629.746094 227.199219 628.730469 228.167969 627.6875 229.109375 C 626.648438 230.050781 625.585938 230.96875 624.503906 231.859375 C 623.417969 232.746094 622.3125 233.609375 621.183594 234.445312 C 620.058594 235.28125 618.910156 236.089844 617.746094 236.871094 C 616.578125 237.648438 615.394531 238.398438 614.1875 239.121094 C 612.984375 239.84375 611.765625 240.53125 610.527344 241.195312 C 609.289062 241.855469 608.035156 242.488281 606.769531 243.085938 C 605.5 243.6875 604.21875 244.253906 602.921875 244.792969 C 601.625 245.328125 600.316406 245.832031 598.996094 246.304688 C 597.675781 246.777344 596.34375 247.21875 595 247.625 C 593.65625 248.03125 592.304688 248.40625 590.941406 248.746094 C 589.582031 249.089844 588.214844 249.394531 586.835938 249.667969 C 585.460938 249.945312 584.078125 250.183594 582.691406 250.390625 C 581.304688 250.59375 579.910156 250.765625 578.515625 250.90625 C 577.117188 251.042969 575.71875 251.144531 574.316406 251.214844 C 572.914062 251.28125 571.511719 251.316406 570.109375 251.316406 C 568.707031 251.316406 567.304688 251.28125 565.902344 251.214844 C 564.5 251.144531 563.101562 251.042969 561.707031 250.90625 C 560.308594 250.765625 558.917969 250.59375 557.53125 250.390625 C 556.140625 250.183594 554.757812 249.945312 553.382812 249.667969 C 552.007812 249.394531 550.636719 249.089844 549.277344 248.746094 C 547.917969 248.40625 546.5625 248.03125 545.222656 247.625 C 543.878906 247.21875 542.546875 246.777344 541.226562 246.304688 C 539.90625 245.832031 538.59375 245.328125 537.300781 244.792969 C 536.003906 244.253906 534.71875 243.6875 533.453125 243.085938 C 532.183594 242.488281 530.929688 241.855469 529.691406 241.195312 C 528.457031 240.535156 527.234375 239.84375 526.03125 239.121094 C 524.828125 238.398438 523.644531 237.648438 522.476562 236.871094 C 521.308594 236.089844 520.164062 235.28125 519.035156 234.445312 C 517.910156 233.609375 516.800781 232.746094 515.71875 231.859375 C 514.632812 230.96875 513.570312 230.050781 512.53125 229.109375 C 511.492188 228.167969 510.476562 227.199219 509.484375 226.207031 C 508.492188 225.214844 507.523438 224.199219 506.582031 223.160156 C 505.640625 222.121094 504.722656 221.058594 503.832031 219.976562 C 502.941406 218.890625 502.078125 217.785156 501.242188 216.65625 C 500.40625 215.53125 499.601562 214.382812 498.820312 213.21875 C 498.042969 212.050781 497.289062 210.867188 496.570312 209.664062 C 495.847656 208.460938 495.15625 207.238281 494.496094 206 C 493.832031 204.765625 493.203125 203.511719 492.601562 202.242188 C 492.003906 200.976562 491.433594 199.691406 490.898438 198.394531 C 490.359375 197.101562 489.855469 195.792969 489.382812 194.46875 C 488.910156 193.148438 488.46875 191.816406 488.0625 190.476562 C 487.65625 189.132812 487.28125 187.78125 486.941406 186.421875 C 486.597656 185.058594 486.292969 183.691406 486.019531 182.316406 C 485.746094 180.9375 485.503906 179.554688 485.300781 178.167969 C 485.09375 176.78125 484.921875 175.390625 484.785156 173.992188 C 484.644531 172.597656 484.542969 171.199219 484.472656 169.796875 C 484.40625 168.394531 484.371094 166.992188 484.371094 165.589844 C 484.371094 164.1875 484.40625 162.785156 484.472656 161.382812 C 484.542969 159.980469 484.644531 158.582031 484.785156 157.1875 C 484.921875 155.792969 485.09375 154.398438 485.300781 153.011719 C 485.503906 151.625 485.746094 150.242188 486.019531 148.867188 C 486.292969 147.488281 486.597656 146.121094 486.941406 144.761719 C 487.28125 143.398438 487.65625 142.046875 488.0625 140.703125 C 488.46875 139.363281 488.910156 138.03125 489.382812 136.710938 C 489.855469 135.386719 490.359375 134.078125 490.898438 132.785156 C 491.433594 131.488281 492.003906 130.207031 492.601562 128.9375 C 493.203125 127.667969 493.832031 126.414062 494.496094 125.179688 C 495.15625 123.941406 495.847656 122.722656 496.570312 121.515625 C 497.289062 120.3125 498.042969 119.128906 498.820312 117.960938 C 499.601562 116.796875 500.40625 115.648438 501.242188 114.523438 C 502.078125 113.394531 502.941406 112.289062 503.832031 111.207031 C 504.722656 110.121094 505.640625 109.058594 506.582031 108.019531 C 507.523438 106.980469 508.492188 105.964844 509.484375 104.972656 C 510.476562 103.980469 511.492188 103.011719 512.53125 102.070312 C 513.570312 101.128906 514.632812 100.210938 515.71875 99.320312 C 516.800781 98.433594 517.910156 97.570312 519.035156 96.734375 C 520.164062 95.898438 521.308594 95.089844 522.476562 94.3125 C 523.644531 93.53125 524.828125 92.78125 526.03125 92.058594 C 527.234375 91.339844 528.457031 90.648438 529.691406 89.984375 C 530.929688 89.324219 532.183594 88.695312 533.453125 88.09375 C 534.71875 87.492188 536.003906 86.925781 537.300781 86.386719 C 538.59375 85.851562 539.90625 85.347656 541.226562 84.875 C 542.546875 84.402344 543.878906 83.960938 545.222656 83.554688 C 546.5625 83.148438 547.917969 82.773438 549.277344 82.433594 C 550.636719 82.089844 552.007812 81.785156 553.382812 81.511719 C 554.757812 81.238281 556.140625 80.996094 557.53125 80.789062 C 558.917969 80.585938 560.308594 80.414062 561.707031 80.277344 C 563.101562 80.136719 564.5 80.035156 565.902344 79.964844 C 567.304688 79.898438 568.707031 79.863281 570.109375 79.863281 C 571.511719 79.863281 572.914062 79.898438 574.316406 79.964844 C 575.71875 80.035156 577.117188 80.136719 578.515625 80.277344 C 579.910156 80.414062 581.304688 80.585938 582.691406 80.789062 C 584.078125 80.996094 585.460938 81.238281 586.835938 81.511719 C 588.214844 81.785156 589.582031 82.089844 590.941406 82.433594 C 592.304688 82.773438 593.65625 83.148438 595 83.554688 C 596.34375 83.960938 597.671875 84.402344 598.996094 84.875 C 600.316406 85.347656 601.625 85.851562 602.921875 86.386719 C 604.21875 86.925781 605.5 87.492188 606.769531 88.09375 C 608.035156 88.695312 609.289062 89.324219 610.527344 89.984375 C 611.765625 90.648438 612.984375 91.339844 614.1875 92.058594 C 615.394531 92.78125 616.578125 93.53125 617.746094 94.3125 C 618.910156 95.089844 620.058594 95.898438 621.183594 96.734375 C 622.3125 97.570312 623.417969 98.433594 624.503906 99.320312 C 625.585938 100.210938 626.648438 101.128906 627.6875 102.070312 C 628.730469 103.011719 629.746094 103.980469 630.738281 104.972656 C 631.730469 105.964844 632.695312 106.980469 633.640625 108.019531 C 634.582031 109.058594 635.496094 110.121094 636.386719 111.207031 C 637.277344 112.289062 638.140625 113.394531 638.976562 114.523438 C 639.8125 115.648438 640.621094 116.796875 641.398438 117.960938 C 642.179688 119.128906 642.929688 120.3125 643.652344 121.515625 C 644.371094 122.722656 645.0625 123.941406 645.726562 125.179688 C 646.386719 126.414062 647.019531 127.667969 647.617188 128.9375 C 648.21875 130.207031 648.785156 131.488281 649.324219 132.785156 C 649.859375 134.078125 650.363281 135.386719 650.835938 136.710938 C 651.308594 138.03125 651.75 139.363281 652.15625 140.703125 C 652.566406 142.046875 652.9375 143.398438 653.28125 144.761719 C 653.621094 146.121094 653.929688 147.488281 654.203125 148.867188 C 654.476562 150.242188 654.714844 151.625 654.921875 153.011719 C 655.128906 154.398438 655.300781 155.792969 655.4375 157.1875 C 655.574219 158.582031 655.675781 159.980469 655.746094 161.382812 C 655.816406 162.785156 655.847656 164.1875 655.851562 165.589844 Z M 655.851562 165.589844 " fill-opacity="1" fill-rule="nonzero"/><g clip-path="url(#98fe397915)"><path fill="#000000" d="M 279.886719 433.230469 C 282.855469 429.996094 286.703125 427.875 291.011719 427.09375 L 295.203125 426.335938 C 297.324219 416.921875 296.542969 407.078125 292.945312 398.121094 L 236.59375 257.820312 C 266.402344 244.902344 299.039062 235.890625 329.726562 228.746094 L 350.753906 144.9375 C 355.140625 127.445312 370.792969 115.230469 388.8125 115.230469 C 392.019531 115.230469 395.238281 115.628906 398.371094 116.417969 C 419.371094 121.6875 432.160156 143.046875 426.890625 164.03125 L 392.460938 301.285156 L 428.664062 444.421875 L 436.152344 443.066406 L 432.308594 421.8125 C 431.207031 415.726562 433.0625 409.359375 437.261719 404.785156 C 440.226562 401.550781 444.074219 399.425781 448.378906 398.648438 L 456.285156 397.222656 L 428.953125 289.15625 L 459.785156 166.253906 C 460.050781 165.199219 460.25 164.136719 460.402344 163.082031 C 461.75 157.585938 462.078125 151.90625 461.132812 146.167969 C 455.671875 113.089844 420.753906 76.820312 361.921875 81.332031 C 281.066406 88.019531 232.921875 102.746094 159.121094 145.363281 C 112.183594 177.457031 116.96875 214.363281 128.953125 244.765625 C 129.398438 246.316406 129.929688 247.855469 130.542969 249.382812 L 198.984375 419.789062 L 150.316406 632.910156 C 144.457031 658.546875 160.5 684.085938 186.152344 689.941406 C 189.722656 690.757812 193.289062 691.144531 196.796875 691.144531 C 218.523438 691.144531 238.152344 676.183594 243.191406 654.109375 L 281.480469 486.4375 L 274.9375 450.253906 C 273.839844 444.171875 275.691406 437.804688 279.886719 433.230469 Z M 279.886719 433.230469 " fill-opacity="1" fill-rule="nonzero"/></g><path fill="#000000" d="M 338.839844 492.679688 L 360.875 488.695312 C 358.742188 485.289062 357.085938 481.523438 356.054688 477.457031 L 353.390625 466.925781 L 334.792969 470.289062 L 329.390625 440.410156 C 328.296875 434.367188 322.457031 430.316406 316.414062 431.410156 L 292.578125 435.71875 C 286.53125 436.8125 282.480469 442.648438 283.574219 448.695312 L 298.425781 530.835938 C 299.519531 536.882812 305.363281 540.933594 311.40625 539.839844 L 335.242188 535.53125 C 341.289062 534.4375 345.339844 528.601562 344.246094 522.554688 Z M 338.839844 492.679688 " fill-opacity="1" fill-rule="nonzero"/><path fill="#000000" d="M 446.335938 450.128906 L 430.816406 452.933594 L 432.152344 458.21875 C 433.632812 464.058594 433.703125 470.011719 432.523438 475.738281 L 450.382812 472.511719 L 455.789062 502.390625 C 456.882812 508.4375 462.722656 512.488281 468.761719 511.394531 L 492.601562 507.085938 C 498.648438 505.992188 502.695312 500.152344 501.601562 494.109375 L 486.753906 411.964844 C 485.660156 405.917969 479.820312 401.867188 473.777344 402.960938 L 449.9375 407.273438 C 443.894531 408.367188 439.84375 414.203125 440.933594 420.25 Z M 446.335938 450.128906 " fill-opacity="1" fill-rule="nonzero"/><path fill="#000000" d="M 364.550781 475.316406 C 368.042969 489.132812 380.453125 498.332031 394.082031 498.332031 C 396.554688 498.332031 399.074219 498.027344 401.578125 497.394531 C 417.902344 493.269531 427.785156 476.691406 423.660156 460.371094 L 383.421875 301.292969 L 418.394531 161.898438 C 422.488281 145.570312 412.570312 129.011719 396.242188 124.917969 C 379.925781 120.828125 363.351562 130.738281 359.257812 147.066406 L 322.417969 293.90625 C 321.195312 298.792969 321.199219 303.90625 322.433594 308.792969 Z M 364.550781 475.316406 " fill-opacity="1" fill-rule="nonzero"/></svg>