<svg xmlns="http://www.w3.org/2000/svg" xmlns:xlink="http://www.w3.org/1999/xlink" width="1024" zoomAndPan="magnify" viewBox="0 0 768 775.92" height="1024" preserveAspectRatio="xMidYMid meet" version="1.0"><defs><clipPath id="48914e9ccd"><path d="M 89.117188 470 L 184 470 L 184 681 L 89.117188 681 Z M 89.117188 470 " clip-rule="nonzero"/></clipPath><clipPath id="4bf57043f2"><path d="M 571 470 L 678.558594 470 L 678.558594 681 L 571 681 Z M 571 470 " clip-rule="nonzero"/></clipPath><clipPath id="63d34358b5"><path d="M 161 389 L 275 389 L 275 690.980469 L 161 690.980469 Z M 161 389 " clip-rule="nonzero"/></clipPath></defs><g clip-path="url(#48914e9ccd)"><path fill="#000000" d="M 89.222656 645.753906 L 89.222656 680.648438 L 155.585938 680.648438 L 155.585938 669.90625 C 152.285156 662.476562 150.691406 654.238281 151.109375 645.753906 L 138.851562 645.753906 L 159.878906 539.554688 L 170.429688 539.554688 L 183.390625 470.3125 L 116.011719 470.3125 C 102.441406 470.3125 91.335938 481.417969 91.335938 494.992188 C 91.335938 508.570312 102.441406 519.675781 116.011719 519.675781 L 128.253906 519.675781 L 126.183594 530.144531 L 103.289062 645.753906 Z M 89.222656 645.753906 " fill-opacity="1" fill-rule="nonzero"/></g><g clip-path="url(#4bf57043f2)"><path fill="#000000" d="M 651.550781 519.679688 C 665.121094 519.679688 676.230469 508.570312 676.230469 494.996094 C 676.230469 481.421875 665.125 470.316406 651.550781 470.316406 L 571.828125 470.316406 L 593.234375 539.558594 L 607.683594 539.558594 L 628.707031 645.753906 L 620.878906 645.753906 C 620.050781 651.875 618.207031 657.875 615.242188 663.5 C 614.257812 665.363281 613.148438 667.125 611.976562 668.835938 L 611.976562 680.652344 L 678.339844 680.652344 L 678.339844 645.753906 L 664.273438 645.753906 L 641.386719 530.152344 L 639.3125 519.683594 L 651.550781 519.683594 Z M 651.550781 519.679688 " fill-opacity="1" fill-rule="nonzero"/></g><path fill="#000000" d="M 460.453125 470.3125 L 456.644531 470.3125 L 430.242188 474.539062 C 443.824219 487.640625 452.320312 505.984375 452.320312 526.304688 C 452.320312 530.832031 451.847656 535.25 451.046875 539.554688 L 481.859375 539.554688 Z M 460.453125 470.3125 " fill-opacity="1" fill-rule="nonzero"/><path fill="#000000" d="M 283.191406 515.503906 L 278.691406 539.554688 L 302.316406 539.554688 C 296.160156 532.433594 289.785156 524.386719 283.191406 515.503906 Z M 283.191406 515.503906 " fill-opacity="1" fill-rule="nonzero"/><g clip-path="url(#63d34358b5)"><path fill="#000000" d="M 162.1875 640.488281 C 157.84375 663.695312 173.132812 686.03125 196.328125 690.375 C 198.988281 690.875 201.632812 691.113281 204.242188 691.109375 C 224.40625 691.109375 242.355469 676.773438 246.203125 656.226562 L 274.734375 503.804688 C 274 502.761719 273.285156 501.785156 272.539062 500.71875 C 244.914062 461.050781 222.851562 420.285156 221.925781 418.570312 C 220.355469 415.65625 219.1875 412.535156 218.46875 409.292969 C 218.191406 408.039062 216.640625 400.828125 214.910156 389.464844 C 210.246094 394.960938 206.890625 401.671875 205.480469 409.210938 Z M 162.1875 640.488281 " fill-opacity="1" fill-rule="nonzero"/></g><path fill="#000000" d="M 226.300781 407.554688 C 226.859375 410.070312 227.765625 412.496094 228.988281 414.761719 C 229.90625 416.460938 251.726562 456.792969 279.125 496.136719 C 289.703125 511.324219 299.585938 524.199219 308.953125 535 C 308.609375 532.140625 308.375 529.253906 308.375 526.304688 C 308.375 505.46875 317.320312 486.734375 331.507812 473.574219 C 314.769531 450.613281 296.375 421.691406 280.011719 391.753906 C 275.992188 371.75 271.457031 334.496094 274.199219 296.554688 L 281.9375 301.371094 C 281.207031 313.867188 281.246094 326.308594 281.792969 338.082031 L 293.265625 367.136719 L 297.539062 377.957031 L 285.59375 377.0625 C 286.246094 381.359375 286.9375 385.363281 287.644531 388.980469 C 303.597656 418.0625 320.910156 445.117188 336.410156 466.59375 L 339.824219 466.847656 C 351.375 458.945312 365.328125 454.308594 380.347656 454.308594 C 394.609375 454.308594 407.882812 458.53125 419.078125 465.71875 L 467.585938 457.953125 L 527.355469 651.285156 C 533.027344 669.636719 549.929688 681.417969 568.167969 681.417969 C 572.347656 681.417969 576.605469 680.796875 580.808594 679.496094 C 603.359375 672.523438 615.984375 648.582031 609.011719 626.027344 L 538.285156 397.25 C 536.304688 390.839844 532.929688 385.203125 528.578125 380.585938 C 531.40625 378.445312 533.804688 375.78125 535.640625 372.753906 C 538.507812 368.03125 540.011719 362.421875 539.628906 356.492188 L 527.289062 166.945312 C 526.304688 151.765625 513.320312 140.222656 498.152344 140.871094 L 375.894531 146.515625 C 375.882812 146.515625 375.875 146.519531 375.863281 146.519531 C 375.96875 146.773438 376.097656 147.011719 376.199219 147.269531 C 384.96875 169.363281 384.613281 193.546875 375.195312 215.367188 C 365.78125 237.1875 348.429688 254.039062 326.34375 262.808594 C 319.953125 265.347656 313.292969 267.144531 306.554688 268.144531 C 276.074219 272.6875 246.535156 261.300781 227.066406 239.328125 C 224.917969 247.484375 223.222656 255.734375 221.875 263.984375 C 210.453125 333.957031 225.390625 403.449219 226.300781 407.554688 Z M 473.371094 197.914062 L 482.058594 331.429688 L 430.121094 199.914062 Z M 473.371094 197.914062 " fill-opacity="1" fill-rule="nonzero"/><path fill="#000000" d="M 324.628906 108.023438 C 325.804688 108.535156 326.972656 109.070312 328.125 109.636719 C 329.277344 110.203125 330.417969 110.796875 331.542969 111.421875 C 332.664062 112.042969 333.773438 112.691406 334.863281 113.371094 C 335.957031 114.046875 337.03125 114.75 338.089844 115.480469 C 339.144531 116.210938 340.183594 116.964844 341.207031 117.746094 C 342.226562 118.527344 343.226562 119.332031 344.207031 120.160156 C 345.1875 120.992188 346.148438 121.84375 347.085938 122.722656 C 348.027344 123.597656 348.941406 124.496094 349.839844 125.417969 C 350.734375 126.339844 351.605469 127.285156 352.453125 128.25 C 353.300781 129.214844 354.125 130.199219 354.925781 131.203125 C 355.726562 132.210938 356.5 133.234375 357.25 134.277344 C 358 135.320312 358.726562 136.382812 359.421875 137.460938 C 360.121094 138.539062 360.792969 139.636719 361.4375 140.746094 C 362.078125 141.859375 362.695312 142.984375 363.285156 144.128906 C 363.875 145.269531 364.433594 146.425781 364.964844 147.59375 C 365.496094 148.765625 366 149.945312 366.476562 151.140625 C 366.949219 152.335938 367.394531 153.539062 367.808594 154.757812 C 368.222656 155.972656 368.609375 157.199219 368.960938 158.433594 C 369.316406 159.667969 369.640625 160.910156 369.933594 162.164062 C 370.230469 163.414062 370.492188 164.671875 370.722656 165.933594 C 370.957031 167.199219 371.15625 168.46875 371.324219 169.742188 C 371.496094 171.015625 371.632812 172.292969 371.742188 173.574219 C 371.847656 174.855469 371.921875 176.136719 371.96875 177.421875 C 372.011719 178.703125 372.023438 179.988281 372.003906 181.273438 C 371.988281 182.558594 371.9375 183.84375 371.855469 185.125 C 371.773438 186.40625 371.660156 187.6875 371.515625 188.964844 C 371.367188 190.242188 371.191406 191.511719 370.984375 192.78125 C 370.777344 194.050781 370.539062 195.3125 370.269531 196.566406 C 370 197.824219 369.703125 199.074219 369.371094 200.316406 C 369.039062 201.558594 368.679688 202.789062 368.289062 204.015625 C 367.898438 205.238281 367.476562 206.453125 367.027344 207.65625 C 366.574219 208.859375 366.097656 210.050781 365.585938 211.230469 C 365.078125 212.410156 364.539062 213.578125 363.972656 214.730469 C 363.40625 215.882812 362.8125 217.023438 362.191406 218.144531 C 361.570312 219.269531 360.917969 220.378906 360.242188 221.472656 C 359.566406 222.5625 358.863281 223.636719 358.132812 224.695312 C 357.402344 225.753906 356.648438 226.792969 355.867188 227.8125 C 355.089844 228.835938 354.285156 229.835938 353.453125 230.816406 C 352.625 231.796875 351.769531 232.757812 350.894531 233.695312 C 350.019531 234.636719 349.117188 235.554688 348.195312 236.449219 C 347.273438 237.34375 346.332031 238.214844 345.367188 239.066406 C 344.402344 239.914062 343.417969 240.738281 342.414062 241.539062 C 341.410156 242.339844 340.382812 243.113281 339.339844 243.863281 C 338.296875 244.613281 337.238281 245.339844 336.160156 246.035156 C 335.082031 246.734375 333.984375 247.40625 332.875 248.050781 C 331.761719 248.695312 330.636719 249.3125 329.496094 249.898438 C 328.351562 250.488281 327.195312 251.050781 326.027344 251.582031 C 324.859375 252.113281 323.675781 252.617188 322.484375 253.089844 C 321.289062 253.566406 320.085938 254.007812 318.867188 254.425781 C 317.652344 254.839844 316.425781 255.222656 315.191406 255.578125 C 313.957031 255.933594 312.714844 256.257812 311.464844 256.550781 C 310.214844 256.847656 308.957031 257.109375 307.695312 257.339844 C 306.429688 257.574219 305.160156 257.773438 303.886719 257.945312 C 302.613281 258.113281 301.339844 258.25 300.058594 258.359375 C 298.777344 258.464844 297.496094 258.542969 296.210938 258.585938 C 294.929688 258.628906 293.644531 258.640625 292.359375 258.621094 C 291.074219 258.605469 289.792969 258.554688 288.511719 258.472656 C 287.226562 258.390625 285.949219 258.277344 284.671875 258.132812 C 283.394531 257.984375 282.125 257.808594 280.855469 257.601562 C 279.589844 257.394531 278.328125 257.15625 277.070312 256.886719 C 275.8125 256.617188 274.566406 256.320312 273.324219 255.988281 C 272.082031 255.65625 270.851562 255.296875 269.625 254.90625 C 268.402344 254.515625 267.191406 254.09375 265.988281 253.640625 C 264.785156 253.191406 263.59375 252.710938 262.414062 252.203125 C 261.234375 251.691406 260.066406 251.15625 258.914062 250.589844 C 257.761719 250.023438 256.621094 249.429688 255.5 248.804688 C 254.375 248.183594 253.265625 247.535156 252.175781 246.855469 C 251.082031 246.179688 250.007812 245.476562 248.949219 244.746094 C 247.894531 244.015625 246.855469 243.261719 245.835938 242.480469 C 244.8125 241.699219 243.8125 240.894531 242.832031 240.066406 C 241.851562 239.234375 240.890625 238.382812 239.953125 237.503906 C 239.011719 236.628906 238.097656 235.730469 237.203125 234.808594 C 236.308594 233.886719 235.433594 232.941406 234.585938 231.976562 C 233.738281 231.011719 232.914062 230.027344 232.113281 229.023438 C 231.3125 228.015625 230.539062 226.992188 229.789062 225.949219 C 229.039062 224.90625 228.316406 223.84375 227.617188 222.765625 C 226.917969 221.6875 226.25 220.589844 225.605469 219.480469 C 224.960938 218.367188 224.34375 217.242188 223.753906 216.097656 C 223.167969 214.957031 222.605469 213.800781 222.074219 212.632812 C 221.542969 211.460938 221.039062 210.28125 220.566406 209.085938 C 220.089844 207.890625 219.644531 206.6875 219.230469 205.46875 C 218.816406 204.253906 218.433594 203.027344 218.078125 201.792969 C 217.722656 200.558594 217.398438 199.316406 217.105469 198.0625 C 216.8125 196.8125 216.546875 195.554688 216.316406 194.292969 C 216.085938 193.027344 215.882812 191.757812 215.714844 190.484375 C 215.542969 189.210938 215.40625 187.933594 215.296875 186.652344 C 215.191406 185.371094 215.117188 184.089844 215.070312 182.804688 C 215.027344 181.523438 215.015625 180.238281 215.035156 178.953125 C 215.054688 177.667969 215.105469 176.382812 215.1875 175.101562 C 215.269531 173.820312 215.382812 172.539062 215.527344 171.261719 C 215.671875 169.984375 215.847656 168.714844 216.054688 167.445312 C 216.261719 166.175781 216.5 164.914062 216.769531 163.660156 C 217.039062 162.402344 217.339844 161.152344 217.667969 159.910156 C 218 158.667969 218.359375 157.4375 218.75 156.210938 C 219.140625 154.988281 219.5625 153.773438 220.011719 152.570312 C 220.464844 151.367188 220.945312 150.175781 221.453125 148.996094 C 221.960938 147.816406 222.5 146.648438 223.066406 145.496094 C 223.632812 144.34375 224.226562 143.203125 224.847656 142.082031 C 225.472656 140.957031 226.121094 139.847656 226.796875 138.753906 C 227.472656 137.664062 228.175781 136.589844 228.90625 135.53125 C 229.636719 134.472656 230.390625 133.433594 231.171875 132.414062 C 231.953125 131.390625 232.757812 130.390625 233.585938 129.410156 C 234.414062 128.429688 235.269531 127.46875 236.144531 126.53125 C 237.023438 125.589844 237.921875 124.671875 238.84375 123.777344 C 239.765625 122.882812 240.707031 122.011719 241.671875 121.160156 C 242.636719 120.3125 243.621094 119.488281 244.625 118.6875 C 245.632812 117.886719 246.65625 117.113281 247.699219 116.363281 C 248.742188 115.613281 249.800781 114.886719 250.878906 114.191406 C 251.960938 113.492188 253.054688 112.820312 254.164062 112.175781 C 255.277344 111.53125 256.402344 110.914062 257.546875 110.328125 C 258.6875 109.738281 259.84375 109.175781 261.011719 108.644531 C 262.179688 108.113281 263.363281 107.609375 264.558594 107.136719 C 265.75 106.660156 266.957031 106.21875 268.171875 105.800781 C 269.386719 105.386719 270.613281 105.003906 271.847656 104.648438 C 273.082031 104.292969 274.324219 103.96875 275.574219 103.675781 C 276.824219 103.378906 278.082031 103.117188 279.347656 102.886719 C 280.609375 102.652344 281.878906 102.453125 283.152344 102.28125 C 284.425781 102.113281 285.703125 101.976562 286.980469 101.867188 C 288.261719 101.761719 289.542969 101.683594 290.828125 101.640625 C 292.113281 101.597656 293.394531 101.585938 294.679688 101.605469 C 295.964844 101.621094 297.246094 101.671875 298.53125 101.753906 C 299.8125 101.835938 301.089844 101.949219 302.367188 102.09375 C 303.644531 102.242188 304.917969 102.417969 306.183594 102.625 C 307.453125 102.832031 308.714844 103.070312 309.96875 103.339844 C 311.226562 103.609375 312.472656 103.90625 313.714844 104.238281 C 314.957031 104.570312 316.191406 104.929688 317.414062 105.320312 C 318.636719 105.710938 319.851562 106.132812 321.054688 106.585938 C 322.257812 107.035156 323.449219 107.515625 324.628906 108.023438 Z M 324.628906 108.023438 " fill-opacity="1" fill-rule="nonzero"/><path fill="#000000" d="M 380.347656 587.832031 C 414.316406 587.832031 441.855469 560.285156 441.855469 526.308594 C 441.855469 492.328125 414.320312 464.785156 380.347656 464.785156 C 346.378906 464.785156 318.839844 492.328125 318.839844 526.308594 C 318.839844 560.28125 346.378906 587.832031 380.347656 587.832031 Z M 351.394531 526.304688 C 351.394531 510.304688 364.359375 497.339844 380.347656 497.339844 C 396.339844 497.339844 409.304688 510.304688 409.304688 526.304688 C 409.304688 542.300781 396.339844 555.269531 380.347656 555.269531 C 364.359375 555.269531 351.394531 542.300781 351.394531 526.304688 Z M 351.394531 526.304688 " fill-opacity="1" fill-rule="nonzero"/><path fill="#000000" d="M 380.347656 538.480469 C 387.070312 538.480469 392.519531 533.027344 392.519531 526.308594 C 392.519531 519.585938 387.070312 514.132812 380.347656 514.132812 C 373.628906 514.132812 368.179688 519.585938 368.179688 526.308594 C 368.179688 533.027344 373.625 538.480469 380.347656 538.480469 Z M 380.347656 538.480469 " fill-opacity="1" fill-rule="nonzero"/></svg>