<svg xmlns="http://www.w3.org/2000/svg" xmlns:xlink="http://www.w3.org/1999/xlink" width="1024" zoomAndPan="magnify" viewBox="0 0 768 775.92" height="1024" preserveAspectRatio="xMidYMid meet" version="1.0"><path fill="#000000" d="M 537.433594 344.8125 L 486.027344 305.542969 L 440.511719 214.519531 C 440.511719 214.519531 405.023438 176.71875 350.539062 197.667969 L 256.839844 264.878906 C 256.839844 264.878906 246.484375 270.957031 243.6875 289.226562 L 221.050781 382.558594 C 219.734375 396.203125 231.691406 409.144531 246.277344 409.019531 C 260.847656 408.894531 269.355469 397.179688 272.109375 381.457031 L 289.699219 306.320312 L 332.511719 269.121094 L 315.289062 368.125 C 315.289062 368.125 311.40625 381.0625 317.117188 402.84375 C 317.117188 402.84375 323.175781 418.496094 321.460938 428.21875 L 309.3125 472.546875 C 298.140625 513.328125 281.402344 552.371094 259.574219 588.582031 L 225.957031 644.351562 C 217.867188 661.730469 230.015625 681.183594 247.554688 686.058594 C 265.09375 690.964844 277.492188 679.570312 288.09375 661.535156 L 323.070312 608.234375 C 343.09375 577.722656 359.417969 544.9375 371.699219 510.566406 L 386.117188 470.226562 C 416.984375 521.660156 437.507812 578.632812 446.527344 637.945312 L 450.238281 662.324219 C 454.457031 679.257812 470.523438 689.585938 487.703125 685.136719 C 504.007812 680.921875 513.40625 665.722656 508.804688 644.546875 L 503.480469 609.417969 C 494.082031 547.402344 472.113281 487.964844 438.929688 434.753906 L 419.027344 402.84375 C 419.027344 402.84375 413.4375 395.808594 415.726562 384.828125 L 429.414062 295.671875 C 429.414062 295.671875 449.671875 337.8125 458.472656 343.109375 L 503.125 377.144531 C 511.988281 386.304688 529.777344 392.1875 539.066406 383.492188 C 549.878906 373.371094 548.460938 356.707031 537.433594 344.8125 Z M 537.433594 344.8125 " fill-opacity="1" fill-rule="nonzero"/><path fill="#000000" d="M 470.109375 126.960938 C 470.410156 128.605469 470.632812 130.257812 470.777344 131.921875 C 470.921875 133.585938 470.988281 135.253906 470.972656 136.921875 C 470.960938 138.589844 470.867188 140.253906 470.695312 141.910156 C 470.523438 143.566406 470.273438 145.210938 469.945312 146.839844 C 469.617188 148.46875 469.214844 150.078125 468.734375 151.664062 C 468.253906 153.25 467.699219 154.804688 467.070312 156.332031 C 466.4375 157.859375 465.738281 159.351562 464.96875 160.804688 C 464.195312 162.261719 463.355469 163.671875 462.449219 165.039062 C 461.542969 166.40625 460.574219 167.722656 459.542969 168.988281 C 458.507812 170.253906 457.417969 171.464844 456.269531 172.621094 C 455.121094 173.773438 453.917969 174.867188 452.664062 175.898438 C 451.410156 176.925781 450.109375 177.890625 448.761719 178.789062 C 447.417969 179.683594 446.027344 180.511719 444.601562 181.265625 C 443.175781 182.019531 441.714844 182.699219 440.21875 183.304688 C 438.726562 183.910156 437.207031 184.4375 435.660156 184.886719 C 434.117188 185.335938 432.550781 185.707031 430.96875 185.996094 C 429.386719 186.285156 427.792969 186.496094 426.1875 186.621094 C 424.585938 186.75 422.976562 186.796875 421.367188 186.757812 C 419.753906 186.722656 418.148438 186.605469 416.546875 186.40625 C 414.945312 186.207031 413.355469 185.925781 411.777344 185.566406 C 410.199219 185.203125 408.644531 184.761719 407.105469 184.246094 C 405.566406 183.726562 404.058594 183.128906 402.574219 182.457031 C 401.09375 181.785156 399.644531 181.042969 398.230469 180.222656 C 396.816406 179.402344 395.441406 178.515625 394.109375 177.558594 C 392.777344 176.601562 391.496094 175.582031 390.257812 174.492188 C 389.023438 173.40625 387.839844 172.261719 386.710938 171.054688 C 385.578125 169.851562 384.507812 168.59375 383.5 167.277344 C 382.488281 165.964844 381.539062 164.605469 380.65625 163.199219 C 379.773438 161.792969 378.957031 160.34375 378.210938 158.855469 C 377.464844 157.367188 376.789062 155.84375 376.183594 154.289062 C 375.582031 152.734375 375.050781 151.152344 374.597656 149.546875 C 374.140625 147.9375 373.765625 146.3125 373.464844 144.671875 C 373.164062 143.027344 372.941406 141.371094 372.796875 139.707031 C 372.652344 138.042969 372.585938 136.378906 372.601562 134.710938 C 372.613281 133.042969 372.707031 131.378906 372.878906 129.722656 C 373.050781 128.066406 373.300781 126.421875 373.628906 124.792969 C 373.957031 123.164062 374.359375 121.554688 374.839844 119.96875 C 375.324219 118.382812 375.878906 116.828125 376.507812 115.300781 C 377.136719 113.773438 377.835938 112.28125 378.609375 110.828125 C 379.378906 109.371094 380.21875 107.960938 381.125 106.59375 C 382.03125 105.226562 383 103.910156 384.035156 102.644531 C 385.066406 101.375 386.15625 100.167969 387.304688 99.011719 C 388.453125 97.859375 389.65625 96.765625 390.910156 95.734375 C 392.164062 94.703125 393.464844 93.742188 394.8125 92.84375 C 396.160156 91.945312 397.546875 91.121094 398.972656 90.367188 C 400.402344 89.613281 401.859375 88.933594 403.355469 88.328125 C 404.847656 87.722656 406.367188 87.195312 407.914062 86.746094 C 409.457031 86.296875 411.023438 85.925781 412.605469 85.636719 C 414.1875 85.347656 415.78125 85.136719 417.386719 85.011719 C 418.992188 84.882812 420.597656 84.835938 422.210938 84.871094 C 423.820312 84.910156 425.425781 85.027344 427.027344 85.226562 C 428.628906 85.425781 430.21875 85.707031 431.796875 86.066406 C 433.375 86.429688 434.933594 86.867188 436.46875 87.386719 C 438.007812 87.90625 439.515625 88.503906 441 89.175781 C 442.484375 89.847656 443.933594 90.589844 445.347656 91.410156 C 446.761719 92.226562 448.132812 93.117188 449.464844 94.074219 C 450.796875 95.03125 452.082031 96.050781 453.316406 97.136719 C 454.554688 98.222656 455.738281 99.371094 456.867188 100.574219 C 457.996094 101.78125 459.066406 103.039062 460.078125 104.351562 C 461.089844 105.664062 462.035156 107.027344 462.917969 108.433594 C 463.800781 109.839844 464.617188 111.289062 465.363281 112.777344 C 466.113281 114.265625 466.789062 115.789062 467.390625 117.34375 C 467.996094 118.898438 468.523438 120.480469 468.980469 122.085938 C 469.433594 123.695312 469.808594 125.320312 470.109375 126.960938 Z M 470.109375 126.960938 " fill-opacity="1" fill-rule="nonzero"/></svg>