<svg xmlns="http://www.w3.org/2000/svg" xmlns:xlink="http://www.w3.org/1999/xlink" width="1024" zoomAndPan="magnify" viewBox="0 0 768 775.92" height="1024" preserveAspectRatio="xMidYMid meet" version="1.0"><defs><clipPath id="4897c831ab"><path d="M 491 76.792969 L 627 76.792969 L 627 206 L 491 206 Z M 491 76.792969 " clip-rule="nonzero"/></clipPath><clipPath id="2386f1d780"><path d="M 105 168 L 666 168 L 666 690.980469 L 105 690.980469 Z M 105 168 " clip-rule="nonzero"/></clipPath></defs><g clip-path="url(#4897c831ab)"><path fill="#000000" d="M 559.121094 205.402344 C 596.195312 205.402344 626.261719 176.527344 626.261719 141.042969 C 626.261719 105.558594 596.195312 76.785156 559.121094 76.785156 C 521.945312 76.785156 491.878906 105.558594 491.878906 141.042969 C 491.878906 176.527344 521.945312 205.402344 559.121094 205.402344 " fill-opacity="1" fill-rule="nonzero"/></g><g clip-path="url(#2386f1d780)"><path fill="#000000" d="M 365.527344 223.125 L 292.078125 320.640625 C 287.726562 326.792969 281.160156 330.566406 273.734375 330.566406 C 260.601562 330.566406 249.964844 318.347656 249.964844 303.335938 C 249.964844 295.136719 253.035156 287.835938 257.960938 282.832031 L 337.195312 178.011719 C 341.546875 172.027344 348.117188 168.171875 355.539062 168.171875 L 470.175781 168.089844 C 478.597656 168.089844 486.164062 172.027344 491.730469 178.179688 L 564.824219 262.160156 L 625.425781 192.691406 C 629.710938 188.511719 635.207031 186.050781 641.203125 186.050781 C 654.761719 186.050781 665.683594 198.679688 665.683594 214.261719 C 665.683594 221.070312 663.6875 227.222656 660.1875 232.144531 L 587.167969 316.703125 C 564.96875 342.128906 547.121094 320.558594 547.121094 320.558594 L 502.296875 268.804688 L 432.273438 361.898438 L 496.445312 435.632812 C 496.445312 435.632812 510.007812 450.070312 502.226562 478.773438 L 466.25 663.066406 C 463.394531 679.058594 451.117188 691.117188 436.414062 691.117188 C 419.496094 691.117188 405.863281 675.367188 405.863281 656.011719 C 405.863281 652.894531 406.148438 649.941406 406.789062 647.15625 L 436.414062 495.996094 L 363.464844 414.546875 L 300.71875 494.929688 C 300.71875 494.929688 290.585938 509.28125 263.675781 508.214844 L 136.40625 508.460938 C 122.199219 508.707031 109.28125 497.550781 106.140625 480.984375 C 102.355469 462.121094 112.492188 443.585938 128.980469 439.402344 C 131.550781 438.746094 134.121094 438.5 136.621094 438.582031 L 246.042969 438.910156 L 407.863281 223.367188 L 365.535156 223.121094 Z M 365.527344 223.125 " fill-opacity="1" fill-rule="nonzero"/></g></svg>