<svg xmlns="http://www.w3.org/2000/svg" xmlns:xlink="http://www.w3.org/1999/xlink" width="1024" zoomAndPan="magnify" viewBox="0 0 768 775.92" height="1024" preserveAspectRatio="xMidYMid meet" version="1.0"><path fill="#000000" d="M 235.558594 299.164062 C 233.773438 296 232.210938 293.6875 231.09375 291.195312 C 224.238281 275.84375 226.085938 260.980469 234.078125 246.582031 C 244.21875 228.332031 258.679688 213.589844 275.089844 200.835938 C 281.414062 195.9375 287.996094 191.414062 294.835938 187.273438 C 301.675781 183.128906 308.734375 179.390625 316.003906 176.058594 C 323.273438 172.722656 330.710938 169.820312 338.316406 167.339844 C 345.921875 164.859375 353.644531 162.824219 361.480469 161.230469 C 374.046875 158.636719 386.730469 156.945312 399.535156 156.164062 C 425.90625 154.5 444.34375 171.960938 445.417969 198.441406 C 445.503906 200.03125 445.835938 201.5625 446.410156 203.046875 C 457.792969 232.609375 469.3125 262.117188 480.671875 291.722656 C 481.039062 292.878906 481.652344 293.886719 482.511719 294.746094 C 483.371094 295.605469 484.382812 296.21875 485.539062 296.589844 C 508.96875 305.613281 532.335938 314.839844 555.742188 323.945312 C 556.523438 324.222656 557.242188 324.613281 557.902344 325.113281 C 558.5625 325.613281 559.132812 326.199219 559.613281 326.871094 C 560.09375 327.546875 560.464844 328.277344 560.71875 329.066406 C 560.976562 329.851562 561.109375 330.660156 561.121094 331.488281 C 561.242188 332.785156 561.121094 334.121094 561.121094 336.070312 C 565.015625 335.378906 568.664062 334.671875 572.335938 334.164062 C 576.921875 333.515625 581.808594 333.535156 585.09375 329.621094 C 586.949219 327.558594 588.300781 325.203125 589.152344 322.566406 C 591.382812 314.269531 592.398438 313.378906 600.976562 314.007812 C 602.679688 314.128906 604.40625 313.84375 606.109375 313.824219 C 611.828125 313.824219 614.546875 316.621094 614.609375 322.363281 C 614.769531 333.695312 614.609375 345.074219 615.398438 356.347656 C 615.867188 362.308594 618.382812 368.089844 619.761719 373.988281 C 619.929688 375.667969 619.875 377.335938 619.597656 379 C 617.886719 379.222656 616.195312 379.109375 614.527344 378.652344 C 607.53125 374.761719 602.761719 369.183594 602.621094 360.6875 C 602.621094 355.757812 602.621094 350.8125 602.03125 345.722656 C 596.820312 351.398438 591.523438 356.1875 584.261719 357.199219 C 585.964844 361.972656 587.382812 366.824219 588.523438 371.757812 C 590.550781 383.15625 583.675781 398.75 569.699219 402.175781 C 561.058594 404.347656 552.457031 406.597656 543.777344 408.5625 C 538.542969 409.761719 535.15625 407.304688 533.835938 401.933594 C 532.417969 396.195312 534.6875 390.902344 539.496094 389.765625 C 542.902344 388.953125 546.515625 388.933594 550.003906 388.347656 C 553.621094 387.847656 557.175781 387.070312 560.671875 386.015625 C 567.082031 383.863281 570.632812 378.085938 569.394531 372.570312 C 567.933594 366 561.769531 360.789062 555.316406 361.640625 C 539.234375 363.667969 523.207031 366.304688 507.164062 368.695312 C 506.496094 368.894531 505.859375 369.164062 505.257812 369.507812 C 508.683594 377.375 511.992188 385.0625 515.398438 392.726562 C 519.457031 401.871094 523.652344 410.976562 527.570312 420.121094 C 528.683594 422.699219 529.78125 423.386719 532.761719 422.617188 C 536.042969 421.734375 539.355469 420.976562 542.695312 420.347656 C 546.035156 419.71875 549.390625 419.21875 552.769531 418.847656 C 556.148438 418.476562 559.535156 418.234375 562.933594 418.121094 C 566.328125 418.011719 569.722656 418.027344 573.121094 418.175781 C 576.515625 418.324219 579.898438 418.601562 583.273438 419.007812 C 586.648438 419.414062 590 419.949219 593.332031 420.613281 C 596.664062 421.277344 599.96875 422.066406 603.242188 422.984375 C 606.511719 423.898438 609.746094 424.941406 612.9375 426.105469 C 616.128906 427.269531 619.273438 428.550781 622.367188 429.957031 C 625.460938 431.363281 628.5 432.882812 631.476562 434.519531 C 634.453125 436.15625 637.363281 437.90625 640.207031 439.765625 C 643.050781 441.625 645.820312 443.59375 648.515625 445.664062 C 651.207031 447.734375 653.816406 449.90625 656.34375 452.179688 C 658.871094 454.453125 661.304688 456.816406 663.652344 459.273438 C 665.996094 461.734375 668.246094 464.277344 670.394531 466.910156 C 672.546875 469.539062 674.59375 472.25 676.535156 475.035156 C 697.511719 505.007812 704.609375 538.648438 698.667969 574.621094 C 692.195312 613.757812 671.503906 644.09375 638.261719 665.324219 C 608.726562 684.183594 576.007812 690.652344 541.746094 683.453125 C 487.871094 672.136719 452.050781 639.492188 437.871094 586.320312 C 425.703125 540.65625 435.964844 498.679688 467.589844 462.929688 C 474.871094 454.695312 483.957031 448.046875 492.394531 440.886719 C 494.304688 439.265625 495.054688 438.167969 493.898438 435.796875 C 492.273438 432.453125 490.957031 428.921875 489.375 425.132812 C 486.1875 428.234375 483.289062 430.871094 480.550781 433.769531 C 453.152344 463.605469 425.78125 493.460938 398.441406 523.335938 C 396.410156 525.488281 393.308594 527.554688 393.003906 529.949219 C 392.699219 532.339844 395.519531 534.855469 396.859375 537.390625 C 405.742188 554.179688 405.640625 571.050781 395.761719 587.195312 C 386.1875 602.867188 371.421875 610.734375 353.164062 610.390625 C 344.484375 610.230469 335.800781 608.101562 327.203125 606.5 C 324.707031 606.050781 324.039062 606.964844 323.144531 608.808594 C 316.582031 622.867188 307.867188 635.433594 297 646.507812 C 292.664062 650.984375 288.03125 655.128906 283.101562 658.941406 C 278.167969 662.75 272.992188 666.191406 267.566406 669.261719 C 262.140625 672.328125 256.527344 674.996094 250.71875 677.257812 C 244.910156 679.519531 238.972656 681.355469 232.902344 682.765625 C 201.316406 690.023438 170.628906 687.144531 141.785156 672.117188 C 103.242188 652.003906 78.902344 620.53125 71.296875 577.417969 C 63.386719 532.28125 74.804688 491.746094 107.300781 459.378906 C 145.292969 421.523438 191.277344 410.390625 243.0625 425.921875 C 249.515625 428.179688 255.777344 430.882812 261.847656 434.03125 C 263.875 435.007812 265.113281 435.289062 266.632812 433.121094 C 272.394531 425.007812 278.417969 416.898438 284.179688 408.785156 C 284.492188 408.195312 284.664062 407.566406 284.695312 406.902344 C 284.726562 406.234375 284.617188 405.59375 284.363281 404.976562 C 273.707031 384.089844 262.949219 363.269531 252.089844 342.519531 C 251.632812 341.777344 251.054688 341.152344 250.351562 340.640625 C 249.648438 340.125 248.875 339.765625 248.03125 339.558594 C 237.523438 337.207031 227.058594 334.851562 218.195312 328.203125 C 215.785156 326.59375 213.707031 324.632812 211.96875 322.316406 C 210.230469 320 208.921875 317.460938 208.050781 314.695312 C 207.652344 313.476562 207.421875 312.226562 207.359375 310.945312 C 207.300781 309.664062 207.410156 308.398438 207.695312 307.144531 C 207.976562 305.894531 208.421875 304.703125 209.027344 303.570312 C 209.632812 302.441406 210.378906 301.410156 211.265625 300.480469 C 212.152344 299.550781 213.144531 298.757812 214.246094 298.097656 C 215.347656 297.4375 216.515625 296.9375 217.75 296.59375 C 218.988281 296.25 220.25 296.078125 221.53125 296.078125 C 222.816406 296.078125 224.078125 296.246094 225.3125 296.589844 C 228.476562 297.296875 231.601562 298.171875 235.558594 299.164062 Z M 544.6875 456.054688 C 544.671875 456.398438 544.707031 456.734375 544.789062 457.070312 C 554.769531 482.484375 564.777344 507.886719 574.8125 533.273438 C 575.484375 534.722656 576.5 535.871094 577.855469 536.722656 C 578.617188 537.195312 579.339844 537.726562 580.023438 538.3125 C 580.703125 538.894531 581.339844 539.527344 581.925781 540.207031 C 582.515625 540.886719 583.046875 541.605469 583.527344 542.367188 C 584.007812 543.128906 584.425781 543.917969 584.785156 544.742188 C 585.144531 545.566406 585.441406 546.410156 585.675781 547.277344 C 585.90625 548.144531 586.074219 549.027344 586.175781 549.917969 C 586.273438 550.8125 586.308594 551.707031 586.273438 552.605469 C 586.238281 553.503906 586.136719 554.394531 585.96875 555.277344 C 585.761719 556.183594 585.488281 557.070312 585.148438 557.9375 C 584.808594 558.800781 584.40625 559.636719 583.941406 560.441406 C 583.476562 561.246094 582.949219 562.011719 582.371094 562.738281 C 581.789062 563.464844 581.15625 564.140625 580.46875 564.773438 C 579.785156 565.402344 579.058594 565.976562 578.285156 566.496094 C 577.515625 567.019531 576.707031 567.476562 575.867188 567.875 C 575.027344 568.273438 574.160156 568.605469 573.269531 568.875 C 572.378906 569.140625 571.472656 569.339844 570.550781 569.46875 C 560.816406 570.871094 552.398438 565.800781 547.425781 555.277344 C 534.960938 528.804688 522.53125 502.328125 510.144531 475.847656 C 509.636719 474.792969 509.03125 473.820312 508.460938 472.765625 C 474.707031 495.273438 455.722656 546.210938 477.042969 592.789062 C 477.703125 594.269531 478.402344 595.730469 479.132812 597.175781 C 479.867188 598.621094 480.636719 600.046875 481.441406 601.453125 C 482.246094 602.859375 483.085938 604.246094 483.957031 605.609375 C 484.832031 606.976562 485.738281 608.316406 486.675781 609.636719 C 487.617188 610.957031 488.589844 612.253906 489.59375 613.527344 C 490.597656 614.800781 491.628906 616.046875 492.695312 617.265625 C 493.761719 618.488281 494.855469 619.683594 495.980469 620.847656 C 497.105469 622.015625 498.257812 623.15625 499.4375 624.265625 C 500.617188 625.375 501.824219 626.457031 503.058594 627.503906 C 504.292969 628.554688 505.554688 629.574219 506.839844 630.5625 C 508.121094 631.550781 509.429688 632.507812 510.761719 633.429688 C 512.09375 634.355469 513.449219 635.242188 514.824219 636.101562 C 516.199219 636.957031 517.597656 637.777344 519.011719 638.566406 C 520.429688 639.351562 521.863281 640.105469 523.316406 640.820312 C 524.773438 641.539062 526.242188 642.21875 527.730469 642.863281 C 529.21875 643.503906 530.71875 644.113281 532.238281 644.683594 C 533.753906 645.25 535.285156 645.78125 536.828125 646.277344 C 538.371094 646.769531 539.925781 647.226562 541.492188 647.644531 C 543.058594 648.058594 544.632812 648.4375 546.21875 648.777344 C 547.804688 649.117188 549.398438 649.414062 550.996094 649.675781 C 552.597656 649.9375 554.203125 650.15625 555.8125 650.339844 C 557.421875 650.519531 559.035156 650.660156 560.65625 650.761719 C 562.273438 650.863281 563.890625 650.921875 565.511719 650.945312 C 567.132812 650.964844 568.753906 650.945312 570.371094 650.886719 C 571.992188 650.828125 573.609375 650.730469 575.222656 650.589844 C 576.839844 650.453125 578.449219 650.273438 580.054688 650.054688 C 581.660156 649.835938 583.261719 649.578125 584.855469 649.28125 C 586.449219 648.984375 588.03125 648.644531 589.609375 648.269531 C 591.183594 647.894531 592.75 647.480469 594.308594 647.027344 C 595.863281 646.570312 597.40625 646.082031 598.9375 645.550781 C 600.472656 645.019531 601.988281 644.453125 603.492188 643.847656 C 604.996094 643.242188 606.484375 642.601562 607.957031 641.925781 C 658.664062 618.484375 678.160156 561.015625 657.792969 512.632812 C 635.804688 460.375 578.035156 444.941406 544.6875 456.054688 Z M 287.730469 599.320312 C 286.390625 599.054688 285.113281 598.773438 283.835938 598.570312 C 277.101562 597.472656 270.34375 596.542969 263.550781 595.324219 C 241.238281 591.574219 218.925781 587.660156 196.449219 584.089844 C 194.855469 583.824219 193.296875 583.421875 191.773438 582.890625 C 190.25 582.359375 188.78125 581.703125 187.367188 580.921875 C 185.953125 580.140625 184.617188 579.246094 183.355469 578.234375 C 182.09375 577.226562 180.925781 576.121094 179.855469 574.914062 C 178.78125 573.707031 177.816406 572.417969 176.964844 571.050781 C 176.109375 569.679688 175.375 568.246094 174.765625 566.753906 C 174.152344 565.257812 173.671875 563.722656 173.320312 562.148438 C 172.972656 560.570312 172.757812 558.976562 172.675781 557.363281 C 172.636719 556.574219 172.636719 555.78125 172.667969 554.988281 C 172.699219 554.199219 172.765625 553.410156 172.867188 552.625 C 172.96875 551.839844 173.105469 551.058594 173.273438 550.285156 C 173.445312 549.511719 173.648438 548.746094 173.890625 547.992188 C 174.128906 547.234375 174.398438 546.492188 174.703125 545.761719 C 175.007812 545.03125 175.34375 544.3125 175.710938 543.613281 C 176.078125 542.910156 176.476562 542.226562 176.90625 541.558594 C 177.335938 540.894531 177.792969 540.246094 178.277344 539.621094 C 178.761719 538.996094 179.273438 538.390625 179.8125 537.8125 C 180.355469 537.230469 180.917969 536.675781 181.503906 536.144531 C 182.09375 535.613281 182.703125 535.109375 183.339844 534.632812 C 183.972656 534.15625 184.625 533.710938 185.296875 533.289062 C 185.96875 532.871094 186.660156 532.484375 187.367188 532.125 C 188.074219 531.769531 188.796875 531.441406 189.53125 531.148438 C 190.265625 530.855469 191.015625 530.59375 191.773438 530.367188 C 192.53125 530.140625 193.300781 529.945312 194.078125 529.785156 C 195.8125 529.3125 197.226562 528.359375 198.316406 526.925781 C 209.796875 511.164062 221.210938 495.347656 232.554688 479.476562 C 236.226562 474.367188 239.816406 469.195312 243.46875 464.023438 C 217.097656 449.484375 174.503906 448.574219 141.035156 475.601562 C 138.992188 477.253906 137.019531 478.980469 135.113281 480.785156 C 133.207031 482.589844 131.378906 484.464844 129.621094 486.417969 C 127.863281 488.367188 126.1875 490.382812 124.589844 492.464844 C 122.996094 494.546875 121.484375 496.691406 120.054688 498.890625 C 118.628906 501.09375 117.289062 503.347656 116.042969 505.65625 C 114.792969 507.964844 113.636719 510.320312 112.574219 512.71875 C 111.511719 515.117188 110.546875 517.554688 109.679688 520.03125 C 108.808594 522.507812 108.039062 525.011719 107.367188 527.550781 C 106.695312 530.085938 106.128906 532.644531 105.660156 535.226562 C 105.191406 537.808594 104.824219 540.40625 104.5625 543.015625 C 104.300781 545.628906 104.140625 548.246094 104.085938 550.867188 C 104.027344 553.492188 104.078125 556.113281 104.230469 558.734375 C 104.382812 561.351562 104.636719 563.960938 104.996094 566.5625 C 105.351562 569.160156 105.8125 571.742188 106.375 574.304688 C 106.941406 576.867188 107.601562 579.402344 108.367188 581.914062 C 109.128906 584.425781 109.992188 586.902344 110.953125 589.34375 C 126.589844 630.183594 166.511719 654.558594 210.972656 651.070312 C 250.324219 647.925781 279.25 620.085938 287.730469 599.320312 Z M 511.300781 343.652344 L 511.300781 342.84375 C 509.273438 342.132812 507.246094 341.363281 505.214844 340.816406 C 489.636719 335.886719 474.078125 330.917969 458.5625 326.09375 C 456.644531 325.585938 454.816406 324.859375 453.074219 323.90625 C 451.335938 322.957031 449.734375 321.808594 448.273438 320.46875 C 446.8125 319.128906 445.53125 317.632812 444.433594 315.980469 C 443.339844 314.328125 442.457031 312.570312 441.789062 310.703125 C 434.019531 290.605469 425.90625 270.773438 417.914062 250.882812 C 415.660156 245.265625 413.46875 239.628906 411.054688 233.523438 L 331.359375 277.871094 C 332.859375 278.84375 333.386719 279.292969 334.058594 279.617188 C 347.160156 286.347656 360.425781 292.957031 373.390625 299.894531 C 386.003906 306.570312 398.527344 313.390625 410.957031 320.355469 C 413.175781 321.5625 415.128906 323.109375 416.816406 324.992188 C 418.507812 326.875 419.832031 328.984375 420.792969 331.324219 C 421.652344 333.390625 422.265625 335.527344 422.628906 337.734375 C 422.996094 339.9375 423.101562 342.160156 422.957031 344.390625 C 422.808594 346.621094 422.40625 348.808594 421.753906 350.949219 C 421.101562 353.085938 420.214844 355.125 419.089844 357.058594 C 414.75 365.167969 410.042969 373.28125 405.519531 381.390625 C 404.058594 383.964844 402.679688 386.582031 400.753906 390.089844 L 480.652344 379.546875 C 480.105469 377.863281 479.757812 376.726562 479.355469 375.613281 C 477.324219 369.875 475.011719 364.214844 473.269531 358.417969 C 471.910156 353.953125 473.917969 350.710938 478.398438 349.535156 C 481.585938 348.703125 484.851562 348.257812 488.097656 347.710938 C 495.804688 346.230469 503.550781 344.953125 511.300781 343.652344 Z M 458.988281 411.445312 C 458.367188 411.296875 457.738281 411.203125 457.101562 411.160156 C 433.042969 414.402344 409.007812 417.710938 384.929688 420.832031 C 383.789062 420.945312 382.738281 421.316406 381.78125 421.949219 C 380.824219 422.582031 380.070312 423.398438 379.515625 424.402344 C 371.96875 436.222656 364.300781 447.945312 356.796875 459.785156 C 356.085938 461.0625 355.878906 462.414062 356.167969 463.84375 C 358.582031 474.792969 361.117188 485.722656 363.691406 496.632812 C 364.871094 501.660156 366.230469 506.769531 367.75 512.730469 Z M 338.84375 399.863281 L 340.875 399.863281 C 349.472656 384.292969 358.054688 368.71875 366.898438 352.65625 L 309.554688 336.636719 Z M 237.421875 525.589844 L 237.992188 526.664062 L 294.015625 520.578125 C 291.480469 508.695312 276.855469 486.796875 268.15625 481.726562 Z M 224.015625 575.007812 C 224.496094 575.257812 224.996094 575.460938 225.515625 575.613281 C 247.871094 579.347656 270.222656 583.042969 292.578125 586.707031 C 293.265625 586.808594 294.605469 586.484375 294.746094 586.058594 C 296.125 581.738281 297.34375 577.378906 298.683594 572.734375 C 296.875 572.550781 295.921875 572.429688 294.96875 572.390625 C 274.6875 571.417969 254.28125 570.667969 233.976562 569.347656 C 228.964844 568.964844 226.125 570.464844 223.953125 574.945312 Z M 228.457031 541.304688 C 230.0625 544.101562 229.574219 546.960938 233.589844 546.878906 C 252.941406 546.496094 272.3125 546.453125 291.683594 546.210938 C 301.460938 546.070312 299.796875 547.933594 298.84375 537.492188 C 298.558594 534.53125 297.242188 534.003906 294.542969 534.289062 C 278.074219 536.09375 261.601562 537.753906 245.132812 539.480469 C 239.777344 539.925781 234.503906 540.574219 228.398438 541.242188 Z M 320.851562 494.664062 L 321.664062 494.21875 L 302.355469 436.992188 L 290.183594 453.722656 C 303.507812 465.28125 312.941406 479.335938 320.792969 494.582031 Z M 320.851562 494.664062 " fill-opacity="1" fill-rule="nonzero"/><path fill="#000000" d="M 529.496094 137.628906 C 529.230469 163.523438 509.394531 188.179688 480.003906 189.09375 C 479.03125 189.121094 478.058594 189.125 477.085938 189.097656 C 476.113281 189.070312 475.144531 189.019531 474.175781 188.9375 C 473.207031 188.855469 472.238281 188.746094 471.277344 188.609375 C 470.3125 188.472656 469.355469 188.3125 468.402344 188.121094 C 467.449219 187.929688 466.5 187.714844 465.558594 187.46875 C 464.617188 187.226562 463.683594 186.957031 462.757812 186.660156 C 461.832031 186.363281 460.917969 186.039062 460.007812 185.691406 C 459.101562 185.339844 458.203125 184.96875 457.316406 184.566406 C 456.429688 184.167969 455.558594 183.742188 454.695312 183.292969 C 453.832031 182.84375 452.984375 182.371094 452.148438 181.875 C 451.3125 181.378906 450.492188 180.855469 449.683594 180.3125 C 448.878906 179.769531 448.089844 179.203125 447.316406 178.613281 C 446.542969 178.027344 445.785156 177.417969 445.046875 176.785156 C 444.304688 176.152344 443.585938 175.503906 442.882812 174.828125 C 442.179688 174.15625 441.496094 173.464844 440.832031 172.753906 C 440.171875 172.042969 439.527344 171.316406 438.90625 170.566406 C 438.285156 169.820312 437.683594 169.054688 437.105469 168.273438 C 436.527344 167.492188 435.96875 166.695312 435.4375 165.882812 C 434.902344 165.070312 434.394531 164.242188 433.90625 163.402344 C 433.421875 162.5625 432.957031 161.707031 432.519531 160.839844 C 432.082031 159.96875 431.667969 159.089844 431.28125 158.199219 C 430.890625 157.308594 430.53125 156.40625 430.191406 155.496094 C 429.855469 154.582031 429.542969 153.664062 429.257812 152.734375 C 428.972656 151.804688 428.714844 150.867188 428.484375 149.921875 C 428.253906 148.980469 428.046875 148.027344 427.867188 147.074219 C 427.691406 146.117188 427.539062 145.15625 427.417969 144.191406 C 427.292969 143.230469 427.195312 142.261719 427.128906 141.292969 C 427.058594 140.324219 427.019531 139.351562 427.003906 138.378906 C 426.992188 137.40625 427.003906 136.4375 427.046875 135.464844 C 427.085938 134.492188 427.15625 133.523438 427.25 132.558594 C 427.347656 131.589844 427.472656 130.625 427.621094 129.664062 C 427.773438 128.707031 427.953125 127.75 428.15625 126.800781 C 432.375 106.523438 443.898438 92.105469 464.101562 85.816406 C 491.847656 77.179688 521.726562 95.511719 527.730469 124.628906 C 528.605469 128.910156 528.929688 133.289062 529.496094 137.628906 Z M 529.496094 137.628906 " fill-opacity="1" fill-rule="nonzero"/></svg>