<svg xmlns="http://www.w3.org/2000/svg" xmlns:xlink="http://www.w3.org/1999/xlink" width="1024" zoomAndPan="magnify" viewBox="0 0 768 775.92" height="1024" preserveAspectRatio="xMidYMid meet" version="1.0"><defs><clipPath id="7f9da59070"><path d="M 80 306 L 626 306 L 626 522.820312 L 80 522.820312 Z M 80 306 " clip-rule="nonzero"/></clipPath></defs><g clip-path="url(#7f9da59070)"><path fill="#000000" d="M 594.398438 460.277344 L 537.867188 460.277344 C 536.601562 432.484375 531.605469 368.164062 530.277344 358.164062 C 526.042969 327.015625 503.53125 305.175781 476.023438 306.757812 C 451.300781 308.214844 389.203125 331.574219 341.402344 350.882812 C 315.160156 361.515625 295.304688 382.410156 285.816406 407.984375 L 107.375 452.679688 C 88.402344 457.425781 76.832031 476.671875 81.574219 495.726562 C 85.621094 511.808594 100.039062 522.632812 115.910156 522.570312 C 118.753906 522.570312 121.664062 522.253906 124.507812 521.492188 L 474 432.359375 C 475.457031 456.539062 476.402344 479.835938 476.785156 492.371094 C 477.289062 509.210938 491.074219 522.570312 507.894531 522.570312 L 594.335938 522.570312 C 611.535156 522.570312 625.445312 508.640625 625.445312 491.421875 C 625.445312 474.203125 611.535156 460.277344 594.398438 460.277344 Z M 594.398438 460.277344 " fill-opacity="1" fill-rule="nonzero"/></g><path fill="#000000" d="M 673.3125 292.578125 C 655.609375 258.707031 613.808594 245.539062 579.917969 263.265625 C 546.085938 280.992188 532.933594 322.835938 550.640625 356.769531 C 568.34375 390.636719 610.144531 403.804688 644.035156 386.082031 C 677.929688 368.292969 691.019531 326.445312 673.3125 292.578125 Z M 673.3125 292.578125 " fill-opacity="1" fill-rule="nonzero"/></svg>