<svg xmlns="http://www.w3.org/2000/svg" xmlns:xlink="http://www.w3.org/1999/xlink" width="1024" zoomAndPan="magnify" viewBox="0 0 768 775.92" height="1024" preserveAspectRatio="xMidYMid meet" version="1.0"><defs><clipPath id="70fbc89322"><path d="M 80 237 L 575 237 L 575 531.972656 L 80 531.972656 Z M 80 237 " clip-rule="nonzero"/></clipPath><clipPath id="926b59ced0"><path d="M 572.007812 296.171875 L 682 296.171875 L 682 404.75 L 572.007812 404.75 Z M 572.007812 296.171875 " clip-rule="nonzero"/></clipPath><clipPath id="d3d3aa7497"><path d="M 626.9375 296.171875 C 596.601562 296.171875 572.007812 320.476562 572.007812 350.460938 C 572.007812 380.445312 596.601562 404.75 626.9375 404.75 C 657.277344 404.75 681.871094 380.445312 681.871094 350.460938 C 681.871094 320.476562 657.277344 296.171875 626.9375 296.171875 Z M 626.9375 296.171875 " clip-rule="nonzero"/></clipPath><clipPath id="0804a81d64"><path d="M 0.0078125 0.171875 L 110 0.171875 L 110 108.75 L 0.0078125 108.75 Z M 0.0078125 0.171875 " clip-rule="nonzero"/></clipPath><clipPath id="1346038fdb"><path d="M 54.9375 0.171875 C 24.601562 0.171875 0.0078125 24.476562 0.0078125 54.460938 C 0.0078125 84.445312 24.601562 108.75 54.9375 108.75 C 85.277344 108.75 109.871094 84.445312 109.871094 54.460938 C 109.871094 24.476562 85.277344 0.171875 54.9375 0.171875 Z M 54.9375 0.171875 " clip-rule="nonzero"/></clipPath><clipPath id="7b4714196b"><rect x="0" width="110" y="0" height="109"/></clipPath></defs><g clip-path="url(#70fbc89322)"><path fill="#000000" d="M 557.722656 419.882812 C 557.53125 418.886719 557.25 417.929688 556.929688 417 L 540.242188 323.777344 C 540.046875 322.691406 539.75 321.65625 539.390625 320.648438 C 526.28125 270.609375 440.902344 243.339844 423.539062 238.285156 C 416.003906 236.097656 407.871094 238.402344 402.613281 244.230469 L 329.878906 324.910156 C 329.386719 325.460938 328.929688 326.03125 328.503906 326.613281 L 119.648438 273.058594 C 102.722656 268.71875 85.496094 278.917969 81.15625 295.824219 C 76.816406 312.738281 87.007812 329.96875 103.929688 334.304688 L 334.824219 393.511719 L 338.851562 415.992188 L 111.542969 456.648438 C 94.34375 459.722656 82.90625 476.152344 85.980469 493.332031 C 89.054688 510.519531 105.484375 521.964844 122.683594 518.890625 L 399.828125 469.320312 L 521.332031 447.589844 L 529.519531 490.613281 L 505.21875 490.613281 C 493.914062 490.613281 484.753906 499.769531 484.753906 511.066406 C 484.753906 522.363281 493.914062 531.523438 505.21875 531.523438 L 554.246094 531.523438 C 560.347656 531.523438 566.125 528.804688 570.011719 524.109375 C 573.902344 519.417969 575.492188 513.234375 574.351562 507.246094 Z M 424.15625 281.449219 C 446.078125 289.132812 470.902344 301.089844 486.0625 313.390625 L 377.925781 332.730469 Z M 424.15625 281.449219 " fill-opacity="1" fill-rule="nonzero"/></g><path fill="#000000" d="M 643.566406 405.746094 C 673.949219 396.398438 690.996094 364.207031 681.648438 333.832031 C 672.296875 303.464844 640.089844 286.421875 609.707031 295.765625 C 579.328125 305.113281 562.277344 337.3125 571.625 367.679688 C 580.980469 398.054688 613.183594 415.09375 643.566406 405.746094 Z M 625.972656 302.808594 C 627.292969 302.402344 628.652344 302.253906 630.03125 302.242188 C 619.644531 309.152344 616.480469 329.933594 623.21875 351.8125 C 629.953125 373.695312 644.261719 389.101562 656.738281 388.980469 C 655.59375 389.742188 654.382812 390.382812 653.0625 390.789062 C 639.777344 394.878906 622.953125 378.496094 615.472656 354.199219 C 607.988281 329.902344 612.6875 306.894531 625.972656 302.808594 Z M 625.972656 302.808594 " fill-opacity="1" fill-rule="nonzero"/><g clip-path="url(#926b59ced0)"><g clip-path="url(#d3d3aa7497)"><g transform="matrix(1, 0, 0, 1, 572, 296)"><g clip-path="url(#7b4714196b)"><g clip-path="url(#0804a81d64)"><g clip-path="url(#1346038fdb)"><path fill="#000000" d="M 0.0078125 0.171875 L 109.859375 0.171875 L 109.859375 108.75 L 0.0078125 108.75 Z M 0.0078125 0.171875 " fill-opacity="1" fill-rule="nonzero"/></g></g></g></g></g></g></svg>