<svg xmlns="http://www.w3.org/2000/svg" xmlns:xlink="http://www.w3.org/1999/xlink" width="1024" zoomAndPan="magnify" viewBox="0 0 768 775.92" height="1024" preserveAspectRatio="xMidYMid meet" version="1.0"><defs><clipPath id="25985f9fe8"><path d="M 149.015625 517 L 229 517 L 229 686 L 149.015625 686 Z M 149.015625 517 " clip-rule="nonzero"/></clipPath><clipPath id="ec0e8b107d"><path d="M 539 517 L 619.21875 517 L 619.21875 686 L 539 686 Z M 539 517 " clip-rule="nonzero"/></clipPath><clipPath id="a6d8c9a5f1"><path d="M 205 77 L 563 77 L 563 690.980469 L 205 690.980469 Z M 205 77 " clip-rule="nonzero"/></clipPath></defs><g clip-path="url(#25985f9fe8)"><path fill="#000000" d="M 188.636719 657.683594 L 205.414062 573.03125 L 216.003906 573.03125 L 228.828125 517.839844 L 170.410156 517.839844 C 159.582031 517.839844 150.71875 526.691406 150.71875 537.511719 C 150.71875 548.332031 159.582031 557.1875 170.410156 557.1875 L 180.175781 557.1875 L 178.523438 565.53125 L 160.261719 657.683594 L 149.035156 657.683594 L 149.035156 685.5 L 201.988281 685.5 L 201.988281 675.695312 C 199.191406 670.042969 197.765625 663.910156 197.667969 657.683594 Z M 188.636719 657.683594 " fill-opacity="1" fill-rule="nonzero"/></g><g clip-path="url(#ec0e8b107d)"><path fill="#000000" d="M 597.730469 557.191406 C 608.558594 557.191406 617.417969 548.339844 617.417969 537.519531 C 617.417969 526.699219 608.558594 517.84375 597.730469 517.84375 L 539.316406 517.84375 L 552.140625 573.035156 L 562.726562 573.035156 L 579.503906 657.6875 L 570.472656 657.6875 C 570.378906 663.914062 568.949219 670.042969 566.15625 675.695312 L 566.15625 685.503906 L 619.105469 685.503906 L 619.105469 657.6875 L 607.878906 657.6875 L 589.617188 565.539062 L 587.964844 557.195312 L 597.730469 557.195312 Z M 597.730469 557.191406 " fill-opacity="1" fill-rule="nonzero"/></g><path fill="#000000" d="M 456.367188 535.953125 L 389.171875 522.925781 C 387.449219 522.59375 385.746094 522.148438 384.074219 521.605469 C 382.398438 522.148438 380.691406 522.59375 378.96875 522.925781 L 311.773438 535.953125 L 303.160156 573.03125 L 464.984375 573.03125 Z M 456.367188 535.953125 " fill-opacity="1" fill-rule="nonzero"/><g clip-path="url(#a6d8c9a5f1)"><path fill="#000000" d="M 270.15625 466.101562 C 256.945312 468.664062 246.476562 478.75 243.433594 491.847656 L 206.863281 649.261719 C 202.601562 667.59375 214.019531 685.90625 232.367188 690.160156 C 234.960938 690.761719 237.554688 691.050781 240.105469 691.050781 C 255.609375 691.050781 269.636719 680.414062 273.292969 664.671875 L 304.863281 528.796875 L 377.378906 514.738281 C 379.71875 514.285156 381.953125 513.597656 384.070312 512.710938 C 386.183594 513.597656 388.421875 514.28125 390.757812 514.738281 L 463.273438 528.796875 L 494.839844 664.671875 C 498.496094 680.414062 512.523438 691.050781 528.027344 691.050781 C 530.578125 691.050781 533.175781 690.761719 535.769531 690.160156 C 554.113281 685.90625 565.53125 667.597656 561.273438 649.261719 L 524.703125 491.847656 C 521.660156 478.75 511.191406 468.664062 497.980469 466.101562 L 489.363281 464.429688 L 488.089844 466.078125 C 482.617188 473.136719 474.347656 477.183594 465.410156 477.183594 C 459.003906 477.183594 452.941406 475.109375 447.867188 471.183594 C 441.8125 466.496094 437.949219 459.734375 436.980469 452.144531 C 436.015625 444.554688 438.070312 437.035156 442.757812 430.988281 L 459.355469 409.578125 L 459.355469 319.097656 C 461.984375 320.847656 464.777344 322.824219 467.703125 325.003906 C 474.039062 329.71875 480.964844 335.375 488.085938 341.625 C 494.230469 347.027344 500.515625 352.855469 506.6875 358.960938 L 447.820312 434.90625 C 440.289062 444.621094 442.066406 458.601562 451.789062 466.128906 C 455.847656 469.269531 460.648438 470.789062 465.410156 470.789062 C 472.0625 470.789062 478.644531 467.824219 483.03125 462.160156 L 553.710938 370.980469 C 560.367188 362.394531 559.847656 350.257812 552.480469 342.273438 C 551.890625 341.632812 539.761719 328.53125 523.347656 313.515625 C 520.628906 311.027344 517.808594 308.496094 514.886719 305.953125 C 491.660156 285.726562 474.949219 275.566406 462.644531 270.546875 C 453.078125 266.648438 446.171875 265.851562 440.9375 265.851562 C 440.84375 265.851562 440.757812 265.867188 440.667969 265.867188 C 439.742188 265.742188 438.804688 265.660156 437.847656 265.660156 L 431.324219 265.660156 C 418.761719 276.878906 402.207031 283.714844 384.074219 283.714844 C 344.929688 283.714844 313.089844 251.894531 313.089844 212.785156 C 313.089844 205.398438 314.226562 198.273438 316.332031 191.578125 L 309.167969 172.285156 L 325.195312 173.207031 C 337.957031 154.304688 359.585938 141.851562 384.074219 141.851562 C 423.214844 141.851562 455.054688 173.671875 455.054688 212.785156 C 455.054688 219.277344 454.160156 225.566406 452.515625 231.542969 L 491.226562 227.167969 C 495.6875 226.664062 498.921875 222.605469 498.417969 218.148438 L 496.429688 200.582031 C 495.925781 196.125 491.863281 192.890625 487.40625 193.394531 L 465.363281 195.886719 L 463.171875 176.5 C 468.691406 172.742188 472.484375 166.582031 472.898438 159.40625 C 473.464844 149.53125 467.496094 140.804688 458.746094 137.398438 L 456.058594 113.664062 L 478.097656 111.171875 C 482.558594 110.667969 485.792969 106.609375 485.289062 102.15625 L 483.300781 84.585938 C 482.796875 80.128906 478.738281 76.898438 474.277344 77.402344 L 413.675781 84.25 C 409.21875 84.753906 405.984375 88.808594 406.488281 93.265625 L 408.476562 110.835938 C 408.980469 115.289062 413.042969 118.523438 417.5 118.023438 L 439.542969 115.527344 L 441.785156 135.324219 L 277.714844 125.894531 C 270.277344 125.476562 262.992188 128.847656 258.527344 134.886719 C 254.058594 140.929688 252.941406 148.8125 255.558594 155.859375 L 307.246094 294.996094 C 307.675781 296.152344 308.195312 297.246094 308.785156 298.28125 L 308.785156 458.609375 Z M 270.15625 466.101562 " fill-opacity="1" fill-rule="nonzero"/></g><path fill="#000000" d="M 446.703125 212.785156 C 446.703125 214.832031 446.605469 216.878906 446.402344 218.917969 C 446.203125 220.957031 445.902344 222.984375 445.5 224.992188 C 445.101562 227.003906 444.601562 228.992188 444.007812 230.953125 C 443.414062 232.914062 442.722656 234.839844 441.9375 236.734375 C 441.152344 238.628906 440.277344 240.480469 439.308594 242.285156 C 438.34375 244.09375 437.289062 245.851562 436.148438 247.554688 C 435.011719 249.257812 433.789062 250.902344 432.488281 252.488281 C 431.1875 254.074219 429.8125 255.589844 428.359375 257.039062 C 426.910156 258.488281 425.390625 259.863281 423.804688 261.164062 C 422.21875 262.464844 420.574219 263.683594 418.871094 264.824219 C 417.164062 265.960938 415.40625 267.015625 413.597656 267.980469 C 411.789062 268.945312 409.9375 269.820312 408.039062 270.605469 C 406.144531 271.390625 404.214844 272.082031 402.253906 272.675781 C 400.289062 273.269531 398.304688 273.769531 396.292969 274.167969 C 394.28125 274.566406 392.253906 274.867188 390.210938 275.070312 C 388.171875 275.269531 386.125 275.371094 384.074219 275.371094 C 382.019531 275.371094 379.976562 275.269531 377.933594 275.070312 C 375.890625 274.867188 373.867188 274.566406 371.851562 274.167969 C 369.839844 273.769531 367.855469 273.269531 365.890625 272.675781 C 363.929688 272.082031 362 271.390625 360.105469 270.605469 C 358.207031 269.820312 356.355469 268.945312 354.546875 267.980469 C 352.738281 267.015625 350.980469 265.960938 349.277344 264.824219 C 347.570312 263.683594 345.925781 262.464844 344.339844 261.164062 C 342.753906 259.863281 341.234375 258.488281 339.785156 257.039062 C 338.335938 255.589844 336.957031 254.074219 335.65625 252.488281 C 334.355469 250.902344 333.136719 249.257812 331.996094 247.554688 C 330.855469 245.851562 329.800781 244.09375 328.835938 242.285156 C 327.867188 240.480469 326.992188 238.628906 326.207031 236.734375 C 325.421875 234.839844 324.730469 232.914062 324.136719 230.953125 C 323.542969 228.992188 323.042969 227.003906 322.644531 224.992188 C 322.242188 222.984375 321.941406 220.957031 321.742188 218.917969 C 321.539062 216.878906 321.441406 214.832031 321.441406 212.785156 C 321.441406 210.734375 321.539062 208.6875 321.742188 206.648438 C 321.941406 204.609375 322.242188 202.585938 322.644531 200.574219 C 323.042969 198.5625 323.542969 196.578125 324.136719 194.617188 C 324.730469 192.652344 325.421875 190.726562 326.207031 188.832031 C 326.992188 186.9375 327.867188 185.089844 328.835938 183.28125 C 329.800781 181.472656 330.855469 179.714844 331.996094 178.011719 C 333.136719 176.308594 334.355469 174.664062 335.65625 173.078125 C 336.957031 171.496094 338.335938 169.976562 339.785156 168.527344 C 341.234375 167.078125 342.753906 165.703125 344.339844 164.402344 C 345.925781 163.101562 347.570312 161.882812 349.277344 160.746094 C 350.980469 159.605469 352.738281 158.554688 354.546875 157.585938 C 356.355469 156.621094 358.207031 155.746094 360.105469 154.960938 C 362 154.175781 363.929688 153.488281 365.890625 152.890625 C 367.855469 152.296875 369.839844 151.800781 371.851562 151.398438 C 373.867188 151 375.890625 150.699219 377.933594 150.5 C 379.976562 150.296875 382.019531 150.195312 384.074219 150.195312 C 386.125 150.195312 388.171875 150.296875 390.210938 150.5 C 392.253906 150.699219 394.28125 151 396.292969 151.398438 C 398.304688 151.800781 400.289062 152.296875 402.253906 152.890625 C 404.214844 153.488281 406.144531 154.175781 408.039062 154.960938 C 409.9375 155.746094 411.789062 156.621094 413.597656 157.585938 C 415.40625 158.554688 417.164062 159.605469 418.871094 160.746094 C 420.574219 161.882812 422.21875 163.101562 423.804688 164.402344 C 425.390625 165.703125 426.910156 167.078125 428.359375 168.527344 C 429.8125 169.976562 431.1875 171.496094 432.488281 173.078125 C 433.789062 174.664062 435.011719 176.308594 436.148438 178.011719 C 437.289062 179.714844 438.34375 181.472656 439.308594 183.28125 C 440.277344 185.089844 441.152344 186.9375 441.9375 188.832031 C 442.722656 190.726562 443.414062 192.652344 444.007812 194.617188 C 444.601562 196.578125 445.101562 198.5625 445.5 200.574219 C 445.902344 202.585938 446.203125 204.609375 446.402344 206.648438 C 446.605469 208.6875 446.703125 210.734375 446.703125 212.785156 Z M 446.703125 212.785156 " fill-opacity="1" fill-rule="nonzero"/></svg>