<svg xmlns="http://www.w3.org/2000/svg" xmlns:xlink="http://www.w3.org/1999/xlink" width="1024" zoomAndPan="magnify" viewBox="0 0 768 775.92" height="1024" preserveAspectRatio="xMidYMid meet" version="1.0"><defs><clipPath id="1702899a82"><path d="M 269 555 L 498 555 L 498 690.980469 L 269 690.980469 Z M 269 555 " clip-rule="nonzero"/></clipPath><clipPath id="049768d4c2"><path d="M 153.625 651 L 252 651 L 252 690.980469 L 153.625 690.980469 Z M 153.625 651 " clip-rule="nonzero"/></clipPath><clipPath id="ae9d79e788"><path d="M 515 651 L 614 651 L 614 690.980469 L 515 690.980469 Z M 515 651 " clip-rule="nonzero"/></clipPath><clipPath id="b558a577be"><path d="M 169 76.792969 L 599 76.792969 L 599 302 L 169 302 Z M 169 76.792969 " clip-rule="nonzero"/></clipPath></defs><g clip-path="url(#1702899a82)"><path fill="#000000" d="M 475.882812 668.050781 C 474.488281 662.34375 473.039062 656.960938 471.5625 651.886719 L 396.148438 651.886719 L 396.148438 581.582031 L 421.859375 581.582031 C 426.382812 581.582031 430.179688 578.640625 431.554688 574.582031 C 425.898438 569.179688 420.15625 565.414062 414.195312 563.234375 C 410.480469 561.917969 407.890625 561.765625 406.921875 561.757812 C 405.515625 561.941406 404.097656 562.039062 402.691406 562.039062 C 395.863281 562.039062 389.277344 559.847656 383.8125 555.808594 C 378.34375 559.84375 371.761719 562.03125 364.9375 562.03125 C 363.558594 562.03125 362.175781 561.949219 360.804688 561.765625 C 359.660156 561.765625 357.085938 561.941406 353.390625 563.25 C 348.042969 565.15625 342.835938 568.421875 337.484375 573.242188 C 337.015625 573.660156 336.539062 574.105469 336.058594 574.566406 C 337.429688 578.636719 341.230469 581.582031 345.761719 581.582031 L 371.46875 581.582031 L 371.46875 651.886719 L 296.0625 651.886719 C 294.585938 656.980469 293.140625 662.355469 291.746094 668.050781 C 288.988281 679.261719 280.570312 687.800781 269.984375 690.980469 L 497.640625 690.980469 C 487.054688 687.800781 478.632812 679.261719 475.882812 668.050781 Z M 475.882812 668.050781 " fill-opacity="1" fill-rule="nonzero"/></g><g clip-path="url(#049768d4c2)"><path fill="#000000" d="M 233.519531 676.984375 C 229.101562 669.699219 227.785156 661.132812 229.820312 652.867188 C 229.902344 652.535156 229.988281 652.214844 230.070312 651.882812 L 164.085938 651.882812 C 158.410156 651.882812 153.804688 656.488281 153.804688 662.171875 L 153.804688 690.976562 L 251.667969 690.976562 C 244.070312 688.710938 237.660156 683.808594 233.519531 676.984375 Z M 233.519531 676.984375 " fill-opacity="1" fill-rule="nonzero"/></g><g clip-path="url(#ae9d79e788)"><path fill="#000000" d="M 515.945312 690.980469 L 613.8125 690.980469 L 613.8125 662.171875 C 613.8125 656.488281 609.207031 651.886719 603.527344 651.886719 L 537.558594 651.886719 C 537.640625 652.214844 537.730469 652.53125 537.8125 652.867188 C 541.859375 669.425781 532.105469 686.152344 515.945312 690.980469 Z M 515.945312 690.980469 " fill-opacity="1" fill-rule="nonzero"/></g><g clip-path="url(#b558a577be)"><path fill="#000000" d="M 268.980469 142.632812 C 269.007812 125.589844 282.792969 111.796875 299.832031 111.769531 L 319.363281 111.769531 L 319.363281 115.886719 C 319.363281 121.570312 323.96875 126.175781 329.648438 126.175781 L 366.839844 126.175781 L 366.839844 246.195312 L 278.554688 246.195312 L 268.980469 249.519531 L 248.40625 256.65625 L 229.996094 263.046875 L 226.0625 264.414062 L 190.929688 276.605469 L 187.042969 277.953125 L 176.136719 281.738281 C 170.769531 283.597656 167.933594 289.464844 169.792969 294.832031 C 171.652344 300.199219 177.515625 303.039062 182.882812 301.179688 L 196.773438 296.355469 L 200.707031 294.992188 L 236.351562 282.621094 L 240.320312 281.242188 L 248.40625 278.433594 L 268.976562 271.292969 L 282.023438 266.765625 L 485.613281 266.765625 L 498.632812 271.285156 L 519.207031 278.429688 L 527.296875 281.234375 L 531.265625 282.613281 L 566.910156 294.988281 L 570.847656 296.355469 L 584.742188 301.179688 C 585.855469 301.566406 586.996094 301.75 588.113281 301.75 C 592.371094 301.75 596.359375 299.082031 597.832031 294.832031 C 599.691406 289.464844 596.851562 283.605469 591.484375 281.742188 L 591.484375 281.738281 L 580.578125 277.949219 L 576.691406 276.601562 L 541.554688 264.410156 L 537.617188 263.042969 L 519.207031 256.65625 L 498.632812 249.515625 L 489.066406 246.195312 L 400.777344 246.195312 L 400.777344 126.175781 L 437.96875 126.175781 C 443.648438 126.175781 448.253906 121.570312 448.253906 115.886719 L 448.253906 111.769531 L 467.785156 111.769531 C 484.820312 111.796875 498.609375 125.589844 498.636719 142.632812 L 498.636719 245.160156 L 519.210938 252.300781 L 519.210938 142.632812 C 519.203125 114.214844 496.191406 91.203125 467.785156 91.195312 L 448.253906 91.195312 L 448.253906 87.078125 C 448.253906 81.398438 443.648438 76.792969 437.96875 76.792969 L 329.648438 76.792969 C 323.96875 76.792969 319.363281 81.398438 319.363281 87.078125 L 319.363281 91.195312 L 299.832031 91.195312 C 271.425781 91.203125 248.414062 114.214844 248.40625 142.632812 L 248.40625 252.304688 L 268.980469 245.164062 Z M 390.492188 242.082031 L 390.492188 246.195312 L 377.125 246.195312 L 377.125 126.175781 L 390.492188 126.175781 Z M 390.492188 242.082031 " fill-opacity="1" fill-rule="nonzero"/></g><path fill="#000000" d="M 268.980469 386.25 C 262.09375 380.96875 255.230469 374.804688 248.410156 367.761719 L 248.414062 595.527344 C 254.570312 580.914062 261.425781 567.824219 268.980469 556.371094 Z M 268.980469 386.25 " fill-opacity="1" fill-rule="nonzero"/><path fill="#000000" d="M 268.980469 322.785156 L 268.980469 275.65625 L 248.410156 282.796875 L 248.410156 294.265625 C 255.78125 305.671875 262.683594 315.066406 268.980469 322.785156 Z M 268.980469 322.785156 " fill-opacity="1" fill-rule="nonzero"/><path fill="#000000" d="M 519.207031 294.292969 L 519.207031 282.789062 L 498.636719 275.648438 L 498.636719 322.820312 C 505.015625 315.011719 511.90625 305.609375 519.207031 294.292969 Z M 519.207031 294.292969 " fill-opacity="1" fill-rule="nonzero"/><path fill="#000000" d="M 498.636719 556.4375 C 506.195312 567.890625 513.058594 580.914062 519.203125 595.488281 L 519.207031 367.761719 C 512.382812 374.808594 505.523438 380.972656 498.636719 386.25 Z M 498.636719 556.4375 " fill-opacity="1" fill-rule="nonzero"/><path fill="#000000" d="M 199.792969 254.554688 C 193.042969 258.167969 189.441406 265.367188 190.082031 272.542969 L 224.011719 260.769531 C 218.824219 252.808594 208.328125 249.992188 199.792969 254.554688 Z M 199.792969 254.554688 " fill-opacity="1" fill-rule="nonzero"/><path fill="#000000" d="M 567.828125 254.554688 C 559.292969 249.992188 548.800781 252.804688 543.613281 260.765625 L 577.542969 272.539062 C 578.179688 265.363281 574.578125 258.164062 567.828125 254.554688 Z M 567.828125 254.554688 " fill-opacity="1" fill-rule="nonzero"/><path fill="#000000" d="M 248.414062 685.308594 C 249.984375 686.089844 251.652344 686.722656 253.402344 687.207031 C 253.660156 687.273438 253.90625 687.371094 254.167969 687.433594 C 256.386719 687.980469 258.613281 688.238281 260.800781 688.238281 C 263.339844 688.238281 265.828125 687.871094 268.214844 687.207031 C 268.472656 687.132812 268.726562 687.054688 268.980469 686.976562 C 277.976562 684.179688 285.335938 676.890625 287.746094 667.074219 C 289.046875 661.753906 290.394531 656.699219 291.777344 651.886719 C 305.273438 604.875 322.113281 581.511719 334.730469 570.179688 C 334.980469 569.953125 335.222656 569.757812 335.476562 569.539062 C 342.148438 563.695312 347.746094 560.890625 352.015625 559.367188 C 356.4375 557.808594 359.539062 557.648438 360.742188 557.648438 C 360.933594 557.648438 361.046875 557.652344 361.113281 557.65625 C 369.65625 558.84375 377.882812 555.96875 383.808594 550.472656 C 389.742188 555.984375 397.992188 558.859375 406.550781 557.648438 C 406.632812 557.648438 406.742188 557.648438 406.878906 557.648438 C 408.082031 557.648438 411.183594 557.808594 415.605469 559.367188 C 419.839844 560.917969 425.484375 563.664062 432.140625 569.523438 C 435.847656 572.785156 439.859375 577 444.125 582.542969 C 454.5 596.113281 466.074219 617.859375 475.84375 651.882812 C 477.226562 656.695312 478.574219 661.75 479.875 667.066406 C 482.285156 676.882812 489.640625 684.175781 498.636719 686.972656 C 498.890625 687.050781 499.148438 687.132812 499.402344 687.203125 C 501.789062 687.871094 504.277344 688.238281 506.816406 688.238281 C 509.003906 688.238281 511.230469 687.976562 513.453125 687.429688 C 513.710938 687.367188 513.957031 687.273438 514.214844 687.203125 C 515.964844 686.722656 517.632812 686.089844 519.203125 685.308594 C 530.582031 679.652344 536.957031 666.707031 533.8125 653.839844 C 533.648438 653.179688 533.480469 652.535156 533.316406 651.882812 C 529.09375 634.960938 524.355469 619.859375 519.203125 606.410156 C 512.894531 589.933594 505.972656 575.914062 498.636719 564 C 489.617188 549.355469 479.976562 537.878906 470.085938 528.929688 C 457.769531 517.789062 445.179688 510.875 434.070312 506.976562 C 433.671875 506.832031 433.289062 506.726562 432.890625 506.589844 L 456.316406 406.75 L 457.347656 402.347656 C 458.75 402.050781 460.261719 401.667969 461.84375 401.21875 C 470.613281 398.722656 482.027344 393.6875 495.066406 383.828125 C 496.242188 382.945312 497.433594 382.011719 498.636719 381.050781 C 505.125 375.863281 512 369.539062 519.207031 361.8125 C 533.273438 346.738281 548.605469 326.324219 564.804688 298.617188 L 529.101562 286.222656 C 525.734375 291.785156 522.433594 296.96875 519.207031 301.789062 C 511.933594 312.660156 505.046875 321.714844 498.636719 329.246094 C 488.804688 340.792969 480.089844 348.769531 472.828125 354.21875 C 464.378906 360.550781 457.894531 363.554688 453.613281 365.023438 C 452.546875 365.386719 451.609375 365.65625 450.816406 365.855469 C 450.015625 366.054688 449.351562 366.1875 448.832031 366.273438 C 448.019531 366.40625 447.589844 366.425781 447.4375 366.433594 C 445.851562 366.34375 444.304688 366.476562 442.808594 366.773438 C 441.3125 366.394531 439.761719 366.183594 438.167969 366.183594 L 413.175781 366.183594 C 404.867188 372.136719 394.734375 375.597656 383.859375 375.597656 C 380.019531 375.597656 376.160156 375.152344 372.394531 374.277344 C 365.839844 372.75 359.777344 369.992188 354.464844 366.183594 L 329.457031 366.183594 C 327.863281 366.183594 326.3125 366.394531 324.8125 366.773438 C 323.304688 366.472656 321.742188 366.339844 320.136719 366.433594 C 319.953125 366.425781 319.535156 366.390625 318.792969 366.269531 C 318.28125 366.183594 317.613281 366.042969 316.824219 365.847656 C 312.042969 364.65625 302.238281 361 288.109375 348.800781 C 282.375 343.839844 275.960938 337.441406 268.984375 329.246094 C 262.570312 321.714844 255.683594 312.652344 248.414062 301.777344 C 245.1875 296.953125 241.890625 291.789062 238.519531 286.226562 L 202.820312 298.617188 C 219.015625 326.324219 234.351562 346.734375 248.414062 361.808594 C 255.621094 369.53125 262.5 375.859375 268.984375 381.046875 C 270.1875 382.007812 271.382812 382.941406 272.558594 383.828125 C 285.601562 393.6875 297.023438 398.726562 305.792969 401.21875 C 307.371094 401.667969 308.878906 402.046875 310.277344 402.34375 L 311.3125 406.75 L 334.734375 506.585938 C 334.339844 506.722656 333.957031 506.828125 333.554688 506.972656 C 316.835938 512.78125 297.007812 525.558594 279.351562 548.832031 C 275.816406 553.476562 272.359375 558.535156 268.984375 564.015625 C 261.640625 575.945312 254.726562 589.949219 248.417969 606.425781 C 243.277344 619.859375 238.542969 634.949219 234.316406 651.882812 C 234.148438 652.542969 233.976562 653.175781 233.816406 653.839844 C 230.652344 666.703125 237.03125 679.652344 248.414062 685.308594 Z M 248.414062 685.308594 " fill-opacity="1" fill-rule="nonzero"/><path fill="#000000" d="M 428.875 335.6875 C 434.671875 310.789062 419.195312 285.90625 394.308594 280.105469 C 369.421875 274.3125 344.550781 289.796875 338.75 314.691406 C 334.480469 333.042969 341.78125 351.378906 355.871094 362.078125 C 357.890625 363.609375 360.035156 364.992188 362.320312 366.1875 C 365.722656 367.96875 369.40625 369.355469 373.320312 370.265625 C 384.558594 372.882812 395.785156 371.152344 405.261719 366.1875 C 407.535156 364.996094 409.710938 363.625 411.753906 362.078125 C 420.074219 355.777344 426.324219 346.644531 428.875 335.6875 Z M 428.875 335.6875 " fill-opacity="1" fill-rule="nonzero"/></svg>