<svg xmlns="http://www.w3.org/2000/svg" xmlns:xlink="http://www.w3.org/1999/xlink" width="1024" zoomAndPan="magnify" viewBox="0 0 768 775.92" height="1024" preserveAspectRatio="xMidYMid meet" version="1.0"><defs><clipPath id="4c4547d6f6"><path d="M 330 101.75 L 438 101.75 L 438 208 L 330 208 Z M 330 101.75 " clip-rule="nonzero"/></clipPath><clipPath id="58f712140c"><path d="M 0.0390625 308 L 221 308 L 221 494 L 0.0390625 494 Z M 0.0390625 308 " clip-rule="nonzero"/></clipPath><clipPath id="e2e9b1e15b"><path d="M 264 394 L 504 394 L 504 666.441406 L 264 666.441406 Z M 264 394 " clip-rule="nonzero"/></clipPath><clipPath id="566cd3db08"><path d="M 547 308 L 767.960938 308 L 767.960938 494 L 547 494 Z M 547 308 " clip-rule="nonzero"/></clipPath></defs><g clip-path="url(#4c4547d6f6)"><path fill="#000000" d="M 437.050781 154.84375 C 437.050781 156.582031 436.964844 158.316406 436.792969 160.046875 C 436.625 161.777344 436.367188 163.496094 436.03125 165.203125 C 435.691406 166.90625 435.269531 168.59375 434.765625 170.257812 C 434.257812 171.921875 433.675781 173.554688 433.011719 175.164062 C 432.34375 176.769531 431.601562 178.339844 430.78125 179.871094 C 429.964844 181.40625 429.070312 182.894531 428.105469 184.34375 C 427.140625 185.789062 426.105469 187.183594 425.003906 188.527344 C 423.902344 189.871094 422.734375 191.160156 421.507812 192.386719 C 420.277344 193.617188 418.992188 194.785156 417.648438 195.886719 C 416.304688 196.988281 414.910156 198.023438 413.464844 198.992188 C 412.019531 199.957031 410.53125 200.851562 408.996094 201.667969 C 407.464844 202.488281 405.894531 203.230469 404.289062 203.898438 C 402.683594 204.5625 401.050781 205.148438 399.386719 205.652344 C 397.722656 206.15625 396.039062 206.578125 394.335938 206.917969 C 392.628906 207.257812 390.914062 207.511719 389.183594 207.683594 C 387.453125 207.855469 385.71875 207.9375 383.980469 207.9375 C 382.242188 207.9375 380.507812 207.855469 378.78125 207.683594 C 377.050781 207.511719 375.332031 207.257812 373.628906 206.917969 C 371.921875 206.578125 370.238281 206.15625 368.574219 205.652344 C 366.914062 205.148438 365.277344 204.5625 363.671875 203.898438 C 362.066406 203.230469 360.496094 202.488281 358.964844 201.667969 C 357.433594 200.851562 355.941406 199.957031 354.496094 198.992188 C 353.054688 198.023438 351.660156 196.988281 350.316406 195.886719 C 348.972656 194.785156 347.683594 193.617188 346.457031 192.386719 C 345.226562 191.160156 344.0625 189.871094 342.957031 188.527344 C 341.855469 187.183594 340.820312 185.789062 339.855469 184.34375 C 338.890625 182.894531 338 181.40625 337.179688 179.871094 C 336.359375 178.339844 335.617188 176.769531 334.953125 175.164062 C 334.289062 173.554688 333.703125 171.921875 333.199219 170.257812 C 332.695312 168.59375 332.273438 166.90625 331.933594 165.203125 C 331.59375 163.496094 331.339844 161.777344 331.167969 160.046875 C 331 158.316406 330.914062 156.582031 330.914062 154.84375 C 330.914062 153.105469 331 151.371094 331.167969 149.640625 C 331.339844 147.910156 331.59375 146.191406 331.933594 144.484375 C 332.273438 142.78125 332.695312 141.09375 333.199219 139.433594 C 333.703125 137.769531 334.289062 136.132812 334.953125 134.527344 C 335.617188 132.917969 336.359375 131.347656 337.179688 129.816406 C 338 128.28125 338.890625 126.792969 339.855469 125.347656 C 340.820312 123.902344 341.855469 122.503906 342.957031 121.160156 C 344.0625 119.816406 345.226562 118.53125 346.457031 117.300781 C 347.683594 116.070312 348.972656 114.90625 350.316406 113.800781 C 351.660156 112.699219 353.054688 111.664062 354.496094 110.699219 C 355.941406 109.730469 357.433594 108.839844 358.964844 108.019531 C 360.496094 107.199219 362.066406 106.457031 363.671875 105.792969 C 365.277344 105.125 366.914062 104.539062 368.574219 104.035156 C 370.238281 103.53125 371.921875 103.109375 373.628906 102.769531 C 375.332031 102.429688 377.050781 102.175781 378.78125 102.003906 C 380.507812 101.835938 382.242188 101.75 383.980469 101.75 C 385.71875 101.75 387.453125 101.835938 389.183594 102.003906 C 390.914062 102.175781 392.628906 102.429688 394.335938 102.769531 C 396.039062 103.109375 397.722656 103.53125 399.386719 104.035156 C 401.050781 104.539062 402.683594 105.125 404.289062 105.792969 C 405.894531 106.457031 407.464844 107.199219 408.996094 108.019531 C 410.53125 108.839844 412.019531 109.730469 413.464844 110.699219 C 414.910156 111.664062 416.304688 112.699219 417.648438 113.800781 C 418.992188 114.90625 420.277344 116.070312 421.507812 117.300781 C 422.734375 118.53125 423.902344 119.816406 425.003906 121.160156 C 426.105469 122.503906 427.140625 123.902344 428.105469 125.347656 C 429.070312 126.792969 429.964844 128.28125 430.78125 129.816406 C 431.601562 131.347656 432.34375 132.917969 433.011719 134.527344 C 433.675781 136.132812 434.257812 137.769531 434.765625 139.433594 C 435.269531 141.09375 435.691406 142.78125 436.03125 144.484375 C 436.367188 146.191406 436.625 147.910156 436.792969 149.640625 C 436.964844 151.371094 437.050781 153.105469 437.050781 154.84375 Z M 437.050781 154.84375 " fill-opacity="1" fill-rule="nonzero"/></g><g clip-path="url(#58f712140c)"><path fill="#000000" d="M 218.644531 394.738281 L 150.109375 394.738281 L 150.109375 318.378906 C 150.109375 313.1875 145.863281 308.941406 140.671875 308.941406 L 138.984375 308.941406 C 134.601562 308.941406 130.917969 311.992188 129.875 316.066406 C 128.832031 311.992188 125.152344 308.941406 120.765625 308.941406 L 119.074219 308.941406 C 114.542969 308.941406 110.730469 312.183594 109.839844 316.464844 C 108.949219 312.183594 105.136719 308.941406 100.605469 308.941406 L 98.914062 308.941406 C 93.726562 308.941406 89.480469 313.1875 89.480469 318.378906 L 89.480469 369.253906 L 73.394531 369.253906 L 73.394531 394.738281 L 0.847656 394.738281 L 0.847656 407.855469 L 73.394531 407.855469 L 73.394531 433.339844 L 89.480469 433.339844 L 89.480469 484.210938 C 89.480469 489.402344 93.726562 493.648438 98.914062 493.648438 L 100.605469 493.648438 C 105.136719 493.648438 108.949219 490.40625 109.839844 486.125 C 110.730469 490.40625 114.542969 493.648438 119.074219 493.648438 L 120.765625 493.648438 C 125.152344 493.648438 128.832031 490.601562 129.875 486.523438 C 130.917969 490.597656 134.601562 493.648438 138.984375 493.648438 L 140.671875 493.648438 C 145.863281 493.648438 150.109375 489.402344 150.109375 484.210938 L 150.109375 407.855469 L 220.945312 407.855469 C 218.949219 403.734375 218.15625 399.222656 218.644531 394.738281 Z M 218.644531 394.738281 " fill-opacity="1" fill-rule="nonzero"/></g><g clip-path="url(#e2e9b1e15b)"><path fill="#000000" d="M 501.890625 404.234375 L 499.0625 394.738281 L 268.90625 394.738281 L 266.078125 404.234375 C 265.707031 405.488281 265.230469 406.695312 264.667969 407.855469 L 317.378906 407.855469 L 291.851562 510.753906 C 291.460938 512.335938 291.203125 513.945312 291.082031 515.566406 L 282.144531 635.390625 C 280.957031 651.3125 292.894531 665.183594 308.804688 666.371094 C 309.539062 666.425781 310.265625 666.453125 310.988281 666.453125 C 325.96875 666.449219 338.636719 654.882812 339.769531 639.695312 L 348.527344 522.308594 L 368.894531 440.21875 L 399.082031 440.21875 L 419.449219 522.308594 L 428.207031 639.695312 C 429.339844 654.886719 442.007812 666.453125 456.988281 666.453125 C 457.710938 666.453125 458.4375 666.425781 459.171875 666.371094 C 475.082031 665.183594 487.019531 651.3125 485.832031 635.390625 L 476.894531 515.566406 C 476.773438 513.941406 476.515625 512.335938 476.125 510.753906 L 450.597656 407.855469 L 503.308594 407.855469 C 502.734375 406.695312 502.261719 405.488281 501.890625 404.234375 Z M 501.890625 404.234375 " fill-opacity="1" fill-rule="nonzero"/></g><g clip-path="url(#566cd3db08)"><path fill="#000000" d="M 617.878906 484.210938 C 617.878906 489.402344 622.125 493.648438 627.3125 493.648438 L 629 493.648438 C 633.386719 493.648438 637.070312 490.601562 638.113281 486.523438 C 639.15625 490.601562 642.835938 493.648438 647.222656 493.648438 L 648.910156 493.648438 C 653.429688 493.648438 657.226562 490.425781 658.136719 486.164062 C 659.042969 490.425781 662.839844 493.648438 667.359375 493.648438 L 669.046875 493.648438 C 674.234375 493.648438 678.480469 489.402344 678.480469 484.210938 L 678.480469 433.339844 L 694.570312 433.339844 L 694.570312 407.855469 L 767.113281 407.855469 L 767.113281 394.738281 L 694.570312 394.738281 L 694.570312 369.253906 L 678.480469 369.253906 L 678.480469 318.378906 C 678.480469 313.1875 674.234375 308.941406 669.046875 308.941406 L 667.359375 308.941406 C 662.839844 308.941406 659.042969 312.164062 658.136719 316.425781 C 657.226562 312.164062 653.429688 308.941406 648.910156 308.941406 L 647.222656 308.941406 C 642.835938 308.941406 639.15625 311.992188 638.113281 316.066406 C 637.070312 311.992188 633.386719 308.941406 629 308.941406 L 627.3125 308.941406 C 622.125 308.941406 617.878906 313.1875 617.878906 318.378906 L 617.878906 394.738281 L 549.320312 394.738281 C 549.804688 399.222656 549.015625 403.734375 547.019531 407.855469 L 617.878906 407.855469 Z M 617.878906 484.210938 " fill-opacity="1" fill-rule="nonzero"/></g><path fill="#000000" d="M 224.710938 391.910156 C 221.734375 401.898438 227.421875 412.414062 237.410156 415.386719 C 239.207031 415.925781 241.015625 416.179688 242.800781 416.179688 C 250.929688 416.179688 258.4375 410.878906 260.875 402.683594 L 280.21875 337.710938 L 287.546875 313.085938 C 298.398438 285.179688 310.671875 271.722656 320.191406 265.222656 L 320.191406 389.308594 L 447.773438 389.308594 L 447.773438 265.363281 C 457.261719 271.933594 469.644531 285.398438 480.417969 313.089844 L 488.097656 338.890625 L 507.085938 402.683594 C 509.523438 410.878906 517.03125 416.179688 525.160156 416.179688 C 526.945312 416.179688 528.757812 415.925781 530.554688 415.386719 C 540.539062 412.414062 546.226562 401.898438 543.25 391.910156 L 523.5 325.550781 L 516.367188 301.589844 L 515.894531 300.195312 C 487.257812 225.785156 442.210938 221.332031 430.839844 221.449219 C 430.410156 221.421875 429.980469 221.386719 429.542969 221.386719 L 338.421875 221.386719 C 337.984375 221.386719 337.558594 221.421875 337.136719 221.449219 C 325.777344 221.324219 280.714844 225.765625 252.070312 300.195312 L 242.425781 332.523438 Z M 224.710938 391.910156 " fill-opacity="1" fill-rule="nonzero"/></svg>