<svg xmlns="http://www.w3.org/2000/svg" xmlns:xlink="http://www.w3.org/1999/xlink" width="1024" zoomAndPan="magnify" viewBox="0 0 768 775.92" height="1024" preserveAspectRatio="xMidYMid meet" version="1.0"><defs><clipPath id="2841cc25c6"><path d="M 78 244 L 689 244 L 689 552.867188 L 78 552.867188 Z M 78 244 " clip-rule="nonzero"/></clipPath></defs><g clip-path="url(#2841cc25c6)"><path fill="#000000" d="M 683.949219 347.070312 L 668.671875 337.054688 C 664.105469 334.171875 658.058594 335.546875 655.175781 340.121094 L 548.703125 506.554688 C 548.613281 506.488281 548.546875 506.40625 548.453125 506.34375 L 489.464844 468.777344 C 485.675781 470.246094 481.777344 471.664062 477.734375 473 C 474.980469 473.910156 472.128906 474.261719 469.265625 474.03125 C 460.613281 473.339844 453.253906 467.5625 450.523438 459.320312 C 448.882812 454.359375 449.097656 449.097656 451.070312 444.328125 L 344.769531 376.632812 C 350.125 389.988281 351.375 405.117188 347.375 420.058594 C 346.320312 424.011719 344.917969 427.777344 343.25 431.359375 L 475.484375 515.570312 L 137.972656 515.570312 L 174.078125 323.632812 L 228.121094 358.046875 C 235.179688 349.617188 244.136719 343.039062 254.148438 338.792969 C 261.320312 335.753906 269.023438 333.914062 276.957031 333.453125 C 279.695312 333.292969 282.457031 333.285156 285.234375 333.460938 L 323.96875 270.605469 C 326.851562 266.03125 325.476562 259.976562 320.90625 257.09375 L 317.226562 255.28125 C 312.652344 252.394531 306.609375 253.769531 303.730469 258.34375 L 262.941406 324.523438 L 140.3125 246.433594 C 135.875 243.347656 129.777344 244.445312 126.691406 248.890625 L 111.054688 271.417969 C 107.972656 275.863281 109.070312 281.972656 113.507812 285.058594 L 143.84375 304.375 L 104.113281 515.570312 L 87.792969 515.570312 C 82.390625 515.570312 78.007812 519.957031 78.007812 525.367188 L 78.007812 552.804688 L 623.425781 552.804688 L 623.425781 525.367188 C 623.425781 519.957031 619.046875 515.570312 613.640625 515.570312 L 587.863281 515.570312 L 687.011719 360.585938 C 689.886719 356.007812 688.519531 349.957031 683.949219 347.070312 Z M 683.949219 347.070312 " fill-opacity="1" fill-rule="nonzero"/></g><path fill="#000000" d="M 330.300781 354.285156 L 389.675781 260.148438 C 392.554688 255.570312 391.1875 249.519531 386.617188 246.636719 L 371.34375 236.625 C 366.773438 233.738281 360.726562 235.113281 357.847656 239.6875 L 297.492188 335.375 C 297.902344 335.476562 298.308594 335.5625 298.714844 335.671875 C 311.183594 339.015625 321.925781 345.605469 330.300781 354.285156 Z M 330.300781 354.285156 " fill-opacity="1" fill-rule="nonzero"/><path fill="#000000" d="M 670.851562 256.394531 C 671.382812 257.738281 671.84375 259.101562 672.242188 260.488281 C 672.640625 261.878906 672.96875 263.28125 673.226562 264.703125 C 673.488281 266.121094 673.675781 267.550781 673.796875 268.992188 C 673.914062 270.429688 673.960938 271.871094 673.941406 273.316406 C 673.917969 274.757812 673.824219 276.195312 673.660156 277.632812 C 673.496094 279.066406 673.265625 280.488281 672.960938 281.902344 C 672.65625 283.3125 672.285156 284.707031 671.847656 286.082031 C 671.40625 287.457031 670.902344 288.804688 670.328125 290.128906 C 669.753906 291.457031 669.121094 292.75 668.421875 294.011719 C 667.722656 295.273438 666.960938 296.5 666.140625 297.6875 C 665.320312 298.875 664.445312 300.019531 663.515625 301.121094 C 662.582031 302.222656 661.597656 303.277344 660.5625 304.28125 C 659.527344 305.289062 658.445312 306.238281 657.316406 307.136719 C 656.1875 308.035156 655.019531 308.878906 653.808594 309.660156 C 652.597656 310.445312 651.351562 311.167969 650.066406 311.828125 C 648.785156 312.488281 647.472656 313.085938 646.132812 313.617188 C 644.792969 314.148438 643.429688 314.613281 642.042969 315.011719 C 640.65625 315.40625 639.253906 315.738281 637.835938 315.996094 C 636.417969 316.257812 634.992188 316.445312 633.554688 316.566406 C 632.117188 316.683594 630.675781 316.734375 629.234375 316.710938 C 627.792969 316.6875 626.355469 316.59375 624.921875 316.429688 C 623.492188 316.265625 622.070312 316.035156 620.660156 315.730469 C 619.25 315.425781 617.859375 315.054688 616.484375 314.613281 C 615.113281 314.171875 613.765625 313.667969 612.441406 313.09375 C 611.117188 312.519531 609.824219 311.882812 608.5625 311.183594 C 607.300781 310.484375 606.078125 309.722656 604.890625 308.902344 C 603.707031 308.082031 602.5625 307.203125 601.460938 306.269531 C 600.363281 305.339844 599.308594 304.351562 598.304688 303.316406 C 597.300781 302.28125 596.351562 301.195312 595.453125 300.066406 C 594.558594 298.9375 593.71875 297.765625 592.933594 296.550781 C 592.152344 295.339844 591.429688 294.089844 590.769531 292.808594 C 590.109375 291.523438 589.515625 290.210938 588.984375 288.867188 C 588.453125 287.527344 587.988281 286.160156 587.59375 284.773438 C 587.195312 283.386719 586.867188 281.980469 586.605469 280.5625 C 586.347656 279.140625 586.160156 277.710938 586.039062 276.273438 C 585.921875 274.832031 585.871094 273.390625 585.894531 271.949219 C 585.917969 270.503906 586.011719 269.066406 586.171875 267.632812 C 586.335938 266.195312 586.570312 264.773438 586.875 263.363281 C 587.175781 261.949219 587.546875 260.558594 587.988281 259.183594 C 588.429688 257.808594 588.933594 256.457031 589.507812 255.132812 C 590.078125 253.808594 590.714844 252.511719 591.414062 251.25 C 592.113281 249.988281 592.875 248.761719 593.691406 247.574219 C 594.511719 246.386719 595.386719 245.242188 596.320312 244.140625 C 597.253906 243.039062 598.234375 241.984375 599.269531 240.980469 C 600.304688 239.976562 601.386719 239.023438 602.515625 238.125 C 603.644531 237.226562 604.816406 236.386719 606.027344 235.601562 C 607.238281 234.816406 608.484375 234.097656 609.765625 233.433594 C 611.050781 232.773438 612.359375 232.179688 613.699219 231.644531 C 615.042969 231.113281 616.40625 230.648438 617.792969 230.253906 C 619.175781 229.855469 620.578125 229.527344 622 229.265625 C 623.417969 229.007812 624.84375 228.816406 626.28125 228.699219 C 627.71875 228.578125 629.15625 228.53125 630.601562 228.550781 C 632.042969 228.574219 633.480469 228.667969 634.910156 228.832031 C 636.34375 228.996094 637.765625 229.230469 639.175781 229.53125 C 640.585938 229.835938 641.976562 230.207031 643.347656 230.648438 C 644.722656 231.089844 646.070312 231.597656 647.394531 232.167969 C 648.71875 232.742188 650.011719 233.378906 651.269531 234.078125 C 652.53125 234.78125 653.757812 235.539062 654.941406 236.359375 C 656.128906 237.179688 657.273438 238.058594 658.371094 238.992188 C 659.472656 239.925781 660.523438 240.910156 661.527344 241.945312 C 662.53125 242.984375 663.484375 244.066406 664.378906 245.195312 C 665.277344 246.328125 666.117188 247.496094 666.898438 248.710938 C 667.683594 249.921875 668.402344 251.171875 669.0625 252.457031 C 669.722656 253.738281 670.320312 255.050781 670.851562 256.394531 Z M 670.851562 256.394531 " fill-opacity="1" fill-rule="nonzero"/><path fill="#000000" d="M 528.328125 395.316406 C 533.234375 390.769531 537.816406 385.945312 542.019531 380.816406 C 555.972656 363.746094 560.648438 349.515625 560.839844 348.921875 C 563.714844 339.25 573.101562 332.796875 583.164062 333.601562 C 584.632812 333.714844 586.105469 333.992188 587.53125 334.410156 C 598.921875 337.765625 605.464844 349.769531 602.117188 361.179688 C 601.046875 364.726562 594.847656 383.453125 577.125 405.90625 C 567.21875 418.476562 552.300781 433.777344 530.851562 447.730469 C 521.269531 453.964844 510.375 459.925781 498.050781 465.257812 C 497.542969 465.480469 497.046875 465.703125 496.535156 465.917969 C 497.835938 466.378906 499.171875 466.753906 500.550781 467.007812 C 513.496094 475.644531 529.71875 479.90625 549.878906 465.894531 C 583.894531 437.859375 599.246094 417.019531 615.582031 378.488281 C 627.285156 350.394531 613.855469 326.105469 597.421875 316.953125 C 580.984375 307.804688 558.976562 319.453125 550.144531 337.761719 C 543.484375 348.753906 535.785156 362.222656 526.824219 375.636719 L 524.183594 341.089844 C 523.421875 331.164062 517.230469 322.566406 508.058594 318.714844 L 414.761719 279.519531 C 401.304688 273.863281 385.820312 280.207031 380.171875 293.679688 C 374.527344 307.152344 380.859375 322.65625 394.320312 328.3125 L 472.726562 361.25 L 477.753906 427.019531 C 479.773438 426.1875 481.761719 425.328125 483.726562 424.445312 C 500.800781 416.742188 515.710938 407.003906 528.328125 395.316406 Z M 528.328125 395.316406 " fill-opacity="1" fill-rule="nonzero"/><path fill="#000000" d="M 454.238281 458.085938 C 456.539062 465.027344 462.726562 469.578125 469.574219 470.125 C 471.851562 470.308594 474.199219 470.042969 476.507812 469.28125 C 479.527344 468.28125 482.476562 467.242188 485.359375 466.164062 C 487.527344 465.351562 489.621094 464.5 491.710938 463.648438 C 492.640625 463.273438 493.589844 462.90625 494.503906 462.519531 C 508.609375 456.570312 520.933594 449.730469 531.679688 442.472656 C 550.257812 429.917969 564.101562 416.109375 574.058594 403.472656 C 592.164062 380.542969 597.890625 361.628906 598.363281 360.074219 C 601.109375 350.722656 595.761719 340.925781 586.429688 338.175781 C 577.113281 335.4375 567.347656 340.761719 564.578125 350.066406 C 564.574219 350.082031 564.566406 350.101562 564.558594 350.128906 L 564.5625 350.128906 C 564.109375 351.558594 559.140625 366.0625 545.046875 383.300781 C 540.5625 388.769531 535.175781 394.535156 528.710938 400.28125 C 516.464844 411.175781 500.304688 422.019531 478.941406 430.773438 C 478.65625 430.894531 478.355469 431.003906 478.066406 431.117188 C 474.027344 432.753906 469.839844 434.328125 465.421875 435.796875 C 460.117188 437.554688 456.222656 441.601562 454.433594 446.472656 C 453.105469 450.082031 452.933594 454.148438 454.238281 458.085938 Z M 454.238281 458.085938 " fill-opacity="1" fill-rule="nonzero"/><path fill="#000000" d="M 247.054688 350.308594 C 242.203125 353.476562 237.78125 357.320312 233.960938 361.761719 C 228.0625 368.609375 223.578125 376.859375 221.082031 386.179688 C 212.230469 419.265625 231.835938 453.269531 264.875 462.136719 C 294.664062 470.128906 325.195312 454.949219 337.40625 427.636719 C 338.738281 424.65625 339.863281 421.539062 340.734375 418.28125 C 345.359375 401.011719 342.207031 383.492188 333.453125 369.425781 C 331.429688 366.179688 329.109375 363.121094 326.515625 360.289062 C 318.824219 351.890625 308.746094 345.5 296.9375 342.332031 C 295.828125 342.035156 294.71875 341.773438 293.605469 341.542969 C 291.832031 341.167969 290.058594 340.882812 288.289062 340.667969 C 285.875 340.375 283.464844 340.21875 281.074219 340.210938 C 268.8125 340.167969 257.019531 343.796875 247.054688 350.308594 Z M 304.664062 408.605469 C 301.148438 421.738281 287.65625 429.542969 274.539062 426.019531 C 261.421875 422.5 253.640625 408.992188 257.15625 395.855469 C 258.660156 390.230469 262.007812 385.59375 266.359375 382.394531 C 267.15625 381.808594 267.988281 381.269531 268.851562 380.78125 C 274.257812 377.734375 280.804688 376.714844 287.273438 378.449219 C 295.839844 380.746094 302.109375 387.316406 304.464844 395.25 C 305.566406 398.96875 305.804688 402.980469 305.003906 407.003906 C 304.898438 407.539062 304.804688 408.074219 304.664062 408.605469 Z M 304.664062 408.605469 " fill-opacity="1" fill-rule="nonzero"/><path fill="#000000" d="M 285.304688 385.792969 C 281.195312 384.691406 277.035156 385.207031 273.484375 386.933594 C 269.207031 389.015625 265.8125 392.859375 264.484375 397.824219 C 262.054688 406.90625 267.433594 416.242188 276.503906 418.675781 C 282.078125 420.171875 287.742188 418.703125 291.847656 415.25 C 294.425781 413.082031 296.390625 410.140625 297.328125 406.636719 C 297.339844 406.59375 297.34375 406.554688 297.355469 406.515625 C 297.703125 405.167969 297.867188 403.8125 297.890625 402.472656 C 298.003906 394.863281 292.984375 387.855469 285.304688 385.792969 Z M 285.304688 385.792969 " fill-opacity="1" fill-rule="nonzero"/></svg>