<svg xmlns="http://www.w3.org/2000/svg" xmlns:xlink="http://www.w3.org/1999/xlink" width="1024" zoomAndPan="magnify" viewBox="0 0 768 775.92" height="1024" preserveAspectRatio="xMidYMid meet" version="1.0"><defs><clipPath id="ddca802ab2"><path d="M 289 84.597656 L 455 84.597656 L 455 244 L 289 244 Z M 289 84.597656 " clip-rule="nonzero"/></clipPath><clipPath id="55fc06097c"><path d="M 76.832031 182 L 691 182 L 691 683.039062 L 76.832031 683.039062 Z M 76.832031 182 " clip-rule="nonzero"/></clipPath></defs><g clip-path="url(#ddca802ab2)"><path fill="#000000" d="M 289.929688 166.753906 C 289.929688 171.277344 290.390625 175.683594 291.097656 180.007812 C 293.199219 178.5 295.339844 177.027344 297.726562 175.886719 C 316.335938 166.945312 339.390625 173.121094 352.488281 190.578125 L 402.113281 243.183594 C 432.644531 231.191406 454.292969 201.527344 454.292969 166.753906 C 454.292969 121.375 417.5 84.589844 372.109375 84.589844 C 326.722656 84.589844 289.929688 121.375 289.929688 166.753906 Z M 289.929688 166.753906 " fill-opacity="1" fill-rule="nonzero"/></g><g clip-path="url(#55fc06097c)"><path fill="#000000" d="M 87.480469 683.011719 L 680.335938 683.011719 C 686.1875 683.011719 690.921875 678.273438 690.921875 672.429688 C 690.921875 666.582031 686.1875 661.84375 680.335938 661.84375 L 606.527344 661.84375 C 609.613281 660.015625 612.546875 657.902344 615.058594 655.1875 C 623.578125 646.035156 626.460938 633 622.769531 620.316406 C 621.570312 615.9375 619.648438 611.867188 617.011719 608.136719 L 520.957031 460.355469 C 508.003906 440.433594 482 432.945312 460.402344 442.917969 L 270.121094 532.039062 C 267.496094 533.265625 264.332031 532.140625 263.082031 529.488281 C 261.839844 526.84375 262.988281 523.695312 265.632812 522.457031 L 304.507812 504.25 C 297.339844 493.359375 282.554688 467.226562 284.644531 439.042969 C 287.976562 394.175781 299.453125 384.777344 301.714844 383.351562 C 303.015625 382.738281 303.746094 382.535156 304.539062 382.535156 C 304.652344 382.535156 410.882812 384.804688 410.882812 384.804688 C 430.824219 383.234375 447.714844 368.027344 451.449219 347.84375 C 453.671875 328.074219 447.167969 307.914062 433.5625 292.894531 L 412.214844 269.320312 L 344.394531 197.378906 C 333.941406 183.503906 316.417969 178.675781 302.296875 185.425781 C 293.1875 189.796875 286.601562 197.859375 284.222656 207.554688 C 281.835938 217.300781 283.890625 227.457031 289.859375 235.414062 L 354.144531 307.84375 C 355.550781 309.433594 355.878906 311.707031 354.96875 313.625 C 354.0625 315.535156 352.085938 316.863281 349.964844 316.640625 L 267.660156 313.246094 C 264.734375 313.128906 262.46875 310.664062 262.585938 307.742188 C 262.707031 304.816406 265.1875 302.398438 268.09375 302.671875 L 337.964844 305.558594 L 282.34375 242.871094 L 279.96875 244.960938 L 280.199219 239.644531 C 279.484375 238.558594 278.835938 237.449219 278.226562 236.324219 L 265.945312 241.40625 C 199.179688 269.039062 152.386719 330.765625 143.835938 402.5 L 138.398438 448.15625 C 132.246094 499.757812 139.636719 550.785156 159.757812 595.730469 C 165.070312 607.605469 181.003906 630.453125 186.882812 637.097656 C 198.359375 650.046875 209.828125 657.554688 223.410156 661.84375 L 87.480469 661.84375 C 81.628906 661.84375 76.894531 666.582031 76.894531 672.429688 C 76.894531 678.273438 81.628906 683.011719 87.480469 683.011719 Z M 350.296875 639.128906 C 478.414062 535.65625 478.671875 535.503906 481.183594 536.039062 C 482.578125 536.328125 483.789062 537.152344 484.5625 538.347656 L 558.039062 651.832031 C 560.976562 655.964844 564.777344 659.292969 569.058594 661.84375 L 306.746094 661.84375 C 322.519531 657.179688 337.390625 649.554688 350.296875 639.128906 Z M 350.296875 639.128906 " fill-opacity="1" fill-rule="nonzero"/></g></svg>