<svg xmlns="http://www.w3.org/2000/svg" xmlns:xlink="http://www.w3.org/1999/xlink" width="1024" zoomAndPan="magnify" viewBox="0 0 768 775.92" height="1024" preserveAspectRatio="xMidYMid meet" version="1.0"><defs><clipPath id="10b12dced9"><path d="M 502 424 L 556 424 L 556 638.957031 L 502 638.957031 Z M 502 424 " clip-rule="nonzero"/></clipPath><clipPath id="5aa49e27a0"><path d="M 81 223 L 585 223 L 585 638.957031 L 81 638.957031 Z M 81 223 " clip-rule="nonzero"/></clipPath><clipPath id="f1bb4da03b"><path d="M 433 537 L 515 537 L 515 638.957031 L 433 638.957031 Z M 433 537 " clip-rule="nonzero"/></clipPath></defs><path fill="#000000" d="M 397.171875 450.964844 L 445.285156 469.144531 L 445.285156 392.625 Z M 397.171875 450.964844 " fill-opacity="1" fill-rule="nonzero"/><g clip-path="url(#10b12dced9)"><path fill="#000000" d="M 531.722656 439.65625 C 530.71875 433.242188 516.761719 426.90625 505.019531 424.097656 L 505.019531 530.984375 C 515.328125 537.304688 521.136719 547.375 521.136719 560.210938 C 521.136719 568.859375 518.425781 577.925781 513.441406 586.109375 C 515.652344 591.347656 516.804688 597.023438 516.804688 602.734375 C 516.804688 615.246094 511.363281 626.480469 502.765625 634.296875 C 507.773438 636.902344 513.445312 638.386719 519.457031 638.386719 C 519.765625 638.386719 520.078125 638.382812 520.390625 638.375 C 540.398438 637.867188 556.210938 621.230469 555.710938 601.210938 L 552.234375 463.535156 C 541.632812 460.230469 533.523438 451.207031 531.722656 439.65625 Z M 531.722656 439.65625 " fill-opacity="1" fill-rule="nonzero"/></g><path fill="#000000" d="M 495.382812 565.738281 C 495.921875 563.828125 496.199219 561.960938 496.199219 560.210938 C 496.199219 558.828125 495.933594 557.617188 495.484375 556.53125 C 493.03125 558.824219 490.207031 560.714844 487.089844 562.082031 C 489.96875 563.003906 492.753906 564.21875 495.382812 565.738281 Z M 495.382812 565.738281 " fill-opacity="1" fill-rule="nonzero"/><g clip-path="url(#5aa49e27a0)"><path fill="#000000" d="M 327.515625 410.988281 L 249.429688 505.667969 L 103.550781 569.253906 C 85.199219 577.25 76.804688 598.617188 84.800781 616.976562 C 90.742188 630.617188 104.0625 638.761719 118.050781 638.761719 C 122.878906 638.761719 127.792969 637.789062 132.507812 635.730469 L 286.347656 568.679688 C 291.578125 566.402344 296.195312 562.917969 299.828125 558.515625 L 445.285156 382.140625 L 445.285156 284.816406 C 445.285156 268.339844 458.683594 254.941406 475.152344 254.941406 C 491.625 254.941406 505.019531 268.339844 505.019531 284.816406 L 505.019531 417.265625 C 517.449219 420.003906 536.539062 427.273438 538.308594 438.625 C 540.097656 450.074219 549.96875 458.253906 561.203125 458.25 C 562.390625 458.25 563.601562 458.160156 564.8125 457.96875 C 577.46875 455.988281 586.128906 444.121094 584.152344 431.457031 C 579.253906 400.101562 551.683594 383 527.222656 375.132812 L 534.546875 275.523438 C 534.605469 274.730469 534.625 273.941406 534.605469 273.15625 C 535.707031 266.484375 535.492188 259.933594 533.714844 253.972656 C 532.429688 249.648438 530.34375 245.628906 527.324219 242.117188 C 510.667969 222.785156 473.609375 213.039062 437.175781 239.289062 C 412.035156 257.628906 393.101562 274.007812 376.527344 293.03125 C 360.21875 311.753906 346.191406 333.03125 330.785156 361.277344 C 321.339844 382.238281 321.929688 398.285156 327.515625 410.988281 Z M 327.515625 410.988281 " fill-opacity="1" fill-rule="nonzero"/></g><path fill="#000000" d="M 633.390625 159.589844 C 634.332031 160.09375 635.261719 160.617188 636.179688 161.164062 C 637.097656 161.714844 638 162.285156 638.886719 162.875 C 639.773438 163.46875 640.648438 164.082031 641.507812 164.71875 C 642.363281 165.355469 643.207031 166.011719 644.03125 166.6875 C 644.859375 167.363281 645.667969 168.0625 646.460938 168.777344 C 647.25 169.496094 648.023438 170.230469 648.78125 170.984375 C 649.535156 171.738281 650.273438 172.511719 650.992188 173.300781 C 651.710938 174.09375 652.40625 174.902344 653.085938 175.726562 C 653.761719 176.550781 654.421875 177.390625 655.058594 178.25 C 655.695312 179.105469 656.308594 179.980469 656.902344 180.867188 C 657.5 181.753906 658.070312 182.65625 658.621094 183.570312 C 659.167969 184.488281 659.695312 185.417969 660.199219 186.359375 C 660.703125 187.300781 661.1875 188.253906 661.644531 189.21875 C 662.101562 190.183594 662.535156 191.160156 662.945312 192.144531 C 663.351562 193.132812 663.738281 194.128906 664.097656 195.132812 C 664.460938 196.136719 664.796875 197.152344 665.105469 198.175781 C 665.417969 199.195312 665.703125 200.226562 665.964844 201.261719 C 666.222656 202.296875 666.457031 203.339844 666.667969 204.386719 C 666.878906 205.433594 667.058594 206.484375 667.21875 207.542969 C 667.375 208.597656 667.507812 209.65625 667.613281 210.71875 C 667.71875 211.78125 667.796875 212.847656 667.851562 213.914062 C 667.90625 214.980469 667.933594 216.050781 667.933594 217.117188 C 667.933594 218.183594 667.910156 219.253906 667.859375 220.320312 C 667.804688 221.386719 667.730469 222.453125 667.625 223.515625 C 667.519531 224.578125 667.390625 225.636719 667.234375 226.695312 C 667.082031 227.75 666.898438 228.804688 666.691406 229.851562 C 666.484375 230.898438 666.25 231.941406 665.992188 232.976562 C 665.734375 234.011719 665.449219 235.042969 665.140625 236.066406 C 664.832031 237.085938 664.5 238.101562 664.140625 239.109375 C 663.78125 240.113281 663.398438 241.109375 662.988281 242.097656 C 662.582031 243.085938 662.152344 244.0625 661.695312 245.027344 C 661.238281 245.992188 660.761719 246.949219 660.257812 247.890625 C 659.753906 248.832031 659.230469 249.761719 658.683594 250.679688 C 658.132812 251.597656 657.5625 252.5 656.972656 253.386719 C 656.378906 254.277344 655.765625 255.148438 655.128906 256.007812 C 654.496094 256.867188 653.839844 257.707031 653.160156 258.535156 C 652.484375 259.363281 651.789062 260.171875 651.074219 260.960938 C 650.355469 261.753906 649.621094 262.527344 648.867188 263.285156 C 648.113281 264.039062 647.339844 264.777344 646.550781 265.496094 C 645.757812 266.214844 644.949219 266.914062 644.125 267.589844 C 643.300781 268.269531 642.460938 268.925781 641.601562 269.5625 C 640.746094 270.199219 639.875 270.816406 638.988281 271.410156 C 638.101562 272.003906 637.199219 272.578125 636.28125 273.128906 C 635.367188 273.675781 634.441406 274.203125 633.5 274.707031 C 632.558594 275.214844 631.605469 275.695312 630.640625 276.152344 C 629.675781 276.609375 628.699219 277.042969 627.710938 277.453125 C 626.726562 277.863281 625.730469 278.246094 624.726562 278.609375 C 623.722656 278.96875 622.707031 279.304688 621.6875 279.617188 C 620.664062 279.925781 619.636719 280.210938 618.601562 280.472656 C 617.566406 280.734375 616.523438 280.96875 615.476562 281.179688 C 614.429688 281.386719 613.378906 281.570312 612.320312 281.726562 C 611.265625 281.886719 610.207031 282.019531 609.144531 282.125 C 608.082031 282.230469 607.015625 282.308594 605.949219 282.363281 C 604.882812 282.414062 603.816406 282.441406 602.75 282.445312 C 601.683594 282.445312 600.613281 282.417969 599.546875 282.367188 C 598.480469 282.316406 597.417969 282.238281 596.355469 282.136719 C 595.292969 282.03125 594.230469 281.902344 593.175781 281.746094 C 592.121094 281.589844 591.066406 281.410156 590.019531 281.203125 C 588.972656 280.992188 587.929688 280.761719 586.894531 280.503906 C 585.859375 280.242188 584.828125 279.960938 583.808594 279.652344 C 582.785156 279.339844 581.773438 279.007812 580.765625 278.648438 C 579.761719 278.289062 578.765625 277.90625 577.777344 277.5 C 576.789062 277.089844 575.8125 276.660156 574.847656 276.203125 C 573.882812 275.746094 572.929688 275.269531 571.988281 274.765625 C 571.042969 274.261719 570.117188 273.738281 569.199219 273.1875 C 568.28125 272.640625 567.378906 272.070312 566.492188 271.476562 C 565.605469 270.886719 564.730469 270.269531 563.871094 269.636719 C 563.015625 269 562.171875 268.34375 561.34375 267.667969 C 560.519531 266.992188 559.710938 266.292969 558.917969 265.578125 C 558.128906 264.859375 557.351562 264.125 556.597656 263.371094 C 555.84375 262.617188 555.105469 261.84375 554.386719 261.050781 C 553.667969 260.261719 552.972656 259.453125 552.292969 258.628906 C 551.617188 257.804688 550.957031 256.960938 550.320312 256.105469 C 549.683594 255.246094 549.070312 254.375 548.472656 253.488281 C 547.878906 252.601562 547.308594 251.699219 546.757812 250.78125 C 546.210938 249.867188 545.683594 248.9375 545.179688 247.996094 C 544.671875 247.054688 544.191406 246.101562 543.734375 245.136719 C 543.277344 244.171875 542.84375 243.195312 542.433594 242.210938 C 542.027344 241.222656 541.640625 240.226562 541.28125 239.222656 C 540.917969 238.214844 540.582031 237.203125 540.273438 236.179688 C 539.960938 235.160156 539.675781 234.128906 539.414062 233.09375 C 539.15625 232.058594 538.921875 231.015625 538.710938 229.96875 C 538.5 228.921875 538.316406 227.871094 538.160156 226.8125 C 538.003906 225.757812 537.871094 224.699219 537.765625 223.632812 C 537.660156 222.570312 537.582031 221.507812 537.527344 220.441406 C 537.472656 219.375 537.445312 218.304688 537.445312 217.238281 C 537.445312 216.167969 537.46875 215.101562 537.519531 214.035156 C 537.574219 212.96875 537.648438 211.902344 537.753906 210.839844 C 537.855469 209.777344 537.988281 208.71875 538.144531 207.660156 C 538.296875 206.605469 538.480469 205.550781 538.6875 204.503906 C 538.894531 203.457031 539.128906 202.414062 539.386719 201.378906 C 539.644531 200.339844 539.929688 199.3125 540.238281 198.289062 C 540.546875 197.265625 540.878906 196.253906 541.238281 195.246094 C 541.597656 194.242188 541.980469 193.242188 542.390625 192.257812 C 542.796875 191.269531 543.226562 190.292969 543.683594 189.328125 C 544.140625 188.359375 544.617188 187.40625 545.121094 186.464844 C 545.625 185.523438 546.148438 184.59375 546.695312 183.675781 C 547.246094 182.757812 547.816406 181.855469 548.40625 180.96875 C 549 180.078125 549.613281 179.207031 550.25 178.347656 C 550.882812 177.488281 551.539062 176.644531 552.21875 175.820312 C 552.894531 174.992188 553.589844 174.183594 554.304688 173.390625 C 555.023438 172.601562 555.757812 171.824219 556.511719 171.070312 C 557.265625 170.3125 558.039062 169.578125 558.828125 168.859375 C 559.621094 168.140625 560.425781 167.441406 561.253906 166.765625 C 562.078125 166.085938 562.917969 165.429688 563.773438 164.792969 C 564.632812 164.152344 565.503906 163.539062 566.390625 162.945312 C 567.277344 162.351562 568.179688 161.777344 569.09375 161.226562 C 570.011719 160.679688 570.9375 160.152344 571.878906 159.644531 C 572.820312 159.140625 573.773438 158.660156 574.738281 158.203125 C 575.703125 157.746094 576.679688 157.3125 577.664062 156.902344 C 578.652344 156.492188 579.648438 156.109375 580.652344 155.746094 C 581.65625 155.386719 582.671875 155.050781 583.691406 154.738281 C 584.714844 154.429688 585.742188 154.140625 586.777344 153.882812 C 587.8125 153.621094 588.855469 153.386719 589.902344 153.175781 C 590.949219 152.96875 592 152.785156 593.054688 152.625 C 594.113281 152.46875 595.171875 152.335938 596.234375 152.230469 C 597.296875 152.125 598.359375 152.046875 599.425781 151.992188 C 600.492188 151.9375 601.5625 151.914062 602.628906 151.910156 C 603.695312 151.910156 604.765625 151.933594 605.832031 151.988281 C 606.898438 152.039062 607.960938 152.117188 609.023438 152.21875 C 610.085938 152.324219 611.144531 152.453125 612.203125 152.609375 C 613.257812 152.765625 614.3125 152.945312 615.359375 153.152344 C 616.40625 153.359375 617.449219 153.59375 618.484375 153.851562 C 619.519531 154.109375 620.546875 154.394531 621.570312 154.703125 C 622.59375 155.011719 623.605469 155.347656 624.613281 155.707031 C 625.617188 156.066406 626.613281 156.449219 627.601562 156.855469 C 628.589844 157.265625 629.5625 157.695312 630.53125 158.152344 C 631.496094 158.605469 632.449219 159.085938 633.390625 159.589844 Z M 633.390625 159.589844 " fill-opacity="1" fill-rule="nonzero"/><g clip-path="url(#f1bb4da03b)"><path fill="#000000" d="M 500.15625 551 C 501.839844 553.414062 502.871094 556.421875 502.871094 560.210938 C 502.871094 565.378906 501.121094 570.953125 498.183594 575.976562 C 491.804688 570.226562 483.382812 566.699219 474.113281 566.699219 C 464.851562 566.699219 456.429688 570.226562 450.046875 575.976562 C 447.109375 570.953125 445.363281 565.382812 445.363281 560.210938 C 445.363281 555.601562 446.882812 552.148438 449.257812 549.527344 C 447.1875 545.921875 445.835938 541.851562 445.429688 537.503906 C 437.90625 542.671875 433.761719 550.394531 433.761719 560.210938 C 433.761719 568.765625 436.988281 577.90625 442.425781 585.589844 C 439.664062 590.6875 438.09375 596.527344 438.09375 602.730469 C 438.09375 622.628906 454.222656 638.761719 474.113281 638.761719 C 494.011719 638.761719 510.136719 622.628906 510.136719 602.730469 C 510.136719 596.523438 508.566406 590.6875 505.804688 585.589844 C 511.246094 577.90625 514.46875 568.765625 514.46875 560.210938 C 514.46875 551.25 511.011719 544.039062 504.691406 538.914062 C 504.0625 543.324219 502.492188 547.425781 500.15625 551 Z M 500.15625 551 " fill-opacity="1" fill-rule="nonzero"/></g><path fill="#000000" d="M 451.957031 534.707031 C 451.957031 547.519531 462.34375 557.910156 475.152344 557.910156 C 487.964844 557.910156 498.351562 547.519531 498.351562 534.707031 L 498.351562 284.816406 C 498.351562 272 487.964844 261.613281 475.152344 261.613281 C 462.34375 261.613281 451.957031 272 451.957031 284.816406 Z M 451.957031 534.707031 " fill-opacity="1" fill-rule="nonzero"/></svg>