<svg xmlns="http://www.w3.org/2000/svg" xmlns:xlink="http://www.w3.org/1999/xlink" width="1024" zoomAndPan="magnify" viewBox="0 0 768 775.92" height="1024" preserveAspectRatio="xMidYMid meet" version="1.0"><defs><clipPath id="f1db4fce87"><path d="M 486 422 L 614 422 L 614 690.980469 L 486 690.980469 Z M 486 422 " clip-rule="nonzero"/></clipPath><clipPath id="daf80f2317"><path d="M 153.625 422 L 282 422 L 282 690.980469 L 153.625 690.980469 Z M 153.625 422 " clip-rule="nonzero"/></clipPath><clipPath id="301e1ba4e7"><path d="M 269 555 L 498 555 L 498 690.980469 L 269 690.980469 Z M 269 555 " clip-rule="nonzero"/></clipPath><clipPath id="760e69072a"><path d="M 163 76.792969 L 605 76.792969 L 605 476 L 163 476 Z M 163 76.792969 " clip-rule="nonzero"/></clipPath></defs><g clip-path="url(#f1db4fce87)"><path fill="#000000" d="M 507.007812 423.800781 C 499.707031 423.78125 492.785156 423.285156 486.304688 422.480469 C 494.9375 468.074219 504.265625 518.460938 512.160156 561.449219 C 514.144531 572.246094 516.035156 582.570312 517.804688 592.234375 C 525.472656 609.820312 532.074219 629.714844 537.558594 651.882812 C 537.640625 652.214844 537.730469 652.53125 537.8125 652.867188 C 538.691406 656.472656 538.882812 660.078125 538.535156 663.574219 C 537.28125 676.148438 528.585938 687.199219 515.945312 690.976562 L 613.808594 690.976562 L 613.808594 662.171875 C 613.808594 656.488281 609.203125 651.882812 603.527344 651.882812 L 549.566406 651.882812 C 545.304688 628.375 533.601562 563.945312 520.917969 495.589844 C 516.46875 471.609375 511.902344 447.148438 507.488281 423.796875 C 507.429688 423.796875 507.371094 423.796875 507.316406 423.796875 L 507.007812 423.796875 Z M 507.007812 423.800781 " fill-opacity="1" fill-rule="nonzero"/></g><g clip-path="url(#daf80f2317)"><path fill="#000000" d="M 233.519531 676.984375 C 231 672.832031 229.53125 668.265625 229.070312 663.574219 C 228.726562 660.03125 228.945312 656.421875 229.820312 652.867188 C 229.902344 652.535156 229.988281 652.214844 230.070312 651.882812 C 235.554688 629.738281 242.152344 609.796875 249.820312 592.1875 C 257.988281 547.515625 268.808594 488.738281 278.953125 434.933594 C 279.742188 430.746094 280.527344 426.585938 281.308594 422.464844 C 274.828125 423.269531 267.925781 423.78125 260.621094 423.796875 L 260.292969 423.796875 C 260.238281 423.796875 260.179688 423.792969 260.125 423.792969 C 243.132812 513.726562 223.792969 620.15625 218.046875 651.886719 L 164.085938 651.886719 C 158.40625 651.886719 153.804688 656.488281 153.804688 662.171875 L 153.804688 690.980469 L 251.664062 690.980469 C 244.070312 688.710938 237.65625 683.808594 233.519531 676.984375 Z M 233.519531 676.984375 " fill-opacity="1" fill-rule="nonzero"/></g><g clip-path="url(#301e1ba4e7)"><path fill="#000000" d="M 475.882812 668.050781 C 474.488281 662.34375 473.039062 656.960938 471.5625 651.886719 L 396.148438 651.886719 L 396.148438 581.582031 L 421.859375 581.582031 C 426.382812 581.582031 430.179688 578.640625 431.554688 574.582031 C 425.898438 569.179688 420.15625 565.414062 414.195312 563.234375 C 413.636719 563.035156 413.109375 562.871094 412.601562 562.722656 C 409.746094 561.882812 407.746094 561.765625 406.921875 561.757812 C 405.511719 561.941406 404.097656 562.039062 402.691406 562.039062 C 395.863281 562.039062 389.277344 559.847656 383.808594 555.808594 C 378.34375 559.84375 371.757812 562.03125 364.9375 562.03125 C 363.558594 562.03125 362.175781 561.949219 360.804688 561.765625 C 359.835938 561.765625 357.839844 561.898438 355.015625 562.726562 C 354.5 562.878906 353.960938 563.042969 353.390625 563.25 C 348.039062 565.15625 342.835938 568.421875 337.480469 573.242188 C 337.011719 573.660156 336.535156 574.105469 336.054688 574.5625 C 337.425781 578.636719 341.230469 581.582031 345.757812 581.582031 L 371.46875 581.582031 L 371.46875 651.886719 L 296.0625 651.886719 C 294.582031 656.980469 293.140625 662.355469 291.742188 668.050781 C 288.988281 679.261719 280.570312 687.800781 269.980469 690.980469 L 497.636719 690.980469 C 487.050781 687.800781 478.632812 679.261719 475.882812 668.050781 Z M 475.882812 668.050781 " fill-opacity="1" fill-rule="nonzero"/></g><path fill="#000000" d="M 355.015625 361.417969 C 355.296875 361.644531 355.585938 361.859375 355.875 362.078125 C 357.890625 363.609375 360.039062 364.992188 362.320312 366.1875 C 365.726562 367.96875 369.40625 369.355469 373.324219 370.265625 C 384.5625 372.882812 395.789062 371.152344 405.265625 366.1875 C 407.539062 364.996094 409.714844 363.625 411.757812 362.078125 C 412.042969 361.859375 412.324219 361.632812 412.605469 361.410156 C 420.496094 355.140625 426.417969 346.269531 428.878906 335.6875 C 433.066406 317.703125 426.148438 299.730469 412.605469 288.945312 C 407.398438 284.804688 401.222656 281.714844 394.3125 280.105469 C 379.996094 276.773438 365.691406 280.492188 355.015625 288.980469 C 347.132812 295.25 341.21875 304.117188 338.757812 314.691406 C 334.570312 332.671875 341.480469 350.640625 355.015625 361.417969 Z M 355.015625 361.417969 " fill-opacity="1" fill-rule="nonzero"/><path fill="#000000" d="M 485.507812 418.246094 C 492.089844 419.109375 499.1875 419.648438 506.710938 419.679688 C 506.808594 419.679688 506.910156 419.683594 507.007812 419.683594 C 507.109375 419.683594 507.21875 419.683594 507.320312 419.683594 C 520.765625 419.683594 535.605469 417.894531 550.992188 413.300781 L 550.992188 373.859375 C 534.65625 380.382812 518.664062 382.605469 504.949219 382.648438 C 503.117188 382.648438 501.351562 382.597656 499.625 382.519531 C 491.378906 382.148438 484.324219 380.941406 478.082031 379.425781 C 474.933594 378.660156 471.988281 377.828125 469.21875 376.976562 C 468.804688 376.847656 468.371094 376.722656 467.964844 376.59375 C 464.019531 375.367188 460.777344 374.144531 458.355469 373.152344 C 457.820312 372.929688 457.308594 372.71875 456.855469 372.519531 C 455.609375 371.988281 454.691406 371.558594 454.128906 371.289062 C 453.859375 371.15625 453.664062 371.066406 453.566406 371.015625 L 453.570312 371.011719 C 451.9375 370.152344 450.234375 369.566406 448.515625 369.226562 C 445.433594 367.285156 441.910156 366.183594 438.164062 366.183594 L 413.171875 366.183594 C 412.980469 366.316406 412.796875 366.464844 412.601562 366.597656 C 404.40625 372.300781 394.484375 375.59375 383.855469 375.59375 C 380.019531 375.59375 376.160156 375.148438 372.394531 374.273438 C 366.058594 372.800781 360.195312 370.148438 355.015625 366.535156 C 354.835938 366.414062 354.640625 366.308594 354.460938 366.179688 L 329.453125 366.179688 C 325.707031 366.179688 322.183594 367.28125 319.105469 369.21875 C 317.382812 369.558594 315.675781 370.144531 314.042969 371.007812 C 313.691406 371.203125 312.019531 372.027344 309.265625 373.152344 C 306.511719 374.273438 302.671875 375.695312 297.96875 377.097656 C 295.40625 377.859375 292.585938 378.613281 289.546875 379.3125 C 283.214844 380.765625 275.921875 381.960938 268.003906 382.425781 C 265.589844 382.566406 263.128906 382.644531 260.609375 382.640625 C 247.050781 382.597656 232.15625 380.425781 216.621094 374.070312 L 216.621094 413.296875 C 232.007812 417.886719 246.847656 419.675781 260.292969 419.675781 C 260.398438 419.675781 260.503906 419.675781 260.609375 419.675781 C 260.707031 419.675781 260.800781 419.671875 260.898438 419.671875 C 268.421875 419.640625 275.523438 419.101562 282.105469 418.238281 C 290.453125 417.140625 297.957031 415.523438 304.464844 413.761719 C 305.839844 413.390625 307.179688 413.015625 308.460938 412.632812 C 309.832031 412.226562 311.136719 411.816406 312.398438 411.40625 L 334.730469 506.582031 C 334.332031 506.714844 333.949219 506.824219 333.546875 506.96875 C 316.828125 512.777344 297.003906 525.554688 279.347656 548.828125 C 267.15625 564.828125 255.824219 585.59375 246.078125 612.6875 C 241.832031 624.496094 237.890625 637.535156 234.304688 651.878906 C 234.140625 652.539062 233.96875 653.171875 233.808594 653.835938 C 232.9375 657.382812 232.8125 660.929688 233.292969 664.332031 C 234.835938 675.242188 242.8125 684.644531 254.164062 687.429688 C 256.386719 687.976562 258.609375 688.234375 260.800781 688.234375 C 273.285156 688.234375 284.632812 679.742188 287.746094 667.070312 C 289.046875 661.75 290.394531 656.695312 291.777344 651.878906 C 305.273438 604.871094 322.113281 581.507812 334.730469 570.175781 C 334.984375 569.949219 335.222656 569.753906 335.476562 569.535156 C 342.148438 563.691406 347.742188 560.886719 352.015625 559.363281 C 353.097656 558.980469 354.097656 558.6875 355.015625 558.453125 C 357.839844 557.738281 359.832031 557.644531 360.738281 557.644531 C 360.933594 557.644531 361.046875 557.648438 361.113281 557.652344 C 369.65625 558.839844 377.878906 555.964844 383.804688 550.46875 C 389.742188 555.980469 397.988281 558.855469 406.550781 557.644531 C 406.632812 557.644531 406.742188 557.644531 406.878906 557.644531 C 407.785156 557.644531 409.78125 557.738281 412.601562 558.453125 C 413.519531 558.6875 414.523438 558.984375 415.605469 559.363281 C 419.835938 560.914062 425.484375 563.65625 432.140625 569.519531 C 435.847656 572.785156 439.855469 576.996094 444.121094 582.539062 C 454.5 596.109375 466.074219 617.855469 475.84375 651.878906 C 477.226562 656.691406 478.574219 661.746094 479.875 667.0625 C 482.984375 679.738281 494.328125 688.234375 506.820312 688.234375 C 509.007812 688.234375 511.230469 687.972656 513.453125 687.425781 C 524.804688 684.640625 532.777344 675.242188 534.320312 664.332031 C 534.804688 660.929688 534.679688 657.378906 533.8125 653.835938 C 533.648438 653.175781 533.480469 652.53125 533.316406 651.875 C 529.742188 637.554688 525.800781 624.550781 521.546875 612.738281 C 507.0625 572.464844 489.03125 546.066406 470.085938 528.921875 C 457.765625 517.78125 445.179688 510.867188 434.070312 506.96875 C 433.667969 506.828125 433.289062 506.71875 432.890625 506.582031 L 455.222656 411.40625 C 456.480469 411.816406 457.789062 412.226562 459.160156 412.636719 C 462.316406 413.570312 465.753906 414.488281 469.449219 415.339844 C 474.363281 416.480469 479.734375 417.488281 485.507812 418.246094 Z M 485.507812 418.246094 " fill-opacity="1" fill-rule="nonzero"/><g clip-path="url(#760e69072a)"><path fill="#000000" d="M 177.304688 214.648438 L 177.304688 327.816406 L 173.429688 327.816406 C 167.75 327.816406 163.144531 332.421875 163.144531 338.105469 L 163.144531 446.464844 C 163.144531 452.148438 167.75 456.753906 173.429688 456.753906 L 177.3125 456.753906 L 177.3125 475.863281 L 197.878906 475.863281 L 197.878906 456.753906 L 202.222656 456.753906 C 207.902344 456.753906 212.507812 452.148438 212.507812 446.464844 L 212.507812 338.105469 C 212.507812 332.421875 207.902344 327.816406 202.222656 327.816406 L 197.878906 327.816406 L 197.878906 214.648438 C 197.90625 197.605469 211.691406 183.8125 228.730469 183.785156 L 355.015625 183.785156 L 355.015625 213.867188 C 349.921875 215.398438 344.636719 217.269531 339.480469 219.570312 C 329.246094 224.171875 318.386719 229.164062 309.105469 240.1875 C 299.863281 251.179688 292.789062 266.878906 286.421875 292.300781 C 283.207031 305.195312 277.324219 334.277344 270.164062 371.222656 C 269.71875 373.527344 269.265625 375.871094 268.8125 378.234375 C 276.835938 377.6875 284.164062 376.398438 290.410156 374.871094 C 297.519531 338.175781 303.40625 309.136719 306.371094 297.289062 C 312.339844 273.332031 318.636719 260.738281 324.820312 253.464844 C 330.96875 246.230469 337.585938 242.992188 347.921875 238.335938 C 350.210938 237.300781 352.597656 236.355469 355.011719 235.496094 L 355.011719 283.785156 C 363.214844 278.078125 373.144531 274.777344 383.777344 274.777344 C 387.613281 274.777344 391.472656 275.226562 395.238281 276.097656 C 401.660156 277.59375 407.5 280.277344 412.597656 283.84375 L 412.597656 235.5 C 415.015625 236.359375 417.398438 237.296875 419.691406 238.339844 C 430.023438 242.996094 436.648438 246.230469 442.792969 253.472656 C 448.972656 260.738281 455.269531 273.335938 461.238281 297.292969 C 464.191406 309.074219 470.125 338.3125 477.222656 374.980469 C 483.214844 376.535156 490.308594 377.902344 498.820312 378.363281 C 498.355469 375.953125 497.898438 373.574219 497.445312 371.222656 C 490.285156 334.285156 484.40625 305.195312 481.195312 292.300781 C 474.820312 266.882812 467.746094 251.183594 458.5 240.191406 C 449.226562 229.167969 438.367188 224.175781 428.132812 219.578125 C 422.976562 217.277344 417.695312 215.402344 412.597656 213.871094 L 412.597656 183.785156 L 538.878906 183.785156 C 555.917969 183.8125 569.707031 197.605469 569.734375 214.648438 L 569.734375 327.816406 L 565.386719 327.816406 C 559.707031 327.816406 555.105469 332.421875 555.105469 338.105469 L 555.105469 446.46875 C 555.105469 452.152344 559.707031 456.757812 565.386719 456.757812 L 569.734375 456.757812 L 569.734375 475.867188 L 590.300781 475.867188 L 590.300781 456.757812 L 594.183594 456.757812 C 599.863281 456.757812 604.464844 452.152344 604.464844 446.46875 L 604.464844 338.105469 C 604.464844 332.421875 599.863281 327.816406 594.183594 327.816406 L 590.304688 327.816406 L 590.308594 214.648438 C 590.300781 186.230469 567.289062 163.214844 538.878906 163.210938 L 412.597656 163.210938 L 412.597656 126.175781 L 437.964844 126.175781 C 443.644531 126.175781 448.25 121.570312 448.25 115.886719 L 448.25 87.078125 C 448.25 81.398438 443.644531 76.792969 437.964844 76.792969 L 329.648438 76.792969 C 323.96875 76.792969 319.363281 81.398438 319.363281 87.078125 L 319.363281 115.886719 C 319.363281 121.570312 323.96875 126.175781 329.648438 126.175781 L 355.015625 126.175781 L 355.015625 163.210938 L 228.730469 163.210938 C 200.324219 163.214844 177.308594 186.230469 177.304688 214.648438 Z M 177.304688 214.648438 " fill-opacity="1" fill-rule="nonzero"/></g></svg>