<svg xmlns="http://www.w3.org/2000/svg" xmlns:xlink="http://www.w3.org/1999/xlink" width="1024" zoomAndPan="magnify" viewBox="0 0 768 775.92" height="1024" preserveAspectRatio="xMidYMid meet" version="1.0"><defs><clipPath id="c4a38f0cf5"><path d="M 185 76.792969 L 583 76.792969 L 583 690.980469 L 185 690.980469 Z M 185 76.792969 " clip-rule="nonzero"/></clipPath></defs><path fill="#000000" d="M 304.074219 379.25 L 304.074219 170.441406 L 291.449219 172.96875 L 291.449219 383.851562 Z M 304.074219 379.25 " fill-opacity="1" fill-rule="nonzero"/><path fill="#000000" d="M 304.074219 515.269531 L 304.074219 428.011719 L 291.449219 432.613281 L 291.449219 518.40625 C 293.421875 517.578125 295.484375 516.9375 297.632812 516.519531 Z M 304.074219 515.269531 " fill-opacity="1" fill-rule="nonzero"/><path fill="#000000" d="M 463.984375 515.269531 L 470.421875 516.519531 C 472.570312 516.9375 474.636719 517.578125 476.605469 518.40625 L 476.605469 432.613281 L 463.984375 428.011719 Z M 463.984375 515.269531 " fill-opacity="1" fill-rule="nonzero"/><path fill="#000000" d="M 463.984375 170.441406 L 463.984375 379.25 L 476.605469 383.851562 L 476.605469 172.96875 Z M 463.984375 170.441406 " fill-opacity="1" fill-rule="nonzero"/><path fill="#000000" d="M 345.070312 180.179688 L 338.824219 180.179688 L 338.824219 286.027344 C 340.640625 283.085938 342.734375 280.335938 345.070312 277.8125 Z M 345.070312 180.179688 " fill-opacity="1" fill-rule="nonzero"/><path fill="#000000" d="M 343.804688 366.332031 L 345.070312 366.332031 L 345.070312 349.886719 C 342.734375 347.359375 340.640625 344.613281 338.824219 341.671875 L 338.824219 366.898438 C 339.421875 366.777344 340.019531 366.652344 340.632812 366.574219 C 341.667969 366.417969 342.761719 366.332031 343.804688 366.332031 Z M 343.804688 366.332031 " fill-opacity="1" fill-rule="nonzero"/><path fill="#000000" d="M 422.988281 349.878906 L 422.988281 366.328125 L 424.25 366.328125 C 425.292969 366.328125 426.386719 366.414062 427.589844 366.597656 C 428.125 366.664062 428.683594 366.785156 429.234375 366.898438 L 429.234375 341.664062 C 427.417969 344.605469 425.320312 347.355469 422.988281 349.878906 Z M 422.988281 349.878906 " fill-opacity="1" fill-rule="nonzero"/><path fill="#000000" d="M 422.988281 180.179688 L 422.988281 277.816406 C 425.324219 280.34375 427.417969 283.09375 429.234375 286.035156 L 429.234375 180.179688 Z M 422.988281 180.179688 " fill-opacity="1" fill-rule="nonzero"/><path fill="#000000" d="M 422.988281 652.953125 L 429.234375 653.3125 L 429.234375 639.121094 L 434.261719 639.121094 L 434.261719 627.019531 L 429.234375 627.019531 L 429.234375 619.652344 L 434.261719 619.652344 L 434.261719 607.550781 L 429.234375 607.550781 L 429.234375 600.183594 L 434.261719 600.183594 L 434.261719 588.082031 L 429.234375 588.082031 L 429.234375 587.359375 L 422.988281 587.359375 L 422.988281 588.082031 L 400.796875 588.082031 L 400.796875 600.183594 L 422.988281 600.183594 L 422.988281 607.550781 L 400.796875 607.550781 L 400.796875 619.652344 L 422.988281 619.652344 L 422.988281 627.019531 L 400.796875 627.019531 L 400.796875 639.121094 L 422.988281 639.121094 Z M 422.988281 652.953125 " fill-opacity="1" fill-rule="nonzero"/><path fill="#000000" d="M 333.792969 588.082031 L 333.792969 600.183594 L 338.824219 600.183594 L 338.824219 607.550781 L 333.792969 607.550781 L 333.792969 619.652344 L 338.824219 619.652344 L 338.824219 627.019531 L 333.792969 627.019531 L 333.792969 639.121094 L 338.824219 639.121094 L 338.824219 653.3125 L 345.070312 652.953125 L 345.070312 639.121094 L 367.261719 639.121094 L 367.261719 627.019531 L 345.070312 627.019531 L 345.070312 619.652344 L 367.261719 619.652344 L 367.261719 607.550781 L 345.070312 607.550781 L 345.070312 600.183594 L 367.261719 600.183594 L 367.261719 588.082031 L 345.070312 588.082031 L 345.070312 587.359375 L 338.824219 587.359375 L 338.824219 588.082031 Z M 333.792969 588.082031 " fill-opacity="1" fill-rule="nonzero"/><path fill="#000000" d="M 566.066406 667.308594 L 523.46875 664.976562 C 523.5625 669.625 522.613281 674.210938 520.703125 678.476562 L 566.066406 678.476562 Z M 566.066406 667.308594 " fill-opacity="1" fill-rule="nonzero"/><path fill="#000000" d="M 244.585938 664.976562 L 201.992188 667.308594 L 201.992188 678.476562 L 247.351562 678.476562 C 245.441406 674.210938 244.488281 669.625 244.585938 664.976562 Z M 244.585938 664.976562 " fill-opacity="1" fill-rule="nonzero"/><path fill="#000000" d="M 458.167969 661.40625 L 394.550781 657.929688 L 394.550781 581.109375 L 429.398438 581.109375 C 433.042969 581.109375 436.316406 579.484375 438.5625 576.933594 L 438.105469 574.953125 L 387.84375 565.199219 C 386.554688 564.949219 385.28125 564.617188 384.027344 564.210938 C 382.773438 564.617188 381.5 564.949219 380.210938 565.199219 L 329.953125 574.953125 L 329.492188 576.933594 C 331.738281 579.484375 335.015625 581.109375 338.660156 581.109375 L 373.503906 581.109375 L 373.503906 657.929688 L 309.882812 661.40625 L 307.253906 672.742188 C 306.789062 674.742188 306.128906 676.65625 305.324219 678.476562 L 462.730469 678.476562 C 461.925781 676.65625 461.261719 674.746094 460.800781 672.742188 Z M 458.167969 661.40625 " fill-opacity="1" fill-rule="nonzero"/><path fill="#000000" d="M 394.550781 366.332031 L 394.550781 365.90625 C 393.769531 366.066406 392.980469 366.207031 392.1875 366.332031 Z M 394.550781 366.332031 " fill-opacity="1" fill-rule="nonzero"/><path fill="#000000" d="M 373.507812 365.90625 L 373.507812 366.332031 L 375.863281 366.332031 C 375.074219 366.207031 374.289062 366.0625 373.507812 365.90625 Z M 373.507812 365.90625 " fill-opacity="1" fill-rule="nonzero"/><path fill="#000000" d="M 595.058594 404.347656 C 594.105469 396.78125 588.21875 391.054688 581.027344 389.96875 L 586.75 420.917969 C 592.441406 417.683594 595.925781 411.246094 595.058594 404.347656 Z M 595.058594 404.347656 " fill-opacity="1" fill-rule="nonzero"/><path fill="#000000" d="M 172.996094 404.347656 C 172.128906 411.246094 175.613281 417.6875 181.304688 420.917969 L 187.027344 389.96875 C 179.835938 391.054688 173.949219 396.777344 172.996094 404.347656 Z M 172.996094 404.347656 " fill-opacity="1" fill-rule="nonzero"/><g clip-path="url(#c4a38f0cf5)"><path fill="#000000" d="M 266.871094 432.957031 C 267.5625 433.042969 268.257812 433.085938 268.949219 433.085938 C 270.890625 433.085938 272.816406 432.746094 274.648438 432.082031 L 327.710938 412.753906 L 327.710938 517.046875 L 298.820312 522.652344 C 288.9375 524.570312 281.105469 532.125 278.832031 541.929688 L 251.476562 659.789062 C 248.292969 673.515625 256.832031 687.226562 270.554688 690.414062 C 272.496094 690.863281 274.433594 691.078125 276.34375 691.078125 C 287.941406 691.078125 298.433594 683.113281 301.167969 671.328125 L 324.777344 569.59375 L 379.019531 559.066406 C 380.769531 558.726562 382.441406 558.214844 384.023438 557.550781 C 385.605469 558.214844 387.277344 558.726562 389.027344 559.066406 L 443.265625 569.59375 L 466.878906 671.328125 C 469.613281 683.113281 480.105469 691.078125 491.703125 691.078125 C 493.613281 691.078125 495.554688 690.863281 497.492188 690.414062 C 511.214844 687.226562 519.753906 673.515625 516.570312 659.789062 L 489.214844 541.929688 C 486.941406 532.125 479.109375 524.570312 469.226562 522.652344 L 440.332031 517.046875 L 440.332031 412.753906 L 493.398438 432.082031 C 495.230469 432.746094 497.160156 433.085938 499.097656 433.085938 C 499.789062 433.085938 500.484375 433.042969 501.175781 432.957031 L 566.28125 424.761719 L 567.417969 430.914062 L 568.195312 435.113281 C 568.578125 437.1875 569.8125 438.875 571.464844 439.921875 C 572.609375 440.648438 573.941406 441.078125 575.351562 441.078125 C 575.792969 441.078125 576.238281 441.035156 576.6875 440.953125 C 580.644531 440.21875 583.257812 436.417969 582.527344 432.460938 L 539.59375 200.164062 C 535.417969 177.558594 518.152344 160.039062 495.617188 155.53125 L 445.175781 145.441406 L 445.175781 116.667969 L 463.984375 116.667969 L 463.984375 142.832031 L 476.605469 145.355469 L 476.605469 116.667969 L 497.820312 116.667969 L 497.820312 104.042969 L 445.175781 104.042969 L 445.175781 88.628906 L 421.703125 88.628906 L 421.703125 76.792969 L 346.351562 76.792969 L 346.351562 88.628906 L 322.878906 88.628906 L 322.878906 104.042969 L 270.234375 104.042969 L 270.234375 116.667969 L 291.449219 116.667969 L 291.449219 145.355469 L 304.074219 142.828125 L 304.074219 116.667969 L 322.878906 116.667969 L 322.878906 145.441406 L 272.4375 155.53125 C 249.90625 160.039062 232.640625 177.558594 228.464844 200.164062 L 185.527344 432.464844 C 184.792969 436.421875 187.40625 440.226562 191.367188 440.957031 C 191.816406 441.039062 192.261719 441.082031 192.699219 441.082031 C 193.265625 441.082031 193.816406 440.992188 194.351562 440.867188 C 197.078125 440.222656 199.316406 438.050781 199.855469 435.117188 L 200.632812 430.917969 L 201.769531 424.765625 Z M 242.796875 202.816406 C 245.886719 186.105469 258.640625 173.160156 275.300781 169.824219 L 322.878906 160.308594 L 322.878906 171.5 L 373.507812 171.5 L 373.507812 261.792969 C 376.910156 261.105469 380.429688 260.742188 384.027344 260.742188 C 387.628906 260.742188 391.148438 261.105469 394.550781 261.792969 L 394.550781 171.5 L 445.179688 171.5 L 445.179688 160.308594 L 492.761719 169.828125 C 509.421875 173.160156 522.179688 186.109375 525.265625 202.816406 L 558.34375 381.761719 L 559.085938 385.785156 L 560.222656 391.9375 L 501.023438 399.390625 L 430.355469 373.652344 C 429.132812 373.207031 427.898438 372.929688 426.664062 372.777344 C 425.875 372.660156 425.074219 372.578125 424.253906 372.578125 L 343.804688 372.578125 C 342.984375 372.578125 342.183594 372.660156 341.394531 372.777344 C 340.15625 372.929688 338.921875 373.207031 337.703125 373.652344 L 267.039062 399.390625 L 207.839844 391.9375 L 208.976562 385.785156 L 210.75 376.199219 Z M 242.796875 202.816406 " fill-opacity="1" fill-rule="nonzero"/></g><path fill="#000000" d="M 430.875 313.847656 C 430.875 315.382812 430.800781 316.914062 430.648438 318.441406 C 430.5 319.96875 430.273438 321.484375 429.972656 322.992188 C 429.675781 324.496094 429.300781 325.984375 428.855469 327.453125 C 428.410156 328.921875 427.894531 330.363281 427.308594 331.78125 C 426.722656 333.199219 426.066406 334.585938 425.34375 335.9375 C 424.621094 337.292969 423.832031 338.605469 422.980469 339.882812 C 422.125 341.160156 421.214844 342.390625 420.242188 343.578125 C 419.265625 344.761719 418.238281 345.898438 417.152344 346.984375 C 416.066406 348.070312 414.933594 349.097656 413.746094 350.074219 C 412.558594 351.046875 411.328125 351.960938 410.054688 352.8125 C 408.777344 353.664062 407.464844 354.453125 406.109375 355.175781 C 404.757812 355.898438 403.371094 356.554688 401.953125 357.140625 C 400.535156 357.730469 399.09375 358.246094 397.625 358.691406 C 396.15625 359.136719 394.671875 359.507812 393.167969 359.808594 C 391.660156 360.109375 390.144531 360.332031 388.617188 360.484375 C 387.089844 360.632812 385.5625 360.710938 384.027344 360.710938 C 382.492188 360.710938 380.960938 360.632812 379.433594 360.484375 C 377.90625 360.332031 376.390625 360.109375 374.886719 359.808594 C 373.382812 359.507812 371.894531 359.136719 370.425781 358.691406 C 368.957031 358.246094 367.515625 357.730469 366.097656 357.140625 C 364.679688 356.554688 363.296875 355.898438 361.941406 355.175781 C 360.589844 354.453125 359.273438 353.664062 358 352.8125 C 356.722656 351.960938 355.492188 351.046875 354.304688 350.074219 C 353.121094 349.097656 351.984375 348.070312 350.898438 346.984375 C 349.816406 345.898438 348.785156 344.761719 347.8125 343.578125 C 346.839844 342.390625 345.925781 341.160156 345.074219 339.882812 C 344.222656 338.605469 343.433594 337.292969 342.710938 335.9375 C 341.988281 334.585938 341.332031 333.199219 340.746094 331.78125 C 340.15625 330.363281 339.640625 328.921875 339.195312 327.453125 C 338.75 325.984375 338.378906 324.496094 338.078125 322.992188 C 337.777344 321.484375 337.554688 319.96875 337.402344 318.441406 C 337.253906 316.914062 337.179688 315.382812 337.179688 313.847656 C 337.179688 312.3125 337.253906 310.78125 337.402344 309.253906 C 337.554688 307.726562 337.777344 306.210938 338.078125 304.707031 C 338.378906 303.203125 338.75 301.714844 339.195312 300.246094 C 339.640625 298.777344 340.15625 297.332031 340.746094 295.914062 C 341.332031 294.496094 341.988281 293.113281 342.710938 291.757812 C 343.433594 290.40625 344.222656 289.089844 345.074219 287.8125 C 345.925781 286.539062 346.839844 285.308594 347.8125 284.121094 C 348.785156 282.933594 349.816406 281.796875 350.898438 280.714844 C 351.984375 279.628906 353.121094 278.597656 354.304688 277.625 C 355.492188 276.652344 356.722656 275.738281 358 274.886719 C 359.273438 274.03125 360.589844 273.246094 361.941406 272.519531 C 363.296875 271.796875 364.679688 271.140625 366.097656 270.554688 C 367.515625 269.96875 368.957031 269.453125 370.425781 269.003906 C 371.894531 268.558594 373.382812 268.1875 374.886719 267.886719 C 376.390625 267.589844 377.90625 267.363281 379.433594 267.214844 C 380.960938 267.0625 382.492188 266.988281 384.027344 266.988281 C 385.5625 266.988281 387.089844 267.0625 388.617188 267.214844 C 390.144531 267.363281 391.660156 267.589844 393.167969 267.886719 C 394.671875 268.1875 396.15625 268.558594 397.625 269.003906 C 399.09375 269.453125 400.535156 269.96875 401.953125 270.554688 C 403.371094 271.140625 404.757812 271.796875 406.109375 272.519531 C 407.464844 273.246094 408.777344 274.03125 410.054688 274.886719 C 411.328125 275.738281 412.558594 276.652344 413.746094 277.625 C 414.933594 278.597656 416.066406 279.628906 417.152344 280.714844 C 418.238281 281.796875 419.265625 282.933594 420.242188 284.121094 C 421.214844 285.308594 422.125 286.539062 422.980469 287.8125 C 423.832031 289.089844 424.621094 290.40625 425.34375 291.757812 C 426.066406 293.113281 426.722656 294.496094 427.308594 295.914062 C 427.894531 297.332031 428.410156 298.777344 428.855469 300.246094 C 429.300781 301.714844 429.675781 303.203125 429.972656 304.707031 C 430.273438 306.210938 430.5 307.726562 430.648438 309.253906 C 430.800781 310.78125 430.875 312.3125 430.875 313.847656 Z M 430.875 313.847656 " fill-opacity="1" fill-rule="nonzero"/></svg>