<svg xmlns="http://www.w3.org/2000/svg" xmlns:xlink="http://www.w3.org/1999/xlink" width="1024" zoomAndPan="magnify" viewBox="0 0 768 775.92" height="1024" preserveAspectRatio="xMidYMid meet" version="1.0"><defs><clipPath id="bf9a1af89c"><path d="M 446 76.792969 L 595 76.792969 L 595 225 L 446 225 Z M 446 76.792969 " clip-rule="nonzero"/></clipPath></defs><path fill="#000000" d="M 295.238281 561.234375 C 295.242188 558.15625 295.347656 555.078125 295.554688 552.003906 C 295.761719 548.933594 296.070312 545.871094 296.484375 542.816406 C 296.894531 539.765625 297.40625 536.730469 298.019531 533.710938 C 298.632812 530.691406 299.347656 527.699219 300.160156 524.726562 C 300.972656 521.753906 301.882812 518.816406 302.890625 515.90625 C 303.902344 512.996094 305.003906 510.121094 306.203125 507.285156 C 307.402344 504.445312 308.695312 501.652344 310.082031 498.902344 C 311.46875 496.152344 312.941406 493.449219 314.507812 490.796875 C 316.074219 488.144531 317.726562 485.546875 319.464844 483.003906 C 321.203125 480.464844 323.023438 477.980469 324.925781 475.558594 C 326.828125 473.140625 328.8125 470.785156 330.871094 468.496094 C 332.933594 466.207031 335.066406 463.988281 337.273438 461.839844 C 339.480469 459.691406 341.757812 457.621094 344.101562 455.625 C 346.449219 453.632812 348.859375 451.714844 351.332031 449.878906 C 353.804688 448.046875 356.335938 446.296875 358.925781 444.628906 C 361.515625 442.960938 364.15625 441.382812 366.851562 439.894531 L 291.605469 316.140625 C 291.101562 315.308594 290.714844 314.425781 290.441406 313.488281 C 290.171875 312.554688 290.03125 311.597656 290.015625 310.625 C 290.003906 309.652344 290.117188 308.695312 290.359375 307.75 C 290.601562 306.808594 290.960938 305.914062 291.445312 305.066406 C 291.914062 304.214844 292.492188 303.441406 293.175781 302.75 C 293.863281 302.054688 294.628906 301.46875 295.472656 300.988281 C 296.320312 300.507812 297.21875 300.148438 298.164062 299.914062 C 299.109375 299.683594 300.066406 299.582031 301.039062 299.613281 L 384.605469 300.515625 L 385.902344 288.898438 C 385.980469 288.1875 386.128906 287.488281 386.347656 286.808594 C 386.5625 286.125 386.84375 285.46875 387.191406 284.84375 C 387.539062 284.214844 387.941406 283.628906 388.402344 283.078125 C 388.867188 282.53125 389.375 282.035156 389.9375 281.585938 C 390.496094 281.140625 391.09375 280.753906 391.730469 280.421875 C 392.367188 280.09375 393.027344 279.832031 393.714844 279.632812 C 394.402344 279.433594 395.105469 279.304688 395.820312 279.242188 C 396.53125 279.183594 397.246094 279.191406 397.957031 279.273438 C 398.667969 279.351562 399.367188 279.5 400.046875 279.71875 C 400.730469 279.933594 401.386719 280.214844 402.011719 280.5625 C 402.640625 280.910156 403.226562 281.3125 403.773438 281.773438 C 404.320312 282.238281 404.816406 282.75 405.265625 283.308594 C 405.710938 283.867188 406.101562 284.464844 406.429688 285.101562 C 406.757812 285.738281 407.023438 286.402344 407.21875 287.089844 C 407.417969 287.777344 407.546875 288.480469 407.609375 289.191406 C 407.667969 289.90625 407.660156 290.621094 407.578125 291.332031 L 392.117188 428.972656 C 405.71875 424.660156 419.65625 422.503906 433.925781 422.503906 C 438.964844 422.515625 443.988281 422.800781 448.996094 423.355469 L 505.863281 244.640625 C 502.664062 244.144531 499.5 243.488281 496.367188 242.671875 C 493.234375 241.855469 490.148438 240.878906 487.117188 239.75 C 484.082031 238.617188 481.113281 237.335938 478.210938 235.902344 C 475.304688 234.46875 472.484375 232.890625 469.742188 231.171875 C 466.996094 229.449219 464.347656 227.59375 461.792969 225.605469 C 459.238281 223.613281 456.792969 221.5 454.453125 219.257812 C 452.113281 217.019531 449.894531 214.667969 447.796875 212.203125 C 445.695312 209.738281 443.726562 207.171875 441.886719 204.503906 L 227.695312 230.207031 C 226.273438 230.355469 224.859375 230.550781 223.453125 230.804688 C 222.046875 231.054688 220.652344 231.355469 219.265625 231.707031 C 217.882812 232.058594 216.511719 232.464844 215.160156 232.917969 C 213.804688 233.371094 212.46875 233.871094 211.148438 234.425781 C 209.832031 234.976562 208.535156 235.574219 207.261719 236.222656 C 205.988281 236.871094 204.738281 237.5625 203.515625 238.300781 C 202.292969 239.039062 201.101562 239.824219 199.933594 240.648438 C 198.769531 241.476562 197.636719 242.34375 196.535156 243.253906 C 195.433594 244.164062 194.367188 245.113281 193.332031 246.101562 C 192.300781 247.089844 191.308594 248.113281 190.351562 249.175781 C 189.394531 250.234375 188.476562 251.332031 187.601562 252.460938 C 186.726562 253.589844 185.890625 254.746094 185.101562 255.9375 C 184.308594 257.128906 183.5625 258.34375 182.859375 259.589844 C 182.160156 260.835938 181.503906 262.101562 180.894531 263.394531 C 180.285156 264.6875 179.726562 266.003906 179.214844 267.335938 C 178.703125 268.671875 178.238281 270.023438 177.828125 271.390625 C 177.238281 273.5625 176.785156 275.761719 176.460938 277.992188 C 176.136719 280.21875 175.949219 282.457031 175.890625 284.707031 C 175.835938 286.957031 175.914062 289.203125 176.128906 291.445312 C 176.339844 293.683594 176.6875 295.90625 177.164062 298.105469 C 177.644531 300.304688 178.25 302.46875 178.988281 304.59375 C 179.726562 306.71875 180.585938 308.796875 181.570312 310.820312 C 182.558594 312.84375 183.660156 314.800781 184.878906 316.691406 C 186.097656 318.582031 187.425781 320.394531 188.863281 322.128906 L 280.679688 432.3125 C 282.5 434.511719 284.109375 436.851562 285.515625 439.335938 C 286.921875 441.820312 288.097656 444.40625 289.050781 447.097656 C 290 449.789062 290.710938 452.542969 291.175781 455.355469 C 291.640625 458.171875 291.859375 461.007812 291.824219 463.859375 L 288.117188 648.433594 C 288.113281 650.378906 288.257812 652.316406 288.542969 654.242188 C 288.828125 656.167969 289.253906 658.0625 289.820312 659.925781 C 290.386719 661.785156 291.089844 663.597656 291.925781 665.355469 C 292.765625 667.113281 293.726562 668.796875 294.8125 670.410156 C 295.902344 672.027344 297.105469 673.550781 298.417969 674.984375 C 299.734375 676.421875 301.148438 677.75 302.660156 678.976562 C 304.175781 680.199219 305.769531 681.304688 307.445312 682.292969 C 309.125 683.277344 310.867188 684.136719 312.671875 684.863281 C 314.476562 685.589844 316.324219 686.179688 318.21875 686.632812 C 320.113281 687.082031 322.027344 687.390625 323.964844 687.558594 C 325.90625 687.722656 327.847656 687.746094 329.789062 687.621094 C 331.730469 687.5 333.652344 687.230469 335.554688 686.824219 C 337.457031 686.414062 339.320312 685.863281 341.140625 685.179688 C 342.960938 684.492188 344.722656 683.671875 346.421875 682.722656 C 348.121094 681.773438 349.738281 680.703125 351.277344 679.511719 C 352.816406 678.324219 354.261719 677.023438 355.609375 675.617188 C 353.292969 674.035156 351.03125 672.382812 348.816406 670.664062 C 346.601562 668.945312 344.441406 667.15625 342.335938 665.304688 C 340.230469 663.453125 338.183594 661.542969 336.195312 659.566406 C 334.207031 657.589844 332.277344 655.554688 330.410156 653.464844 C 328.546875 651.371094 326.746094 649.222656 325.007812 647.019531 C 323.273438 644.820312 321.605469 642.566406 320.007812 640.261719 C 318.40625 637.960938 316.878906 635.609375 315.421875 633.214844 C 313.964844 630.820312 312.582031 628.382812 311.273438 625.902344 C 309.964844 623.421875 308.734375 620.902344 307.578125 618.347656 C 306.421875 615.792969 305.34375 613.207031 304.34375 610.585938 C 303.34375 607.96875 302.425781 605.320312 301.585938 602.644531 C 300.746094 599.96875 299.992188 597.269531 299.316406 594.546875 C 298.640625 591.824219 298.050781 589.085938 297.539062 586.328125 C 297.03125 583.570312 296.605469 580.796875 296.265625 578.015625 C 295.925781 575.230469 295.667969 572.441406 295.5 569.640625 C 295.328125 566.84375 295.238281 564.039062 295.238281 561.234375 Z M 295.238281 561.234375 " fill-opacity="1" fill-rule="nonzero"/><path fill="#000000" d="M 479.464844 561.234375 C 479.464844 562.726562 479.390625 564.214844 479.246094 565.703125 C 479.097656 567.1875 478.878906 568.660156 478.589844 570.125 C 478.296875 571.585938 477.9375 573.03125 477.503906 574.460938 C 477.070312 575.886719 476.570312 577.292969 475.996094 578.667969 C 475.425781 580.046875 474.789062 581.394531 474.085938 582.710938 C 473.382812 584.027344 472.617188 585.304688 471.789062 586.546875 C 470.960938 587.785156 470.074219 588.984375 469.128906 590.136719 C 468.179688 591.289062 467.179688 592.394531 466.125 593.449219 C 465.070312 594.503906 463.96875 595.503906 462.816406 596.453125 C 461.664062 597.398438 460.464844 598.285156 459.226562 599.113281 C 457.984375 599.945312 456.707031 600.710938 455.394531 601.414062 C 454.078125 602.117188 452.730469 602.753906 451.351562 603.324219 C 449.976562 603.894531 448.574219 604.398438 447.144531 604.832031 C 445.71875 605.265625 444.273438 605.625 442.808594 605.917969 C 441.347656 606.207031 439.875 606.425781 438.390625 606.574219 C 436.90625 606.71875 435.417969 606.792969 433.925781 606.792969 C 432.433594 606.792969 430.945312 606.71875 429.460938 606.574219 C 427.976562 606.425781 426.503906 606.207031 425.042969 605.917969 C 423.578125 605.625 422.132812 605.265625 420.707031 604.832031 C 419.28125 604.398438 417.878906 603.894531 416.5 603.324219 C 415.121094 602.753906 413.773438 602.117188 412.460938 601.414062 C 411.144531 600.710938 409.867188 599.945312 408.625 599.113281 C 407.386719 598.285156 406.191406 597.398438 405.035156 596.453125 C 403.882812 595.503906 402.78125 594.503906 401.726562 593.449219 C 400.671875 592.394531 399.671875 591.289062 398.722656 590.136719 C 397.777344 588.984375 396.890625 587.785156 396.0625 586.546875 C 395.234375 585.304688 394.46875 584.027344 393.765625 582.710938 C 393.0625 581.394531 392.425781 580.046875 391.855469 578.667969 C 391.28125 577.292969 390.78125 575.886719 390.347656 574.460938 C 389.914062 573.03125 389.554688 571.585938 389.261719 570.125 C 388.972656 568.660156 388.753906 567.1875 388.605469 565.703125 C 388.460938 564.214844 388.386719 562.726562 388.386719 561.234375 C 388.386719 559.742188 388.460938 558.253906 388.605469 556.769531 C 388.753906 555.285156 388.972656 553.8125 389.261719 552.347656 C 389.554688 550.886719 389.914062 549.4375 390.347656 548.011719 C 390.78125 546.582031 391.28125 545.179688 391.855469 543.800781 C 392.425781 542.421875 393.0625 541.078125 393.765625 539.761719 C 394.46875 538.445312 395.234375 537.167969 396.0625 535.925781 C 396.890625 534.683594 397.777344 533.488281 398.722656 532.335938 C 399.671875 531.183594 400.671875 530.078125 401.726562 529.023438 C 402.78125 527.96875 403.882812 526.964844 405.035156 526.019531 C 406.191406 525.074219 407.386719 524.1875 408.625 523.355469 C 409.867188 522.527344 411.144531 521.761719 412.460938 521.058594 C 413.773438 520.355469 415.121094 519.71875 416.5 519.148438 C 417.878906 518.574219 419.28125 518.074219 420.707031 517.640625 C 422.132812 517.207031 423.578125 516.84375 425.042969 516.554688 C 426.503906 516.261719 427.976562 516.042969 429.460938 515.898438 C 430.945312 515.753906 432.433594 515.679688 433.925781 515.679688 C 435.417969 515.679688 436.90625 515.753906 438.390625 515.898438 C 439.875 516.042969 441.347656 516.261719 442.808594 516.554688 C 444.273438 516.84375 445.71875 517.207031 447.144531 517.640625 C 448.574219 518.074219 449.976562 518.574219 451.351562 519.148438 C 452.730469 519.71875 454.078125 520.355469 455.390625 521.058594 C 456.707031 521.761719 457.984375 522.527344 459.226562 523.355469 C 460.464844 524.1875 461.664062 525.074219 462.816406 526.019531 C 463.96875 526.964844 465.070312 527.96875 466.125 529.023438 C 467.179688 530.078125 468.179688 531.183594 469.128906 532.335938 C 470.074219 533.488281 470.960938 534.683594 471.789062 535.925781 C 472.617188 537.167969 473.382812 538.445312 474.085938 539.761719 C 474.789062 541.078125 475.425781 542.421875 475.996094 543.800781 C 476.570312 545.179688 477.070312 546.582031 477.503906 548.011719 C 477.9375 549.4375 478.296875 550.886719 478.589844 552.347656 C 478.878906 553.8125 479.097656 555.285156 479.246094 556.769531 C 479.390625 558.253906 479.464844 559.742188 479.464844 561.234375 Z M 479.464844 561.234375 " fill-opacity="1" fill-rule="nonzero"/><path fill="#000000" d="M 382.117188 322.257812 L 320.40625 321.582031 L 372.585938 407.351562 Z M 382.117188 322.257812 " fill-opacity="1" fill-rule="nonzero"/><path fill="#000000" d="M 433.925781 444.320312 C 432.011719 444.320312 430.101562 444.371094 428.191406 444.464844 C 426.28125 444.558594 424.375 444.699219 422.472656 444.886719 C 420.566406 445.074219 418.671875 445.308594 416.777344 445.585938 C 414.886719 445.867188 413.003906 446.195312 411.125 446.570312 C 409.25 446.941406 407.386719 447.359375 405.53125 447.824219 C 403.675781 448.289062 401.832031 448.800781 400 449.355469 C 398.171875 449.910156 396.355469 450.511719 394.554688 451.15625 C 392.753906 451.800781 390.96875 452.488281 389.203125 453.222656 C 387.4375 453.953125 385.6875 454.730469 383.957031 455.546875 C 382.230469 456.367188 380.523438 457.226562 378.835938 458.128906 C 377.148438 459.027344 375.484375 459.972656 373.84375 460.957031 C 372.203125 461.9375 370.589844 462.960938 369 464.027344 C 367.40625 465.089844 365.84375 466.191406 364.308594 467.328125 C 362.773438 468.46875 361.265625 469.648438 359.785156 470.859375 C 358.308594 472.074219 356.859375 473.324219 355.441406 474.609375 C 354.027344 475.894531 352.640625 477.210938 351.289062 478.566406 C 349.9375 479.917969 348.617188 481.304688 347.332031 482.722656 C 346.050781 484.140625 344.800781 485.585938 343.585938 487.066406 C 342.375 488.546875 341.195312 490.054688 340.058594 491.589844 C 338.917969 493.128906 337.816406 494.691406 336.753906 496.28125 C 335.691406 497.875 334.667969 499.488281 333.6875 501.128906 C 332.703125 502.769531 331.761719 504.4375 330.859375 506.125 C 329.957031 507.8125 329.097656 509.519531 328.28125 511.25 C 327.460938 512.980469 326.6875 514.726562 325.957031 516.496094 C 325.222656 518.261719 324.535156 520.046875 323.890625 521.847656 C 323.246094 523.652344 322.648438 525.464844 322.089844 527.296875 C 321.535156 529.128906 321.027344 530.972656 320.5625 532.828125 C 320.097656 534.683594 319.679688 536.550781 319.304688 538.425781 C 318.929688 540.304688 318.605469 542.1875 318.324219 544.082031 C 318.042969 545.972656 317.808594 547.871094 317.621094 549.777344 C 317.433594 551.679688 317.292969 553.589844 317.199219 555.5 C 317.105469 557.410156 317.058594 559.324219 317.058594 561.234375 C 317.058594 563.148438 317.105469 565.0625 317.199219 566.972656 C 317.292969 568.882812 317.433594 570.792969 317.621094 572.695312 C 317.808594 574.601562 318.042969 576.5 318.324219 578.390625 C 318.605469 580.285156 318.929688 582.167969 319.304688 584.042969 C 319.679688 585.921875 320.097656 587.789062 320.5625 589.644531 C 321.027344 591.5 321.535156 593.34375 322.089844 595.175781 C 322.648438 597.003906 323.246094 598.820312 323.890625 600.621094 C 324.535156 602.425781 325.222656 604.210938 325.957031 605.976562 C 326.6875 607.746094 327.460938 609.492188 328.28125 611.222656 C 329.097656 612.953125 329.957031 614.660156 330.859375 616.347656 C 331.761719 618.035156 332.703125 619.699219 333.6875 621.339844 C 334.667969 622.984375 335.691406 624.597656 336.753906 626.191406 C 337.816406 627.78125 338.917969 629.34375 340.058594 630.882812 C 341.195312 632.417969 342.375 633.925781 343.585938 635.40625 C 344.800781 636.882812 346.050781 638.332031 347.332031 639.75 C 348.617188 641.167969 349.9375 642.554688 351.289062 643.90625 C 352.640625 645.257812 354.027344 646.578125 355.441406 647.863281 C 356.859375 649.148438 358.308594 650.398438 359.785156 651.613281 C 361.265625 652.824219 362.773438 654.003906 364.308594 655.140625 C 365.84375 656.28125 367.40625 657.382812 369 658.445312 C 370.589844 659.507812 372.203125 660.53125 373.84375 661.515625 C 375.484375 662.5 377.148438 663.441406 378.835938 664.34375 C 380.523438 665.246094 382.230469 666.105469 383.957031 666.925781 C 385.6875 667.742188 387.4375 668.519531 389.203125 669.25 C 390.96875 669.980469 392.753906 670.671875 394.554688 671.316406 C 396.355469 671.960938 398.171875 672.558594 400 673.117188 C 401.832031 673.671875 403.675781 674.179688 405.53125 674.644531 C 407.386719 675.109375 409.25 675.53125 411.125 675.902344 C 413.003906 676.277344 414.886719 676.601562 416.777344 676.882812 C 418.667969 677.164062 420.566406 677.398438 422.472656 677.585938 C 424.375 677.773438 426.28125 677.914062 428.191406 678.007812 C 430.101562 678.101562 432.011719 678.148438 433.925781 678.148438 C 435.839844 678.148438 437.75 678.101562 439.660156 678.007812 C 441.570312 677.914062 443.476562 677.773438 445.378906 677.585938 C 447.285156 677.398438 449.183594 677.164062 451.074219 676.882812 C 452.964844 676.601562 454.847656 676.277344 456.726562 675.902344 C 458.601562 675.53125 460.46875 675.109375 462.320312 674.644531 C 464.175781 674.179688 466.019531 673.671875 467.851562 673.117188 C 469.679688 672.558594 471.496094 671.960938 473.296875 671.316406 C 475.097656 670.671875 476.882812 669.980469 478.648438 669.25 C 480.414062 668.519531 482.164062 667.742188 483.894531 666.925781 C 485.621094 666.105469 487.328125 665.246094 489.015625 664.34375 C 490.703125 663.441406 492.367188 662.5 494.007812 661.515625 C 495.648438 660.53125 497.261719 659.507812 498.851562 658.445312 C 500.445312 657.382812 502.007812 656.28125 503.542969 655.140625 C 505.078125 654 506.585938 652.824219 508.066406 651.613281 C 509.542969 650.398438 510.992188 649.148438 512.410156 647.863281 C 513.824219 646.578125 515.210938 645.257812 516.5625 643.90625 C 517.914062 642.554688 519.234375 641.167969 520.519531 639.75 C 521.804688 638.332031 523.050781 636.882812 524.265625 635.40625 C 525.476562 633.925781 526.65625 632.417969 527.792969 630.882812 C 528.933594 629.34375 530.035156 627.78125 531.097656 626.191406 C 532.160156 624.597656 533.183594 622.984375 534.164062 621.339844 C 535.148438 619.699219 536.089844 618.035156 536.992188 616.347656 C 537.894531 614.660156 538.753906 612.953125 539.570312 611.222656 C 540.390625 609.492188 541.164062 607.746094 541.898438 605.976562 C 542.628906 604.210938 543.316406 602.425781 543.960938 600.621094 C 544.605469 598.820312 545.207031 597.003906 545.761719 595.175781 C 546.316406 593.34375 546.824219 591.5 547.289062 589.644531 C 547.753906 587.789062 548.175781 585.921875 548.546875 584.042969 C 548.921875 582.167969 549.246094 580.285156 549.527344 578.390625 C 549.808594 576.5 550.042969 574.601562 550.230469 572.695312 C 550.417969 570.792969 550.558594 568.882812 550.652344 566.972656 C 550.746094 565.0625 550.792969 563.148438 550.792969 561.234375 C 550.789062 559.324219 550.742188 557.410156 550.644531 555.5 C 550.550781 553.589844 550.40625 551.683594 550.21875 549.78125 C 550.027344 547.878906 549.792969 545.980469 549.507812 544.089844 C 549.226562 542.195312 548.898438 540.3125 548.523438 538.4375 C 548.148438 536.5625 547.730469 534.695312 547.261719 532.839844 C 546.796875 530.984375 546.285156 529.144531 545.730469 527.3125 C 545.171875 525.484375 544.570312 523.667969 543.925781 521.867188 C 543.28125 520.066406 542.589844 518.285156 541.859375 516.515625 C 541.125 514.75 540.351562 513.003906 539.53125 511.273438 C 538.714844 509.546875 537.855469 507.835938 536.953125 506.152344 C 536.050781 504.464844 535.105469 502.800781 534.125 501.160156 C 533.140625 499.519531 532.117188 497.90625 531.054688 496.316406 C 529.992188 494.726562 528.890625 493.164062 527.75 491.625 C 526.609375 490.089844 525.433594 488.582031 524.222656 487.105469 C 523.007812 485.625 521.761719 484.179688 520.476562 482.761719 C 519.191406 481.34375 517.875 479.960938 516.523438 478.605469 C 515.167969 477.253906 513.785156 475.9375 512.367188 474.652344 C 510.953125 473.367188 509.503906 472.117188 508.027344 470.902344 C 506.550781 469.691406 505.042969 468.511719 503.507812 467.375 C 501.972656 466.234375 500.410156 465.132812 498.820312 464.070312 C 497.230469 463.007812 495.617188 461.984375 493.976562 461 C 492.335938 460.015625 490.675781 459.070312 488.988281 458.167969 C 487.300781 457.265625 485.597656 456.40625 483.867188 455.585938 C 482.140625 454.769531 480.394531 453.992188 478.625 453.257812 C 476.859375 452.527344 475.078125 451.835938 473.277344 451.191406 C 471.476562 450.546875 469.664062 449.945312 467.835938 449.386719 C 466.003906 448.832031 464.164062 448.320312 462.308594 447.855469 C 460.457031 447.386719 458.589844 446.96875 456.714844 446.59375 C 454.839844 446.21875 452.957031 445.886719 451.066406 445.605469 C 449.175781 445.324219 447.277344 445.085938 445.375 444.898438 C 443.472656 444.707031 441.566406 444.566406 439.660156 444.46875 C 437.75 444.375 435.839844 444.324219 433.925781 444.320312 Z M 433.925781 628.609375 C 432.824219 628.609375 431.722656 628.582031 430.621094 628.53125 C 429.519531 628.476562 428.421875 628.394531 427.324219 628.285156 C 426.226562 628.179688 425.132812 628.042969 424.042969 627.882812 C 422.953125 627.71875 421.867188 627.53125 420.785156 627.316406 C 419.707031 627.101562 418.632812 626.859375 417.5625 626.59375 C 416.492188 626.324219 415.429688 626.03125 414.375 625.710938 C 413.320312 625.390625 412.273438 625.042969 411.238281 624.671875 C 410.199219 624.300781 409.171875 623.90625 408.152344 623.480469 C 407.132812 623.058594 406.128906 622.613281 405.132812 622.140625 C 404.132812 621.671875 403.148438 621.175781 402.179688 620.65625 C 401.207031 620.136719 400.246094 619.59375 399.300781 619.023438 C 398.355469 618.457031 397.425781 617.867188 396.507812 617.257812 C 395.59375 616.644531 394.691406 616.007812 393.808594 615.351562 C 392.921875 614.695312 392.054688 614.015625 391.199219 613.316406 C 390.347656 612.617188 389.515625 611.898438 388.699219 611.15625 C 387.882812 610.417969 387.082031 609.65625 386.304688 608.878906 C 385.523438 608.097656 384.765625 607.300781 384.023438 606.480469 C 383.285156 605.664062 382.5625 604.832031 381.863281 603.976562 C 381.164062 603.125 380.488281 602.257812 379.832031 601.371094 C 379.175781 600.484375 378.539062 599.585938 377.929688 598.667969 C 377.316406 597.75 376.726562 596.820312 376.160156 595.875 C 375.59375 594.929688 375.050781 593.96875 374.53125 592.996094 C 374.011719 592.023438 373.515625 591.039062 373.042969 590.042969 C 372.574219 589.046875 372.125 588.039062 371.703125 587.019531 C 371.28125 586 370.886719 584.972656 370.515625 583.933594 C 370.144531 582.894531 369.796875 581.847656 369.476562 580.792969 C 369.15625 579.738281 368.863281 578.675781 368.597656 577.605469 C 368.328125 576.535156 368.085938 575.460938 367.871094 574.378906 C 367.65625 573.296875 367.46875 572.210938 367.308594 571.121094 C 367.144531 570.03125 367.011719 568.9375 366.902344 567.839844 C 366.792969 566.742188 366.714844 565.644531 366.660156 564.542969 C 366.605469 563.441406 366.578125 562.339844 366.578125 561.234375 C 366.578125 560.132812 366.605469 559.03125 366.660156 557.929688 C 366.714844 556.828125 366.792969 555.730469 366.902344 554.632812 C 367.011719 553.535156 367.144531 552.441406 367.308594 551.351562 C 367.46875 550.257812 367.65625 549.171875 367.871094 548.089844 C 368.085938 547.011719 368.328125 545.933594 368.597656 544.863281 C 368.863281 543.796875 369.15625 542.734375 369.476562 541.679688 C 369.796875 540.621094 370.144531 539.574219 370.515625 538.539062 C 370.886719 537.5 371.28125 536.472656 371.703125 535.453125 C 372.125 534.433594 372.574219 533.425781 373.042969 532.429688 C 373.515625 531.433594 374.011719 530.449219 374.53125 529.476562 C 375.050781 528.503906 375.59375 527.542969 376.160156 526.597656 C 376.726562 525.652344 377.316406 524.722656 377.929688 523.804688 C 378.539062 522.886719 379.175781 521.984375 379.832031 521.101562 C 380.488281 520.214844 381.164062 519.347656 381.863281 518.492188 C 382.5625 517.640625 383.285156 516.804688 384.023438 515.988281 C 384.765625 515.171875 385.523438 514.375 386.304688 513.59375 C 387.082031 512.816406 387.882812 512.054688 388.699219 511.3125 C 389.515625 510.574219 390.347656 509.855469 391.199219 509.152344 C 392.054688 508.453125 392.921875 507.777344 393.808594 507.121094 C 394.691406 506.460938 395.59375 505.828125 396.507812 505.214844 C 397.425781 504.601562 398.355469 504.011719 399.300781 503.445312 C 400.246094 502.878906 401.207031 502.335938 402.179688 501.816406 C 403.148438 501.296875 404.132812 500.800781 405.132812 500.328125 C 406.128906 499.859375 407.132812 499.410156 408.152344 498.988281 C 409.171875 498.566406 410.199219 498.171875 411.238281 497.800781 C 412.273438 497.429688 413.320312 497.082031 414.375 496.761719 C 415.429688 496.441406 416.492188 496.148438 417.5625 495.878906 C 418.632812 495.613281 419.707031 495.371094 420.785156 495.15625 C 421.867188 494.941406 422.953125 494.75 424.042969 494.589844 C 425.132812 494.429688 426.226562 494.292969 427.324219 494.183594 C 428.421875 494.078125 429.519531 493.996094 430.621094 493.941406 C 431.722656 493.886719 432.824219 493.859375 433.925781 493.859375 C 435.027344 493.859375 436.128906 493.886719 437.230469 493.941406 C 438.332031 493.996094 439.429688 494.078125 440.527344 494.183594 C 441.625 494.292969 442.71875 494.429688 443.808594 494.589844 C 444.898438 494.75 445.984375 494.941406 447.066406 495.15625 C 448.144531 495.371094 449.222656 495.613281 450.289062 495.878906 C 451.359375 496.148438 452.421875 496.441406 453.476562 496.761719 C 454.53125 497.082031 455.578125 497.429688 456.613281 497.800781 C 457.652344 498.171875 458.679688 498.566406 459.699219 498.988281 C 460.71875 499.410156 461.722656 499.859375 462.722656 500.328125 C 463.71875 500.800781 464.703125 501.296875 465.671875 501.816406 C 466.644531 502.335938 467.605469 502.878906 468.550781 503.445312 C 469.496094 504.011719 470.425781 504.601562 471.34375 505.214844 C 472.257812 505.828125 473.160156 506.460938 474.046875 507.121094 C 474.929688 507.777344 475.800781 508.453125 476.652344 509.152344 C 477.503906 509.855469 478.335938 510.574219 479.152344 511.3125 C 479.972656 512.054688 480.769531 512.816406 481.546875 513.59375 C 482.328125 514.375 483.085938 515.171875 483.828125 515.988281 C 484.566406 516.804688 485.289062 517.640625 485.988281 518.492188 C 486.6875 519.347656 487.363281 520.214844 488.019531 521.101562 C 488.675781 521.984375 489.3125 522.886719 489.921875 523.804688 C 490.535156 524.722656 491.125 525.652344 491.691406 526.597656 C 492.257812 527.542969 492.800781 528.503906 493.320312 529.476562 C 493.839844 530.449219 494.335938 531.433594 494.808594 532.429688 C 495.277344 533.425781 495.726562 534.433594 496.148438 535.453125 C 496.570312 536.472656 496.964844 537.5 497.335938 538.539062 C 497.707031 539.574219 498.054688 540.621094 498.375 541.679688 C 498.695312 542.734375 498.988281 543.796875 499.253906 544.863281 C 499.523438 545.933594 499.765625 547.011719 499.980469 548.089844 C 500.195312 549.171875 500.382812 550.257812 500.546875 551.351562 C 500.707031 552.441406 500.839844 553.535156 500.949219 554.632812 C 501.058594 555.730469 501.140625 556.828125 501.191406 557.929688 C 501.246094 559.03125 501.273438 560.132812 501.273438 561.234375 C 501.273438 562.339844 501.242188 563.441406 501.1875 564.539062 C 501.132812 565.640625 501.050781 566.742188 500.941406 567.835938 C 500.832031 568.933594 500.695312 570.027344 500.535156 571.117188 C 500.371094 572.207031 500.179688 573.292969 499.964844 574.375 C 499.75 575.453125 499.507812 576.53125 499.238281 577.597656 C 498.96875 578.667969 498.675781 579.730469 498.355469 580.785156 C 498.035156 581.839844 497.6875 582.882812 497.316406 583.921875 C 496.945312 584.960938 496.546875 585.988281 496.125 587.003906 C 495.703125 588.023438 495.253906 589.03125 494.78125 590.027344 C 494.3125 591.023438 493.816406 592.007812 493.296875 592.980469 C 492.777344 593.949219 492.234375 594.910156 491.664062 595.855469 C 491.097656 596.800781 490.507812 597.730469 489.898438 598.648438 C 489.285156 599.5625 488.648438 600.464844 487.992188 601.347656 C 487.335938 602.234375 486.660156 603.101562 485.960938 603.953125 C 485.261719 604.808594 484.542969 605.640625 483.800781 606.457031 C 483.0625 607.273438 482.300781 608.074219 481.523438 608.851562 C 480.742188 609.632812 479.945312 610.390625 479.128906 611.132812 C 478.3125 611.871094 477.480469 612.589844 476.628906 613.289062 C 475.777344 613.988281 474.90625 614.667969 474.023438 615.324219 C 473.136719 615.980469 472.238281 616.617188 471.320312 617.230469 C 470.40625 617.84375 469.476562 618.433594 468.53125 619 C 467.585938 619.566406 466.628906 620.109375 465.65625 620.628906 C 464.683594 621.148438 463.703125 621.644531 462.707031 622.117188 C 461.710938 622.589844 460.703125 623.035156 459.683594 623.460938 C 458.667969 623.882812 457.640625 624.277344 456.601562 624.652344 C 455.566406 625.023438 454.519531 625.371094 453.464844 625.691406 C 452.414062 626.011719 451.351562 626.304688 450.28125 626.574219 C 449.214844 626.84375 448.140625 627.085938 447.058594 627.300781 C 445.976562 627.519531 444.894531 627.707031 443.804688 627.871094 C 442.714844 628.035156 441.621094 628.167969 440.523438 628.277344 C 439.429688 628.386719 438.328125 628.46875 437.230469 628.527344 C 436.128906 628.582031 435.027344 628.609375 433.925781 628.609375 Z M 433.925781 628.609375 " fill-opacity="1" fill-rule="nonzero"/><g clip-path="url(#bf9a1af89c)"><path fill="#000000" d="M 520.410156 76.792969 C 519.207031 76.792969 518.003906 76.820312 516.800781 76.878906 C 515.597656 76.9375 514.394531 77.027344 513.195312 77.144531 C 511.996094 77.261719 510.800781 77.410156 509.609375 77.585938 C 508.417969 77.765625 507.234375 77.96875 506.050781 78.203125 C 504.871094 78.441406 503.695312 78.703125 502.527344 78.996094 C 501.355469 79.289062 500.195312 79.609375 499.042969 79.960938 C 497.890625 80.308594 496.746094 80.6875 495.613281 81.09375 C 494.480469 81.5 493.355469 81.933594 492.242188 82.394531 C 491.128906 82.855469 490.027344 83.34375 488.9375 83.859375 C 487.851562 84.371094 486.773438 84.914062 485.710938 85.484375 C 484.648438 86.050781 483.601562 86.644531 482.566406 87.261719 C 481.535156 87.882812 480.515625 88.527344 479.515625 89.195312 C 478.511719 89.867188 477.527344 90.558594 476.5625 91.277344 C 475.59375 91.996094 474.644531 92.738281 473.710938 93.5 C 472.78125 94.265625 471.867188 95.050781 470.976562 95.863281 C 470.082031 96.671875 469.210938 97.5 468.359375 98.351562 C 467.507812 99.207031 466.675781 100.078125 465.867188 100.972656 C 465.058594 101.863281 464.273438 102.777344 463.507812 103.707031 C 462.742188 104.640625 462 105.589844 461.285156 106.554688 C 460.566406 107.523438 459.871094 108.507812 459.203125 109.511719 C 458.535156 110.511719 457.890625 111.53125 457.269531 112.566406 C 456.652344 113.597656 456.058594 114.648438 455.488281 115.710938 C 454.921875 116.773438 454.378906 117.847656 453.863281 118.9375 C 453.347656 120.027344 452.859375 121.128906 452.398438 122.242188 C 451.9375 123.355469 451.503906 124.480469 451.097656 125.613281 C 450.691406 126.75 450.316406 127.890625 449.964844 129.046875 C 449.617188 130.199219 449.292969 131.359375 449 132.527344 C 448.707031 133.699219 448.445312 134.875 448.210938 136.054688 C 447.972656 137.238281 447.769531 138.425781 447.589844 139.617188 C 447.414062 140.808594 447.265625 142.003906 447.148438 143.203125 C 447.03125 144.402344 446.941406 145.605469 446.882812 146.808594 C 446.824219 148.011719 446.792969 149.214844 446.792969 150.421875 C 446.792969 151.628906 446.824219 152.832031 446.882812 154.035156 C 446.941406 155.238281 447.03125 156.441406 447.148438 157.640625 C 447.265625 158.839844 447.414062 160.035156 447.589844 161.226562 C 447.765625 162.417969 447.972656 163.605469 448.207031 164.789062 C 448.441406 165.96875 448.707031 167.144531 448.996094 168.316406 C 449.289062 169.484375 449.613281 170.644531 449.960938 171.796875 C 450.3125 172.953125 450.6875 174.097656 451.09375 175.230469 C 451.5 176.367188 451.933594 177.488281 452.394531 178.601562 C 452.855469 179.714844 453.34375 180.816406 453.859375 181.90625 C 454.375 182.996094 454.914062 184.074219 455.480469 185.136719 C 456.050781 186.199219 456.644531 187.246094 457.261719 188.28125 C 457.882812 189.316406 458.527344 190.332031 459.195312 191.335938 C 459.863281 192.335938 460.558594 193.320312 461.277344 194.289062 C 461.992188 195.257812 462.734375 196.207031 463.5 197.140625 C 464.261719 198.070312 465.046875 198.984375 465.859375 199.875 C 466.667969 200.769531 467.496094 201.640625 468.347656 202.496094 C 469.199219 203.347656 470.074219 204.175781 470.964844 204.988281 C 471.859375 205.796875 472.769531 206.582031 473.699219 207.347656 C 474.632812 208.113281 475.582031 208.855469 476.550781 209.570312 C 477.515625 210.289062 478.5 210.984375 479.503906 211.652344 C 480.503906 212.324219 481.523438 212.96875 482.554688 213.585938 C 483.589844 214.207031 484.636719 214.800781 485.699219 215.367188 C 486.761719 215.9375 487.835938 216.480469 488.925781 216.992188 C 490.015625 217.507812 491.117188 217.996094 492.226562 218.457031 C 493.339844 218.921875 494.464844 219.355469 495.597656 219.761719 C 496.734375 220.167969 497.878906 220.542969 499.03125 220.894531 C 500.183594 221.242188 501.34375 221.566406 502.511719 221.859375 C 503.679688 222.152344 504.855469 222.414062 506.035156 222.648438 C 507.21875 222.886719 508.40625 223.089844 509.597656 223.269531 C 510.789062 223.445312 511.984375 223.59375 513.183594 223.710938 C 514.382812 223.828125 515.582031 223.917969 516.785156 223.976562 C 517.988281 224.035156 519.191406 224.066406 520.398438 224.066406 C 521.601562 224.066406 522.804688 224.035156 524.007812 223.976562 C 525.210938 223.917969 526.414062 223.828125 527.613281 223.710938 C 528.8125 223.59375 530.007812 223.445312 531.199219 223.269531 C 532.390625 223.09375 533.578125 222.886719 534.757812 222.652344 C 535.941406 222.417969 537.113281 222.152344 538.28125 221.859375 C 539.453125 221.566406 540.613281 221.246094 541.765625 220.894531 C 542.917969 220.546875 544.0625 220.167969 545.195312 219.761719 C 546.332031 219.355469 547.453125 218.921875 548.566406 218.460938 C 549.679688 218 550.78125 217.511719 551.871094 216.996094 C 552.957031 216.480469 554.035156 215.941406 555.097656 215.371094 C 556.160156 214.804688 557.207031 214.210938 558.242188 213.589844 C 559.273438 212.972656 560.292969 212.328125 561.292969 211.65625 C 562.292969 210.988281 563.28125 210.292969 564.246094 209.574219 C 565.214844 208.859375 566.164062 208.117188 567.09375 207.351562 C 568.027344 206.589844 568.9375 205.800781 569.832031 204.992188 C 570.722656 204.183594 571.597656 203.351562 572.449219 202.5 C 573.300781 201.648438 574.128906 200.773438 574.9375 199.882812 C 575.75 198.988281 576.535156 198.078125 577.300781 197.144531 C 578.0625 196.214844 578.804688 195.265625 579.523438 194.296875 C 580.238281 193.328125 580.933594 192.34375 581.601562 191.339844 C 582.273438 190.339844 582.917969 189.320312 583.535156 188.285156 C 584.15625 187.253906 584.75 186.207031 585.316406 185.140625 C 585.882812 184.078125 586.425781 183.003906 586.941406 181.914062 C 587.457031 180.824219 587.945312 179.722656 588.40625 178.609375 C 588.867188 177.496094 589.300781 176.371094 589.707031 175.238281 C 590.109375 174.101562 590.488281 172.957031 590.839844 171.804688 C 591.1875 170.652344 591.507812 169.492188 591.800781 168.320312 C 592.09375 167.152344 592.359375 165.976562 592.59375 164.796875 C 592.828125 163.613281 593.035156 162.425781 593.210938 161.234375 C 593.386719 160.042969 593.535156 158.847656 593.652344 157.648438 C 593.773438 156.449219 593.859375 155.246094 593.917969 154.042969 C 593.980469 152.839844 594.007812 151.632812 594.007812 150.429688 C 594.007812 149.222656 593.976562 148.019531 593.917969 146.816406 C 593.855469 145.613281 593.765625 144.414062 593.648438 143.214844 C 593.527344 142.015625 593.378906 140.820312 593.203125 139.628906 C 593.023438 138.4375 592.816406 137.25 592.582031 136.070312 C 592.347656 134.886719 592.082031 133.714844 591.789062 132.546875 C 591.496094 131.375 591.171875 130.214844 590.824219 129.0625 C 590.472656 127.910156 590.09375 126.769531 589.6875 125.632812 C 589.28125 124.5 588.847656 123.375 588.386719 122.265625 C 587.925781 121.152344 587.4375 120.050781 586.921875 118.960938 C 586.40625 117.871094 585.863281 116.796875 585.296875 115.734375 C 584.726562 114.671875 584.132812 113.625 583.515625 112.59375 C 582.894531 111.558594 582.25 110.542969 581.582031 109.539062 C 580.914062 108.539062 580.21875 107.554688 579.503906 106.585938 C 578.785156 105.617188 578.042969 104.667969 577.28125 103.738281 C 576.515625 102.808594 575.730469 101.894531 574.921875 101.003906 C 574.113281 100.109375 573.28125 99.238281 572.429688 98.386719 C 571.578125 97.535156 570.707031 96.703125 569.816406 95.894531 C 568.921875 95.085938 568.011719 94.296875 567.082031 93.535156 C 566.152344 92.769531 565.203125 92.027344 564.234375 91.3125 C 563.269531 90.59375 562.285156 89.898438 561.28125 89.230469 C 560.28125 88.558594 559.265625 87.914062 558.230469 87.296875 C 557.199219 86.675781 556.152344 86.082031 555.089844 85.511719 C 554.027344 84.945312 552.953125 84.402344 551.867188 83.886719 C 550.777344 83.371094 549.675781 82.882812 548.566406 82.421875 C 547.453125 81.960938 546.328125 81.523438 545.195312 81.117188 C 544.0625 80.710938 542.921875 80.332031 541.769531 79.984375 C 540.617188 79.632812 539.457031 79.308594 538.289062 79.015625 C 537.121094 78.722656 535.945312 78.457031 534.765625 78.222656 C 533.585938 77.984375 532.398438 77.777344 531.207031 77.601562 C 530.015625 77.421875 528.820312 77.273438 527.625 77.15625 C 526.425781 77.035156 525.226562 76.945312 524.023438 76.886719 C 522.820312 76.824219 521.617188 76.792969 520.410156 76.792969 Z M 520.410156 76.792969 " fill-opacity="1" fill-rule="nonzero"/></g></svg>