<svg xmlns="http://www.w3.org/2000/svg" xmlns:xlink="http://www.w3.org/1999/xlink" width="1024" zoomAndPan="magnify" viewBox="0 0 768 775.92" height="1024" preserveAspectRatio="xMidYMid meet" version="1.0"><defs><clipPath id="8f15c8b3be"><path d="M 77 428 L 458 428 L 458 571.550781 L 77 571.550781 Z M 77 428 " clip-rule="nonzero"/></clipPath><clipPath id="ff71d096cf"><path d="M 564 196.585938 L 651 196.585938 L 651 283 L 564 283 Z M 564 196.585938 " clip-rule="nonzero"/></clipPath></defs><g clip-path="url(#8f15c8b3be)"><path fill="#000000" d="M 209.007812 504.988281 L 207.113281 499 L 177.671875 508.335938 C 173.339844 505.339844 168.105469 503.570312 162.46875 503.570312 C 147.6875 503.570312 135.59375 515.675781 135.59375 530.46875 L 135.59375 545.390625 L 77.226562 545.390625 L 77.226562 571.476562 L 200.675781 571.476562 L 200.675781 545.390625 L 189.34375 545.390625 L 189.34375 530.46875 C 189.34375 529.972656 189.292969 529.484375 189.269531 528.992188 L 214.113281 521.113281 L 212.21875 515.125 L 457.136719 437.449219 L 451.773438 428 Z M 162.46875 538.5 C 156.929688 538.5 152.4375 534.007812 152.4375 528.464844 C 152.4375 522.921875 156.929688 518.429688 162.46875 518.429688 C 168.003906 518.429688 172.496094 522.921875 172.496094 528.464844 C 172.496094 534.007812 168.007812 538.5 162.46875 538.5 Z M 162.46875 538.5 " fill-opacity="1" fill-rule="nonzero"/></g><path fill="#000000" d="M 509.523438 409.6875 L 514.886719 419.140625 L 536.003906 412.441406 L 527.332031 404.035156 Z M 509.523438 409.6875 " fill-opacity="1" fill-rule="nonzero"/><g clip-path="url(#ff71d096cf)"><path fill="#000000" d="M 650.496094 239.632812 C 650.496094 241.042969 650.425781 242.449219 650.289062 243.851562 C 650.152344 245.253906 649.945312 246.648438 649.667969 248.027344 C 649.394531 249.410156 649.054688 250.777344 648.644531 252.125 C 648.234375 253.476562 647.761719 254.800781 647.222656 256.105469 C 646.683594 257.40625 646.082031 258.679688 645.417969 259.921875 C 644.753906 261.164062 644.03125 262.375 643.246094 263.546875 C 642.464844 264.71875 641.628906 265.847656 640.734375 266.9375 C 639.839844 268.027344 638.894531 269.070312 637.898438 270.070312 C 636.902344 271.066406 635.859375 272.011719 634.773438 272.90625 C 633.683594 273.800781 632.554688 274.636719 631.382812 275.421875 C 630.210938 276.203125 629.003906 276.929688 627.761719 277.59375 C 626.519531 278.257812 625.246094 278.859375 623.945312 279.398438 C 622.644531 279.9375 621.320312 280.414062 619.972656 280.824219 C 618.625 281.230469 617.257812 281.574219 615.878906 281.847656 C 614.496094 282.125 613.105469 282.332031 611.703125 282.46875 C 610.300781 282.605469 608.894531 282.675781 607.488281 282.675781 C 606.078125 282.675781 604.675781 282.605469 603.273438 282.46875 C 601.871094 282.332031 600.480469 282.125 599.097656 281.847656 C 597.714844 281.574219 596.351562 281.230469 595.003906 280.824219 C 593.65625 280.414062 592.332031 279.9375 591.027344 279.398438 C 589.726562 278.859375 588.457031 278.257812 587.214844 277.59375 C 585.972656 276.929688 584.765625 276.203125 583.59375 275.421875 C 582.421875 274.636719 581.292969 273.800781 580.203125 272.90625 C 579.113281 272.011719 578.070312 271.066406 577.074219 270.070312 C 576.078125 269.070312 575.136719 268.027344 574.242188 266.9375 C 573.347656 265.847656 572.511719 264.71875 571.726562 263.546875 C 570.945312 262.375 570.222656 261.164062 569.558594 259.921875 C 568.894531 258.679688 568.292969 257.40625 567.753906 256.105469 C 567.214844 254.800781 566.738281 253.476562 566.332031 252.125 C 565.921875 250.777344 565.582031 249.410156 565.304688 248.027344 C 565.03125 246.648438 564.824219 245.253906 564.6875 243.851562 C 564.546875 242.449219 564.480469 241.042969 564.480469 239.632812 C 564.480469 238.222656 564.546875 236.816406 564.6875 235.414062 C 564.824219 234.011719 565.03125 232.617188 565.304688 231.234375 C 565.582031 229.851562 565.921875 228.484375 566.332031 227.136719 C 566.738281 225.789062 567.214844 224.460938 567.753906 223.160156 C 568.292969 221.855469 568.894531 220.585938 569.558594 219.339844 C 570.222656 218.097656 570.945312 216.890625 571.726562 215.71875 C 572.511719 214.546875 573.347656 213.414062 574.242188 212.324219 C 575.136719 211.234375 576.078125 210.191406 577.074219 209.195312 C 578.070312 208.199219 579.113281 207.253906 580.203125 206.359375 C 581.292969 205.464844 582.421875 204.625 583.59375 203.84375 C 584.765625 203.058594 585.972656 202.335938 587.214844 201.671875 C 588.457031 201.003906 589.726562 200.402344 591.027344 199.863281 C 592.332031 199.324219 593.65625 198.851562 595.003906 198.441406 C 596.351562 198.03125 597.714844 197.691406 599.097656 197.414062 C 600.480469 197.140625 601.871094 196.933594 603.273438 196.796875 C 604.675781 196.65625 606.078125 196.585938 607.488281 196.585938 C 608.894531 196.585938 610.300781 196.65625 611.703125 196.796875 C 613.105469 196.933594 614.496094 197.140625 615.878906 197.414062 C 617.257812 197.691406 618.625 198.03125 619.972656 198.441406 C 621.320312 198.851562 622.644531 199.324219 623.945312 199.863281 C 625.246094 200.402344 626.519531 201.003906 627.761719 201.671875 C 629.003906 202.335938 630.210938 203.058594 631.382812 203.84375 C 632.554688 204.625 633.683594 205.464844 634.773438 206.359375 C 635.859375 207.253906 636.902344 208.199219 637.898438 209.195312 C 638.894531 210.191406 639.839844 211.234375 640.734375 212.324219 C 641.628906 213.414062 642.464844 214.546875 643.246094 215.71875 C 644.03125 216.890625 644.753906 218.097656 645.417969 219.339844 C 646.082031 220.585938 646.683594 221.855469 647.222656 223.160156 C 647.761719 224.460938 648.234375 225.789062 648.644531 227.136719 C 649.054688 228.484375 649.394531 229.851562 649.667969 231.234375 C 649.945312 232.617188 650.152344 234.011719 650.289062 235.414062 C 650.425781 236.816406 650.496094 238.222656 650.496094 239.632812 Z M 650.496094 239.632812 " fill-opacity="1" fill-rule="nonzero"/></g><path fill="#000000" d="M 535.886719 284.625 C 513.46875 297.054688 482.375 316.054688 451.625 323.203125 C 449.667969 323.660156 447.710938 324.074219 445.761719 324.425781 C 434.0625 327.460938 427.792969 330.765625 424.902344 335.023438 C 417.953125 342.464844 416.296875 353.835938 421.585938 363.160156 L 469.171875 447.039062 L 473.96875 547.886719 C 474.578125 560.691406 485.144531 570.664062 497.820312 570.664062 C 498.203125 570.664062 498.589844 570.652344 498.972656 570.632812 C 512.15625 570.003906 522.332031 558.800781 521.707031 545.609375 L 516.636719 439.0625 C 516.457031 435.3125 515.398438 431.65625 513.546875 428.390625 L 488.484375 384.214844 C 490.441406 383.730469 492.359375 383.234375 494.234375 382.726562 C 497.171875 381.933594 500.023438 381.113281 502.796875 380.253906 L 480.765625 358.90625 C 476.207031 354.492188 474.046875 348.113281 474.988281 341.835938 C 475.925781 335.5625 479.855469 330.09375 485.5 327.207031 L 549.726562 294.339844 C 552.488281 292.925781 555.585938 292.175781 558.675781 292.175781 C 566.117188 292.175781 572.835938 296.292969 576.21875 302.917969 C 578.613281 307.601562 579.042969 312.941406 577.421875 317.949219 C 575.804688 322.957031 572.335938 327.035156 567.652344 329.429688 L 527.933594 349.753906 L 569.003906 389.554688 C 572.964844 393.394531 574.957031 398.507812 574.980469 403.636719 C 575.851562 402.339844 576.523438 400.933594 576.964844 399.457031 L 606.308594 390.148438 L 620.578125 435.214844 C 621.570312 438.355469 625.664062 439.882812 629.675781 438.613281 L 630.976562 438.199219 C 634.988281 436.925781 637.453125 433.320312 636.460938 430.179688 L 628.425781 404.808594 L 640.855469 400.863281 L 634.621094 381.171875 L 690.667969 363.394531 L 687.457031 353.261719 L 631.410156 371.035156 L 625.175781 351.339844 L 612.746094 355.28125 L 604.710938 329.910156 C 603.71875 326.769531 599.625 325.242188 595.617188 326.515625 L 594.3125 326.925781 C 590.304688 328.199219 587.835938 331.808594 588.832031 334.945312 L 603.101562 380.015625 L 576.136719 388.566406 C 575.804688 387.871094 575.441406 387.183594 574.996094 386.523438 L 554.148438 355.550781 C 558.976562 352.347656 563.933594 348.839844 569.136719 344.980469 C 592.808594 327.199219 593.964844 301.945312 585.074219 287.65625 C 576.175781 273.371094 552.304688 273.546875 535.886719 284.625 Z M 535.886719 284.625 " fill-opacity="1" fill-rule="nonzero"/><path fill="#000000" d="M 565.9375 392.714844 L 520.449219 348.632812 L 565.644531 325.507812 C 573.164062 321.664062 576.144531 312.441406 572.296875 304.914062 C 568.453125 297.390625 559.242188 294.402344 551.71875 298.257812 L 487.492188 331.121094 C 483.097656 333.367188 480.058594 337.601562 479.328125 342.484375 C 478.597656 347.371094 480.269531 352.308594 483.816406 355.742188 L 544.664062 414.707031 C 547.632812 417.582031 551.46875 419.015625 555.296875 419.015625 C 559.292969 419.015625 563.285156 417.457031 566.285156 414.355469 C 572.160156 408.285156 572.003906 398.597656 565.9375 392.714844 Z M 565.9375 392.714844 " fill-opacity="1" fill-rule="nonzero"/></svg>