<svg xmlns="http://www.w3.org/2000/svg" xmlns:xlink="http://www.w3.org/1999/xlink" width="1024" zoomAndPan="magnify" viewBox="0 0 768 775.92" height="1024" preserveAspectRatio="xMidYMid meet" version="1.0"><defs><clipPath id="e0fa536d3f"><path d="M 361 141.808594 L 452 141.808594 L 452 232 L 361 232 Z M 361 141.808594 " clip-rule="nonzero"/></clipPath></defs><path fill="#000000" d="M 481.160156 520.84375 L 690.515625 520.84375 L 690.515625 474.949219 L 481.160156 474.949219 Z M 481.160156 520.84375 " fill-opacity="1" fill-rule="nonzero"/><path fill="#000000" d="M 457.023438 335.191406 C 456.210938 334.789062 422.566406 314.164062 408.816406 265.496094 C 406.59375 268.144531 404.65625 271.035156 403.140625 274.152344 C 388.4375 303.960938 386.261719 338.363281 386.015625 351.78125 C 386.015625 354.085938 385.792969 356.507812 385.582031 358.917969 C 384.171875 369.605469 380.28125 379.4375 374.394531 388.007812 L 444.414062 416.171875 C 448.703125 387.738281 460.691406 363.890625 469 350.242188 C 465.789062 344.457031 461.816406 339.199219 457.035156 335.179688 Z M 457.023438 335.191406 " fill-opacity="1" fill-rule="nonzero"/><path fill="#000000" d="M 534.785156 532.601562 L 636.902344 532.601562 L 636.902344 624.285156 L 534.785156 624.285156 Z M 534.785156 532.601562 " fill-opacity="1" fill-rule="nonzero"/><path fill="#000000" d="M 120.855469 617.148438 C 128.09375 622.96875 137.519531 625.402344 146.566406 623.800781 C 155.488281 622.25 163.277344 616.957031 167.957031 609.292969 C 168.238281 608.820312 168.460938 608.351562 168.742188 607.878906 L 141.21875 580.332031 L 104.742188 558.070312 C 101.980469 556.332031 98.855469 555.460938 95.375 555.460938 C 91.308594 555.460938 87.714844 556.636719 84.691406 558.941406 C 80.097656 562.328125 77.453125 567.480469 77.347656 573.144531 C 77.230469 578.730469 79.652344 583.929688 83.976562 587.375 Z M 120.855469 617.148438 " fill-opacity="1" fill-rule="nonzero"/><path fill="#000000" d="M 188.027344 560.269531 C 188.453125 558.4375 189.746094 556.917969 191.472656 556.191406 C 233.746094 538.328125 243.300781 489.882812 243.394531 489.390625 C 243.910156 486.617188 246.34375 484.59375 249.164062 484.59375 L 392.550781 484.59375 C 406.136719 484.59375 418.699219 479.429688 427.878906 470.058594 C 437.457031 460.652344 442.699219 448.246094 442.699219 435.042969 C 442.699219 432.714844 442.933594 430.550781 443.085938 428.328125 L 366.507812 397.53125 C 356.777344 408 343.652344 415.195312 328.726562 417.617188 L 241.523438 431.480469 C 231.148438 433.207031 222.085938 439.746094 217.316406 448.964844 L 152.066406 574.558594 L 174.503906 597.015625 C 183.796875 577.851562 187.96875 560.484375 188.015625 560.28125 Z M 188.027344 560.269531 " fill-opacity="1" fill-rule="nonzero"/><path fill="#000000" d="M 418.816406 256.984375 C 430.273438 304.757812 463.476562 325.441406 463.828125 325.652344 C 471.300781 331.828125 476.988281 339.210938 481.054688 347.511719 C 481.054688 347.511719 481.054688 347.535156 481.066406 347.546875 C 481.089844 347.59375 481.125 347.640625 481.148438 347.6875 C 481.160156 347.710938 481.148438 347.746094 481.171875 347.769531 C 496.382812 376.828125 495.957031 417.886719 492.902344 447.261719 C 492.902344 447.320312 492.796875 448.507812 492.785156 448.566406 C 492.738281 456.773438 499.25 463.179688 507.226562 463.179688 C 514.820312 463.179688 521.105469 457.464844 521.53125 450.175781 C 527.558594 354.554688 498.847656 297.070312 473.710938 265.683594 C 460.289062 248.871094 436.855469 245.507812 418.816406 256.984375 Z M 418.816406 256.984375 " fill-opacity="1" fill-rule="nonzero"/><g clip-path="url(#e0fa536d3f)"><path fill="#000000" d="M 406.546875 231.113281 C 431.261719 231.113281 451.347656 211.007812 451.347656 186.28125 C 451.347656 161.550781 431.25 141.445312 406.546875 141.445312 C 381.84375 141.445312 361.738281 161.5625 361.738281 186.28125 C 361.738281 210.996094 381.84375 231.113281 406.546875 231.113281 Z M 406.546875 231.113281 " fill-opacity="1" fill-rule="nonzero"/></g></svg>