<svg xmlns="http://www.w3.org/2000/svg" xmlns:xlink="http://www.w3.org/1999/xlink" width="1024" zoomAndPan="magnify" viewBox="0 0 768 767.999994" height="1024" preserveAspectRatio="xMidYMid meet" version="1.0"><defs><clipPath id="3229aa94ab"><path d="M 76.800781 354 L 691.050781 354 L 691.050781 628.519531 L 76.800781 628.519531 Z M 76.800781 354 " clip-rule="nonzero"/></clipPath><clipPath id="0bbe7e77e0"><path d="M 493 139.519531 L 627 139.519531 L 627 273 L 493 273 Z M 493 139.519531 " clip-rule="nonzero"/></clipPath></defs><g clip-path="url(#3229aa94ab)"><path fill="#000000" d="M 213.871094 628.382812 C 287.347656 628.382812 347.390625 570.445312 350.8125 497.761719 L 427.050781 439.828125 C 420.601562 455.757812 417.046875 473.140625 417.046875 491.3125 C 417.046875 566.890625 478.539062 628.382812 554.117188 628.382812 C 629.699219 628.382812 691.191406 566.890625 691.191406 491.3125 C 691.191406 415.730469 629.699219 354.238281 554.117188 354.238281 C 538.054688 354.238281 522.515625 357.003906 508.164062 362.140625 C 507.109375 362.535156 506.1875 362.929688 505.136719 363.324219 C 504.214844 363.71875 503.160156 364.113281 502.238281 364.507812 C 499.605469 373.066406 505.792969 376.226562 518.171875 375.699219 C 519.222656 375.4375 520.277344 375.042969 521.464844 374.78125 C 522.515625 374.515625 523.703125 374.121094 524.753906 373.859375 C 534.105469 371.488281 543.980469 370.300781 554.117188 370.300781 C 621.007812 370.300781 675.257812 424.683594 675.257812 491.574219 C 675.257812 558.464844 620.875 612.714844 554.117188 612.714844 C 487.226562 612.714844 432.847656 558.332031 432.847656 491.574219 C 432.847656 452.863281 451.148438 418.363281 479.457031 396.109375 C 480.25 395.453125 481.039062 394.925781 481.960938 394.265625 C 482.75 393.609375 483.671875 393.082031 484.460938 392.421875 C 483.671875 386.367188 477.617188 384.390625 467.214844 385.578125 C 466.421875 386.234375 465.632812 386.894531 464.84375 387.550781 C 464.054688 388.210938 463.394531 388.867188 462.605469 389.527344 C 457.863281 393.742188 453.386719 398.347656 449.304688 403.222656 L 350.15625 478.539062 C 348.3125 459.050781 342.386719 440.746094 333.167969 424.421875 C 332.246094 422.707031 331.195312 420.996094 330.140625 419.417969 C 329.21875 417.835938 328.164062 416.386719 327.113281 414.808594 C 312.496094 422.445312 317.761719 440.222656 325.003906 445.09375 L 327.113281 448.78125 C 327.242188 450.097656 329.613281 454.441406 329.351562 455.757812 C 329.878906 457.339844 330.273438 458.917969 330.667969 460.5 C 331.0625 461.816406 331.324219 463 331.589844 464.316406 C 333.695312 473.140625 334.75 482.226562 334.75 491.574219 C 334.75 492.363281 334.75 493.152344 334.75 493.945312 L 334.75 494.074219 C 333.433594 559.78125 279.578125 612.714844 213.609375 612.714844 C 146.71875 612.714844 92.46875 558.332031 92.46875 491.574219 C 92.46875 424.683594 146.851562 370.300781 213.609375 370.300781 C 226.382812 370.300781 238.628906 372.277344 250.082031 375.964844 C 251.136719 376.226562 252.191406 376.621094 253.242188 377.019531 C 254.296875 377.414062 255.351562 377.675781 256.402344 378.070312 C 261.011719 375.042969 263.117188 370.828125 250.742188 359.503906 C 249.6875 359.242188 248.765625 358.976562 247.710938 358.714844 C 246.660156 358.453125 245.738281 358.1875 244.683594 358.058594 C 234.675781 355.6875 224.40625 354.5 213.742188 354.5 C 138.292969 354.238281 76.800781 415.730469 76.800781 491.3125 C 76.800781 566.890625 138.292969 628.382812 213.871094 628.382812 Z M 213.871094 628.382812 " fill-opacity="1" fill-rule="nonzero"/></g><path fill="#000000" d="M 434.292969 393.214844 C 435.613281 395.1875 366.351562 446.671875 364.375 448.78125 C 358.714844 453.125 350.550781 452.203125 346.074219 446.410156 C 342.519531 441.800781 342.519531 435.613281 345.679688 431.136719 L 371.355469 393.476562 L 330.273438 378.730469 C 329.351562 365.035156 328.164062 348.445312 326.71875 328.5625 C 337.910156 322.898438 348.441406 318.160156 358.714844 314.210938 L 422.445312 357.792969 L 428.371094 361.875 C 438.640625 368.984375 441.273438 382.941406 434.292969 393.214844 Z M 434.292969 393.214844 " fill-opacity="1" fill-rule="nonzero"/><g clip-path="url(#0bbe7e77e0)"><path fill="#000000" d="M 626.273438 206.105469 C 626.273438 242.84375 596.515625 272.601562 559.78125 272.601562 C 523.042969 272.601562 493.285156 242.84375 493.285156 206.105469 C 493.417969 169.367188 523.175781 139.609375 559.78125 139.609375 C 596.515625 139.609375 626.273438 169.367188 626.273438 206.105469 Z M 626.273438 206.105469 " fill-opacity="1" fill-rule="nonzero"/></g><path fill="#000000" d="M 534.5 411.253906 C 533.183594 411.253906 531.734375 410.988281 530.285156 410.464844 L 484.59375 392.160156 L 467.34375 385.3125 L 454.175781 380.046875 C 448.910156 377.941406 445.355469 373.332031 444.433594 368.195312 L 443.511719 363.457031 C 443.511719 363.457031 435.214844 322.898438 429.160156 293.140625 C 410.59375 293.929688 392.027344 297.488281 373.59375 303.28125 C 366.746094 305.386719 360.03125 307.890625 353.316406 310.652344 C 342.519531 315 331.722656 320.003906 321.054688 325.535156 C 322.109375 340.542969 323.425781 358.976562 324.609375 376.886719 C 325.53125 390.316406 326.453125 403.351562 327.242188 414.414062 C 328.558594 432.585938 329.480469 445.488281 329.480469 445.488281 L 329.878906 451.28125 C 330.007812 452.597656 329.878906 454.046875 329.613281 455.363281 C 329.21875 457.996094 328.164062 460.367188 326.585938 462.472656 L 265.753906 544.769531 C 262.855469 548.589844 259.035156 550.167969 255.351562 550.167969 C 246.792969 550.167969 238.757812 541.742188 242.839844 531.601562 L 278.261719 448.515625 C 274.441406 436.140625 265.488281 406.511719 256.667969 377.675781 C 254.691406 371.355469 252.847656 365.167969 251.003906 359.109375 C 242.578125 331.589844 235.597656 308.679688 235.597656 308.679688 C 230.859375 293.140625 237.179688 276.8125 250.082031 268.253906 L 257.71875 263.25 C 306.570312 239.945312 362.796875 221.644531 418.757812 221.644531 C 433.109375 221.644531 447.460938 222.828125 461.683594 225.460938 L 469.453125 227.304688 C 483.144531 230.597656 492.101562 243.367188 491.179688 257.0625 C 491.179688 257.0625 486.4375 326.851562 484.726562 351.738281 L 502.238281 363.980469 L 518.171875 375.175781 L 540.554688 390.84375 C 549.90625 397.824219 544.242188 411.253906 534.5 411.253906 Z M 534.5 411.253906 " fill-opacity="1" fill-rule="nonzero"/></svg>