<svg xmlns="http://www.w3.org/2000/svg" xmlns:xlink="http://www.w3.org/1999/xlink" width="1024" zoomAndPan="magnify" viewBox="0 0 768 767.999994" height="1024" preserveAspectRatio="xMidYMid meet" version="1.0"><defs><clipPath id="265648b07a"><path d="M 76.800781 116.734375 L 607 116.734375 L 607 651 L 76.800781 651 Z M 76.800781 116.734375 " clip-rule="nonzero"/></clipPath><clipPath id="d8e3bc3b25"><path d="M 369 399 L 688 399 L 688 651.484375 L 369 651.484375 Z M 369 399 " clip-rule="nonzero"/></clipPath></defs><g clip-path="url(#265648b07a)"><path fill="#000000" d="M 91.5 116.785156 L 91.5 624.167969 L 76.800781 624.167969 L 76.800781 650.832031 L 132.84375 650.832031 L 132.84375 624.167969 L 118.144531 624.167969 L 118.144531 562.613281 L 550.328125 562.613281 C 558.292969 562.613281 564.777344 569.097656 564.777344 577.066406 L 564.777344 624.167969 L 550.078125 624.167969 L 550.078125 650.832031 L 606.125 650.832031 L 606.125 624.167969 L 591.425781 624.167969 L 591.425781 577.066406 C 591.425781 554.394531 572.992188 535.945312 550.332031 535.945312 L 118.148438 535.945312 L 118.148438 258.089844 L 161.25 258.089844 L 171.9375 244.421875 L 163.542969 237.847656 L 156.054688 247.421875 L 128.636719 247.421875 L 128.636719 203.238281 L 118.144531 203.238281 L 118.144531 116.785156 Z M 91.5 116.785156 " fill-opacity="1" fill-rule="nonzero"/></g><path fill="#000000" d="M 256.738281 424.597656 C 253.554688 391.613281 224.253906 367.460938 191.292969 370.644531 C 158.332031 373.832031 134.191406 403.148438 137.375 436.132812 C 139.117188 454.179688 148.691406 469.574219 162.394531 479.300781 L 231.734375 479.300781 C 248.664062 467.265625 258.878906 446.765625 256.738281 424.597656 Z M 256.738281 424.597656 " fill-opacity="1" fill-rule="nonzero"/><path fill="#000000" d="M 288.214844 448.757812 C 285.378906 441.996094 285.339844 434.53125 288.113281 427.738281 C 290.832031 421.078125 295.9375 415.863281 302.511719 412.984375 C 295.128906 409.800781 288.207031 405.75 281.871094 400.957031 C 274.296875 406.671875 269.195312 415.554688 268.644531 425.777344 C 268.644531 425.84375 268.648438 425.90625 268.644531 425.972656 C 268.585938 426.289062 268.515625 426.605469 268.464844 426.929688 C 265.945312 443.84375 273.539062 465.214844 293.347656 479.300781 L 301.035156 479.300781 Z M 288.214844 448.757812 " fill-opacity="1" fill-rule="nonzero"/><g clip-path="url(#d8e3bc3b25)"><path fill="#000000" d="M 369.246094 417.203125 L 369.246094 479.417969 C 373.605469 480.007812 377.109375 482.847656 379.523438 487.46875 C 382.257812 482.242188 386.378906 479.296875 391.558594 479.296875 L 496.277344 479.296875 C 499.242188 476.9375 501.667969 474.433594 503.65625 471.8125 L 584.113281 476.144531 L 621.871094 626.128906 C 625.679688 641.25 639.246094 651.328125 654.148438 651.328125 C 656.84375 651.328125 659.582031 650.996094 662.3125 650.308594 C 680.152344 645.808594 690.96875 627.695312 686.472656 609.84375 L 642.714844 436.039062 C 639.148438 421.871094 626.78125 411.679688 612.203125 410.898438 L 403.375 399.648438 C 393.367188 407.566406 381.8125 413.589844 369.246094 417.203125 Z M 369.246094 417.203125 " fill-opacity="1" fill-rule="nonzero"/></g><path fill="#000000" d="M 391.558594 525.027344 L 538.996094 525.027344 C 549.363281 525.027344 557.847656 516.539062 557.847656 506.164062 C 557.847656 495.789062 549.363281 487.300781 538.996094 487.300781 L 391.558594 487.300781 C 381.195312 487.300781 381.195312 525.027344 391.558594 525.027344 Z M 391.558594 525.027344 " fill-opacity="1" fill-rule="nonzero"/><path fill="#000000" d="M 369.246094 505.074219 C 369.273438 507.03125 369.09375 508.984375 368.699219 510.914062 C 368.636719 511.234375 368.542969 511.542969 368.46875 511.859375 C 368.339844 512.398438 368.214844 512.945312 368.050781 513.480469 C 367.910156 513.941406 367.734375 514.386719 367.570312 514.839844 C 367.445312 515.1875 367.34375 515.535156 367.203125 515.878906 C 367.183594 515.929688 367.15625 515.972656 367.136719 516.023438 C 366.980469 516.390625 366.800781 516.746094 366.628906 517.105469 C 366.40625 517.589844 366.1875 518.074219 365.941406 518.542969 C 365.890625 518.632812 365.832031 518.71875 365.78125 518.808594 C 364.511719 521.113281 362.9375 523.207031 361.089844 525.03125 L 367.488281 525.03125 C 377.234375 525.03125 377.816406 491.703125 369.242188 487.703125 L 369.242188 505.074219 Z M 369.246094 505.074219 " fill-opacity="1" fill-rule="nonzero"/><path fill="#000000" d="M 151.722656 487.300781 C 141.355469 487.300781 132.871094 495.789062 132.871094 506.164062 C 132.871094 516.542969 141.355469 525.027344 151.722656 525.027344 L 322.511719 525.027344 C 319.992188 522.53125 317.921875 519.539062 316.492188 516.128906 L 304.390625 487.300781 Z M 151.722656 487.300781 " fill-opacity="1" fill-rule="nonzero"/><path fill="#000000" d="M 322.117188 513.6875 C 322.503906 514.617188 322.96875 515.5 323.476562 516.355469 C 323.585938 516.542969 323.695312 516.726562 323.8125 516.910156 C 324.300781 517.683594 324.828125 518.429688 325.410156 519.128906 C 325.527344 519.273438 325.65625 519.398438 325.78125 519.539062 C 326.277344 520.101562 326.796875 520.636719 327.351562 521.144531 C 327.542969 521.324219 327.726562 521.5 327.921875 521.667969 C 328.59375 522.246094 329.296875 522.785156 330.039062 523.28125 C 330.160156 523.359375 330.289062 523.429688 330.410156 523.507812 C 333.707031 525.597656 337.605469 526.824219 341.796875 526.824219 C 353.570312 526.824219 363.113281 517.273438 363.113281 505.492188 L 363.113281 418.761719 C 356.242188 420.265625 349.113281 421.085938 341.796875 421.085938 C 334.476562 421.085938 327.351562 420.269531 320.476562 418.761719 L 320.476562 469.800781 L 314.347656 456.816406 L 314.347656 417.203125 C 313.890625 417.074219 313.433594 416.949219 312.980469 416.8125 C 310.402344 416.878906 307.789062 417.394531 305.265625 418.453125 C 294.410156 423.015625 289.304688 435.519531 293.867188 446.382812 Z M 322.117188 513.6875 " fill-opacity="1" fill-rule="nonzero"/><path fill="#000000" d="M 341.800781 413.085938 C 392.363281 413.085938 433.359375 372.066406 433.359375 321.46875 C 433.359375 270.871094 392.363281 229.847656 341.800781 229.847656 C 291.234375 229.847656 250.238281 270.871094 250.238281 321.46875 C 250.238281 372.066406 291.230469 413.085938 341.800781 413.085938 Z M 341.800781 278.355469 C 365.597656 278.355469 384.882812 297.65625 384.882812 321.46875 C 384.882812 345.277344 365.59375 364.582031 341.800781 364.582031 C 318.003906 364.582031 298.714844 345.277344 298.714844 321.46875 C 298.714844 297.65625 318 278.355469 341.800781 278.355469 Z M 341.800781 278.355469 " fill-opacity="1" fill-rule="nonzero"/><path fill="#000000" d="M 350.175781 301.230469 C 350.835938 301.503906 351.484375 301.8125 352.117188 302.148438 C 352.746094 302.488281 353.359375 302.855469 353.957031 303.253906 C 354.554688 303.652344 355.128906 304.078125 355.683594 304.535156 C 356.234375 304.988281 356.765625 305.46875 357.273438 305.976562 C 357.78125 306.484375 358.261719 307.015625 358.714844 307.570312 C 359.167969 308.125 359.597656 308.699219 359.992188 309.296875 C 360.390625 309.890625 360.761719 310.503906 361.097656 311.136719 C 361.4375 311.769531 361.742188 312.417969 362.015625 313.082031 C 362.289062 313.742188 362.53125 314.417969 362.738281 315.105469 C 362.949219 315.789062 363.121094 316.484375 363.261719 317.1875 C 363.402344 317.890625 363.507812 318.601562 363.578125 319.3125 C 363.648438 320.027344 363.683594 320.742188 363.683594 321.460938 C 363.683594 322.175781 363.648438 322.890625 363.578125 323.605469 C 363.507812 324.320312 363.402344 325.027344 363.261719 325.730469 C 363.121094 326.433594 362.949219 327.128906 362.738281 327.816406 C 362.53125 328.5 362.289062 329.175781 362.015625 329.839844 C 361.742188 330.5 361.4375 331.148438 361.097656 331.78125 C 360.761719 332.414062 360.390625 333.027344 359.992188 333.625 C 359.597656 334.21875 359.167969 334.796875 358.714844 335.351562 C 358.261719 335.902344 357.78125 336.433594 357.273438 336.941406 C 356.765625 337.449219 356.234375 337.929688 355.683594 338.386719 C 355.128906 338.839844 354.554688 339.265625 353.957031 339.664062 C 353.359375 340.0625 352.746094 340.429688 352.117188 340.769531 C 351.484375 341.109375 350.835938 341.414062 350.175781 341.6875 C 349.511719 341.960938 348.839844 342.203125 348.152344 342.410156 C 347.464844 342.621094 346.773438 342.792969 346.070312 342.933594 C 345.367188 343.074219 344.660156 343.179688 343.945312 343.25 C 343.230469 343.320312 342.515625 343.355469 341.800781 343.355469 C 341.082031 343.355469 340.367188 343.320312 339.65625 343.25 C 338.941406 343.179688 338.234375 343.074219 337.53125 342.933594 C 336.828125 342.792969 336.132812 342.621094 335.449219 342.410156 C 334.761719 342.203125 334.089844 341.960938 333.425781 341.6875 C 332.765625 341.414062 332.117188 341.109375 331.484375 340.769531 C 330.855469 340.429688 330.238281 340.0625 329.644531 339.664062 C 329.046875 339.265625 328.472656 338.839844 327.917969 338.386719 C 327.367188 337.929688 326.835938 337.449219 326.328125 336.941406 C 325.820312 336.433594 325.339844 335.902344 324.886719 335.351562 C 324.429688 334.796875 324.003906 334.21875 323.605469 333.625 C 323.207031 333.027344 322.839844 332.414062 322.503906 331.78125 C 322.164062 331.148438 321.859375 330.5 321.585938 329.839844 C 321.3125 329.175781 321.070312 328.5 320.863281 327.816406 C 320.652344 327.128906 320.480469 326.433594 320.339844 325.730469 C 320.199219 325.027344 320.09375 324.320312 320.023438 323.605469 C 319.953125 322.890625 319.917969 322.175781 319.917969 321.460938 C 319.917969 320.742188 319.953125 320.027344 320.023438 319.3125 C 320.09375 318.601562 320.199219 317.890625 320.339844 317.1875 C 320.480469 316.484375 320.652344 315.789062 320.863281 315.105469 C 321.070312 314.417969 321.3125 313.742188 321.585938 313.082031 C 321.859375 312.417969 322.164062 311.769531 322.503906 311.136719 C 322.839844 310.503906 323.207031 309.890625 323.605469 309.296875 C 324.003906 308.699219 324.429688 308.125 324.886719 307.570312 C 325.339844 307.015625 325.820312 306.484375 326.328125 305.976562 C 326.835938 305.46875 327.367188 304.988281 327.917969 304.535156 C 328.472656 304.078125 329.046875 303.652344 329.644531 303.253906 C 330.238281 302.855469 330.855469 302.488281 331.484375 302.148438 C 332.117188 301.8125 332.765625 301.503906 333.425781 301.230469 C 334.089844 300.957031 334.761719 300.714844 335.449219 300.507812 C 336.132812 300.300781 336.828125 300.125 337.53125 299.984375 C 338.234375 299.84375 338.941406 299.738281 339.65625 299.667969 C 340.367188 299.597656 341.082031 299.5625 341.800781 299.5625 C 342.515625 299.5625 343.230469 299.597656 343.945312 299.667969 C 344.660156 299.738281 345.367188 299.84375 346.070312 299.984375 C 346.773438 300.125 347.464844 300.300781 348.152344 300.507812 C 348.839844 300.714844 349.511719 300.957031 350.175781 301.230469 Z M 350.175781 301.230469 " fill-opacity="1" fill-rule="nonzero"/></svg>