<svg xmlns="http://www.w3.org/2000/svg" xmlns:xlink="http://www.w3.org/1999/xlink" width="1024" zoomAndPan="magnify" viewBox="0 0 768 767.999994" height="1024" preserveAspectRatio="xMidYMid meet" version="1.0"><defs><clipPath id="b6034ca0e5"><path d="M 429 161.664062 L 528 161.664062 L 528 260 L 429 260 Z M 429 161.664062 " clip-rule="nonzero"/></clipPath></defs><path fill="#000000" d="M 397.785156 588.019531 L 410.109375 588.019531 L 410.109375 594.320312 L 397.785156 594.320312 Z M 397.785156 588.019531 " fill-opacity="1" fill-rule="nonzero"/><path fill="#000000" d="M 547.351562 588.019531 L 559.679688 588.019531 L 559.679688 594.320312 L 547.351562 594.320312 Z M 547.351562 588.019531 " fill-opacity="1" fill-rule="nonzero"/><g clip-path="url(#b6034ca0e5)"><path fill="#000000" d="M 527.523438 210.476562 C 527.523438 212.078125 527.445312 213.671875 527.289062 215.261719 C 527.132812 216.855469 526.898438 218.433594 526.585938 220 C 526.273438 221.570312 525.886719 223.117188 525.421875 224.648438 C 524.960938 226.179688 524.421875 227.679688 523.808594 229.160156 C 523.199219 230.636719 522.515625 232.078125 521.761719 233.488281 C 521.007812 234.898438 520.1875 236.269531 519.300781 237.597656 C 518.414062 238.925781 517.460938 240.210938 516.449219 241.445312 C 515.433594 242.679688 514.363281 243.863281 513.234375 244.996094 C 512.101562 246.125 510.921875 247.199219 509.683594 248.210938 C 508.449219 249.226562 507.167969 250.175781 505.839844 251.066406 C 504.511719 251.953125 503.140625 252.773438 501.730469 253.527344 C 500.320312 254.28125 498.878906 254.964844 497.402344 255.578125 C 495.925781 256.1875 494.421875 256.726562 492.894531 257.191406 C 491.363281 257.652344 489.816406 258.042969 488.25 258.355469 C 486.683594 258.664062 485.101562 258.898438 483.511719 259.058594 C 481.921875 259.214844 480.328125 259.292969 478.730469 259.292969 C 477.132812 259.292969 475.539062 259.214844 473.949219 259.058594 C 472.355469 258.898438 470.777344 258.664062 469.210938 258.355469 C 467.644531 258.042969 466.09375 257.652344 464.566406 257.191406 C 463.035156 256.726562 461.535156 256.1875 460.058594 255.578125 C 458.582031 254.964844 457.136719 254.28125 455.730469 253.527344 C 454.320312 252.773438 452.949219 251.953125 451.621094 251.066406 C 450.292969 250.175781 449.011719 249.226562 447.777344 248.210938 C 446.539062 247.199219 445.359375 246.125 444.226562 244.996094 C 443.097656 243.863281 442.027344 242.679688 441.011719 241.445312 C 440 240.210938 439.046875 238.925781 438.160156 237.597656 C 437.273438 236.269531 436.453125 234.898438 435.699219 233.488281 C 434.945312 232.078125 434.261719 230.636719 433.652344 229.160156 C 433.039062 227.679688 432.5 226.179688 432.039062 224.648438 C 431.574219 223.117188 431.1875 221.570312 430.875 220 C 430.5625 218.433594 430.328125 216.855469 430.171875 215.261719 C 430.015625 213.671875 429.9375 212.078125 429.9375 210.476562 C 429.9375 208.878906 430.015625 207.285156 430.171875 205.695312 C 430.328125 204.101562 430.5625 202.523438 430.875 200.953125 C 431.1875 199.386719 431.574219 197.839844 432.039062 196.308594 C 432.5 194.777344 433.039062 193.273438 433.652344 191.796875 C 434.261719 190.320312 434.945312 188.878906 435.699219 187.46875 C 436.453125 186.058594 437.273438 184.6875 438.160156 183.359375 C 439.046875 182.027344 440 180.746094 441.011719 179.511719 C 442.027344 178.273438 443.097656 177.089844 444.226562 175.960938 C 445.359375 174.832031 446.539062 173.757812 447.777344 172.746094 C 449.011719 171.730469 450.292969 170.777344 451.621094 169.890625 C 452.949219 169.003906 454.320312 168.179688 455.730469 167.429688 C 457.136719 166.675781 458.582031 165.992188 460.058594 165.378906 C 461.535156 164.769531 463.035156 164.230469 464.566406 163.765625 C 466.09375 163.300781 467.644531 162.914062 469.210938 162.601562 C 470.777344 162.289062 472.355469 162.054688 473.949219 161.898438 C 475.539062 161.742188 477.132812 161.664062 478.730469 161.664062 C 480.328125 161.664062 481.921875 161.742188 483.511719 161.898438 C 485.101562 162.054688 486.683594 162.289062 488.25 162.601562 C 489.816406 162.914062 491.363281 163.300781 492.894531 163.765625 C 494.421875 164.230469 495.925781 164.769531 497.402344 165.378906 C 498.878906 165.992188 500.320312 166.675781 501.730469 167.429688 C 503.140625 168.179688 504.511719 169.003906 505.839844 169.890625 C 507.167969 170.777344 508.449219 171.730469 509.683594 172.746094 C 510.921875 173.757812 512.101562 174.832031 513.234375 175.960938 C 514.363281 177.089844 515.433594 178.273438 516.449219 179.511719 C 517.460938 180.746094 518.414062 182.027344 519.300781 183.359375 C 520.1875 184.6875 521.007812 186.058594 521.761719 187.46875 C 522.515625 188.878906 523.199219 190.320312 523.808594 191.796875 C 524.421875 193.273438 524.960938 194.777344 525.421875 196.308594 C 525.886719 197.839844 526.273438 199.386719 526.585938 200.953125 C 526.898438 202.523438 527.132812 204.101562 527.289062 205.695312 C 527.445312 207.285156 527.523438 208.878906 527.523438 210.476562 Z M 527.523438 210.476562 " fill-opacity="1" fill-rule="nonzero"/></g><path fill="#000000" d="M 366.226562 503.308594 C 366.226562 508.082031 370.128906 510.941406 374.898438 509.660156 L 380.8125 508.074219 L 380.8125 413.117188 L 399.300781 408.160156 L 399.300781 503.117188 L 405.210938 501.53125 C 409.984375 500.253906 413.886719 495.300781 413.886719 490.527344 L 413.886719 387.03125 C 413.886719 382.261719 409.984375 379.402344 405.210938 380.679688 L 374.898438 388.808594 C 370.125 390.085938 366.222656 395.039062 366.222656 399.8125 L 366.222656 503.308594 Z M 366.226562 503.308594 " fill-opacity="1" fill-rule="nonzero"/><path fill="#000000" d="M 390.058594 425.644531 C 387.109375 426.4375 384.714844 429.46875 384.714844 432.417969 C 384.714844 435.371094 387.109375 437.121094 390.058594 436.332031 C 393.007812 435.539062 395.398438 432.507812 395.398438 429.554688 C 395.398438 426.605469 393.007812 424.855469 390.058594 425.644531 Z M 390.058594 425.644531 " fill-opacity="1" fill-rule="nonzero"/><path fill="#000000" d="M 390.058594 473.125 C 387.109375 473.914062 384.714844 476.949219 384.714844 479.898438 C 384.714844 482.847656 387.109375 484.601562 390.058594 483.808594 C 393.007812 483.019531 395.398438 479.984375 395.398438 477.035156 C 395.398438 474.082031 393.007812 472.332031 390.058594 473.125 Z M 390.058594 473.125 " fill-opacity="1" fill-rule="nonzero"/><path fill="#000000" d="M 543.574219 387.03125 L 543.574219 490.53125 C 543.574219 495.300781 547.476562 500.253906 552.25 501.535156 L 558.160156 503.117188 L 558.160156 408.164062 L 576.648438 413.121094 L 576.648438 508.078125 L 582.5625 509.664062 C 587.332031 510.941406 591.234375 508.082031 591.234375 503.308594 L 591.234375 399.8125 C 591.234375 395.039062 587.332031 390.089844 582.5625 388.808594 L 552.246094 380.683594 C 547.476562 379.402344 543.574219 382.261719 543.574219 387.03125 Z M 543.574219 387.03125 " fill-opacity="1" fill-rule="nonzero"/><path fill="#000000" d="M 567.40625 436.332031 C 570.355469 437.125 572.746094 435.371094 572.746094 432.421875 C 572.746094 429.46875 570.355469 426.433594 567.40625 425.644531 C 564.457031 424.855469 562.0625 426.605469 562.0625 429.558594 C 562.0625 432.507812 564.457031 435.539062 567.40625 436.332031 Z M 567.40625 436.332031 " fill-opacity="1" fill-rule="nonzero"/><path fill="#000000" d="M 567.40625 483.808594 C 570.355469 484.601562 572.746094 482.847656 572.746094 479.898438 C 572.746094 476.949219 570.355469 473.914062 567.40625 473.125 C 564.457031 472.332031 562.0625 474.085938 562.0625 477.035156 C 562.0625 479.984375 564.457031 483.019531 567.40625 483.808594 Z M 567.40625 483.808594 " fill-opacity="1" fill-rule="nonzero"/><path fill="#000000" d="M 669.792969 560.046875 C 670.898438 559.761719 672.039062 559.617188 673.175781 559.617188 C 679.425781 559.617188 684.875 563.839844 686.421875 569.886719 L 686.984375 572.074219 L 690.25 572.074219 L 690.25 550.378906 L 652.3125 550.378906 L 621.511719 434.632812 C 618.421875 423.023438 607.988281 415.078125 596.226562 414.914062 L 596.226562 504.644531 C 596.226562 510.28125 592.796875 514.210938 587.914062 514.992188 L 597.332031 550.378906 L 592.210938 550.378906 C 584.976562 544 576.582031 537.960938 567.34375 533.664062 C 568.492188 533.636719 569.230469 533.695312 569.414062 533.714844 C 572.953125 534.117188 576.175781 531.566406 576.59375 528.011719 C 576.628906 527.726562 576.613281 527.453125 576.609375 527.179688 L 576.652344 527.191406 L 576.652344 511.570312 L 558.164062 506.613281 L 558.164062 522.003906 C 548.035156 524.464844 534.035156 531.410156 524.460938 550.382812 L 489.578125 550.382812 L 489.578125 488.109375 L 538.589844 488.109375 L 538.589844 385.699219 C 538.589844 378.160156 544.71875 373.671875 552.253906 375.691406 L 570.777344 380.660156 C 568.039062 330.269531 558.414062 297.027344 541.953125 281.519531 C 536.039062 275.945312 530.246094 273.480469 525.675781 272.433594 C 524.082031 271.929688 522.386719 271.65625 520.625 271.65625 L 436.839844 271.65625 C 435.074219 271.65625 433.375 271.929688 431.777344 272.4375 C 427.207031 273.488281 421.421875 275.953125 415.511719 281.519531 C 399.054688 297.027344 389.425781 330.269531 386.691406 380.660156 L 405.214844 375.695312 C 412.75 373.675781 418.875 378.164062 418.875 385.699219 L 418.875 488.109375 L 467.890625 488.109375 L 467.890625 550.382812 L 433.007812 550.382812 C 423.429688 531.410156 409.433594 524.464844 399.300781 522.003906 L 399.300781 506.617188 L 380.8125 511.574219 L 380.8125 527.191406 L 380.882812 527.171875 C 380.878906 527.433594 380.859375 527.6875 380.890625 527.957031 C 381.28125 531.507812 384.511719 534.066406 388.042969 533.71875 C 388.207031 533.699219 388.953125 533.640625 390.117188 533.667969 C 380.878906 537.964844 372.492188 544 365.253906 550.382812 L 360.132812 550.382812 L 369.550781 514.992188 C 364.667969 514.214844 361.238281 510.285156 361.238281 504.644531 L 361.238281 414.917969 C 349.472656 415.085938 339.046875 423.023438 335.957031 434.632812 L 305.152344 550.382812 L 282.675781 550.382812 L 282.675781 241.945312 C 282.675781 215.695312 261.207031 194.214844 234.964844 194.214844 L 147.945312 194.214844 C 121.703125 194.214844 100.234375 215.695312 100.234375 241.945312 L 100.234375 550.378906 L 77.5 550.378906 L 77.5 572.074219 L 270.90625 572.074219 L 271.46875 569.886719 C 273.019531 563.839844 278.464844 559.617188 284.714844 559.617188 C 285.847656 559.617188 286.988281 559.761719 288.097656 560.046875 L 357.085938 577.757812 C 358.542969 575.972656 360.160156 574.0625 361.933594 572.074219 L 394.148438 572.074219 L 394.148438 584.660156 L 563.316406 584.660156 L 563.316406 572.074219 L 595.507812 572.074219 C 597.3125 574.09375 598.960938 576.039062 600.4375 577.851562 Z M 132.765625 512.90625 L 163.101562 512.90625 L 163.101562 532.730469 L 132.765625 532.730469 Z M 214.054688 430.890625 L 214.054688 439.03125 L 168.855469 439.03125 L 168.855469 430.890625 Z M 168.855469 420.617188 L 168.855469 226.757812 L 214.054688 226.757812 L 214.054688 420.613281 L 168.855469 420.613281 Z M 214.054688 449.308594 L 214.054688 457.449219 L 168.855469 457.449219 L 168.855469 449.308594 Z M 214.054688 467.722656 L 214.054688 475.863281 L 168.855469 475.863281 L 168.855469 467.722656 Z M 205.398438 486.140625 L 209.871094 495.550781 L 176.050781 495.550781 L 180.519531 486.140625 Z M 214.054688 512.90625 L 214.054688 532.730469 L 168.855469 532.730469 L 168.855469 512.90625 Z M 219.804688 512.90625 L 250.144531 512.90625 L 250.144531 532.730469 L 219.804688 532.730469 Z M 250.144531 241.941406 L 250.144531 495.546875 L 227 495.546875 L 231.472656 486.140625 L 237.882812 486.140625 L 237.882812 475.863281 L 219.804688 475.863281 L 219.804688 467.722656 L 237.882812 467.722656 L 237.882812 457.445312 L 219.804688 457.445312 L 219.804688 449.304688 L 237.882812 449.304688 L 237.882812 439.03125 L 219.804688 439.03125 L 219.804688 430.890625 L 237.882812 430.890625 L 237.882812 420.613281 L 219.804688 420.613281 L 219.804688 226.757812 L 234.960938 226.757812 C 243.191406 226.757812 250.144531 233.710938 250.144531 241.941406 Z M 147.945312 226.757812 L 163.101562 226.757812 L 163.101562 420.613281 L 145.023438 420.613281 L 145.023438 430.890625 L 163.101562 430.890625 L 163.101562 439.03125 L 145.023438 439.03125 L 145.023438 449.308594 L 163.101562 449.308594 L 163.101562 457.449219 L 145.023438 457.449219 L 145.023438 467.726562 L 163.101562 467.726562 L 163.101562 475.867188 L 145.023438 475.867188 L 145.023438 486.144531 L 154.449219 486.144531 L 158.917969 495.550781 L 132.765625 495.550781 L 132.765625 241.941406 C 132.765625 233.710938 139.71875 226.757812 147.945312 226.757812 Z M 547.988281 541.03125 C 556.039062 542.402344 563.734375 545.867188 570.777344 550.378906 L 539.492188 550.378906 C 542.183594 546.402344 545.082031 543.347656 547.988281 541.03125 Z M 409.472656 541.03125 C 412.378906 543.347656 415.277344 546.402344 417.964844 550.378906 L 386.652344 550.378906 C 393.699219 545.871094 401.402344 542.40625 409.472656 541.03125 Z M 409.472656 541.03125 " fill-opacity="1" fill-rule="nonzero"/><path fill="#000000" d="M 286.855469 564.878906 C 282.234375 563.691406 277.484375 566.503906 276.296875 571.125 L 275.433594 574.488281 C 274.246094 579.113281 277.058594 583.867188 281.679688 585.054688 L 360.394531 605.257812 C 365.015625 606.445312 369.769531 603.636719 370.953125 599.011719 L 371.816406 595.648438 C 373.003906 591.027344 370.191406 586.273438 365.570312 585.085938 Z M 286.855469 564.878906 " fill-opacity="1" fill-rule="nonzero"/><path fill="#000000" d="M 682.453125 574.488281 L 681.589844 571.125 C 680.40625 566.503906 675.652344 563.691406 671.03125 564.878906 L 592.316406 585.085938 C 587.695312 586.273438 584.882812 591.027344 586.070312 595.648438 L 586.933594 599.011719 C 588.121094 603.632812 592.871094 606.445312 597.492188 605.257812 L 676.207031 585.054688 C 680.832031 583.867188 683.640625 579.113281 682.453125 574.488281 Z M 682.453125 574.488281 " fill-opacity="1" fill-rule="nonzero"/></svg>