<svg xmlns="http://www.w3.org/2000/svg" xmlns:xlink="http://www.w3.org/1999/xlink" width="1024" zoomAndPan="magnify" viewBox="0 0 768 767.999994" height="1024" preserveAspectRatio="xMidYMid meet" version="1.0"><defs><clipPath id="e31c73ad05"><path d="M 77 428 L 458 428 L 458 571.609375 L 77 571.609375 Z M 77 428 " clip-rule="nonzero"/></clipPath><clipPath id="3530fdc9c0"><path d="M 564 196.609375 L 651 196.609375 L 651 283 L 564 283 Z M 564 196.609375 " clip-rule="nonzero"/></clipPath></defs><g clip-path="url(#e31c73ad05)"><path fill="#000000" d="M 208.988281 505.042969 L 207.09375 499.050781 L 177.652344 508.386719 C 173.320312 505.390625 168.082031 503.625 162.445312 503.625 C 147.664062 503.625 135.566406 515.730469 135.566406 530.523438 L 135.566406 545.445312 L 77.195312 545.445312 L 77.195312 571.535156 L 200.65625 571.535156 L 200.65625 545.445312 L 189.324219 545.445312 L 189.324219 530.523438 C 189.324219 530.027344 189.273438 529.539062 189.246094 529.046875 L 214.097656 521.167969 L 212.199219 515.175781 L 457.144531 437.496094 L 451.777344 428.042969 Z M 162.445312 538.554688 C 156.90625 538.554688 152.414062 534.0625 152.414062 528.519531 C 152.414062 522.976562 156.90625 518.480469 162.445312 518.480469 C 167.980469 518.480469 172.472656 522.976562 172.472656 528.519531 C 172.472656 534.0625 167.984375 538.554688 162.445312 538.554688 Z M 162.445312 538.554688 " fill-opacity="1" fill-rule="nonzero"/></g><path fill="#000000" d="M 509.535156 409.730469 L 514.898438 419.183594 L 536.019531 412.484375 L 527.347656 404.078125 Z M 509.535156 409.730469 " fill-opacity="1" fill-rule="nonzero"/><g clip-path="url(#3530fdc9c0)"><path fill="#000000" d="M 650.523438 239.65625 C 650.523438 241.066406 650.453125 242.472656 650.316406 243.875 C 650.179688 245.277344 649.972656 246.671875 649.699219 248.054688 C 649.421875 249.4375 649.082031 250.804688 648.671875 252.152344 C 648.261719 253.503906 647.789062 254.828125 647.25 256.128906 C 646.710938 257.433594 646.109375 258.707031 645.445312 259.949219 C 644.78125 261.191406 644.058594 262.402344 643.273438 263.574219 C 642.492188 264.746094 641.652344 265.875 640.761719 266.964844 C 639.867188 268.054688 638.921875 269.097656 637.925781 270.097656 C 636.929688 271.09375 635.886719 272.039062 634.796875 272.933594 C 633.710938 273.828125 632.578125 274.667969 631.40625 275.449219 C 630.234375 276.234375 629.03125 276.957031 627.785156 277.621094 C 626.542969 278.285156 625.273438 278.886719 623.972656 279.429688 C 622.667969 279.96875 621.34375 280.441406 619.996094 280.851562 C 618.648438 281.261719 617.285156 281.601562 615.902344 281.878906 C 614.519531 282.152344 613.128906 282.359375 611.726562 282.496094 C 610.324219 282.636719 608.917969 282.703125 607.511719 282.703125 C 606.101562 282.703125 604.695312 282.636719 603.292969 282.496094 C 601.894531 282.359375 600.5 282.152344 599.121094 281.878906 C 597.738281 281.601562 596.371094 281.261719 595.023438 280.851562 C 593.675781 280.441406 592.351562 279.96875 591.050781 279.429688 C 589.75 278.886719 588.476562 278.285156 587.234375 277.621094 C 585.992188 276.957031 584.785156 276.234375 583.613281 275.449219 C 582.441406 274.667969 581.3125 273.828125 580.222656 272.933594 C 579.132812 272.039062 578.09375 271.09375 577.097656 270.097656 C 576.101562 269.097656 575.15625 268.054688 574.261719 266.964844 C 573.367188 265.875 572.53125 264.746094 571.746094 263.574219 C 570.964844 262.402344 570.242188 261.191406 569.578125 259.949219 C 568.914062 258.707031 568.3125 257.433594 567.773438 256.128906 C 567.234375 254.828125 566.757812 253.503906 566.351562 252.152344 C 565.941406 250.804688 565.597656 249.4375 565.324219 248.054688 C 565.050781 246.671875 564.84375 245.277344 564.703125 243.875 C 564.566406 242.472656 564.496094 241.066406 564.496094 239.65625 C 564.496094 238.246094 564.566406 236.839844 564.703125 235.4375 C 564.84375 234.035156 565.050781 232.640625 565.324219 231.257812 C 565.597656 229.875 565.941406 228.507812 566.351562 227.160156 C 566.757812 225.8125 567.234375 224.484375 567.773438 223.183594 C 568.3125 221.878906 568.914062 220.605469 569.578125 219.363281 C 570.242188 218.121094 570.964844 216.914062 571.746094 215.738281 C 572.53125 214.566406 573.367188 213.4375 574.261719 212.347656 C 575.15625 211.257812 576.101562 210.214844 577.097656 209.214844 C 578.09375 208.21875 579.132812 207.273438 580.222656 206.378906 C 581.3125 205.484375 582.441406 204.644531 583.613281 203.863281 C 584.785156 203.078125 585.992188 202.355469 587.234375 201.691406 C 588.476562 201.027344 589.75 200.425781 591.050781 199.886719 C 592.351562 199.34375 593.675781 198.871094 595.023438 198.460938 C 596.371094 198.050781 597.738281 197.710938 599.121094 197.433594 C 600.5 197.160156 601.894531 196.953125 603.292969 196.816406 C 604.695312 196.675781 606.101562 196.609375 607.511719 196.609375 C 608.917969 196.609375 610.324219 196.675781 611.726562 196.816406 C 613.128906 196.953125 614.519531 197.160156 615.902344 197.433594 C 617.285156 197.710938 618.648438 198.050781 619.996094 198.460938 C 621.34375 198.871094 622.667969 199.34375 623.972656 199.886719 C 625.273438 200.425781 626.542969 201.027344 627.785156 201.691406 C 629.03125 202.355469 630.234375 203.078125 631.40625 203.863281 C 632.578125 204.644531 633.710938 205.484375 634.796875 206.378906 C 635.886719 207.273438 636.929688 208.21875 637.925781 209.214844 C 638.921875 210.214844 639.867188 211.257812 640.761719 212.347656 C 641.652344 213.4375 642.492188 214.566406 643.273438 215.738281 C 644.058594 216.914062 644.78125 218.121094 645.445312 219.363281 C 646.109375 220.605469 646.710938 221.878906 647.25 223.183594 C 647.789062 224.484375 648.261719 225.8125 648.671875 227.160156 C 649.082031 228.507812 649.421875 229.875 649.699219 231.257812 C 649.972656 232.640625 650.179688 234.035156 650.316406 235.4375 C 650.453125 236.839844 650.523438 238.246094 650.523438 239.65625 Z M 650.523438 239.65625 " fill-opacity="1" fill-rule="nonzero"/></g><path fill="#000000" d="M 535.902344 284.65625 C 513.480469 297.085938 482.386719 316.085938 451.632812 323.238281 C 449.675781 323.691406 447.71875 324.105469 445.765625 324.460938 C 434.066406 327.496094 427.796875 330.800781 424.90625 335.058594 C 417.953125 342.5 416.300781 353.871094 421.589844 363.199219 L 469.179688 447.085938 L 473.980469 547.941406 C 474.589844 560.75 485.15625 570.722656 497.832031 570.722656 C 498.214844 570.722656 498.601562 570.710938 498.984375 570.695312 C 512.167969 570.0625 522.347656 558.859375 521.71875 545.667969 L 516.648438 439.105469 C 516.46875 435.355469 515.414062 431.699219 513.5625 428.4375 L 488.496094 384.253906 C 490.453125 383.769531 492.371094 383.273438 494.246094 382.765625 C 497.183594 381.972656 500.035156 381.152344 502.808594 380.292969 L 480.773438 358.941406 C 476.21875 354.527344 474.058594 348.148438 474.996094 341.871094 C 475.933594 335.597656 479.863281 330.128906 485.507812 327.238281 L 549.742188 294.371094 C 552.507812 292.957031 555.605469 292.207031 558.695312 292.207031 C 566.132812 292.207031 572.855469 296.320312 576.238281 302.949219 C 578.632812 307.632812 579.0625 312.972656 577.445312 317.980469 C 575.824219 322.992188 572.355469 327.066406 567.671875 329.464844 L 527.949219 349.789062 L 569.023438 389.59375 C 572.984375 393.433594 574.976562 398.550781 575 403.679688 C 575.871094 402.382812 576.542969 400.972656 576.984375 399.496094 L 606.332031 390.1875 L 620.601562 435.261719 C 621.597656 438.402344 625.6875 439.929688 629.699219 438.65625 L 631.003906 438.242188 C 635.011719 436.972656 637.480469 433.363281 636.484375 430.222656 L 628.453125 404.851562 L 640.882812 400.90625 L 634.648438 381.210938 L 690.699219 363.433594 L 687.492188 353.296875 L 631.4375 371.074219 L 625.203125 351.375 L 612.769531 355.316406 L 604.734375 329.945312 C 603.742188 326.804688 599.648438 325.273438 595.640625 326.546875 L 594.335938 326.960938 C 590.328125 328.234375 587.859375 331.839844 588.851562 334.980469 L 603.125 380.054688 L 576.15625 388.605469 C 575.828125 387.910156 575.460938 387.222656 575.015625 386.5625 L 554.167969 355.589844 C 558.996094 352.382812 563.949219 348.878906 569.15625 345.015625 C 592.828125 327.230469 593.988281 301.976562 585.09375 287.6875 C 576.195312 273.398438 552.320312 273.574219 535.902344 284.65625 Z M 535.902344 284.65625 " fill-opacity="1" fill-rule="nonzero"/><path fill="#000000" d="M 565.957031 392.757812 L 520.464844 348.671875 L 565.660156 325.542969 C 573.183594 321.695312 576.164062 312.472656 572.316406 304.945312 C 568.472656 297.417969 559.261719 294.429688 551.738281 298.285156 L 487.503906 331.15625 C 483.105469 333.402344 480.066406 337.636719 479.335938 342.519531 C 478.605469 347.40625 480.277344 352.34375 483.828125 355.78125 L 544.679688 414.75 C 547.648438 417.625 551.484375 419.058594 555.3125 419.058594 C 559.3125 419.058594 563.304688 417.5 566.300781 414.398438 C 572.179688 408.328125 572.023438 398.636719 565.957031 392.757812 Z M 565.957031 392.757812 " fill-opacity="1" fill-rule="nonzero"/></svg>