<svg xmlns="http://www.w3.org/2000/svg" xmlns:xlink="http://www.w3.org/1999/xlink" width="1024" zoomAndPan="magnify" viewBox="0 0 768 775.92" height="1024" preserveAspectRatio="xMidYMid meet" version="1.0"><defs><clipPath id="5e5d74e5d3"><path d="M 168 76.792969 L 600.902344 76.792969 L 600.902344 690.980469 L 168 690.980469 Z M 168 76.792969 " clip-rule="nonzero"/></clipPath></defs><g clip-path="url(#5e5d74e5d3)"><path fill="#9ded02" d="M 600.445312 670.804688 L 549.492188 670.804688 L 549.492188 151.210938 L 571.21875 151.210938 L 571.21875 110.9375 L 401.035156 110.9375 L 337.679688 76.996094 L 318.660156 112.496094 L 332.503906 119.914062 L 324.757812 133.765625 C 320.183594 141.945312 323.128906 152.382812 331.3125 156.957031 C 332.546875 157.648438 333.835938 158.148438 335.148438 158.503906 L 347.542969 343.34375 L 308.523438 354.289062 L 253 313.074219 C 252.25 312.515625 251.460938 312.046875 250.648438 311.640625 C 248.652344 310.054688 246.4375 308.769531 243.945312 307.941406 C 227.136719 302.34375 201.578125 309.734375 189.199219 338.351562 C 172.410156 377.792969 167.4375 403.925781 169.1875 448.925781 C 171.550781 469.4375 181 479.089844 192.25 483.734375 L 202.515625 549.878906 L 194.394531 601.886719 C 190.402344 602.953125 187.152344 606.210938 186.335938 610.535156 L 183.019531 628.199219 C 182.125 632.972656 184.457031 637.605469 188.464844 639.875 L 185.140625 661.144531 C 183 674.878906 192.390625 687.75 206.125 689.894531 C 207.441406 690.101562 208.75 690.199219 210.039062 690.199219 C 222.226562 690.199219 232.9375 681.328125 234.875 668.914062 L 237.910156 649.492188 C 240 649.429688 242.039062 648.789062 243.808594 647.578125 C 246.257812 645.902344 247.902344 643.386719 248.449219 640.488281 L 249.792969 633.324219 L 272.410156 633.910156 C 273.402344 637.8125 277.027344 640.609375 281.203125 640.410156 C 284.933594 640.234375 287.964844 637.707031 289.015625 634.339844 L 355.125 636.050781 L 355.125 642.539062 C 355.125 646.96875 358.75 650.59375 363.179688 650.59375 L 385.910156 650.59375 L 385.910156 670.8125 L 329.269531 670.8125 L 329.269531 690.949219 L 600.441406 690.949219 L 600.441406 670.804688 Z M 529.359375 636.804688 L 500.839844 636.804688 L 505 628.046875 L 510.8125 628.046875 L 510.8125 618.511719 L 495.425781 618.511719 L 495.425781 610.957031 L 510.8125 610.957031 L 510.8125 601.417969 L 495.425781 601.417969 L 495.425781 593.863281 L 510.8125 593.863281 L 510.8125 584.324219 L 495.425781 584.324219 L 495.425781 576.769531 L 510.8125 576.769531 L 510.8125 567.234375 L 495.425781 567.234375 L 495.425781 151.210938 L 529.359375 151.210938 Z M 490.085938 151.210938 L 490.085938 567.238281 L 448.121094 567.238281 L 448.121094 151.210938 Z M 490.085938 576.773438 L 490.085938 584.328125 L 448.121094 584.328125 L 448.121094 576.773438 Z M 490.085938 593.863281 L 490.085938 601.417969 L 448.121094 601.417969 L 448.121094 593.863281 Z M 490.085938 610.957031 L 490.085938 618.511719 L 448.121094 618.511719 L 448.121094 610.957031 Z M 457.695312 628.046875 L 480.511719 628.046875 L 484.671875 636.804688 L 453.535156 636.804688 Z M 550.492188 130.925781 C 550.492188 137.039062 545.539062 141.992188 539.425781 141.992188 C 533.316406 141.992188 528.363281 137.039062 528.363281 130.925781 C 528.363281 124.816406 533.316406 119.863281 539.425781 119.863281 C 545.539062 119.863281 550.492188 124.816406 550.492188 130.925781 Z M 395.980469 119.863281 C 402.089844 119.863281 407.042969 124.816406 407.042969 130.925781 C 407.042969 137.039062 402.089844 141.992188 395.980469 141.992188 C 389.871094 141.992188 384.917969 137.039062 384.917969 130.925781 C 384.917969 124.816406 389.871094 119.863281 395.980469 119.863281 Z M 333.460938 140.089844 C 335.171875 137.027344 339.046875 135.929688 342.113281 137.644531 C 345.179688 139.359375 346.273438 143.234375 344.558594 146.296875 C 343.675781 147.878906 342.214844 148.921875 340.589844 149.339844 L 340.34375 145.667969 C 340.234375 144.003906 338.828125 142.734375 337.128906 142.855469 C 335.464844 142.964844 334.207031 144.40625 334.316406 146.070312 L 334.414062 147.542969 C 332.550781 145.578125 332.066406 142.578125 333.460938 140.089844 Z M 341.238281 159.023438 C 346.621094 158.5 351.675781 155.453125 354.5 150.402344 L 362.550781 136.011719 L 385.910156 148.527344 L 385.910156 332.582031 L 353.484375 341.679688 Z M 240.402344 642.582031 C 239.285156 643.34375 237.949219 643.628906 236.636719 643.386719 L 192.976562 635.1875 C 190.25 634.675781 188.445312 632.035156 188.957031 629.3125 L 192.273438 611.644531 C 192.785156 608.921875 195.425781 607.128906 198.148438 607.628906 L 241.8125 615.828125 C 243.121094 616.074219 244.265625 616.824219 245.027344 617.9375 C 245.792969 619.054688 246.078125 620.390625 245.828125 621.703125 L 242.511719 639.367188 C 242.265625 640.679688 241.515625 641.824219 240.402344 642.582031 Z M 371.539062 610.910156 L 356.824219 391.472656 L 350.882812 393.140625 L 365.484375 610.910156 L 363.1875 610.910156 C 358.757812 610.910156 355.132812 614.535156 355.132812 618.964844 L 355.132812 630 L 288.6875 628.28125 C 287.285156 625.109375 284.054688 622.953125 280.382812 623.128906 C 277.164062 623.28125 274.472656 625.195312 273.113281 627.878906 L 250.925781 627.304688 L 251.769531 622.816406 C 252.316406 619.917969 251.691406 616.976562 250.019531 614.527344 C 248.566406 612.40625 246.460938 610.9375 244.042969 610.214844 L 252.859375 553.769531 C 253.257812 551.203125 253.257812 548.589844 252.859375 546.027344 L 240.328125 465.296875 C 240.445312 463.542969 240.527344 461.675781 240.566406 459.65625 C 239.140625 434.3125 245.546875 406.519531 252.097656 382.589844 L 220.875 368.109375 C 210.503906 363.296875 205.980469 350.941406 210.789062 340.566406 C 214.175781 333.269531 221.5625 328.550781 229.613281 328.550781 C 232.636719 328.550781 235.570312 329.199219 238.328125 330.480469 L 307.046875 362.355469 L 390.335938 338.992188 C 392.167969 338.476562 394.058594 338.214844 395.945312 338.214844 C 402.300781 338.214844 408.164062 341.15625 412.023438 345.882812 C 411.976562 344.644531 411.800781 343.390625 411.449219 342.144531 C 410.511719 338.792969 408.570312 336 406.046875 333.96875 L 406.046875 151.210938 L 442.777344 151.210938 L 442.777344 567.238281 L 424.59375 567.238281 L 424.59375 576.773438 L 442.777344 576.773438 L 442.777344 584.328125 L 424.59375 584.328125 L 424.59375 593.867188 L 442.777344 593.867188 L 442.777344 601.421875 L 424.59375 601.421875 L 424.59375 610.960938 L 442.777344 610.960938 L 442.777344 618.515625 L 424.59375 618.515625 L 424.59375 628.050781 L 433.207031 628.050781 L 437.367188 636.808594 L 406.046875 636.808594 L 406.046875 377.050781 C 404.636719 377.835938 403.132812 378.480469 401.539062 378.929688 L 385.914062 383.3125 L 385.914062 610.910156 Z M 406.046875 656.9375 L 529.359375 656.9375 L 529.359375 670.804688 L 406.046875 670.804688 Z M 406.046875 656.9375 " fill-opacity="1" fill-rule="nonzero"/></g><path fill="#9ded02" d="M 395.980469 126.476562 C 393.523438 126.476562 391.527344 128.46875 391.527344 130.925781 C 391.527344 133.386719 393.523438 135.378906 395.980469 135.378906 C 398.4375 135.378906 400.433594 133.386719 400.433594 130.925781 C 400.433594 128.46875 398.4375 126.476562 395.980469 126.476562 Z M 395.980469 126.476562 " fill-opacity="1" fill-rule="nonzero"/><path fill="#9ded02" d="M 539.425781 126.476562 C 536.96875 126.476562 534.972656 128.46875 534.972656 130.925781 C 534.972656 133.386719 536.96875 135.378906 539.425781 135.378906 C 541.882812 135.378906 543.875 133.386719 543.875 130.925781 C 543.875 128.46875 541.882812 126.476562 539.425781 126.476562 Z M 539.425781 126.476562 " fill-opacity="1" fill-rule="nonzero"/><path fill="#9ded02" d="M 313.324219 231.230469 C 314.324219 232.328125 315.269531 233.46875 316.15625 234.660156 C 317.046875 235.847656 317.875 237.074219 318.640625 238.347656 C 319.410156 239.617188 320.113281 240.921875 320.75 242.257812 C 321.390625 243.597656 321.964844 244.964844 322.46875 246.359375 C 322.972656 247.753906 323.410156 249.171875 323.773438 250.609375 C 324.140625 252.046875 324.433594 253.5 324.65625 254.96875 C 324.878906 256.433594 325.03125 257.910156 325.109375 259.390625 C 325.1875 260.871094 325.195312 262.355469 325.125 263.835938 C 325.058594 265.316406 324.917969 266.792969 324.707031 268.261719 C 324.496094 269.730469 324.210938 271.183594 323.855469 272.625 C 323.5 274.066406 323.074219 275.484375 322.582031 276.886719 C 322.085938 278.285156 321.523438 279.65625 320.894531 281 C 320.265625 282.34375 319.570312 283.652344 318.8125 284.925781 C 318.054688 286.203125 317.234375 287.4375 316.355469 288.632812 C 315.476562 289.828125 314.539062 290.976562 313.546875 292.078125 C 312.554688 293.183594 311.511719 294.234375 310.417969 295.234375 C 309.320312 296.234375 308.179688 297.179688 306.988281 298.066406 C 305.800781 298.957031 304.574219 299.785156 303.300781 300.550781 C 302.03125 301.320312 300.726562 302.023438 299.390625 302.660156 C 298.050781 303.300781 296.683594 303.875 295.289062 304.378906 C 293.894531 304.882812 292.476562 305.320312 291.039062 305.683594 C 289.601562 306.050781 288.148438 306.34375 286.679688 306.566406 C 285.214844 306.792969 283.738281 306.941406 282.257812 307.019531 C 280.777344 307.097656 279.292969 307.105469 277.8125 307.035156 C 276.332031 306.96875 274.855469 306.828125 273.386719 306.617188 C 271.917969 306.40625 270.464844 306.121094 269.023438 305.765625 C 267.582031 305.410156 266.164062 304.984375 264.761719 304.492188 C 263.363281 303.996094 261.992188 303.433594 260.648438 302.804688 C 259.304688 302.175781 257.996094 301.480469 256.722656 300.722656 C 255.445312 299.964844 254.210938 299.144531 253.015625 298.265625 C 251.820312 297.386719 250.671875 296.449219 249.570312 295.457031 C 248.464844 294.464844 247.414062 293.421875 246.414062 292.328125 C 245.414062 291.230469 244.46875 290.089844 243.582031 288.898438 C 242.691406 287.710938 241.863281 286.484375 241.097656 285.210938 C 240.328125 283.941406 239.625 282.636719 238.988281 281.300781 C 238.347656 279.960938 237.773438 278.59375 237.269531 277.199219 C 236.765625 275.804688 236.328125 274.386719 235.964844 272.949219 C 235.597656 271.511719 235.304688 270.058594 235.082031 268.589844 C 234.855469 267.125 234.707031 265.648438 234.628906 264.167969 C 234.550781 262.6875 234.542969 261.203125 234.613281 259.722656 C 234.679688 258.242188 234.820312 256.765625 235.03125 255.296875 C 235.242188 253.828125 235.527344 252.375 235.882812 250.933594 C 236.238281 249.492188 236.664062 248.074219 237.15625 246.671875 C 237.652344 245.273438 238.214844 243.902344 238.84375 242.558594 C 239.472656 241.214844 240.167969 239.90625 240.925781 238.632812 C 241.683594 237.355469 242.503906 236.121094 243.382812 234.925781 C 244.261719 233.730469 245.199219 232.582031 246.191406 231.480469 C 247.183594 230.375 248.226562 229.324219 249.320312 228.324219 C 250.417969 227.324219 251.558594 226.378906 252.75 225.492188 C 253.9375 224.601562 255.164062 223.773438 256.4375 223.007812 C 257.707031 222.238281 259.011719 221.535156 260.347656 220.898438 C 261.6875 220.257812 263.054688 219.683594 264.449219 219.179688 C 265.84375 218.675781 267.261719 218.238281 268.699219 217.875 C 270.136719 217.507812 271.589844 217.214844 273.058594 216.992188 C 274.523438 216.765625 276 216.617188 277.480469 216.539062 C 278.960938 216.460938 280.445312 216.453125 281.925781 216.523438 C 283.40625 216.589844 284.882812 216.730469 286.351562 216.941406 C 287.820312 217.152344 289.273438 217.4375 290.714844 217.792969 C 292.15625 218.148438 293.574219 218.574219 294.976562 219.066406 C 296.375 219.5625 297.746094 220.125 299.089844 220.753906 C 300.433594 221.382812 301.742188 222.078125 303.015625 222.835938 C 304.292969 223.59375 305.527344 224.414062 306.722656 225.292969 C 307.917969 226.171875 309.066406 227.109375 310.167969 228.101562 C 311.273438 229.09375 312.324219 230.136719 313.324219 231.230469 Z M 313.324219 231.230469 " fill-opacity="1" fill-rule="nonzero"/><path fill="#9ded02" d="M 400.289062 374.46875 C 408.855469 372.066406 413.851562 363.175781 411.449219 354.609375 C 409.042969 346.046875 400.15625 341.050781 391.585938 343.453125 L 306.648438 367.277344 L 236.378906 334.683594 C 228.308594 330.941406 218.730469 334.449219 214.992188 342.519531 C 211.246094 350.589844 214.753906 360.164062 222.824219 363.910156 L 298.492188 399.007812 C 300.632812 400 302.945312 400.503906 305.269531 400.503906 C 306.730469 400.503906 308.191406 400.304688 309.621094 399.90625 Z M 400.289062 374.46875 " fill-opacity="1" fill-rule="nonzero"/></svg>