<svg xmlns="http://www.w3.org/2000/svg" xmlns:xlink="http://www.w3.org/1999/xlink" width="1024" zoomAndPan="magnify" viewBox="0 0 768 775.92" height="1024" preserveAspectRatio="xMidYMid meet" version="1.0"><defs><clipPath id="ba2894a4bc"><path d="M 341 170.863281 L 427 170.863281 L 427 240 L 341 240 Z M 341 170.863281 " clip-rule="nonzero"/></clipPath><clipPath id="d627f2648d"><path d="M 316 402 L 378 402 L 378 596.820312 L 316 596.820312 Z M 316 402 " clip-rule="nonzero"/></clipPath><clipPath id="215481fc99"><path d="M 390 402 L 452 402 L 452 596.820312 L 390 596.820312 Z M 390 402 " clip-rule="nonzero"/></clipPath></defs><g clip-path="url(#ba2894a4bc)"><path fill="#9ded02" d="M 426.609375 213.40625 C 426.609375 189.910156 407.5625 170.863281 384.066406 170.863281 C 360.570312 170.863281 341.523438 189.910156 341.523438 213.40625 C 341.523438 223.21875 344.851562 232.246094 350.433594 239.445312 L 417.699219 239.445312 C 423.277344 232.246094 426.609375 223.21875 426.609375 213.40625 Z M 426.609375 213.40625 " fill-opacity="1" fill-rule="nonzero"/></g><g clip-path="url(#d627f2648d)"><path fill="#9ded02" d="M 344.203125 402.679688 L 344.246094 407.742188 C 344.394531 413.761719 338.945312 418.082031 329.726562 419.554688 C 329.523438 419.640625 329.3125 419.699219 329.109375 419.773438 L 316.796875 570.761719 C 315.746094 583.632812 325.332031 594.910156 338.195312 595.960938 C 351.0625 597.007812 362.347656 587.433594 363.398438 574.5625 L 377.089844 406.6875 L 377.414062 402.679688 Z M 344.203125 402.679688 " fill-opacity="1" fill-rule="nonzero"/></g><g clip-path="url(#215481fc99)"><path fill="#9ded02" d="M 423.882812 407.742188 L 423.925781 402.679688 L 390.714844 402.679688 L 391.039062 406.6875 L 404.730469 574.5625 C 405.78125 587.433594 417.066406 597.007812 429.933594 595.960938 C 442.800781 594.910156 452.382812 583.632812 451.332031 570.761719 L 439.019531 419.773438 C 438.8125 419.699219 438.601562 419.636719 438.402344 419.554688 C 429.183594 418.082031 423.734375 413.761719 423.882812 407.742188 Z M 423.882812 407.742188 " fill-opacity="1" fill-rule="nonzero"/></g><path fill="#9ded02" d="M 305.613281 383.472656 L 306.742188 383.472656 C 310.433594 378.582031 316.238281 375.335938 322.839844 375.175781 C 327.597656 375.058594 332.050781 376.605469 335.644531 379.269531 C 332.640625 333.851562 335.914062 307.707031 340.117188 292.824219 L 344.339844 294.125 C 340.230469 308.71875 336.789062 335.460938 340.296875 383.472656 L 427.832031 383.472656 C 431.339844 335.457031 427.894531 308.71875 423.792969 294.125 L 428.011719 292.824219 C 432.214844 307.707031 435.488281 333.851562 432.484375 379.269531 C 436.082031 376.605469 440.53125 375.058594 445.289062 375.175781 C 452.535156 375.355469 458.824219 379.238281 462.410156 384.941406 C 465.527344 341.367188 463.679688 307.585938 456.894531 283.910156 C 453.28125 271.300781 448.277344 261.539062 441.875 254.703125 C 440.613281 253.359375 439.351562 252.1875 438.101562 251.148438 C 433.117188 247.011719 428.367188 245.203125 424.820312 244.421875 C 423.484375 244.019531 422.066406 243.796875 420.59375 243.796875 L 347.539062 243.796875 C 346.070312 243.796875 344.65625 244.015625 343.316406 244.421875 C 339.769531 245.199219 335.015625 247.007812 330.027344 251.148438 C 328.78125 252.183594 327.519531 253.359375 326.257812 254.703125 C 319.851562 261.542969 314.851562 271.300781 311.238281 283.910156 C 304.527344 307.320312 302.640625 340.605469 305.613281 383.472656 Z M 305.613281 383.472656 " fill-opacity="1" fill-rule="nonzero"/><path fill="#9ded02" d="M 596.472656 367.402344 L 583.578125 367.402344 L 583.578125 326.640625 C 583.578125 322.480469 580.171875 319.074219 576.011719 319.074219 L 574.660156 319.074219 C 570.5 319.074219 567.097656 322.480469 567.097656 326.640625 L 567.097656 387.824219 L 466.546875 387.824219 C 466.292969 391.265625 466 394.769531 465.679688 398.332031 L 567.09375 398.332031 L 567.09375 459.515625 C 567.09375 463.675781 570.5 467.078125 574.65625 467.078125 L 576.011719 467.078125 C 580.171875 467.078125 583.574219 463.675781 583.574219 459.515625 L 583.574219 418.753906 L 596.472656 418.753906 L 596.472656 398.332031 L 654.628906 398.332031 L 654.628906 387.824219 L 596.472656 387.824219 Z M 596.472656 367.402344 " fill-opacity="1" fill-rule="nonzero"/><path fill="#9ded02" d="M 344.125 394.96875 L 344.140625 395.460938 L 344.164062 398.332031 L 423.960938 398.332031 L 423.984375 395.460938 L 424.003906 394.96875 C 424.125 392.441406 424.726562 390.035156 425.683594 387.824219 L 342.441406 387.824219 C 343.402344 390.039062 344.003906 392.441406 344.125 394.96875 Z M 344.125 394.96875 " fill-opacity="1" fill-rule="nonzero"/><path fill="#9ded02" d="M 302.574219 398.332031 L 302.554688 396.386719 C 302.480469 393.351562 303.09375 390.457031 304.21875 387.820312 L 201.03125 387.820312 L 201.03125 326.640625 C 201.03125 322.480469 197.628906 319.074219 193.46875 319.074219 L 192.113281 319.074219 C 187.957031 319.074219 184.550781 322.480469 184.550781 326.640625 L 184.550781 367.402344 L 171.65625 367.402344 L 171.65625 387.824219 L 113.496094 387.824219 L 113.496094 398.332031 L 171.65625 398.332031 L 171.65625 418.753906 L 184.550781 418.753906 L 184.550781 459.515625 C 184.550781 463.675781 187.957031 467.078125 192.113281 467.078125 L 193.46875 467.078125 C 197.628906 467.078125 201.03125 463.675781 201.03125 459.515625 L 201.03125 398.332031 Z M 302.574219 398.332031 " fill-opacity="1" fill-rule="nonzero"/><path fill="#9ded02" d="M 308.226562 396.339844 L 308.332031 408.53125 C 308.535156 416.902344 338.777344 416.140625 338.574219 407.789062 L 338.472656 395.597656 C 338.46875 395.480469 338.464844 395.359375 338.457031 395.242188 C 338.066406 387.0625 331.210938 380.648438 322.980469 380.847656 C 314.625 381.050781 308.023438 387.988281 308.226562 396.339844 Z M 308.226562 396.339844 " fill-opacity="1" fill-rule="nonzero"/><path fill="#9ded02" d="M 429.671875 395.242188 C 429.664062 395.359375 429.660156 395.480469 429.65625 395.597656 L 429.550781 407.789062 C 429.347656 416.140625 459.59375 416.902344 459.796875 408.53125 L 459.902344 396.339844 C 460.105469 387.988281 453.5 381.050781 445.148438 380.847656 C 436.917969 380.648438 430.0625 387.0625 429.671875 395.242188 Z M 429.671875 395.242188 " fill-opacity="1" fill-rule="nonzero"/><path fill="#9ded02" d="M 107.90625 435.917969 L 109.582031 434.695312 C 109.582031 434.695312 82.871094 405.628906 108.417969 360.671875 L 115.667969 370.476562 L 117.578125 341.578125 L 92.621094 357.101562 L 103.777344 358.566406 C 77.902344 407.242188 107.90625 435.917969 107.90625 435.917969 Z M 107.90625 435.917969 " fill-opacity="1" fill-rule="nonzero"/><path fill="#9ded02" d="M 650.550781 341.578125 L 652.460938 370.476562 L 659.710938 360.671875 C 685.257812 405.625 658.546875 434.695312 658.546875 434.695312 L 660.222656 435.917969 C 660.222656 435.917969 690.226562 407.238281 664.351562 358.5625 L 675.507812 357.101562 Z M 650.550781 341.578125 " fill-opacity="1" fill-rule="nonzero"/></svg>