<svg xmlns="http://www.w3.org/2000/svg" xmlns:xlink="http://www.w3.org/1999/xlink" width="1024" zoomAndPan="magnify" viewBox="0 0 768 775.92" height="1024" preserveAspectRatio="xMidYMid meet" version="1.0"><defs><clipPath id="2106725155"><path d="M 76.832031 502 L 194 502 L 194 629 L 76.832031 629 Z M 76.832031 502 " clip-rule="nonzero"/></clipPath></defs><path fill="#9ded02" d="M 680.304688 198.992188 C 680.480469 200.046875 680.632812 201.109375 680.757812 202.171875 C 680.882812 203.238281 680.980469 204.304688 681.050781 205.375 C 681.125 206.441406 681.171875 207.511719 681.191406 208.585938 C 681.210938 209.65625 681.203125 210.726562 681.171875 211.796875 C 681.136719 212.867188 681.078125 213.9375 680.992188 215.007812 C 680.910156 216.074219 680.796875 217.140625 680.660156 218.203125 C 680.519531 219.265625 680.359375 220.324219 680.167969 221.378906 C 679.980469 222.433594 679.761719 223.484375 679.523438 224.527344 C 679.28125 225.570312 679.015625 226.609375 678.722656 227.640625 C 678.429688 228.671875 678.113281 229.695312 677.769531 230.710938 C 677.429688 231.726562 677.0625 232.730469 676.667969 233.730469 C 676.277344 234.726562 675.863281 235.714844 675.421875 236.691406 C 674.980469 237.667969 674.515625 238.632812 674.03125 239.585938 C 673.542969 240.542969 673.03125 241.484375 672.496094 242.414062 C 671.964844 243.339844 671.40625 244.257812 670.828125 245.160156 C 670.25 246.0625 669.648438 246.949219 669.027344 247.820312 C 668.40625 248.691406 667.761719 249.550781 667.097656 250.390625 C 666.433594 251.230469 665.746094 252.054688 665.042969 252.863281 C 664.339844 253.667969 663.613281 254.457031 662.871094 255.230469 C 662.125 256 661.363281 256.753906 660.582031 257.488281 C 659.804688 258.222656 659.003906 258.9375 658.191406 259.632812 C 657.375 260.328125 656.542969 261 655.691406 261.65625 C 654.84375 262.308594 653.980469 262.941406 653.101562 263.554688 C 652.21875 264.167969 651.324219 264.757812 650.417969 265.324219 C 649.507812 265.890625 648.585938 266.4375 647.648438 266.960938 C 646.714844 267.480469 645.765625 267.980469 644.808594 268.457031 C 643.847656 268.933594 642.875 269.386719 641.894531 269.8125 C 640.910156 270.242188 639.917969 270.644531 638.917969 271.023438 C 637.914062 271.40625 636.902344 271.757812 635.882812 272.089844 C 634.863281 272.417969 633.835938 272.722656 632.804688 273.003906 C 631.769531 273.28125 630.726562 273.535156 629.679688 273.765625 C 628.632812 273.992188 627.582031 274.195312 626.523438 274.375 C 625.46875 274.550781 624.40625 274.699219 623.34375 274.824219 C 622.277344 274.949219 621.210938 275.046875 620.144531 275.121094 C 619.074219 275.191406 618.003906 275.238281 616.933594 275.257812 C 615.859375 275.277344 614.789062 275.273438 613.71875 275.238281 C 612.648438 275.207031 611.578125 275.148438 610.507812 275.0625 C 609.441406 274.976562 608.375 274.867188 607.3125 274.726562 C 606.25 274.589844 605.191406 274.425781 604.136719 274.238281 C 603.082031 274.046875 602.03125 273.832031 600.988281 273.589844 C 599.945312 273.351562 598.90625 273.082031 597.875 272.789062 C 596.84375 272.5 595.820312 272.183594 594.804688 271.839844 C 593.792969 271.496094 592.785156 271.128906 591.789062 270.738281 C 590.789062 270.347656 589.800781 269.929688 588.824219 269.492188 C 587.847656 269.050781 586.882812 268.585938 585.929688 268.097656 C 584.972656 267.609375 584.03125 267.101562 583.105469 266.566406 C 582.175781 266.03125 581.257812 265.476562 580.355469 264.898438 C 579.457031 264.320312 578.566406 263.71875 577.695312 263.09375 C 576.824219 262.472656 575.96875 261.828125 575.125 261.164062 C 574.285156 260.5 573.460938 259.816406 572.65625 259.113281 C 571.847656 258.40625 571.058594 257.683594 570.285156 256.9375 C 569.515625 256.195312 568.761719 255.433594 568.027344 254.652344 C 567.292969 253.871094 566.578125 253.074219 565.882812 252.257812 C 565.1875 251.441406 564.515625 250.609375 563.859375 249.761719 C 563.207031 248.914062 562.574219 248.046875 561.960938 247.167969 C 561.351562 246.289062 560.761719 245.394531 560.191406 244.484375 C 559.625 243.578125 559.078125 242.65625 558.558594 241.71875 C 558.035156 240.785156 557.535156 239.835938 557.058594 238.875 C 556.582031 237.914062 556.132812 236.945312 555.703125 235.960938 C 555.273438 234.980469 554.871094 233.988281 554.492188 232.984375 C 554.113281 231.984375 553.757812 230.972656 553.425781 229.953125 C 553.097656 228.933594 552.792969 227.90625 552.511719 226.871094 C 552.234375 225.835938 551.980469 224.796875 551.75 223.75 C 551.523438 222.703125 551.320312 221.652344 551.144531 220.59375 C 550.964844 219.535156 550.816406 218.476562 550.691406 217.410156 C 550.566406 216.347656 550.46875 215.28125 550.394531 214.210938 C 550.324219 213.144531 550.277344 212.074219 550.257812 211 C 550.238281 209.929688 550.242188 208.859375 550.277344 207.789062 C 550.308594 206.714844 550.367188 205.644531 550.453125 204.578125 C 550.539062 203.511719 550.652344 202.445312 550.789062 201.382812 C 550.925781 200.320312 551.089844 199.261719 551.277344 198.207031 C 551.46875 197.152344 551.683594 196.101562 551.925781 195.058594 C 552.167969 194.011719 552.433594 192.976562 552.726562 191.945312 C 553.015625 190.914062 553.335938 189.890625 553.675781 188.875 C 554.019531 187.859375 554.386719 186.851562 554.777344 185.855469 C 555.167969 184.859375 555.585938 183.871094 556.027344 182.894531 C 556.464844 181.917969 556.929688 180.953125 557.417969 179.996094 C 557.90625 179.042969 558.414062 178.101562 558.949219 177.171875 C 559.484375 176.242188 560.039062 175.328125 560.617188 174.425781 C 561.199219 173.523438 561.796875 172.636719 562.421875 171.765625 C 563.042969 170.890625 563.6875 170.035156 564.351562 169.195312 C 565.015625 168.355469 565.699219 167.53125 566.40625 166.722656 C 567.109375 165.917969 567.832031 165.125 568.578125 164.355469 C 569.320312 163.582031 570.082031 162.832031 570.863281 162.097656 C 571.644531 161.363281 572.441406 160.648438 573.257812 159.953125 C 574.074219 159.257812 574.90625 158.582031 575.753906 157.929688 C 576.601562 157.273438 577.46875 156.640625 578.347656 156.03125 C 579.226562 155.417969 580.121094 154.828125 581.03125 154.261719 C 581.9375 153.695312 582.863281 153.148438 583.796875 152.625 C 584.734375 152.101562 585.679688 151.605469 586.640625 151.128906 C 587.601562 150.652344 588.570312 150.199219 589.554688 149.773438 C 590.535156 149.34375 591.527344 148.941406 592.53125 148.558594 C 593.53125 148.179688 594.542969 147.824219 595.5625 147.496094 C 596.582031 147.164062 597.609375 146.859375 598.644531 146.582031 C 599.679688 146.300781 600.71875 146.046875 601.765625 145.820312 C 602.8125 145.589844 603.867188 145.386719 604.921875 145.210938 C 605.980469 145.035156 607.039062 144.882812 608.105469 144.757812 C 609.167969 144.636719 610.234375 144.535156 611.304688 144.464844 C 612.375 144.390625 613.445312 144.34375 614.515625 144.324219 C 615.585938 144.304688 616.65625 144.3125 617.730469 144.34375 C 618.800781 144.378906 619.871094 144.4375 620.9375 144.523438 C 622.007812 144.609375 623.070312 144.71875 624.132812 144.855469 C 625.195312 144.996094 626.253906 145.160156 627.308594 145.347656 C 628.363281 145.539062 629.414062 145.753906 630.457031 145.996094 C 631.503906 146.234375 632.539062 146.503906 633.570312 146.792969 C 634.601562 147.085938 635.625 147.402344 636.640625 147.746094 C 637.65625 148.089844 638.664062 148.453125 639.660156 148.847656 C 640.65625 149.238281 641.644531 149.65625 642.621094 150.09375 C 643.597656 150.535156 644.566406 151 645.519531 151.488281 C 646.472656 151.972656 647.414062 152.484375 648.34375 153.019531 C 649.273438 153.550781 650.1875 154.109375 651.089844 154.6875 C 651.992188 155.265625 652.878906 155.867188 653.75 156.488281 C 654.625 157.113281 655.480469 157.753906 656.320312 158.417969 C 657.160156 159.082031 657.984375 159.769531 658.792969 160.472656 C 659.601562 161.179688 660.390625 161.902344 661.160156 162.644531 C 661.933594 163.390625 662.6875 164.152344 663.417969 164.933594 C 664.152344 165.714844 664.867188 166.511719 665.5625 167.328125 C 666.257812 168.140625 666.933594 168.976562 667.585938 169.824219 C 668.242188 170.671875 668.875 171.535156 669.484375 172.417969 C 670.097656 173.296875 670.6875 174.191406 671.253906 175.097656 C 671.824219 176.007812 672.367188 176.929688 672.890625 177.867188 C 673.414062 178.800781 673.914062 179.75 674.386719 180.710938 C 674.863281 181.667969 675.316406 182.640625 675.746094 183.621094 C 676.171875 184.605469 676.578125 185.597656 676.957031 186.601562 C 677.335938 187.601562 677.691406 188.613281 678.019531 189.632812 C 678.351562 190.652344 678.65625 191.679688 678.933594 192.714844 C 679.214844 193.746094 679.46875 194.789062 679.695312 195.835938 C 679.925781 196.882812 680.128906 197.933594 680.304688 198.992188 Z M 680.304688 198.992188 " fill-opacity="1" fill-rule="nonzero"/><path fill="#9ded02" d="M 582.070312 531.730469 L 588.832031 531.730469 C 597.527344 531.730469 604.605469 538.808594 604.605469 547.507812 L 604.605469 598.910156 L 588.554688 598.910156 L 588.554688 628.007812 L 649.757812 628.007812 L 649.757812 598.910156 L 633.707031 598.910156 L 633.707031 547.507812 C 633.707031 522.761719 613.574219 502.628906 588.832031 502.628906 L 572.167969 502.628906 L 581.152344 512.894531 C 585.886719 518.300781 586.066406 526.121094 582.070312 531.730469 Z M 582.070312 531.730469 " fill-opacity="1" fill-rule="nonzero"/><g clip-path="url(#2106725155)"><path fill="#9ded02" d="M 117.761719 625.238281 C 110.234375 616.539062 106.546875 605.429688 107.375 593.957031 C 108.199219 582.558594 113.390625 572.167969 121.984375 564.652344 L 121.984375 547.507812 C 121.984375 538.808594 129.0625 531.730469 137.761719 531.730469 L 160.023438 531.730469 L 193.664062 502.628906 L 137.761719 502.628906 C 113.015625 502.628906 92.882812 522.761719 92.882812 547.507812 L 92.882812 598.910156 L 76.832031 598.910156 L 76.832031 628.007812 L 120.433594 628.007812 C 119.515625 627.121094 118.605469 626.21875 117.761719 625.238281 Z M 117.761719 625.238281 " fill-opacity="1" fill-rule="nonzero"/></g><path fill="#9ded02" d="M 253.265625 450.125 L 136.628906 450.125 C 125.304688 450.125 116.042969 459.386719 116.042969 470.710938 C 116.042969 482.035156 125.304688 491.296875 136.628906 491.296875 L 206.769531 491.296875 L 252.75 451.523438 Z M 253.265625 450.125 " fill-opacity="1" fill-rule="nonzero"/><path fill="#9ded02" d="M 540.722656 355.96875 L 592.347656 323.425781 C 601.910156 317.367188 604.78125 304.585938 598.71875 295.019531 C 592.660156 285.457031 579.875 282.589844 570.3125 288.652344 L 535.917969 310.332031 Z M 540.722656 355.96875 " fill-opacity="1" fill-rule="nonzero"/><path fill="#9ded02" d="M 502.332031 497.160156 C 496.804688 490.84375 497.445312 481.207031 503.761719 475.675781 L 510.003906 470.214844 L 476.722656 406.628906 L 472.660156 398.867188 L 484.519531 391.390625 C 484.140625 389.949219 483.863281 388.484375 483.707031 387 L 479.386719 345.960938 L 354.589844 424.621094 L 332.675781 483.71875 C 334.675781 484.574219 336.542969 484.664062 338.085938 483.691406 L 447.964844 414.433594 L 452.027344 422.195312 L 494.125 502.628906 L 323.707031 502.628906 C 321.859375 505.097656 319.804688 507.410156 317.46875 509.433594 L 291.691406 531.730469 L 532.597656 531.730469 Z M 502.332031 497.160156 " fill-opacity="1" fill-rule="nonzero"/><path fill="#9ded02" d="M 559.269531 478.144531 L 549.402344 486.777344 L 534.132812 469.328125 C 531.039062 465.800781 525.625 465.4375 522.09375 468.527344 L 508.175781 480.710938 C 504.644531 483.800781 504.285156 489.21875 507.375 492.746094 L 549.367188 540.722656 C 552.460938 544.253906 557.875 544.613281 561.40625 541.523438 L 575.328125 529.339844 C 578.855469 526.25 579.21875 520.832031 576.128906 517.300781 L 560.855469 499.851562 L 571.746094 490.320312 C 569.675781 488.964844 567.746094 487.382812 566.050781 485.53125 Z M 559.269531 478.144531 " fill-opacity="1" fill-rule="nonzero"/><path fill="#9ded02" d="M 615.15625 452.316406 L 625.988281 442.839844 L 641.257812 460.289062 C 644.347656 463.816406 649.765625 464.179688 653.296875 461.085938 L 667.21875 448.902344 C 670.746094 445.8125 671.109375 440.398438 668.015625 436.867188 L 626.023438 388.890625 C 622.933594 385.359375 617.519531 385 613.988281 388.089844 L 600.066406 400.273438 C 596.535156 403.363281 596.175781 408.78125 599.265625 412.3125 L 614.539062 429.761719 L 604.386719 438.648438 L 610.230469 445.027344 C 612.28125 447.257812 613.914062 449.71875 615.15625 452.316406 Z M 615.15625 452.316406 " fill-opacity="1" fill-rule="nonzero"/><path fill="#9ded02" d="M 258.425781 455.460938 L 126.535156 569.554688 C 111.339844 582.699219 109.679688 605.671875 122.828125 620.863281 C 130.019531 629.179688 140.15625 633.441406 150.351562 633.441406 C 158.785156 633.441406 167.257812 630.523438 174.132812 624.574219 L 313.085938 504.371094 C 317.71875 500.367188 321.265625 495.253906 323.394531 489.511719 L 362.839844 383.140625 L 369.847656 383.492188 L 359.589844 411.15625 L 382.472656 396.730469 L 382.472656 396.492188 C 382.648438 396.464844 382.824219 396.425781 383 396.398438 L 478.375 336.285156 L 471.949219 275.25 C 470.214844 258.8125 482.179688 244.03125 498.617188 242.300781 C 499.679688 242.1875 500.742188 242.132812 501.792969 242.132812 C 517.152344 242.132812 529.957031 253.671875 531.566406 268.972656 L 534.898438 300.65625 L 545.539062 293.949219 C 561.46875 267.414062 557.226562 239.359375 544.351562 223.230469 C 528.390625 203.21875 492.320312 207.707031 469.457031 227.347656 C 435.738281 251.546875 388.496094 288.714844 340.210938 303.433594 C 326.011719 308.941406 317.457031 314.070312 312.878906 319.613281 C 308.910156 323.339844 305.695312 327.988281 303.671875 333.441406 L 286.660156 379.316406 Z M 258.425781 455.460938 " fill-opacity="1" fill-rule="nonzero"/><path fill="#9ded02" d="M 490.367188 386.296875 C 490.890625 391.253906 492.984375 395.914062 496.359375 399.589844 L 570.980469 481.011719 C 575.570312 486.023438 581.847656 488.5625 588.144531 488.5625 C 593.765625 488.5625 599.398438 486.539062 603.871094 482.445312 C 613.347656 473.757812 613.992188 459.03125 605.300781 449.550781 L 535.867188 373.789062 L 524.90625 269.675781 C 523.558594 256.882812 512.105469 247.605469 499.316406 248.960938 C 486.527344 250.308594 477.253906 261.765625 478.601562 274.550781 Z M 490.367188 386.296875 " fill-opacity="1" fill-rule="nonzero"/></svg>