<svg xmlns="http://www.w3.org/2000/svg" xmlns:xlink="http://www.w3.org/1999/xlink" width="1024" zoomAndPan="magnify" viewBox="0 0 768 775.92" height="1024" preserveAspectRatio="xMidYMid meet" version="1.0"><defs><clipPath id="866eb856e0"><path d="M 446 76.792969 L 595 76.792969 L 595 225 L 446 225 Z M 446 76.792969 " clip-rule="nonzero"/></clipPath></defs><path fill="#9ded02" d="M 295.316406 561.347656 C 295.320312 558.265625 295.425781 555.1875 295.632812 552.113281 C 295.839844 549.039062 296.152344 545.976562 296.5625 542.925781 C 296.976562 539.871094 297.488281 536.835938 298.101562 533.816406 C 298.714844 530.796875 299.429688 527.800781 300.242188 524.828125 C 301.054688 521.855469 301.96875 518.917969 302.976562 516.003906 C 303.984375 513.09375 305.089844 510.21875 306.289062 507.382812 C 307.492188 504.546875 308.785156 501.75 310.171875 499 C 311.558594 496.246094 313.035156 493.546875 314.601562 490.894531 C 316.167969 488.238281 317.820312 485.640625 319.558594 483.097656 C 321.296875 480.554688 323.121094 478.074219 325.023438 475.652344 C 326.929688 473.230469 328.910156 470.875 330.972656 468.585938 C 333.035156 466.292969 335.167969 464.074219 337.378906 461.929688 C 339.585938 459.78125 341.867188 457.710938 344.210938 455.714844 C 346.558594 453.71875 348.96875 451.800781 351.445312 449.964844 C 353.917969 448.128906 356.453125 446.378906 359.042969 444.710938 C 361.632812 443.046875 364.277344 441.46875 366.972656 439.976562 L 291.683594 316.195312 C 291.175781 315.363281 290.789062 314.480469 290.519531 313.542969 C 290.25 312.609375 290.105469 311.652344 290.09375 310.679688 C 290.078125 309.707031 290.191406 308.746094 290.433594 307.804688 C 290.675781 306.859375 291.039062 305.964844 291.519531 305.117188 C 291.992188 304.265625 292.570312 303.492188 293.253906 302.800781 C 293.941406 302.109375 294.707031 301.519531 295.554688 301.039062 C 296.402344 300.558594 297.296875 300.199219 298.242188 299.964844 C 299.1875 299.734375 300.148438 299.632812 301.121094 299.664062 L 384.738281 300.570312 L 386.039062 288.949219 C 386.117188 288.234375 386.265625 287.539062 386.484375 286.855469 C 386.699219 286.171875 386.980469 285.515625 387.328125 284.890625 C 387.675781 284.261719 388.078125 283.675781 388.542969 283.128906 C 389.003906 282.578125 389.515625 282.082031 390.074219 281.632812 C 390.632812 281.1875 391.234375 280.800781 391.871094 280.46875 C 392.503906 280.140625 393.167969 279.878906 393.855469 279.679688 C 394.546875 279.480469 395.246094 279.351562 395.960938 279.289062 C 396.675781 279.230469 397.386719 279.238281 398.101562 279.316406 C 398.8125 279.398438 399.511719 279.546875 400.191406 279.765625 C 400.875 279.980469 401.53125 280.261719 402.15625 280.609375 C 402.785156 280.957031 403.375 281.359375 403.921875 281.820312 C 404.46875 282.285156 404.964844 282.796875 405.414062 283.355469 C 405.859375 283.914062 406.25 284.515625 406.578125 285.148438 C 406.90625 285.785156 407.171875 286.449219 407.371094 287.136719 C 407.570312 287.828125 407.699219 288.527344 407.757812 289.242188 C 407.820312 289.957031 407.808594 290.667969 407.730469 291.382812 L 392.257812 429.054688 C 405.867188 424.738281 419.8125 422.582031 434.09375 422.582031 C 439.132812 422.597656 444.160156 422.878906 449.171875 423.433594 L 506.078125 244.679688 C 502.875 244.183594 499.707031 243.527344 496.570312 242.710938 C 493.4375 241.890625 490.351562 240.917969 487.316406 239.785156 C 484.28125 238.65625 481.308594 237.371094 478.402344 235.9375 C 475.5 234.503906 472.675781 232.925781 469.929688 231.207031 C 467.183594 229.484375 464.535156 227.628906 461.976562 225.636719 C 459.421875 223.648438 456.972656 221.53125 454.632812 219.292969 C 452.292969 217.050781 450.070312 214.699219 447.96875 212.234375 C 445.867188 209.765625 443.898438 207.203125 442.058594 204.535156 L 227.730469 230.242188 C 226.308594 230.390625 224.894531 230.585938 223.488281 230.839844 C 222.078125 231.089844 220.683594 231.390625 219.296875 231.742188 C 217.914062 232.097656 216.542969 232.5 215.1875 232.953125 C 213.832031 233.40625 212.492188 233.910156 211.175781 234.460938 C 209.855469 235.011719 208.558594 235.613281 207.285156 236.257812 C 206.011719 236.90625 204.761719 237.597656 203.539062 238.339844 C 202.316406 239.078125 201.121094 239.859375 199.953125 240.6875 C 198.789062 241.511719 197.652344 242.382812 196.550781 243.292969 C 195.449219 244.203125 194.378906 245.152344 193.347656 246.140625 C 192.316406 247.128906 191.320312 248.152344 190.363281 249.214844 C 189.40625 250.273438 188.488281 251.371094 187.613281 252.5 C 186.734375 253.628906 185.902344 254.789062 185.109375 255.976562 C 184.316406 257.167969 183.570312 258.386719 182.867188 259.632812 C 182.167969 260.875 181.511719 262.144531 180.902344 263.4375 C 180.292969 264.730469 179.730469 266.046875 179.21875 267.378906 C 178.707031 268.714844 178.246094 270.066406 177.832031 271.433594 C 177.246094 273.609375 176.789062 275.808594 176.464844 278.035156 C 176.140625 280.265625 175.953125 282.503906 175.894531 284.753906 C 175.839844 287.003906 175.917969 289.25 176.132812 291.492188 C 176.34375 293.734375 176.691406 295.957031 177.167969 298.15625 C 177.648438 300.355469 178.257812 302.519531 178.992188 304.644531 C 179.730469 306.773438 180.59375 308.847656 181.578125 310.871094 C 182.566406 312.898438 183.667969 314.855469 184.886719 316.746094 C 186.109375 318.640625 187.4375 320.453125 188.875 322.183594 L 280.75 432.394531 C 282.570312 434.59375 284.183594 436.933594 285.589844 439.417969 C 286.996094 441.902344 288.175781 444.492188 289.125 447.183594 C 290.078125 449.875 290.785156 452.628906 291.25 455.441406 C 291.71875 458.257812 291.933594 461.09375 291.902344 463.949219 L 288.191406 648.5625 C 288.1875 650.511719 288.332031 652.449219 288.617188 654.375 C 288.902344 656.300781 289.328125 658.195312 289.894531 660.058594 C 290.464844 661.921875 291.167969 663.730469 292.003906 665.488281 C 292.839844 667.246094 293.804688 668.933594 294.894531 670.546875 C 295.980469 672.164062 297.183594 673.6875 298.5 675.121094 C 299.816406 676.558594 301.230469 677.886719 302.746094 679.113281 C 304.257812 680.335938 305.855469 681.445312 307.535156 682.429688 C 309.210938 683.417969 310.953125 684.273438 312.761719 685.003906 C 314.566406 685.730469 316.417969 686.320312 318.3125 686.769531 C 320.207031 687.222656 322.125 687.53125 324.0625 687.699219 C 326.003906 687.863281 327.945312 687.886719 329.890625 687.761719 C 331.832031 687.636719 333.757812 687.371094 335.660156 686.960938 C 337.5625 686.550781 339.425781 686.003906 341.25 685.316406 C 343.070312 684.628906 344.832031 683.8125 346.53125 682.863281 C 348.230469 681.914062 349.851562 680.84375 351.394531 679.652344 C 352.933594 678.460938 354.378906 677.160156 355.726562 675.753906 C 353.410156 674.171875 351.144531 672.519531 348.929688 670.800781 C 346.714844 669.078125 344.550781 667.292969 342.445312 665.441406 C 340.339844 663.589844 338.289062 661.675781 336.300781 659.699219 C 334.308594 657.722656 332.378906 655.6875 330.511719 653.59375 C 328.644531 651.503906 326.84375 649.355469 325.105469 647.152344 C 323.371094 644.949219 321.699219 642.695312 320.101562 640.394531 C 318.5 638.089844 316.972656 635.738281 315.515625 633.34375 C 314.054688 630.945312 312.671875 628.507812 311.363281 626.027344 C 310.054688 623.546875 308.820312 621.027344 307.664062 618.472656 C 306.507812 615.917969 305.429688 613.328125 304.429688 610.710938 C 303.429688 608.089844 302.507812 605.441406 301.667969 602.761719 C 300.832031 600.085938 300.074219 597.386719 299.398438 594.664062 C 298.722656 591.941406 298.128906 589.203125 297.621094 586.445312 C 297.113281 583.683594 296.6875 580.914062 296.347656 578.128906 C 296.003906 575.34375 295.75 572.554688 295.578125 569.753906 C 295.40625 566.953125 295.320312 564.152344 295.316406 561.347656 Z M 295.316406 561.347656 " fill-opacity="1" fill-rule="nonzero"/><path fill="#9ded02" d="M 479.660156 561.347656 C 479.660156 562.839844 479.585938 564.328125 479.441406 565.8125 C 479.292969 567.296875 479.074219 568.773438 478.785156 570.238281 C 478.492188 571.699219 478.128906 573.144531 477.699219 574.574219 C 477.265625 576.003906 476.761719 577.40625 476.191406 578.785156 C 475.621094 580.164062 474.980469 581.511719 474.277344 582.828125 C 473.574219 584.144531 472.808594 585.421875 471.980469 586.664062 C 471.152344 587.902344 470.261719 589.101562 469.316406 590.253906 C 468.371094 591.40625 467.367188 592.511719 466.3125 593.566406 C 465.257812 594.621094 464.152344 595.625 463 596.570312 C 461.847656 597.515625 460.648438 598.40625 459.40625 599.234375 C 458.167969 600.0625 456.886719 600.828125 455.574219 601.535156 C 454.257812 602.238281 452.910156 602.875 451.53125 603.445312 C 450.152344 604.015625 448.746094 604.519531 447.320312 604.953125 C 445.890625 605.386719 444.445312 605.746094 442.980469 606.039062 C 441.519531 606.328125 440.042969 606.546875 438.558594 606.695312 C 437.074219 606.839844 435.585938 606.914062 434.09375 606.914062 C 432.601562 606.914062 431.109375 606.839844 429.625 606.695312 C 428.140625 606.546875 426.667969 606.328125 425.203125 606.039062 C 423.738281 605.746094 422.292969 605.386719 420.863281 604.953125 C 419.4375 604.519531 418.035156 604.015625 416.65625 603.445312 C 415.277344 602.875 413.929688 602.238281 412.613281 601.535156 C 411.296875 600.828125 410.015625 600.0625 408.777344 599.234375 C 407.535156 598.40625 406.339844 597.515625 405.183594 596.570312 C 404.03125 595.625 402.925781 594.621094 401.871094 593.566406 C 400.816406 592.511719 399.816406 591.40625 398.867188 590.253906 C 397.921875 589.101562 397.035156 587.902344 396.203125 586.664062 C 395.375 585.421875 394.609375 584.144531 393.90625 582.828125 C 393.203125 581.511719 392.566406 580.164062 391.992188 578.785156 C 391.421875 577.40625 390.921875 576.003906 390.488281 574.574219 C 390.054688 573.144531 389.691406 571.699219 389.402344 570.238281 C 389.109375 568.773438 388.890625 567.296875 388.746094 565.8125 C 388.597656 564.328125 388.523438 562.839844 388.523438 561.347656 C 388.523438 559.855469 388.597656 558.367188 388.746094 556.878906 C 388.890625 555.394531 389.109375 553.921875 389.402344 552.457031 C 389.691406 550.992188 390.054688 549.546875 390.488281 548.121094 C 390.921875 546.691406 391.421875 545.289062 391.992188 543.910156 C 392.566406 542.53125 393.203125 541.183594 393.90625 539.867188 C 394.609375 538.550781 395.375 537.273438 396.203125 536.03125 C 397.035156 534.789062 397.921875 533.59375 398.867188 532.4375 C 399.816406 531.285156 400.816406 530.179688 401.871094 529.125 C 402.925781 528.070312 404.03125 527.070312 405.183594 526.121094 C 406.339844 525.175781 407.535156 524.289062 408.777344 523.460938 C 410.015625 522.628906 411.296875 521.863281 412.613281 521.160156 C 413.929688 520.457031 415.277344 519.820312 416.65625 519.25 C 418.035156 518.675781 419.4375 518.175781 420.863281 517.742188 C 422.292969 517.308594 423.738281 516.945312 425.203125 516.65625 C 426.667969 516.363281 428.140625 516.144531 429.625 516 C 431.109375 515.851562 432.601562 515.78125 434.09375 515.78125 C 435.585938 515.78125 437.074219 515.851562 438.558594 516 C 440.042969 516.144531 441.519531 516.363281 442.980469 516.65625 C 444.445312 516.945312 445.890625 517.308594 447.320312 517.742188 C 448.746094 518.175781 450.152344 518.675781 451.53125 519.25 C 452.910156 519.820312 454.257812 520.457031 455.574219 521.160156 C 456.886719 521.863281 458.167969 522.628906 459.40625 523.460938 C 460.648438 524.289062 461.847656 525.175781 463 526.121094 C 464.152344 527.070312 465.257812 528.070312 466.3125 529.125 C 467.367188 530.179688 468.371094 531.285156 469.316406 532.4375 C 470.261719 533.59375 471.152344 534.789062 471.980469 536.03125 C 472.808594 537.273438 473.574219 538.550781 474.277344 539.867188 C 474.980469 541.183594 475.621094 542.53125 476.191406 543.910156 C 476.761719 545.289062 477.265625 546.691406 477.699219 548.121094 C 478.128906 549.546875 478.492188 550.992188 478.785156 552.457031 C 479.074219 553.921875 479.292969 555.394531 479.441406 556.878906 C 479.585938 558.367188 479.660156 559.855469 479.660156 561.347656 Z M 479.660156 561.347656 " fill-opacity="1" fill-rule="nonzero"/><path fill="#9ded02" d="M 382.25 322.316406 L 320.5 321.640625 L 372.714844 407.425781 Z M 382.25 322.316406 " fill-opacity="1" fill-rule="nonzero"/><path fill="#9ded02" d="M 434.09375 444.40625 C 432.179688 444.40625 430.265625 444.453125 428.355469 444.546875 C 426.441406 444.640625 424.535156 444.78125 422.628906 444.96875 C 420.726562 445.15625 418.828125 445.390625 416.933594 445.671875 C 415.039062 445.953125 413.15625 446.28125 411.277344 446.652344 C 409.402344 447.027344 407.535156 447.445312 405.679688 447.910156 C 403.820312 448.375 401.976562 448.886719 400.144531 449.441406 C 398.316406 449.996094 396.5 450.597656 394.695312 451.242188 C 392.894531 451.886719 391.109375 452.574219 389.339844 453.308594 C 387.574219 454.039062 385.824219 454.816406 384.09375 455.632812 C 382.363281 456.453125 380.65625 457.3125 378.96875 458.214844 C 377.277344 459.117188 375.613281 460.058594 373.972656 461.042969 C 372.332031 462.027344 370.714844 463.050781 369.125 464.113281 C 367.53125 465.175781 365.96875 466.277344 364.429688 467.417969 C 362.894531 468.558594 361.386719 469.738281 359.90625 470.949219 C 358.425781 472.164062 356.976562 473.414062 355.558594 474.699219 C 354.140625 475.984375 352.757812 477.304688 351.402344 478.65625 C 350.050781 480.011719 348.730469 481.394531 347.445312 482.816406 C 346.160156 484.234375 344.910156 485.679688 343.695312 487.160156 C 342.480469 488.640625 341.304688 490.148438 340.164062 491.683594 C 339.023438 493.222656 337.921875 494.785156 336.859375 496.378906 C 335.796875 497.96875 334.773438 499.585938 333.789062 501.226562 C 332.804688 502.867188 331.863281 504.535156 330.960938 506.222656 C 330.058594 507.910156 329.199219 509.617188 328.378906 511.347656 C 327.5625 513.078125 326.785156 514.828125 326.054688 516.597656 C 325.320312 518.363281 324.632812 520.148438 323.988281 521.949219 C 323.34375 523.753906 322.742188 525.570312 322.1875 527.402344 C 321.632812 529.230469 321.121094 531.078125 320.65625 532.933594 C 320.191406 534.789062 319.773438 536.65625 319.398438 538.53125 C 319.027344 540.410156 318.699219 542.296875 318.417969 544.1875 C 318.136719 546.082031 317.902344 547.980469 317.714844 549.882812 C 317.527344 551.789062 317.386719 553.699219 317.292969 555.609375 C 317.199219 557.519531 317.152344 559.433594 317.152344 561.347656 C 317.152344 563.261719 317.199219 565.171875 317.292969 567.085938 C 317.386719 568.996094 317.527344 570.90625 317.714844 572.808594 C 317.902344 574.714844 318.136719 576.613281 318.417969 578.503906 C 318.699219 580.398438 319.027344 582.285156 319.398438 584.160156 C 319.773438 586.039062 320.191406 587.90625 320.65625 589.761719 C 321.121094 591.617188 321.632812 593.460938 322.1875 595.292969 C 322.742188 597.125 323.34375 598.941406 323.988281 600.742188 C 324.632812 602.542969 325.320312 604.328125 326.054688 606.097656 C 326.785156 607.867188 327.5625 609.613281 328.378906 611.34375 C 329.199219 613.074219 330.058594 614.785156 330.960938 616.472656 C 331.863281 618.160156 332.804688 619.824219 333.789062 621.464844 C 334.773438 623.109375 335.796875 624.722656 336.859375 626.316406 C 337.921875 627.90625 339.023438 629.472656 340.164062 631.007812 C 341.304688 632.546875 342.480469 634.054688 343.695312 635.53125 C 344.910156 637.011719 346.160156 638.460938 347.445312 639.878906 C 348.730469 641.296875 350.050781 642.683594 351.402344 644.035156 C 352.757812 645.390625 354.140625 646.707031 355.558594 647.992188 C 356.976562 649.277344 358.425781 650.527344 359.90625 651.742188 C 361.386719 652.957031 362.894531 654.132812 364.429688 655.273438 C 365.96875 656.414062 367.53125 657.515625 369.125 658.578125 C 370.714844 659.640625 372.332031 660.667969 373.972656 661.648438 C 375.613281 662.632812 377.277344 663.578125 378.96875 664.480469 C 380.65625 665.382812 382.363281 666.242188 384.09375 667.058594 C 385.824219 667.878906 387.574219 668.652344 389.339844 669.386719 C 391.109375 670.117188 392.894531 670.804688 394.695312 671.453125 C 396.5 672.097656 398.316406 672.695312 400.144531 673.25 C 401.976562 673.808594 403.820312 674.316406 405.679688 674.78125 C 407.535156 675.246094 409.402344 675.667969 411.277344 676.039062 C 413.15625 676.414062 415.039062 676.742188 416.933594 677.023438 C 418.828125 677.300781 420.726562 677.535156 422.628906 677.722656 C 424.535156 677.910156 426.441406 678.050781 428.355469 678.144531 C 430.265625 678.242188 432.179688 678.289062 434.09375 678.289062 C 436.007812 678.289062 437.917969 678.242188 439.832031 678.144531 C 441.742188 678.050781 443.648438 677.910156 445.554688 677.722656 C 447.460938 677.535156 449.359375 677.300781 451.25 677.023438 C 453.144531 676.742188 455.027344 676.414062 456.90625 676.039062 C 458.78125 675.667969 460.648438 675.246094 462.507812 674.78125 C 464.363281 674.316406 466.207031 673.808594 468.039062 673.25 C 469.871094 672.695312 471.6875 672.097656 473.488281 671.453125 C 475.289062 670.808594 477.074219 670.117188 478.84375 669.386719 C 480.613281 668.652344 482.359375 667.878906 484.089844 667.058594 C 485.820312 666.242188 487.53125 665.382812 489.21875 664.480469 C 490.90625 663.578125 492.570312 662.632812 494.210938 661.648438 C 495.851562 660.667969 497.46875 659.640625 499.0625 658.578125 C 500.652344 657.515625 502.214844 656.414062 503.753906 655.273438 C 505.289062 654.132812 506.800781 652.957031 508.277344 651.742188 C 509.757812 650.527344 511.207031 649.277344 512.625 647.992188 C 514.042969 646.707031 515.429688 645.390625 516.78125 644.035156 C 518.136719 642.683594 519.453125 641.296875 520.738281 639.878906 C 522.023438 638.460938 523.273438 637.011719 524.488281 635.53125 C 525.703125 634.054688 526.878906 632.546875 528.019531 631.007812 C 529.160156 629.472656 530.261719 627.90625 531.324219 626.316406 C 532.386719 624.722656 533.410156 623.109375 534.394531 621.464844 C 535.378906 619.824219 536.324219 618.160156 537.222656 616.472656 C 538.125 614.785156 538.988281 613.074219 539.804688 611.34375 C 540.625 609.613281 541.398438 607.867188 542.132812 606.097656 C 542.863281 604.328125 543.550781 602.542969 544.195312 600.742188 C 544.839844 598.941406 545.441406 597.125 545.996094 595.292969 C 546.554688 593.460938 547.0625 591.617188 547.527344 589.761719 C 547.992188 587.90625 548.414062 586.039062 548.785156 584.160156 C 549.160156 582.285156 549.484375 580.398438 549.765625 578.503906 C 550.046875 576.613281 550.28125 574.714844 550.46875 572.808594 C 550.65625 570.90625 550.796875 568.996094 550.890625 567.085938 C 550.984375 565.171875 551.03125 563.261719 551.03125 561.347656 C 551.03125 559.433594 550.980469 557.523438 550.886719 555.609375 C 550.789062 553.699219 550.644531 551.792969 550.457031 549.890625 C 550.265625 547.984375 550.03125 546.085938 549.75 544.195312 C 549.464844 542.304688 549.136719 540.417969 548.761719 538.542969 C 548.386719 536.667969 547.964844 534.800781 547.5 532.945312 C 547.035156 531.089844 546.523438 529.246094 545.964844 527.417969 C 545.410156 525.585938 544.808594 523.769531 544.160156 521.96875 C 543.515625 520.167969 542.828125 518.386719 542.09375 516.617188 C 541.359375 514.851562 540.585938 513.101562 539.765625 511.375 C 538.945312 509.644531 538.085938 507.9375 537.183594 506.25 C 536.28125 504.5625 535.335938 502.898438 534.351562 501.257812 C 533.367188 499.617188 532.34375 498.003906 531.28125 496.410156 C 530.21875 494.820312 529.117188 493.257812 527.976562 491.722656 C 526.835938 490.183594 525.660156 488.675781 524.445312 487.199219 C 523.230469 485.71875 521.980469 484.273438 520.695312 482.855469 C 519.410156 481.4375 518.09375 480.050781 516.738281 478.699219 C 515.386719 477.347656 514.003906 476.027344 512.585938 474.742188 C 511.167969 473.457031 509.71875 472.207031 508.242188 470.992188 C 506.761719 469.78125 505.253906 468.601562 503.71875 467.464844 C 502.179688 466.324219 500.617188 465.222656 499.027344 464.15625 C 497.4375 463.09375 495.820312 462.070312 494.179688 461.085938 C 492.539062 460.101562 490.875 459.160156 489.191406 458.257812 C 487.503906 457.355469 485.792969 456.492188 484.066406 455.675781 C 482.335938 454.855469 480.589844 454.078125 478.820312 453.347656 C 477.054688 452.613281 475.269531 451.921875 473.46875 451.277344 C 471.667969 450.632812 469.851562 450.03125 468.023438 449.472656 C 466.191406 448.917969 464.347656 448.40625 462.492188 447.9375 C 460.636719 447.472656 458.773438 447.050781 456.894531 446.675781 C 455.019531 446.300781 453.136719 445.972656 451.242188 445.691406 C 449.351562 445.40625 447.453125 445.171875 445.550781 444.980469 C 443.644531 444.792969 441.738281 444.648438 439.828125 444.554688 C 437.917969 444.457031 436.003906 444.410156 434.09375 444.40625 Z M 434.09375 628.738281 C 432.988281 628.738281 431.886719 628.710938 430.785156 628.65625 C 429.683594 628.601562 428.585938 628.519531 427.488281 628.414062 C 426.390625 628.304688 425.296875 628.167969 424.203125 628.007812 C 423.113281 627.847656 422.027344 627.65625 420.945312 627.441406 C 419.863281 627.226562 418.789062 626.984375 417.71875 626.71875 C 416.648438 626.449219 415.585938 626.15625 414.53125 625.835938 C 413.472656 625.515625 412.425781 625.167969 411.390625 624.796875 C 410.351562 624.425781 409.320312 624.03125 408.304688 623.609375 C 407.285156 623.183594 406.277344 622.738281 405.277344 622.265625 C 404.28125 621.796875 403.296875 621.300781 402.324219 620.78125 C 401.351562 620.261719 400.390625 619.714844 399.445312 619.148438 C 398.5 618.582031 397.570312 617.992188 396.652344 617.378906 C 395.734375 616.765625 394.832031 616.132812 393.949219 615.476562 C 393.0625 614.816406 392.191406 614.140625 391.339844 613.441406 C 390.488281 612.742188 389.652344 612.019531 388.835938 611.28125 C 388.019531 610.539062 387.21875 609.777344 386.441406 609 C 385.660156 608.21875 384.898438 607.421875 384.160156 606.601562 C 383.417969 605.785156 382.699219 604.953125 382 604.097656 C 381.300781 603.246094 380.621094 602.378906 379.964844 601.492188 C 379.308594 600.605469 378.671875 599.703125 378.058594 598.785156 C 377.445312 597.871094 376.855469 596.9375 376.289062 595.992188 C 375.722656 595.046875 375.179688 594.085938 374.660156 593.113281 C 374.140625 592.140625 373.644531 591.15625 373.171875 590.160156 C 372.699219 589.164062 372.253906 588.15625 371.832031 587.136719 C 371.410156 586.117188 371.011719 585.089844 370.640625 584.050781 C 370.269531 583.011719 369.921875 581.964844 369.605469 580.910156 C 369.285156 579.855469 368.988281 578.792969 368.722656 577.722656 C 368.453125 576.652344 368.210938 575.574219 367.996094 574.492188 C 367.78125 573.414062 367.59375 572.324219 367.429688 571.234375 C 367.269531 570.144531 367.132812 569.050781 367.027344 567.953125 C 366.917969 566.855469 366.835938 565.753906 366.78125 564.652344 C 366.730469 563.550781 366.703125 562.449219 366.703125 561.347656 C 366.703125 560.242188 366.730469 559.140625 366.78125 558.039062 C 366.835938 556.9375 366.917969 555.839844 367.027344 554.742188 C 367.132812 553.644531 367.269531 552.550781 367.429688 551.457031 C 367.59375 550.367188 367.78125 549.28125 367.996094 548.199219 C 368.210938 547.117188 368.453125 546.042969 368.722656 544.972656 C 368.988281 543.902344 369.285156 542.839844 369.605469 541.785156 C 369.921875 540.730469 370.269531 539.683594 370.640625 538.644531 C 371.011719 537.605469 371.410156 536.578125 371.832031 535.558594 C 372.253906 534.539062 372.699219 533.53125 373.171875 532.535156 C 373.644531 531.535156 374.140625 530.550781 374.660156 529.578125 C 375.179688 528.605469 375.722656 527.648438 376.289062 526.699219 C 376.855469 525.753906 377.445312 524.824219 378.058594 523.90625 C 378.671875 522.988281 379.308594 522.089844 379.964844 521.203125 C 380.621094 520.316406 381.300781 519.449219 382 518.59375 C 382.699219 517.742188 383.417969 516.90625 384.160156 516.089844 C 384.898438 515.273438 385.660156 514.472656 386.441406 513.695312 C 387.21875 512.914062 388.019531 512.15625 388.835938 511.414062 C 389.652344 510.671875 390.488281 509.953125 391.339844 509.253906 C 392.191406 508.554688 393.0625 507.875 393.949219 507.21875 C 394.832031 506.5625 395.734375 505.925781 396.652344 505.3125 C 397.570312 504.699219 398.5 504.109375 399.445312 503.542969 C 400.390625 502.976562 401.351562 502.433594 402.324219 501.914062 C 403.296875 501.394531 404.28125 500.898438 405.277344 500.425781 C 406.277344 499.953125 407.285156 499.507812 408.304688 499.085938 C 409.320312 498.664062 410.351562 498.265625 411.390625 497.894531 C 412.425781 497.523438 413.472656 497.179688 414.53125 496.859375 C 415.585938 496.539062 416.648438 496.242188 417.71875 495.976562 C 418.789062 495.707031 419.863281 495.464844 420.945312 495.25 C 422.027344 495.035156 423.113281 494.847656 424.203125 494.6875 C 425.296875 494.523438 426.390625 494.390625 427.488281 494.28125 C 428.585938 494.171875 429.683594 494.089844 430.785156 494.039062 C 431.886719 493.984375 432.988281 493.957031 434.09375 493.957031 C 435.195312 493.957031 436.296875 493.984375 437.398438 494.039062 C 438.5 494.089844 439.601562 494.171875 440.699219 494.28125 C 441.796875 494.390625 442.890625 494.523438 443.980469 494.6875 C 445.070312 494.847656 446.15625 495.035156 447.238281 495.25 C 448.320312 495.464844 449.398438 495.707031 450.464844 495.976562 C 451.535156 496.242188 452.597656 496.539062 453.65625 496.859375 C 454.710938 497.179688 455.757812 497.523438 456.796875 497.894531 C 457.832031 498.265625 458.863281 498.664062 459.882812 499.085938 C 460.902344 499.507812 461.910156 499.953125 462.90625 500.425781 C 463.902344 500.898438 464.886719 501.394531 465.859375 501.914062 C 466.832031 502.433594 467.792969 502.976562 468.738281 503.542969 C 469.683594 504.109375 470.617188 504.699219 471.53125 505.3125 C 472.449219 505.925781 473.351562 506.5625 474.238281 507.21875 C 475.121094 507.875 475.992188 508.554688 476.84375 509.253906 C 477.695312 509.953125 478.53125 510.671875 479.347656 511.414062 C 480.167969 512.15625 480.964844 512.914062 481.746094 513.695312 C 482.523438 514.472656 483.285156 515.273438 484.023438 516.089844 C 484.765625 516.90625 485.484375 517.742188 486.1875 518.59375 C 486.886719 519.449219 487.5625 520.316406 488.222656 521.203125 C 488.878906 522.089844 489.511719 522.988281 490.125 523.90625 C 490.738281 524.824219 491.328125 525.753906 491.894531 526.699219 C 492.460938 527.648438 493.003906 528.605469 493.527344 529.578125 C 494.046875 530.550781 494.539062 531.535156 495.011719 532.535156 C 495.484375 533.53125 495.929688 534.539062 496.351562 535.558594 C 496.773438 536.578125 497.171875 537.605469 497.542969 538.644531 C 497.914062 539.683594 498.261719 540.730469 498.582031 541.785156 C 498.902344 542.839844 499.195312 543.902344 499.464844 544.972656 C 499.730469 546.042969 499.972656 547.117188 500.1875 548.199219 C 500.402344 549.28125 500.589844 550.367188 500.753906 551.457031 C 500.914062 552.550781 501.050781 553.644531 501.160156 554.742188 C 501.265625 555.839844 501.347656 556.9375 501.402344 558.039062 C 501.457031 559.140625 501.484375 560.242188 501.484375 561.347656 C 501.480469 562.449219 501.453125 563.550781 501.398438 564.652344 C 501.34375 565.753906 501.257812 566.851562 501.148438 567.949219 C 501.039062 569.046875 500.90625 570.140625 500.742188 571.230469 C 500.578125 572.320312 500.390625 573.40625 500.171875 574.488281 C 499.957031 575.570312 499.714844 576.644531 499.445312 577.714844 C 499.175781 578.78125 498.882812 579.84375 498.5625 580.898438 C 498.242188 581.953125 497.894531 583 497.523438 584.039062 C 497.148438 585.074219 496.753906 586.105469 496.328125 587.121094 C 495.90625 588.140625 495.460938 589.148438 494.988281 590.144531 C 494.515625 591.140625 494.019531 592.125 493.5 593.097656 C 492.980469 594.070312 492.4375 595.027344 491.867188 595.972656 C 491.300781 596.917969 490.710938 597.851562 490.097656 598.765625 C 489.484375 599.683594 488.851562 600.582031 488.195312 601.46875 C 487.535156 602.355469 486.859375 603.222656 486.160156 604.074219 C 485.460938 604.925781 484.738281 605.761719 484 606.578125 C 483.257812 607.394531 482.5 608.195312 481.71875 608.972656 C 480.9375 609.753906 480.140625 610.511719 479.324219 611.253906 C 478.507812 611.992188 477.671875 612.714844 476.820312 613.414062 C 475.96875 614.113281 475.101562 614.792969 474.214844 615.449219 C 473.328125 616.105469 472.429688 616.742188 471.511719 617.351562 C 470.59375 617.964844 469.664062 618.554688 468.71875 619.125 C 467.773438 619.691406 466.816406 620.234375 465.84375 620.753906 C 464.871094 621.273438 463.886719 621.769531 462.890625 622.242188 C 461.894531 622.714844 460.886719 623.160156 459.867188 623.585938 C 458.847656 624.007812 457.820312 624.402344 456.785156 624.777344 C 455.746094 625.148438 454.699219 625.496094 453.644531 625.816406 C 452.589844 626.136719 451.527344 626.433594 450.457031 626.699219 C 449.390625 626.96875 448.316406 627.210938 447.234375 627.429688 C 446.152344 627.644531 445.066406 627.832031 443.976562 627.996094 C 442.886719 628.160156 441.792969 628.296875 440.695312 628.40625 C 439.597656 628.515625 438.5 628.597656 437.398438 628.652344 C 436.296875 628.707031 435.195312 628.734375 434.09375 628.738281 Z M 434.09375 628.738281 " fill-opacity="1" fill-rule="nonzero"/><g clip-path="url(#866eb856e0)"><path fill="#9ded02" d="M 520.632812 76.792969 C 519.425781 76.792969 518.222656 76.820312 517.019531 76.878906 C 515.816406 76.9375 514.613281 77.027344 513.414062 77.144531 C 512.214844 77.265625 511.015625 77.410156 509.824219 77.585938 C 508.632812 77.765625 507.445312 77.96875 506.261719 78.207031 C 505.082031 78.441406 503.90625 78.703125 502.734375 78.996094 C 501.566406 79.289062 500.40625 79.609375 499.25 79.960938 C 498.097656 80.308594 496.953125 80.6875 495.816406 81.09375 C 494.683594 81.5 493.558594 81.933594 492.445312 82.394531 C 491.332031 82.855469 490.230469 83.34375 489.140625 83.859375 C 488.050781 84.375 486.972656 84.917969 485.910156 85.484375 C 484.847656 86.050781 483.796875 86.644531 482.765625 87.265625 C 481.730469 87.886719 480.710938 88.53125 479.710938 89.199219 C 478.707031 89.871094 477.722656 90.5625 476.753906 91.28125 C 475.785156 92 474.835938 92.742188 473.902344 93.503906 C 472.972656 94.269531 472.058594 95.054688 471.164062 95.867188 C 470.273438 96.675781 469.398438 97.507812 468.546875 98.359375 C 467.695312 99.210938 466.863281 100.082031 466.054688 100.976562 C 465.246094 101.871094 464.457031 102.78125 463.691406 103.714844 C 462.925781 104.644531 462.1875 105.59375 461.46875 106.5625 C 460.75 107.53125 460.054688 108.515625 459.386719 109.519531 C 458.714844 110.519531 458.070312 111.539062 457.453125 112.574219 C 456.832031 113.605469 456.238281 114.65625 455.667969 115.71875 C 455.101562 116.78125 454.558594 117.859375 454.042969 118.949219 C 453.527344 120.035156 453.039062 121.136719 452.578125 122.253906 C 452.117188 123.367188 451.683594 124.488281 451.277344 125.625 C 450.871094 126.761719 450.492188 127.902344 450.140625 129.058594 C 449.792969 130.210938 449.46875 131.371094 449.175781 132.542969 C 448.882812 133.710938 448.621094 134.886719 448.386719 136.070312 C 448.148438 137.25 447.945312 138.4375 447.765625 139.632812 C 447.589844 140.824219 447.441406 142.019531 447.324219 143.21875 C 447.207031 144.417969 447.117188 145.621094 447.058594 146.824219 C 446.996094 148.027344 446.96875 149.234375 446.96875 150.4375 C 446.96875 151.644531 446.996094 152.847656 447.054688 154.054688 C 447.117188 155.257812 447.203125 156.457031 447.320312 157.660156 C 447.441406 158.859375 447.585938 160.054688 447.765625 161.246094 C 447.941406 162.4375 448.148438 163.625 448.382812 164.808594 C 448.617188 165.992188 448.882812 167.167969 449.171875 168.335938 C 449.464844 169.503906 449.789062 170.667969 450.136719 171.820312 C 450.488281 172.972656 450.867188 174.117188 451.269531 175.253906 C 451.675781 176.386719 452.109375 177.511719 452.570312 178.625 C 453.035156 179.738281 453.523438 180.839844 454.035156 181.929688 C 454.550781 183.019531 455.09375 184.097656 455.664062 185.160156 C 456.230469 186.222656 456.824219 187.273438 457.445312 188.304688 C 458.0625 189.339844 458.707031 190.359375 459.378906 191.359375 C 460.046875 192.363281 460.742188 193.347656 461.460938 194.316406 C 462.175781 195.285156 462.917969 196.234375 463.683594 197.167969 C 464.449219 198.097656 465.234375 199.011719 466.042969 199.90625 C 466.855469 200.796875 467.683594 201.671875 468.535156 202.523438 C 469.390625 203.375 470.261719 204.207031 471.15625 205.015625 C 472.046875 205.824219 472.960938 206.613281 473.890625 207.378906 C 474.824219 208.140625 475.773438 208.882812 476.742188 209.601562 C 477.710938 210.320312 478.695312 211.015625 479.699219 211.683594 C 480.699219 212.355469 481.71875 213 482.753906 213.617188 C 483.785156 214.238281 484.835938 214.832031 485.898438 215.402344 C 486.960938 215.96875 488.035156 216.511719 489.125 217.027344 C 490.214844 217.542969 491.316406 218.03125 492.429688 218.492188 C 493.546875 218.953125 494.667969 219.386719 495.804688 219.792969 C 496.941406 220.199219 498.082031 220.578125 499.238281 220.925781 C 500.390625 221.277344 501.550781 221.597656 502.722656 221.890625 C 503.890625 222.183594 505.066406 222.449219 506.25 222.683594 C 507.429688 222.917969 508.617188 223.125 509.8125 223.300781 C 511.003906 223.480469 512.199219 223.625 513.398438 223.746094 C 514.597656 223.863281 515.800781 223.953125 517.003906 224.011719 C 518.207031 224.070312 519.414062 224.101562 520.617188 224.101562 C 521.824219 224.101562 523.027344 224.070312 524.230469 224.011719 C 525.4375 223.953125 526.636719 223.863281 527.835938 223.746094 C 529.039062 223.628906 530.234375 223.480469 531.425781 223.304688 C 532.617188 223.125 533.804688 222.921875 534.988281 222.683594 C 536.171875 222.449219 537.347656 222.1875 538.515625 221.894531 C 539.683594 221.601562 540.847656 221.277344 542 220.929688 C 543.152344 220.578125 544.296875 220.203125 545.433594 219.796875 C 546.566406 219.390625 547.691406 218.957031 548.804688 218.496094 C 549.917969 218.03125 551.019531 217.542969 552.109375 217.027344 C 553.199219 216.515625 554.277344 215.972656 555.339844 215.402344 C 556.402344 214.835938 557.453125 214.242188 558.484375 213.621094 C 559.519531 213.003906 560.539062 212.359375 561.539062 211.6875 C 562.542969 211.019531 563.527344 210.324219 564.496094 209.605469 C 565.464844 208.886719 566.414062 208.148438 567.347656 207.382812 C 568.277344 206.617188 569.191406 205.832031 570.082031 205.019531 C 570.976562 204.210938 571.847656 203.378906 572.703125 202.527344 C 573.554688 201.675781 574.386719 200.804688 575.195312 199.910156 C 576.003906 199.015625 576.792969 198.105469 577.554688 197.171875 C 578.320312 196.242188 579.0625 195.289062 579.78125 194.324219 C 580.5 193.355469 581.191406 192.371094 581.863281 191.367188 C 582.53125 190.363281 583.175781 189.347656 583.796875 188.3125 C 584.414062 187.277344 585.011719 186.230469 585.578125 185.167969 C 586.148438 184.105469 586.6875 183.027344 587.203125 181.9375 C 587.71875 180.847656 588.207031 179.746094 588.667969 178.632812 C 589.128906 177.519531 589.5625 176.394531 589.96875 175.261719 C 590.375 174.125 590.753906 172.980469 591.105469 171.828125 C 591.453125 170.671875 591.773438 169.511719 592.066406 168.34375 C 592.359375 167.171875 592.625 165.996094 592.859375 164.816406 C 593.09375 163.632812 593.300781 162.445312 593.476562 161.253906 C 593.65625 160.0625 593.804688 158.863281 593.921875 157.664062 C 594.039062 156.464844 594.128906 155.265625 594.1875 154.058594 C 594.246094 152.855469 594.277344 151.652344 594.277344 150.445312 C 594.273438 149.242188 594.242188 148.035156 594.183594 146.832031 C 594.125 145.628906 594.035156 144.429688 593.914062 143.230469 C 593.796875 142.03125 593.644531 140.835938 593.46875 139.644531 C 593.289062 138.453125 593.085938 137.265625 592.847656 136.082031 C 592.613281 134.902344 592.347656 133.726562 592.054688 132.558594 C 591.761719 131.390625 591.4375 130.230469 591.085938 129.074219 C 590.738281 127.921875 590.359375 126.78125 589.953125 125.644531 C 589.546875 124.511719 589.113281 123.386719 588.648438 122.273438 C 588.1875 121.160156 587.699219 120.058594 587.183594 118.972656 C 586.667969 117.882812 586.125 116.804688 585.558594 115.742188 C 584.988281 114.679688 584.394531 113.632812 583.777344 112.601562 C 583.15625 111.566406 582.511719 110.550781 581.839844 109.546875 C 581.171875 108.546875 580.476562 107.5625 579.761719 106.59375 C 579.042969 105.625 578.300781 104.675781 577.535156 103.746094 C 576.773438 102.8125 575.984375 101.902344 575.175781 101.007812 C 574.367188 100.117188 573.535156 99.242188 572.683594 98.390625 C 571.832031 97.539062 570.960938 96.707031 570.066406 95.898438 C 569.175781 95.089844 568.261719 94.300781 567.332031 93.539062 C 566.398438 92.773438 565.449219 92.03125 564.484375 91.3125 C 563.515625 90.597656 562.53125 89.902344 561.53125 89.230469 C 560.527344 88.5625 559.511719 87.917969 558.476562 87.296875 C 557.445312 86.679688 556.394531 86.082031 555.332031 85.515625 C 554.269531 84.945312 553.195312 84.40625 552.105469 83.886719 C 551.015625 83.371094 549.917969 82.882812 548.804688 82.421875 C 547.691406 81.960938 546.566406 81.527344 545.433594 81.121094 C 544.296875 80.710938 543.15625 80.332031 542.003906 79.984375 C 540.847656 79.632812 539.6875 79.308594 538.519531 79.015625 C 537.351562 78.722656 536.175781 78.457031 534.996094 78.222656 C 533.8125 77.984375 532.625 77.777344 531.433594 77.601562 C 530.242188 77.421875 529.046875 77.273438 527.847656 77.15625 C 526.648438 77.035156 525.449219 76.945312 524.246094 76.886719 C 523.042969 76.824219 521.835938 76.792969 520.632812 76.792969 Z M 520.632812 76.792969 " fill-opacity="1" fill-rule="nonzero"/></g></svg>