<svg xmlns="http://www.w3.org/2000/svg" xmlns:xlink="http://www.w3.org/1999/xlink" width="1024" zoomAndPan="magnify" viewBox="0 0 768 775.92" height="1024" preserveAspectRatio="xMidYMid meet" version="1.0"><defs><clipPath id="867a1f40ea"><path d="M 77 427 L 458 427 L 458 571.550781 L 77 571.550781 Z M 77 427 " clip-rule="nonzero"/></clipPath><clipPath id="96143bbaa7"><path d="M 564 196.585938 L 651 196.585938 L 651 283 L 564 283 Z M 564 196.585938 " clip-rule="nonzero"/></clipPath></defs><g clip-path="url(#867a1f40ea)"><path fill="#9ded02" d="M 209.039062 504.804688 L 207.140625 498.820312 L 177.695312 508.152344 C 173.363281 505.15625 168.125 503.390625 162.488281 503.390625 C 147.703125 503.390625 135.605469 515.488281 135.605469 530.273438 L 135.605469 545.183594 L 77.226562 545.183594 L 77.226562 571.253906 L 200.703125 571.253906 L 200.703125 545.183594 L 189.367188 545.183594 L 189.367188 530.273438 C 189.367188 529.773438 189.320312 529.285156 189.292969 528.796875 L 214.144531 520.921875 L 212.25 514.933594 L 457.222656 437.308594 L 451.859375 427.859375 Z M 162.488281 538.296875 C 156.949219 538.296875 152.457031 533.808594 152.457031 528.269531 C 152.457031 522.730469 156.949219 518.238281 162.488281 518.238281 C 168.023438 518.238281 172.515625 522.730469 172.515625 528.269531 C 172.515625 533.808594 168.027344 538.296875 162.488281 538.296875 Z M 162.488281 538.296875 " fill-opacity="1" fill-rule="nonzero"/></g><path fill="#9ded02" d="M 509.621094 409.558594 L 514.984375 419.007812 L 536.109375 412.3125 L 527.4375 403.914062 Z M 509.621094 409.558594 " fill-opacity="1" fill-rule="nonzero"/><g clip-path="url(#96143bbaa7)"><path fill="#9ded02" d="M 650.628906 239.605469 C 650.628906 241.015625 650.558594 242.421875 650.421875 243.824219 C 650.28125 245.226562 650.074219 246.617188 649.800781 248 C 649.527344 249.378906 649.183594 250.746094 648.773438 252.09375 C 648.367188 253.441406 647.890625 254.765625 647.351562 256.070312 C 646.8125 257.371094 646.210938 258.640625 645.546875 259.886719 C 644.882812 261.128906 644.160156 262.335938 643.378906 263.507812 C 642.59375 264.675781 641.757812 265.808594 640.863281 266.898438 C 639.96875 267.984375 639.023438 269.027344 638.027344 270.023438 C 637.03125 271.019531 635.988281 271.964844 634.898438 272.859375 C 633.8125 273.753906 632.679688 274.59375 631.507812 275.375 C 630.335938 276.15625 629.128906 276.882812 627.886719 277.546875 C 626.644531 278.210938 625.375 278.8125 624.070312 279.351562 C 622.769531 279.890625 621.445312 280.363281 620.097656 280.773438 C 618.75 281.179688 617.382812 281.523438 616 281.796875 C 614.621094 282.074219 613.226562 282.28125 611.824219 282.417969 C 610.421875 282.554688 609.019531 282.625 607.609375 282.625 C 606.199219 282.625 604.792969 282.554688 603.394531 282.417969 C 601.992188 282.28125 600.597656 282.074219 599.214844 281.796875 C 597.835938 281.523438 596.46875 281.179688 595.121094 280.773438 C 593.773438 280.363281 592.449219 279.890625 591.148438 279.351562 C 589.84375 278.8125 588.574219 278.210938 587.332031 277.546875 C 586.085938 276.882812 584.878906 276.15625 583.710938 275.375 C 582.539062 274.59375 581.40625 273.753906 580.320312 272.859375 C 579.230469 271.964844 578.1875 271.019531 577.191406 270.023438 C 576.195312 269.027344 575.25 267.984375 574.355469 266.898438 C 573.460938 265.808594 572.625 264.675781 571.839844 263.507812 C 571.058594 262.335938 570.335938 261.128906 569.671875 259.886719 C 569.007812 258.640625 568.40625 257.371094 567.867188 256.070312 C 567.324219 254.765625 566.851562 253.441406 566.441406 252.09375 C 566.035156 250.746094 565.691406 249.378906 565.417969 248 C 565.140625 246.617188 564.9375 245.226562 564.796875 243.824219 C 564.660156 242.421875 564.589844 241.015625 564.589844 239.605469 C 564.589844 238.199219 564.660156 236.792969 564.796875 235.390625 C 564.9375 233.988281 565.140625 232.59375 565.417969 231.214844 C 565.691406 229.832031 566.035156 228.46875 566.441406 227.117188 C 566.851562 225.769531 567.324219 224.445312 567.867188 223.144531 C 568.40625 221.84375 569.007812 220.570312 569.671875 219.328125 C 570.335938 218.085938 571.058594 216.878906 571.839844 215.707031 C 572.625 214.535156 573.460938 213.40625 574.355469 212.316406 C 575.25 211.226562 576.195312 210.183594 577.191406 209.1875 C 578.1875 208.191406 579.230469 207.246094 580.320312 206.351562 C 581.40625 205.457031 582.539062 204.621094 583.710938 203.835938 C 584.878906 203.054688 586.085938 202.332031 587.332031 201.667969 C 588.574219 201.003906 589.84375 200.402344 591.148438 199.863281 C 592.449219 199.324219 593.773438 198.847656 595.121094 198.441406 C 596.46875 198.03125 597.835938 197.6875 599.214844 197.414062 C 600.597656 197.140625 601.992188 196.933594 603.394531 196.796875 C 604.792969 196.65625 606.199219 196.585938 607.609375 196.585938 C 609.019531 196.585938 610.421875 196.65625 611.824219 196.796875 C 613.226562 196.933594 614.621094 197.140625 616 197.414062 C 617.382812 197.6875 618.75 198.03125 620.097656 198.441406 C 621.445312 198.847656 622.769531 199.324219 624.070312 199.863281 C 625.375 200.402344 626.644531 201.003906 627.886719 201.667969 C 629.128906 202.332031 630.335938 203.054688 631.507812 203.835938 C 632.679688 204.621094 633.8125 205.457031 634.898438 206.351562 C 635.988281 207.246094 637.03125 208.191406 638.027344 209.1875 C 639.023438 210.183594 639.96875 211.226562 640.863281 212.316406 C 641.757812 213.40625 642.59375 214.535156 643.378906 215.707031 C 644.160156 216.878906 644.882812 218.085938 645.546875 219.328125 C 646.210938 220.570312 646.8125 221.84375 647.351562 223.144531 C 647.890625 224.445312 648.367188 225.769531 648.773438 227.117188 C 649.183594 228.46875 649.527344 229.832031 649.800781 231.214844 C 650.074219 232.59375 650.28125 233.988281 650.421875 235.390625 C 650.558594 236.792969 650.628906 238.199219 650.628906 239.605469 Z M 650.628906 239.605469 " fill-opacity="1" fill-rule="nonzero"/></g><path fill="#9ded02" d="M 535.992188 284.574219 C 513.570312 296.996094 482.46875 315.984375 451.710938 323.128906 C 449.753906 323.585938 447.796875 323.996094 445.84375 324.351562 C 434.144531 327.382812 427.871094 330.6875 424.980469 334.941406 C 418.03125 342.375 416.375 353.742188 421.664062 363.0625 L 469.261719 446.890625 L 474.0625 547.679688 C 474.671875 560.472656 485.238281 570.441406 497.914062 570.441406 C 498.296875 570.441406 498.683594 570.433594 499.070312 570.414062 C 512.253906 569.785156 522.433594 558.585938 521.808594 545.402344 L 516.738281 438.917969 C 516.558594 435.171875 515.5 431.515625 513.648438 428.253906 L 488.578125 384.101562 C 490.535156 383.617188 492.453125 383.125 494.332031 382.617188 C 497.269531 381.824219 500.121094 381.003906 502.894531 380.144531 L 480.859375 358.808594 C 476.300781 354.398438 474.140625 348.023438 475.078125 341.75 C 476.015625 335.480469 479.949219 330.015625 485.589844 327.128906 L 549.835938 294.285156 C 552.597656 292.867188 555.695312 292.121094 558.789062 292.121094 C 566.226562 292.121094 572.949219 296.230469 576.332031 302.851562 C 578.730469 307.535156 579.15625 312.871094 577.539062 317.875 C 575.917969 322.882812 572.449219 326.957031 567.765625 329.351562 L 528.035156 349.664062 L 569.117188 389.441406 C 573.078125 393.277344 575.070312 398.386719 575.09375 403.515625 C 575.964844 402.21875 576.636719 400.8125 577.078125 399.335938 L 606.429688 390.035156 L 620.703125 435.074219 C 621.695312 438.210938 625.789062 439.738281 629.800781 438.46875 L 631.105469 438.054688 C 635.113281 436.785156 637.582031 433.179688 636.589844 430.039062 L 628.550781 404.683594 L 640.984375 400.742188 L 634.75 381.0625 L 690.808594 363.296875 L 687.597656 353.167969 L 631.539062 370.929688 L 625.300781 351.246094 L 612.867188 355.1875 L 604.832031 329.832031 C 603.839844 326.691406 599.746094 325.164062 595.734375 326.4375 L 594.433594 326.851562 C 590.421875 328.121094 587.953125 331.726562 588.949219 334.863281 L 603.222656 379.90625 L 576.25 388.453125 C 575.921875 387.757812 575.554688 387.070312 575.109375 386.410156 L 554.257812 355.457031 C 559.089844 352.253906 564.042969 348.75 569.25 344.890625 C 592.925781 327.121094 594.085938 301.882812 585.191406 287.601562 C 576.289062 273.324219 552.410156 273.5 535.992188 284.574219 Z M 535.992188 284.574219 " fill-opacity="1" fill-rule="nonzero"/><path fill="#9ded02" d="M 566.050781 392.597656 L 520.550781 348.542969 L 565.753906 325.433594 C 573.277344 321.589844 576.257812 312.371094 572.410156 304.851562 C 568.566406 297.328125 559.355469 294.34375 551.828125 298.195312 L 487.585938 331.039062 C 483.191406 333.289062 480.148438 337.519531 479.417969 342.398438 C 478.691406 347.28125 480.359375 352.214844 483.910156 355.648438 L 544.769531 414.578125 C 547.738281 417.453125 551.578125 418.882812 555.40625 418.882812 C 559.402344 418.882812 563.398438 417.324219 566.394531 414.226562 C 572.273438 408.160156 572.117188 398.476562 566.050781 392.597656 Z M 566.050781 392.597656 " fill-opacity="1" fill-rule="nonzero"/></svg>