<svg xmlns="http://www.w3.org/2000/svg" xmlns:xlink="http://www.w3.org/1999/xlink" width="1024" zoomAndPan="magnify" viewBox="0 0 768 775.92" height="1024" preserveAspectRatio="xMidYMid meet" version="1.0"><defs><clipPath id="bb0a50eeeb"><path d="M 361 141.808594 L 452 141.808594 L 452 232 L 361 232 Z M 361 141.808594 " clip-rule="nonzero"/></clipPath></defs><path fill="#9ded02" d="M 481.253906 520.726562 L 690.65625 520.726562 L 690.65625 474.847656 L 481.253906 474.847656 Z M 481.253906 520.726562 " fill-opacity="1" fill-rule="nonzero"/><path fill="#9ded02" d="M 457.109375 335.128906 C 456.300781 334.730469 422.644531 314.109375 408.890625 265.457031 C 406.671875 268.101562 404.730469 270.996094 403.214844 274.109375 C 388.507812 303.90625 386.335938 338.300781 386.085938 351.714844 C 386.085938 354.019531 385.863281 356.441406 385.652344 358.851562 C 384.242188 369.535156 380.351562 379.363281 374.460938 387.929688 L 444.496094 416.085938 C 448.789062 387.660156 460.777344 363.824219 469.089844 350.175781 C 465.878906 344.390625 461.90625 339.136719 457.121094 335.117188 Z M 457.109375 335.128906 " fill-opacity="1" fill-rule="nonzero"/><path fill="#9ded02" d="M 534.890625 532.480469 L 637.027344 532.480469 L 637.027344 624.132812 L 534.890625 624.132812 Z M 534.890625 532.480469 " fill-opacity="1" fill-rule="nonzero"/><path fill="#9ded02" d="M 120.863281 616.996094 C 128.105469 622.816406 137.53125 625.25 146.582031 623.648438 C 155.503906 622.097656 163.300781 616.808594 167.976562 609.144531 C 168.257812 608.675781 168.484375 608.203125 168.765625 607.734375 L 141.234375 580.191406 L 104.75 557.941406 C 101.984375 556.203125 98.859375 555.332031 95.378906 555.332031 C 91.3125 555.332031 87.714844 556.507812 84.695312 558.8125 C 80.097656 562.195312 77.453125 567.34375 77.347656 573.011719 C 77.230469 578.59375 79.652344 583.789062 83.976562 587.234375 Z M 120.863281 616.996094 " fill-opacity="1" fill-rule="nonzero"/><path fill="#9ded02" d="M 188.054688 560.140625 C 188.476562 558.304688 189.769531 556.789062 191.5 556.058594 C 233.78125 538.203125 243.335938 489.773438 243.429688 489.28125 C 243.949219 486.507812 246.382812 484.484375 249.203125 484.484375 L 392.625 484.484375 C 406.210938 484.484375 418.777344 479.324219 427.957031 469.957031 C 437.539062 460.550781 442.78125 448.152344 442.78125 434.949219 C 442.78125 432.625 443.015625 430.460938 443.167969 428.238281 L 366.574219 397.453125 C 356.839844 407.914062 343.710938 415.109375 328.78125 417.53125 L 241.5625 431.390625 C 231.183594 433.117188 222.121094 439.652344 217.347656 448.867188 L 152.085938 574.421875 L 174.523438 596.871094 C 183.824219 577.710938 187.996094 560.351562 188.042969 560.152344 Z M 188.054688 560.140625 " fill-opacity="1" fill-rule="nonzero"/><path fill="#9ded02" d="M 418.894531 256.949219 C 430.355469 304.707031 463.5625 325.382812 463.917969 325.59375 C 471.390625 331.765625 477.082031 339.148438 481.148438 347.449219 C 481.148438 347.449219 481.148438 347.472656 481.160156 347.484375 C 481.183594 347.53125 481.21875 347.578125 481.242188 347.625 C 481.253906 347.648438 481.242188 347.683594 481.265625 347.707031 C 496.476562 376.753906 496.054688 417.800781 492.996094 447.164062 C 492.996094 447.222656 492.890625 448.410156 492.878906 448.46875 C 492.832031 456.671875 499.34375 463.078125 507.328125 463.078125 C 514.921875 463.078125 521.210938 457.367188 521.632812 450.078125 C 527.664062 354.488281 498.945312 297.019531 473.800781 265.644531 C 460.378906 248.835938 436.9375 245.476562 418.894531 256.949219 Z M 418.894531 256.949219 " fill-opacity="1" fill-rule="nonzero"/><g clip-path="url(#bb0a50eeeb)"><path fill="#9ded02" d="M 406.625 231.085938 C 431.34375 231.085938 451.433594 210.988281 451.433594 186.265625 C 451.433594 161.546875 431.332031 141.445312 406.625 141.445312 C 381.914062 141.445312 361.800781 161.558594 361.800781 186.265625 C 361.800781 210.976562 381.914062 231.085938 406.625 231.085938 Z M 406.625 231.085938 " fill-opacity="1" fill-rule="nonzero"/></g></svg>