<svg xmlns="http://www.w3.org/2000/svg" xmlns:xlink="http://www.w3.org/1999/xlink" width="1024" zoomAndPan="magnify" viewBox="0 0 768 775.92" height="1024" preserveAspectRatio="xMidYMid meet" version="1.0"><defs><clipPath id="7345cd5eae"><path d="M 232 168.175781 L 308 168.175781 L 308 218 L 232 218 Z M 232 168.175781 " clip-rule="nonzero"/></clipPath><clipPath id="3885c0205e"><path d="M 76.832031 287 L 599 287 L 599 599.378906 L 76.832031 599.378906 Z M 76.832031 287 " clip-rule="nonzero"/></clipPath></defs><g clip-path="url(#7345cd5eae)"><path fill="#9ded02" d="M 255.304688 217.675781 C 255.121094 216.59375 255.003906 215.488281 255.003906 214.355469 C 255.003906 203.355469 263.917969 194.441406 274.917969 194.441406 C 278.5625 194.441406 281.964844 195.4375 284.90625 197.148438 C 290.953125 190.207031 298.734375 184.847656 307.570312 181.695312 C 299.210938 173.34375 287.667969 168.175781 274.917969 168.175781 C 256.007812 168.175781 239.777344 179.546875 232.632812 195.816406 C 241.941406 201.195312 249.664062 208.671875 255.304688 217.675781 Z M 255.304688 217.675781 " fill-opacity="1" fill-rule="nonzero"/></g><path fill="#9ded02" d="M 274.917969 260.535156 C 276.375 260.535156 277.808594 260.453125 279.230469 260.320312 C 274.59375 252.566406 271.839844 243.585938 271.605469 233.96875 C 267.316406 233.25 263.492188 231.171875 260.597656 228.175781 C 260.886719 228.890625 261.226562 229.578125 261.488281 230.304688 C 264.914062 239.789062 266.089844 249.714844 265.0625 259.457031 C 268.242188 260.148438 271.53125 260.535156 274.917969 260.535156 Z M 274.917969 260.535156 " fill-opacity="1" fill-rule="nonzero"/><path fill="#9ded02" d="M 267.722656 214.355469 C 267.722656 217.582031 269.859375 220.285156 272.785156 221.195312 C 273.816406 216.4375 275.484375 211.917969 277.675781 207.714844 C 276.828125 207.359375 275.894531 207.160156 274.917969 207.160156 C 270.941406 207.160156 267.722656 210.382812 267.722656 214.355469 Z M 267.722656 214.355469 " fill-opacity="1" fill-rule="nonzero"/><path fill="#9ded02" d="M 198.320312 312.226562 C 221.199219 312.742188 243.320312 300 253.664062 277.949219 C 267.648438 248.144531 254.820312 212.652344 225.015625 198.667969 C 195.210938 184.683594 159.714844 197.511719 145.730469 227.316406 C 137.355469 245.164062 138.609375 265.050781 147.351562 281.140625 C 149.476562 281.820312 151.550781 282.742188 153.523438 283.992188 Z M 198.320312 312.226562 " fill-opacity="1" fill-rule="nonzero"/><path fill="#9ded02" d="M 352.53125 403.101562 C 352.464844 403.421875 352.375 403.726562 352.300781 404.039062 C 352.167969 404.578125 352.046875 405.117188 351.882812 405.652344 C 351.742188 406.109375 351.570312 406.550781 351.40625 407.003906 C 351.28125 407.347656 351.179688 407.695312 351.039062 408.035156 C 351.019531 408.085938 350.996094 408.128906 350.972656 408.179688 C 350.945312 408.25 350.917969 408.320312 350.886719 408.394531 L 384.992188 429.890625 C 386.527344 430.863281 387.761719 432.074219 388.691406 433.488281 C 391.097656 431.078125 394.0625 429.761719 397.503906 429.761719 L 544.078125 429.761719 C 554.808594 429.761719 564.054688 436.140625 568.289062 445.289062 L 568.667969 445.304688 L 622.867188 576.722656 C 628.136719 589.5 640.476562 597.21875 653.492188 597.21875 C 657.699219 597.21875 661.976562 596.414062 666.105469 594.710938 C 683.015625 587.738281 691.070312 568.378906 684.097656 551.472656 L 621.855469 400.542969 C 616.945312 388.640625 605.582031 380.660156 592.71875 380.085938 L 449.691406 373.683594 C 446.789062 372.359375 443.589844 371 440.027344 369.582031 C 406.546875 359.027344 378.183594 331.363281 353.066406 308.933594 L 353.066406 397.304688 C 353.097656 399.242188 352.917969 401.183594 352.53125 403.101562 Z M 352.53125 403.101562 " fill-opacity="1" fill-rule="nonzero"/><path fill="#9ded02" d="M 282.589844 365.339844 L 272.511719 341.351562 C 269.691406 334.628906 269.652344 327.214844 272.410156 320.464844 C 275.164062 313.71875 280.382812 308.445312 287.105469 305.625 C 290.476562 304.210938 294.027344 303.492188 297.660156 303.492188 C 297.941406 303.492188 298.214844 303.515625 298.492188 303.523438 L 298.492188 279.386719 C 295.953125 277.902344 293.511719 276.261719 291.253906 274.398438 C 290.980469 274.390625 290.699219 274.367188 290.421875 274.363281 L 290.460938 273.675781 C 288.289062 271.808594 286.257812 269.78125 284.402344 267.597656 C 281.316406 268.144531 278.15625 268.484375 274.914062 268.484375 C 271.082031 268.484375 267.351562 268.070312 263.742188 267.3125 C 262.699219 271.816406 261.1875 276.25 259.175781 280.535156 C 256.003906 287.300781 251.714844 293.335938 246.628906 298.515625 L 244.265625 341.179688 Z M 282.589844 365.339844 " fill-opacity="1" fill-rule="nonzero"/><g clip-path="url(#3885c0205e)"><path fill="#9ded02" d="M 118.050781 526.359375 C 118.050781 518.441406 124.496094 511.996094 132.414062 511.996094 L 543.054688 511.996094 C 550.972656 511.996094 557.414062 518.441406 557.414062 526.359375 L 557.414062 573.152344 L 542.800781 573.152344 L 542.800781 599.644531 L 598.519531 599.644531 L 598.519531 573.152344 L 583.90625 573.152344 L 583.90625 526.359375 C 583.90625 503.832031 565.578125 485.503906 543.050781 485.503906 L 218.625 485.503906 L 256.953125 412.273438 L 260.648438 405.210938 L 360.679688 468.257812 C 369.386719 473.773438 389.449219 442.117188 380.742188 436.597656 L 346.75 415.171875 C 344.109375 418.355469 340.75 420.894531 336.875 422.617188 C 336.707031 422.695312 336.546875 422.785156 336.378906 422.855469 C 336.367188 422.859375 336.359375 422.867188 336.347656 422.871094 C 336.042969 422.996094 335.730469 423.089844 335.425781 423.207031 C 334.902344 423.402344 334.378906 423.613281 333.839844 423.78125 C 333.253906 423.964844 332.65625 424.097656 332.0625 424.242188 C 331.792969 424.304688 331.527344 424.390625 331.25 424.449219 C 329.460938 424.816406 327.636719 425.003906 325.789062 425.003906 C 314.769531 425.003906 304.890625 418.441406 300.625 408.28125 L 287.957031 378.117188 L 149.269531 290.703125 C 140.5625 285.1875 128.925781 287.796875 123.410156 296.503906 C 117.894531 305.210938 120.503906 316.847656 129.207031 322.363281 L 238.164062 391.039062 L 234.46875 398.105469 L 188.726562 485.507812 L 132.414062 485.507812 C 109.882812 485.507812 91.554688 503.835938 91.554688 526.359375 L 91.554688 573.15625 L 76.941406 573.15625 L 76.941406 599.648438 L 132.660156 599.648438 L 132.660156 573.15625 L 118.046875 573.15625 L 118.046875 526.359375 Z M 118.050781 526.359375 " fill-opacity="1" fill-rule="nonzero"/></g><path fill="#9ded02" d="M 397.507812 475.183594 L 544.082031 475.183594 C 554.390625 475.183594 562.820312 466.753906 562.820312 456.445312 C 562.820312 446.136719 554.390625 437.703125 544.082031 437.703125 L 397.507812 437.703125 C 387.199219 437.707031 387.199219 475.183594 397.507812 475.183594 Z M 397.507812 475.183594 " fill-opacity="1" fill-rule="nonzero"/><path fill="#9ded02" d="M 325.667969 286.777344 C 318.191406 286.777344 311.070312 285.253906 304.585938 282.503906 L 304.585938 362.253906 L 298.492188 349.355469 L 298.492188 309.628906 C 295.488281 309.507812 292.417969 310.003906 289.464844 311.242188 C 278.671875 315.777344 273.597656 328.199219 278.128906 338.992188 L 306.210938 405.859375 C 306.597656 406.78125 307.058594 407.660156 307.5625 408.511719 C 307.671875 408.695312 307.785156 408.878906 307.898438 409.058594 C 308.382812 409.828125 308.910156 410.570312 309.488281 411.265625 C 309.601562 411.40625 309.734375 411.53125 309.855469 411.671875 C 310.347656 412.230469 310.867188 412.761719 311.414062 413.269531 C 311.605469 413.441406 311.792969 413.621094 311.984375 413.789062 C 312.652344 414.363281 313.351562 414.898438 314.085938 415.386719 C 314.207031 415.46875 314.335938 415.535156 314.457031 415.613281 C 317.734375 417.691406 321.605469 418.910156 325.773438 418.910156 C 337.480469 418.910156 346.96875 409.417969 346.96875 397.714844 L 346.96875 282.394531 C 340.429688 285.210938 333.230469 286.777344 325.667969 286.777344 Z M 325.667969 286.777344 " fill-opacity="1" fill-rule="nonzero"/><path fill="#9ded02" d="M 279.488281 232.648438 C 279.488281 258.15625 300.164062 278.832031 325.671875 278.832031 C 351.179688 278.832031 371.855469 258.15625 371.855469 232.648438 C 371.855469 207.144531 351.175781 186.46875 325.671875 186.46875 C 300.167969 186.46875 279.488281 207.144531 279.488281 232.648438 Z M 325.671875 252.5625 C 314.675781 252.5625 305.757812 243.648438 305.757812 232.648438 C 305.757812 221.652344 314.675781 212.738281 325.671875 212.738281 C 336.667969 212.738281 345.582031 221.652344 345.582031 232.648438 C 345.582031 243.648438 336.664062 252.5625 325.671875 252.5625 Z M 325.671875 252.5625 " fill-opacity="1" fill-rule="nonzero"/><path fill="#9ded02" d="M 325.671875 225.453125 C 321.699219 225.453125 318.476562 228.675781 318.476562 232.648438 C 318.476562 236.625 321.699219 239.847656 325.671875 239.847656 C 329.644531 239.847656 332.867188 236.625 332.867188 232.648438 C 332.863281 228.675781 329.640625 225.453125 325.671875 225.453125 Z M 325.671875 225.453125 " fill-opacity="1" fill-rule="nonzero"/></svg>