<svg xmlns="http://www.w3.org/2000/svg" xmlns:xlink="http://www.w3.org/1999/xlink" width="1024" zoomAndPan="magnify" viewBox="0 0 768 775.92" height="1024" preserveAspectRatio="xMidYMid meet" version="1.0"><defs><clipPath id="8e5d57a5f4"><path d="M 77 519 L 235 519 L 235 625.398438 L 77 625.398438 Z M 77 519 " clip-rule="nonzero"/></clipPath><clipPath id="f3beaa48ad"><path d="M 100 142.449219 L 691 142.449219 L 691 625.398438 L 100 625.398438 Z M 100 142.449219 " clip-rule="nonzero"/></clipPath></defs><g clip-path="url(#8e5d57a5f4)"><path fill="#9ded02" d="M 139.152344 535.1875 C 137.34375 534.953125 135.523438 534.507812 133.738281 533.871094 C 132.046875 533.363281 130.160156 532.722656 127.644531 531.792969 C 122.644531 529.949219 113.453125 526.546875 106.410156 519.078125 L 94.785156 519.078125 C 87.929688 519.078125 82.320312 524.6875 82.320312 531.542969 C 82.320312 538.398438 87.929688 544.007812 94.785156 544.007812 L 98.140625 544.007812 C 85.988281 550.644531 77.722656 563.542969 77.722656 578.335938 L 77.722656 625.539062 L 95.347656 625.539062 L 95.347656 578.335938 C 95.347656 566.5 104.976562 556.871094 116.808594 556.871094 L 234.449219 556.871094 L 218.515625 545.566406 Z M 139.152344 535.1875 " fill-opacity="1" fill-rule="nonzero"/></g><g clip-path="url(#f3beaa48ad)"><path fill="#9ded02" d="M 690.328125 607.917969 L 645.734375 607.917969 L 645.734375 207.398438 L 664.75 207.398438 L 664.75 172.152344 L 515.804688 172.152344 L 460.355469 142.449219 L 443.714844 173.515625 L 455.828125 180.003906 L 449.046875 192.132812 C 445.042969 199.289062 447.621094 208.421875 454.78125 212.429688 C 456 213.109375 457.28125 213.585938 458.582031 213.894531 L 486.417969 474.695312 L 482.679688 474.695312 C 478.800781 474.695312 475.628906 477.867188 475.628906 481.746094 L 475.628906 490.101562 L 393.386719 480.132812 C 393.300781 479.621094 393.164062 479.109375 392.964844 478.605469 C 391.4375 474.714844 387.042969 472.804688 383.152344 474.335938 C 381.195312 475.105469 379.746094 476.597656 378.976562 478.386719 L 344.957031 474.265625 L 346.039062 467.324219 C 346.761719 462.707031 344.433594 458.210938 340.242188 456.136719 L 324.859375 448.523438 C 321.789062 447.003906 318.28125 447.035156 315.238281 448.613281 C 314.003906 449.253906 312.941406 450.113281 312.066406 451.121094 L 244.003906 429.933594 L 203.722656 387.921875 C 202.917969 387.082031 202.027344 386.378906 201.089844 385.785156 C 200.636719 385.398438 200.199219 384.996094 199.699219 384.648438 C 186.996094 375.757812 163.710938 375.574219 146.183594 396.488281 C 131.335938 414.414062 121.585938 429.183594 113.992188 446.929688 C 109.34375 457.785156 105.5 469.753906 101.796875 484.246094 C 96.78125 512.714844 113.894531 522.398438 129.046875 527.988281 C 131.183594 528.777344 133.15625 529.46875 135.007812 530.015625 C 136.492188 530.554688 138.050781 530.953125 139.679688 531.167969 L 220.042969 541.679688 L 298.382812 597.277344 C 302.25 600.023438 306.703125 601.34375 311.113281 601.34375 C 318.007812 601.34375 324.800781 598.113281 329.09375 592.0625 C 336.136719 582.140625 333.800781 568.390625 323.878906 561.351562 L 241.074219 502.585938 C 238.144531 500.503906 234.746094 499.171875 231.183594 498.707031 L 165.96875 490.175781 C 170.0625 480.410156 175.109375 470.855469 180.347656 461.828125 C 183.890625 455.730469 187.515625 449.882812 190.992188 444.371094 L 172.542969 428.796875 C 168.835938 425.667969 166.574219 421.285156 166.164062 416.453125 C 165.757812 411.621094 167.257812 406.921875 170.382812 403.21875 C 173.839844 399.125 178.898438 396.773438 184.257812 396.773438 C 188.535156 396.773438 192.691406 398.296875 195.964844 401.058594 L 243.347656 441.0625 L 313.167969 456.996094 C 317.085938 457.890625 320.402344 460.007812 322.839844 462.84375 C 322.296875 459.15625 320.300781 455.804688 317.277344 453.566406 C 317.410156 453.484375 317.527344 453.375 317.667969 453.300781 C 318.449219 452.898438 319.289062 452.695312 320.132812 452.695312 C 320.941406 452.695312 321.753906 452.882812 322.511719 453.257812 L 337.898438 460.867188 C 340.007812 461.914062 341.179688 464.175781 340.816406 466.503906 L 339.695312 473.671875 C 338.441406 473.753906 337.378906 474.691406 337.222656 475.980469 C 337.074219 477.210938 337.796875 478.335938 338.898438 478.757812 L 337.824219 485.617188 C 337.460938 487.9375 335.652344 489.738281 333.324219 490.085938 L 316.347656 492.636719 C 315.386719 492.78125 314.445312 492.640625 313.578125 492.296875 C 312.152344 492.652344 310.667969 492.847656 309.136719 492.847656 C 308.191406 492.847656 307.242188 492.742188 306.300781 492.59375 C 306.761719 493.402344 307.324219 494.160156 308 494.84375 C 310.03125 496.882812 312.703125 497.988281 315.511719 497.988281 C 316.050781 497.988281 316.589844 497.945312 317.132812 497.863281 L 334.109375 495.316406 C 338.734375 494.617188 342.324219 491.050781 343.046875 486.433594 L 344.136719 479.484375 L 378.75 483.679688 C 378.800781 483.832031 378.820312 483.988281 378.882812 484.140625 C 380.410156 488.03125 384.804688 489.941406 388.695312 488.414062 C 390.28125 487.789062 391.515625 486.675781 392.34375 485.328125 L 475.628906 495.421875 L 475.628906 502.367188 C 475.628906 506.246094 478.800781 509.417969 482.679688 509.417969 L 502.570312 509.417969 L 502.570312 539.246094 L 299.742188 539.246094 L 324.570312 556.867188 L 358.957031 556.867188 L 322.867188 607.914062 L 267.503906 607.914062 L 267.503906 625.535156 L 690.328125 625.535156 Z M 565.394531 547.003906 L 585.363281 547.003906 L 589.214844 555.109375 L 561.542969 555.109375 Z M 557.015625 538.65625 L 557.015625 532.042969 L 593.742188 532.042969 L 593.742188 538.65625 Z M 557.015625 523.695312 L 557.015625 517.085938 L 593.742188 517.085938 L 593.742188 523.695312 Z M 557.015625 508.738281 L 557.015625 502.128906 L 593.742188 502.128906 L 593.742188 508.738281 Z M 557.015625 493.78125 L 557.015625 487.167969 L 593.742188 487.167969 L 593.742188 493.78125 Z M 557.015625 478.824219 L 557.015625 472.210938 L 593.742188 472.210938 L 593.742188 478.824219 Z M 557.015625 463.863281 L 557.015625 207.398438 L 593.742188 207.398438 L 593.742188 463.863281 Z M 552.339844 207.398438 L 552.339844 463.863281 L 536.421875 463.863281 L 536.421875 472.210938 L 552.339844 472.210938 L 552.339844 478.820312 L 536.421875 478.820312 L 536.421875 487.167969 L 552.339844 487.167969 L 552.339844 493.78125 L 536.421875 493.78125 L 536.421875 502.128906 L 552.339844 502.128906 L 552.339844 508.738281 L 536.421875 508.738281 L 536.421875 517.085938 L 552.339844 517.085938 L 552.339844 523.699219 L 536.421875 523.699219 L 536.421875 532.046875 L 552.339844 532.046875 L 552.339844 538.65625 L 536.421875 538.65625 L 536.421875 547.003906 L 543.960938 547.003906 L 547.8125 555.113281 L 520.191406 555.113281 L 520.191406 207.398438 Z M 520.191406 572.730469 L 628.113281 572.730469 L 628.113281 607.917969 L 520.191406 607.917969 Z M 628.113281 555.109375 L 602.945312 555.109375 L 606.796875 547.003906 L 611.882812 547.003906 L 611.882812 538.65625 L 598.417969 538.65625 L 598.417969 532.042969 L 611.882812 532.042969 L 611.882812 523.695312 L 598.417969 523.695312 L 598.417969 517.082031 L 611.882812 517.082031 L 611.882812 508.734375 L 598.417969 508.734375 L 598.417969 502.125 L 611.882812 502.125 L 611.882812 493.777344 L 598.417969 493.777344 L 598.417969 487.164062 L 611.882812 487.164062 L 611.882812 478.816406 L 598.417969 478.816406 L 598.417969 472.207031 L 611.882812 472.207031 L 611.882812 463.859375 L 598.417969 463.859375 L 598.417969 207.398438 L 628.117188 207.398438 L 628.117188 555.109375 Z M 646.609375 189.644531 C 646.609375 194.996094 642.273438 199.328125 636.925781 199.328125 C 631.578125 199.328125 627.242188 194.996094 627.242188 189.644531 C 627.242188 184.296875 631.578125 179.964844 636.925781 179.964844 C 642.273438 179.964844 646.609375 184.296875 646.609375 189.644531 Z M 511.382812 179.964844 C 516.730469 179.964844 521.066406 184.296875 521.066406 189.644531 C 521.066406 194.996094 516.730469 199.328125 511.382812 199.328125 C 506.035156 199.328125 501.699219 194.996094 501.699219 189.644531 C 501.699219 184.296875 506.035156 179.964844 511.382812 179.964844 Z M 456.664062 197.667969 C 458.164062 194.984375 461.554688 194.027344 464.238281 195.527344 C 466.917969 197.027344 467.878906 200.417969 466.375 203.101562 C 465.625 204.445312 464.402344 205.351562 463.027344 205.742188 L 462.675781 202.445312 C 462.519531 200.996094 461.226562 199.945312 459.765625 200.097656 C 458.316406 200.253906 457.265625 201.554688 457.417969 203.003906 L 457.550781 204.25 C 455.878906 202.53125 455.429688 199.867188 456.664062 197.667969 Z M 491.738281 474.695312 L 463.929688 214.175781 C 468.464844 213.589844 472.6875 210.964844 475.082031 206.691406 L 482.128906 194.09375 L 502.574219 205.042969 L 502.574219 474.695312 Z M 376.40625 556.875 L 502.570312 556.875 L 502.570312 607.917969 L 340.316406 607.917969 Z M 376.40625 556.875 " fill-opacity="1" fill-rule="nonzero"/></g><path fill="#9ded02" d="M 511.382812 185.75 C 509.230469 185.75 507.484375 187.496094 507.484375 189.644531 C 507.484375 191.796875 509.230469 193.539062 511.382812 193.539062 C 513.535156 193.539062 515.277344 191.796875 515.277344 189.644531 C 515.277344 187.496094 513.535156 185.75 511.382812 185.75 Z M 511.382812 185.75 " fill-opacity="1" fill-rule="nonzero"/><path fill="#9ded02" d="M 636.925781 185.75 C 634.773438 185.75 633.027344 187.496094 633.027344 189.644531 C 633.027344 191.796875 634.773438 193.539062 636.925781 193.539062 C 639.078125 193.539062 640.820312 191.796875 640.820312 189.644531 C 640.820312 187.496094 639.078125 185.75 636.925781 185.75 Z M 636.925781 185.75 " fill-opacity="1" fill-rule="nonzero"/><path fill="#9ded02" d="M 269.386719 326.855469 C 270.304688 327.773438 271.175781 328.734375 272 329.738281 C 272.824219 330.742188 273.597656 331.785156 274.320312 332.863281 C 275.039062 333.941406 275.707031 335.054688 276.320312 336.199219 C 276.933594 337.34375 277.488281 338.519531 277.984375 339.71875 C 278.480469 340.917969 278.917969 342.140625 279.292969 343.382812 C 279.671875 344.625 279.988281 345.882812 280.238281 347.15625 C 280.492188 348.429688 280.683594 349.710938 280.8125 351.003906 C 280.9375 352.296875 281 353.59375 281.003906 354.890625 C 281.003906 356.191406 280.9375 357.484375 280.8125 358.777344 C 280.683594 360.070312 280.492188 361.351562 280.238281 362.625 C 279.988281 363.898438 279.671875 365.15625 279.292969 366.402344 C 278.917969 367.644531 278.480469 368.863281 277.984375 370.0625 C 277.488281 371.265625 276.933594 372.4375 276.320312 373.582031 C 275.707031 374.726562 275.042969 375.839844 274.320312 376.917969 C 273.597656 378 272.824219 379.039062 272.003906 380.042969 C 271.179688 381.046875 270.308594 382.007812 269.390625 382.925781 C 268.472656 383.847656 267.511719 384.71875 266.507812 385.539062 C 265.503906 386.363281 264.460938 387.136719 263.382812 387.859375 C 262.300781 388.582031 261.1875 389.246094 260.042969 389.859375 C 258.898438 390.472656 257.726562 391.027344 256.527344 391.523438 C 255.328125 392.019531 254.105469 392.457031 252.863281 392.832031 C 251.621094 393.210938 250.363281 393.527344 249.089844 393.78125 C 247.816406 394.03125 246.53125 394.222656 245.238281 394.351562 C 243.945312 394.476562 242.652344 394.542969 241.351562 394.542969 C 240.054688 394.542969 238.757812 394.476562 237.464844 394.351562 C 236.175781 394.222656 234.890625 394.03125 233.617188 393.78125 C 232.34375 393.527344 231.085938 393.210938 229.84375 392.835938 C 228.601562 392.457031 227.378906 392.019531 226.179688 391.523438 C 224.980469 391.027344 223.808594 390.472656 222.664062 389.859375 C 221.515625 389.246094 220.40625 388.582031 219.324219 387.859375 C 218.246094 387.136719 217.203125 386.367188 216.199219 385.542969 C 215.195312 384.71875 214.234375 383.847656 213.316406 382.929688 C 212.398438 382.011719 211.527344 381.050781 210.703125 380.046875 C 209.878906 379.042969 209.105469 378 208.386719 376.921875 C 207.664062 375.839844 206.996094 374.726562 206.386719 373.582031 C 205.773438 372.4375 205.21875 371.265625 204.722656 370.066406 C 204.222656 368.867188 203.789062 367.644531 203.410156 366.402344 C 203.035156 365.160156 202.71875 363.902344 202.464844 362.628906 C 202.210938 361.355469 202.019531 360.070312 201.894531 358.777344 C 201.765625 357.488281 201.703125 356.191406 201.703125 354.890625 C 201.703125 353.59375 201.765625 352.296875 201.894531 351.007812 C 202.019531 349.714844 202.210938 348.429688 202.464844 347.15625 C 202.71875 345.882812 203.03125 344.625 203.410156 343.382812 C 203.785156 342.140625 204.222656 340.917969 204.71875 339.71875 C 205.21875 338.519531 205.773438 337.347656 206.382812 336.203125 C 206.996094 335.054688 207.664062 333.945312 208.382812 332.863281 C 209.105469 331.785156 209.878906 330.742188 210.703125 329.738281 C 211.527344 328.734375 212.398438 327.773438 213.316406 326.855469 C 214.234375 325.9375 215.195312 325.066406 216.199219 324.242188 C 217.203125 323.417969 218.242188 322.644531 219.324219 321.925781 C 220.402344 321.203125 221.515625 320.535156 222.660156 319.925781 C 223.804688 319.3125 224.980469 318.757812 226.179688 318.261719 C 227.378906 317.761719 228.597656 317.328125 229.84375 316.949219 C 231.085938 316.574219 232.34375 316.257812 233.617188 316.003906 C 234.890625 315.75 236.171875 315.558594 237.464844 315.433594 C 238.757812 315.304688 240.054688 315.242188 241.351562 315.242188 C 242.648438 315.242188 243.945312 315.304688 245.238281 315.433594 C 246.53125 315.558594 247.8125 315.75 249.085938 316.003906 C 250.359375 316.257812 251.617188 316.570312 252.863281 316.949219 C 254.105469 317.324219 255.324219 317.761719 256.523438 318.261719 C 257.726562 318.757812 258.898438 319.3125 260.042969 319.921875 C 261.1875 320.535156 262.300781 321.203125 263.378906 321.925781 C 264.460938 322.644531 265.5 323.417969 266.503906 324.242188 C 267.507812 325.066406 268.46875 325.9375 269.386719 326.855469 Z M 269.386719 326.855469 " fill-opacity="1" fill-rule="nonzero"/><path fill="#9ded02" d="M 231.871094 471.523438 L 305.992188 488.441406 C 307.050781 488.683594 308.105469 488.796875 309.140625 488.796875 C 315.574219 488.796875 321.382812 484.367188 322.875 477.832031 C 324.605469 470.242188 319.859375 462.683594 312.265625 460.953125 L 241.484375 444.796875 L 193.347656 404.15625 C 187.398438 399.132812 178.503906 399.882812 173.484375 405.832031 C 168.460938 411.78125 169.210938 420.679688 175.160156 425.699219 L 225.914062 468.550781 C 227.632812 470.003906 229.675781 471.023438 231.871094 471.523438 Z M 231.871094 471.523438 " fill-opacity="1" fill-rule="nonzero"/></svg>