<svg xmlns="http://www.w3.org/2000/svg" xmlns:xlink="http://www.w3.org/1999/xlink" width="1024" zoomAndPan="magnify" viewBox="0 0 768 775.92" height="1024" preserveAspectRatio="xMidYMid meet" version="1.0"><defs><clipPath id="eb85d7dd2a"><path d="M 324 433 L 691.019531 433 L 691.019531 618 L 324 618 Z M 324 433 " clip-rule="nonzero"/></clipPath><clipPath id="fbad19c351"><path d="M 76.832031 433 L 253 433 L 253 618 L 76.832031 618 Z M 76.832031 433 " clip-rule="nonzero"/></clipPath><clipPath id="84f1031d6d"><path d="M 195 213 L 376 213 L 376 626.496094 L 195 626.496094 Z M 195 213 " clip-rule="nonzero"/></clipPath></defs><path fill="#9ded02" d="M 363.539062 417.039062 C 370.695312 406.964844 372.53125 394.054688 368.464844 382.390625 L 366.867188 377.8125 C 364.285156 383.15625 358.859375 386.878906 352.539062 386.878906 L 350.292969 386.878906 L 353.871094 410.546875 C 354.578125 415.238281 354.519531 419.96875 353.761719 424.597656 L 356.351562 424.597656 C 359.046875 422.425781 361.492188 419.921875 363.539062 417.039062 Z M 363.539062 417.039062 " fill-opacity="1" fill-rule="nonzero"/><path fill="#9ded02" d="M 262.59375 411.101562 L 254.378906 356.796875 L 147.40625 356.796875 C 126.339844 356.796875 109.261719 373.875 109.261719 394.941406 C 109.261719 406.921875 114.792969 417.597656 123.429688 424.59375 L 256.65625 424.59375 Z M 262.59375 411.101562 " fill-opacity="1" fill-rule="nonzero"/><g clip-path="url(#eb85d7dd2a)"><path fill="#9ded02" d="M 667.722656 476.921875 C 679.59375 476.921875 689.308594 467.210938 689.308594 455.335938 C 689.308594 443.464844 679.59375 433.753906 667.722656 433.753906 L 351.25 433.753906 C 351.019531 434.339844 350.804688 434.925781 350.550781 435.5 L 324.667969 494.304688 L 629.34375 494.304688 L 647.738281 587.175781 L 633.097656 587.175781 L 633.097656 617.691406 L 691.148438 617.691406 L 691.148438 587.175781 L 678.84375 587.175781 L 658.820312 486.082031 L 657.007812 476.925781 L 667.722656 476.925781 Z M 667.722656 476.921875 " fill-opacity="1" fill-rule="nonzero"/></g><g clip-path="url(#fbad19c351)"><path fill="#9ded02" d="M 252.628906 433.75 L 100.265625 433.75 C 88.390625 433.75 78.679688 443.464844 78.679688 455.335938 C 78.679688 467.207031 88.390625 476.917969 100.265625 476.917969 L 110.976562 476.917969 L 109.164062 486.074219 L 89.140625 587.175781 L 76.832031 587.175781 L 76.832031 617.691406 L 134.882812 617.691406 L 134.882812 587.175781 L 120.246094 587.175781 L 138.640625 494.304688 L 225.972656 494.304688 Z M 252.628906 433.75 " fill-opacity="1" fill-rule="nonzero"/></g><path fill="#9ded02" d="M 499.878906 254.878906 C 493.957031 261.222656 485.582031 264.855469 476.902344 264.859375 C 468.914062 264.859375 461.292969 261.851562 455.449219 256.398438 L 438.179688 240.261719 L 438.179688 317.644531 C 440.519531 317.003906 442.875 316.335938 445.25 315.636719 L 445.25 304.058594 C 445.25 295.253906 452.414062 288.09375 461.214844 288.09375 L 480.613281 288.09375 C 486.820312 288.09375 492.152344 291.691406 494.789062 296.875 C 499.414062 294.15625 503.566406 291.167969 507.257812 287.96875 L 575.640625 424.597656 L 629.21875 424.597656 C 628.804688 422.46875 628.125 420.359375 627.105469 418.328125 L 585.511719 335.21875 C 548.550781 329.253906 520.769531 296.578125 521.964844 258.179688 C 522.332031 246.289062 525.386719 235.15625 530.507812 225.320312 L 529.964844 224.230469 C 529.9375 224.179688 529.90625 224.132812 529.878906 224.085938 C 529.808594 223.804688 529.742188 223.515625 529.667969 223.238281 C 524.277344 204.167969 502.867188 193.582031 479.925781 193.230469 L 498.363281 210.453125 C 511.03125 222.285156 511.710938 242.214844 499.878906 254.878906 Z M 499.878906 254.878906 " fill-opacity="1" fill-rule="nonzero"/><g clip-path="url(#84f1031d6d)"><path fill="#9ded02" d="M 299.722656 217.78125 C 277.578125 217.160156 266.246094 220.261719 260.523438 227.289062 C 250.613281 235.550781 245.105469 248.605469 247.175781 262.292969 L 269.839844 412.066406 L 199.132812 572.707031 C 190.644531 591.988281 199.394531 614.5 218.675781 622.992188 C 223.679688 625.191406 228.894531 626.234375 234.023438 626.230469 C 248.691406 626.230469 262.675781 617.726562 268.957031 603.445312 L 344.125 432.671875 C 347.042969 426.054688 348.011719 418.746094 346.929688 411.597656 L 343.191406 386.878906 L 333.136719 386.878906 C 324.335938 386.878906 317.175781 379.71875 317.175781 370.914062 L 317.175781 304.054688 C 317.175781 295.253906 324.339844 288.089844 333.136719 288.089844 L 352.539062 288.089844 C 361.339844 288.089844 368.5 295.253906 368.5 304.054688 L 368.5 321.355469 L 375.308594 321.355469 L 375.308594 213.945312 C 370.03125 214.800781 364.730469 215.578125 359.402344 216.246094 C 339.285156 218.757812 318.964844 219.753906 299.722656 217.78125 Z M 299.722656 217.78125 " fill-opacity="1" fill-rule="nonzero"/></g><path fill="#9ded02" d="M 528.980469 258.394531 C 527.804688 296.304688 557.578125 327.984375 595.480469 329.15625 C 633.386719 330.332031 665.070312 300.5625 666.242188 262.65625 C 667.417969 224.753906 637.648438 193.070312 599.742188 191.894531 C 561.835938 190.714844 530.15625 220.492188 528.980469 258.394531 Z M 528.980469 258.394531 " fill-opacity="1" fill-rule="nonzero"/><path fill="#9ded02" d="M 452.265625 328.375 L 438.175781 328.375 L 438.175781 330.566406 C 438.175781 336.425781 436.535156 341.894531 433.734375 346.597656 L 452.265625 346.597656 L 452.265625 370.917969 C 452.265625 375.839844 456.289062 379.863281 461.210938 379.863281 L 480.609375 379.863281 C 485.527344 379.863281 489.558594 375.839844 489.558594 370.917969 L 489.558594 304.054688 C 489.558594 299.132812 485.53125 295.109375 480.609375 295.109375 L 461.210938 295.109375 C 456.292969 295.109375 452.265625 299.132812 452.265625 304.054688 Z M 452.265625 328.375 " fill-opacity="1" fill-rule="nonzero"/><path fill="#9ded02" d="M 352.539062 379.859375 C 357.457031 379.859375 361.484375 375.835938 361.484375 370.914062 L 361.484375 346.597656 L 379.757812 346.597656 C 376.953125 341.894531 375.3125 336.425781 375.3125 330.566406 L 375.3125 328.371094 L 361.484375 328.371094 L 361.484375 304.050781 C 361.484375 299.132812 357.460938 295.105469 352.539062 295.105469 L 333.140625 295.105469 C 328.21875 295.105469 324.195312 299.132812 324.195312 304.050781 L 324.195312 370.914062 C 324.195312 375.832031 328.21875 379.855469 333.140625 379.855469 L 352.539062 379.855469 Z M 352.539062 379.859375 " fill-opacity="1" fill-rule="nonzero"/><path fill="#9ded02" d="M 382.328125 330.566406 C 382.328125 344.050781 393.261719 354.980469 406.742188 354.980469 C 420.226562 354.980469 431.15625 344.050781 431.15625 330.566406 L 431.15625 224.101562 L 460.238281 251.265625 C 470.09375 260.472656 485.542969 259.941406 494.75 250.089844 C 503.953125 240.234375 503.425781 224.785156 493.570312 215.582031 L 423.410156 150.046875 C 416.304688 143.410156 405.945312 141.617188 397.015625 145.496094 C 388.101562 149.371094 382.328125 158.164062 382.328125 167.886719 Z M 382.328125 330.566406 " fill-opacity="1" fill-rule="nonzero"/></svg>