<svg xmlns="http://www.w3.org/2000/svg" xmlns:xlink="http://www.w3.org/1999/xlink" width="1024" zoomAndPan="magnify" viewBox="0 0 768 775.92" height="1024" preserveAspectRatio="xMidYMid meet" version="1.0"><defs><clipPath id="86fe0fddd9"><path d="M 223.121094 565 L 544.835938 565 L 544.835938 690.980469 L 223.121094 690.980469 Z M 223.121094 565 " clip-rule="nonzero"/></clipPath></defs><path fill="#9ded02" d="M 299.769531 526.085938 L 299.769531 470.78125 C 296.945312 472.371094 293.773438 473.269531 290.476562 473.386719 L 290.476562 534.050781 C 292.953125 530.765625 296.121094 528.039062 299.769531 526.085938 Z M 299.769531 526.085938 " fill-opacity="1" fill-rule="nonzero"/><path fill="#9ded02" d="M 295.390625 365.273438 C 296.839844 364.710938 298.300781 364.183594 299.773438 363.691406 L 299.773438 125.171875 C 299.773438 115.894531 304.6875 107.769531 312.035156 103.191406 C 314.886719 110.035156 321.644531 114.875 329.488281 114.875 L 363.707031 114.875 L 363.707031 312.921875 C 369.023438 310.261719 374.90625 308.578125 381.121094 308.09375 L 381.121094 277.703125 C 378.378906 276.332031 376.472656 273.523438 376.472656 270.246094 C 376.472656 266.972656 378.375 264.164062 381.121094 262.792969 L 381.121094 115.578125 L 388.554688 115.578125 L 388.554688 262.789062 C 391.300781 264.164062 393.203125 266.972656 393.203125 270.246094 C 393.203125 273.523438 391.300781 276.332031 388.554688 277.707031 L 388.554688 308.09375 C 394.773438 308.578125 400.652344 310.261719 405.972656 312.921875 L 405.972656 114.875 L 440.191406 114.875 C 448.035156 114.875 454.796875 110.035156 457.644531 103.191406 C 464.992188 107.769531 469.910156 115.894531 469.910156 125.171875 L 469.910156 363.691406 C 471.378906 364.183594 472.839844 364.710938 474.292969 365.273438 L 477.855469 366.65625 C 478.292969 366.367188 478.742188 366.097656 479.203125 365.839844 L 479.203125 125.171875 C 479.203125 111.085938 470.867188 98.941406 458.882812 93.320312 C 457.578125 84.171875 449.683594 77.074219 440.191406 77.074219 L 329.488281 77.074219 C 319.992188 77.074219 312.097656 84.171875 310.796875 93.320312 C 298.816406 98.941406 290.476562 111.085938 290.476562 125.171875 L 290.476562 365.839844 C 290.9375 366.09375 291.390625 366.367188 291.828125 366.65625 Z M 444.285156 95.972656 C 444.285156 100.300781 440.78125 103.804688 436.453125 103.804688 C 432.128906 103.804688 428.625 100.300781 428.625 95.972656 C 428.625 91.648438 432.128906 88.144531 436.453125 88.144531 C 440.78125 88.144531 444.285156 91.648438 444.285156 95.972656 Z M 333.222656 88.144531 C 337.546875 88.144531 341.054688 91.648438 341.054688 95.976562 C 341.054688 100.300781 337.546875 103.804688 333.222656 103.804688 C 328.898438 103.804688 325.390625 100.300781 325.390625 95.976562 C 325.390625 91.648438 328.898438 88.144531 333.222656 88.144531 Z M 333.222656 88.144531 " fill-opacity="1" fill-rule="nonzero"/><path fill="#9ded02" d="M 469.90625 526.085938 C 473.558594 528.035156 476.722656 530.761719 479.199219 534.046875 L 479.199219 473.386719 C 475.902344 473.269531 472.730469 472.371094 469.90625 470.777344 Z M 469.90625 526.085938 " fill-opacity="1" fill-rule="nonzero"/><path fill="#9ded02" d="M 260.335938 386.390625 C 260.207031 385.425781 260.171875 384.472656 260.183594 383.523438 L 243.9375 389.828125 L 246.589844 396.660156 L 247.300781 398.492188 L 261.222656 393.089844 Z M 260.335938 386.390625 " fill-opacity="1" fill-rule="nonzero"/><path fill="#9ded02" d="M 509.5 383.523438 C 509.503906 384.46875 509.472656 385.425781 509.347656 386.390625 L 508.460938 393.089844 L 522.378906 398.492188 L 523.089844 396.660156 L 525.742188 389.824219 Z M 509.5 383.523438 " fill-opacity="1" fill-rule="nonzero"/><path fill="#9ded02" d="M 300.207031 377.964844 L 300.296875 377.929688 C 310.363281 374.019531 320.941406 372.042969 331.742188 372.042969 L 339.320312 372.042969 L 339.320312 390.859375 C 341.328125 390.207031 343.160156 389.800781 344.898438 389.5625 L 344.898438 380.800781 C 341.453125 375.421875 339.0625 369.308594 338.027344 362.746094 L 331.742188 362.746094 C 319.789062 362.746094 308.078125 364.941406 296.9375 369.261719 L 295.554688 369.800781 C 297.683594 372.082031 299.292969 374.863281 300.207031 377.964844 Z M 300.207031 377.964844 " fill-opacity="1" fill-rule="nonzero"/><path fill="#9ded02" d="M 344.894531 664.328125 L 344.894531 593.65625 L 339.320312 593.65625 L 339.320312 664.765625 Z M 344.894531 664.328125 " fill-opacity="1" fill-rule="nonzero"/><path fill="#9ded02" d="M 339.320312 119.101562 L 339.320312 342.152344 C 340.59375 337.761719 342.484375 333.636719 344.894531 329.867188 L 344.894531 119.101562 Z M 339.320312 119.101562 " fill-opacity="1" fill-rule="nonzero"/><path fill="#9ded02" d="M 424.78125 119.101562 L 424.78125 329.867188 C 427.191406 333.632812 429.085938 337.761719 430.359375 342.152344 L 430.359375 119.101562 Z M 424.78125 119.101562 " fill-opacity="1" fill-rule="nonzero"/><path fill="#9ded02" d="M 424.78125 593.65625 L 424.78125 664.460938 L 430.359375 664.898438 L 430.359375 593.65625 Z M 424.78125 593.65625 " fill-opacity="1" fill-rule="nonzero"/><path fill="#9ded02" d="M 424.78125 380.800781 L 424.78125 389.5625 C 426.519531 389.796875 428.351562 390.203125 430.359375 390.859375 L 430.359375 372.042969 L 437.941406 372.042969 C 448.738281 372.042969 459.316406 374.019531 469.382812 377.929688 L 469.476562 377.964844 C 470.386719 374.863281 471.996094 372.082031 474.125 369.796875 L 472.742188 369.261719 C 461.601562 364.9375 449.890625 362.746094 437.9375 362.746094 L 431.652344 362.746094 C 430.617188 369.308594 428.222656 375.421875 424.78125 380.800781 Z M 424.78125 380.800781 " fill-opacity="1" fill-rule="nonzero"/><g clip-path="url(#86fe0fddd9)"><path fill="#9ded02" d="M 487.398438 683.886719 C 485.289062 684.375 483.125 684.625 480.96875 684.625 L 480.964844 684.625 C 472.03125 684.625 463.972656 680.511719 458.746094 673.871094 L 395.292969 669.375 L 395.292969 586.953125 L 432.695312 586.953125 C 433.734375 586.953125 434.738281 586.816406 435.710938 586.585938 L 433.113281 575.410156 L 388.246094 566.707031 C 387.09375 566.484375 385.957031 566.1875 384.839844 565.824219 C 383.722656 566.1875 382.582031 566.484375 381.433594 566.707031 L 336.566406 575.410156 L 333.902344 586.875 C 334.367188 586.921875 334.835938 586.953125 335.3125 586.953125 L 372.714844 586.953125 L 372.714844 669.375 L 311.035156 673.75 C 305.8125 680.460938 297.703125 684.628906 288.710938 684.628906 C 286.558594 684.628906 284.398438 684.378906 282.28125 683.886719 C 277.234375 682.714844 272.730469 680.222656 269.089844 676.722656 L 223.121094 679.980469 L 223.121094 690.878906 L 544.886719 690.878906 L 544.886719 679.980469 L 500.472656 676.832031 C 496.851562 680.273438 492.390625 682.726562 487.398438 683.886719 Z M 487.398438 683.886719 " fill-opacity="1" fill-rule="nonzero"/></g><path fill="#9ded02" d="M 433.304688 95.972656 C 433.304688 97.714844 434.714844 99.125 436.457031 99.125 C 438.195312 99.125 439.605469 97.714844 439.605469 95.972656 C 439.605469 94.234375 438.195312 92.824219 436.457031 92.824219 C 434.714844 92.824219 433.304688 94.234375 433.304688 95.972656 Z M 433.304688 95.972656 " fill-opacity="1" fill-rule="nonzero"/><path fill="#9ded02" d="M 330.070312 95.972656 C 330.070312 97.714844 331.484375 99.125 333.222656 99.125 C 334.960938 99.125 336.375 97.714844 336.375 95.972656 C 336.375 94.234375 334.960938 92.824219 333.222656 92.824219 C 331.484375 92.824219 330.070312 94.234375 330.070312 95.972656 Z M 330.070312 95.972656 " fill-opacity="1" fill-rule="nonzero"/><path fill="#9ded02" d="M 360.339844 389.21875 L 409.34375 389.21875 C 419.832031 381.621094 426.664062 369.277344 426.664062 355.335938 C 426.664062 332.234375 407.941406 313.511719 384.839844 313.511719 C 361.742188 313.511719 343.019531 332.234375 343.019531 355.335938 C 343.015625 369.277344 349.847656 381.621094 360.339844 389.21875 Z M 360.339844 389.21875 " fill-opacity="1" fill-rule="nonzero"/><path fill="#9ded02" d="M 283.542969 678.453125 C 285.277344 678.855469 287.007812 679.050781 288.710938 679.050781 C 299.0625 679.050781 308.429688 671.941406 310.871094 661.421875 L 331.949219 570.625 L 380.371094 561.230469 C 381.933594 560.929688 383.429688 560.46875 384.839844 559.878906 C 386.253906 560.46875 387.746094 560.925781 389.308594 561.230469 L 437.726562 570.625 L 458.804688 661.421875 C 461.246094 671.941406 470.613281 679.050781 480.964844 679.050781 C 482.671875 679.050781 484.40625 678.855469 486.136719 678.453125 C 498.386719 675.609375 506.007812 663.375 503.164062 651.125 L 478.746094 545.9375 C 476.714844 537.183594 469.722656 530.445312 460.902344 528.734375 L 435.109375 523.730469 L 435.109375 434.394531 C 445.597656 442.308594 458.90625 453.640625 469.738281 463.8125 C 472.539062 466.449219 476.195312 467.84375 479.917969 467.84375 C 481.59375 467.84375 483.285156 467.5625 484.914062 466.980469 C 490.167969 465.109375 493.929688 460.453125 494.660156 454.925781 L 503.816406 385.660156 C 504.894531 377.515625 499.167969 370.046875 491.027344 368.96875 C 482.867188 367.890625 475.414062 373.621094 474.335938 381.761719 L 468.84375 423.308594 C 467.496094 422.171875 466.117188 421.023438 464.71875 419.871094 C 441.46875 400.742188 430.6875 395.644531 422.808594 394.960938 C 422.132812 394.863281 421.449219 394.796875 420.746094 394.796875 L 348.933594 394.796875 C 348.226562 394.796875 347.542969 394.863281 346.867188 394.960938 C 338.988281 395.644531 328.207031 400.746094 304.960938 419.871094 C 303.5625 421.023438 302.183594 422.171875 300.835938 423.308594 L 295.34375 381.761719 C 294.269531 373.621094 286.8125 367.890625 278.65625 368.96875 C 270.511719 370.046875 264.785156 377.519531 265.863281 385.660156 L 275.019531 454.925781 C 275.75 460.453125 279.511719 465.109375 284.765625 466.980469 C 286.398438 467.5625 288.085938 467.84375 289.761719 467.84375 C 293.484375 467.84375 297.140625 466.449219 299.941406 463.8125 C 310.777344 453.640625 324.082031 442.3125 334.570312 434.394531 L 334.570312 523.730469 L 308.777344 528.734375 C 299.957031 530.445312 292.964844 537.183594 290.933594 545.9375 L 266.511719 651.125 C 263.667969 663.375 271.292969 675.609375 283.542969 678.453125 Z M 283.542969 678.453125 " fill-opacity="1" fill-rule="nonzero"/></svg>