<svg xmlns="http://www.w3.org/2000/svg" xmlns:xlink="http://www.w3.org/1999/xlink" width="1024" zoomAndPan="magnify" viewBox="0 0 768 775.92" height="1024" preserveAspectRatio="xMidYMid meet" version="1.0"><defs><clipPath id="70013c6c18"><path d="M 173.589844 581 L 284 581 L 284 687 L 173.589844 687 Z M 173.589844 581 " clip-rule="nonzero"/></clipPath><clipPath id="2215808d5d"><path d="M 182 76.792969 L 594.296875 76.792969 L 594.296875 690.980469 L 182 690.980469 Z M 182 76.792969 " clip-rule="nonzero"/></clipPath></defs><g clip-path="url(#70013c6c18)"><path fill="#9ded02" d="M 191.023438 639.835938 C 191.023438 628.128906 200.546875 618.605469 212.257812 618.605469 L 276.042969 618.605469 L 283.496094 588.597656 L 230.21875 588.597656 C 229.222656 588.597656 228.210938 588.527344 227.054688 588.378906 C 225.675781 588.441406 224.3125 588.464844 222.960938 588.464844 C 222.492188 588.464844 222.023438 588.464844 221.558594 588.457031 C 213.101562 588.351562 205.710938 587.84375 200.953125 582.734375 C 200.511719 582.265625 200.109375 581.753906 199.726562 581.214844 L 190.46875 581.214844 C 183.6875 581.214844 178.136719 586.765625 178.136719 593.546875 C 178.136719 600.328125 183.6875 605.875 190.46875 605.875 L 193.785156 605.875 C 181.761719 612.441406 173.589844 625.203125 173.589844 639.835938 L 173.589844 686.53125 L 191.023438 686.53125 Z M 191.023438 639.835938 " fill-opacity="1" fill-rule="nonzero"/></g><path fill="#9ded02" d="M 311.871094 313.703125 C 312.792969 313.703125 313.730469 313.460938 314.578125 312.945312 C 317.046875 311.449219 317.835938 308.230469 316.339844 305.761719 L 310.875 296.746094 L 307.761719 311.640625 C 308.777344 312.953125 310.289062 313.703125 311.871094 313.703125 Z M 311.871094 313.703125 " fill-opacity="1" fill-rule="nonzero"/><path fill="#9ded02" d="M 417.324219 149.933594 C 415.195312 149.933594 413.46875 151.660156 413.46875 153.785156 C 413.46875 155.914062 415.195312 157.640625 417.324219 157.640625 C 419.449219 157.640625 421.175781 155.914062 421.175781 153.785156 C 421.175781 151.660156 419.449219 149.933594 417.324219 149.933594 Z M 417.324219 149.933594 " fill-opacity="1" fill-rule="nonzero"/><path fill="#9ded02" d="M 541.511719 149.933594 C 539.382812 149.933594 537.660156 151.660156 537.660156 153.785156 C 537.660156 155.914062 539.382812 157.640625 541.511719 157.640625 C 543.640625 157.640625 545.367188 155.914062 545.367188 153.785156 C 545.367188 151.660156 543.640625 149.933594 541.511719 149.933594 Z M 541.511719 149.933594 " fill-opacity="1" fill-rule="nonzero"/><g clip-path="url(#2215808d5d)"><path fill="#9ded02" d="M 199.949219 558.210938 C 198.515625 582.535156 205.636719 584.246094 221.613281 584.449219 C 223.449219 584.472656 225.328125 584.449219 227.226562 584.359375 C 228.210938 584.492188 229.203125 584.585938 230.222656 584.585938 L 288.625 584.585938 L 268.917969 663.898438 C 266.015625 675.578125 273.132812 687.398438 284.8125 690.300781 C 286.574219 690.742188 288.34375 690.949219 290.082031 690.949219 C 299.855469 690.949219 308.75 684.324219 311.210938 674.410156 L 337.636719 568.050781 C 339.253906 561.546875 337.78125 554.65625 333.652344 549.375 C 329.867188 544.53125 324.222656 541.566406 318.140625 541.101562 C 313.625 549.453125 304.789062 555.136719 294.644531 555.136719 C 284.46875 555.136719 275.609375 549.40625 271.105469 541.007812 L 263.53125 541.007812 C 265.296875 519.097656 264.269531 501.984375 259.925781 483.066406 C 258.042969 474.867188 255.546875 466.335938 252.371094 456.921875 C 251.277344 453.738281 249.984375 450.832031 248.53125 448.179688 L 236.921875 463.53125 C 233.5 468.0625 228.273438 470.65625 222.589844 470.65625 C 218.65625 470.65625 214.917969 469.402344 211.769531 467.023438 C 203.875 461.054688 202.304688 449.773438 208.277344 441.875 L 257.460938 376.828125 L 276.234375 286.964844 C 277.964844 278.6875 285.347656 272.679688 293.792969 272.679688 C 294.671875 272.679688 295.550781 272.769531 296.425781 272.898438 L 294.988281 270.523438 C 294.632812 269.9375 294.167969 269.441406 293.628906 269.042969 L 298.046875 229.222656 C 298.542969 229.140625 299.035156 229.003906 299.519531 228.8125 C 303.367188 227.300781 305.261719 222.953125 303.746094 219.105469 C 302.972656 217.132812 301.449219 215.6875 299.632812 214.9375 L 307.042969 148.183594 C 312.425781 148.398438 317.753906 145.667969 320.550781 140.667969 L 327.882812 127.5625 L 408.605469 169.039062 L 408.605469 601.175781 L 333.539062 601.175781 L 329.210938 618.605469 L 408.605469 618.605469 L 408.605469 669.101562 L 353.886719 669.101562 L 353.886719 686.535156 L 594.34375 686.535156 L 594.34375 669.101562 L 550.230469 669.101562 L 550.230469 171.347656 L 569.039062 171.347656 L 569.039062 136.484375 L 421.539062 136.484375 L 305.722656 76.976562 L 289.789062 107.984375 L 301.621094 114.066406 L 294.800781 126.261719 C 290.839844 133.34375 293.390625 142.378906 300.472656 146.339844 C 300.945312 146.601562 301.421875 146.832031 301.90625 147.039062 L 294.390625 214.78125 C 294.273438 214.820312 294.152344 214.835938 294.035156 214.878906 C 290.191406 216.394531 288.296875 220.742188 289.8125 224.585938 C 290.433594 226.171875 291.550781 227.394531 292.898438 228.214844 L 288.429688 268.453125 C 288.171875 268.566406 287.917969 268.683594 287.679688 268.839844 L 281.355469 272.917969 C 274.308594 271.796875 267.585938 276.167969 265.730469 283 L 256.097656 289.214844 C 253.671875 290.78125 252.972656 294.019531 254.539062 296.445312 C 256.105469 298.871094 259.339844 299.570312 261.765625 298.003906 L 262.820312 297.324219 L 251.394531 354.644531 C 244.207031 346.382812 233.621094 341.15625 221.808594 341.15625 C 200.148438 341.15625 182.585938 358.714844 182.585938 380.378906 C 182.585938 398.316406 194.628906 413.425781 211.066406 418.101562 L 200.039062 430.496094 C 190.308594 437.992188 186.601562 454.570312 190.71875 468.847656 C 192.664062 478.792969 195.21875 490.515625 197.296875 502.925781 C 200.320312 520.957031 202.328125 540.460938 199.949219 558.210938 Z M 462.460938 616.859375 L 466.941406 616.859375 L 470.75 608.839844 L 490.507812 608.839844 L 494.316406 616.859375 L 498.792969 616.859375 Z M 462.460938 600.582031 L 462.460938 594.042969 L 498.792969 594.042969 L 498.792969 600.582031 Z M 462.460938 585.785156 L 462.460938 579.246094 L 498.792969 579.246094 L 498.792969 585.785156 Z M 462.460938 570.988281 L 462.460938 564.445312 L 498.792969 564.445312 L 498.792969 570.988281 Z M 462.460938 556.191406 L 462.460938 549.648438 L 498.792969 549.648438 L 498.792969 556.191406 Z M 462.460938 541.390625 L 462.460938 534.851562 L 498.792969 534.851562 L 498.792969 541.390625 Z M 462.460938 526.597656 L 462.460938 171.347656 L 498.792969 171.347656 L 498.792969 526.597656 Z M 457.839844 171.347656 L 457.839844 526.597656 L 442.09375 526.597656 L 442.09375 534.855469 L 457.839844 534.855469 L 457.839844 541.394531 L 442.09375 541.394531 L 442.09375 549.652344 L 457.839844 549.652344 L 457.839844 556.191406 L 442.09375 556.191406 L 442.09375 564.449219 L 457.839844 564.449219 L 457.839844 570.992188 L 442.09375 570.992188 L 442.09375 579.25 L 457.839844 579.25 L 457.839844 585.789062 L 442.09375 585.789062 L 442.09375 594.046875 L 457.839844 594.046875 L 457.839844 600.585938 L 442.09375 600.585938 L 442.09375 608.84375 L 449.550781 608.84375 L 453.359375 616.863281 L 457.835938 616.863281 L 426.035156 616.863281 L 426.035156 171.347656 Z M 426.035156 669.097656 L 426.035156 634.289062 L 532.792969 634.289062 L 532.792969 669.097656 Z M 532.796875 616.859375 L 503.417969 616.859375 L 507.898438 616.859375 L 511.707031 608.839844 L 516.742188 608.839844 L 516.742188 600.582031 L 503.417969 600.582031 L 503.417969 594.039062 L 516.742188 594.039062 L 516.742188 585.785156 L 503.417969 585.785156 L 503.417969 579.242188 L 516.742188 579.242188 L 516.742188 570.984375 L 503.417969 570.984375 L 503.417969 564.445312 L 516.742188 564.445312 L 516.742188 556.1875 L 503.417969 556.1875 L 503.417969 549.644531 L 516.742188 549.644531 L 516.742188 541.390625 L 503.417969 541.390625 L 503.417969 534.847656 L 516.742188 534.847656 L 516.742188 526.589844 L 503.417969 526.589844 L 503.417969 171.347656 L 532.796875 171.347656 Z M 551.089844 153.785156 C 551.089844 159.078125 546.800781 163.367188 541.511719 163.367188 C 536.21875 163.367188 531.933594 159.078125 531.933594 153.785156 C 531.933594 148.496094 536.21875 144.207031 541.511719 144.207031 C 546.800781 144.207031 551.089844 148.496094 551.089844 153.785156 Z M 417.324219 144.207031 C 422.613281 144.207031 426.902344 148.496094 426.902344 153.785156 C 426.902344 159.078125 422.613281 163.367188 417.324219 163.367188 C 412.03125 163.367188 407.742188 159.078125 407.742188 153.785156 C 407.742188 148.496094 412.03125 144.207031 417.324219 144.207031 Z M 302.332031 131.738281 C 303.816406 129.082031 307.171875 128.136719 309.824219 129.617188 C 312.480469 131.101562 313.425781 134.457031 311.945312 137.109375 C 311.082031 138.652344 309.589844 139.59375 307.96875 139.84375 L 308.28125 137.03125 C 308.441406 135.59375 307.40625 134.300781 305.972656 134.140625 C 304.535156 133.980469 303.246094 135.019531 303.085938 136.453125 L 302.921875 137.9375 C 301.503906 136.238281 301.191406 133.785156 302.332031 131.738281 Z M 302.332031 131.738281 " fill-opacity="1" fill-rule="nonzero"/></g><path fill="#9ded02" d="M 307.460938 293.488281 C 309.035156 285.953125 304.203125 278.5625 296.664062 276.988281 C 289.125 275.410156 281.734375 280.246094 280.160156 287.785156 L 261.203125 378.527344 L 211.476562 444.292969 C 206.835938 450.433594 208.050781 459.183594 214.191406 463.828125 C 216.710938 465.730469 219.664062 466.648438 222.59375 466.648438 C 226.8125 466.648438 230.984375 464.738281 233.726562 461.113281 L 285.339844 392.851562 C 286.578125 391.210938 287.441406 389.3125 287.863281 387.292969 Z M 307.460938 293.488281 " fill-opacity="1" fill-rule="nonzero"/><path fill="#9ded02" d="M 316.117188 528.433594 C 316.117188 516.578125 306.503906 506.964844 294.648438 506.964844 C 282.789062 506.964844 273.179688 516.578125 273.179688 528.433594 C 273.179688 540.292969 282.789062 549.90625 294.648438 549.90625 C 306.503906 549.90625 316.117188 540.292969 316.117188 528.433594 Z M 285.179688 528.433594 C 285.179688 523.207031 289.417969 518.964844 294.648438 518.964844 C 299.878906 518.964844 304.117188 523.207031 304.117188 528.433594 C 304.117188 533.664062 299.878906 537.902344 294.648438 537.902344 C 289.417969 537.902344 285.179688 533.664062 285.179688 528.433594 Z M 285.179688 528.433594 " fill-opacity="1" fill-rule="nonzero"/></svg>