<svg xmlns="http://www.w3.org/2000/svg" xmlns:xlink="http://www.w3.org/1999/xlink" width="1024" zoomAndPan="magnify" viewBox="0 0 768 775.92" height="1024" preserveAspectRatio="xMidYMid meet" version="1.0"><defs><clipPath id="c9038114f6"><path d="M 76.832031 414 L 291 414 L 291 571 L 76.832031 571 Z M 76.832031 414 " clip-rule="nonzero"/></clipPath></defs><g clip-path="url(#c9038114f6)"><path fill="#9ded02" d="M 290.765625 542.601562 L 197.511719 542.601562 L 197.511719 452.933594 L 259.664062 452.933594 C 270.335938 452.933594 270.335938 414.136719 259.664062 414.136719 L 107.933594 414.136719 C 97.261719 414.136719 97.261719 452.933594 107.933594 452.933594 L 170.085938 452.933594 L 170.085938 542.601562 L 76.832031 542.601562 L 76.832031 570.027344 L 290.765625 570.027344 Z M 290.765625 542.601562 " fill-opacity="1" fill-rule="nonzero"/></g><path fill="#9ded02" d="M 81.429688 574.269531 L 97.019531 574.269531 L 97.019531 582.238281 L 81.429688 582.238281 Z M 81.429688 574.269531 " fill-opacity="1" fill-rule="nonzero"/><path fill="#9ded02" d="M 270.578125 574.269531 L 286.167969 574.269531 L 286.167969 582.238281 L 270.578125 582.238281 Z M 270.578125 574.269531 " fill-opacity="1" fill-rule="nonzero"/><path fill="#9ded02" d="M 350.859375 229.128906 C 352.074219 230.742188 353.210938 232.410156 354.265625 234.132812 C 355.316406 235.859375 356.285156 237.632812 357.164062 239.449219 C 358.042969 241.269531 358.832031 243.128906 359.527344 245.027344 C 360.222656 246.921875 360.824219 248.851562 361.332031 250.804688 C 361.839844 252.761719 362.25 254.738281 362.5625 256.734375 C 362.878906 258.730469 363.09375 260.738281 363.207031 262.757812 C 363.324219 264.773438 363.339844 266.792969 363.257812 268.8125 C 363.175781 270.832031 362.996094 272.839844 362.714844 274.84375 C 362.4375 276.84375 362.058594 278.828125 361.582031 280.792969 C 361.109375 282.757812 360.539062 284.691406 359.875 286.601562 C 359.210938 288.511719 358.453125 290.382812 357.605469 292.214844 C 356.753906 294.050781 355.820312 295.835938 354.792969 297.578125 C 353.769531 299.320312 352.660156 301.007812 351.472656 302.640625 C 350.28125 304.277344 349.015625 305.847656 347.667969 307.355469 C 346.324219 308.863281 344.910156 310.304688 343.421875 311.671875 C 341.9375 313.042969 340.386719 314.335938 338.773438 315.554688 C 337.160156 316.769531 335.492188 317.90625 333.769531 318.960938 C 332.042969 320.011719 330.269531 320.980469 328.449219 321.859375 C 326.632812 322.738281 324.773438 323.527344 322.875 324.222656 C 320.980469 324.917969 319.050781 325.523438 317.097656 326.027344 C 315.140625 326.535156 313.164062 326.945312 311.167969 327.261719 C 309.171875 327.574219 307.164062 327.789062 305.144531 327.902344 C 303.128906 328.019531 301.109375 328.035156 299.089844 327.953125 C 297.070312 327.871094 295.058594 327.691406 293.058594 327.410156 C 291.058594 327.132812 289.074219 326.753906 287.109375 326.28125 C 285.144531 325.804688 283.207031 325.234375 281.300781 324.570312 C 279.390625 323.90625 277.519531 323.148438 275.6875 322.300781 C 273.851562 321.449219 272.066406 320.515625 270.324219 319.488281 C 268.582031 318.464844 266.894531 317.359375 265.257812 316.167969 C 263.625 314.976562 262.054688 313.710938 260.546875 312.363281 C 259.039062 311.019531 257.597656 309.605469 256.230469 308.117188 C 254.859375 306.632812 253.566406 305.082031 252.347656 303.46875 C 251.128906 301.855469 249.996094 300.1875 248.941406 298.464844 C 247.886719 296.738281 246.921875 294.964844 246.042969 293.148438 C 245.164062 291.328125 244.375 289.46875 243.679688 287.570312 C 242.980469 285.675781 242.378906 283.746094 241.871094 281.792969 C 241.363281 279.835938 240.953125 277.859375 240.640625 275.863281 C 240.328125 273.867188 240.113281 271.859375 239.996094 269.839844 C 239.882812 267.824219 239.863281 265.804688 239.945312 263.785156 C 240.03125 261.765625 240.210938 259.757812 240.492188 257.753906 C 240.769531 255.753906 241.148438 253.769531 241.621094 251.804688 C 242.097656 249.839844 242.667969 247.90625 243.332031 245.996094 C 243.996094 244.085938 244.753906 242.214844 245.601562 240.382812 C 246.449219 238.546875 247.386719 236.761719 248.410156 235.019531 C 249.4375 233.277344 250.542969 231.589844 251.734375 229.957031 C 252.925781 228.320312 254.191406 226.75 255.535156 225.242188 C 256.882812 223.734375 258.296875 222.292969 259.78125 220.925781 C 261.269531 219.554688 262.820312 218.261719 264.429688 217.042969 C 266.042969 215.828125 267.714844 214.691406 269.4375 213.636719 C 271.164062 212.585938 272.933594 211.617188 274.753906 210.738281 C 276.574219 209.859375 278.433594 209.070312 280.328125 208.375 C 282.226562 207.679688 284.152344 207.074219 286.109375 206.570312 C 288.066406 206.0625 290.042969 205.652344 292.039062 205.335938 C 294.035156 205.023438 296.042969 204.808594 298.0625 204.695312 C 300.078125 204.578125 302.097656 204.5625 304.117188 204.644531 C 306.136719 204.726562 308.144531 204.90625 310.148438 205.1875 C 312.148438 205.464844 314.132812 205.84375 316.097656 206.316406 C 318.0625 206.792969 319.996094 207.363281 321.90625 208.027344 C 323.8125 208.691406 325.683594 209.449219 327.519531 210.296875 C 329.351562 211.148438 331.140625 212.082031 332.882812 213.109375 C 334.625 214.132812 336.3125 215.238281 337.945312 216.429688 C 339.578125 217.621094 341.152344 218.886719 342.660156 220.234375 C 344.167969 221.578125 345.609375 222.992188 346.976562 224.480469 C 348.347656 225.964844 349.640625 227.515625 350.859375 229.128906 Z M 350.859375 229.128906 " fill-opacity="1" fill-rule="nonzero"/><path fill="#9ded02" d="M 298.308594 380.683594 C 303.445312 375.160156 310.433594 371.96875 317.972656 371.699219 C 318.304688 371.6875 318.617188 371.683594 318.9375 371.683594 C 334.246094 371.683594 346.667969 383.648438 347.21875 398.921875 L 347.941406 419.117188 C 351.101562 407.664062 356.199219 397.015625 362.867188 387.535156 C 362.558594 386.828125 362.242188 386.085938 361.9375 385.390625 C 352.882812 358.464844 325.835938 337.449219 303.261719 345.964844 C 280.683594 354.476562 260.003906 384.238281 271.484375 425.121094 C 278.1875 448.464844 285.101562 467.59375 293.773438 485.316406 L 290.75 400.945312 C 290.480469 393.402344 293.164062 386.207031 298.308594 380.683594 Z M 298.308594 380.683594 " fill-opacity="1" fill-rule="nonzero"/><path fill="#9ded02" d="M 381.53125 525.324219 L 337.507812 550.210938 C 340 553.160156 342.578125 556.15625 345.269531 559.222656 C 374.582031 587.863281 399.984375 579.222656 419.761719 566.449219 C 420.734375 565.945312 421.691406 565.398438 422.625 564.792969 L 447.324219 548.765625 C 447.117188 548.765625 446.910156 548.78125 446.699219 548.78125 C 421.964844 548.777344 399.253906 539.96875 381.53125 525.324219 Z M 381.53125 525.324219 " fill-opacity="1" fill-rule="nonzero"/><path fill="#9ded02" d="M 679.996094 568.328125 C 691.113281 553.003906 687.699219 531.566406 672.371094 520.449219 L 547.863281 430.148438 C 548.703125 435.417969 549.152344 440.816406 549.152344 446.320312 C 549.152344 467.363281 542.769531 486.9375 531.847656 503.226562 L 632.117188 575.949219 C 638.199219 580.359375 645.238281 582.484375 652.21875 582.484375 C 662.824219 582.484375 673.292969 577.578125 679.996094 568.328125 Z M 679.996094 568.328125 " fill-opacity="1" fill-rule="nonzero"/><path fill="#9ded02" d="M 351.667969 484.554688 L 344.121094 488.820312 L 340.910156 399.144531 C 340.476562 387.035156 330.222656 377.605469 318.199219 378.003906 C 306.089844 378.4375 296.625 388.609375 297.058594 400.71875 L 301.5625 526.472656 C 301.839844 534.128906 306.085938 541.089844 312.773438 544.832031 C 316.105469 546.695312 319.796875 547.625 323.488281 547.625 C 327.210938 547.625 330.9375 546.679688 334.285156 544.785156 L 376.550781 520.898438 C 365.824219 510.800781 357.273438 498.425781 351.667969 484.554688 Z M 351.667969 484.554688 " fill-opacity="1" fill-rule="nonzero"/><path fill="#9ded02" d="M 446.699219 352.097656 C 394.660156 352.097656 352.46875 394.285156 352.46875 446.324219 C 352.46875 498.363281 394.660156 540.550781 446.699219 540.550781 C 498.738281 540.550781 540.925781 498.363281 540.925781 446.324219 C 540.925781 394.285156 498.738281 352.097656 446.699219 352.097656 Z M 402.355469 446.324219 C 402.355469 421.832031 422.210938 401.984375 446.699219 401.984375 C 471.1875 401.984375 491.039062 421.835938 491.039062 446.324219 C 491.039062 470.816406 471.1875 490.664062 446.699219 490.664062 C 422.210938 490.664062 402.355469 470.8125 402.355469 446.324219 Z M 402.355469 446.324219 " fill-opacity="1" fill-rule="nonzero"/><path fill="#9ded02" d="M 462.617188 430.402344 C 463.136719 430.925781 463.632812 431.46875 464.101562 432.039062 C 464.570312 432.609375 465.007812 433.203125 465.417969 433.816406 C 465.828125 434.429688 466.207031 435.058594 466.554688 435.710938 C 466.902344 436.359375 467.214844 437.027344 467.5 437.707031 C 467.78125 438.390625 468.027344 439.082031 468.242188 439.789062 C 468.457031 440.496094 468.636719 441.210938 468.78125 441.933594 C 468.925781 442.65625 469.03125 443.382812 469.105469 444.117188 C 469.175781 444.851562 469.210938 445.589844 469.210938 446.324219 C 469.210938 447.0625 469.175781 447.800781 469.105469 448.53125 C 469.03125 449.265625 468.925781 449.996094 468.78125 450.71875 C 468.636719 451.441406 468.457031 452.15625 468.242188 452.863281 C 468.027344 453.570312 467.78125 454.261719 467.5 454.945312 C 467.214844 455.625 466.902344 456.289062 466.554688 456.941406 C 466.207031 457.589844 465.828125 458.222656 465.417969 458.835938 C 465.007812 459.449219 464.570312 460.042969 464.101562 460.613281 C 463.632812 461.183594 463.140625 461.726562 462.617188 462.25 C 462.097656 462.769531 461.550781 463.265625 460.980469 463.734375 C 460.410156 464.203125 459.816406 464.640625 459.207031 465.050781 C 458.59375 465.460938 457.960938 465.839844 457.308594 466.1875 C 456.660156 466.535156 455.992188 466.847656 455.3125 467.132812 C 454.628906 467.414062 453.9375 467.660156 453.230469 467.875 C 452.527344 468.089844 451.8125 468.269531 451.085938 468.414062 C 450.363281 468.554688 449.636719 468.664062 448.902344 468.738281 C 448.167969 468.808594 447.433594 468.84375 446.695312 468.84375 C 445.957031 468.84375 445.222656 468.808594 444.488281 468.738281 C 443.753906 468.664062 443.023438 468.554688 442.300781 468.414062 C 441.578125 468.269531 440.863281 468.089844 440.15625 467.875 C 439.453125 467.660156 438.757812 467.414062 438.078125 467.132812 C 437.394531 466.847656 436.730469 466.535156 436.078125 466.1875 C 435.429688 465.839844 434.796875 465.460938 434.183594 465.050781 C 433.570312 464.640625 432.980469 464.203125 432.410156 463.734375 C 431.839844 463.265625 431.292969 462.769531 430.769531 462.25 C 430.25 461.726562 429.753906 461.183594 429.285156 460.613281 C 428.820312 460.042969 428.378906 459.449219 427.96875 458.835938 C 427.5625 458.222656 427.183594 457.59375 426.835938 456.941406 C 426.488281 456.292969 426.171875 455.625 425.890625 454.945312 C 425.605469 454.261719 425.359375 453.570312 425.144531 452.863281 C 424.929688 452.15625 424.75 451.441406 424.609375 450.71875 C 424.464844 449.996094 424.355469 449.269531 424.285156 448.535156 C 424.210938 447.800781 424.175781 447.0625 424.175781 446.328125 C 424.175781 445.589844 424.210938 444.851562 424.285156 444.121094 C 424.355469 443.386719 424.464844 442.65625 424.609375 441.933594 C 424.75 441.210938 424.929688 440.496094 425.144531 439.789062 C 425.359375 439.085938 425.605469 438.390625 425.890625 437.710938 C 426.171875 437.027344 426.484375 436.363281 426.832031 435.710938 C 427.179688 435.0625 427.558594 434.429688 427.96875 433.816406 C 428.378906 433.203125 428.820312 432.609375 429.285156 432.039062 C 429.753906 431.46875 430.25 430.925781 430.769531 430.402344 C 431.292969 429.882812 431.835938 429.386719 432.40625 428.917969 C 432.976562 428.453125 433.570312 428.011719 434.183594 427.601562 C 434.796875 427.191406 435.429688 426.8125 436.078125 426.464844 C 436.730469 426.117188 437.394531 425.804688 438.074219 425.523438 C 438.757812 425.238281 439.449219 424.992188 440.15625 424.777344 C 440.863281 424.5625 441.578125 424.382812 442.300781 424.238281 C 443.023438 424.097656 443.753906 423.988281 444.484375 423.914062 C 445.21875 423.84375 445.957031 423.808594 446.695312 423.808594 C 447.429688 423.808594 448.167969 423.84375 448.902344 423.914062 C 449.636719 423.988281 450.363281 424.097656 451.085938 424.238281 C 451.808594 424.382812 452.523438 424.5625 453.230469 424.777344 C 453.9375 424.992188 454.628906 425.238281 455.3125 425.519531 C 455.992188 425.804688 456.660156 426.117188 457.308594 426.464844 C 457.960938 426.8125 458.589844 427.191406 459.203125 427.601562 C 459.816406 428.011719 460.410156 428.449219 460.980469 428.917969 C 461.550781 429.386719 462.09375 429.882812 462.617188 430.402344 Z M 462.617188 430.402344 " fill-opacity="1" fill-rule="nonzero"/></svg>