<svg xmlns="http://www.w3.org/2000/svg" xmlns:xlink="http://www.w3.org/1999/xlink" width="1024" zoomAndPan="magnify" viewBox="0 0 768 775.92" height="1024" preserveAspectRatio="xMidYMid meet" version="1.0"><defs><clipPath id="ebbf7e7db2"><path d="M 76.832031 503 L 194 503 L 194 629 L 76.832031 629 Z M 76.832031 503 " clip-rule="nonzero"/></clipPath></defs><path fill="#9ded02" d="M 677.039062 197.726562 C 677.269531 198.765625 677.480469 199.8125 677.660156 200.863281 C 677.84375 201.914062 678 202.972656 678.128906 204.03125 C 678.257812 205.089844 678.363281 206.152344 678.441406 207.214844 C 678.519531 208.277344 678.570312 209.34375 678.597656 210.410156 C 678.621094 211.476562 678.621094 212.542969 678.59375 213.613281 C 678.570312 214.679688 678.515625 215.742188 678.4375 216.808594 C 678.359375 217.871094 678.253906 218.933594 678.121094 219.992188 C 677.992188 221.050781 677.832031 222.105469 677.652344 223.15625 C 677.46875 224.207031 677.257812 225.253906 677.027344 226.296875 C 676.792969 227.335938 676.53125 228.371094 676.246094 229.398438 C 675.960938 230.429688 675.652344 231.449219 675.316406 232.460938 C 674.980469 233.476562 674.621094 234.480469 674.238281 235.472656 C 673.851562 236.46875 673.445312 237.457031 673.011719 238.429688 C 672.578125 239.40625 672.121094 240.371094 671.640625 241.324219 C 671.160156 242.277344 670.65625 243.214844 670.132812 244.144531 C 669.605469 245.074219 669.054688 245.988281 668.484375 246.886719 C 667.914062 247.789062 667.320312 248.675781 666.707031 249.546875 C 666.089844 250.421875 665.457031 251.277344 664.796875 252.117188 C 664.140625 252.960938 663.464844 253.785156 662.765625 254.589844 C 662.070312 255.398438 661.351562 256.1875 660.617188 256.960938 C 659.882812 257.734375 659.125 258.488281 658.351562 259.222656 C 657.582031 259.957031 656.789062 260.675781 655.980469 261.371094 C 655.171875 262.066406 654.347656 262.746094 653.507812 263.398438 C 652.664062 264.054688 651.808594 264.691406 650.933594 265.304688 C 650.0625 265.917969 649.175781 266.511719 648.273438 267.082031 C 647.371094 267.652344 646.457031 268.199219 645.527344 268.726562 C 644.597656 269.25 643.660156 269.753906 642.703125 270.234375 C 641.75 270.710938 640.789062 271.167969 639.8125 271.601562 C 638.835938 272.03125 637.851562 272.441406 636.855469 272.824219 C 635.859375 273.207031 634.855469 273.566406 633.839844 273.902344 C 632.828125 274.234375 631.804688 274.542969 630.777344 274.828125 C 629.75 275.113281 628.714844 275.371094 627.671875 275.605469 C 626.632812 275.835938 625.585938 276.046875 624.535156 276.226562 C 623.484375 276.410156 622.429688 276.566406 621.367188 276.695312 C 620.308594 276.824219 619.25 276.929688 618.183594 277.007812 C 617.121094 277.085938 616.054688 277.136719 614.988281 277.164062 C 613.921875 277.1875 612.855469 277.1875 611.789062 277.160156 C 610.71875 277.136719 609.65625 277.082031 608.589844 277.003906 C 607.527344 276.925781 606.464844 276.820312 605.40625 276.6875 C 604.347656 276.558594 603.292969 276.402344 602.242188 276.21875 C 601.191406 276.035156 600.144531 275.824219 599.101562 275.59375 C 598.0625 275.359375 597.027344 275.097656 596 274.8125 C 594.96875 274.527344 593.949219 274.21875 592.9375 273.882812 C 591.921875 273.546875 590.917969 273.1875 589.925781 272.804688 C 588.929688 272.417969 587.945312 272.011719 586.96875 271.578125 C 585.992188 271.144531 585.027344 270.6875 584.074219 270.207031 C 583.121094 269.726562 582.183594 269.222656 581.253906 268.699219 C 580.324219 268.171875 579.410156 267.621094 578.511719 267.050781 C 577.609375 266.480469 576.722656 265.886719 575.851562 265.273438 C 574.976562 264.65625 574.121094 264.023438 573.28125 263.363281 C 572.441406 262.707031 571.613281 262.03125 570.808594 261.332031 C 570 260.636719 569.210938 259.917969 568.4375 259.183594 C 567.664062 258.449219 566.910156 257.691406 566.175781 256.917969 C 565.441406 256.148438 564.722656 255.355469 564.027344 254.546875 C 563.332031 253.738281 562.65625 252.914062 562 252.074219 C 561.34375 251.230469 560.707031 250.375 560.09375 249.5 C 559.480469 248.628906 558.886719 247.742188 558.316406 246.839844 C 557.746094 245.9375 557.199219 245.023438 556.671875 244.09375 C 556.148438 243.164062 555.644531 242.226562 555.164062 241.269531 C 554.6875 240.316406 554.230469 239.355469 553.796875 238.378906 C 553.367188 237.402344 552.957031 236.417969 552.574219 235.421875 C 552.191406 234.425781 551.832031 233.421875 551.5 232.40625 C 551.164062 231.394531 550.855469 230.371094 550.570312 229.34375 C 550.285156 228.316406 550.027344 227.28125 549.792969 226.238281 C 549.5625 225.199219 549.351562 224.152344 549.171875 223.101562 C 548.988281 222.050781 548.832031 220.996094 548.703125 219.933594 C 548.574219 218.875 548.46875 217.816406 548.390625 216.75 C 548.3125 215.6875 548.261719 214.621094 548.234375 213.554688 C 548.210938 212.488281 548.210938 211.421875 548.238281 210.355469 C 548.261719 209.285156 548.316406 208.222656 548.394531 207.15625 C 548.472656 206.09375 548.578125 205.03125 548.710938 203.972656 C 548.839844 202.914062 549 201.859375 549.179688 200.808594 C 549.363281 199.757812 549.574219 198.710938 549.808594 197.667969 C 550.039062 196.628906 550.300781 195.59375 550.585938 194.566406 C 550.871094 193.535156 551.179688 192.515625 551.515625 191.503906 C 551.851562 190.492188 552.210938 189.484375 552.59375 188.492188 C 552.980469 187.496094 553.386719 186.511719 553.820312 185.535156 C 554.253906 184.558594 554.710938 183.59375 555.191406 182.640625 C 555.671875 181.6875 556.175781 180.75 556.699219 179.820312 C 557.226562 178.890625 557.777344 177.976562 558.347656 177.078125 C 558.917969 176.175781 559.511719 175.289062 560.125 174.417969 C 560.742188 173.542969 561.375 172.6875 562.035156 171.847656 C 562.691406 171.007812 563.367188 170.183594 564.066406 169.375 C 564.761719 168.566406 565.480469 167.777344 566.214844 167.003906 C 566.953125 166.230469 567.707031 165.476562 568.480469 164.742188 C 569.253906 164.007812 570.042969 163.289062 570.851562 162.59375 C 571.660156 161.898438 572.484375 161.222656 573.324219 160.566406 C 574.167969 159.910156 575.023438 159.273438 575.898438 158.660156 C 576.769531 158.046875 577.65625 157.453125 578.558594 156.882812 C 579.460938 156.3125 580.375 155.765625 581.304688 155.238281 C 582.234375 154.714844 583.175781 154.210938 584.128906 153.730469 C 585.082031 153.253906 586.046875 152.796875 587.019531 152.363281 C 587.996094 151.933594 588.980469 151.523438 589.976562 151.140625 C 590.972656 150.757812 591.976562 150.398438 592.992188 150.066406 C 594.003906 149.730469 595.027344 149.421875 596.054688 149.136719 C 597.082031 148.851562 598.117188 148.59375 599.160156 148.359375 C 600.199219 148.128906 601.246094 147.917969 602.296875 147.738281 C 603.347656 147.554688 604.40625 147.398438 605.464844 147.269531 C 606.523438 147.140625 607.585938 147.035156 608.648438 146.957031 C 609.710938 146.878906 610.777344 146.828125 611.84375 146.800781 C 612.910156 146.777344 613.976562 146.777344 615.042969 146.804688 C 616.113281 146.828125 617.175781 146.882812 618.242188 146.960938 C 619.304688 147.039062 620.367188 147.144531 621.425781 147.277344 C 622.484375 147.40625 623.539062 147.566406 624.589844 147.746094 C 625.640625 147.929688 626.6875 148.140625 627.730469 148.375 C 628.769531 148.609375 629.804688 148.867188 630.832031 149.152344 C 631.863281 149.4375 632.882812 149.746094 633.894531 150.082031 C 634.910156 150.417969 635.914062 150.777344 636.90625 151.160156 C 637.902344 151.546875 638.890625 151.953125 639.863281 152.386719 C 640.839844 152.820312 641.804688 153.277344 642.757812 153.757812 C 643.710938 154.238281 644.648438 154.742188 645.578125 155.265625 C 646.507812 155.792969 647.421875 156.34375 648.320312 156.914062 C 649.222656 157.484375 650.109375 158.078125 650.980469 158.691406 C 651.855469 159.308594 652.710938 159.941406 653.550781 160.601562 C 654.394531 161.257812 655.21875 161.933594 656.023438 162.632812 C 656.832031 163.328125 657.621094 164.046875 658.394531 164.78125 C 659.167969 165.519531 659.921875 166.273438 660.65625 167.046875 C 661.390625 167.820312 662.109375 168.609375 662.804688 169.417969 C 663.5 170.226562 664.179688 171.050781 664.832031 171.890625 C 665.488281 172.734375 666.125 173.589844 666.738281 174.464844 C 667.351562 175.335938 667.945312 176.222656 668.515625 177.125 C 669.085938 178.027344 669.632812 178.941406 670.160156 179.871094 C 670.683594 180.800781 671.1875 181.742188 671.667969 182.695312 C 672.144531 183.648438 672.601562 184.613281 673.035156 185.585938 C 673.464844 186.5625 673.875 187.546875 674.257812 188.542969 C 674.640625 189.539062 675 190.542969 675.335938 191.558594 C 675.667969 192.570312 675.976562 193.59375 676.261719 194.621094 C 676.546875 195.648438 676.804688 196.683594 677.039062 197.726562 Z M 677.039062 197.726562 " fill-opacity="1" fill-rule="nonzero"/><path fill="#9ded02" d="M 527.234375 264.882812 C 527.234375 281.34375 513.847656 294.730469 497.386719 294.730469 L 465.566406 294.730469 L 489.84375 329.628906 L 543.546875 295.777344 C 559.410156 269.355469 555.183594 241.417969 542.363281 225.355469 C 526.46875 205.433594 490.554688 209.898438 467.789062 229.460938 C 465.296875 231.246094 462.714844 233.121094 460.082031 235.03125 L 497.386719 235.03125 C 513.847656 235.035156 527.234375 248.425781 527.234375 264.882812 Z M 527.234375 264.882812 " fill-opacity="1" fill-rule="nonzero"/><g clip-path="url(#ebbf7e7db2)"><path fill="#9ded02" d="M 107.246094 594.511719 C 108.066406 583.164062 113.238281 572.816406 121.792969 565.335938 L 121.792969 548.261719 C 121.792969 539.601562 128.839844 532.550781 137.503906 532.550781 L 159.671875 532.550781 L 193.167969 503.574219 L 137.503906 503.574219 C 112.863281 503.574219 92.816406 523.621094 92.816406 548.261719 L 92.816406 599.445312 L 76.832031 599.445312 L 76.832031 628.421875 L 120.25 628.421875 C 119.332031 627.539062 118.429688 626.632812 117.589844 625.664062 C 110.09375 617.003906 106.421875 605.9375 107.246094 594.511719 Z M 107.246094 594.511719 " fill-opacity="1" fill-rule="nonzero"/></g><path fill="#9ded02" d="M 586.382812 599.445312 L 586.382812 628.421875 L 647.328125 628.421875 L 647.328125 599.445312 L 631.34375 599.445312 L 631.34375 548.261719 C 631.34375 523.621094 611.296875 503.574219 586.65625 503.574219 L 525.0625 503.574219 L 490.238281 437.039062 L 481.636719 442.472656 L 490.40625 456.363281 C 492.917969 460.335938 493.429688 465.351562 491.773438 469.773438 C 490.605469 472.902344 488.5 475.496094 485.683594 477.273438 L 480.355469 480.640625 L 492.355469 503.570312 L 322.65625 503.570312 C 320.820312 506.027344 318.773438 508.332031 316.445312 510.347656 L 290.78125 532.550781 L 586.660156 532.550781 C 595.320312 532.550781 602.367188 539.597656 602.367188 548.257812 L 602.367188 599.441406 L 586.382812 599.441406 Z M 586.382812 599.445312 " fill-opacity="1" fill-rule="nonzero"/><path fill="#9ded02" d="M 252.519531 451.292969 L 136.375 451.292969 C 125.101562 451.292969 115.875 460.515625 115.875 471.792969 C 115.875 483.066406 125.101562 492.289062 136.375 492.289062 L 206.21875 492.289062 L 252 452.683594 Z M 252.519531 451.292969 " fill-opacity="1" fill-rule="nonzero"/><path fill="#9ded02" d="M 518.246094 370.460938 L 521.167969 368.621094 L 518.109375 363.773438 C 515.597656 359.800781 515.085938 354.78125 516.738281 350.359375 C 517.90625 347.234375 520.015625 344.640625 522.828125 342.863281 L 538.402344 333.027344 C 541.820312 330.867188 545.878906 330.171875 549.835938 331.066406 C 553.789062 331.960938 557.15625 334.332031 559.3125 337.75 L 562.394531 342.632812 L 590.15625 325.136719 C 599.679688 319.101562 602.535156 306.371094 596.5 296.851562 C 590.46875 287.328125 577.738281 284.472656 568.214844 290.507812 L 494.808594 336.777344 Z M 518.246094 370.460938 " fill-opacity="1" fill-rule="nonzero"/><path fill="#9ded02" d="M 336.976562 484.714844 L 418.292969 433.464844 L 415.292969 428.714844 C 412.78125 424.742188 412.273438 419.726562 413.921875 415.300781 C 415.09375 412.171875 417.199219 409.582031 420.015625 407.804688 L 435.585938 397.960938 C 442.65625 393.5 452.039062 395.621094 456.5 402.6875 L 465.273438 416.570312 L 473.84375 411.15625 L 444.261719 368.628906 L 353.414062 425.898438 L 331.59375 484.746094 C 333.585938 485.59375 335.441406 485.691406 336.976562 484.714844 Z M 336.976562 484.714844 " fill-opacity="1" fill-rule="nonzero"/><path fill="#9ded02" d="M 257.65625 456.605469 L 126.324219 570.214844 C 111.195312 583.304688 109.542969 606.179688 122.632812 621.304688 C 129.792969 629.585938 139.886719 633.828125 150.039062 633.828125 C 158.4375 633.828125 166.875 630.925781 173.722656 625.003906 L 312.085938 505.308594 C 316.699219 501.320312 320.230469 496.230469 322.347656 490.511719 L 361.625 384.59375 L 368.601562 384.941406 L 358.386719 412.488281 L 381.175781 398.125 L 381.175781 397.886719 C 381.351562 397.859375 381.527344 397.824219 381.699219 397.792969 L 439.292969 361.492188 L 385.855469 284.675781 C 370.675781 293.105469 354.945312 300.390625 339.089844 305.226562 C 324.953125 310.710938 316.4375 315.820312 311.878906 321.335938 C 307.925781 325.050781 304.722656 329.675781 302.710938 335.105469 L 285.769531 380.789062 Z M 257.65625 456.605469 " fill-opacity="1" fill-rule="nonzero"/><path fill="#9ded02" d="M 483.503906 425.046875 L 477.65625 416.640625 L 463.199219 425.769531 L 450.871094 406.246094 C 448.375 402.296875 443.101562 401.105469 439.152344 403.601562 L 423.578125 413.4375 C 419.628906 415.929688 418.4375 421.207031 420.933594 425.15625 L 454.835938 478.832031 C 457.332031 482.78125 462.605469 483.972656 466.554688 481.476562 L 482.128906 471.636719 C 486.078125 469.144531 487.269531 463.871094 484.773438 459.917969 L 472.441406 440.398438 L 488.28125 430.390625 C 486.496094 428.828125 484.890625 427.035156 483.503906 425.046875 Z M 483.503906 425.046875 " fill-opacity="1" fill-rule="nonzero"/><path fill="#9ded02" d="M 553.679688 341.304688 C 551.183594 337.355469 545.914062 336.164062 541.964844 338.660156 L 526.390625 348.496094 C 522.441406 350.988281 521.25 356.261719 523.746094 360.214844 L 536.078125 379.734375 L 528.175781 384.726562 L 532.507812 390.957031 C 534.4375 393.734375 535.804688 396.734375 536.683594 399.820312 L 545.320312 394.363281 L 557.648438 413.886719 C 560.144531 417.835938 565.417969 419.027344 569.367188 416.53125 L 584.941406 406.695312 C 588.890625 404.199219 590.078125 398.925781 587.582031 394.976562 Z M 553.679688 341.304688 " fill-opacity="1" fill-rule="nonzero"/><path fill="#9ded02" d="M 488.972656 421.242188 C 493.480469 427.71875 500.691406 431.183594 508.023438 431.183594 C 512.59375 431.183594 517.207031 429.839844 521.242188 427.03125 C 531.753906 419.722656 534.347656 405.273438 527.035156 394.761719 L 452.8125 288.066406 L 497.390625 288.066406 C 510.191406 288.066406 520.574219 277.683594 520.574219 264.882812 C 520.574219 252.082031 510.191406 241.699219 497.390625 241.699219 L 408.445312 241.699219 C 399.8125 241.699219 391.898438 246.496094 387.898438 254.144531 C 383.902344 261.796875 384.484375 271.035156 389.414062 278.121094 Z M 488.972656 421.242188 " fill-opacity="1" fill-rule="nonzero"/></svg>