<svg xmlns="http://www.w3.org/2000/svg" xmlns:xlink="http://www.w3.org/1999/xlink" width="1024" zoomAndPan="magnify" viewBox="0 0 768 775.92" height="1024" preserveAspectRatio="xMidYMid meet" version="1.0"><defs><clipPath id="3474637266"><path d="M 469 409 L 541.542969 409 L 541.542969 482 L 469 482 Z M 469 409 " clip-rule="nonzero"/></clipPath></defs><path fill="#9ded02" d="M 465.445312 135.773438 C 465.445312 137.671875 465.351562 139.566406 465.164062 141.457031 C 464.976562 143.351562 464.699219 145.226562 464.328125 147.089844 C 463.957031 148.953125 463.496094 150.796875 462.945312 152.613281 C 462.394531 154.433594 461.753906 156.21875 461.027344 157.972656 C 460.300781 159.730469 459.488281 161.445312 458.59375 163.121094 C 457.699219 164.796875 456.722656 166.425781 455.664062 168.003906 C 454.609375 169.585938 453.480469 171.109375 452.273438 172.578125 C 451.070312 174.046875 449.792969 175.453125 448.449219 176.796875 C 447.105469 178.140625 445.699219 179.414062 444.230469 180.621094 C 442.761719 181.824219 441.238281 182.957031 439.660156 184.011719 C 438.078125 185.066406 436.453125 186.042969 434.777344 186.9375 C 433.101562 187.835938 431.382812 188.644531 429.628906 189.371094 C 427.875 190.101562 426.085938 190.738281 424.269531 191.289062 C 422.449219 191.84375 420.609375 192.304688 418.746094 192.675781 C 416.882812 193.042969 415.003906 193.324219 413.113281 193.507812 C 411.222656 193.695312 409.328125 193.789062 407.425781 193.789062 C 405.527344 193.789062 403.632812 193.695312 401.738281 193.507812 C 399.847656 193.324219 397.972656 193.042969 396.109375 192.675781 C 394.246094 192.304688 392.402344 191.84375 390.585938 191.289062 C 388.765625 190.738281 386.980469 190.101562 385.222656 189.371094 C 383.46875 188.644531 381.753906 187.835938 380.078125 186.9375 C 378.402344 186.042969 376.773438 185.066406 375.195312 184.011719 C 373.613281 182.957031 372.089844 181.824219 370.621094 180.621094 C 369.152344 179.414062 367.746094 178.140625 366.402344 176.796875 C 365.058594 175.453125 363.785156 174.046875 362.578125 172.578125 C 361.375 171.109375 360.242188 169.585938 359.1875 168.003906 C 358.132812 166.425781 357.15625 164.796875 356.261719 163.121094 C 355.363281 161.445312 354.554688 159.730469 353.824219 157.972656 C 353.097656 156.21875 352.460938 154.433594 351.90625 152.613281 C 351.355469 150.796875 350.894531 148.953125 350.523438 147.089844 C 350.152344 145.226562 349.875 143.351562 349.6875 141.457031 C 349.503906 139.566406 349.410156 137.671875 349.410156 135.773438 C 349.410156 133.871094 349.503906 131.976562 349.6875 130.085938 C 349.875 128.195312 350.152344 126.316406 350.523438 124.453125 C 350.894531 122.589844 351.355469 120.75 351.90625 118.929688 C 352.460938 117.113281 353.097656 115.324219 353.824219 113.570312 C 354.554688 111.8125 355.363281 110.097656 356.261719 108.421875 C 357.15625 106.746094 358.132812 105.121094 359.1875 103.539062 C 360.242188 101.960938 361.375 100.433594 362.578125 98.964844 C 363.785156 97.496094 365.058594 96.089844 366.402344 94.746094 C 367.746094 93.402344 369.152344 92.128906 370.621094 90.925781 C 372.089844 89.71875 373.613281 88.589844 375.195312 87.53125 C 376.773438 86.476562 378.402344 85.5 380.078125 84.605469 C 381.753906 83.710938 383.46875 82.898438 385.222656 82.171875 C 386.980469 81.445312 388.765625 80.804688 390.585938 80.253906 C 392.402344 79.703125 394.246094 79.242188 396.109375 78.871094 C 397.972656 78.5 399.847656 78.21875 401.738281 78.035156 C 403.632812 77.847656 405.527344 77.753906 407.425781 77.753906 C 409.328125 77.753906 411.222656 77.847656 413.113281 78.035156 C 415.003906 78.21875 416.882812 78.5 418.746094 78.871094 C 420.609375 79.242188 422.449219 79.703125 424.269531 80.253906 C 426.085938 80.804688 427.875 81.445312 429.628906 82.171875 C 431.382812 82.898438 433.101562 83.710938 434.777344 84.605469 C 436.453125 85.5 438.078125 86.476562 439.660156 87.53125 C 441.238281 88.589844 442.761719 89.71875 444.230469 90.925781 C 445.699219 92.128906 447.105469 93.402344 448.449219 94.746094 C 449.792969 96.089844 451.070312 97.496094 452.273438 98.964844 C 453.480469 100.433594 454.609375 101.960938 455.664062 103.539062 C 456.722656 105.121094 457.699219 106.746094 458.59375 108.421875 C 459.488281 110.097656 460.300781 111.8125 461.027344 113.570312 C 461.753906 115.324219 462.394531 117.113281 462.945312 118.929688 C 463.496094 120.75 463.957031 122.589844 464.328125 124.453125 C 464.699219 126.316406 464.976562 128.195312 465.164062 130.085938 C 465.351562 131.976562 465.445312 133.871094 465.445312 135.773438 Z M 465.445312 135.773438 " fill-opacity="1" fill-rule="nonzero"/><path fill="#9ded02" d="M 316.640625 249.058594 L 337.003906 254.207031 L 340.589844 240.035156 C 342.410156 232.824219 349.761719 228.441406 356.972656 230.265625 L 372.863281 234.28125 C 380.074219 236.105469 384.460938 243.453125 382.636719 250.667969 L 368.789062 305.433594 C 366.96875 312.644531 359.617188 317.027344 352.40625 315.203125 L 337.691406 311.484375 L 337.691406 384.683594 L 315.699219 654.371094 C 314.265625 671.921875 327.335938 687.308594 344.882812 688.734375 C 362.429688 690.164062 377.816406 677.105469 379.25 659.554688 L 396.328125 450.128906 L 418.53125 450.128906 L 435.613281 659.554688 C 437.042969 677.109375 452.433594 690.167969 469.980469 688.734375 C 487.527344 687.304688 500.59375 671.921875 499.164062 654.371094 L 485.113281 482.082031 C 472.421875 474.914062 463.824219 461.320312 463.824219 445.738281 C 463.824219 432.585938 469.957031 420.847656 479.492188 413.195312 L 477.167969 384.675781 L 477.167969 317.347656 C 473.226562 297.761719 468.589844 284.132812 464.285156 274.753906 L 469.941406 272.707031 C 479.457031 293.679688 489.839844 333.046875 492.191406 406.238281 C 496.394531 404.8125 500.878906 404.007812 505.550781 404.007812 C 516.398438 404.007812 526.257812 408.199219 533.6875 415.003906 C 532.203125 346.109375 523.902344 293.664062 508.9375 258.609375 C 506.828125 253.664062 504.589844 249.042969 502.210938 244.792969 C 489.59375 222.21875 475.40625 213.675781 465.863281 210.46875 C 463.25 209.207031 460.332031 208.480469 457.234375 208.480469 L 357.617188 208.480469 C 352 208.480469 346.933594 210.816406 343.3125 214.550781 L 341.976562 212.34375 C 340.734375 213.097656 325.699219 222.527344 311.722656 243.535156 C 313.652344 245.175781 315.292969 247.035156 316.640625 249.058594 Z M 316.640625 249.058594 " fill-opacity="1" fill-rule="nonzero"/><path fill="#9ded02" d="M 326.738281 294.804688 L 330.324219 280.632812 L 317.324219 277.34375 C 317.3125 277.359375 317.304688 277.378906 317.296875 277.394531 C 316.664062 281.007812 318.121094 290.523438 321.394531 302.585938 L 315.867188 304.867188 C 312.097656 291.195312 310.339844 279.671875 311.769531 275.046875 C 317.820312 265.808594 315.523438 253.367188 306.445312 246.925781 C 297.148438 240.332031 284.273438 242.523438 277.683594 251.8125 C 268.003906 265.457031 267.691406 286.441406 276.691406 317.859375 C 276.964844 318.804688 277.242188 319.742188 277.519531 320.671875 C 282.929688 338.792969 289.476562 353.894531 289.765625 354.558594 C 289.800781 354.636719 289.847656 354.703125 289.882812 354.78125 C 290.269531 355.640625 290.695312 356.472656 291.191406 357.261719 C 291.242188 357.339844 291.300781 357.414062 291.351562 357.492188 C 291.796875 358.179688 292.28125 358.828125 292.796875 359.453125 C 292.933594 359.613281 293.0625 359.78125 293.199219 359.9375 C 293.75 360.5625 294.335938 361.152344 294.957031 361.707031 C 295.125 361.859375 295.300781 361.996094 295.472656 362.136719 C 296.050781 362.625 296.65625 363.078125 297.289062 363.496094 C 297.390625 363.566406 297.484375 363.640625 297.589844 363.707031 C 298.328125 364.175781 299.097656 364.589844 299.890625 364.964844 C 300.039062 365.035156 300.183594 365.097656 300.332031 365.164062 C 301.949219 365.878906 303.667969 366.394531 305.460938 366.675781 C 305.636719 366.703125 305.8125 366.726562 305.988281 366.75 C 306.863281 366.863281 307.75 366.945312 308.652344 366.945312 C 308.652344 366.945312 308.65625 366.945312 308.660156 366.945312 C 308.667969 366.945312 308.671875 366.949219 308.679688 366.949219 C 308.75 366.949219 308.820312 366.9375 308.886719 366.9375 C 309.363281 366.933594 309.839844 366.917969 310.320312 366.878906 C 310.382812 366.875 310.441406 366.863281 310.507812 366.855469 C 310.875 366.820312 311.242188 366.765625 311.609375 366.710938 C 311.953125 366.660156 312.292969 366.621094 312.628906 366.554688 C 312.894531 366.5 313.15625 366.429688 313.421875 366.363281 C 313.863281 366.261719 314.304688 366.15625 314.730469 366.023438 C 314.910156 365.96875 315.085938 365.902344 315.265625 365.839844 C 315.769531 365.671875 316.269531 365.492188 316.753906 365.28125 C 316.804688 365.261719 316.855469 365.25 316.90625 365.226562 C 317.019531 365.171875 317.128906 365.109375 317.242188 365.058594 C 317.703125 364.847656 318.15625 364.625 318.597656 364.382812 C 318.792969 364.277344 318.976562 364.164062 319.167969 364.050781 C 319.550781 363.824219 319.925781 363.59375 320.289062 363.34375 C 320.515625 363.183594 320.738281 363.019531 320.960938 362.859375 C 321.265625 362.632812 321.5625 362.402344 321.855469 362.160156 C 322.101562 361.957031 322.332031 361.746094 322.566406 361.53125 C 322.824219 361.300781 323.074219 361.066406 323.316406 360.820312 C 323.542969 360.589844 323.761719 360.355469 323.976562 360.113281 C 324.210938 359.855469 324.4375 359.597656 324.652344 359.328125 C 324.847656 359.089844 325.03125 358.851562 325.210938 358.605469 C 325.433594 358.308594 325.652344 358 325.855469 357.6875 C 326.003906 357.464844 326.144531 357.246094 326.28125 357.019531 C 326.496094 356.660156 326.703125 356.300781 326.898438 355.933594 C 327.003906 355.734375 327.101562 355.539062 327.199219 355.339844 C 327.398438 354.929688 327.585938 354.519531 327.757812 354.097656 C 327.828125 353.914062 327.898438 353.738281 327.964844 353.554688 C 328.132812 353.113281 328.285156 352.671875 328.421875 352.214844 C 328.476562 352.027344 328.527344 351.84375 328.578125 351.652344 C 328.695312 351.210938 328.804688 350.765625 328.890625 350.316406 C 328.9375 350.085938 328.976562 349.855469 329.011719 349.621094 C 329.082031 349.214844 329.140625 348.808594 329.179688 348.390625 C 329.210938 348.089844 329.226562 347.785156 329.246094 347.484375 C 329.265625 347.132812 329.285156 346.785156 329.285156 346.433594 C 329.289062 346.058594 329.269531 345.683594 329.253906 345.308594 C 329.242188 345.09375 329.25 344.882812 329.234375 344.667969 C 328.109375 330.625 328.75 318.390625 330.476562 307.753906 C 327.132812 304.503906 325.515625 299.644531 326.738281 294.804688 Z M 326.738281 294.804688 " fill-opacity="1" fill-rule="nonzero"/><path fill="#9ded02" d="M 248.945312 282.929688 C 252.972656 283.949219 257.105469 281.484375 258.125 277.453125 L 263.160156 257.53125 L 267.535156 258.640625 C 268.890625 254.902344 270.640625 251.480469 272.839844 248.382812 C 273.746094 247.101562 274.789062 245.953125 275.890625 244.871094 L 266.933594 242.605469 L 271.96875 222.683594 C 272.988281 218.652344 270.523438 214.523438 266.496094 213.503906 L 250.601562 209.488281 C 246.574219 208.46875 242.441406 210.929688 241.421875 214.960938 L 227.578125 269.730469 C 226.558594 273.757812 229.019531 277.890625 233.050781 278.910156 Z M 248.945312 282.929688 " fill-opacity="1" fill-rule="nonzero"/><path fill="#9ded02" d="M 319.789062 271.847656 L 337.523438 276.332031 L 332.488281 296.253906 C 331.472656 300.285156 333.9375 304.414062 337.964844 305.433594 L 353.859375 309.453125 C 357.886719 310.46875 362.019531 308.007812 363.039062 303.976562 L 376.886719 249.210938 C 377.90625 245.179688 375.441406 241.046875 371.410156 240.03125 L 355.519531 236.011719 C 351.488281 234.992188 347.355469 237.457031 346.335938 241.488281 L 341.300781 261.410156 L 319.949219 256.007812 C 321.503906 261.105469 321.480469 266.632812 319.789062 271.847656 Z M 319.789062 271.847656 " fill-opacity="1" fill-rule="nonzero"/><g clip-path="url(#3474637266)"><path fill="#9ded02" d="M 505.554688 409.933594 C 485.78125 409.933594 469.753906 425.964844 469.753906 445.738281 C 469.753906 465.511719 485.78125 481.539062 505.554688 481.539062 C 525.328125 481.539062 541.359375 465.507812 541.359375 445.738281 C 541.359375 425.964844 525.328125 409.933594 505.554688 409.933594 Z M 488.699219 445.738281 C 488.699219 436.429688 496.246094 428.882812 505.554688 428.882812 C 514.863281 428.882812 522.410156 436.429688 522.410156 445.738281 C 522.410156 455.046875 514.863281 462.59375 505.554688 462.59375 C 496.246094 462.59375 488.699219 455.046875 488.699219 445.738281 Z M 488.699219 445.738281 " fill-opacity="1" fill-rule="nonzero"/></g><path fill="#9ded02" d="M 505.554688 452.824219 C 509.46875 452.824219 512.636719 449.652344 512.636719 445.738281 C 512.636719 441.828125 509.46875 438.65625 505.554688 438.65625 C 501.644531 438.65625 498.472656 441.828125 498.472656 445.738281 C 498.472656 449.652344 501.644531 452.824219 505.554688 452.824219 Z M 505.554688 452.824219 " fill-opacity="1" fill-rule="nonzero"/></svg>