<svg xmlns="http://www.w3.org/2000/svg" xmlns:xlink="http://www.w3.org/1999/xlink" width="1024" zoomAndPan="magnify" viewBox="0 0 768 775.92" height="1024" preserveAspectRatio="xMidYMid meet" version="1.0"><defs><clipPath id="1309b35b3d"><path d="M 134 76.792969 L 636 76.792969 L 636 690.980469 L 134 690.980469 Z M 134 76.792969 " clip-rule="nonzero"/></clipPath></defs><g clip-path="url(#1309b35b3d)"><path fill="#9ded02" d="M 393.558594 673.460938 L 393.558594 691.023438 L 635.835938 691.023438 L 635.835938 673.460938 L 591.390625 673.460938 L 591.390625 171.929688 L 610.339844 171.929688 L 610.339844 136.800781 L 461.722656 136.800781 L 345.027344 76.839844 L 328.972656 108.085938 L 340.894531 114.214844 L 334.023438 126.5 C 330.03125 133.636719 332.601562 142.738281 339.738281 146.730469 C 339.785156 146.757812 339.832031 146.777344 339.875 146.800781 L 322.195312 218.585938 C 321.574219 218.660156 320.953125 218.785156 320.34375 219.027344 C 316.46875 220.550781 314.5625 224.933594 316.085938 228.808594 C 316.65625 230.261719 317.628906 231.4375 318.828125 232.261719 L 311.382812 262.5 C 310.394531 261.320312 309.210938 260.277344 307.816406 259.445312 C 303.785156 257.042969 299.050781 256.898438 295.050781 258.621094 L 291.238281 255.25 C 289.058594 253.324219 285.726562 253.53125 283.800781 255.710938 C 281.875 257.890625 282.078125 261.21875 284.261719 263.148438 L 287.523438 266.03125 L 242.390625 341.652344 L 231.253906 344.144531 C 223.714844 350.382812 214.050781 354.136719 203.523438 354.136719 C 199.777344 354.136719 196.144531 353.664062 192.675781 352.769531 L 182.5 355.042969 C 169 356.074219 153.726562 365.394531 146.667969 385.925781 C 134.714844 421.359375 132.144531 444.421875 136.6875 483.441406 C 140.121094 501.125 148.988281 508.882812 159.082031 512.167969 L 172.457031 569.007812 L 164.816406 666.949219 C 163.875 679.039062 172.910156 689.601562 184.996094 690.546875 C 185.578125 690.589844 186.15625 690.613281 186.726562 690.613281 C 198.078125 690.613281 207.695312 681.871094 208.59375 670.363281 L 216.496094 569.015625 C 216.671875 566.757812 216.5 564.488281 215.980469 562.28125 L 199.65625 492.90625 C 199.640625 491.375 199.589844 489.746094 199.484375 487.988281 C 195.636719 459.304688 203.140625 426.066406 208.027344 401.734375 L 192.144531 406.101562 C 190.570312 406.535156 188.957031 406.753906 187.335938 406.753906 C 179.226562 406.753906 172.054688 401.285156 169.902344 393.457031 C 168.621094 388.800781 169.230469 383.917969 171.621094 379.71875 C 174.007812 375.519531 177.886719 372.5 182.550781 371.21875 L 252.988281 351.84375 L 301.0625 271.542969 C 304.3125 266.113281 310.261719 262.742188 316.597656 262.742188 C 316.644531 262.742188 316.691406 262.75 316.742188 262.753906 L 323.941406 233.519531 C 324.585938 233.449219 325.230469 233.320312 325.863281 233.070312 C 329.738281 231.546875 331.644531 227.167969 330.121094 223.289062 C 329.539062 221.8125 328.542969 220.628906 327.316406 219.804688 L 344.890625 148.460938 C 350.792969 149.289062 356.894531 146.515625 359.964844 141.023438 L 367.351562 127.816406 L 448.6875 169.605469 L 448.6875 673.464844 L 393.558594 673.464844 Z M 351.292969 137.433594 C 350.359375 139.105469 348.6875 140.105469 346.914062 140.253906 L 347.546875 137.691406 C 347.894531 136.277344 347.03125 134.847656 345.617188 134.503906 C 344.207031 134.152344 342.78125 135.019531 342.433594 136.433594 L 342.03125 138.0625 C 340.75 136.359375 340.507812 134 341.613281 132.019531 C 343.109375 129.347656 346.488281 128.390625 349.164062 129.886719 C 351.835938 131.378906 352.792969 134.761719 351.292969 137.433594 Z M 573.824219 620.820312 L 548.738281 620.820312 L 552.578125 612.742188 L 557.648438 612.742188 L 557.648438 604.421875 L 544.226562 604.421875 L 544.226562 597.832031 L 557.648438 597.832031 L 557.648438 589.511719 L 544.226562 589.511719 L 544.226562 582.921875 L 557.648438 582.921875 L 557.648438 574.601562 L 544.226562 574.601562 L 544.226562 568.011719 L 557.648438 568.011719 L 557.648438 559.691406 L 544.226562 559.691406 L 544.226562 553.101562 L 557.648438 553.101562 L 557.648438 544.78125 L 544.226562 544.78125 L 544.226562 538.191406 L 557.648438 538.191406 L 557.648438 529.871094 L 544.226562 529.871094 L 544.226562 171.929688 L 573.828125 171.929688 L 573.828125 620.820312 Z M 466.257812 171.929688 L 498.296875 171.929688 L 498.296875 529.875 L 482.433594 529.875 L 482.433594 538.195312 L 498.296875 538.195312 L 498.296875 544.78125 L 482.433594 544.78125 L 482.433594 553.101562 L 498.296875 553.101562 L 498.296875 559.695312 L 482.433594 559.695312 L 482.433594 568.015625 L 498.296875 568.015625 L 498.296875 574.601562 L 482.433594 574.601562 L 482.433594 582.921875 L 498.296875 582.921875 L 498.296875 589.511719 L 482.433594 589.511719 L 482.433594 597.832031 L 498.296875 597.832031 L 498.296875 604.421875 L 482.433594 604.421875 L 482.433594 612.742188 L 489.945312 612.742188 L 493.785156 620.824219 L 466.257812 620.824219 Z M 502.957031 604.421875 L 502.957031 597.832031 L 539.566406 597.832031 L 539.566406 604.421875 Z M 502.957031 589.511719 L 502.957031 582.921875 L 539.566406 582.921875 L 539.566406 589.511719 Z M 502.957031 574.601562 L 502.957031 568.015625 L 539.566406 568.015625 L 539.566406 574.601562 Z M 502.957031 559.695312 L 502.957031 553.101562 L 539.566406 553.101562 L 539.566406 559.695312 Z M 502.957031 544.785156 L 502.957031 538.195312 L 539.566406 538.195312 L 539.566406 544.785156 Z M 502.957031 529.875 L 502.957031 171.929688 L 539.566406 171.929688 L 539.566406 529.875 Z M 511.308594 612.742188 L 531.214844 612.742188 L 535.054688 620.820312 L 507.46875 620.820312 Z M 592.257812 154.234375 C 592.257812 159.566406 587.9375 163.886719 582.605469 163.886719 C 577.277344 163.886719 572.953125 159.566406 572.953125 154.234375 C 572.953125 148.90625 577.277344 144.582031 582.605469 144.582031 C 587.9375 144.582031 592.257812 148.90625 592.257812 154.234375 Z M 447.824219 154.234375 C 447.824219 148.90625 452.144531 144.582031 457.476562 144.582031 C 462.804688 144.582031 467.128906 148.90625 467.128906 154.234375 C 467.128906 159.566406 462.804688 163.886719 457.476562 163.886719 C 452.144531 163.886719 447.824219 159.566406 447.824219 154.234375 Z M 466.257812 638.386719 L 573.824219 638.386719 L 573.824219 673.460938 L 466.257812 673.460938 Z M 466.257812 638.386719 " fill-opacity="1" fill-rule="nonzero"/></g><path fill="#9ded02" d="M 243.042969 310.578125 C 243.042969 311.871094 242.976562 313.164062 242.851562 314.453125 C 242.722656 315.738281 242.535156 317.019531 242.28125 318.289062 C 242.03125 319.558594 241.714844 320.8125 241.339844 322.050781 C 240.964844 323.289062 240.527344 324.507812 240.035156 325.703125 C 239.539062 326.898438 238.984375 328.066406 238.375 329.207031 C 237.765625 330.347656 237.101562 331.457031 236.382812 332.535156 C 235.664062 333.609375 234.890625 334.648438 234.070312 335.648438 C 233.25 336.648438 232.382812 337.609375 231.464844 338.523438 C 230.550781 339.4375 229.59375 340.308594 228.59375 341.128906 C 227.59375 341.949219 226.554688 342.71875 225.476562 343.4375 C 224.402344 344.15625 223.292969 344.820312 222.152344 345.433594 C 221.007812 346.042969 219.839844 346.59375 218.644531 347.089844 C 217.449219 347.585938 216.230469 348.019531 214.992188 348.398438 C 213.753906 348.773438 212.5 349.085938 211.230469 349.339844 C 209.960938 349.589844 208.683594 349.78125 207.394531 349.90625 C 206.105469 350.035156 204.816406 350.097656 203.523438 350.097656 C 202.226562 350.097656 200.9375 350.035156 199.648438 349.90625 C 198.359375 349.78125 197.082031 349.589844 195.8125 349.339844 C 194.542969 349.085938 193.289062 348.773438 192.050781 348.398438 C 190.8125 348.019531 189.59375 347.585938 188.398438 347.089844 C 187.203125 346.59375 186.035156 346.042969 184.890625 345.433594 C 183.75 344.820312 182.640625 344.15625 181.566406 343.4375 C 180.488281 342.71875 179.449219 341.949219 178.449219 341.128906 C 177.449219 340.308594 176.492188 339.4375 175.578125 338.523438 C 174.660156 337.609375 173.792969 336.648438 172.972656 335.648438 C 172.152344 334.648438 171.382812 333.609375 170.660156 332.535156 C 169.941406 331.457031 169.277344 330.347656 168.667969 329.207031 C 168.058594 328.066406 167.503906 326.898438 167.007812 325.703125 C 166.515625 324.507812 166.078125 323.289062 165.703125 322.050781 C 165.328125 320.8125 165.011719 319.558594 164.761719 318.289062 C 164.507812 317.019531 164.320312 315.738281 164.191406 314.453125 C 164.066406 313.164062 164 311.871094 164 310.578125 C 164 309.285156 164.066406 307.992188 164.191406 306.703125 C 164.320312 305.417969 164.507812 304.136719 164.761719 302.867188 C 165.011719 301.597656 165.328125 300.34375 165.703125 299.105469 C 166.078125 297.867188 166.515625 296.652344 167.007812 295.453125 C 167.503906 294.257812 168.058594 293.089844 168.667969 291.949219 C 169.277344 290.808594 169.941406 289.699219 170.660156 288.621094 C 171.382812 287.546875 172.152344 286.507812 172.972656 285.507812 C 173.792969 284.507812 174.660156 283.546875 175.578125 282.632812 C 176.492188 281.71875 177.449219 280.851562 178.449219 280.027344 C 179.449219 279.207031 180.488281 278.4375 181.566406 277.71875 C 182.640625 277 183.75 276.335938 184.890625 275.726562 C 186.035156 275.113281 187.203125 274.5625 188.398438 274.066406 C 189.59375 273.570312 190.8125 273.136719 192.050781 272.761719 C 193.289062 272.382812 194.542969 272.070312 195.8125 271.816406 C 197.082031 271.566406 198.359375 271.375 199.648438 271.25 C 200.9375 271.121094 202.226562 271.058594 203.523438 271.058594 C 204.816406 271.058594 206.105469 271.121094 207.394531 271.25 C 208.683594 271.375 209.960938 271.566406 211.230469 271.816406 C 212.5 272.070312 213.753906 272.382812 214.992188 272.761719 C 216.230469 273.136719 217.449219 273.570312 218.644531 274.066406 C 219.839844 274.5625 221.007812 275.113281 222.152344 275.726562 C 223.292969 276.335938 224.402344 277 225.476562 277.71875 C 226.554688 278.4375 227.59375 279.207031 228.59375 280.027344 C 229.59375 280.851562 230.550781 281.71875 231.464844 282.632812 C 232.382812 283.546875 233.25 284.507812 234.070312 285.507812 C 234.890625 286.507812 235.664062 287.546875 236.382812 288.621094 C 237.101562 289.699219 237.765625 290.808594 238.375 291.949219 C 238.984375 293.089844 239.539062 294.257812 240.035156 295.453125 C 240.527344 296.652344 240.964844 297.867188 241.339844 299.105469 C 241.714844 300.34375 242.03125 301.597656 242.28125 302.867188 C 242.535156 304.136719 242.722656 305.417969 242.851562 306.703125 C 242.976562 307.992188 243.042969 309.285156 243.042969 310.578125 Z M 243.042969 310.578125 " fill-opacity="1" fill-rule="nonzero"/><path fill="#9ded02" d="M 327.1875 301.085938 C 328.191406 301.96875 329.4375 302.40625 330.675781 302.40625 C 332.132812 302.40625 333.585938 301.804688 334.625 300.625 C 336.554688 298.445312 336.347656 295.113281 334.164062 293.1875 L 331.621094 290.941406 L 326.117188 300.136719 Z M 327.1875 301.085938 " fill-opacity="1" fill-rule="nonzero"/><path fill="#9ded02" d="M 304.53125 273.609375 L 255.621094 355.304688 L 183.621094 375.105469 C 176.140625 377.164062 171.742188 384.898438 173.800781 392.382812 C 175.515625 398.617188 181.171875 402.710938 187.339844 402.710938 C 188.574219 402.710938 189.828125 402.546875 191.078125 402.203125 L 268.511719 380.902344 C 271.996094 379.945312 274.980469 377.675781 276.839844 374.574219 L 328.644531 288.046875 C 332.632812 281.386719 330.464844 272.757812 323.804688 268.769531 C 317.144531 264.785156 308.515625 266.953125 304.53125 273.609375 Z M 304.53125 273.609375 " fill-opacity="1" fill-rule="nonzero"/><path fill="#9ded02" d="M 457.476562 150.355469 C 455.332031 150.355469 453.59375 152.09375 453.59375 154.234375 C 453.59375 156.378906 455.332031 158.117188 457.476562 158.117188 C 459.621094 158.117188 461.355469 156.378906 461.355469 154.234375 C 461.355469 152.089844 459.617188 150.355469 457.476562 150.355469 Z M 457.476562 150.355469 " fill-opacity="1" fill-rule="nonzero"/><path fill="#9ded02" d="M 582.609375 150.355469 C 580.464844 150.355469 578.726562 152.09375 578.726562 154.234375 C 578.726562 156.378906 580.464844 158.117188 582.609375 158.117188 C 584.753906 158.117188 586.492188 156.378906 586.492188 154.234375 C 586.488281 152.089844 584.75 150.355469 582.609375 150.355469 Z M 582.609375 150.355469 " fill-opacity="1" fill-rule="nonzero"/></svg>