<svg xmlns="http://www.w3.org/2000/svg" xmlns:xlink="http://www.w3.org/1999/xlink" width="1024" zoomAndPan="magnify" viewBox="0 0 768 775.92" height="1024" preserveAspectRatio="xMidYMid meet" version="1.0"><defs><clipPath id="20a9114c44"><path d="M 76.832031 477 L 562 477 L 562 651 L 76.832031 651 Z M 76.832031 477 " clip-rule="nonzero"/></clipPath><clipPath id="29e2a3f017"><path d="M 192 117.109375 L 274 117.109375 L 274 218 L 192 218 Z M 192 117.109375 " clip-rule="nonzero"/></clipPath><clipPath id="1c0afa2ce2"><path d="M 266 117.109375 L 367 117.109375 L 367 218 L 266 218 Z M 266 117.109375 " clip-rule="nonzero"/></clipPath></defs><path fill="#9ded02" d="M 223.144531 405.699219 C 219.710938 370.171875 188.132812 344.160156 152.609375 347.589844 C 117.085938 351.019531 91.070312 382.59375 94.5 418.121094 C 96.648438 440.351562 109.824219 458.859375 128.089844 468.757812 L 189.582031 468.757812 C 211.726562 456.761719 225.71875 432.339844 223.144531 405.699219 Z M 223.144531 405.699219 " fill-opacity="1" fill-rule="nonzero"/><path fill="#9ded02" d="M 651.449219 649.898438 C 654.355469 649.898438 657.304688 649.542969 660.246094 648.800781 C 679.472656 643.957031 691.132812 624.445312 686.289062 605.21875 L 639.125 418.023438 C 635.285156 402.765625 621.953125 391.789062 606.246094 390.945312 L 323.832031 375.742188 L 320.445312 412.261719 C 319.027344 427.570312 306.375 439.113281 291.019531 439.113281 C 290.101562 439.113281 289.179688 439.074219 288.257812 438.988281 C 280.390625 438.257812 273.277344 434.507812 268.230469 428.429688 C 263.179688 422.351562 260.804688 414.667969 261.535156 406.800781 L 272.109375 292.742188 L 267.40625 220.636719 C 259.878906 224.15625 251.523438 226.175781 242.679688 226.175781 C 235.191406 226.175781 228.050781 224.710938 221.457031 222.144531 L 233.960938 413.902344 C 234.128906 416.492188 234.746094 418.941406 235.6875 421.214844 C 237.703125 438.386719 248.3125 456.988281 269.09375 468.761719 L 475.328125 468.761719 C 481.371094 465.066406 485.902344 460.96875 489.25 456.554688 L 575.960938 461.222656 L 616.660156 622.765625 C 620.769531 639.046875 635.390625 649.902344 651.449219 649.898438 Z M 651.449219 649.898438 " fill-opacity="1" fill-rule="nonzero"/><g clip-path="url(#20a9114c44)"><path fill="#9ded02" d="M 539.769531 518.007812 C 550.945312 518.007812 560.085938 508.863281 560.085938 497.691406 C 560.085938 486.519531 550.945312 477.378906 539.769531 477.378906 L 98.882812 477.378906 C 87.710938 477.378906 78.570312 486.519531 78.570312 497.691406 C 78.570312 508.863281 87.710938 518.007812 98.882812 518.007812 L 108.957031 518.007812 L 107.253906 526.621094 L 88.410156 621.761719 L 76.832031 621.761719 L 76.832031 650.480469 L 131.464844 650.480469 L 131.464844 621.761719 L 117.6875 621.761719 L 135 534.359375 L 503.652344 534.359375 L 520.960938 621.761719 L 507.1875 621.761719 L 507.1875 650.480469 L 561.820312 650.480469 L 561.820312 621.761719 L 550.238281 621.761719 L 531.398438 526.621094 L 529.691406 518.003906 L 539.769531 518.003906 Z M 539.769531 518.007812 " fill-opacity="1" fill-rule="nonzero"/></g><path fill="#9ded02" d="M 285.742188 217.261719 L 268.113281 407.414062 C 266.941406 420.046875 276.238281 431.242188 288.875 432.414062 C 289.59375 432.480469 290.308594 432.515625 291.023438 432.515625 C 302.75 432.515625 312.765625 423.570312 313.871094 411.65625 L 331.246094 224.28125 C 326.582031 225.480469 321.722656 226.183594 316.691406 226.183594 C 305.324219 226.175781 294.742188 222.875 285.742188 217.261719 Z M 285.742188 217.261719 " fill-opacity="1" fill-rule="nonzero"/><g clip-path="url(#29e2a3f017)"><path fill="#9ded02" d="M 273.398438 206.972656 C 266.757812 199.695312 261.929688 190.773438 259.605469 180.871094 C 255.648438 185.867188 249.546875 189.082031 242.679688 189.082031 C 230.757812 189.082031 221.09375 179.417969 221.09375 167.496094 C 221.09375 155.574219 230.757812 145.910156 242.679688 145.910156 C 249.546875 145.910156 255.648438 149.125 259.605469 154.121094 C 261.925781 144.214844 266.757812 135.292969 273.398438 128.015625 C 264.914062 121.40625 254.269531 117.433594 242.683594 117.433594 C 215.035156 117.433594 192.617188 139.847656 192.617188 167.5 C 192.617188 195.148438 215.03125 217.5625 242.683594 217.5625 C 254.269531 217.558594 264.914062 213.585938 273.398438 206.972656 Z M 273.398438 206.972656 " fill-opacity="1" fill-rule="nonzero"/></g><path fill="#9ded02" d="M 242.683594 175.296875 C 246.992188 175.296875 250.484375 171.804688 250.484375 167.496094 C 250.484375 163.1875 246.992188 159.695312 242.683594 159.695312 C 238.375 159.695312 234.882812 163.1875 234.882812 167.496094 C 234.882812 171.804688 238.375 175.296875 242.683594 175.296875 Z M 242.683594 175.296875 " fill-opacity="1" fill-rule="nonzero"/><g clip-path="url(#1c0afa2ce2)"><path fill="#9ded02" d="M 266.625 167.5 C 266.625 195.148438 289.039062 217.5625 316.6875 217.5625 C 344.339844 217.5625 366.753906 195.148438 366.753906 167.5 C 366.753906 139.847656 344.339844 117.433594 316.6875 117.433594 C 289.039062 117.433594 266.625 139.847656 266.625 167.5 Z M 316.6875 145.910156 C 328.609375 145.910156 338.277344 155.578125 338.277344 167.5 C 338.277344 179.421875 328.609375 189.085938 316.6875 189.085938 C 304.765625 189.085938 295.101562 179.421875 295.101562 167.5 C 295.101562 155.578125 304.765625 145.910156 316.6875 145.910156 Z M 316.6875 145.910156 " fill-opacity="1" fill-rule="nonzero"/></g><path fill="#9ded02" d="M 316.6875 159.699219 C 312.382812 159.699219 308.890625 163.191406 308.890625 167.5 C 308.890625 171.804688 312.382812 175.296875 316.6875 175.296875 C 320.996094 175.296875 324.488281 171.804688 324.488281 167.5 C 324.488281 163.191406 320.996094 159.699219 316.6875 159.699219 Z M 316.6875 159.699219 " fill-opacity="1" fill-rule="nonzero"/></svg>