<svg xmlns="http://www.w3.org/2000/svg" xmlns:xlink="http://www.w3.org/1999/xlink" width="1024" zoomAndPan="magnify" viewBox="0 0 768 775.92" height="1024" preserveAspectRatio="xMidYMid meet" version="1.0"><defs><clipPath id="c6e556a2d3"><path d="M 79 239 L 577 239 L 577 530.140625 L 79 530.140625 Z M 79 239 " clip-rule="nonzero"/></clipPath></defs><g clip-path="url(#c6e556a2d3)"><path fill="#9ded02" d="M 571.484375 522.683594 C 575.328125 518.039062 576.898438 511.921875 575.773438 506 L 559.332031 419.585938 C 559.144531 418.601562 558.867188 417.65625 558.546875 416.738281 L 542.050781 324.53125 C 541.859375 323.453125 541.5625 322.429688 541.210938 321.433594 C 528.25 271.941406 443.835938 244.96875 426.667969 239.96875 C 419.214844 237.804688 411.175781 240.085938 405.980469 245.851562 L 334.066406 325.648438 C 329.671875 330.523438 328.109375 336.945312 329.230469 342.929688 L 105.128906 383.03125 C 88.125 386.074219 76.8125 402.324219 79.855469 419.316406 C 82.898438 436.316406 99.136719 447.636719 116.140625 444.59375 L 340.902344 404.382812 L 342.933594 415.746094 L 118.195312 455.957031 C 101.191406 459 89.882812 475.25 92.921875 492.242188 C 95.964844 509.238281 112.207031 520.558594 129.210938 517.519531 L 403.222656 468.492188 L 523.355469 447 L 531.453125 489.554688 L 507.421875 489.554688 C 496.25 489.554688 487.1875 498.613281 487.1875 509.785156 C 487.1875 520.960938 496.25 530.019531 507.421875 530.019531 L 555.898438 530.019531 C 561.925781 530.015625 567.636719 527.328125 571.484375 522.683594 Z M 427.277344 282.664062 C 448.949219 290.265625 473.492188 302.089844 488.484375 314.257812 L 381.566406 333.390625 Z M 427.277344 282.664062 " fill-opacity="1" fill-rule="nonzero"/></g><path fill="#9ded02" d="M 644.207031 405.605469 C 674.246094 396.363281 691.101562 364.519531 681.859375 334.480469 C 672.617188 304.441406 640.769531 287.582031 610.730469 296.828125 C 580.695312 306.070312 563.835938 337.917969 573.082031 367.953125 C 582.328125 397.996094 614.167969 414.851562 644.207031 405.605469 Z M 626.8125 303.789062 C 628.117188 303.386719 629.464844 303.242188 630.828125 303.230469 C 620.554688 310.0625 617.425781 330.621094 624.089844 352.261719 C 630.746094 373.902344 644.894531 389.144531 657.230469 389.023438 C 656.097656 389.777344 654.902344 390.410156 653.597656 390.8125 C 640.460938 394.855469 623.824219 378.652344 616.429688 354.617188 C 609.03125 330.589844 613.675781 307.835938 626.8125 303.789062 Z M 626.8125 303.789062 " fill-opacity="1" fill-rule="nonzero"/></svg>