<svg xmlns="http://www.w3.org/2000/svg" xmlns:xlink="http://www.w3.org/1999/xlink" width="1024" zoomAndPan="magnify" viewBox="0 0 768 775.92" height="1024" preserveAspectRatio="xMidYMid meet" version="1.0"><defs><clipPath id="9e0242063c"><path d="M 79 300 L 541 300 L 541 476.65625 L 79 476.65625 Z M 79 300 " clip-rule="nonzero"/></clipPath></defs><g clip-path="url(#9e0242063c)"><path fill="#9ded02" d="M 109.125 476.421875 C 110.210938 476.421875 111.304688 476.363281 112.402344 476.242188 C 252.402344 461.042969 424.957031 421.265625 432.234375 419.582031 C 434.40625 419.078125 436.453125 418.335938 438.382812 417.417969 C 452 413.851562 464.804688 409.167969 478.195312 402.984375 L 477.253906 344.039062 C 477.035156 330.523438 487.855469 319.351562 501.371094 319.136719 L 501.769531 319.132812 C 515.066406 319.132812 526.0625 329.953125 526.277344 343.257812 L 526.738281 372.101562 C 541.800781 354.445312 543.179688 332.964844 536.40625 318.457031 C 527.464844 299.296875 497.644531 295.914062 475.476562 307.257812 C 443.714844 320.152344 398.589844 340.839844 356.96875 343.300781 C 323.679688 347.765625 323.234375 357.859375 327.171875 379.53125 C 327.230469 379.847656 327.292969 380.167969 327.351562 380.488281 C 264.617188 393.050781 179.675781 408.5 105.917969 416.507812 C 89.425781 418.296875 77.503906 433.121094 79.292969 449.617188 C 80.964844 465.011719 93.984375 476.421875 109.125 476.421875 Z M 109.125 476.421875 " fill-opacity="1" fill-rule="nonzero"/></g><path fill="#9ded02" d="M 520.992188 343.335938 C 520.824219 332.824219 512.25 324.414062 501.773438 324.414062 C 501.667969 324.414062 501.5625 324.414062 501.457031 324.417969 C 490.839844 324.589844 482.371094 333.332031 482.539062 343.953125 L 484.34375 456.308594 C 484.511719 466.808594 493.070312 475.230469 503.566406 475.230469 L 614.128906 475.230469 C 624.746094 475.230469 633.355469 466.621094 633.355469 456 C 633.355469 445.382812 624.746094 436.773438 614.128906 436.773438 L 522.488281 436.773438 Z M 520.992188 343.335938 " fill-opacity="1" fill-rule="nonzero"/><path fill="#9ded02" d="M 663.816406 359.34375 C 665.5625 345.722656 662.164062 331.433594 653.167969 319.652344 C 635.042969 295.917969 601.105469 291.371094 577.371094 309.496094 C 553.628906 327.625 549.089844 361.566406 567.214844 385.296875 C 583.839844 407.070312 613.734375 412.636719 636.894531 399.4375 C 634.136719 395.421875 631.441406 391.027344 628.890625 386.339844 C 615.515625 361.71875 611.179688 338.171875 618.933594 333.027344 C 614.550781 340.996094 622.480469 361.902344 638.234375 382.535156 C 650.132812 398.109375 663.371094 409.449219 672.945312 413.160156 C 677.316406 414.851562 680.925781 414.957031 683.292969 413.148438 C 690.523438 407.625 683.566406 386.265625 667.777344 364.558594 C 667.066406 363.582031 666.363281 362.601562 665.613281 361.625 C 665.023438 360.84375 664.417969 360.101562 663.816406 359.34375 Z M 663.816406 359.34375 " fill-opacity="1" fill-rule="nonzero"/></svg>