<svg xmlns="http://www.w3.org/2000/svg" xmlns:xlink="http://www.w3.org/1999/xlink" width="1024" zoomAndPan="magnify" viewBox="0 0 768 775.92" height="1024" preserveAspectRatio="xMidYMid meet" version="1.0"><defs><clipPath id="d521ab7b91"><path d="M 77 213.867188 L 691 213.867188 L 691 554.332031 L 77 554.332031 Z M 77 213.867188 " clip-rule="nonzero"/></clipPath></defs><path fill="#9ded02" d="M 407.925781 323.320312 C 407.925781 324.101562 407.886719 324.882812 407.808594 325.664062 C 407.734375 326.445312 407.617188 327.21875 407.464844 327.988281 C 407.3125 328.753906 407.121094 329.515625 406.894531 330.265625 C 406.667969 331.015625 406.402344 331.75 406.105469 332.476562 C 405.804688 333.199219 405.46875 333.90625 405.101562 334.597656 C 404.730469 335.289062 404.328125 335.960938 403.894531 336.613281 C 403.457031 337.265625 402.992188 337.890625 402.492188 338.5 C 401.996094 339.105469 401.472656 339.683594 400.917969 340.238281 C 400.363281 340.792969 399.78125 341.316406 399.175781 341.816406 C 398.570312 342.3125 397.941406 342.777344 397.292969 343.214844 C 396.640625 343.648438 395.96875 344.050781 395.277344 344.421875 C 394.585938 344.789062 393.878906 345.125 393.15625 345.425781 C 392.429688 345.722656 391.695312 345.988281 390.945312 346.214844 C 390.195312 346.441406 389.433594 346.632812 388.667969 346.785156 C 387.898438 346.9375 387.125 347.054688 386.34375 347.128906 C 385.5625 347.207031 384.78125 347.246094 384 347.246094 C 383.214844 347.246094 382.433594 347.207031 381.652344 347.128906 C 380.875 347.054688 380.097656 346.9375 379.332031 346.785156 C 378.5625 346.632812 377.804688 346.441406 377.054688 346.214844 C 376.304688 345.988281 375.566406 345.722656 374.84375 345.425781 C 374.117188 345.125 373.410156 344.789062 372.71875 344.421875 C 372.027344 344.050781 371.355469 343.648438 370.707031 343.214844 C 370.054688 342.777344 369.425781 342.3125 368.820312 341.816406 C 368.214844 341.316406 367.632812 340.792969 367.078125 340.238281 C 366.527344 339.683594 366 339.105469 365.503906 338.5 C 365.003906 337.890625 364.539062 337.265625 364.105469 336.613281 C 363.667969 335.960938 363.265625 335.289062 362.898438 334.597656 C 362.527344 333.90625 362.191406 333.199219 361.894531 332.476562 C 361.59375 331.75 361.328125 331.015625 361.101562 330.265625 C 360.875 329.515625 360.683594 328.753906 360.53125 327.988281 C 360.378906 327.21875 360.265625 326.445312 360.1875 325.664062 C 360.109375 324.882812 360.070312 324.101562 360.070312 323.320312 C 360.070312 322.535156 360.109375 321.753906 360.1875 320.972656 C 360.265625 320.195312 360.378906 319.421875 360.53125 318.652344 C 360.683594 317.882812 360.875 317.125 361.101562 316.375 C 361.328125 315.625 361.59375 314.886719 361.894531 314.164062 C 362.191406 313.4375 362.527344 312.730469 362.898438 312.039062 C 363.265625 311.347656 363.667969 310.679688 364.105469 310.027344 C 364.539062 309.375 365.003906 308.746094 365.503906 308.140625 C 366 307.535156 366.527344 306.953125 367.078125 306.402344 C 367.632812 305.847656 368.214844 305.320312 368.820312 304.824219 C 369.425781 304.328125 370.054688 303.859375 370.707031 303.425781 C 371.355469 302.988281 372.027344 302.585938 372.71875 302.21875 C 373.410156 301.847656 374.117188 301.515625 374.84375 301.214844 C 375.566406 300.914062 376.304688 300.648438 377.054688 300.421875 C 377.804688 300.195312 378.5625 300.003906 379.332031 299.851562 C 380.097656 299.699219 380.875 299.585938 381.652344 299.507812 C 382.433594 299.429688 383.214844 299.394531 384 299.394531 C 384.78125 299.394531 385.5625 299.429688 386.34375 299.507812 C 387.125 299.585938 387.898438 299.699219 388.667969 299.851562 C 389.433594 300.003906 390.195312 300.195312 390.945312 300.421875 C 391.695312 300.648438 392.429688 300.914062 393.15625 301.214844 C 393.878906 301.515625 394.585938 301.847656 395.277344 302.21875 C 395.96875 302.585938 396.640625 302.988281 397.292969 303.425781 C 397.941406 303.859375 398.570312 304.328125 399.175781 304.824219 C 399.78125 305.320312 400.363281 305.847656 400.917969 306.402344 C 401.472656 306.953125 401.996094 307.535156 402.492188 308.140625 C 402.992188 308.746094 403.457031 309.375 403.894531 310.027344 C 404.328125 310.679688 404.730469 311.347656 405.101562 312.039062 C 405.46875 312.730469 405.804688 313.4375 406.105469 314.164062 C 406.402344 314.886719 406.667969 315.625 406.894531 316.375 C 407.121094 317.125 407.3125 317.882812 407.464844 318.652344 C 407.617188 319.421875 407.734375 320.195312 407.808594 320.972656 C 407.886719 321.753906 407.925781 322.535156 407.925781 323.320312 Z M 407.925781 323.320312 " fill-opacity="1" fill-rule="nonzero"/><path fill="#9ded02" d="M 116.445312 227.96875 C 116.445312 226.671875 115.394531 225.621094 114.09375 225.621094 C 112.796875 225.621094 111.746094 226.671875 111.746094 227.96875 C 111.746094 229.269531 112.796875 230.320312 114.09375 230.320312 C 115.394531 230.320312 116.445312 229.269531 116.445312 227.96875 Z M 116.445312 227.96875 " fill-opacity="1" fill-rule="nonzero"/><path fill="#9ded02" d="M 188.78125 227.96875 C 188.78125 229.269531 189.832031 230.320312 191.132812 230.320312 C 192.429688 230.320312 193.484375 229.269531 193.484375 227.96875 C 193.484375 226.671875 192.429688 225.621094 191.132812 225.621094 C 189.832031 225.621094 188.78125 226.671875 188.78125 227.96875 Z M 188.78125 227.96875 " fill-opacity="1" fill-rule="nonzero"/><g clip-path="url(#d521ab7b91)"><path fill="#9ded02" d="M 537.996094 338.21875 C 540.515625 338.21875 542.5625 336.171875 542.5625 333.648438 C 542.5625 332.746094 542.289062 331.910156 541.835938 331.199219 L 578.535156 295.414062 C 580.019531 296.492188 581.835938 297.136719 583.800781 297.136719 L 588.792969 297.136719 L 588.792969 300.933594 L 592.417969 300.933594 L 592.417969 542.792969 L 572.429688 542.792969 L 572.429688 554.074219 L 686.738281 554.074219 L 686.738281 542.792969 L 673.105469 542.792969 L 673.105469 349.367188 L 650.695312 349.367188 L 650.695312 242.074219 L 656.6875 242.074219 C 662.441406 242.074219 667.410156 238.578125 669.597656 233.613281 L 690.527344 233.613281 L 690.527344 222.328125 L 669.597656 222.328125 C 667.410156 217.359375 662.441406 213.867188 656.6875 213.867188 L 574.078125 213.867188 C 568.324219 213.867188 563.355469 217.359375 561.167969 222.328125 L 206.828125 222.328125 C 204.640625 217.359375 199.671875 213.867188 193.917969 213.867188 L 111.308594 213.867188 C 105.554688 213.867188 100.585938 217.359375 98.398438 222.328125 L 77.46875 222.328125 L 77.46875 233.613281 L 98.398438 233.613281 C 100.585938 238.582031 105.554688 242.074219 111.308594 242.074219 L 117.300781 242.074219 L 117.300781 349.367188 L 94.890625 349.367188 L 94.890625 542.796875 L 81.257812 542.796875 L 81.257812 554.078125 L 195.570312 554.078125 L 195.570312 542.796875 L 175.578125 542.796875 L 175.578125 300.933594 L 179.203125 300.933594 L 179.203125 297.140625 L 184.195312 297.140625 C 186.160156 297.140625 187.976562 296.496094 189.460938 295.417969 L 226.160156 331.199219 C 225.707031 331.910156 225.433594 332.746094 225.433594 333.652344 C 225.433594 336.171875 227.480469 338.21875 230.003906 338.21875 C 230.949219 338.21875 231.828125 337.929688 232.558594 337.4375 L 248.371094 352.859375 L 245.515625 365.140625 C 244.996094 367.378906 245.535156 369.683594 246.996094 371.457031 C 248.398438 373.164062 250.449219 374.128906 252.644531 374.128906 C 252.730469 374.128906 252.820312 374.128906 252.90625 374.125 L 260.488281 373.867188 C 263.792969 373.753906 266.625 371.421875 267.375 368.203125 L 267.832031 366.238281 C 268.128906 366.34375 268.433594 366.4375 268.746094 366.511719 L 316.566406 377.792969 C 317.210938 377.945312 317.867188 378.023438 318.519531 378.023438 C 319.003906 378.023438 319.484375 377.980469 319.960938 377.898438 L 355.238281 371.839844 L 355.238281 425.972656 L 346.164062 537.195312 C 345.574219 544.433594 350.964844 550.777344 358.203125 551.367188 C 365.4375 551.953125 371.785156 546.570312 372.375 539.332031 L 380.273438 442.472656 L 387.71875 442.472656 L 395.621094 539.332031 C 396.210938 546.570312 402.558594 551.957031 409.792969 551.367188 C 417.03125 550.777344 422.417969 544.433594 421.828125 537.195312 L 412.757812 425.972656 L 412.757812 371.839844 L 448.035156 377.898438 C 448.511719 377.980469 448.992188 378.023438 449.472656 378.023438 C 450.128906 378.023438 450.785156 377.945312 451.425781 377.792969 L 499.246094 366.511719 C 499.5625 366.4375 499.867188 366.34375 500.164062 366.238281 L 500.621094 368.203125 C 501.371094 371.421875 504.203125 373.753906 507.507812 373.867188 L 515.089844 374.125 C 515.175781 374.128906 515.265625 374.128906 515.351562 374.128906 C 517.550781 374.128906 519.597656 373.164062 521.003906 371.457031 C 522.464844 369.679688 523 367.378906 522.480469 365.140625 L 519.625 352.859375 L 535.441406 337.4375 C 536.167969 337.929688 537.046875 338.21875 537.996094 338.21875 Z M 583.128906 291.496094 C 582.839844 291.496094 582.5625 291.449219 582.296875 291.382812 C 582.425781 290.863281 582.320312 290.300781 581.917969 289.890625 C 581.429688 289.386719 580.703125 289.292969 580.101562 289.574219 C 579.894531 289.136719 579.769531 288.65625 579.769531 288.136719 C 579.769531 286.285156 581.273438 284.78125 583.128906 284.78125 C 584.980469 284.78125 586.484375 286.285156 586.484375 288.136719 C 586.484375 289.992188 584.980469 291.496094 583.128906 291.496094 Z M 603.703125 300.933594 L 607.328125 300.933594 L 607.328125 275.34375 L 603.703125 275.34375 L 603.703125 242.074219 L 623.941406 242.074219 L 623.941406 349.367188 L 610.398438 349.367188 L 610.398438 542.792969 L 603.703125 542.792969 Z M 646.105469 349.367188 L 635.222656 349.367188 L 635.222656 242.074219 L 646.105469 242.074219 Z M 659.742188 227.96875 C 659.742188 231.199219 657.128906 233.8125 653.902344 233.8125 C 650.671875 233.8125 648.058594 231.199219 648.058594 227.96875 C 648.058594 224.742188 650.671875 222.125 653.902344 222.125 C 657.128906 222.125 659.742188 224.742188 659.742188 227.96875 Z M 576.867188 222.125 C 580.09375 222.125 582.707031 224.742188 582.707031 227.96875 C 582.707031 231.199219 580.09375 233.8125 576.867188 233.8125 C 573.636719 233.8125 571.023438 231.199219 571.023438 227.96875 C 571.023438 224.742188 573.636719 222.125 576.867188 222.125 Z M 196.972656 227.96875 C 196.972656 231.199219 194.359375 233.8125 191.128906 233.8125 C 187.902344 233.8125 185.289062 231.199219 185.289062 227.96875 C 185.289062 224.742188 187.902344 222.125 191.128906 222.125 C 194.359375 222.125 196.972656 224.742188 196.972656 227.96875 Z M 108.253906 227.96875 C 108.253906 224.742188 110.867188 222.125 114.097656 222.125 C 117.324219 222.125 119.941406 224.742188 119.941406 227.96875 C 119.941406 231.199219 117.324219 233.8125 114.097656 233.8125 C 110.867188 233.8125 108.253906 231.199219 108.253906 227.96875 Z M 121.890625 242.074219 L 132.773438 242.074219 L 132.773438 349.367188 L 121.890625 349.367188 Z M 164.292969 542.792969 L 157.601562 542.792969 L 157.601562 349.367188 L 144.054688 349.367188 L 144.054688 242.074219 L 164.292969 242.074219 L 164.292969 275.34375 L 160.667969 275.34375 L 160.667969 300.933594 L 164.292969 300.933594 Z M 181.511719 288.140625 C 181.511719 286.285156 183.011719 284.78125 184.867188 284.78125 C 186.722656 284.78125 188.226562 286.285156 188.226562 288.140625 C 188.226562 288.65625 188.101562 289.140625 187.890625 289.578125 C 187.292969 289.292969 186.5625 289.390625 186.078125 289.890625 C 185.675781 290.300781 185.570312 290.863281 185.699219 291.382812 C 185.433594 291.449219 185.15625 291.5 184.867188 291.5 C 183.011719 291.496094 181.511719 289.996094 181.511719 288.140625 Z M 260.34375 369.613281 L 252.757812 369.875 C 251.800781 369.917969 250.890625 369.5 250.28125 368.753906 C 249.667969 368.011719 249.441406 367.042969 249.660156 366.105469 L 252.097656 355.621094 C 252.441406 355.578125 252.777344 355.449219 253.039062 355.179688 C 253.65625 354.550781 253.640625 353.539062 253.011719 352.925781 L 252.777344 352.695312 L 255.515625 340.925781 C 255.734375 339.984375 256.363281 339.21875 257.242188 338.820312 C 257.648438 338.632812 258.082031 338.542969 258.511719 338.542969 C 259.011719 338.542969 259.503906 338.664062 259.960938 338.910156 L 266.652344 342.488281 C 267.875 343.140625 268.511719 344.542969 268.195312 345.894531 L 267.121094 350.523438 C 264.839844 351.585938 263.046875 353.636719 262.421875 356.277344 C 261.796875 358.9375 262.496094 361.59375 264.085938 363.566406 L 263.234375 367.234375 C 262.917969 368.589844 261.730469 369.566406 260.34375 369.613281 Z M 517.71875 368.753906 C 517.105469 369.5 516.210938 369.902344 515.238281 369.875 L 507.65625 369.613281 C 506.269531 369.566406 505.078125 368.589844 504.765625 367.238281 L 503.910156 363.566406 C 505.5 361.59375 506.203125 358.9375 505.574219 356.277344 C 504.953125 353.640625 503.160156 351.585938 500.878906 350.523438 L 499.800781 345.898438 C 499.488281 344.546875 500.121094 343.144531 501.34375 342.488281 L 508.035156 338.910156 C 508.886719 338.453125 509.878906 338.421875 510.757812 338.820312 C 511.636719 339.21875 512.265625 339.984375 512.480469 340.925781 L 515.21875 352.699219 L 514.988281 352.925781 C 514.355469 353.539062 514.34375 354.550781 514.960938 355.179688 C 515.21875 355.449219 515.558594 355.578125 515.902344 355.625 L 518.339844 366.105469 C 518.554688 367.042969 518.332031 368.011719 517.71875 368.753906 Z M 516.625 339.960938 C 516.105469 337.722656 514.605469 335.894531 512.511719 334.945312 C 510.417969 333.996094 508.054688 334.074219 506.03125 335.15625 L 499.339844 338.738281 C 496.421875 340.296875 494.910156 343.636719 495.660156 346.859375 L 496.335938 349.78125 C 496.007812 349.820312 495.671875 349.871094 495.339844 349.949219 L 449.207031 360.835938 L 406.265625 353.460938 C 406.050781 353.425781 405.839844 353.402344 405.628906 353.382812 C 405.269531 353.335938 404.910156 353.304688 404.539062 353.304688 L 363.457031 353.304688 C 363.085938 353.304688 362.722656 353.335938 362.367188 353.386719 C 362.152344 353.40625 361.945312 353.425781 361.730469 353.460938 L 318.789062 360.835938 L 272.65625 349.949219 C 272.324219 349.871094 271.988281 349.820312 271.65625 349.78125 L 272.335938 346.859375 C 273.085938 343.640625 271.574219 340.296875 268.65625 338.738281 L 261.964844 335.15625 C 259.9375 334.074219 257.578125 333.996094 255.484375 334.945312 C 253.390625 335.894531 251.890625 337.722656 251.371094 339.960938 L 249.214844 349.226562 L 234.40625 334.785156 C 234.5 334.421875 234.566406 334.042969 234.566406 333.648438 C 234.566406 331.128906 232.523438 329.082031 230 329.082031 C 229.5625 329.082031 229.152344 329.164062 228.753906 329.277344 L 191.679688 293.121094 C 192.636719 291.695312 193.195312 289.980469 193.195312 288.140625 C 193.195312 283.191406 189.148438 279.140625 184.195312 279.140625 L 179.203125 279.140625 L 179.203125 275.347656 L 175.578125 275.347656 L 175.578125 242.074219 L 193.917969 242.074219 C 199.671875 242.074219 204.640625 238.578125 206.828125 233.613281 L 561.167969 233.613281 C 563.355469 238.578125 568.324219 242.074219 574.078125 242.074219 L 592.417969 242.074219 L 592.417969 275.34375 L 588.789062 275.34375 L 588.789062 279.140625 L 583.796875 279.140625 C 578.847656 279.140625 574.796875 283.191406 574.796875 288.136719 C 574.796875 289.976562 575.359375 291.691406 576.316406 293.121094 L 539.238281 329.277344 C 538.839844 329.164062 538.425781 329.082031 537.992188 329.082031 C 535.472656 329.082031 533.425781 331.128906 533.425781 333.648438 C 533.425781 334.042969 533.492188 334.421875 533.585938 334.785156 L 518.777344 349.226562 Z M 516.625 339.960938 " fill-opacity="1" fill-rule="nonzero"/></g><path fill="#9ded02" d="M 651.550781 227.96875 C 651.550781 229.269531 652.601562 230.320312 653.902344 230.320312 C 655.199219 230.320312 656.25 229.269531 656.25 227.96875 C 656.25 226.671875 655.199219 225.621094 653.902344 225.621094 C 652.601562 225.621094 651.550781 226.671875 651.550781 227.96875 Z M 651.550781 227.96875 " fill-opacity="1" fill-rule="nonzero"/><path fill="#9ded02" d="M 576.867188 230.320312 C 578.164062 230.320312 579.214844 229.269531 579.214844 227.96875 C 579.214844 226.671875 578.164062 225.621094 576.867188 225.621094 C 575.566406 225.621094 574.515625 226.671875 574.515625 227.96875 C 574.515625 229.269531 575.566406 230.320312 576.867188 230.320312 Z M 576.867188 230.320312 " fill-opacity="1" fill-rule="nonzero"/></svg>