<svg xmlns="http://www.w3.org/2000/svg" xmlns:xlink="http://www.w3.org/1999/xlink" width="1024" zoomAndPan="magnify" viewBox="0 0 768 775.92" height="1024" preserveAspectRatio="xMidYMid meet" version="1.0"><defs><clipPath id="7e634b6146"><path d="M 76.832031 103 L 603 103 L 603 681 L 76.832031 681 Z M 76.832031 103 " clip-rule="nonzero"/></clipPath><clipPath id="70c27cefc9"><path d="M 233 87.160156 L 408 87.160156 L 408 262 L 233 262 Z M 233 87.160156 " clip-rule="nonzero"/></clipPath></defs><g clip-path="url(#7e634b6146)"><path fill="#9ded02" d="M 90.769531 103.785156 L 90.769531 655.320312 L 76.832031 655.320312 L 76.832031 680.589844 L 129.976562 680.589844 L 129.976562 655.320312 L 116.039062 655.320312 L 116.039062 596.984375 L 549.976562 596.984375 C 557.527344 596.984375 563.675781 603.128906 563.675781 610.683594 L 563.675781 655.320312 L 549.734375 655.320312 L 549.734375 680.589844 L 602.882812 680.589844 L 602.882812 655.320312 L 588.941406 655.320312 L 588.941406 610.683594 C 588.941406 589.195312 571.460938 571.714844 549.972656 571.714844 L 241.3125 571.714844 L 277.078125 503.382812 L 280.605469 496.640625 L 376.023438 556.785156 C 384.328125 562.046875 403.460938 531.847656 395.15625 526.582031 L 174.363281 387.417969 C 166.058594 382.15625 154.957031 384.644531 149.695312 392.949219 C 144.433594 401.253906 146.925781 412.355469 155.230469 417.617188 L 259.160156 483.125 L 255.632812 489.863281 L 212.792969 571.714844 L 116.042969 571.714844 L 116.042969 233.648438 L 156.914062 233.648438 L 167.050781 220.695312 L 159.089844 214.464844 L 151.988281 223.539062 L 125.988281 223.539062 L 125.988281 181.667969 L 116.039062 181.667969 L 116.039062 103.785156 Z M 90.769531 103.785156 " fill-opacity="1" fill-rule="nonzero"/></g><path fill="#9ded02" d="M 221.148438 407.949219 C 242.972656 408.441406 264.074219 396.285156 273.941406 375.253906 C 287.277344 346.820312 275.042969 312.964844 246.613281 299.628906 C 218.183594 286.289062 184.324219 298.523438 170.988281 326.957031 C 163 343.980469 164.191406 362.949219 172.535156 378.296875 C 174.558594 378.941406 176.539062 379.824219 178.417969 381.015625 Z M 221.148438 407.949219 " fill-opacity="1" fill-rule="nonzero"/><path fill="#9ded02" d="M 402.742188 523.609375 C 405.039062 521.3125 407.867188 520.054688 411.148438 520.054688 L 550.960938 520.054688 C 561.195312 520.054688 570.015625 526.136719 574.054688 534.871094 L 574.417969 534.882812 L 626.113281 660.234375 C 631.140625 672.421875 642.914062 679.789062 655.332031 679.789062 C 659.34375 679.789062 663.421875 679.019531 667.363281 677.394531 C 683.492188 670.742188 691.171875 652.277344 684.519531 636.148438 L 625.148438 492.183594 C 620.464844 480.832031 609.625 473.222656 597.355469 472.671875 L 460.925781 466.5625 C 458.160156 465.300781 455.105469 464.003906 451.710938 462.652344 C 409.90625 449.472656 376.457031 408.3125 347.378906 387.023438 C 347.195312 386.863281 347 386.726562 346.816406 386.570312 L 346.816406 403.847656 C 346.816406 418.203125 335.140625 429.878906 320.785156 429.878906 C 306.433594 429.878906 294.757812 418.203125 294.757812 403.847656 L 294.757812 374.160156 C 289.9375 375.953125 285.671875 378.777344 282.378906 382.824219 C 270.71875 397.148438 266.921875 422.542969 282.0625 446.339844 L 399.214844 520.179688 C 400.675781 521.105469 401.851562 522.257812 402.742188 523.609375 Z M 402.742188 523.609375 " fill-opacity="1" fill-rule="nonzero"/><path fill="#9ded02" d="M 411.148438 563.386719 L 550.960938 563.386719 C 560.792969 563.386719 568.835938 555.34375 568.835938 545.511719 C 568.835938 535.679688 560.792969 527.632812 550.960938 527.632812 L 411.148438 527.632812 C 401.316406 527.636719 401.316406 563.386719 411.148438 563.386719 Z M 411.148438 563.386719 " fill-opacity="1" fill-rule="nonzero"/><path fill="#9ded02" d="M 300.570312 403.847656 C 300.570312 415.011719 309.621094 424.066406 320.785156 424.066406 C 331.949219 424.066406 341.003906 415.011719 341.003906 403.847656 L 341.003906 266.433594 C 334.484375 267.863281 327.726562 268.640625 320.785156 268.640625 C 313.847656 268.640625 307.085938 267.867188 300.570312 266.4375 Z M 300.570312 403.847656 " fill-opacity="1" fill-rule="nonzero"/><g clip-path="url(#70c27cefc9)"><path fill="#9ded02" d="M 320.785156 261.058594 C 368.738281 261.058594 407.609375 222.183594 407.609375 174.234375 C 407.609375 126.28125 368.738281 87.410156 320.785156 87.410156 C 272.835938 87.410156 233.960938 126.28125 233.960938 174.234375 C 233.960938 222.183594 272.832031 261.058594 320.785156 261.058594 Z M 279.925781 174.234375 C 279.925781 151.667969 298.21875 133.375 320.785156 133.375 C 343.351562 133.375 361.640625 151.667969 361.640625 174.234375 C 361.640625 196.796875 343.347656 215.089844 320.785156 215.089844 C 298.21875 215.089844 279.925781 196.796875 279.925781 174.234375 Z M 279.925781 174.234375 " fill-opacity="1" fill-rule="nonzero"/></g><path fill="#9ded02" d="M 320.785156 194.980469 C 332.246094 194.980469 341.535156 185.691406 341.535156 174.230469 C 341.535156 162.769531 332.246094 153.480469 320.785156 153.480469 C 309.328125 153.480469 300.039062 162.769531 300.039062 174.230469 C 300.039062 185.691406 309.324219 194.980469 320.785156 194.980469 Z M 320.785156 194.980469 " fill-opacity="1" fill-rule="nonzero"/></svg>