<svg xmlns="http://www.w3.org/2000/svg" xmlns:xlink="http://www.w3.org/1999/xlink" width="1024" zoomAndPan="magnify" viewBox="0 0 768 775.92" height="1024" preserveAspectRatio="xMidYMid meet" version="1.0"><defs><clipPath id="7d52d8b207"><path d="M 86 560 L 113 560 L 113 578.007812 L 86 578.007812 Z M 86 560 " clip-rule="nonzero"/></clipPath><clipPath id="1ced06bf6a"><path d="M 276 189.546875 L 691 189.546875 L 691 350 L 276 350 Z M 276 189.546875 " clip-rule="nonzero"/></clipPath></defs><path fill="#9ded02" d="M 208.757812 312.394531 C 208.578125 312.46875 208.398438 312.527344 208.207031 312.585938 L 208.160156 312.609375 L 208.003906 312.65625 L 207.96875 312.667969 L 207.800781 312.71875 L 207.765625 312.71875 L 207.601562 312.765625 L 207.574219 312.777344 L 207.398438 312.8125 L 207.375 312.824219 L 206.96875 312.894531 L 206.789062 312.933594 L 206.753906 312.933594 C 206.242188 313.003906 205.726562 313.039062 205.214844 313.027344 L 105.308594 313.027344 C 97.128906 313.027344 88.359375 318.5 83.496094 326.640625 C 80.609375 331.480469 76.796875 341.242188 83.746094 352.265625 C 83.78125 352.3125 83.804688 352.347656 83.828125 352.398438 L 118.859375 410.375 L 203.09375 410.375 C 210.339844 410.375 216.230469 404.78125 216.230469 397.917969 C 216.230469 391.039062 210.339844 385.449219 203.09375 385.449219 L 146.296875 385.449219 L 146.167969 385.4375 L 146.023438 385.4375 L 145.917969 385.425781 L 145.894531 385.425781 L 145.761719 385.414062 L 145.617188 385.402344 L 145.5 385.390625 L 145.488281 385.390625 L 145.355469 385.367188 C 144.546875 385.257812 143.769531 385.03125 143.054688 384.722656 L 142.949219 384.675781 L 142.9375 384.664062 L 142.804688 384.605469 L 142.6875 384.542969 L 142.589844 384.496094 L 142.449219 384.425781 L 142.414062 384.402344 L 142.339844 384.363281 L 142.246094 384.304688 L 142.222656 384.292969 L 142.066406 384.210938 L 141.996094 384.164062 L 141.898438 384.101562 L 141.578125 383.875 L 141.542969 383.863281 C 140.933594 383.421875 140.375 382.898438 139.898438 382.292969 L 139.886719 382.277344 L 139.648438 381.96875 L 139.648438 381.957031 L 139.5625 381.851562 L 139.539062 381.800781 L 139.433594 381.648438 L 139.410156 381.613281 L 139.335938 381.492188 L 139.335938 381.480469 L 118.453125 347.164062 C 116.152344 343.375 117.511719 338.535156 121.503906 336.355469 C 125.488281 334.171875 130.589844 335.472656 132.890625 339.25 L 151.363281 369.632812 L 162.234375 369.632812 L 163.9375 355.484375 C 164.308594 352.398438 166.550781 349.8125 169.671875 348.855469 L 238.851562 327.734375 L 290.164062 308.070312 C 298.9375 304.707031 299.390625 297.269531 297.125 291.941406 C 294.863281 286.613281 289.105469 281.597656 280.332031 284.957031 Z M 208.757812 312.394531 " fill-opacity="1" fill-rule="evenodd"/><path fill="#9ded02" d="M 154.855469 301.273438 C 131.316406 301.273438 112.160156 282.371094 112.160156 259.128906 C 112.160156 235.871094 131.316406 216.96875 154.855469 216.96875 C 178.398438 216.96875 197.539062 235.871094 197.539062 259.128906 C 197.539062 282.371094 178.398438 301.273438 154.855469 301.273438 Z M 154.855469 301.273438 " fill-opacity="1" fill-rule="evenodd"/><g clip-path="url(#7d52d8b207)"><path fill="#9ded02" d="M 87.867188 560.320312 L 87.09375 563.574219 C 86.140625 567.601562 87.273438 572.40625 89.894531 575.515625 C 91.433594 577.339844 93.222656 578.269531 95.210938 578.269531 L 96.820312 578.269531 C 107.214844 578.304688 110.300781 578.316406 112.472656 570.046875 C 106.90625 563.859375 98.75 560.25 90.074219 560.25 C 89.335938 560.25 88.609375 560.273438 87.867188 560.320312 Z M 87.867188 560.320312 " fill-opacity="1" fill-rule="evenodd"/></g><path fill="#9ded02" d="M 181.339844 554.015625 C 182.292969 565.503906 187.265625 572.953125 194.308594 572.953125 C 201.542969 572.953125 207.433594 567.363281 207.433594 560.5 L 207.433594 554.347656 C 203.320312 552.34375 198.753906 551.296875 194.046875 551.296875 C 189.601562 551.296875 185.273438 552.226562 181.339844 554.015625 Z M 181.339844 554.015625 " fill-opacity="1" fill-rule="evenodd"/><path fill="#9ded02" d="M 114.042969 426.191406 L 113.601562 426.179688 L 113.496094 426.179688 L 113.402344 426.167969 L 113.363281 426.167969 L 113.234375 426.15625 L 113.1875 426.144531 L 113.101562 426.144531 L 112.972656 426.128906 L 112.960938 426.117188 L 112.828125 426.105469 L 112.769531 426.09375 L 112.695312 426.082031 L 112.566406 426.070312 L 112.433594 426.046875 L 112.351562 426.023438 L 112.304688 426.011719 L 112.171875 425.988281 L 112.148438 425.988281 L 112.042969 425.964844 L 111.957031 425.941406 L 111.910156 425.929688 L 111.78125 425.890625 L 111.753906 425.890625 L 111.648438 425.855469 L 111.515625 425.820312 L 111.398438 425.785156 L 111.363281 425.773438 L 111.265625 425.738281 L 110.886719 425.605469 L 110.789062 425.570312 L 110.648438 425.5 L 110.609375 425.488281 L 110.515625 425.453125 L 110.398438 425.390625 L 110.277344 425.34375 L 110.242188 425.320312 L 110.160156 425.285156 L 110.0625 425.238281 L 110.039062 425.226562 L 109.921875 425.152344 L 109.882812 425.140625 L 109.800781 425.09375 L 109.574219 424.960938 L 109.550781 424.9375 L 109.457031 424.890625 L 109.371094 424.832031 C 108.667969 424.390625 108.023438 423.832031 107.476562 423.164062 L 107.441406 423.113281 L 107.355469 423.007812 L 107.273438 422.902344 L 107.238281 422.863281 L 107.128906 422.699219 L 107.105469 422.675781 L 107.035156 422.566406 L 107.011719 422.542969 L 106.953125 422.449219 L 106.878906 422.328125 L 106.808594 422.222656 L 106.808594 422.210938 L 106.796875 422.199219 L 91.230469 396.441406 C 83.445312 423.84375 88.726562 437.859375 99.179688 465.621094 C 101.0625 470.648438 103.03125 475.847656 105.117188 481.6875 C 105.1875 481.867188 105.246094 482.058594 105.308594 482.234375 C 105.4375 482.6875 105.535156 483.140625 105.582031 483.605469 L 105.59375 483.75 L 105.59375 483.796875 L 105.605469 483.953125 L 105.617188 484 L 105.617188 484.773438 L 105.605469 484.929688 L 105.605469 484.964844 L 105.59375 485.132812 L 105.582031 485.15625 L 105.570312 485.324219 L 105.558594 485.347656 L 105.535156 485.527344 L 105.535156 485.539062 L 105.496094 485.726562 L 105.460938 485.917969 L 105.460938 485.929688 L 105.425781 486.097656 L 105.414062 486.121094 L 91.625 544.457031 C 100.730469 544.742188 109.394531 547.566406 116.65625 552.429688 L 130.21875 495.085938 L 118.085938 438.921875 C 117.347656 435.5 119.050781 432.03125 122.292969 430.375 C 125.535156 428.71875 129.539062 429.277344 132.136719 431.746094 L 178.585938 475.835938 L 178.730469 475.964844 L 179.003906 476.238281 L 179.027344 476.253906 C 179.171875 476.40625 179.304688 476.5625 179.433594 476.71875 L 179.515625 476.824219 L 179.566406 476.882812 L 179.636719 476.980469 L 179.683594 477.039062 L 179.804688 477.207031 L 179.863281 477.289062 L 179.910156 477.371094 L 179.96875 477.457031 L 180.019531 477.539062 C 180.757812 478.71875 181.175781 480.089844 181.175781 481.554688 L 181.175781 537.207031 C 185.324219 536.0625 189.648438 535.480469 194.046875 535.480469 C 198.636719 535.480469 203.128906 536.113281 207.433594 537.351562 L 207.433594 478.003906 L 155.011719 426.191406 Z M 114.042969 426.191406 " fill-opacity="1" fill-rule="evenodd"/><g clip-path="url(#1ced06bf6a)"><path fill="#9ded02" d="M 567.996094 349.261719 C 567.863281 349.261719 567.734375 349.261719 567.601562 349.261719 C 536.515625 349.046875 507.457031 322.683594 481.234375 270.890625 C 458.910156 226.824219 433.53125 204.273438 405.796875 203.855469 C 405.535156 203.855469 405.257812 203.855469 404.984375 203.855469 C 345.257812 203.855469 290.429688 303.050781 289.878906 304.050781 C 287.984375 307.53125 283.597656 308.832031 280.082031 306.960938 C 276.566406 305.089844 275.242188 300.761719 277.136719 297.28125 C 279.546875 292.859375 336.640625 189.566406 404.996094 189.566406 C 405.332031 189.566406 405.664062 189.566406 406 189.566406 C 439.574219 190.066406 469.242188 215.277344 494.167969 264.503906 C 517.765625 311.085938 542.511719 334.792969 567.710938 334.972656 C 567.804688 334.972656 567.898438 334.972656 567.984375 334.972656 C 614.195312 334.972656 655.78125 255.683594 671.457031 225.789062 C 673.421875 222.046875 675.128906 218.804688 676.511719 216.3125 C 678.417969 212.84375 682.816406 211.570312 686.320312 213.464844 C 689.835938 215.359375 691.125 219.699219 689.203125 223.15625 C 687.90625 225.515625 686.234375 228.699219 684.304688 232.367188 C 665.949219 267.375 623.003906 349.25 567.996094 349.261719 Z M 567.996094 349.261719 " fill-opacity="1" fill-rule="evenodd"/></g><path fill="#9ded02" d="M 602.441406 488.671875 C 602.417969 488.671875 602.394531 488.671875 602.359375 488.660156 C 597.867188 488.613281 595.921875 485.894531 590.140625 477.824219 C 577.136719 459.648438 546.671875 417.097656 500.351562 410.195312 C 472.390625 406.023438 442.640625 415.761719 411.921875 439.109375 C 369.5625 471.304688 328.460938 483.523438 289.75 475.382812 C 229.828125 462.796875 198.265625 406.273438 196.957031 403.878906 C 195.046875 400.398438 196.359375 396.070312 199.875 394.1875 C 203.390625 392.316406 207.777344 393.601562 209.671875 397.070312 C 209.972656 397.597656 239.519531 450.292969 292.871094 461.4375 C 327.210938 468.601562 364.292969 457.277344 403.089844 427.789062 C 437.046875 401.96875 470.507812 391.289062 502.511719 396.058594 C 554.917969 403.867188 587.878906 449.910156 601.953125 469.578125 C 603.394531 471.589844 604.980469 473.808594 605.957031 475.046875 C 606.316406 475.226562 606.648438 475.429688 606.972656 475.667969 C 610.179688 478.015625 610.859375 482.496094 608.472656 485.667969 C 607.066406 487.550781 604.816406 488.671875 602.441406 488.671875 Z M 602.441406 488.671875 " fill-opacity="1" fill-rule="evenodd"/></svg>