<svg xmlns="http://www.w3.org/2000/svg" xmlns:xlink="http://www.w3.org/1999/xlink" width="1024" zoomAndPan="magnify" viewBox="0 0 768 775.92" height="1024" preserveAspectRatio="xMidYMid meet" version="1.0"><defs><clipPath id="fdbe53cf28"><path d="M 76.832031 185.453125 L 216 185.453125 L 216 417 L 76.832031 417 Z M 76.832031 185.453125 " clip-rule="nonzero"/></clipPath><clipPath id="1c2497c48e"><path d="M 134 293 L 691.019531 293 L 691.019531 569 L 134 569 Z M 134 293 " clip-rule="nonzero"/></clipPath><clipPath id="d4e600b267"><path d="M 151 575 L 187 575 L 187 582.160156 L 151 582.160156 Z M 151 575 " clip-rule="nonzero"/></clipPath><clipPath id="c469c6bb6a"><path d="M 651 575 L 688 575 L 688 582.160156 L 651 582.160156 Z M 651 575 " clip-rule="nonzero"/></clipPath><clipPath id="e787fda638"><path d="M 77 213.480469 L 632 213.480469 L 632 554.695312 L 77 554.695312 Z M 77 213.480469 " clip-rule="nonzero"/></clipPath></defs><path fill="#ffffff" d="M 647.335938 373.421875 C 636.300781 355.679688 612.972656 350.25 595.234375 361.285156 C 577.496094 372.324219 572.0625 395.648438 583.101562 413.386719 C 589.835938 424.210938 601.148438 430.441406 612.972656 431.15625 L 652.710938 398.4375 C 653.84375 390.027344 652.167969 381.1875 647.335938 373.421875 Z M 647.335938 373.421875 " fill-opacity="1" fill-rule="nonzero"/><path fill="#ffffff" d="M 417.261719 516.257812 C 418.992188 521.855469 424.042969 525.503906 429.582031 525.71875 C 431.066406 525.777344 432.589844 525.585938 434.089844 525.121094 L 505.945312 502.851562 C 507.578125 502.347656 509.101562 501.53125 510.429688 500.457031 L 563.984375 457.070312 C 569.753906 452.390625 570.640625 443.921875 565.964844 438.152344 C 561.289062 432.378906 552.820312 431.492188 547.046875 436.167969 L 495.507812 477.925781 L 426.125 499.429688 C 419.03125 501.628906 415.0625 509.164062 417.261719 516.257812 Z M 417.261719 516.257812 " fill-opacity="1" fill-rule="nonzero"/><path fill="#ffffff" d="M 391.421875 252.582031 C 396.089844 247.414062 395.679688 239.441406 390.511719 234.773438 C 385.339844 230.105469 377.367188 230.515625 372.699219 235.6875 L 315.480469 299.085938 C 321.179688 305.804688 325.738281 313.515625 328.824219 321.941406 Z M 391.421875 252.582031 " fill-opacity="1" fill-rule="nonzero"/><g clip-path="url(#fdbe53cf28)"><path fill="#ffffff" d="M 159.613281 416.472656 L 159.613281 282.3125 L 192.566406 310.554688 C 198.199219 300.683594 205.988281 292.203125 215.308594 285.761719 L 98.714844 185.824219 L 76.832031 211.355469 L 134.394531 260.699219 L 134.394531 416.4375 C 138.4375 415.546875 142.628906 415.0625 146.929688 415.0625 C 151.289062 415.0625 155.527344 415.558594 159.613281 416.472656 Z M 150.628906 245.292969 C 155.734375 245.292969 159.867188 249.429688 159.867188 254.53125 C 159.867188 259.636719 155.734375 263.769531 150.628906 263.769531 C 145.527344 263.769531 141.390625 259.636719 141.390625 254.53125 C 141.390625 249.429688 145.527344 245.292969 150.628906 245.292969 Z M 150.628906 245.292969 " fill-opacity="1" fill-rule="nonzero"/></g><g clip-path="url(#1c2497c48e)"><path fill="#ffffff" d="M 657.113281 568.402344 L 691.089844 568.402344 L 691.089844 543.183594 L 663.265625 543.183594 L 598.066406 487.300781 L 571.714844 509 L 611.597656 543.183594 L 522.257812 543.183594 L 682.898438 410.925781 C 687.960938 406.785156 688.714844 399.253906 684.574219 394.191406 C 680.433594 389.128906 672.902344 388.371094 667.839844 392.515625 L 484.839844 543.183594 L 476.902344 543.183594 L 586.570312 452.894531 C 589.421875 440.320312 585.722656 428.710938 579.191406 421.753906 C 569.070312 410.96875 548.507812 415.226562 536.253906 427.601562 C 523.4375 438.460938 507.085938 453.28125 489.117188 464.875 L 469.976562 374.738281 C 469.0625 370.4375 466.824219 366.53125 463.570312 363.566406 L 392.214844 298.585938 C 383.632812 290.769531 370.34375 291.390625 362.527344 299.972656 C 354.714844 308.550781 355.332031 321.84375 363.914062 329.660156 L 430.269531 390.085938 L 450.734375 486.46875 C 450.792969 486.734375 450.871094 486.984375 450.9375 487.246094 C 450.855469 487.34375 450.789062 487.441406 450.714844 487.539062 L 325.878906 380.539062 C 320.90625 390.796875 313.660156 399.75 304.820312 406.773438 L 387.515625 477.65625 L 381.046875 505.476562 L 424.003906 543.1875 L 159.613281 543.1875 L 159.613281 530.082031 C 155.527344 530.992188 151.289062 531.488281 146.929688 531.488281 C 142.625 531.488281 138.4375 531.003906 134.394531 530.117188 L 134.394531 568.40625 L 657.113281 568.40625 Z M 639.058594 540.078125 C 644.160156 540.078125 648.296875 544.210938 648.296875 549.316406 C 648.296875 554.417969 644.160156 558.554688 639.058594 558.554688 C 633.957031 558.554688 629.820312 554.417969 629.820312 549.316406 C 629.820312 544.214844 633.957031 540.078125 639.058594 540.078125 Z M 390.371094 502.476562 L 394.710938 483.820312 L 416.085938 502.144531 C 418.269531 499.109375 421.347656 496.859375 424.980469 495.734375 L 493.652344 474.449219 L 544.613281 433.160156 C 547.878906 430.511719 551.988281 429.148438 556.183594 429.308594 C 561.171875 429.503906 565.832031 431.839844 568.96875 435.710938 C 574.980469 443.132812 573.835938 454.058594 566.417969 460.066406 L 512.863281 503.457031 C 511.144531 504.851562 509.199219 505.886719 507.089844 506.542969 L 444.023438 526.085938 L 463.964844 543.179688 L 436.742188 543.179688 Z M 390.371094 502.476562 " fill-opacity="1" fill-rule="nonzero"/></g><path fill="#ffffff" d="M 189.417969 347.769531 C 189.417969 385.667969 220.140625 416.394531 258.039062 416.394531 C 295.9375 416.394531 326.660156 385.667969 326.660156 347.769531 C 326.660156 309.871094 295.9375 279.148438 258.039062 279.148438 C 220.140625 279.148438 189.417969 309.871094 189.417969 347.769531 Z M 258.039062 315.480469 C 275.871094 315.480469 290.332031 329.9375 290.332031 347.773438 C 290.332031 365.605469 275.871094 380.066406 258.039062 380.066406 C 240.203125 380.066406 225.746094 365.605469 225.746094 347.773438 C 225.746094 329.9375 240.203125 315.480469 258.039062 315.480469 Z M 258.039062 315.480469 " fill-opacity="1" fill-rule="nonzero"/><path fill="#ffffff" d="M 274.230469 345.144531 C 274.316406 345.675781 274.375 346.207031 274.410156 346.742188 C 274.445312 347.28125 274.449219 347.816406 274.429688 348.351562 C 274.414062 348.890625 274.367188 349.425781 274.296875 349.957031 C 274.222656 350.488281 274.125 351.015625 274.003906 351.539062 C 273.878906 352.0625 273.730469 352.578125 273.558594 353.085938 C 273.382812 353.59375 273.183594 354.089844 272.960938 354.578125 C 272.738281 355.070312 272.492188 355.546875 272.222656 356.007812 C 271.953125 356.472656 271.660156 356.925781 271.347656 357.359375 C 271.03125 357.796875 270.695312 358.214844 270.34375 358.617188 C 269.988281 359.019531 269.613281 359.40625 269.21875 359.769531 C 268.828125 360.136719 268.417969 360.484375 267.988281 360.808594 C 267.5625 361.132812 267.121094 361.4375 266.664062 361.71875 C 266.207031 362.003906 265.738281 362.261719 265.253906 362.5 C 264.773438 362.734375 264.28125 362.945312 263.777344 363.132812 C 263.273438 363.320312 262.761719 363.484375 262.242188 363.621094 C 261.722656 363.757812 261.199219 363.871094 260.667969 363.957031 C 260.136719 364.042969 259.605469 364.101562 259.070312 364.136719 C 258.535156 364.171875 257.996094 364.175781 257.460938 364.160156 C 256.921875 364.140625 256.390625 364.09375 255.855469 364.023438 C 255.324219 363.949219 254.796875 363.851562 254.273438 363.730469 C 253.75 363.605469 253.234375 363.457031 252.726562 363.285156 C 252.21875 363.109375 251.722656 362.910156 251.234375 362.6875 C 250.746094 362.464844 250.269531 362.21875 249.804688 361.949219 C 249.339844 361.679688 248.890625 361.386719 248.453125 361.074219 C 248.019531 360.757812 247.597656 360.425781 247.195312 360.070312 C 246.792969 359.714844 246.410156 359.339844 246.042969 358.945312 C 245.675781 358.554688 245.332031 358.144531 245.003906 357.714844 C 244.679688 357.289062 244.375 356.847656 244.09375 356.390625 C 243.808594 355.933594 243.550781 355.464844 243.316406 354.980469 C 243.078125 354.5 242.867188 354.007812 242.679688 353.503906 C 242.492188 353 242.328125 352.488281 242.191406 351.96875 C 242.054688 351.449219 241.941406 350.925781 241.855469 350.394531 C 241.769531 349.867188 241.710938 349.332031 241.675781 348.796875 C 241.644531 348.261719 241.636719 347.722656 241.65625 347.1875 C 241.671875 346.648438 241.71875 346.117188 241.789062 345.582031 C 241.863281 345.050781 241.960938 344.523438 242.082031 344 C 242.207031 343.476562 242.355469 342.960938 242.53125 342.453125 C 242.703125 341.945312 242.902344 341.449219 243.125 340.960938 C 243.347656 340.472656 243.59375 339.996094 243.863281 339.53125 C 244.132812 339.066406 244.425781 338.617188 244.742188 338.179688 C 245.054688 337.746094 245.390625 337.324219 245.746094 336.921875 C 246.101562 336.519531 246.472656 336.136719 246.867188 335.769531 C 247.261719 335.402344 247.667969 335.058594 248.097656 334.730469 C 248.523438 334.40625 248.964844 334.101562 249.421875 333.820312 C 249.878906 333.539062 250.347656 333.277344 250.832031 333.042969 C 251.3125 332.804688 251.808594 332.59375 252.308594 332.40625 C 252.8125 332.21875 253.324219 332.054688 253.84375 331.917969 C 254.363281 331.78125 254.886719 331.667969 255.417969 331.582031 C 255.949219 331.496094 256.480469 331.4375 257.015625 331.402344 C 257.554688 331.371094 258.089844 331.363281 258.625 331.382812 C 259.164062 331.402344 259.695312 331.445312 260.230469 331.515625 C 260.761719 331.589844 261.289062 331.6875 261.8125 331.808594 C 262.335938 331.933594 262.851562 332.082031 263.359375 332.257812 C 263.867188 332.429688 264.363281 332.628906 264.851562 332.851562 C 265.34375 333.074219 265.816406 333.320312 266.28125 333.589844 C 266.746094 333.859375 267.195312 334.152344 267.632812 334.46875 C 268.070312 334.78125 268.488281 335.117188 268.890625 335.472656 C 269.292969 335.828125 269.675781 336.199219 270.042969 336.59375 C 270.410156 336.988281 270.753906 337.398438 271.082031 337.824219 C 271.40625 338.25 271.710938 338.691406 271.992188 339.148438 C 272.277344 339.605469 272.535156 340.074219 272.769531 340.558594 C 273.007812 341.039062 273.21875 341.535156 273.40625 342.035156 C 273.59375 342.539062 273.757812 343.050781 273.894531 343.570312 C 274.03125 344.089844 274.144531 344.613281 274.230469 345.144531 Z M 274.230469 345.144531 " fill-opacity="1" fill-rule="nonzero"/><path fill="#ffffff" d="M 200.097656 473.273438 C 200.097656 443.910156 176.292969 420.105469 146.929688 420.105469 C 117.566406 420.105469 93.761719 443.910156 93.761719 473.273438 C 93.761719 502.636719 117.566406 526.441406 146.929688 526.441406 C 176.292969 526.441406 200.097656 502.640625 200.097656 473.273438 Z M 121.910156 473.273438 C 121.910156 459.457031 133.113281 448.253906 146.929688 448.253906 C 160.75 448.253906 171.953125 459.457031 171.953125 473.273438 C 171.953125 487.09375 160.75 498.292969 146.929688 498.292969 C 133.113281 498.292969 121.910156 487.09375 121.910156 473.273438 Z M 121.910156 473.273438 " fill-opacity="1" fill-rule="nonzero"/><path fill="#ffffff" d="M 159.308594 470.347656 C 159.5 471.160156 159.609375 471.980469 159.640625 472.816406 C 159.667969 473.648438 159.617188 474.476562 159.484375 475.300781 C 159.351562 476.125 159.136719 476.925781 158.84375 477.710938 C 158.554688 478.492188 158.1875 479.238281 157.75 479.945312 C 157.3125 480.65625 156.808594 481.316406 156.238281 481.925781 C 155.671875 482.535156 155.046875 483.085938 154.371094 483.574219 C 153.695312 484.0625 152.976562 484.480469 152.21875 484.824219 C 151.460938 485.171875 150.671875 485.441406 149.863281 485.632812 C 149.050781 485.824219 148.226562 485.933594 147.394531 485.964844 C 146.558594 485.992188 145.730469 485.941406 144.90625 485.808594 C 144.085938 485.675781 143.28125 485.460938 142.5 485.171875 C 141.71875 484.878906 140.972656 484.515625 140.261719 484.074219 C 139.554688 483.636719 138.894531 483.132812 138.28125 482.566406 C 137.671875 481.996094 137.125 481.375 136.636719 480.695312 C 136.148438 480.019531 135.730469 479.300781 135.382812 478.542969 C 135.039062 477.785156 134.769531 477 134.578125 476.1875 C 134.386719 475.375 134.273438 474.550781 134.246094 473.71875 C 134.214844 472.886719 134.265625 472.054688 134.402344 471.234375 C 134.535156 470.410156 134.746094 469.605469 135.039062 468.824219 C 135.332031 468.042969 135.695312 467.296875 136.132812 466.589844 C 136.574219 465.878906 137.074219 465.21875 137.644531 464.609375 C 138.214844 463.996094 138.835938 463.449219 139.511719 462.960938 C 140.1875 462.472656 140.90625 462.054688 141.664062 461.710938 C 142.425781 461.363281 143.210938 461.09375 144.023438 460.902344 C 144.835938 460.710938 145.65625 460.601562 146.492188 460.570312 C 147.324219 460.539062 148.152344 460.59375 148.976562 460.726562 C 149.800781 460.859375 150.601562 461.070312 151.382812 461.363281 C 152.164062 461.65625 152.910156 462.019531 153.621094 462.460938 C 154.332031 462.898438 154.992188 463.402344 155.601562 463.96875 C 156.210938 464.539062 156.761719 465.160156 157.25 465.835938 C 157.738281 466.515625 158.152344 467.230469 158.5 467.992188 C 158.847656 468.75 159.117188 469.535156 159.308594 470.347656 Z M 159.308594 470.347656 " fill-opacity="1" fill-rule="nonzero"/><path fill="#ffffff" d="M 635.339844 549.316406 C 635.339844 551.367188 637.007812 553.03125 639.058594 553.03125 C 641.113281 553.03125 642.777344 551.367188 642.777344 549.316406 C 642.777344 547.261719 641.113281 545.597656 639.058594 545.597656 C 637.007812 545.597656 635.339844 547.261719 635.339844 549.316406 Z M 635.339844 549.316406 " fill-opacity="1" fill-rule="nonzero"/><path fill="#ffffff" d="M 150.628906 258.246094 C 152.683594 258.246094 154.347656 256.582031 154.347656 254.53125 C 154.347656 252.476562 152.683594 250.8125 150.628906 250.8125 C 148.578125 250.8125 146.914062 252.476562 146.914062 254.53125 C 146.914062 256.582031 148.578125 258.246094 150.628906 258.246094 Z M 150.628906 258.246094 " fill-opacity="1" fill-rule="nonzero"/><g clip-path="url(#d4e600b267)"><path fill="#ffffff" d="M 151.09375 575.117188 L 186.132812 575.117188 L 186.132812 582.125 L 151.09375 582.125 Z M 151.09375 575.117188 " fill-opacity="1" fill-rule="nonzero"/></g><g clip-path="url(#c469c6bb6a)"><path fill="#ffffff" d="M 651.960938 582.125 L 687.003906 582.125 L 687.003906 575.117188 L 651.960938 575.117188 Z M 651.960938 582.125 " fill-opacity="1" fill-rule="nonzero"/></g><path fill="#9ded02" d="M 405.351562 362.558594 L 415.234375 356.253906 C 418.5625 352.171875 422.566406 350.507812 426.695312 351.796875 L 527.917969 383.703125 L 530.714844 367.324219 C 532.375 357.609375 540.71875 350.554688 550.566406 350.554688 C 551.703125 350.554688 552.851562 350.652344 553.980469 350.84375 C 559.285156 351.75 563.921875 354.667969 567.035156 359.0625 C 570.148438 363.457031 571.363281 368.800781 570.457031 374.109375 L 567.265625 392.832031 C 579.589844 386.671875 587.125 375.976562 589.082031 365.734375 C 592.324219 348.824219 574.25 332.363281 554.210938 329.277344 C 527.097656 322.640625 487.445312 314.765625 458.804688 296.539062 C 450.535156 292.101562 444.503906 289.949219 439.832031 289.683594 C 434.1875 288.835938 428.230469 289.921875 423.042969 293.230469 L 348.511719 340.789062 L 346.304688 331.078125 C 329.808594 331.035156 316.40625 317.609375 316.40625 301.109375 C 316.40625 289.632812 322.898438 279.652344 332.394531 274.617188 C 327.207031 265.449219 316.457031 260.34375 305.679688 262.804688 C 292.503906 265.800781 284.253906 278.910156 287.25 292.085938 L 308.511719 385.539062 C 309.28125 388.9375 310.792969 392.046875 312.824219 394.757812 L 388.542969 354.863281 C 393.929688 352.027344 400.128906 354.976562 405.351562 362.558594 Z M 405.351562 362.558594 " fill-opacity="1" fill-rule="nonzero"/><path fill="#9ded02" d="M 366.234375 411.191406 L 348.917969 420.3125 L 373.070312 466.460938 L 395.160156 466.460938 Z M 366.234375 411.191406 " fill-opacity="1" fill-rule="nonzero"/><path fill="#9ded02" d="M 500.628906 466.460938 L 520.164062 429.132812 L 521.222656 422.941406 L 504.136719 417.554688 L 478.539062 466.460938 Z M 500.628906 466.460938 " fill-opacity="1" fill-rule="nonzero"/><path fill="#9ded02" d="M 391.28125 360.0625 L 295.480469 410.535156 C 288.742188 414.082031 286.136719 422.5 289.683594 429.238281 C 293.230469 435.972656 301.648438 438.582031 308.386719 435.03125 L 404.1875 384.558594 C 410.921875 381.007812 398.015625 356.511719 391.28125 360.0625 Z M 391.28125 360.0625 " fill-opacity="1" fill-rule="nonzero"/><path fill="#9ded02" d="M 574.285156 433.507812 L 609.46875 444.597656 C 616.738281 446.871094 624.542969 442.785156 626.8125 435.515625 C 629.085938 428.25 625 420.441406 617.730469 418.171875 L 565.730469 401.78125 L 561.445312 426.910156 Z M 574.285156 433.507812 " fill-opacity="1" fill-rule="nonzero"/><path fill="#9ded02" d="M 526.921875 389.546875 L 424.945312 357.402344 C 417.675781 355.128906 409.414062 381.558594 416.683594 383.828125 L 522.222656 417.097656 Z M 526.921875 389.546875 " fill-opacity="1" fill-rule="nonzero"/><path fill="#9ded02" d="M 650.046875 302.550781 C 626.089844 298.363281 603.269531 314.390625 599.082031 338.347656 C 594.894531 362.304688 610.917969 385.121094 634.878906 389.308594 C 658.835938 393.496094 681.652344 377.472656 685.839844 353.515625 C 690.027344 329.558594 674.003906 306.738281 650.046875 302.550781 Z M 650.046875 302.550781 " fill-opacity="1" fill-rule="nonzero"/><path fill="#9ded02" d="M 603.132812 488.601562 C 605.421875 489.78125 607.867188 490.339844 610.277344 490.335938 C 615.957031 490.335938 621.441406 487.234375 624.214844 481.832031 C 628.167969 474.140625 625.136719 464.699219 617.445312 460.75 L 556.453125 429.40625 L 566.015625 373.351562 C 567.472656 364.828125 561.742188 356.734375 553.21875 355.28125 C 544.695312 353.824219 536.605469 359.558594 535.148438 368.082031 L 523.65625 435.453125 C 522.503906 442.1875 525.855469 448.890625 531.933594 452.011719 Z M 603.132812 488.601562 " fill-opacity="1" fill-rule="nonzero"/><path fill="#9ded02" d="M 346.382812 325.214844 C 359.695312 325.214844 370.488281 314.421875 370.488281 301.109375 C 370.488281 287.796875 359.695312 277.003906 346.382812 277.003906 C 333.070312 277.003906 322.277344 287.796875 322.277344 301.109375 C 322.277344 314.421875 333.070312 325.214844 346.382812 325.214844 Z M 346.382812 290.476562 C 352.253906 290.476562 357.011719 295.238281 357.011719 301.109375 C 357.011719 306.980469 352.25 311.742188 346.382812 311.742188 C 340.511719 311.742188 335.75 306.980469 335.75 301.109375 C 335.75 295.238281 340.511719 290.476562 346.382812 290.476562 Z M 346.382812 290.476562 " fill-opacity="1" fill-rule="nonzero"/><g clip-path="url(#e787fda638)"><path fill="#9ded02" d="M 631.261719 534.792969 L 613.164062 534.792969 L 613.164062 502.515625 C 613.164062 499.8125 612.773438 497.203125 612.105469 494.710938 C 611.496094 494.765625 610.894531 494.835938 610.277344 494.835938 L 610.269531 494.835938 C 607.09375 494.835938 603.914062 494.066406 601.074219 492.601562 L 561.628906 472.332031 L 252.421875 472.332031 C 235.777344 472.332031 222.238281 485.871094 222.238281 502.511719 L 222.238281 534.789062 L 216.367188 534.789062 L 216.367188 518.863281 L 206.320312 518.863281 L 206.320312 500.980469 L 216.441406 500.980469 C 216.679688 495.335938 218.179688 490.011719 220.734375 485.324219 L 206.320312 485.324219 L 206.320312 401.375 L 212.707031 401.375 L 216.851562 392.660156 L 222.636719 392.660156 L 222.636719 383.386719 L 206.320312 383.386719 L 206.320312 376.042969 L 222.636719 376.042969 L 222.636719 366.773438 L 206.320312 366.773438 L 206.320312 359.429688 L 222.636719 359.429688 L 222.636719 350.15625 L 206.320312 350.15625 L 206.320312 342.8125 L 222.636719 342.8125 L 222.636719 333.542969 L 206.320312 333.542969 L 206.320312 242.839844 L 220.003906 242.839844 C 227.429688 242.839844 233.703125 249.113281 233.703125 256.539062 L 233.703125 471.761719 C 239.167969 468.421875 245.5625 466.460938 252.421875 466.460938 L 263.0625 466.460938 L 263.0625 256.539062 C 263.0625 232.859375 243.683594 213.480469 220.003906 213.480469 L 141.464844 213.480469 C 117.785156 213.480469 98.40625 232.859375 98.40625 256.539062 L 98.40625 534.792969 L 77.886719 534.792969 L 77.886719 554.363281 L 631.261719 554.363281 Z M 127.765625 500.984375 L 155.144531 500.984375 L 155.144531 518.867188 L 127.765625 518.867188 Z M 201.128906 518.867188 L 160.335938 518.867188 L 160.335938 500.984375 L 201.128906 500.984375 Z M 201.128906 485.328125 L 160.335938 485.328125 L 160.335938 401.375 L 166.722656 401.375 L 170.867188 392.660156 L 193.320312 392.660156 L 197.460938 401.375 L 201.128906 401.375 Z M 201.128906 383.390625 L 160.335938 383.390625 L 160.335938 376.046875 L 201.128906 376.046875 Z M 201.128906 366.773438 L 160.335938 366.773438 L 160.335938 359.429688 L 201.128906 359.429688 Z M 201.128906 350.160156 L 160.335938 350.160156 L 160.335938 342.816406 L 201.128906 342.816406 Z M 201.128906 333.546875 L 160.335938 333.546875 L 160.335938 242.839844 L 201.128906 242.839844 Z M 141.464844 242.839844 L 155.144531 242.839844 L 155.144531 333.546875 L 138.828125 333.546875 L 138.828125 342.820312 L 155.144531 342.820312 L 155.144531 350.164062 L 138.828125 350.164062 L 138.828125 359.433594 L 155.144531 359.433594 L 155.144531 366.777344 L 138.828125 366.777344 L 138.828125 376.050781 L 155.144531 376.050781 L 155.144531 383.394531 L 138.828125 383.394531 L 138.828125 392.664062 L 147.335938 392.664062 L 151.476562 401.375 L 155.148438 401.375 L 155.148438 485.328125 L 127.765625 485.328125 L 127.765625 256.539062 C 127.765625 249.113281 134.039062 242.839844 141.464844 242.839844 Z M 241.808594 502.515625 C 241.808594 496.664062 246.570312 491.902344 252.421875 491.902344 L 582.984375 491.902344 C 588.832031 491.902344 593.59375 496.664062 593.59375 502.515625 L 593.59375 534.792969 L 263.058594 534.792969 L 263.058594 497.777344 L 252.417969 497.777344 C 249.804688 497.777344 247.679688 499.902344 247.679688 502.515625 L 247.679688 534.792969 L 241.808594 534.792969 Z M 241.808594 502.515625 " fill-opacity="1" fill-rule="nonzero"/></g></svg>