<svg xmlns="http://www.w3.org/2000/svg" xmlns:xlink="http://www.w3.org/1999/xlink" width="1024" zoomAndPan="magnify" viewBox="0 0 768 775.92" height="1024" preserveAspectRatio="xMidYMid meet" version="1.0"><defs><clipPath id="4e7ddab70c"><path d="M 232 168.175781 L 308 168.175781 L 308 218 L 232 218 Z M 232 168.175781 " clip-rule="nonzero"/></clipPath><clipPath id="7bb6b73f48"><path d="M 76.832031 287 L 599 287 L 599 599.378906 L 76.832031 599.378906 Z M 76.832031 287 " clip-rule="nonzero"/></clipPath></defs><g clip-path="url(#4e7ddab70c)"><path fill="#000000" d="M 255.261719 217.636719 C 255.078125 216.550781 254.964844 215.449219 254.964844 214.316406 C 254.964844 203.328125 263.875 194.421875 274.871094 194.421875 C 278.515625 194.421875 281.917969 195.414062 284.859375 197.121094 C 290.90625 190.191406 298.683594 184.832031 307.519531 181.683594 C 299.160156 173.339844 287.617188 168.175781 274.871094 168.175781 C 255.96875 168.175781 239.742188 179.539062 232.597656 195.792969 C 241.90625 201.167969 249.625 208.636719 255.261719 217.636719 Z M 255.261719 217.636719 " fill-opacity="1" fill-rule="nonzero"/></g><path fill="#000000" d="M 274.871094 260.460938 C 276.328125 260.460938 277.761719 260.375 279.1875 260.242188 C 274.550781 252.496094 271.796875 243.523438 271.5625 233.914062 C 267.273438 233.195312 263.449219 231.117188 260.558594 228.125 C 260.84375 228.839844 261.183594 229.527344 261.445312 230.25 C 264.871094 239.726562 266.046875 249.644531 265.019531 259.382812 C 268.199219 260.074219 271.484375 260.460938 274.871094 260.460938 Z M 274.871094 260.460938 " fill-opacity="1" fill-rule="nonzero"/><path fill="#000000" d="M 267.675781 214.316406 C 267.675781 217.542969 269.816406 220.238281 272.742188 221.148438 C 273.773438 216.394531 275.4375 211.882812 277.628906 207.683594 C 276.78125 207.328125 275.847656 207.128906 274.871094 207.128906 C 270.898438 207.128906 267.675781 210.347656 267.675781 214.316406 Z M 267.675781 214.316406 " fill-opacity="1" fill-rule="nonzero"/><path fill="#000000" d="M 198.292969 312.105469 C 221.167969 312.621094 243.28125 299.890625 253.625 277.859375 C 267.601562 248.074219 254.777344 212.613281 224.980469 198.640625 C 195.183594 184.671875 159.695312 197.484375 145.714844 227.269531 C 137.34375 245.101562 138.59375 264.96875 147.335938 281.046875 C 149.460938 281.722656 151.535156 282.648438 153.503906 283.894531 Z M 198.292969 312.105469 " fill-opacity="1" fill-rule="nonzero"/><path fill="#000000" d="M 352.464844 402.90625 C 352.402344 403.222656 352.308594 403.527344 352.234375 403.84375 C 352.105469 404.378906 351.984375 404.917969 351.820312 405.453125 C 351.679688 405.910156 351.507812 406.351562 351.34375 406.800781 C 351.21875 407.144531 351.117188 407.492188 350.976562 407.832031 C 350.957031 407.882812 350.933594 407.925781 350.910156 407.976562 C 350.882812 408.046875 350.855469 408.121094 350.824219 408.191406 L 384.921875 429.671875 C 386.457031 430.644531 387.6875 431.851562 388.617188 433.265625 C 391.027344 430.859375 393.988281 429.542969 397.429688 429.542969 L 543.972656 429.542969 C 554.699219 429.542969 563.941406 435.914062 568.179688 445.058594 L 568.554688 445.074219 L 622.742188 576.378906 C 628.007812 589.144531 640.347656 596.859375 653.363281 596.859375 C 657.566406 596.859375 661.84375 596.054688 665.972656 594.351562 C 682.875 587.382812 690.929688 568.042969 683.957031 551.148438 L 621.730469 400.347656 C 616.820312 388.453125 605.460938 380.480469 592.601562 379.90625 L 449.605469 373.507812 C 446.703125 372.1875 443.503906 370.832031 439.945312 369.410156 C 406.472656 358.867188 378.113281 331.226562 353 308.816406 L 353 397.113281 C 353.035156 399.046875 352.855469 400.988281 352.464844 402.90625 Z M 352.464844 402.90625 " fill-opacity="1" fill-rule="nonzero"/><path fill="#000000" d="M 282.542969 365.175781 L 272.46875 341.203125 C 269.648438 334.488281 269.609375 327.082031 272.363281 320.339844 C 275.121094 313.597656 280.335938 308.328125 287.058594 305.507812 C 290.425781 304.097656 293.976562 303.378906 297.609375 303.378906 C 297.890625 303.378906 298.164062 303.402344 298.441406 303.410156 L 298.441406 279.292969 C 295.902344 277.808594 293.460938 276.171875 291.207031 274.308594 C 290.929688 274.300781 290.648438 274.277344 290.375 274.273438 L 290.410156 273.589844 C 288.238281 271.722656 286.210938 269.699219 284.355469 267.511719 C 281.269531 268.0625 278.109375 268.398438 274.867188 268.398438 C 271.039062 268.398438 267.304688 267.988281 263.699219 267.226562 C 262.65625 271.730469 261.144531 276.160156 259.136719 280.441406 C 255.960938 287.199219 251.675781 293.230469 246.589844 298.40625 L 244.226562 341.035156 Z M 282.542969 365.175781 " fill-opacity="1" fill-rule="nonzero"/><g clip-path="url(#7bb6b73f48)"><path fill="#000000" d="M 118.039062 526.058594 C 118.039062 518.144531 124.484375 511.707031 132.402344 511.707031 L 542.945312 511.707031 C 550.863281 511.707031 557.304688 518.144531 557.304688 526.058594 L 557.304688 572.8125 L 542.695312 572.8125 L 542.695312 599.28125 L 598.398438 599.28125 L 598.398438 572.8125 L 583.789062 572.8125 L 583.789062 526.058594 C 583.789062 503.550781 565.464844 485.238281 542.945312 485.238281 L 218.59375 485.238281 L 256.910156 412.070312 L 260.609375 405.007812 L 360.617188 468.007812 C 369.320312 473.519531 389.375 441.886719 380.671875 436.371094 L 346.691406 414.964844 C 344.046875 418.144531 340.691406 420.679688 336.816406 422.402344 C 336.644531 422.480469 336.488281 422.570312 336.316406 422.640625 C 336.308594 422.644531 336.300781 422.652344 336.289062 422.65625 C 335.984375 422.78125 335.671875 422.875 335.367188 422.992188 C 334.84375 423.191406 334.320312 423.398438 333.78125 423.566406 C 333.195312 423.75 332.597656 423.882812 332.003906 424.027344 C 331.734375 424.089844 331.46875 424.175781 331.191406 424.234375 C 329.402344 424.601562 327.578125 424.789062 325.734375 424.789062 C 314.714844 424.789062 304.839844 418.230469 300.574219 408.078125 L 287.90625 377.941406 L 149.25 290.601562 C 140.546875 285.089844 128.914062 287.699219 123.398438 296.394531 C 117.882812 305.09375 120.492188 316.722656 129.195312 322.234375 L 238.128906 390.851562 L 234.433594 397.914062 L 188.703125 485.238281 L 132.402344 485.238281 C 109.875 485.238281 91.554688 503.550781 91.554688 526.058594 L 91.554688 572.8125 L 76.941406 572.8125 L 76.941406 599.285156 L 132.648438 599.285156 L 132.648438 572.8125 L 118.039062 572.8125 Z M 118.039062 526.058594 " fill-opacity="1" fill-rule="nonzero"/></g><path fill="#000000" d="M 397.433594 474.925781 L 543.972656 474.925781 C 554.28125 474.925781 562.710938 466.5 562.710938 456.199219 C 562.710938 445.902344 554.28125 437.476562 543.972656 437.476562 L 397.433594 437.476562 C 387.128906 437.476562 387.128906 474.925781 397.433594 474.925781 Z M 397.433594 474.925781 " fill-opacity="1" fill-rule="nonzero"/><path fill="#000000" d="M 325.613281 286.679688 C 318.136719 286.679688 311.015625 285.15625 304.535156 282.40625 L 304.535156 362.089844 L 298.441406 349.203125 L 298.441406 309.507812 C 295.4375 309.390625 292.367188 309.886719 289.414062 311.125 C 278.625 315.652344 273.550781 328.066406 278.082031 338.847656 L 306.160156 405.65625 C 306.542969 406.578125 307.007812 407.457031 307.511719 408.308594 C 307.621094 408.492188 307.730469 408.675781 307.84375 408.855469 C 308.332031 409.625 308.855469 410.363281 309.433594 411.0625 C 309.550781 411.199219 309.679688 411.328125 309.800781 411.464844 C 310.292969 412.023438 310.8125 412.554688 311.363281 413.0625 C 311.550781 413.238281 311.738281 413.414062 311.929688 413.582031 C 312.597656 414.15625 313.296875 414.691406 314.03125 415.179688 C 314.152344 415.257812 314.28125 415.328125 314.402344 415.40625 C 317.679688 417.480469 321.550781 418.699219 325.71875 418.699219 C 337.417969 418.699219 346.90625 409.214844 346.90625 397.519531 L 346.90625 282.296875 C 340.371094 285.109375 333.171875 286.679688 325.613281 286.679688 Z M 325.613281 286.679688 " fill-opacity="1" fill-rule="nonzero"/><path fill="#000000" d="M 279.441406 232.597656 C 279.441406 258.078125 300.113281 278.738281 325.613281 278.738281 C 351.117188 278.738281 371.785156 258.082031 371.785156 232.597656 C 371.785156 207.109375 351.113281 186.453125 325.613281 186.453125 C 300.117188 186.453125 279.441406 207.113281 279.441406 232.597656 Z M 325.613281 252.492188 C 314.621094 252.492188 305.707031 243.585938 305.707031 232.597656 C 305.707031 221.609375 314.621094 212.699219 325.613281 212.699219 C 336.609375 212.699219 345.523438 221.609375 345.523438 232.597656 C 345.519531 243.585938 336.605469 252.492188 325.613281 252.492188 Z M 325.613281 252.492188 " fill-opacity="1" fill-rule="nonzero"/><path fill="#000000" d="M 325.613281 225.40625 C 321.640625 225.40625 318.421875 228.625 318.421875 232.597656 C 318.421875 236.566406 321.640625 239.785156 325.613281 239.785156 C 329.585938 239.785156 332.808594 236.566406 332.808594 232.597656 C 332.804688 228.625 329.585938 225.40625 325.613281 225.40625 Z M 325.613281 225.40625 " fill-opacity="1" fill-rule="nonzero"/></svg>