<svg xmlns="http://www.w3.org/2000/svg" xmlns:xlink="http://www.w3.org/1999/xlink" width="1024" zoomAndPan="magnify" viewBox="0 0 768 775.92" height="1024" preserveAspectRatio="xMidYMid meet" version="1.0"><defs><clipPath id="d6bce03205"><path d="M 77 519 L 235 519 L 235 625.398438 L 77 625.398438 Z M 77 519 " clip-rule="nonzero"/></clipPath><clipPath id="8e22bae63d"><path d="M 100 142.449219 L 691 142.449219 L 691 625.398438 L 100 625.398438 Z M 100 142.449219 " clip-rule="nonzero"/></clipPath></defs><g clip-path="url(#d6bce03205)"><path fill="#000000" d="M 139.136719 535.132812 C 137.332031 534.894531 135.507812 534.449219 133.726562 533.8125 C 132.03125 533.308594 130.144531 532.664062 127.632812 531.734375 C 122.636719 529.894531 113.445312 526.492188 106.402344 519.023438 L 94.78125 519.023438 C 87.929688 519.023438 82.320312 524.632812 82.320312 531.484375 C 82.320312 538.339844 87.929688 543.949219 94.78125 543.949219 L 98.132812 543.949219 C 85.984375 550.585938 77.722656 563.484375 77.722656 578.273438 L 77.722656 625.46875 L 95.34375 625.46875 L 95.34375 578.273438 C 95.34375 566.4375 104.96875 556.8125 116.800781 556.8125 L 234.410156 556.8125 L 218.484375 545.507812 Z M 139.136719 535.132812 " fill-opacity="1" fill-rule="nonzero"/></g><g clip-path="url(#8e22bae63d)"><path fill="#000000" d="M 690.1875 607.851562 L 645.605469 607.851562 L 645.605469 207.386719 L 664.613281 207.386719 L 664.613281 172.148438 L 515.703125 172.148438 L 460.265625 142.449219 L 443.628906 173.511719 L 455.742188 180 L 448.960938 192.125 C 444.957031 199.28125 447.535156 208.414062 454.695312 212.417969 C 455.914062 213.101562 457.191406 213.578125 458.492188 213.886719 L 486.324219 474.648438 L 482.585938 474.648438 C 478.710938 474.648438 475.539062 477.820312 475.539062 481.695312 L 475.539062 490.050781 L 393.3125 480.085938 C 393.226562 479.570312 393.09375 479.058594 392.894531 478.558594 C 391.363281 474.667969 386.972656 472.757812 383.082031 474.285156 C 381.128906 475.054688 379.675781 476.550781 378.90625 478.339844 L 344.894531 474.214844 L 345.980469 467.277344 C 346.703125 462.660156 344.371094 458.164062 340.183594 456.089844 L 324.800781 448.480469 C 321.730469 446.957031 318.226562 446.988281 315.183594 448.570312 C 313.949219 449.210938 312.886719 450.066406 312.011719 451.078125 L 243.964844 429.890625 L 203.691406 387.886719 C 202.890625 387.046875 202 386.34375 201.0625 385.75 C 200.609375 385.363281 200.167969 384.960938 199.671875 384.613281 C 186.972656 375.722656 163.6875 375.539062 146.167969 396.449219 C 131.324219 414.375 121.578125 429.144531 113.984375 446.886719 C 109.335938 457.742188 105.496094 469.707031 101.789062 484.195312 C 96.777344 512.660156 113.886719 522.339844 129.035156 527.933594 C 131.167969 528.71875 133.144531 529.410156 134.992188 529.960938 C 136.476562 530.5 138.035156 530.898438 139.664062 531.109375 L 220.007812 541.621094 L 298.332031 597.210938 C 302.199219 599.957031 306.652344 601.277344 311.058594 601.277344 C 317.953125 601.277344 324.746094 598.046875 329.035156 591.996094 C 336.078125 582.078125 333.742188 568.328125 323.824219 561.289062 L 241.039062 502.53125 C 238.109375 500.449219 234.710938 499.117188 231.148438 498.652344 L 165.949219 490.125 C 170.039062 480.359375 175.089844 470.804688 180.324219 461.78125 C 183.867188 455.683594 187.488281 449.835938 190.964844 444.328125 L 172.519531 428.753906 C 168.816406 425.628906 166.550781 421.242188 166.144531 416.414062 C 165.738281 411.582031 167.234375 406.882812 170.363281 403.179688 C 173.816406 399.085938 178.875 396.738281 184.234375 396.738281 C 188.507812 396.738281 192.664062 398.257812 195.9375 401.023438 L 243.308594 441.019531 L 313.113281 456.953125 C 317.03125 457.84375 320.34375 459.964844 322.785156 462.796875 C 322.238281 459.113281 320.246094 455.757812 317.222656 453.523438 C 317.355469 453.4375 317.472656 453.332031 317.613281 453.257812 C 318.394531 452.851562 319.234375 452.648438 320.078125 452.648438 C 320.886719 452.648438 321.699219 452.835938 322.457031 453.210938 L 337.839844 460.824219 C 339.945312 461.867188 341.121094 464.128906 340.753906 466.457031 L 339.636719 473.625 C 338.382812 473.707031 337.316406 474.644531 337.160156 475.933594 C 337.011719 477.160156 337.734375 478.285156 338.839844 478.710938 L 337.765625 485.566406 C 337.402344 487.886719 335.59375 489.6875 333.265625 490.035156 L 316.292969 492.585938 C 315.332031 492.730469 314.390625 492.589844 313.523438 492.246094 C 312.101562 492.601562 310.613281 492.796875 309.085938 492.796875 C 308.136719 492.796875 307.191406 492.691406 306.246094 492.542969 C 306.707031 493.351562 307.269531 494.109375 307.949219 494.792969 C 309.976562 496.832031 312.648438 497.933594 315.457031 497.933594 C 315.996094 497.933594 316.535156 497.894531 317.078125 497.8125 L 334.050781 495.261719 C 338.675781 494.566406 342.265625 491 342.988281 486.382812 L 344.074219 479.433594 L 378.683594 483.628906 C 378.730469 483.78125 378.753906 483.941406 378.8125 484.089844 C 380.339844 487.980469 384.734375 489.890625 388.625 488.363281 C 390.210938 487.738281 391.441406 486.625 392.273438 485.277344 L 475.539062 495.371094 L 475.539062 502.316406 C 475.539062 506.191406 478.710938 509.363281 482.585938 509.363281 L 502.472656 509.363281 L 502.472656 539.1875 L 299.691406 539.1875 L 324.515625 556.808594 L 358.894531 556.808594 L 322.808594 607.847656 L 267.460938 607.847656 L 267.460938 625.464844 L 690.1875 625.464844 Z M 565.28125 546.941406 L 585.246094 546.941406 L 589.097656 555.046875 L 561.429688 555.046875 Z M 556.902344 538.597656 L 556.902344 531.984375 L 593.625 531.984375 L 593.625 538.597656 Z M 556.902344 523.640625 L 556.902344 517.03125 L 593.625 517.03125 L 593.625 523.640625 Z M 556.902344 508.6875 L 556.902344 502.074219 L 593.625 502.074219 L 593.625 508.6875 Z M 556.902344 493.730469 L 556.902344 487.117188 L 593.625 487.117188 L 593.625 493.730469 Z M 556.902344 478.773438 L 556.902344 472.164062 L 593.625 472.164062 L 593.625 478.773438 Z M 556.902344 463.816406 L 556.902344 207.386719 L 593.625 207.386719 L 593.625 463.816406 Z M 552.230469 207.386719 L 552.230469 463.816406 L 536.316406 463.816406 L 536.316406 472.164062 L 552.230469 472.164062 L 552.230469 478.773438 L 536.316406 478.773438 L 536.316406 487.117188 L 552.230469 487.117188 L 552.230469 493.730469 L 536.316406 493.730469 L 536.316406 502.074219 L 552.230469 502.074219 L 552.230469 508.6875 L 536.316406 508.6875 L 536.316406 517.03125 L 552.230469 517.03125 L 552.230469 523.644531 L 536.316406 523.644531 L 536.316406 531.988281 L 552.230469 531.988281 L 552.230469 538.601562 L 536.316406 538.601562 L 536.316406 546.945312 L 543.851562 546.945312 L 547.703125 555.050781 L 520.089844 555.050781 L 520.089844 207.386719 Z M 520.089844 572.667969 L 627.988281 572.667969 L 627.988281 607.851562 L 520.089844 607.851562 Z M 627.988281 555.046875 L 602.824219 555.046875 L 606.675781 546.941406 L 611.761719 546.941406 L 611.761719 538.597656 L 598.296875 538.597656 L 598.296875 531.984375 L 611.761719 531.984375 L 611.761719 523.640625 L 598.296875 523.640625 L 598.296875 517.027344 L 611.761719 517.027344 L 611.761719 508.683594 L 598.296875 508.683594 L 598.296875 502.070312 L 611.761719 502.070312 L 611.761719 493.726562 L 598.296875 493.726562 L 598.296875 487.113281 L 611.761719 487.113281 L 611.761719 478.769531 L 598.296875 478.769531 L 598.296875 472.160156 L 611.761719 472.160156 L 611.761719 463.8125 L 598.296875 463.8125 L 598.296875 207.386719 L 627.988281 207.386719 Z M 646.476562 189.640625 C 646.476562 194.988281 642.144531 199.320312 636.796875 199.320312 C 631.449219 199.320312 627.117188 194.988281 627.117188 189.640625 C 627.117188 184.292969 631.449219 179.957031 636.796875 179.957031 C 642.144531 179.957031 646.476562 184.292969 646.476562 189.640625 Z M 511.28125 179.957031 C 516.628906 179.957031 520.964844 184.292969 520.964844 189.640625 C 520.964844 194.988281 516.628906 199.320312 511.28125 199.320312 C 505.933594 199.320312 501.601562 194.988281 501.601562 189.640625 C 501.601562 184.292969 505.933594 179.957031 511.28125 179.957031 Z M 456.578125 197.65625 C 458.074219 194.976562 461.46875 194.019531 464.148438 195.519531 C 466.832031 197.019531 467.789062 200.410156 466.289062 203.09375 C 465.535156 204.433594 464.3125 205.34375 462.941406 205.730469 L 462.585938 202.4375 C 462.433594 200.988281 461.136719 199.9375 459.679688 200.089844 C 458.226562 200.246094 457.175781 201.546875 457.332031 202.996094 L 457.460938 204.242188 C 455.789062 202.519531 455.34375 199.859375 456.578125 197.65625 Z M 491.640625 474.648438 L 463.839844 214.164062 C 468.375 213.582031 472.597656 210.957031 474.988281 206.679688 L 482.035156 194.085938 L 502.476562 205.035156 L 502.476562 474.648438 Z M 376.339844 556.8125 L 502.472656 556.8125 L 502.472656 607.851562 L 340.253906 607.851562 Z M 376.339844 556.8125 " fill-opacity="1" fill-rule="nonzero"/></g><path fill="#000000" d="M 511.28125 185.742188 C 509.132812 185.742188 507.386719 187.488281 507.386719 189.636719 C 507.386719 191.789062 509.132812 193.535156 511.28125 193.535156 C 513.433594 193.535156 515.175781 191.789062 515.175781 189.636719 C 515.175781 187.488281 513.433594 185.742188 511.28125 185.742188 Z M 511.28125 185.742188 " fill-opacity="1" fill-rule="nonzero"/><path fill="#000000" d="M 636.796875 185.742188 C 634.644531 185.742188 632.902344 187.488281 632.902344 189.636719 C 632.902344 191.789062 634.644531 193.535156 636.796875 193.535156 C 638.949219 193.535156 640.691406 191.789062 640.691406 189.636719 C 640.691406 187.488281 638.949219 185.742188 636.796875 185.742188 Z M 636.796875 185.742188 " fill-opacity="1" fill-rule="nonzero"/><path fill="#000000" d="M 269.34375 326.828125 C 270.261719 327.746094 271.132812 328.707031 271.957031 329.710938 C 272.78125 330.714844 273.554688 331.753906 274.273438 332.835938 C 274.996094 333.914062 275.664062 335.027344 276.273438 336.171875 C 276.886719 337.316406 277.441406 338.488281 277.9375 339.6875 C 278.433594 340.886719 278.871094 342.109375 279.25 343.351562 C 279.625 344.59375 279.941406 345.851562 280.191406 347.125 C 280.445312 348.398438 280.636719 349.683594 280.765625 350.972656 C 280.890625 352.265625 280.957031 353.5625 280.957031 354.859375 C 280.957031 356.160156 280.890625 357.453125 280.765625 358.746094 C 280.636719 360.039062 280.445312 361.320312 280.195312 362.59375 C 279.941406 363.867188 279.625 365.125 279.25 366.367188 C 278.871094 367.609375 278.433594 368.832031 277.9375 370.03125 C 277.441406 371.230469 276.886719 372.402344 276.273438 373.546875 C 275.664062 374.691406 274.996094 375.804688 274.273438 376.886719 C 273.554688 377.964844 272.78125 379.007812 271.957031 380.011719 C 271.132812 381.015625 270.261719 381.972656 269.34375 382.894531 C 268.425781 383.8125 267.464844 384.683594 266.464844 385.503906 C 265.460938 386.328125 264.417969 387.101562 263.339844 387.824219 C 262.257812 388.542969 261.148438 389.210938 260 389.824219 C 258.855469 390.433594 257.683594 390.988281 256.484375 391.488281 C 255.285156 391.984375 254.066406 392.421875 252.824219 392.796875 C 251.578125 393.175781 250.320312 393.488281 249.046875 393.742188 C 247.777344 393.996094 246.492188 394.1875 245.199219 394.3125 C 243.910156 394.441406 242.613281 394.503906 241.316406 394.503906 C 240.015625 394.503906 238.722656 394.441406 237.429688 394.3125 C 236.136719 394.1875 234.855469 393.996094 233.582031 393.742188 C 232.308594 393.488281 231.050781 393.175781 229.808594 392.796875 C 228.566406 392.421875 227.34375 391.984375 226.144531 391.488281 C 224.945312 390.992188 223.773438 390.4375 222.628906 389.824219 C 221.484375 389.210938 220.371094 388.546875 219.292969 387.824219 C 218.210938 387.101562 217.171875 386.328125 216.167969 385.507812 C 215.164062 384.683594 214.203125 383.8125 213.285156 382.894531 C 212.367188 381.976562 211.496094 381.015625 210.671875 380.011719 C 209.847656 379.007812 209.078125 377.964844 208.355469 376.886719 C 207.632812 375.808594 206.96875 374.695312 206.355469 373.550781 C 205.742188 372.40625 205.1875 371.230469 204.691406 370.03125 C 204.195312 368.832031 203.757812 367.613281 203.382812 366.371094 C 203.003906 365.125 202.6875 363.867188 202.4375 362.59375 C 202.183594 361.320312 201.992188 360.039062 201.863281 358.746094 C 201.738281 357.457031 201.675781 356.160156 201.675781 354.863281 C 201.675781 353.5625 201.738281 352.269531 201.863281 350.976562 C 201.992188 349.683594 202.183594 348.402344 202.4375 347.128906 C 202.6875 345.855469 203.003906 344.597656 203.378906 343.351562 C 203.757812 342.109375 204.195312 340.890625 204.691406 339.691406 C 205.1875 338.492188 205.742188 337.320312 206.355469 336.171875 C 206.964844 335.027344 207.632812 333.914062 208.355469 332.835938 C 209.074219 331.757812 209.847656 330.714844 210.671875 329.710938 C 211.496094 328.707031 212.367188 327.746094 213.285156 326.828125 C 214.203125 325.910156 215.164062 325.039062 216.167969 324.214844 C 217.171875 323.390625 218.210938 322.621094 219.289062 321.898438 C 220.371094 321.175781 221.484375 320.511719 222.628906 319.898438 C 223.773438 319.285156 224.945312 318.730469 226.144531 318.234375 C 227.34375 317.738281 228.566406 317.300781 229.808594 316.925781 C 231.050781 316.546875 232.308594 316.230469 233.582031 315.980469 C 234.855469 315.726562 236.136719 315.535156 237.429688 315.40625 C 238.71875 315.28125 240.015625 315.21875 241.3125 315.21875 C 242.613281 315.21875 243.90625 315.28125 245.199219 315.40625 C 246.492188 315.535156 247.773438 315.726562 249.046875 315.980469 C 250.320312 316.230469 251.578125 316.546875 252.820312 316.921875 C 254.0625 317.300781 255.285156 317.738281 256.484375 318.234375 C 257.683594 318.730469 258.855469 319.285156 260 319.898438 C 261.144531 320.507812 262.257812 321.175781 263.335938 321.898438 C 264.417969 322.617188 265.457031 323.390625 266.460938 324.214844 C 267.464844 325.039062 268.425781 325.910156 269.34375 326.828125 Z M 269.34375 326.828125 " fill-opacity="1" fill-rule="nonzero"/><path fill="#000000" d="M 231.832031 471.476562 L 305.941406 488.390625 C 306.996094 488.632812 308.050781 488.746094 309.089844 488.746094 C 315.519531 488.746094 321.328125 484.320312 322.820312 477.785156 C 324.546875 470.195312 319.800781 462.636719 312.210938 460.90625 L 241.445312 444.753906 L 193.324219 404.121094 C 187.375 399.09375 178.480469 399.84375 173.460938 405.796875 C 168.4375 411.742188 169.191406 420.636719 175.136719 425.65625 L 225.878906 468.5 C 227.597656 469.957031 229.640625 470.976562 231.832031 471.476562 Z M 231.832031 471.476562 " fill-opacity="1" fill-rule="nonzero"/></svg>