<svg xmlns="http://www.w3.org/2000/svg" xmlns:xlink="http://www.w3.org/1999/xlink" width="1024" zoomAndPan="magnify" viewBox="0 0 768 775.92" height="1024" preserveAspectRatio="xMidYMid meet" version="1.0"><defs><clipPath id="dc69106bc9"><path d="M 76.832031 503 L 194 503 L 194 629 L 76.832031 629 Z M 76.832031 503 " clip-rule="nonzero"/></clipPath><clipPath id="e6e8925ec3"><path d="M 113 284 L 440 284 L 440 634.566406 L 113 634.566406 Z M 113 284 " clip-rule="nonzero"/></clipPath></defs><path fill="#000000" d="M 676.902344 197.761719 C 677.132812 198.800781 677.339844 199.847656 677.523438 200.902344 C 677.707031 201.953125 677.863281 203.007812 677.992188 204.066406 C 678.121094 205.128906 678.226562 206.191406 678.304688 207.253906 C 678.382812 208.320312 678.433594 209.386719 678.460938 210.453125 C 678.484375 211.519531 678.484375 212.585938 678.457031 213.65625 C 678.429688 214.722656 678.378906 215.789062 678.300781 216.851562 C 678.21875 217.917969 678.117188 218.980469 677.984375 220.039062 C 677.851562 221.097656 677.695312 222.152344 677.511719 223.207031 C 677.332031 224.257812 677.121094 225.304688 676.886719 226.347656 C 676.652344 227.386719 676.394531 228.421875 676.109375 229.453125 C 675.824219 230.480469 675.515625 231.5 675.179688 232.515625 C 674.84375 233.527344 674.484375 234.535156 674.101562 235.53125 C 673.714844 236.523438 673.308594 237.511719 672.875 238.488281 C 672.441406 239.460938 671.984375 240.425781 671.503906 241.378906 C 671.023438 242.335938 670.523438 243.273438 669.996094 244.203125 C 669.46875 245.132812 668.921875 246.046875 668.351562 246.949219 C 667.777344 247.851562 667.1875 248.738281 666.570312 249.609375 C 665.957031 250.484375 665.320312 251.339844 664.664062 252.183594 C 664.007812 253.023438 663.332031 253.847656 662.632812 254.65625 C 661.9375 255.464844 661.21875 256.253906 660.484375 257.027344 C 659.746094 257.800781 658.992188 258.554688 658.21875 259.289062 C 657.445312 260.027344 656.65625 260.742188 655.847656 261.441406 C 655.039062 262.136719 654.214844 262.8125 653.375 263.46875 C 652.53125 264.125 651.675781 264.761719 650.804688 265.375 C 649.929688 265.992188 649.042969 266.582031 648.144531 267.152344 C 647.242188 267.726562 646.328125 268.273438 645.398438 268.800781 C 644.46875 269.324219 643.527344 269.828125 642.574219 270.308594 C 641.621094 270.785156 640.65625 271.242188 639.683594 271.675781 C 638.707031 272.105469 637.722656 272.515625 636.726562 272.898438 C 635.730469 273.28125 634.726562 273.640625 633.714844 273.976562 C 632.699219 274.3125 631.679688 274.621094 630.652344 274.902344 C 629.621094 275.1875 628.589844 275.449219 627.546875 275.679688 C 626.507812 275.914062 625.460938 276.121094 624.410156 276.304688 C 623.359375 276.484375 622.304688 276.640625 621.246094 276.773438 C 620.183594 276.902344 619.125 277.007812 618.058594 277.085938 C 616.996094 277.164062 615.929688 277.214844 614.863281 277.242188 C 613.796875 277.265625 612.730469 277.265625 611.664062 277.238281 C 610.597656 277.210938 609.535156 277.160156 608.46875 277.082031 C 607.40625 277 606.34375 276.898438 605.285156 276.765625 C 604.226562 276.632812 603.171875 276.476562 602.121094 276.292969 C 601.070312 276.113281 600.023438 275.902344 598.984375 275.667969 C 597.941406 275.433594 596.90625 275.175781 595.878906 274.890625 C 594.851562 274.605469 593.832031 274.292969 592.820312 273.957031 C 591.804688 273.621094 590.800781 273.261719 589.808594 272.878906 C 588.8125 272.492188 587.828125 272.085938 586.851562 271.652344 C 585.875 271.21875 584.914062 270.761719 583.960938 270.28125 C 583.007812 269.800781 582.066406 269.296875 581.140625 268.769531 C 580.210938 268.242188 579.296875 267.695312 578.394531 267.125 C 577.496094 266.550781 576.609375 265.957031 575.734375 265.34375 C 574.863281 264.726562 574.007812 264.09375 573.167969 263.433594 C 572.324219 262.777344 571.503906 262.101562 570.695312 261.402344 C 569.886719 260.703125 569.097656 259.988281 568.324219 259.25 C 567.550781 258.515625 566.796875 257.757812 566.0625 256.984375 C 565.328125 256.210938 564.613281 255.421875 563.914062 254.613281 C 563.21875 253.804688 562.542969 252.980469 561.886719 252.136719 C 561.230469 251.292969 560.597656 250.4375 559.984375 249.5625 C 559.367188 248.691406 558.777344 247.804688 558.207031 246.902344 C 557.636719 246 557.089844 245.082031 556.5625 244.152344 C 556.039062 243.226562 555.535156 242.285156 555.054688 241.328125 C 554.578125 240.375 554.121094 239.410156 553.6875 238.433594 C 553.257812 237.457031 552.847656 236.472656 552.464844 235.476562 C 552.082031 234.480469 551.722656 233.472656 551.390625 232.460938 C 551.054688 231.445312 550.746094 230.425781 550.460938 229.394531 C 550.179688 228.367188 549.917969 227.332031 549.6875 226.289062 C 549.453125 225.246094 549.246094 224.199219 549.0625 223.148438 C 548.882812 222.097656 548.726562 221.042969 548.59375 219.980469 C 548.464844 218.921875 548.359375 217.859375 548.28125 216.796875 C 548.203125 215.730469 548.152344 214.664062 548.128906 213.597656 C 548.101562 212.53125 548.101562 211.460938 548.128906 210.394531 C 548.15625 209.328125 548.207031 208.261719 548.285156 207.195312 C 548.367188 206.132812 548.472656 205.070312 548.601562 204.011719 C 548.734375 202.953125 548.890625 201.894531 549.074219 200.84375 C 549.253906 199.792969 549.464844 198.746094 549.699219 197.703125 C 549.933594 196.664062 550.191406 195.625 550.476562 194.597656 C 550.761719 193.570312 551.074219 192.546875 551.40625 191.535156 C 551.742188 190.519531 552.101562 189.515625 552.488281 188.519531 C 552.871094 187.523438 553.28125 186.539062 553.710938 185.5625 C 554.144531 184.585938 554.601562 183.621094 555.082031 182.667969 C 555.5625 181.714844 556.066406 180.773438 556.589844 179.84375 C 557.117188 178.917969 557.664062 178 558.238281 177.101562 C 558.808594 176.199219 559.402344 175.3125 560.015625 174.4375 C 560.628906 173.566406 561.265625 172.707031 561.921875 171.867188 C 562.578125 171.027344 563.257812 170.203125 563.953125 169.394531 C 564.652344 168.585938 565.367188 167.792969 566.101562 167.023438 C 566.839844 166.25 567.59375 165.496094 568.367188 164.757812 C 569.140625 164.023438 569.929688 163.304688 570.738281 162.609375 C 571.546875 161.914062 572.371094 161.234375 573.210938 160.578125 C 574.054688 159.921875 574.910156 159.289062 575.78125 158.671875 C 576.65625 158.058594 577.542969 157.464844 578.445312 156.894531 C 579.34375 156.324219 580.261719 155.777344 581.1875 155.25 C 582.117188 154.726562 583.058594 154.222656 584.011719 153.742188 C 584.964844 153.261719 585.929688 152.808594 586.902344 152.375 C 587.878906 151.941406 588.863281 151.535156 589.859375 151.152344 C 590.855469 150.765625 591.859375 150.40625 592.875 150.074219 C 593.886719 149.738281 594.90625 149.429688 595.933594 149.144531 C 596.964844 148.859375 598 148.601562 599.039062 148.367188 C 600.082031 148.136719 601.125 147.925781 602.175781 147.746094 C 603.230469 147.5625 604.285156 147.40625 605.34375 147.277344 C 606.402344 147.148438 607.460938 147.042969 608.527344 146.964844 C 609.589844 146.886719 610.65625 146.835938 611.722656 146.808594 C 612.789062 146.78125 613.855469 146.785156 614.921875 146.808594 C 615.988281 146.835938 617.054688 146.890625 618.117188 146.96875 C 619.179688 147.046875 620.242188 147.152344 621.300781 147.285156 C 622.359375 147.414062 623.414062 147.570312 624.464844 147.753906 C 625.515625 147.9375 626.5625 148.148438 627.601562 148.382812 C 628.644531 148.617188 629.679688 148.875 630.707031 149.160156 C 631.734375 149.445312 632.753906 149.757812 633.769531 150.089844 C 634.78125 150.425781 635.785156 150.785156 636.78125 151.171875 C 637.773438 151.554688 638.761719 151.964844 639.734375 152.398438 C 640.710938 152.832031 641.675781 153.289062 642.625 153.769531 C 643.578125 154.25 644.519531 154.753906 645.449219 155.277344 C 646.375 155.804688 647.289062 156.355469 648.191406 156.925781 C 649.09375 157.496094 649.980469 158.089844 650.851562 158.707031 C 651.722656 159.320312 652.578125 159.957031 653.417969 160.613281 C 654.261719 161.273438 655.085938 161.949219 655.890625 162.648438 C 656.699219 163.34375 657.488281 164.0625 658.261719 164.796875 C 659.035156 165.535156 659.789062 166.289062 660.523438 167.0625 C 661.257812 167.835938 661.972656 168.628906 662.671875 169.4375 C 663.367188 170.246094 664.042969 171.070312 664.699219 171.914062 C 665.355469 172.753906 665.988281 173.613281 666.605469 174.484375 C 667.21875 175.359375 667.808594 176.246094 668.378906 177.148438 C 668.949219 178.050781 669.5 178.964844 670.023438 179.894531 C 670.550781 180.824219 671.050781 181.765625 671.53125 182.71875 C 672.011719 183.675781 672.464844 184.640625 672.898438 185.613281 C 673.328125 186.589844 673.738281 187.578125 674.121094 188.574219 C 674.503906 189.570312 674.863281 190.574219 675.199219 191.589844 C 675.53125 192.601562 675.839844 193.625 676.125 194.652344 C 676.410156 195.683594 676.667969 196.71875 676.902344 197.761719 Z M 676.902344 197.761719 " fill-opacity="1" fill-rule="nonzero"/><path fill="#000000" d="M 527.132812 264.953125 C 527.132812 281.421875 513.746094 294.816406 497.292969 294.816406 L 465.476562 294.816406 L 489.746094 329.734375 L 543.441406 295.867188 C 559.296875 269.425781 555.074219 241.476562 542.257812 225.40625 C 526.367188 205.46875 490.460938 209.941406 467.699219 229.511719 C 465.210938 231.296875 462.625 233.171875 459.996094 235.085938 L 497.292969 235.085938 C 513.746094 235.089844 527.132812 248.488281 527.132812 264.953125 Z M 527.132812 264.953125 " fill-opacity="1" fill-rule="nonzero"/><g clip-path="url(#dc69106bc9)"><path fill="#000000" d="M 107.238281 594.761719 C 108.058594 583.40625 113.226562 573.054688 121.78125 565.566406 L 121.78125 548.484375 C 121.78125 539.820312 128.828125 532.765625 137.488281 532.765625 L 159.652344 532.765625 L 193.140625 503.773438 L 137.488281 503.773438 C 112.855469 503.773438 92.8125 523.832031 92.8125 548.484375 L 92.8125 599.695312 L 76.832031 599.695312 L 76.832031 628.6875 L 120.238281 628.6875 C 119.324219 627.804688 118.417969 626.898438 117.578125 625.929688 C 110.085938 617.261719 106.414062 606.191406 107.238281 594.761719 Z M 107.238281 594.761719 " fill-opacity="1" fill-rule="nonzero"/></g><path fill="#000000" d="M 586.265625 599.695312 L 586.265625 628.6875 L 647.195312 628.6875 L 647.195312 599.695312 L 631.214844 599.695312 L 631.214844 548.484375 C 631.214844 523.832031 611.175781 503.773438 586.539062 503.773438 L 524.960938 503.773438 L 490.144531 437.203125 L 481.542969 442.640625 L 490.3125 456.539062 C 492.820312 460.511719 493.335938 465.53125 491.679688 469.957031 C 490.507812 473.085938 488.40625 475.679688 485.589844 477.460938 L 480.261719 480.828125 L 492.261719 503.769531 L 322.601562 503.769531 C 320.765625 506.230469 318.71875 508.535156 316.390625 510.550781 L 290.730469 532.765625 L 586.542969 532.765625 C 595.203125 532.765625 602.25 539.816406 602.25 548.480469 L 602.25 599.691406 L 586.265625 599.691406 Z M 586.265625 599.695312 " fill-opacity="1" fill-rule="nonzero"/><path fill="#000000" d="M 252.476562 451.464844 L 136.363281 451.464844 C 125.089844 451.464844 115.867188 460.691406 115.867188 471.972656 C 115.867188 483.253906 125.089844 492.484375 136.363281 492.484375 L 206.1875 492.484375 L 251.960938 452.855469 Z M 252.476562 451.464844 " fill-opacity="1" fill-rule="nonzero"/><path fill="#000000" d="M 518.144531 370.589844 L 521.066406 368.746094 L 518.007812 363.898438 C 515.496094 359.921875 514.988281 354.902344 516.636719 350.476562 C 517.804688 347.347656 519.914062 344.753906 522.726562 342.972656 L 538.296875 333.132812 C 541.714844 330.972656 545.773438 330.277344 549.726562 331.175781 C 553.679688 332.066406 557.046875 334.441406 559.203125 337.859375 L 562.285156 342.746094 L 590.039062 325.238281 C 599.558594 319.203125 602.417969 306.464844 596.382812 296.9375 C 590.351562 287.410156 577.621094 284.550781 568.101562 290.59375 L 494.714844 336.886719 Z M 518.144531 370.589844 " fill-opacity="1" fill-rule="nonzero"/><path fill="#000000" d="M 336.917969 484.90625 L 418.214844 433.625 L 415.214844 428.875 C 412.703125 424.898438 412.195312 419.878906 413.847656 415.453125 C 415.015625 412.324219 417.121094 409.730469 419.9375 407.949219 L 435.503906 398.105469 C 442.574219 393.640625 451.953125 395.761719 456.414062 402.832031 L 465.183594 416.722656 L 473.753906 411.304688 L 444.175781 368.753906 L 353.347656 426.054688 L 331.535156 484.933594 C 333.527344 485.785156 335.382812 485.878906 336.917969 484.90625 Z M 336.917969 484.90625 " fill-opacity="1" fill-rule="nonzero"/><g clip-path="url(#e6e8925ec3)"><path fill="#000000" d="M 257.613281 456.777344 L 126.3125 570.449219 C 111.1875 583.546875 109.535156 606.433594 122.621094 621.566406 C 129.78125 629.855469 139.871094 634.097656 150.023438 634.097656 C 158.417969 634.097656 166.851562 631.195312 173.699219 625.265625 L 312.03125 505.511719 C 316.644531 501.519531 320.175781 496.425781 322.292969 490.703125 L 361.558594 384.726562 L 368.535156 385.078125 L 358.324219 412.640625 L 381.105469 398.265625 L 381.105469 398.03125 C 381.28125 398.003906 381.457031 397.964844 381.628906 397.9375 L 439.210938 361.617188 L 385.785156 284.757812 C 370.605469 293.191406 354.882812 300.480469 339.03125 305.316406 C 324.894531 310.804688 316.382812 315.917969 311.824219 321.4375 C 307.875 325.152344 304.671875 329.78125 302.660156 335.214844 L 285.722656 380.921875 Z M 257.613281 456.777344 " fill-opacity="1" fill-rule="nonzero"/></g><path fill="#000000" d="M 483.410156 425.203125 L 477.566406 416.792969 L 463.113281 425.925781 L 450.785156 406.394531 C 448.289062 402.441406 443.015625 401.25 439.070312 403.746094 L 423.5 413.585938 C 419.550781 416.082031 418.359375 421.359375 420.855469 425.3125 L 454.75 479.015625 C 457.246094 482.96875 462.519531 484.160156 466.464844 481.664062 L 482.035156 471.820312 C 485.984375 469.324219 487.175781 464.046875 484.679688 460.09375 L 472.351562 440.5625 L 488.1875 430.550781 C 486.402344 428.984375 484.796875 427.195312 483.410156 425.203125 Z M 483.410156 425.203125 " fill-opacity="1" fill-rule="nonzero"/><path fill="#000000" d="M 553.570312 341.417969 C 551.078125 337.464844 545.808594 336.273438 541.859375 338.769531 L 526.285156 348.613281 C 522.339844 351.105469 521.148438 356.382812 523.644531 360.335938 L 535.972656 379.867188 L 528.070312 384.863281 L 532.402344 391.09375 C 534.335938 393.875 535.699219 396.875 536.578125 399.964844 L 545.210938 394.503906 L 557.539062 414.035156 C 560.035156 417.988281 565.308594 419.179688 569.253906 416.683594 L 584.824219 406.839844 C 588.773438 404.34375 589.960938 399.070312 587.46875 395.117188 Z M 553.570312 341.417969 " fill-opacity="1" fill-rule="nonzero"/><path fill="#000000" d="M 488.878906 421.394531 C 493.382812 427.875 500.59375 431.347656 507.925781 431.347656 C 512.492188 431.347656 517.105469 429.996094 521.140625 427.191406 C 531.648438 419.875 534.242188 405.421875 526.933594 394.902344 L 452.726562 288.148438 L 497.292969 288.148438 C 510.09375 288.148438 520.472656 277.761719 520.472656 264.953125 C 520.472656 252.144531 510.09375 241.757812 497.292969 241.757812 L 408.371094 241.757812 C 399.742188 241.757812 391.824219 246.558594 387.828125 254.210938 C 383.832031 261.867188 384.414062 271.109375 389.34375 278.199219 Z M 488.878906 421.394531 " fill-opacity="1" fill-rule="nonzero"/></svg>