<svg xmlns="http://www.w3.org/2000/svg" xmlns:xlink="http://www.w3.org/1999/xlink" width="1024" zoomAndPan="magnify" viewBox="0 0 768 775.92" height="1024" preserveAspectRatio="xMidYMid meet" version="1.0"><defs><clipPath id="0d77a803c5"><path d="M 469 409 L 541.542969 409 L 541.542969 482 L 469 482 Z M 469 409 " clip-rule="nonzero"/></clipPath></defs><path fill="#000000" d="M 465.542969 135.757812 C 465.542969 137.660156 465.449219 139.554688 465.261719 141.445312 C 465.074219 143.335938 464.796875 145.210938 464.425781 147.074219 C 464.054688 148.9375 463.59375 150.777344 463.042969 152.597656 C 462.492188 154.414062 461.851562 156.199219 461.125 157.957031 C 460.394531 159.710938 459.585938 161.425781 458.6875 163.101562 C 457.792969 164.777344 456.816406 166.402344 455.757812 167.984375 C 454.703125 169.5625 453.574219 171.085938 452.367188 172.554688 C 451.160156 174.023438 449.886719 175.429688 448.542969 176.773438 C 447.199219 178.117188 445.789062 179.390625 444.320312 180.597656 C 442.851562 181.800781 441.328125 182.929688 439.746094 183.988281 C 438.164062 185.042969 436.539062 186.019531 434.859375 186.914062 C 433.183594 187.808594 431.46875 188.621094 429.710938 189.347656 C 427.957031 190.074219 426.167969 190.714844 424.347656 191.265625 C 422.53125 191.816406 420.6875 192.277344 418.824219 192.648438 C 416.960938 193.019531 415.082031 193.296875 413.191406 193.484375 C 411.296875 193.667969 409.402344 193.761719 407.5 193.761719 C 405.601562 193.761719 403.703125 193.667969 401.8125 193.484375 C 399.921875 193.296875 398.042969 193.019531 396.175781 192.648438 C 394.3125 192.277344 392.472656 191.816406 390.652344 191.265625 C 388.832031 190.714844 387.046875 190.074219 385.289062 189.347656 C 383.535156 188.621094 381.816406 187.808594 380.140625 186.914062 C 378.464844 186.019531 376.835938 185.042969 375.253906 183.988281 C 373.675781 182.929688 372.148438 181.800781 370.679688 180.597656 C 369.210938 179.390625 367.804688 178.117188 366.460938 176.773438 C 365.117188 175.429688 363.839844 174.023438 362.632812 172.554688 C 361.429688 171.085938 360.296875 169.5625 359.242188 167.984375 C 358.183594 166.402344 357.210938 164.777344 356.3125 163.101562 C 355.417969 161.425781 354.605469 159.710938 353.878906 157.957031 C 353.152344 156.199219 352.511719 154.414062 351.960938 152.597656 C 351.40625 150.777344 350.945312 148.9375 350.574219 147.074219 C 350.203125 145.210938 349.925781 143.335938 349.738281 141.445312 C 349.554688 139.554688 349.460938 137.660156 349.460938 135.757812 C 349.460938 133.859375 349.554688 131.964844 349.738281 130.074219 C 349.925781 128.183594 350.203125 126.304688 350.574219 124.441406 C 350.945312 122.578125 351.40625 120.738281 351.960938 118.921875 C 352.511719 117.101562 353.152344 115.316406 353.878906 113.5625 C 354.605469 111.804688 355.417969 110.089844 356.3125 108.414062 C 357.210938 106.742188 358.183594 105.113281 359.242188 103.535156 C 360.296875 101.953125 361.429688 100.429688 362.632812 98.960938 C 363.839844 97.492188 365.117188 96.085938 366.460938 94.742188 C 367.804688 93.402344 369.210938 92.125 370.679688 90.921875 C 372.148438 89.714844 373.675781 88.585938 375.253906 87.53125 C 376.835938 86.476562 378.464844 85.5 380.140625 84.605469 C 381.816406 83.707031 383.535156 82.898438 385.289062 82.171875 C 387.046875 81.441406 388.832031 80.804688 390.652344 80.253906 C 392.472656 79.699219 394.3125 79.238281 396.175781 78.871094 C 398.042969 78.5 399.921875 78.21875 401.8125 78.035156 C 403.703125 77.847656 405.601562 77.753906 407.5 77.753906 C 409.402344 77.753906 411.296875 77.847656 413.191406 78.035156 C 415.082031 78.21875 416.960938 78.5 418.824219 78.871094 C 420.6875 79.238281 422.53125 79.699219 424.347656 80.253906 C 426.167969 80.804688 427.957031 81.441406 429.710938 82.171875 C 431.46875 82.898438 433.183594 83.707031 434.859375 84.605469 C 436.539062 85.5 438.164062 86.476562 439.746094 87.53125 C 441.328125 88.585938 442.851562 89.714844 444.320312 90.921875 C 445.789062 92.125 447.199219 93.402344 448.542969 94.742188 C 449.886719 96.085938 451.160156 97.492188 452.367188 98.960938 C 453.574219 100.429688 454.703125 101.953125 455.757812 103.535156 C 456.816406 105.113281 457.792969 106.742188 458.6875 108.414062 C 459.585938 110.089844 460.394531 111.804688 461.125 113.5625 C 461.851562 115.316406 462.492188 117.101562 463.042969 118.921875 C 463.59375 120.738281 464.054688 122.578125 464.425781 124.441406 C 464.796875 126.304688 465.074219 128.183594 465.261719 130.074219 C 465.449219 131.964844 465.542969 133.859375 465.542969 135.757812 Z M 465.542969 135.757812 " fill-opacity="1" fill-rule="nonzero"/><path fill="#000000" d="M 316.679688 249.019531 L 337.050781 254.167969 L 340.636719 239.996094 C 342.457031 232.789062 349.8125 228.40625 357.027344 230.230469 L 372.925781 234.246094 C 380.140625 236.070312 384.523438 243.417969 382.699219 250.625 L 368.847656 305.382812 C 367.023438 312.589844 359.671875 316.972656 352.457031 315.148438 L 337.738281 311.429688 L 337.738281 384.613281 L 315.734375 654.238281 C 314.304688 671.789062 327.378906 687.167969 344.929688 688.59375 C 362.484375 690.023438 377.878906 676.96875 379.3125 659.421875 L 396.398438 450.042969 L 418.609375 450.042969 L 435.699219 659.421875 C 437.128906 676.972656 452.523438 690.027344 470.078125 688.59375 C 487.632812 687.164062 500.707031 671.789062 499.273438 654.238281 L 485.21875 481.988281 C 472.523438 474.824219 463.921875 461.234375 463.921875 445.652344 C 463.921875 432.503906 470.054688 420.769531 479.597656 413.121094 L 477.269531 384.605469 L 477.269531 317.292969 C 473.328125 297.710938 468.6875 284.085938 464.378906 274.710938 L 470.042969 272.664062 C 479.558594 293.628906 489.945312 332.988281 492.300781 406.164062 C 496.503906 404.738281 500.988281 403.929688 505.667969 403.929688 C 516.515625 403.929688 526.382812 408.125 533.8125 414.925781 C 532.328125 346.046875 524.023438 293.613281 509.054688 258.570312 C 506.941406 253.621094 504.703125 249.003906 502.324219 244.753906 C 489.703125 222.1875 475.507812 213.644531 465.960938 210.4375 C 463.347656 209.179688 460.429688 208.453125 457.332031 208.453125 L 357.671875 208.453125 C 352.050781 208.453125 346.984375 210.785156 343.363281 214.519531 L 342.023438 212.3125 C 340.78125 213.070312 325.738281 222.492188 311.757812 243.5 C 313.6875 245.136719 315.328125 246.996094 316.679688 249.019531 Z M 316.679688 249.019531 " fill-opacity="1" fill-rule="nonzero"/><path fill="#000000" d="M 326.78125 294.753906 L 330.367188 280.585938 L 317.359375 277.296875 C 317.347656 277.3125 317.339844 277.332031 317.332031 277.347656 C 316.703125 280.960938 318.160156 290.472656 321.433594 302.535156 L 315.902344 304.816406 C 312.132812 291.148438 310.375 279.625 311.804688 275 C 317.859375 265.765625 315.558594 253.328125 306.476562 246.886719 C 297.175781 240.292969 284.296875 242.484375 277.703125 251.773438 C 268.023438 265.414062 267.707031 286.394531 276.714844 317.804688 C 276.984375 318.75 277.261719 319.6875 277.542969 320.617188 C 282.953125 338.734375 289.503906 353.832031 289.792969 354.496094 C 289.824219 354.574219 289.875 354.640625 289.90625 354.71875 C 290.292969 355.578125 290.722656 356.40625 291.21875 357.195312 C 291.269531 357.277344 291.328125 357.351562 291.378906 357.429688 C 291.820312 358.113281 292.304688 358.761719 292.824219 359.386719 C 292.960938 359.550781 293.089844 359.714844 293.226562 359.871094 C 293.777344 360.5 294.363281 361.089844 294.988281 361.644531 C 295.15625 361.792969 295.328125 361.929688 295.5 362.074219 C 296.082031 362.558594 296.683594 363.015625 297.316406 363.433594 C 297.417969 363.5 297.515625 363.578125 297.617188 363.640625 C 298.355469 364.109375 299.128906 364.523438 299.921875 364.898438 C 300.070312 364.96875 300.214844 365.03125 300.363281 365.097656 C 301.980469 365.8125 303.699219 366.328125 305.492188 366.609375 C 305.667969 366.636719 305.84375 366.664062 306.023438 366.683594 C 306.898438 366.800781 307.78125 366.878906 308.683594 366.878906 C 308.6875 366.878906 308.691406 366.878906 308.691406 366.878906 C 308.699219 366.878906 308.703125 366.882812 308.710938 366.882812 C 308.78125 366.882812 308.851562 366.871094 308.921875 366.871094 C 309.394531 366.867188 309.875 366.851562 310.351562 366.8125 C 310.417969 366.808594 310.476562 366.796875 310.542969 366.789062 C 310.910156 366.753906 311.277344 366.699219 311.644531 366.644531 C 311.984375 366.59375 312.328125 366.554688 312.664062 366.488281 C 312.929688 366.433594 313.195312 366.363281 313.460938 366.296875 C 313.898438 366.195312 314.339844 366.089844 314.765625 365.957031 C 314.945312 365.902344 315.125 365.835938 315.300781 365.777344 C 315.808594 365.605469 316.304688 365.425781 316.792969 365.214844 C 316.839844 365.195312 316.894531 365.183594 316.941406 365.160156 C 317.058594 365.109375 317.167969 365.042969 317.28125 364.992188 C 317.742188 364.78125 318.191406 364.5625 318.632812 364.320312 C 318.828125 364.210938 319.015625 364.097656 319.207031 363.984375 C 319.589844 363.757812 319.960938 363.527344 320.324219 363.277344 C 320.554688 363.121094 320.777344 362.957031 321 362.792969 C 321.304688 362.566406 321.601562 362.335938 321.894531 362.09375 C 322.140625 361.890625 322.371094 361.679688 322.605469 361.46875 C 322.863281 361.234375 323.113281 361 323.355469 360.757812 C 323.582031 360.527344 323.800781 360.289062 324.015625 360.050781 C 324.25 359.792969 324.476562 359.53125 324.691406 359.261719 C 324.886719 359.027344 325.070312 358.785156 325.25 358.542969 C 325.476562 358.242188 325.691406 357.9375 325.898438 357.625 C 326.046875 357.402344 326.183594 357.179688 326.320312 356.953125 C 326.539062 356.597656 326.742188 356.238281 326.941406 355.867188 C 327.042969 355.671875 327.140625 355.472656 327.238281 355.277344 C 327.4375 354.867188 327.625 354.457031 327.800781 354.03125 C 327.871094 353.851562 327.941406 353.675781 328.007812 353.492188 C 328.171875 353.050781 328.328125 352.605469 328.460938 352.152344 C 328.519531 351.964844 328.566406 351.78125 328.621094 351.589844 C 328.738281 351.148438 328.847656 350.703125 328.933594 350.253906 C 328.980469 350.023438 329.015625 349.792969 329.054688 349.558594 C 329.121094 349.152344 329.183594 348.746094 329.222656 348.332031 C 329.253906 348.027344 329.269531 347.726562 329.289062 347.421875 C 329.308594 347.074219 329.328125 346.722656 329.328125 346.371094 C 329.332031 345.996094 329.3125 345.621094 329.296875 345.246094 C 329.285156 345.035156 329.292969 344.820312 329.277344 344.605469 C 328.152344 330.566406 328.792969 318.335938 330.519531 307.699219 C 327.171875 304.453125 325.558594 299.59375 326.78125 294.753906 Z M 326.78125 294.753906 " fill-opacity="1" fill-rule="nonzero"/><path fill="#000000" d="M 248.953125 282.882812 C 252.984375 283.898438 257.117188 281.4375 258.136719 277.410156 L 263.175781 257.492188 L 267.554688 258.597656 C 268.90625 254.863281 270.660156 251.441406 272.859375 248.34375 C 273.765625 247.0625 274.808594 245.914062 275.910156 244.832031 L 266.949219 242.566406 L 271.988281 222.652344 C 273.007812 218.621094 270.539062 214.492188 266.511719 213.472656 L 250.613281 209.457031 C 246.582031 208.4375 242.449219 210.902344 241.429688 214.929688 L 227.578125 269.683594 C 226.558594 273.714844 229.023438 277.84375 233.054688 278.863281 Z M 248.953125 282.882812 " fill-opacity="1" fill-rule="nonzero"/><path fill="#000000" d="M 319.828125 271.804688 L 337.570312 276.289062 L 332.53125 296.203125 C 331.515625 300.234375 333.980469 304.363281 338.011719 305.382812 L 353.910156 309.398438 C 357.941406 310.417969 362.074219 307.953125 363.09375 303.925781 L 376.949219 249.171875 C 377.96875 245.140625 375.5 241.011719 371.46875 239.992188 L 355.570312 235.976562 C 351.539062 234.957031 347.40625 237.417969 346.386719 241.449219 L 341.347656 261.367188 L 319.984375 255.96875 C 321.542969 261.066406 321.519531 266.589844 319.828125 271.804688 Z M 319.828125 271.804688 " fill-opacity="1" fill-rule="nonzero"/><g clip-path="url(#0d77a803c5)"><path fill="#000000" d="M 505.667969 409.859375 C 485.886719 409.859375 469.851562 425.886719 469.851562 445.652344 C 469.851562 465.421875 485.890625 481.449219 505.667969 481.449219 C 525.453125 481.449219 541.488281 465.421875 541.488281 445.652344 C 541.488281 425.886719 525.453125 409.859375 505.667969 409.859375 Z M 488.808594 445.65625 C 488.808594 436.347656 496.355469 428.804688 505.667969 428.804688 C 514.980469 428.804688 522.53125 436.347656 522.53125 445.65625 C 522.53125 454.960938 514.980469 462.507812 505.667969 462.507812 C 496.355469 462.503906 488.808594 454.960938 488.808594 445.65625 Z M 488.808594 445.65625 " fill-opacity="1" fill-rule="nonzero"/></g><path fill="#000000" d="M 505.667969 452.738281 C 509.582031 452.738281 512.753906 449.566406 512.753906 445.65625 C 512.753906 441.746094 509.582031 438.574219 505.667969 438.574219 C 501.757812 438.574219 498.582031 441.746094 498.582031 445.65625 C 498.582031 449.566406 501.757812 452.738281 505.667969 452.738281 Z M 505.667969 452.738281 " fill-opacity="1" fill-rule="nonzero"/></svg>