<svg xmlns="http://www.w3.org/2000/svg" xmlns:xlink="http://www.w3.org/1999/xlink" width="1024" zoomAndPan="magnify" viewBox="0 0 768 775.92" height="1024" preserveAspectRatio="xMidYMid meet" version="1.0"><defs><clipPath id="32001fff1e"><path d="M 77 213.867188 L 691 213.867188 L 691 554.332031 L 77 554.332031 Z M 77 213.867188 " clip-rule="nonzero"/></clipPath></defs><path fill="#000000" d="M 407.847656 323.410156 C 407.847656 324.195312 407.8125 324.976562 407.734375 325.757812 C 407.65625 326.539062 407.542969 327.3125 407.390625 328.082031 C 407.238281 328.851562 407.046875 329.609375 406.820312 330.359375 C 406.59375 331.113281 406.328125 331.847656 406.027344 332.574219 C 405.730469 333.296875 405.394531 334.007812 405.023438 334.699219 C 404.65625 335.390625 404.253906 336.0625 403.816406 336.714844 C 403.382812 337.367188 402.917969 337.996094 402.417969 338.601562 C 401.921875 339.207031 401.398438 339.789062 400.84375 340.34375 C 400.289062 340.898438 399.710938 341.421875 399.105469 341.921875 C 398.496094 342.417969 397.871094 342.882812 397.21875 343.320312 C 396.566406 343.757812 395.894531 344.160156 395.203125 344.527344 C 394.511719 344.898438 393.804688 345.234375 393.082031 345.535156 C 392.359375 345.832031 391.621094 346.097656 390.871094 346.324219 C 390.121094 346.550781 389.363281 346.742188 388.59375 346.894531 C 387.828125 347.050781 387.050781 347.164062 386.273438 347.242188 C 385.492188 347.316406 384.710938 347.355469 383.929688 347.355469 C 383.144531 347.355469 382.363281 347.316406 381.582031 347.242188 C 380.804688 347.164062 380.03125 347.050781 379.261719 346.894531 C 378.492188 346.742188 377.734375 346.550781 376.984375 346.324219 C 376.234375 346.097656 375.496094 345.832031 374.773438 345.535156 C 374.050781 345.234375 373.34375 344.898438 372.652344 344.527344 C 371.960938 344.160156 371.289062 343.757812 370.636719 343.320312 C 369.988281 342.882812 369.359375 342.417969 368.753906 341.921875 C 368.148438 341.421875 367.566406 340.898438 367.011719 340.34375 C 366.460938 339.789062 365.933594 339.207031 365.4375 338.601562 C 364.941406 337.996094 364.472656 337.367188 364.039062 336.714844 C 363.601562 336.0625 363.199219 335.390625 362.832031 334.699219 C 362.460938 334.007812 362.128906 333.296875 361.828125 332.574219 C 361.527344 331.847656 361.265625 331.113281 361.035156 330.359375 C 360.808594 329.609375 360.621094 328.851562 360.464844 328.082031 C 360.3125 327.3125 360.199219 326.539062 360.121094 325.757812 C 360.046875 324.976562 360.007812 324.195312 360.007812 323.410156 C 360.007812 322.625 360.046875 321.84375 360.121094 321.0625 C 360.199219 320.28125 360.3125 319.507812 360.464844 318.738281 C 360.621094 317.96875 360.808594 317.207031 361.035156 316.457031 C 361.265625 315.707031 361.527344 314.96875 361.828125 314.246094 C 362.128906 313.519531 362.460938 312.8125 362.832031 312.121094 C 363.199219 311.429688 363.601562 310.757812 364.039062 310.105469 C 364.472656 309.453125 364.941406 308.824219 365.4375 308.21875 C 365.933594 307.613281 366.460938 307.03125 367.011719 306.476562 C 367.566406 305.921875 368.148438 305.394531 368.753906 304.898438 C 369.359375 304.402344 369.988281 303.933594 370.636719 303.5 C 371.289062 303.0625 371.960938 302.660156 372.652344 302.289062 C 373.34375 301.921875 374.050781 301.585938 374.773438 301.285156 C 375.496094 300.984375 376.234375 300.722656 376.984375 300.496094 C 377.734375 300.265625 378.492188 300.078125 379.261719 299.921875 C 380.03125 299.769531 380.804688 299.65625 381.582031 299.578125 C 382.363281 299.5 383.144531 299.464844 383.929688 299.464844 C 384.710938 299.464844 385.492188 299.5 386.273438 299.578125 C 387.050781 299.65625 387.828125 299.769531 388.59375 299.921875 C 389.363281 300.078125 390.121094 300.265625 390.871094 300.496094 C 391.621094 300.722656 392.359375 300.984375 393.082031 301.285156 C 393.804688 301.585938 394.511719 301.921875 395.203125 302.289062 C 395.894531 302.660156 396.566406 303.0625 397.21875 303.5 C 397.871094 303.933594 398.496094 304.402344 399.105469 304.898438 C 399.710938 305.394531 400.289062 305.921875 400.84375 306.476562 C 401.398438 307.03125 401.921875 307.613281 402.417969 308.21875 C 402.917969 308.824219 403.382812 309.453125 403.816406 310.105469 C 404.253906 310.757812 404.65625 311.429688 405.023438 312.121094 C 405.394531 312.8125 405.730469 313.519531 406.027344 314.246094 C 406.328125 314.96875 406.59375 315.707031 406.820312 316.457031 C 407.046875 317.207031 407.238281 317.96875 407.390625 318.738281 C 407.542969 319.507812 407.65625 320.28125 407.734375 321.0625 C 407.8125 321.84375 407.847656 322.625 407.847656 323.410156 Z M 407.847656 323.410156 " fill-opacity="1" fill-rule="nonzero"/><path fill="#000000" d="M 116.4375 227.980469 C 116.4375 226.683594 115.386719 225.628906 114.085938 225.628906 C 112.789062 225.628906 111.734375 226.683594 111.734375 227.980469 C 111.734375 229.28125 112.789062 230.335938 114.085938 230.335938 C 115.386719 230.335938 116.4375 229.28125 116.4375 227.980469 Z M 116.4375 227.980469 " fill-opacity="1" fill-rule="nonzero"/><path fill="#000000" d="M 188.753906 227.980469 C 188.753906 229.28125 189.808594 230.335938 191.105469 230.335938 C 192.402344 230.335938 193.457031 229.28125 193.457031 227.980469 C 193.457031 226.683594 192.402344 225.628906 191.105469 225.628906 C 189.808594 225.628906 188.753906 226.683594 188.753906 227.980469 Z M 188.753906 227.980469 " fill-opacity="1" fill-rule="nonzero"/><g clip-path="url(#32001fff1e)"><path fill="#000000" d="M 537.890625 338.320312 C 540.410156 338.320312 542.457031 336.273438 542.457031 333.75 C 542.457031 332.84375 542.183594 332.007812 541.730469 331.296875 L 578.421875 295.484375 C 579.902344 296.5625 581.71875 297.207031 583.683594 297.207031 L 588.675781 297.207031 L 588.675781 301.003906 L 592.300781 301.003906 L 592.300781 543.0625 L 572.3125 543.0625 L 572.3125 554.355469 L 686.597656 554.355469 L 686.597656 543.0625 L 672.96875 543.0625 L 672.96875 349.476562 L 650.5625 349.476562 L 650.5625 242.097656 L 656.554688 242.097656 C 662.308594 242.097656 667.277344 238.601562 669.464844 233.628906 L 690.386719 233.628906 L 690.386719 222.335938 L 669.460938 222.335938 C 667.277344 217.363281 662.308594 213.867188 656.554688 213.867188 L 573.964844 213.867188 C 568.210938 213.867188 563.242188 217.363281 561.054688 222.335938 L 206.800781 222.335938 C 204.613281 217.363281 199.644531 213.867188 193.890625 213.867188 L 111.300781 213.867188 C 105.546875 213.867188 100.578125 217.363281 98.390625 222.335938 L 77.46875 222.335938 L 77.46875 233.628906 L 98.390625 233.628906 C 100.578125 238.601562 105.546875 242.097656 111.300781 242.097656 L 117.292969 242.097656 L 117.292969 349.480469 L 94.886719 349.480469 L 94.886719 543.066406 L 81.257812 543.066406 L 81.257812 554.359375 L 195.542969 554.359375 L 195.542969 543.066406 L 175.554688 543.066406 L 175.554688 301.003906 L 179.179688 301.003906 L 179.179688 297.207031 L 184.171875 297.207031 C 186.136719 297.207031 187.953125 296.5625 189.433594 295.484375 L 226.125 331.296875 C 225.671875 332.007812 225.402344 332.84375 225.402344 333.75 C 225.402344 336.273438 227.445312 338.320312 229.96875 338.320312 C 230.914062 338.320312 231.792969 338.03125 232.519531 337.539062 L 248.332031 352.972656 L 245.476562 365.265625 C 244.957031 367.507812 245.496094 369.8125 246.957031 371.585938 C 248.359375 373.296875 250.40625 374.261719 252.605469 374.261719 C 252.691406 374.261719 252.777344 374.261719 252.863281 374.257812 L 260.445312 374 C 263.75 373.882812 266.582031 371.550781 267.332031 368.328125 L 267.789062 366.363281 C 268.085938 366.46875 268.390625 366.5625 268.703125 366.636719 L 316.511719 377.929688 C 317.15625 378.082031 317.808594 378.15625 318.464844 378.15625 C 318.949219 378.15625 319.429688 378.117188 319.90625 378.035156 L 355.171875 371.972656 L 355.171875 426.148438 L 346.105469 537.460938 C 345.515625 544.707031 350.902344 551.054688 358.136719 551.644531 C 365.371094 552.234375 371.714844 546.84375 372.308594 539.601562 L 380.203125 442.660156 L 387.648438 442.660156 L 395.546875 539.601562 C 396.136719 546.84375 402.484375 552.234375 409.71875 551.644531 C 416.953125 551.054688 422.339844 544.707031 421.75 537.460938 L 412.679688 426.144531 L 412.679688 371.972656 L 447.949219 378.035156 C 448.425781 378.117188 448.90625 378.15625 449.386719 378.15625 C 450.042969 378.15625 450.699219 378.082031 451.339844 377.929688 L 499.152344 366.636719 C 499.464844 366.5625 499.769531 366.46875 500.066406 366.363281 L 500.523438 368.328125 C 501.273438 371.550781 504.105469 373.882812 507.410156 374 L 514.988281 374.257812 C 515.078125 374.261719 515.164062 374.261719 515.25 374.261719 C 517.449219 374.261719 519.496094 373.296875 520.902344 371.585938 C 522.363281 369.808594 522.898438 367.507812 522.378906 365.265625 L 519.523438 352.972656 L 535.335938 337.539062 C 536.066406 338.03125 536.941406 338.320312 537.890625 338.320312 Z M 583.011719 291.5625 C 582.722656 291.5625 582.449219 291.515625 582.179688 291.445312 C 582.308594 290.925781 582.203125 290.363281 581.804688 289.953125 C 581.316406 289.449219 580.585938 289.355469 579.988281 289.636719 C 579.78125 289.199219 579.65625 288.71875 579.65625 288.199219 C 579.65625 286.34375 581.15625 284.839844 583.011719 284.839844 C 584.867188 284.839844 586.371094 286.34375 586.371094 288.199219 C 586.371094 290.054688 584.867188 291.5625 583.011719 291.5625 Z M 603.582031 301.003906 L 607.207031 301.003906 L 607.207031 275.394531 L 603.582031 275.394531 L 603.582031 242.097656 L 623.816406 242.097656 L 623.816406 349.476562 L 610.273438 349.476562 L 610.273438 543.066406 L 603.582031 543.066406 Z M 645.972656 349.476562 L 635.09375 349.476562 L 635.09375 242.097656 L 645.972656 242.097656 Z M 659.609375 227.980469 C 659.609375 231.210938 656.996094 233.828125 653.769531 233.828125 C 650.542969 233.828125 647.925781 231.210938 647.925781 227.980469 C 647.925781 224.75 650.542969 222.132812 653.769531 222.132812 C 656.996094 222.132812 659.609375 224.75 659.609375 227.980469 Z M 576.75 222.132812 C 579.976562 222.132812 582.59375 224.75 582.59375 227.980469 C 582.59375 231.210938 579.976562 233.828125 576.75 233.828125 C 573.523438 233.828125 570.910156 231.210938 570.910156 227.980469 C 570.910156 224.75 573.523438 222.132812 576.75 222.132812 Z M 196.945312 227.980469 C 196.945312 231.210938 194.332031 233.828125 191.105469 233.828125 C 187.878906 233.828125 185.261719 231.210938 185.261719 227.980469 C 185.261719 224.75 187.878906 222.132812 191.105469 222.132812 C 194.332031 222.132812 196.945312 224.75 196.945312 227.980469 Z M 108.246094 227.980469 C 108.246094 224.75 110.859375 222.132812 114.085938 222.132812 C 117.316406 222.132812 119.929688 224.75 119.929688 227.980469 C 119.929688 231.210938 117.316406 233.828125 114.085938 233.828125 C 110.859375 233.828125 108.246094 231.210938 108.246094 227.980469 Z M 121.882812 242.097656 L 132.761719 242.097656 L 132.761719 349.476562 L 121.882812 349.476562 Z M 164.273438 543.066406 L 157.582031 543.066406 L 157.582031 349.476562 L 144.039062 349.476562 L 144.039062 242.097656 L 164.273438 242.097656 L 164.273438 275.394531 L 160.648438 275.394531 L 160.648438 301.003906 L 164.273438 301.003906 Z M 181.484375 288.199219 C 181.484375 286.34375 182.988281 284.839844 184.84375 284.839844 C 186.699219 284.839844 188.199219 286.34375 188.199219 288.199219 C 188.199219 288.71875 188.074219 289.203125 187.867188 289.640625 C 187.269531 289.355469 186.539062 289.453125 186.050781 289.953125 C 185.652344 290.363281 185.546875 290.929688 185.671875 291.445312 C 185.40625 291.515625 185.132812 291.5625 184.84375 291.5625 C 182.988281 291.5625 181.484375 290.058594 181.484375 288.199219 Z M 260.300781 369.742188 L 252.71875 370.003906 C 251.761719 370.050781 250.851562 369.628906 250.238281 368.882812 C 249.628906 368.136719 249.402344 367.171875 249.621094 366.230469 L 252.058594 355.738281 C 252.402344 355.695312 252.738281 355.566406 253 355.296875 C 253.613281 354.664062 253.601562 353.65625 252.972656 353.039062 L 252.738281 352.8125 L 255.476562 341.027344 C 255.691406 340.089844 256.320312 339.320312 257.199219 338.921875 C 257.605469 338.738281 258.039062 338.644531 258.472656 338.644531 C 258.96875 338.644531 259.464844 338.765625 259.917969 339.011719 L 266.609375 342.59375 C 267.832031 343.25 268.464844 344.652344 268.152344 346.003906 L 267.078125 350.636719 C 264.796875 351.699219 263.003906 353.753906 262.382812 356.394531 C 261.753906 359.054688 262.453125 361.714844 264.042969 363.691406 L 263.191406 367.363281 C 262.875 368.71875 261.6875 369.695312 260.300781 369.742188 Z M 517.617188 368.882812 C 517.003906 369.628906 516.109375 370.03125 515.136719 370.003906 L 507.554688 369.742188 C 506.167969 369.695312 504.980469 368.71875 504.667969 367.363281 L 503.8125 363.691406 C 505.402344 361.714844 506.105469 359.058594 505.476562 356.394531 C 504.851562 353.753906 503.0625 351.699219 500.78125 350.636719 L 499.703125 346.007812 C 499.390625 344.652344 500.027344 343.25 501.25 342.59375 L 507.9375 339.011719 C 508.785156 338.558594 509.777344 338.523438 510.65625 338.921875 C 511.535156 339.320312 512.164062 340.089844 512.382812 341.03125 L 515.121094 352.8125 L 514.886719 353.039062 C 514.257812 353.65625 514.242188 354.667969 514.859375 355.296875 C 515.121094 355.566406 515.457031 355.695312 515.800781 355.742188 L 518.238281 366.230469 C 518.457031 367.171875 518.230469 368.136719 517.617188 368.882812 Z M 516.523438 340.066406 C 516.003906 337.824219 514.503906 335.992188 512.414062 335.042969 C 510.320312 334.09375 507.957031 334.171875 505.929688 335.257812 L 499.242188 338.839844 C 496.328125 340.402344 494.8125 343.746094 495.5625 346.96875 L 496.242188 349.894531 C 495.910156 349.933594 495.578125 349.984375 495.246094 350.0625 L 449.121094 360.957031 L 406.191406 353.574219 C 405.976562 353.539062 405.765625 353.519531 405.550781 353.5 C 405.195312 353.453125 404.835938 353.417969 404.464844 353.417969 L 363.390625 353.417969 C 363.019531 353.417969 362.65625 353.453125 362.300781 353.5 C 362.089844 353.519531 361.878906 353.539062 361.664062 353.574219 L 318.734375 360.957031 L 272.609375 350.0625 C 272.277344 349.984375 271.945312 349.933594 271.613281 349.894531 L 272.292969 346.96875 C 273.042969 343.746094 271.527344 340.402344 268.613281 338.839844 L 261.925781 335.257812 C 259.898438 334.171875 257.539062 334.09375 255.441406 335.042969 C 253.347656 335.992188 251.851562 337.824219 251.328125 340.066406 L 249.175781 349.335938 L 234.371094 334.886719 C 234.464844 334.519531 234.53125 334.144531 234.53125 333.75 C 234.53125 331.226562 232.484375 329.179688 229.964844 329.179688 C 229.527344 329.179688 229.117188 329.257812 228.71875 329.371094 L 191.652344 293.1875 C 192.609375 291.757812 193.171875 290.042969 193.171875 288.199219 C 193.171875 283.246094 189.121094 279.195312 184.171875 279.195312 L 179.179688 279.195312 L 179.179688 275.398438 L 175.554688 275.398438 L 175.554688 242.097656 L 193.890625 242.097656 C 199.644531 242.097656 204.613281 238.601562 206.800781 233.628906 L 561.054688 233.628906 C 563.242188 238.601562 568.210938 242.097656 573.964844 242.097656 L 592.300781 242.097656 L 592.300781 275.394531 L 588.671875 275.394531 L 588.671875 279.191406 L 583.679688 279.191406 C 578.734375 279.191406 574.683594 283.246094 574.683594 288.199219 C 574.683594 290.042969 575.246094 291.757812 576.203125 293.1875 L 539.132812 329.371094 C 538.734375 329.257812 538.320312 329.179688 537.886719 329.179688 C 535.367188 329.179688 533.320312 331.226562 533.320312 333.75 C 533.320312 334.144531 533.386719 334.519531 533.480469 334.886719 L 518.675781 349.335938 Z M 516.523438 340.066406 " fill-opacity="1" fill-rule="nonzero"/></g><path fill="#000000" d="M 651.417969 227.980469 C 651.417969 229.28125 652.46875 230.335938 653.769531 230.335938 C 655.066406 230.335938 656.117188 229.28125 656.117188 227.980469 C 656.117188 226.683594 655.066406 225.628906 653.769531 225.628906 C 652.46875 225.628906 651.417969 226.683594 651.417969 227.980469 Z M 651.417969 227.980469 " fill-opacity="1" fill-rule="nonzero"/><path fill="#000000" d="M 576.75 230.335938 C 578.050781 230.335938 579.101562 229.28125 579.101562 227.980469 C 579.101562 226.683594 578.050781 225.628906 576.75 225.628906 C 575.453125 225.628906 574.398438 226.683594 574.398438 227.980469 C 574.398438 229.28125 575.453125 230.335938 576.75 230.335938 Z M 576.75 230.335938 " fill-opacity="1" fill-rule="nonzero"/></svg>