<svg xmlns="http://www.w3.org/2000/svg" xmlns:xlink="http://www.w3.org/1999/xlink" width="1024" zoomAndPan="magnify" viewBox="0 0 768 767.999994" height="1024" preserveAspectRatio="xMidYMid meet" version="1.0"><defs><clipPath id="72987fc604"><path d="M 276 189.566406 L 690 189.566406 L 690 350 L 276 350 Z M 276 189.566406 " clip-rule="nonzero"/></clipPath></defs><path fill="#000000" d="M 208.707031 312.3125 C 208.527344 312.382812 208.351562 312.445312 208.160156 312.503906 L 208.113281 312.527344 L 207.957031 312.574219 L 207.921875 312.585938 L 207.753906 312.636719 L 207.71875 312.636719 L 207.550781 312.683594 L 207.527344 312.695312 L 207.347656 312.730469 L 207.324219 312.742188 L 206.921875 312.8125 L 206.742188 312.847656 L 206.707031 312.847656 C 206.191406 312.921875 205.679688 312.957031 205.167969 312.945312 L 105.273438 312.945312 C 97.097656 312.945312 88.324219 318.410156 83.460938 326.546875 C 80.578125 331.378906 76.765625 341.132812 83.710938 352.152344 C 83.75 352.199219 83.773438 352.234375 83.796875 352.28125 L 118.824219 410.210938 L 203.046875 410.210938 C 210.292969 410.210938 216.179688 404.625 216.179688 397.765625 C 216.179688 390.890625 210.292969 385.304688 203.046875 385.304688 L 146.257812 385.304688 L 146.125 385.292969 L 145.984375 385.292969 L 145.875 385.28125 L 145.851562 385.28125 L 145.722656 385.269531 L 145.578125 385.257812 L 145.460938 385.246094 L 145.449219 385.246094 L 145.316406 385.222656 C 144.503906 385.117188 143.730469 384.890625 143.015625 384.582031 L 142.910156 384.53125 L 142.898438 384.519531 L 142.765625 384.460938 L 142.648438 384.402344 L 142.550781 384.355469 L 142.527344 384.34375 L 142.410156 384.28125 L 142.371094 384.257812 L 142.300781 384.222656 L 142.207031 384.164062 L 142.183594 384.152344 L 142.027344 384.066406 L 141.957031 384.019531 L 141.859375 383.960938 L 141.539062 383.734375 L 141.503906 383.722656 C 140.894531 383.28125 140.335938 382.757812 139.859375 382.152344 L 139.847656 382.140625 L 139.609375 381.828125 L 139.609375 381.816406 L 139.523438 381.710938 L 139.5 381.664062 L 139.394531 381.507812 L 139.367188 381.472656 L 139.296875 381.351562 L 139.296875 381.339844 L 118.417969 347.054688 C 116.117188 343.265625 117.476562 338.429688 121.46875 336.25 C 125.449219 334.070312 130.550781 335.371094 132.851562 339.144531 L 151.324219 369.503906 L 162.191406 369.503906 L 163.894531 355.367188 C 164.265625 352.28125 166.507812 349.695312 169.628906 348.746094 L 238.800781 327.640625 L 290.105469 307.988281 C 298.878906 304.632812 299.332031 297.199219 297.066406 291.875 C 294.800781 286.554688 289.046875 281.539062 280.273438 284.898438 Z M 208.707031 312.3125 " fill-opacity="1" fill-rule="evenodd"/><path fill="#000000" d="M 154.816406 301.203125 C 131.277344 301.203125 112.125 282.3125 112.125 259.089844 C 112.125 235.855469 131.277344 216.964844 154.816406 216.964844 C 178.351562 216.964844 197.492188 235.855469 197.492188 259.089844 C 197.492188 282.3125 178.351562 301.203125 154.816406 301.203125 Z M 154.816406 301.203125 " fill-opacity="1" fill-rule="evenodd"/><path fill="#000000" d="M 87.835938 560.03125 L 87.0625 563.28125 C 86.109375 567.308594 87.238281 572.109375 89.863281 575.214844 C 91.398438 577.039062 93.1875 577.96875 95.175781 577.96875 L 96.785156 577.96875 C 107.179688 578.003906 110.265625 578.015625 112.433594 569.75 C 106.867188 563.570312 98.71875 559.960938 90.039062 559.960938 C 89.300781 559.960938 88.574219 559.984375 87.835938 560.03125 Z M 87.835938 560.03125 " fill-opacity="1" fill-rule="evenodd"/><path fill="#000000" d="M 181.296875 553.730469 C 182.25 565.210938 187.21875 572.65625 194.261719 572.65625 C 201.496094 572.65625 207.382812 567.070312 207.382812 560.210938 L 207.382812 554.066406 C 203.273438 552.0625 198.707031 551.015625 194 551.015625 C 189.554688 551.015625 185.230469 551.945312 181.296875 553.730469 Z M 181.296875 553.730469 " fill-opacity="1" fill-rule="evenodd"/><path fill="#000000" d="M 114.007812 426.011719 L 113.566406 426 L 113.460938 426 L 113.363281 425.988281 L 113.328125 425.988281 L 113.199219 425.976562 L 113.148438 425.964844 L 113.066406 425.964844 L 112.933594 425.953125 L 112.921875 425.941406 L 112.792969 425.929688 L 112.734375 425.917969 L 112.660156 425.90625 L 112.53125 425.894531 L 112.398438 425.871094 L 112.316406 425.847656 L 112.269531 425.835938 L 112.136719 425.8125 L 112.113281 425.8125 L 112.003906 425.785156 L 111.921875 425.761719 L 111.875 425.75 L 111.742188 425.714844 L 111.71875 425.714844 L 111.613281 425.679688 L 111.480469 425.644531 L 111.363281 425.609375 L 111.328125 425.597656 L 111.230469 425.5625 L 110.847656 425.429688 L 110.753906 425.394531 L 110.730469 425.382812 L 110.609375 425.324219 L 110.574219 425.3125 L 110.480469 425.273438 L 110.359375 425.214844 L 110.242188 425.167969 L 110.207031 425.144531 L 110.121094 425.109375 L 110.027344 425.0625 L 110.003906 425.046875 L 109.882812 424.976562 L 109.847656 424.964844 L 109.765625 424.917969 L 109.539062 424.785156 L 109.515625 424.761719 L 109.417969 424.714844 L 109.335938 424.65625 C 108.632812 424.214844 107.988281 423.65625 107.441406 422.988281 L 107.40625 422.941406 L 107.320312 422.832031 L 107.238281 422.726562 L 107.203125 422.691406 L 107.15625 422.621094 L 107.09375 422.523438 L 107.070312 422.5 L 107 422.394531 L 106.976562 422.367188 L 106.917969 422.273438 L 106.84375 422.15625 L 106.773438 422.046875 L 106.773438 422.035156 L 106.761719 422.023438 L 91.195312 396.289062 C 83.414062 423.667969 88.695312 437.671875 99.144531 465.410156 C 101.027344 470.4375 102.996094 475.628906 105.082031 481.464844 C 105.152344 481.644531 105.210938 481.832031 105.273438 482.011719 C 105.402344 482.464844 105.5 482.917969 105.546875 483.382812 L 105.558594 483.523438 L 105.558594 483.570312 L 105.570312 483.726562 L 105.582031 483.773438 L 105.582031 484.546875 L 105.570312 484.703125 L 105.570312 484.738281 L 105.558594 484.90625 L 105.546875 484.929688 L 105.535156 485.097656 L 105.523438 485.121094 L 105.5 485.300781 L 105.5 485.3125 L 105.460938 485.5 L 105.425781 485.691406 L 105.425781 485.703125 L 105.390625 485.871094 L 105.378906 485.894531 L 91.589844 544.179688 C 100.695312 544.464844 109.359375 547.289062 116.617188 552.148438 L 130.179688 494.851562 L 118.046875 438.734375 C 117.308594 435.316406 119.011719 431.847656 122.253906 430.195312 C 125.496094 428.539062 129.5 429.097656 132.097656 431.5625 L 178.542969 475.617188 L 178.6875 475.746094 L 178.960938 476.023438 L 178.984375 476.035156 C 179.128906 476.1875 179.257812 476.34375 179.390625 476.496094 L 179.472656 476.605469 L 179.519531 476.664062 L 179.59375 476.761719 L 179.640625 476.820312 L 179.757812 476.984375 L 179.820312 477.070312 L 179.867188 477.152344 L 179.925781 477.238281 L 179.972656 477.320312 C 180.710938 478.5 181.128906 479.867188 181.128906 481.332031 L 181.128906 536.9375 C 185.277344 535.796875 189.601562 535.210938 194 535.210938 C 198.589844 535.210938 203.082031 535.84375 207.382812 537.082031 L 207.382812 477.785156 L 154.96875 426.011719 Z M 114.007812 426.011719 " fill-opacity="1" fill-rule="evenodd"/><g clip-path="url(#72987fc604)"><path fill="#000000" d="M 567.902344 349.148438 C 567.769531 349.148438 567.640625 349.148438 567.507812 349.148438 C 536.425781 348.933594 507.371094 322.589844 481.152344 270.84375 C 458.828125 226.816406 433.457031 204.28125 405.722656 203.863281 C 405.460938 203.863281 405.1875 203.863281 404.914062 203.863281 C 345.191406 203.863281 290.371094 302.976562 289.820312 303.976562 C 287.925781 307.453125 283.539062 308.753906 280.023438 306.882812 C 276.507812 305.011719 275.1875 300.691406 277.082031 297.210938 C 279.488281 292.792969 336.574219 189.585938 404.925781 189.585938 C 405.257812 189.585938 405.589844 189.585938 405.925781 189.585938 C 439.5 190.085938 469.160156 215.273438 494.082031 264.460938 C 517.679688 311.003906 542.421875 334.691406 567.617188 334.871094 C 567.710938 334.871094 567.808594 334.871094 567.890625 334.871094 C 614.097656 334.871094 655.675781 255.648438 671.351562 225.777344 C 673.316406 222.039062 675.019531 218.800781 676.402344 216.3125 C 678.308594 212.84375 682.707031 211.570312 686.210938 213.464844 C 689.726562 215.359375 691.015625 219.691406 689.09375 223.148438 C 687.796875 225.503906 686.128906 228.683594 684.195312 232.351562 C 665.84375 267.332031 622.902344 349.136719 567.902344 349.148438 Z M 567.902344 349.148438 " fill-opacity="1" fill-rule="evenodd"/></g><path fill="#000000" d="M 602.34375 488.441406 C 602.320312 488.441406 602.296875 488.441406 602.261719 488.429688 C 597.769531 488.382812 595.824219 485.667969 590.046875 477.605469 C 577.042969 459.445312 546.582031 416.925781 500.269531 410.03125 C 472.308594 405.863281 442.5625 415.59375 411.847656 438.921875 C 369.492188 471.089844 328.398438 483.296875 289.691406 475.164062 C 229.777344 462.585938 198.21875 406.113281 196.910156 403.71875 C 195.003906 400.242188 196.3125 395.917969 199.828125 394.035156 C 203.34375 392.167969 207.730469 393.453125 209.625 396.917969 C 209.921875 397.441406 239.46875 450.09375 292.8125 461.230469 C 327.148438 468.386719 364.222656 457.074219 403.015625 427.609375 C 436.972656 401.8125 470.425781 391.140625 502.425781 395.90625 C 554.828125 403.707031 587.78125 449.714844 601.855469 469.363281 C 603.296875 471.375 604.882812 473.59375 605.859375 474.832031 C 606.21875 475.007812 606.550781 475.210938 606.875 475.449219 C 610.078125 477.796875 610.757812 482.273438 608.375 485.441406 C 606.96875 487.324219 604.714844 488.441406 602.34375 488.441406 Z M 602.34375 488.441406 " fill-opacity="1" fill-rule="evenodd"/></svg>