<svg xmlns="http://www.w3.org/2000/svg" xmlns:xlink="http://www.w3.org/1999/xlink" width="1024" zoomAndPan="magnify" viewBox="0 0 768 775.92" height="1024" preserveAspectRatio="xMidYMid meet" version="1.0"><defs><clipPath id="1d9e103e07"><path d="M 76.832031 103 L 603 103 L 603 681 L 76.832031 681 Z M 76.832031 103 " clip-rule="nonzero"/></clipPath><clipPath id="90500c27a3"><path d="M 233 87.160156 L 408 87.160156 L 408 262 L 233 262 Z M 233 87.160156 " clip-rule="nonzero"/></clipPath></defs><g clip-path="url(#1d9e103e07)"><path fill="#000000" d="M 90.769531 103.792969 L 90.769531 655.644531 L 76.832031 655.644531 L 76.832031 680.929688 L 129.964844 680.929688 L 129.964844 655.644531 L 116.03125 655.644531 L 116.03125 597.277344 L 549.867188 597.277344 C 557.417969 597.277344 563.5625 603.425781 563.5625 610.984375 L 563.5625 655.644531 L 549.625 655.644531 L 549.625 680.929688 L 602.761719 680.929688 L 602.761719 655.644531 L 588.824219 655.644531 L 588.824219 610.984375 C 588.824219 589.484375 571.347656 571.992188 549.863281 571.992188 L 241.273438 571.992188 L 277.03125 503.621094 L 280.558594 496.875 L 375.953125 557.050781 C 384.257812 562.316406 403.386719 532.101562 395.085938 526.835938 L 174.339844 387.589844 C 166.039062 382.324219 154.941406 384.816406 149.679688 393.125 C 144.421875 401.433594 146.910156 412.542969 155.210938 417.804688 L 259.117188 483.351562 L 255.589844 490.09375 L 212.761719 571.992188 L 116.03125 571.992188 L 116.03125 233.730469 L 156.894531 233.730469 L 167.03125 220.773438 L 159.070312 214.539062 L 151.972656 223.617188 L 125.976562 223.617188 L 125.976562 181.722656 L 116.03125 181.722656 L 116.03125 103.792969 Z M 90.769531 103.792969 " fill-opacity="1" fill-rule="nonzero"/></g><path fill="#000000" d="M 221.117188 408.132812 C 242.933594 408.625 264.03125 396.460938 273.894531 375.417969 C 287.230469 346.96875 274.996094 313.09375 246.574219 299.75 C 218.148438 286.40625 184.300781 298.644531 170.964844 327.09375 C 162.980469 344.128906 164.171875 363.105469 172.511719 378.460938 C 174.535156 379.109375 176.515625 379.992188 178.394531 381.183594 Z M 221.117188 408.132812 " fill-opacity="1" fill-rule="nonzero"/><path fill="#000000" d="M 402.667969 523.859375 C 404.964844 521.558594 407.789062 520.304688 411.070312 520.304688 L 550.851562 520.304688 C 561.085938 520.304688 569.902344 526.390625 573.941406 535.125 L 574.300781 535.140625 L 625.988281 660.5625 C 631.015625 672.757812 642.785156 680.128906 655.199219 680.128906 C 659.210938 680.128906 663.289062 679.355469 667.226562 677.730469 C 683.351562 671.074219 691.03125 652.601562 684.382812 636.460938 L 625.023438 492.417969 C 620.339844 481.054688 609.503906 473.441406 597.238281 472.890625 L 460.839844 466.78125 C 458.070312 465.519531 455.019531 464.222656 451.625 462.867188 C 409.828125 449.679688 376.386719 408.5 347.316406 387.195312 C 347.132812 387.035156 346.9375 386.898438 346.753906 386.742188 L 346.753906 404.03125 C 346.753906 418.390625 335.082031 430.074219 320.730469 430.074219 C 306.378906 430.074219 294.707031 418.390625 294.707031 404.03125 L 294.707031 374.324219 C 289.886719 376.117188 285.621094 378.941406 282.332031 382.992188 C 270.675781 397.328125 266.878906 422.734375 282.015625 446.542969 L 399.140625 520.425781 C 400.601562 521.355469 401.777344 522.507812 402.667969 523.859375 Z M 402.667969 523.859375 " fill-opacity="1" fill-rule="nonzero"/><path fill="#000000" d="M 411.070312 563.660156 L 550.851562 563.660156 C 560.683594 563.660156 568.722656 555.613281 568.722656 545.773438 C 568.722656 535.933594 560.683594 527.886719 550.851562 527.886719 L 411.070312 527.886719 C 401.242188 527.890625 401.242188 563.660156 411.070312 563.660156 Z M 411.070312 563.660156 " fill-opacity="1" fill-rule="nonzero"/><path fill="#000000" d="M 300.519531 404.03125 C 300.519531 415.203125 309.566406 424.257812 320.730469 424.257812 C 331.890625 424.257812 340.941406 415.203125 340.941406 404.03125 L 340.941406 266.539062 C 334.425781 267.964844 327.667969 268.742188 320.730469 268.742188 C 313.792969 268.742188 307.035156 267.96875 300.519531 266.539062 Z M 300.519531 404.03125 " fill-opacity="1" fill-rule="nonzero"/><g clip-path="url(#90500c27a3)"><path fill="#000000" d="M 320.730469 261.15625 C 368.671875 261.15625 407.535156 222.261719 407.535156 174.28125 C 407.535156 126.304688 368.671875 87.410156 320.730469 87.410156 C 272.789062 87.410156 233.925781 126.304688 233.925781 174.28125 C 233.925781 222.261719 272.789062 261.15625 320.730469 261.15625 Z M 279.878906 174.28125 C 279.878906 151.703125 298.167969 133.402344 320.726562 133.402344 C 343.289062 133.402344 361.574219 151.707031 361.574219 174.28125 C 361.574219 196.859375 343.285156 215.164062 320.726562 215.164062 C 298.167969 215.164062 279.878906 196.859375 279.878906 174.28125 Z M 279.878906 174.28125 " fill-opacity="1" fill-rule="nonzero"/></g><path fill="#000000" d="M 320.730469 195.042969 C 332.1875 195.042969 341.476562 185.746094 341.476562 174.28125 C 341.476562 162.8125 332.1875 153.519531 320.730469 153.519531 C 309.273438 153.519531 299.988281 162.8125 299.988281 174.28125 C 299.988281 185.746094 309.273438 195.042969 320.730469 195.042969 Z M 320.730469 195.042969 " fill-opacity="1" fill-rule="nonzero"/></svg>