<svg xmlns="http://www.w3.org/2000/svg" xmlns:xlink="http://www.w3.org/1999/xlink" width="1024" zoomAndPan="magnify" viewBox="0 0 768 775.92" height="1024" preserveAspectRatio="xMidYMid meet" version="1.0"><defs><clipPath id="9f60782b2e"><path d="M 168 76.792969 L 600.902344 76.792969 L 600.902344 690.980469 L 168 690.980469 Z M 168 76.792969 " clip-rule="nonzero"/></clipPath></defs><g clip-path="url(#9f60782b2e)"><path fill="#000000" d="M 600.796875 670.667969 L 549.804688 670.667969 L 549.804688 151.191406 L 571.546875 151.191406 L 571.546875 110.929688 L 401.222656 110.929688 L 337.816406 76.996094 L 318.78125 112.488281 L 332.640625 119.902344 L 324.882812 133.753906 C 320.304688 141.929688 323.257812 152.363281 331.445312 156.941406 C 332.679688 157.628906 333.972656 158.128906 335.28125 158.484375 L 347.6875 343.285156 L 308.636719 354.226562 L 253.070312 313.019531 C 252.316406 312.460938 251.527344 311.992188 250.71875 311.585938 C 248.71875 310.003906 246.503906 308.714844 244.007812 307.890625 C 227.1875 302.292969 201.605469 309.679688 189.214844 338.289062 C 172.414062 377.726562 167.4375 403.851562 169.1875 448.839844 C 171.554688 469.347656 181.011719 479 192.269531 483.640625 L 202.546875 549.769531 L 194.417969 601.765625 C 190.421875 602.832031 187.167969 606.089844 186.351562 610.414062 L 183.035156 628.074219 C 182.136719 632.84375 184.46875 637.476562 188.480469 639.746094 L 185.15625 661.011719 C 183.011719 674.742188 192.410156 687.609375 206.15625 689.753906 C 207.472656 689.960938 208.78125 690.0625 210.074219 690.0625 C 222.269531 690.0625 232.992188 681.191406 234.929688 668.777344 L 237.964844 649.363281 C 240.058594 649.296875 242.097656 648.660156 243.871094 647.445312 C 246.324219 645.773438 247.96875 643.253906 248.515625 640.359375 L 249.859375 633.199219 L 272.496094 633.785156 C 273.488281 637.683594 277.117188 640.480469 281.296875 640.28125 C 285.027344 640.105469 288.0625 637.578125 289.117188 634.210938 L 355.277344 635.925781 L 355.277344 642.410156 C 355.277344 646.839844 358.90625 650.460938 363.339844 650.460938 L 386.085938 650.460938 L 386.085938 670.675781 L 329.402344 670.675781 L 329.402344 690.808594 L 600.792969 690.808594 L 600.792969 670.667969 Z M 529.652344 636.675781 L 501.113281 636.675781 L 505.277344 627.921875 L 511.09375 627.921875 L 511.09375 618.386719 L 495.695312 618.386719 L 495.695312 610.832031 L 511.09375 610.832031 L 511.09375 601.296875 L 495.695312 601.296875 L 495.695312 593.746094 L 511.09375 593.746094 L 511.09375 584.207031 L 495.695312 584.207031 L 495.695312 576.65625 L 511.09375 576.65625 L 511.09375 567.121094 L 495.695312 567.121094 L 495.695312 151.191406 L 529.65625 151.191406 L 529.65625 636.675781 Z M 490.347656 151.191406 L 490.347656 567.125 L 448.347656 567.125 L 448.347656 151.191406 Z M 490.347656 576.660156 L 490.347656 584.214844 L 448.347656 584.214844 L 448.347656 576.660156 Z M 490.347656 593.746094 L 490.347656 601.300781 L 448.347656 601.300781 L 448.347656 593.746094 Z M 490.347656 610.835938 L 490.347656 618.386719 L 448.347656 618.386719 L 448.347656 610.835938 Z M 457.929688 627.921875 L 480.765625 627.921875 L 484.929688 636.675781 L 453.765625 636.675781 Z M 550.800781 130.914062 C 550.800781 137.023438 545.84375 141.976562 539.726562 141.976562 C 533.613281 141.976562 528.65625 137.023438 528.65625 130.914062 C 528.65625 124.804688 533.613281 119.851562 539.726562 119.851562 C 545.84375 119.851562 550.800781 124.804688 550.800781 130.914062 Z M 396.167969 119.851562 C 402.28125 119.851562 407.238281 124.804688 407.238281 130.914062 C 407.238281 137.023438 402.28125 141.976562 396.167969 141.976562 C 390.050781 141.976562 385.09375 137.023438 385.09375 130.914062 C 385.09375 124.804688 390.050781 119.851562 396.167969 119.851562 Z M 333.59375 140.078125 C 335.308594 137.011719 339.1875 135.917969 342.253906 137.628906 C 345.320312 139.34375 346.417969 143.21875 344.703125 146.28125 C 343.820312 147.863281 342.359375 148.90625 340.730469 149.324219 L 340.484375 145.648438 C 340.371094 143.988281 338.96875 142.71875 337.265625 142.839844 C 335.601562 142.949219 334.339844 144.390625 334.453125 146.054688 L 334.550781 147.527344 C 332.683594 145.5625 332.203125 142.5625 333.59375 140.078125 Z M 341.378906 159.003906 C 346.765625 158.480469 351.828125 155.433594 354.652344 150.386719 L 362.707031 135.996094 L 386.089844 148.511719 L 386.089844 332.523438 L 353.632812 341.621094 Z M 240.460938 642.453125 C 239.34375 643.214844 238.007812 643.5 236.691406 643.253906 L 192.996094 635.058594 C 190.269531 634.546875 188.460938 631.910156 188.972656 629.183594 L 192.292969 611.523438 C 192.804688 608.796875 195.445312 607.007812 198.175781 607.507812 L 241.871094 615.703125 C 243.183594 615.949219 244.328125 616.699219 245.089844 617.816406 C 245.855469 618.929688 246.140625 620.265625 245.890625 621.578125 L 242.574219 639.238281 C 242.328125 640.550781 241.578125 641.691406 240.460938 642.453125 Z M 371.707031 610.789062 L 356.980469 391.398438 L 351.03125 393.066406 L 365.648438 610.789062 L 363.34375 610.789062 C 358.914062 610.789062 355.285156 614.410156 355.285156 618.839844 L 355.285156 629.875 L 288.785156 628.15625 C 287.382812 624.984375 284.152344 622.828125 280.476562 623.003906 C 277.253906 623.15625 274.5625 625.070312 273.199219 627.753906 L 250.992188 627.179688 L 251.839844 622.691406 C 252.382812 619.796875 251.757812 616.851562 250.085938 614.40625 C 248.632812 612.285156 246.527344 610.816406 244.105469 610.09375 L 252.929688 553.660156 C 253.328125 551.097656 253.328125 548.484375 252.929688 545.917969 L 240.386719 465.207031 C 240.503906 463.453125 240.585938 461.589844 240.625 459.566406 C 239.195312 434.230469 245.609375 406.445312 252.167969 382.519531 L 220.917969 368.039062 C 210.539062 363.230469 206.011719 350.878906 210.824219 340.507812 C 214.214844 333.210938 221.605469 328.492188 229.664062 328.492188 C 232.691406 328.492188 235.625 329.140625 238.386719 330.421875 L 307.160156 362.289062 L 390.519531 338.929688 C 392.351562 338.417969 394.242188 338.15625 396.132812 338.15625 C 402.492188 338.15625 408.359375 341.09375 412.222656 345.824219 C 412.175781 344.582031 412 343.332031 411.648438 342.085938 C 410.707031 338.734375 408.765625 335.9375 406.242188 333.910156 L 406.242188 151.191406 L 443 151.191406 L 443 567.125 L 424.804688 567.125 L 424.804688 576.660156 L 443 576.660156 L 443 584.214844 L 424.804688 584.214844 L 424.804688 593.75 L 443 593.75 L 443 601.300781 L 424.804688 601.300781 L 424.804688 610.835938 L 443 610.835938 L 443 618.390625 L 424.804688 618.390625 L 424.804688 627.925781 L 433.421875 627.925781 L 437.585938 636.679688 L 406.242188 636.679688 L 406.242188 376.980469 C 404.828125 377.765625 403.324219 378.410156 401.730469 378.859375 L 386.089844 383.242188 L 386.089844 610.789062 Z M 406.242188 656.804688 L 529.652344 656.804688 L 529.652344 670.667969 L 406.242188 670.667969 Z M 406.242188 656.804688 " fill-opacity="1" fill-rule="nonzero"/></g><path fill="#000000" d="M 396.167969 126.464844 C 393.707031 126.464844 391.710938 128.457031 391.710938 130.914062 C 391.710938 133.371094 393.707031 135.367188 396.167969 135.367188 C 398.625 135.367188 400.621094 133.371094 400.621094 130.914062 C 400.621094 128.457031 398.625 126.464844 396.167969 126.464844 Z M 396.167969 126.464844 " fill-opacity="1" fill-rule="nonzero"/><path fill="#000000" d="M 539.726562 126.464844 C 537.269531 126.464844 535.273438 128.457031 535.273438 130.914062 C 535.273438 133.371094 537.269531 135.367188 539.726562 135.367188 C 542.1875 135.367188 544.179688 133.371094 544.179688 130.914062 C 544.179688 128.457031 542.1875 126.464844 539.726562 126.464844 Z M 539.726562 126.464844 " fill-opacity="1" fill-rule="nonzero"/><path fill="#000000" d="M 313.445312 231.195312 C 314.445312 232.292969 315.390625 233.433594 316.277344 234.621094 C 317.167969 235.808594 317.996094 237.039062 318.765625 238.308594 C 319.53125 239.578125 320.238281 240.882812 320.875 242.222656 C 321.515625 243.558594 322.089844 244.925781 322.59375 246.320312 C 323.097656 247.714844 323.535156 249.132812 323.902344 250.570312 C 324.265625 252.007812 324.5625 253.460938 324.785156 254.925781 C 325.007812 256.394531 325.160156 257.867188 325.238281 259.347656 C 325.316406 260.828125 325.320312 262.3125 325.253906 263.792969 C 325.1875 265.273438 325.046875 266.75 324.835938 268.21875 C 324.621094 269.6875 324.335938 271.140625 323.980469 272.582031 C 323.625 274.019531 323.203125 275.441406 322.707031 276.839844 C 322.210938 278.238281 321.648438 279.609375 321.019531 280.953125 C 320.386719 282.296875 319.695312 283.605469 318.9375 284.878906 C 318.175781 286.15625 317.355469 287.390625 316.476562 288.585938 C 315.597656 289.777344 314.660156 290.929688 313.667969 292.03125 C 312.675781 293.132812 311.628906 294.183594 310.53125 295.183594 C 309.4375 296.183594 308.292969 297.128906 307.101562 298.015625 C 305.914062 298.90625 304.683594 299.734375 303.414062 300.5 C 302.140625 301.269531 300.835938 301.972656 299.496094 302.609375 C 298.15625 303.25 296.789062 303.820312 295.390625 304.328125 C 293.996094 304.832031 292.578125 305.265625 291.140625 305.632812 C 289.699219 305.996094 288.246094 306.292969 286.777344 306.515625 C 285.308594 306.738281 283.835938 306.890625 282.351562 306.96875 C 280.867188 307.046875 279.386719 307.050781 277.902344 306.984375 C 276.417969 306.917969 274.941406 306.777344 273.472656 306.5625 C 272.003906 306.351562 270.546875 306.066406 269.105469 305.714844 C 267.664062 305.359375 266.242188 304.933594 264.84375 304.4375 C 263.441406 303.945312 262.070312 303.382812 260.726562 302.753906 C 259.378906 302.125 258.070312 301.429688 256.792969 300.671875 C 255.515625 299.914062 254.28125 299.09375 253.085938 298.214844 C 251.890625 297.335938 250.738281 296.402344 249.636719 295.410156 C 248.53125 294.417969 247.480469 293.371094 246.476562 292.277344 C 245.476562 291.183594 244.53125 290.039062 243.640625 288.851562 C 242.753906 287.664062 241.925781 286.433594 241.15625 285.164062 C 240.386719 283.894531 239.683594 282.589844 239.042969 281.253906 C 238.40625 279.914062 237.832031 278.546875 237.328125 277.152344 C 236.820312 275.757812 236.386719 274.339844 236.019531 272.902344 C 235.652344 271.464844 235.359375 270.015625 235.136719 268.546875 C 234.910156 267.082031 234.761719 265.605469 234.683594 264.125 C 234.605469 262.644531 234.597656 261.164062 234.667969 259.679688 C 234.734375 258.199219 234.875 256.722656 235.085938 255.253906 C 235.300781 253.789062 235.582031 252.332031 235.9375 250.894531 C 236.292969 249.453125 236.71875 248.035156 237.214844 246.636719 C 237.710938 245.234375 238.273438 243.867188 238.902344 242.523438 C 239.53125 241.179688 240.226562 239.871094 240.984375 238.59375 C 241.742188 237.320312 242.5625 236.085938 243.445312 234.890625 C 244.324219 233.695312 245.261719 232.546875 246.253906 231.441406 C 247.246094 230.339844 248.292969 229.289062 249.386719 228.289062 C 250.484375 227.289062 251.628906 226.34375 252.816406 225.457031 C 254.007812 224.566406 255.238281 223.742188 256.507812 222.972656 C 257.777344 222.207031 259.085938 221.503906 260.425781 220.863281 C 261.765625 220.222656 263.132812 219.652344 264.527344 219.148438 C 265.925781 218.644531 267.34375 218.207031 268.78125 217.839844 C 270.222656 217.476562 271.675781 217.179688 273.144531 216.957031 C 274.609375 216.734375 276.085938 216.585938 277.570312 216.507812 C 279.050781 216.429688 280.535156 216.421875 282.019531 216.492188 C 283.503906 216.558594 284.980469 216.699219 286.449219 216.910156 C 287.917969 217.121094 289.375 217.40625 290.816406 217.761719 C 292.257812 218.117188 293.679688 218.539062 295.078125 219.035156 C 296.476562 219.53125 297.851562 220.09375 299.195312 220.722656 C 300.539062 221.351562 301.851562 222.042969 303.128906 222.800781 C 304.402344 223.558594 305.640625 224.378906 306.835938 225.257812 C 308.03125 226.136719 309.179688 227.074219 310.285156 228.066406 C 311.390625 229.058594 312.441406 230.101562 313.445312 231.195312 Z M 313.445312 231.195312 " fill-opacity="1" fill-rule="nonzero"/><path fill="#000000" d="M 400.476562 374.402344 C 409.050781 372 414.050781 363.109375 411.644531 354.546875 C 409.238281 345.984375 400.34375 340.988281 391.769531 343.390625 L 306.761719 367.210938 L 236.4375 334.625 C 228.359375 330.882812 218.773438 334.390625 215.03125 342.457031 C 211.285156 350.523438 214.792969 360.097656 222.871094 363.84375 L 298.597656 398.933594 C 300.738281 399.925781 303.054688 400.429688 305.378906 400.429688 C 306.84375 400.429688 308.304688 400.230469 309.734375 399.832031 Z M 400.476562 374.402344 " fill-opacity="1" fill-rule="nonzero"/></svg>