<svg xmlns="http://www.w3.org/2000/svg" xmlns:xlink="http://www.w3.org/1999/xlink" width="1024" zoomAndPan="magnify" viewBox="0 0 768 775.92" height="1024" preserveAspectRatio="xMidYMid meet" version="1.0"><defs><clipPath id="2ca14f0040"><path d="M 341 170.863281 L 427 170.863281 L 427 240 L 341 240 Z M 341 170.863281 " clip-rule="nonzero"/></clipPath></defs><g clip-path="url(#2ca14f0040)"><path fill="#000000" d="M 426.527344 213.382812 C 426.527344 189.898438 407.488281 170.863281 383.996094 170.863281 C 360.503906 170.863281 341.460938 189.898438 341.460938 213.382812 C 341.460938 223.191406 344.792969 232.214844 350.371094 239.410156 L 417.621094 239.410156 C 423.199219 232.214844 426.527344 223.191406 426.527344 213.382812 Z M 426.527344 213.382812 " fill-opacity="1" fill-rule="nonzero"/></g><path fill="#000000" d="M 344.140625 402.554688 L 344.183594 407.609375 C 344.332031 413.628906 338.882812 417.949219 329.667969 419.417969 C 329.464844 419.503906 329.253906 419.5625 329.054688 419.636719 L 316.742188 570.542969 C 315.691406 583.40625 325.273438 594.675781 338.136719 595.726562 C 351 596.773438 362.28125 587.203125 363.332031 574.339844 L 377.019531 406.558594 L 377.347656 402.554688 Z M 344.140625 402.554688 " fill-opacity="1" fill-rule="nonzero"/><path fill="#000000" d="M 423.800781 407.609375 L 423.847656 402.554688 L 390.640625 402.554688 L 390.96875 406.558594 L 404.65625 574.339844 C 405.707031 587.207031 416.988281 596.773438 429.851562 595.726562 C 442.714844 594.675781 452.296875 583.40625 451.246094 570.542969 L 438.933594 419.636719 C 438.730469 419.5625 438.519531 419.5 438.320312 419.417969 C 429.101562 417.945312 423.652344 413.628906 423.800781 407.609375 Z M 423.800781 407.609375 " fill-opacity="1" fill-rule="nonzero"/><path fill="#000000" d="M 305.5625 383.355469 L 306.6875 383.355469 C 310.382812 378.46875 316.183594 375.226562 322.785156 375.0625 C 327.539062 374.949219 331.992188 376.492188 335.585938 379.152344 C 332.582031 333.761719 335.855469 307.632812 340.058594 292.757812 L 344.277344 294.058594 C 340.171875 308.640625 336.730469 335.371094 340.238281 383.355469 L 427.75 383.355469 C 431.261719 335.367188 427.816406 308.640625 423.710938 294.058594 L 427.933594 292.757812 C 432.132812 307.632812 435.40625 333.761719 432.402344 379.152344 C 436 376.492188 440.449219 374.949219 445.207031 375.0625 C 452.449219 375.242188 458.738281 379.125 462.324219 384.824219 C 465.4375 341.273438 463.589844 307.511719 456.808594 283.847656 C 453.195312 271.246094 448.191406 261.492188 441.789062 254.660156 C 440.527344 253.3125 439.269531 252.140625 438.019531 251.105469 C 433.035156 246.972656 428.285156 245.160156 424.742188 244.382812 C 423.402344 243.976562 421.984375 243.753906 420.511719 243.753906 L 347.476562 243.753906 C 346.007812 243.753906 344.59375 243.976562 343.257812 244.378906 C 339.710938 245.15625 334.957031 246.96875 329.96875 251.105469 C 328.722656 252.140625 327.460938 253.3125 326.199219 254.660156 C 319.796875 261.492188 314.796875 271.246094 311.183594 283.847656 C 304.476562 307.246094 302.589844 340.511719 305.5625 383.355469 Z M 305.5625 383.355469 " fill-opacity="1" fill-rule="nonzero"/><path fill="#000000" d="M 596.355469 367.292969 L 583.460938 367.292969 L 583.460938 326.554688 C 583.460938 322.394531 580.058594 318.996094 575.898438 318.996094 L 574.546875 318.996094 C 570.386719 318.996094 566.984375 322.394531 566.984375 326.554688 L 566.984375 387.703125 L 466.460938 387.703125 C 466.203125 391.144531 465.910156 394.648438 465.589844 398.207031 L 566.980469 398.207031 L 566.980469 459.355469 C 566.980469 463.511719 570.386719 466.914062 574.542969 466.914062 L 575.898438 466.914062 C 580.054688 466.914062 583.457031 463.511719 583.457031 459.355469 L 583.457031 418.617188 L 596.351562 418.617188 L 596.351562 398.207031 L 654.496094 398.207031 L 654.496094 387.703125 L 596.351562 387.703125 L 596.351562 367.292969 Z M 596.355469 367.292969 " fill-opacity="1" fill-rule="nonzero"/><path fill="#000000" d="M 344.0625 394.847656 L 344.078125 395.335938 L 344.105469 398.207031 L 423.882812 398.207031 L 423.90625 395.335938 L 423.921875 394.847656 C 424.042969 392.316406 424.648438 389.917969 425.605469 387.703125 L 342.378906 387.703125 C 343.339844 389.917969 343.941406 392.316406 344.0625 394.847656 Z M 344.0625 394.847656 " fill-opacity="1" fill-rule="nonzero"/><path fill="#000000" d="M 302.519531 398.207031 L 302.503906 396.265625 C 302.429688 393.230469 303.042969 390.335938 304.167969 387.703125 L 201.003906 387.703125 L 201.003906 326.554688 C 201.003906 322.394531 197.601562 318.996094 193.441406 318.996094 L 192.089844 318.996094 C 187.933594 318.996094 184.527344 322.394531 184.527344 326.554688 L 184.527344 367.292969 L 171.632812 367.292969 L 171.632812 387.703125 L 113.488281 387.703125 L 113.488281 398.207031 L 171.632812 398.207031 L 171.632812 418.617188 L 184.527344 418.617188 L 184.527344 459.355469 C 184.527344 463.511719 187.933594 466.914062 192.089844 466.914062 L 193.441406 466.914062 C 197.601562 466.914062 201.003906 463.511719 201.003906 459.355469 L 201.003906 398.207031 Z M 302.519531 398.207031 " fill-opacity="1" fill-rule="nonzero"/><path fill="#000000" d="M 308.171875 396.214844 L 308.277344 408.398438 C 308.484375 416.765625 338.71875 416.007812 338.515625 407.660156 L 338.410156 395.476562 C 338.410156 395.355469 338.40625 395.238281 338.398438 395.117188 C 338.007812 386.945312 331.152344 380.53125 322.925781 380.730469 C 314.574219 380.9375 307.96875 387.871094 308.171875 396.214844 Z M 308.171875 396.214844 " fill-opacity="1" fill-rule="nonzero"/><path fill="#000000" d="M 429.589844 395.117188 C 429.582031 395.238281 429.578125 395.355469 429.574219 395.476562 L 429.472656 407.660156 C 429.269531 416.007812 459.503906 416.769531 459.710938 408.398438 L 459.816406 396.214844 C 460.019531 387.871094 453.414062 380.9375 445.066406 380.730469 C 436.835938 380.53125 429.980469 386.945312 429.589844 395.117188 Z M 429.589844 395.117188 " fill-opacity="1" fill-rule="nonzero"/><path fill="#000000" d="M 107.898438 435.773438 L 109.574219 434.550781 C 109.574219 434.550781 82.867188 405.5 108.410156 360.566406 L 115.660156 370.367188 L 117.566406 341.484375 L 92.617188 357 L 103.773438 358.460938 C 77.902344 407.109375 107.898438 435.773438 107.898438 435.773438 Z M 107.898438 435.773438 " fill-opacity="1" fill-rule="nonzero"/><path fill="#000000" d="M 650.421875 341.484375 L 652.328125 370.367188 L 659.578125 360.566406 C 685.121094 405.496094 658.414062 434.550781 658.414062 434.550781 L 660.089844 435.773438 C 660.089844 435.773438 690.085938 407.109375 664.214844 358.460938 L 675.371094 357 Z M 650.421875 341.484375 " fill-opacity="1" fill-rule="nonzero"/></svg>