<svg xmlns="http://www.w3.org/2000/svg" xmlns:xlink="http://www.w3.org/1999/xlink" width="1024" zoomAndPan="magnify" viewBox="0 0 768 767.999994" height="1024" preserveAspectRatio="xMidYMid meet" version="1.0"><defs><clipPath id="a3d20f3c20"><path d="M 80 306 L 626 306 L 626 522.875 L 80 522.875 Z M 80 306 " clip-rule="nonzero"/></clipPath></defs><g clip-path="url(#a3d20f3c20)"><path fill="#000000" d="M 594.417969 460.324219 L 537.882812 460.324219 C 536.617188 432.527344 531.621094 368.203125 530.292969 358.199219 C 526.058594 327.050781 503.542969 305.207031 476.035156 306.789062 C 451.308594 308.246094 389.207031 331.609375 341.394531 350.917969 C 315.152344 361.554688 295.292969 382.449219 285.808594 408.027344 L 107.34375 452.726562 C 88.371094 457.472656 76.800781 476.722656 81.542969 495.777344 C 85.589844 511.859375 100.007812 522.6875 115.882812 522.625 C 118.726562 522.625 121.636719 522.308594 124.484375 521.546875 L 474.011719 432.402344 C 475.464844 456.589844 476.414062 479.886719 476.792969 492.421875 C 477.296875 509.265625 491.085938 522.625 507.90625 522.625 L 594.355469 522.625 C 611.558594 522.625 625.46875 508.695312 625.46875 491.472656 C 625.46875 474.253906 611.558594 460.324219 594.417969 460.324219 Z M 594.417969 460.324219 " fill-opacity="1" fill-rule="nonzero"/></g><path fill="#000000" d="M 673.34375 292.605469 C 655.636719 258.734375 613.832031 245.566406 579.9375 263.292969 C 546.105469 281.019531 532.949219 322.871094 550.65625 356.804688 C 568.363281 390.679688 610.167969 403.847656 644.0625 386.121094 C 677.960938 368.328125 691.050781 326.480469 673.34375 292.605469 Z M 673.34375 292.605469 " fill-opacity="1" fill-rule="nonzero"/></svg>