<svg xmlns="http://www.w3.org/2000/svg" xmlns:xlink="http://www.w3.org/1999/xlink" width="1024" zoomAndPan="magnify" viewBox="0 0 768 767.999994" height="1024" preserveAspectRatio="xMidYMid meet" version="1.0"><defs><clipPath id="c6ed24c4d6"><path d="M 491 76.800781 L 627 76.800781 L 627 206 L 491 206 Z M 491 76.800781 " clip-rule="nonzero"/></clipPath><clipPath id="7ce56587a4"><path d="M 105 168 L 666 168 L 666 691.050781 L 105 691.050781 Z M 105 168 " clip-rule="nonzero"/></clipPath></defs><g clip-path="url(#c6ed24c4d6)"><path fill="#000000" d="M 559.140625 205.421875 C 596.21875 205.421875 626.289062 176.546875 626.289062 141.058594 C 626.289062 105.570312 596.21875 76.792969 559.140625 76.792969 C 521.960938 76.792969 491.890625 105.570312 491.890625 141.058594 C 491.890625 176.546875 521.960938 205.421875 559.140625 205.421875 " fill-opacity="1" fill-rule="nonzero"/></g><g clip-path="url(#7ce56587a4)"><path fill="#000000" d="M 365.523438 223.148438 L 292.070312 320.675781 C 287.714844 326.828125 281.148438 330.601562 273.722656 330.601562 C 260.589844 330.601562 249.953125 318.378906 249.953125 303.367188 C 249.953125 295.164062 253.023438 287.863281 257.949219 282.863281 L 337.191406 178.03125 C 341.542969 172.042969 348.113281 168.1875 355.535156 168.1875 L 470.183594 168.105469 C 478.605469 168.105469 486.175781 172.042969 491.742188 178.195312 L 564.84375 262.1875 L 625.453125 192.710938 C 629.734375 188.53125 635.230469 186.070312 641.226562 186.070312 C 654.792969 186.070312 665.714844 198.699219 665.714844 214.285156 C 665.714844 221.09375 663.714844 227.246094 660.21875 232.167969 L 587.1875 316.734375 C 564.988281 342.164062 547.140625 320.589844 547.140625 320.589844 L 502.308594 268.832031 L 432.277344 361.9375 L 496.457031 435.679688 C 496.457031 435.679688 510.019531 450.113281 502.238281 478.824219 L 466.257812 663.132812 C 463.402344 679.128906 451.125 691.1875 436.417969 691.1875 C 419.5 691.1875 405.863281 675.4375 405.863281 656.078125 C 405.863281 652.964844 406.148438 650.011719 406.792969 647.222656 L 436.417969 496.046875 L 363.460938 414.589844 L 300.710938 494.980469 C 300.710938 494.980469 290.574219 509.332031 263.660156 508.265625 L 136.378906 508.511719 C 122.171875 508.757812 109.253906 497.605469 106.109375 481.035156 C 102.328125 462.167969 112.464844 443.628906 128.957031 439.445312 C 131.523438 438.789062 134.09375 438.542969 136.59375 438.625 L 246.03125 438.953125 L 407.867188 223.390625 L 365.535156 223.144531 Z M 365.523438 223.148438 " fill-opacity="1" fill-rule="nonzero"/></g></svg>