<svg xmlns="http://www.w3.org/2000/svg" xmlns:xlink="http://www.w3.org/1999/xlink" width="1024" zoomAndPan="magnify" viewBox="0 0 768 767.999994" height="1024" preserveAspectRatio="xMidYMid meet" version="1.0"><defs><clipPath id="0b97f1b6b1"><path d="M 572.027344 296.203125 L 682 296.203125 L 682 404.792969 L 572.027344 404.792969 Z M 572.027344 296.203125 " clip-rule="nonzero"/></clipPath><clipPath id="ed59699349"><path d="M 626.964844 296.203125 C 596.621094 296.203125 572.027344 320.511719 572.027344 350.496094 C 572.027344 380.484375 596.621094 404.792969 626.964844 404.792969 C 657.304688 404.792969 681.902344 380.484375 681.902344 350.496094 C 681.902344 320.511719 657.304688 296.203125 626.964844 296.203125 Z M 626.964844 296.203125 " clip-rule="nonzero"/></clipPath><clipPath id="9938460421"><path d="M 0.0273438 0.203125 L 110 0.203125 L 110 108.792969 L 0.0273438 108.792969 Z M 0.0273438 0.203125 " clip-rule="nonzero"/></clipPath><clipPath id="72e942b9c4"><path d="M 54.964844 0.203125 C 24.621094 0.203125 0.0273438 24.511719 0.0273438 54.496094 C 0.0273438 84.484375 24.621094 108.792969 54.964844 108.792969 C 85.304688 108.792969 109.902344 84.484375 109.902344 54.496094 C 109.902344 24.511719 85.304688 0.203125 54.964844 0.203125 Z M 54.964844 0.203125 " clip-rule="nonzero"/></clipPath><clipPath id="717bbdfec7"><rect x="0" width="110" y="0" height="109"/></clipPath></defs><path fill="#000000" d="M 557.738281 419.925781 C 557.550781 418.929688 557.269531 417.972656 556.945312 417.042969 L 540.257812 323.808594 C 540.0625 322.722656 539.765625 321.6875 539.40625 320.679688 C 526.296875 270.636719 440.910156 243.367188 423.542969 238.308594 C 416.007812 236.125 407.875 238.425781 402.617188 244.253906 L 329.871094 324.945312 C 329.378906 325.492188 328.925781 326.0625 328.5 326.644531 L 119.621094 273.085938 C 102.695312 268.746094 85.464844 278.949219 81.125 295.855469 C 76.785156 312.769531 86.976562 330 103.902344 334.339844 L 334.820312 393.550781 L 338.84375 416.035156 L 111.515625 456.695312 C 94.3125 459.769531 82.875 476.199219 85.949219 493.382812 C 89.027344 510.574219 105.457031 522.019531 122.65625 518.941406 L 399.828125 469.371094 L 521.347656 447.636719 L 529.535156 490.664062 L 505.230469 490.664062 C 493.925781 490.664062 484.761719 499.824219 484.761719 511.121094 C 484.761719 522.417969 493.925781 531.578125 505.230469 531.578125 L 554.265625 531.578125 C 560.363281 531.578125 566.144531 528.859375 570.03125 524.164062 C 573.921875 519.46875 575.511719 513.285156 574.371094 507.296875 Z M 424.160156 281.476562 C 446.085938 289.164062 470.914062 301.121094 486.074219 313.421875 L 377.925781 332.765625 Z M 424.160156 281.476562 " fill-opacity="1" fill-rule="nonzero"/><path fill="#000000" d="M 643.59375 405.785156 C 673.976562 396.4375 691.03125 364.242188 681.679688 333.867188 C 672.328125 303.496094 640.117188 286.449219 609.730469 295.796875 C 579.347656 305.144531 562.296875 337.347656 571.644531 367.714844 C 581 398.09375 613.207031 415.136719 643.59375 405.785156 Z M 625.996094 302.839844 C 627.316406 302.433594 628.679688 302.285156 630.058594 302.273438 C 619.667969 309.183594 616.503906 329.96875 623.242188 351.851562 C 629.976562 373.734375 644.285156 389.144531 656.765625 389.019531 C 655.621094 389.78125 654.410156 390.425781 653.089844 390.832031 C 639.804688 394.917969 622.976562 378.535156 615.496094 354.234375 C 608.011719 329.933594 612.710938 306.925781 625.996094 302.839844 Z M 625.996094 302.839844 " fill-opacity="1" fill-rule="nonzero"/><g clip-path="url(#0b97f1b6b1)"><g clip-path="url(#ed59699349)"><g transform="matrix(1, 0, 0, 1, 572, 296)"><g clip-path="url(#717bbdfec7)"><g clip-path="url(#9938460421)"><g clip-path="url(#72e942b9c4)"><path fill="#000000" d="M 0.0273438 0.203125 L 109.886719 0.203125 L 109.886719 108.792969 L 0.0273438 108.792969 Z M 0.0273438 0.203125 " fill-opacity="1" fill-rule="nonzero"/></g></g></g></g></g></g></svg>