<svg xmlns="http://www.w3.org/2000/svg" xmlns:xlink="http://www.w3.org/1999/xlink" width="1024" zoomAndPan="magnify" viewBox="0 0 768 767.999994" height="1024" preserveAspectRatio="xMidYMid meet" version="1.0"><path fill="#000000" d="M 537.449219 344.847656 L 486.039062 305.574219 L 440.515625 214.539062 C 440.515625 214.539062 405.027344 176.734375 350.535156 197.6875 L 256.828125 264.90625 C 256.828125 264.90625 246.46875 270.984375 243.671875 289.257812 L 221.035156 382.597656 C 219.71875 396.246094 231.675781 409.183594 246.261719 409.0625 C 260.835938 408.9375 269.34375 397.222656 272.097656 381.496094 L 289.6875 306.351562 L 332.503906 269.148438 L 315.28125 368.160156 C 315.28125 368.160156 311.402344 381.101562 317.109375 402.886719 C 317.109375 402.886719 323.171875 418.539062 321.453125 428.261719 L 309.304688 472.597656 C 298.128906 513.382812 281.390625 552.429688 259.5625 588.640625 L 225.941406 644.417969 C 217.851562 661.796875 230 681.253906 247.542969 686.128906 C 265.082031 691.035156 277.480469 679.640625 288.082031 661.601562 L 323.0625 608.296875 C 343.089844 577.78125 359.414062 544.992188 371.699219 510.617188 L 386.117188 470.273438 C 416.988281 521.710938 437.511719 578.691406 446.535156 638.011719 L 450.246094 662.390625 C 454.464844 679.328125 470.53125 689.660156 487.714844 685.207031 C 504.023438 680.988281 513.417969 665.792969 508.816406 644.613281 L 503.492188 609.480469 C 494.09375 547.460938 472.121094 488.015625 438.933594 434.796875 L 419.03125 402.882812 C 419.03125 402.882812 413.441406 395.851562 415.730469 384.867188 L 429.417969 295.703125 C 429.417969 295.703125 449.675781 337.847656 458.480469 343.144531 L 503.136719 377.183594 C 512 386.34375 529.789062 392.230469 539.082031 383.53125 C 549.898438 373.410156 548.480469 356.742188 537.449219 344.847656 Z M 537.449219 344.847656 " fill-opacity="1" fill-rule="nonzero"/><path fill="#000000" d="M 470.121094 126.976562 C 470.421875 128.617188 470.644531 130.273438 470.789062 131.9375 C 470.929688 133.601562 470.996094 135.265625 470.984375 136.9375 C 470.96875 138.605469 470.875 140.265625 470.703125 141.925781 C 470.53125 143.582031 470.285156 145.226562 469.957031 146.855469 C 469.628906 148.484375 469.222656 150.089844 468.742188 151.679688 C 468.261719 153.265625 467.707031 154.820312 467.078125 156.347656 C 466.449219 157.875 465.746094 159.367188 464.976562 160.824219 C 464.203125 162.277344 463.363281 163.6875 462.457031 165.054688 C 461.550781 166.421875 460.582031 167.738281 459.550781 169.007812 C 458.515625 170.273438 457.425781 171.484375 456.277344 172.636719 C 455.128906 173.792969 453.925781 174.886719 452.671875 175.914062 C 451.417969 176.945312 450.117188 177.910156 448.769531 178.804688 C 447.421875 179.703125 446.035156 180.53125 444.609375 181.285156 C 443.179688 182.039062 441.71875 182.71875 440.226562 183.324219 C 438.734375 183.929688 437.214844 184.457031 435.667969 184.90625 C 434.121094 185.355469 432.558594 185.726562 430.972656 186.015625 C 429.390625 186.304688 427.796875 186.515625 426.191406 186.640625 C 424.589844 186.769531 422.980469 186.816406 421.371094 186.777344 C 419.757812 186.742188 418.152344 186.625 416.550781 186.425781 C 414.949219 186.226562 413.359375 185.945312 411.78125 185.582031 C 410.203125 185.222656 408.644531 184.78125 407.109375 184.261719 C 405.570312 183.746094 404.058594 183.148438 402.578125 182.476562 C 401.09375 181.804688 399.644531 181.058594 398.230469 180.242188 C 396.816406 179.421875 395.441406 178.535156 394.113281 177.578125 C 392.78125 176.621094 391.496094 175.597656 390.257812 174.511719 C 389.023438 173.425781 387.839844 172.28125 386.710938 171.074219 C 385.582031 169.867188 384.507812 168.609375 383.5 167.296875 C 382.488281 165.984375 381.539062 164.625 380.65625 163.214844 C 379.773438 161.808594 378.957031 160.359375 378.210938 158.871094 C 377.460938 157.382812 376.785156 155.859375 376.183594 154.304688 C 375.578125 152.75 375.050781 151.167969 374.597656 149.5625 C 374.140625 147.953125 373.765625 146.328125 373.464844 144.683594 C 373.164062 143.042969 372.941406 141.386719 372.796875 139.722656 C 372.652344 138.058594 372.585938 136.394531 372.601562 134.722656 C 372.613281 133.054688 372.707031 131.394531 372.878906 129.734375 C 373.050781 128.078125 373.300781 126.433594 373.628906 124.804688 C 373.957031 123.175781 374.359375 121.570312 374.839844 119.980469 C 375.320312 118.394531 375.875 116.839844 376.507812 115.3125 C 377.136719 113.785156 377.835938 112.292969 378.609375 110.835938 C 379.378906 109.382812 380.21875 107.972656 381.125 106.605469 C 382.03125 105.238281 383 103.921875 384.035156 102.652344 C 385.066406 101.386719 386.15625 100.175781 387.304688 99.023438 C 388.457031 97.867188 389.65625 96.773438 390.910156 95.746094 C 392.164062 94.714844 393.464844 93.75 394.8125 92.855469 C 396.160156 91.957031 397.546875 91.132812 398.976562 90.375 C 400.402344 89.621094 401.863281 88.941406 403.355469 88.335938 C 404.851562 87.730469 406.371094 87.203125 407.914062 86.753906 C 409.460938 86.304688 411.027344 85.933594 412.609375 85.644531 C 414.191406 85.355469 415.785156 85.144531 417.390625 85.019531 C 418.996094 84.890625 420.601562 84.84375 422.214844 84.882812 C 423.824219 84.917969 425.429688 85.035156 427.03125 85.234375 C 428.636719 85.433594 430.226562 85.714844 431.800781 86.078125 C 433.378906 86.4375 434.9375 86.878906 436.476562 87.398438 C 438.011719 87.914062 439.523438 88.511719 441.007812 89.183594 C 442.488281 89.855469 443.9375 90.601562 445.351562 91.417969 C 446.765625 92.238281 448.140625 93.125 449.472656 94.082031 C 450.804688 95.039062 452.085938 96.0625 453.324219 97.148438 C 454.5625 98.234375 455.742188 99.378906 456.875 100.585938 C 458.003906 101.792969 459.074219 103.050781 460.085938 104.363281 C 461.097656 105.675781 462.042969 107.035156 462.925781 108.445312 C 463.8125 109.851562 464.625 111.300781 465.375 112.789062 C 466.121094 114.277344 466.796875 115.800781 467.398438 117.355469 C 468.003906 118.910156 468.53125 120.492188 468.988281 122.097656 C 469.441406 123.707031 469.820312 125.332031 470.121094 126.976562 Z M 470.121094 126.976562 " fill-opacity="1" fill-rule="nonzero"/></svg>