<svg xmlns="http://www.w3.org/2000/svg" xmlns:xlink="http://www.w3.org/1999/xlink" width="1024" zoomAndPan="magnify" viewBox="0 0 768 767.999994" height="1024" preserveAspectRatio="xMidYMid meet" version="1.0"><defs><clipPath id="e4063f4ca5"><path d="M 274 146.175781 L 371 146.175781 L 371 343 L 274 343 Z M 274 146.175781 " clip-rule="nonzero"/></clipPath><clipPath id="200f140568"><path d="M 383 146.175781 L 493 146.175781 L 493 384 L 383 384 Z M 383 146.175781 " clip-rule="nonzero"/></clipPath><clipPath id="9341ce27dd"><path d="M 143 146.175781 L 337 146.175781 L 337 213 L 143 213 Z M 143 146.175781 " clip-rule="nonzero"/></clipPath><clipPath id="e298f630f6"><path d="M 430 146.175781 L 624 146.175781 L 624 213 L 430 213 Z M 430 146.175781 " clip-rule="nonzero"/></clipPath></defs><g clip-path="url(#e4063f4ca5)"><path fill="#000000" d="M 307.675781 146.285156 L 306.746094 146.296875 C 295.695312 147.34375 287.523438 151.300781 282.226562 158.167969 C 276.597656 165.03125 274.042969 172.972656 274.566406 181.996094 C 274.78125 184.914062 275.402344 187.816406 276.429688 190.703125 L 330.960938 342.664062 L 334.832031 338.171875 L 370.40625 256 L 338.925781 168.277344 C 338.109375 166.015625 337.089844 163.90625 335.867188 161.941406 C 329.101562 151.824219 319.707031 146.605469 307.675781 146.285156 Z M 307.675781 146.285156 " fill-opacity="1" fill-rule="nonzero"/></g><path fill="#000000" d="M 382.410156 339.988281 L 382.386719 339.988281 C 382.078125 339.992188 381.765625 340 381.457031 340.003906 L 381.097656 340.015625 C 380.859375 340.023438 380.621094 340.035156 380.382812 340.050781 C 379.667969 340.09375 378.953125 340.160156 378.238281 340.253906 L 378.246094 340.253906 L 378.347656 340.609375 L 379.210938 340.441406 L 380.628906 340.238281 L 382.058594 340.09375 L 383.527344 340.011719 C 383.394531 340.003906 383.1875 340 382.894531 339.992188 C 382.730469 339.992188 382.570312 339.988281 382.410156 339.988281 Z M 382.410156 339.988281 " fill-opacity="1" fill-rule="nonzero"/><path fill="#000000" d="M 349.597656 378.445312 L 349.695312 379.019531 C 349.976562 380.554688 350.367188 382.082031 350.863281 383.605469 L 351.117188 382.875 L 351.667969 381.335938 L 351.679688 381.335938 C 351.277344 380.980469 350.914062 380.589844 350.597656 380.171875 C 350.4375 379.960938 350.289062 379.742188 350.152344 379.515625 L 349.957031 379.171875 C 349.828125 378.9375 349.710938 378.695312 349.605469 378.445312 Z M 349.597656 378.445312 " fill-opacity="1" fill-rule="nonzero"/><g clip-path="url(#200f140568)"><path fill="#000000" d="M 402.382812 345.117188 L 402.386719 345.117188 L 402.382812 345.117188 M 402.386719 345.117188 L 402.386719 345.117188 M 459.953125 146.277344 L 459.375 146.285156 C 446.367188 146.464844 436.410156 152.703125 429.5 164.996094 L 385.890625 285.96875 C 385.867188 288.011719 385.519531 291.453125 384.855469 296.296875 L 402.386719 345.117188 C 395.703125 341.289062 389.417969 339.585938 383.527344 340.007812 C 392.277344 340.941406 398.828125 343.375 403.183594 347.3125 L 416.1875 383.605469 C 417.105469 381.089844 417.664062 377.832031 417.867188 373.828125 L 420.554688 381.273438 C 425.652344 368.175781 429.460938 359.125 431.980469 354.117188 L 490.621094 190.703125 L 491.859375 186.359375 C 493.109375 181.351562 492.878906 175.886719 491.171875 169.96875 C 489.433594 164.96875 487.320312 161.035156 484.828125 158.167969 C 479.59375 151.390625 471.304688 147.425781 459.953125 146.277344 Z M 459.953125 146.277344 " fill-opacity="1" fill-rule="nonzero"/></g><path fill="#000000" d="M 347.636719 378.058594 L 347.464844 378.175781 C 347.253906 378.320312 347.078125 378.433594 346.9375 378.515625 L 346.949219 378.515625 L 345.429688 382.972656 L 345.65625 383.605469 L 347.648438 378.058594 Z M 347.636719 378.058594 " fill-opacity="1" fill-rule="nonzero"/><path fill="#000000" d="M 416.183594 383.625 L 413.957031 389.828125 L 415.84375 386.429688 C 416.5 386.972656 416.976562 387.457031 417.28125 387.878906 C 417.25 387.683594 417.144531 387.164062 416.960938 386.316406 C 416.882812 385.984375 416.804688 385.664062 416.722656 385.355469 C 416.554688 384.734375 416.375 384.160156 416.183594 383.625 " fill-opacity="1" fill-rule="nonzero"/><path fill="#000000" d="M 394.472656 424.9375 L 394.472656 424.941406 C 394.058594 425.113281 393.351562 425.359375 392.351562 425.683594 C 391.777344 425.863281 391.199219 426.027344 390.613281 426.175781 L 390.316406 426.285156 L 389.898438 426.394531 C 389.253906 426.539062 388.289062 426.691406 386.992188 426.847656 C 386.769531 426.886719 385.613281 427.003906 383.527344 427.203125 C 384.5625 427.28125 385.757812 427.277344 387.113281 427.191406 L 388.078125 427.105469 L 389.046875 426.984375 L 390.019531 426.828125 L 390.996094 426.640625 L 391.980469 426.417969 L 392.96875 426.160156 L 393.96875 425.871094 L 394.472656 424.9375 " fill-opacity="1" fill-rule="nonzero"/><path fill="#000000" d="M 391.59375 452.414062 L 391.574219 452.4375 C 391.523438 452.503906 391.46875 452.570312 391.417969 452.636719 L 391.425781 452.640625 L 390.628906 454.863281 L 391.605469 452.414062 Z M 391.59375 452.414062 " fill-opacity="1" fill-rule="nonzero"/><path fill="#000000" d="M 433.4375 417.1875 L 413.175781 470.289062 L 398.011719 515.050781 L 428.125 598.9375 C 428.871094 600.941406 429.761719 602.828125 430.796875 604.59375 C 432.757812 608.738281 436.882812 612.683594 443.179688 616.429688 C 447.882812 619.523438 453.804688 621.046875 460.941406 620.996094 C 474.125 619.722656 483.703125 613.222656 489.671875 601.5 C 493.082031 593.175781 493.511719 585.167969 490.949219 577.476562 Z M 433.4375 417.1875 " fill-opacity="1" fill-rule="nonzero"/><path fill="#000000" d="M 364.675781 422.105469 L 364.679688 422.109375 L 364.675781 422.109375 C 364.675781 422.109375 364.671875 422.109375 364.671875 422.109375 L 364.667969 422.109375 C 364.667969 422.109375 364.667969 422.105469 364.667969 422.105469 L 364.675781 422.109375 " fill-opacity="1" fill-rule="nonzero"/><path fill="#000000" d="M 345.65625 383.605469 L 276.429688 576.511719 C 274.429688 583.527344 274.121094 589.953125 275.496094 595.785156 C 276.183594 598.699219 277.292969 601.464844 278.824219 604.085938 L 281.4375 607.902344 C 283.386719 610.375 285.761719 612.699219 288.558594 614.875 C 295.882812 619.351562 303.339844 621.316406 310.929688 620.769531 C 318.996094 619.378906 325.085938 616.726562 329.199219 612.808594 C 333.351562 609.421875 336.402344 605.292969 338.34375 600.425781 L 377.9375 490.253906 C 377.507812 489.683594 377.597656 488.371094 378.214844 486.324219 L 383.152344 473.609375 L 364.671875 422.117188 C 371.238281 425.894531 377.523438 427.59375 383.527344 427.207031 C 377.617188 427.382812 371.074219 424.957031 363.886719 419.925781 L 350.871094 383.621094 C 349.675781 387.617188 349.113281 390.894531 349.1875 393.445312 Z M 345.65625 383.605469 " fill-opacity="1" fill-rule="nonzero"/><g clip-path="url(#9341ce27dd)"><path fill="#000000" d="M 303.660156 146.433594 L 176.640625 146.433594 C 158.308594 146.433594 143.445312 161.296875 143.445312 179.632812 C 143.445312 197.964844 158.308594 212.828125 176.640625 212.828125 L 303.660156 212.828125 C 321.996094 212.828125 336.859375 197.964844 336.859375 179.632812 C 336.859375 161.296875 321.996094 146.433594 303.660156 146.433594 Z M 303.660156 146.433594 " fill-opacity="1" fill-rule="nonzero"/></g><g clip-path="url(#e298f630f6)"><path fill="#000000" d="M 463.394531 146.433594 C 445.058594 146.433594 430.195312 161.296875 430.195312 179.632812 C 430.195312 197.964844 445.058594 212.828125 463.394531 212.828125 L 590.410156 212.828125 C 608.746094 212.828125 623.609375 197.964844 623.609375 179.632812 C 623.609375 161.296875 608.746094 146.433594 590.410156 146.433594 Z M 463.394531 146.433594 " fill-opacity="1" fill-rule="nonzero"/></g><path fill="#000000" d="M 176.640625 554.386719 C 158.308594 554.386719 143.445312 569.25 143.445312 587.582031 C 143.445312 605.917969 158.308594 620.78125 176.640625 620.78125 L 303.660156 620.78125 C 321.996094 620.78125 336.859375 605.917969 336.859375 587.582031 C 336.859375 569.25 321.996094 554.386719 303.660156 554.386719 Z M 176.640625 554.386719 " fill-opacity="1" fill-rule="nonzero"/><path fill="#000000" d="M 463.394531 554.386719 C 445.058594 554.386719 430.195312 569.25 430.195312 587.582031 C 430.195312 605.917969 445.058594 620.78125 463.394531 620.78125 L 590.410156 620.78125 C 608.746094 620.78125 623.609375 605.917969 623.609375 587.582031 C 623.609375 569.25 608.746094 554.386719 590.410156 554.386719 Z M 463.394531 554.386719 " fill-opacity="1" fill-rule="nonzero"/><path fill="#000000" d="M 170.210938 157.164062 C 155.988281 157.164062 142.832031 166.375 138.46875 180.683594 L 79.84375 372.835938 C 78.746094 376.421875 78.289062 380.054688 78.40625 383.605469 L 78.40625 383.609375 C 78.855469 369.800781 87.960938 357.195312 101.910156 352.941406 C 105.136719 351.957031 108.398438 351.488281 111.609375 351.488281 C 125.828125 351.488281 138.984375 360.699219 143.351562 375.003906 L 145.976562 383.605469 L 201.976562 200.054688 C 207.328125 182.519531 197.445312 163.964844 179.910156 158.617188 C 176.679688 157.632812 173.417969 157.164062 170.210938 157.164062 Z M 170.210938 157.164062 " fill-opacity="1" fill-rule="nonzero"/><path fill="#000000" d="M 596.84375 157.164062 C 593.632812 157.164062 590.371094 157.632812 587.144531 158.617188 C 569.605469 163.964844 559.726562 182.519531 565.074219 200.054688 L 621.078125 383.605469 L 623.703125 375.003906 C 628.066406 360.699219 641.222656 351.488281 655.445312 351.488281 C 658.652344 351.488281 661.914062 351.957031 665.144531 352.941406 C 679.09375 357.195312 688.195312 369.800781 688.644531 383.605469 L 688.644531 383.609375 C 688.761719 380.054688 688.304688 376.421875 687.210938 372.835938 L 628.585938 180.683594 C 624.21875 166.375 611.0625 157.164062 596.84375 157.164062 Z M 596.84375 157.164062 " fill-opacity="1" fill-rule="nonzero"/><path fill="#000000" d="M 145.976562 383.605469 L 143.351562 392.207031 C 138.984375 406.515625 125.828125 415.726562 111.609375 415.726562 C 108.398438 415.726562 105.136719 415.257812 101.910156 414.273438 C 87.996094 410.03125 78.90625 397.476562 78.410156 383.714844 L 78.402344 383.71875 C 78.300781 387.234375 78.757812 390.828125 79.84375 394.378906 L 138.46875 586.53125 C 142.832031 600.839844 155.988281 610.050781 170.210938 610.050781 C 173.417969 610.050781 176.679688 609.582031 179.910156 608.597656 C 197.445312 603.246094 207.328125 584.695312 201.976562 567.160156 Z M 145.976562 383.605469 " fill-opacity="1" fill-rule="nonzero"/><path fill="#000000" d="M 621.078125 383.605469 L 565.074219 567.160156 C 559.726562 584.695312 569.605469 603.246094 587.144531 608.597656 C 590.371094 609.582031 593.632812 610.050781 596.84375 610.050781 C 611.0625 610.050781 624.21875 600.839844 628.585938 586.53125 L 687.210938 394.378906 C 688.285156 390.859375 688.746094 387.296875 688.652344 383.808594 L 688.640625 383.8125 C 688.105469 397.535156 679.023438 410.039062 665.144531 414.273438 C 661.914062 415.257812 658.652344 415.726562 655.445312 415.726562 C 641.222656 415.726562 628.066406 406.515625 623.703125 392.207031 Z M 621.078125 383.605469 " fill-opacity="1" fill-rule="nonzero"/><path fill="#000000" d="M 397.34375 258.648438 L 396.898438 258.957031 C 395.609375 260.121094 393.484375 263.984375 390.519531 270.539062 L 352.246094 367.15625 C 349.308594 375.753906 346.230469 386.417969 343.015625 399.148438 C 340.300781 409.097656 339.921875 416.878906 341.878906 422.492188 C 344.554688 429.910156 348.875 431.703125 354.835938 427.871094 C 358.835938 425.214844 363.554688 419.910156 368.988281 411.949219 C 375.785156 400.226562 381.1875 390.007812 385.199219 381.296875 C 388.914062 375.242188 396.839844 352.117188 408.976562 311.921875 L 397.34375 258.648438 " fill-opacity="1" fill-rule="nonzero"/><path fill="#000000" d="M 429.050781 321.769531 L 428.941406 321.777344 L 396.785156 322.199219 C 392.476562 330.914062 388.546875 339.148438 384.996094 346.894531 C 377.898438 362.394531 372.328125 375.953125 368.277344 387.578125 C 364.515625 397.902344 361.703125 408.886719 359.847656 420.535156 C 355.5625 445.988281 357.394531 460.136719 365.335938 462.980469 C 366.695312 462.917969 368.175781 462.242188 369.777344 460.949219 L 372.261719 458.550781 C 373.980469 456.640625 375.816406 454.117188 377.769531 450.980469 C 379.726562 447.839844 381.796875 444.085938 383.992188 439.71875 C 386.183594 435.347656 388.496094 430.363281 390.925781 424.761719 L 390.945312 424.945312 L 391.582031 423.761719 C 394.472656 417.4375 406.808594 385.820312 428.589844 328.910156 C 429.304688 327.0625 429.757812 325.152344 429.953125 323.1875 C 429.953125 322.246094 429.652344 321.773438 429.050781 321.769531 " fill-opacity="1" fill-rule="nonzero"/><path fill="#000000" d="M 421.917969 362.523438 L 421.019531 362.578125 C 411.507812 364.5 401.648438 371.847656 391.449219 384.625 C 386.640625 390.929688 381.453125 399.0625 375.878906 409.023438 C 373.09375 414.003906 370.214844 419.445312 367.238281 425.339844 C 359.628906 440.875 354.949219 450.746094 353.199219 454.949219 L 372.625 504.65625 L 420.335938 380.742188 L 425.210938 367.398438 C 426.203125 364.394531 425.105469 362.769531 421.917969 362.523438 " fill-opacity="1" fill-rule="nonzero"/><path fill="#000000" d="M 424.921875 352.726562 L 383.671875 468.261719 C 398.53125 433.335938 408.949219 409.398438 414.925781 396.445312 C 420.378906 381.394531 424.980469 369.65625 428.730469 361.222656 C 428.679688 359.867188 428.398438 358.554688 427.890625 357.285156 C 426.847656 355.09375 425.855469 353.574219 424.921875 352.726562 Z M 424.921875 352.726562 " fill-opacity="1" fill-rule="nonzero"/><path fill="#000000" d="M 371.925781 322.1875 L 369.40625 327.328125 C 364.824219 336.65625 361.65625 343.371094 359.902344 347.484375 C 348.339844 375.742188 341.546875 393.382812 339.523438 400.402344 C 339.203125 401.5 338.769531 403.378906 338.230469 406.042969 L 337.761719 409.28125 C 337.535156 411.382812 337.484375 413.371094 337.605469 415.246094 C 337.722656 417.121094 338.019531 418.882812 338.484375 420.53125 L 339.316406 422.917969 C 339.957031 424.449219 340.769531 425.871094 341.753906 427.179688 L 371.925781 322.1875 " fill-opacity="1" fill-rule="nonzero"/><path fill="#000000" d="M 650.960938 342.042969 L 648.792969 342.242188 C 645.84375 342.773438 642.695312 344.359375 639.339844 347.003906 C 636.53125 348.925781 632.425781 353.351562 627.011719 360.28125 C 623.917969 364.886719 622.035156 371.097656 621.363281 378.914062 C 620.65625 387.894531 621.085938 395.871094 622.65625 402.847656 L 623.59375 405.953125 C 624.292969 407.917969 625.136719 409.675781 626.128906 411.222656 C 627.121094 412.765625 628.257812 414.101562 629.539062 415.226562 L 637.480469 454.40625 C 643.265625 448.019531 648.28125 441.453125 652.515625 434.699219 C 654.636719 431.324219 656.5625 427.902344 658.292969 424.433594 L 660.742188 419.195312 C 665.140625 409.824219 668.183594 397.816406 669.878906 383.179688 C 673.386719 355.699219 667.082031 341.988281 650.960938 342.042969 " fill-opacity="1" fill-rule="nonzero"/><path fill="#000000" d="M 666.484375 347.175781 L 666.273438 347.179688 C 665.707031 347.191406 665.140625 347.246094 664.574219 347.347656 L 620.511719 472.8125 C 623.054688 471.902344 627.375 468.632812 633.46875 462.996094 C 637.042969 460.101562 647.445312 449.363281 664.671875 430.789062 C 669.320312 425.496094 673.300781 420.363281 676.605469 415.390625 C 680.441406 409.242188 682.542969 405.601562 682.90625 404.46875 C 684.054688 402.101562 685.03125 399.777344 685.84375 397.488281 C 689.304688 387.804688 689.324219 378.082031 685.902344 368.324219 C 680.203125 354.371094 673.730469 347.324219 666.484375 347.175781 " fill-opacity="1" fill-rule="nonzero"/><path fill="#000000" d="M 117.375 337.882812 L 115.015625 337.980469 C 110.339844 338.371094 105.878906 339.9375 101.640625 342.671875 C 97.089844 345.496094 92.25 350.257812 87.128906 356.957031 C 86.234375 357.859375 84.328125 361.179688 81.410156 366.917969 C 80.335938 369.285156 79.386719 371.75 78.570312 374.320312 C 77.398438 379.550781 77.167969 384.277344 77.875 388.496094 C 78.710938 392.84375 81.207031 398.710938 85.359375 406.101562 C 85.972656 407.171875 86.605469 408.234375 87.257812 409.285156 L 99.707031 426.203125 L 132.785156 435.109375 C 134.921875 426.570312 136.476562 417.339844 137.445312 407.417969 L 138.0625 399.84375 C 138.398438 394.710938 138.589844 389.402344 138.636719 383.921875 C 138.683594 378.441406 138.582031 372.789062 138.335938 366.964844 C 136.734375 355.554688 133.960938 347.527344 130.019531 342.882812 C 128.707031 341.335938 127.261719 340.164062 125.691406 339.367188 C 124.304688 338.488281 121.53125 337.992188 117.375 337.882812 " fill-opacity="1" fill-rule="nonzero"/><path fill="#000000" d="M 130.183594 337.082031 L 128.210938 344.019531 C 124.507812 357.480469 122.292969 368.484375 121.558594 377.027344 L 121.316406 381.09375 L 121.339844 389.222656 C 121.425781 392.113281 121.65625 394.8125 122.03125 397.324219 L 122.707031 400.949219 C 123.75 405.59375 125.382812 409.488281 127.597656 412.628906 C 128.96875 414.800781 130.90625 416.351562 133.40625 417.28125 C 135.714844 417.863281 137.503906 417.46875 138.765625 416.097656 C 139.480469 415.4375 140.148438 414.554688 140.761719 413.453125 L 141.652344 411.632812 C 142.21875 410.3125 142.738281 408.765625 143.210938 407.003906 C 144.066406 403.585938 144.667969 400.921875 145.011719 399.003906 C 145.390625 397.273438 145.707031 394.53125 145.964844 390.773438 C 146.066406 383.710938 145.835938 370.277344 145.269531 350.480469 L 130.183594 337.082031 " fill-opacity="1" fill-rule="nonzero"/></svg>